<svg viewBox="0 0 16 16" fill="none" xmlns="http://www.w3.org/2000/svg">
  <path d="M13.558 2.746A2 2 0 0 0 12 2H4a2 2 0 0 0-2 2v7.428l4.42-5.403a.75.75 0 0 1 1.204.06L9.062 8.24z" fill="url(#a)"></path><path d="M2.443 13.255C2.809 13.71 3.37 14 4 14h8a2 2 0 0 0 2-2V4.574L9.58 9.975a.75.75 0 0 1-1.204-.059L6.94 7.76z" fill="url(#b)"></path><defs><linearGradient id="a" x1="13.938" y1="2.062" x2="2.568" y2="13.432" gradientUnits="userSpaceOnUse"><stop stop-color="#E44857"></stop><stop offset=".47" stop-color="#C711E1"></stop><stop offset="1" stop-color="#7F52FF"></stop></linearGradient><linearGradient id="b" x1="13.938" y1="2.062" x2="2.568" y2="13.432" gradientUnits="userSpaceOnUse"><stop stop-color="#E44857"></stop><stop offset=".47" stop-color="#C711E1"></stop><stop offset="1" stop-color="#7F52FF"></stop></linearGradient></defs>
</svg>
