<svg width="20" height="20" viewBox="0 0 20 20" fill="none"><path fill-rule="evenodd" clip-rule="evenodd" d="M5.553 1.438c-.241.158-.474.383-.724.64-.146.15-.275.3-.399.445-.228.265-.44.512-.714.714-.085.072-.322.19-.62.207l-.09.007c-.1.008-.2.016-.4-.009-.227-.123-.443-.043-.654.21-.231.332-.524.963-.646 1.361-.251 1.014.389 1.85 1.003 2.494.546.533.86.866 1.085 1.355.102.19.188.423.27.645.054.148.107.291.161.413l.01.021c.039.076.04.078.161.104.193.042.435.055.68.069q.18.01.354.023c.152.002.362-.003.56-.024l.133-.025c.24-.044.504-.092.73-.17.264-.065.498-.155.71-.237-.015.048-.077.095-.143.147-.061.046-.126.095-.162.151-.7 1.004-.903 1.9-.794 3.287l-.004-.003.005.024.006.069c.07.638.217 1.166.438 1.771.1.277.316.716.522 1.007q.078.111.173.226l.001.002c.678.824 1.974 1.787 3.719 2.179a2.8 2.8 0 0 0 1.066-.074c.943-.285 2.863-.961 2.863-.961s-1.705.141-2.485.064l-.08-.012c-.158-.022-.319-.044-.426-.15-.021-.026-.098-.18-.048-.182a1 1 0 0 0 .119-.026c.1-.027.249-.066.442-.084-.63-.067-.63-.067-.675-.18l-.002-.004a7 7 0 0 0-.299-.644c.282.023.904.058 1.115-.16 0 0-.368.043-.694.005a2 2 0 0 1-.352-.1 2 2 0 0 0-.158-.054c-.07-.02-.12-.036-.136-.058a2 2 0 0 0-.058-.131 2 2 0 0 1-.089-.215c-.073-.201-.087-.424-.1-.633l-.005-.085a1.76 1.76 0 0 0 .888.61c.124.043.482.167.756.079l.063-.02.005-.002h.001l-.006.001c-.036.006-.224.014-.297-.023-.575-.244-.737-.462-.84-.6l-.054-.069-.294-.44c.09-.179.14-.186.259-.187l.137.016c.265.03.407.047.595.002q.054.113.096.224c.09.225.175.439.427.605 1.07.318 1.339-.063 1.597-.43l.035-.049c.805.59 2.114.773 3.024.01 1.156-1.338 1.522-3.447 1.42-3.567-.145-.245-.334-.498-.497-.463a3 3 0 0 0-.526.204c-.26.121-.478.224-.842.181l.069-.003c.057-.002.114-.004.115-.009.044-.487-.004-.722-.025-.762-.13-.288-.291-.587-.43-.846l-.133-.247c-.01-.017-.028-.065-.05-.129-.062-.172-.167-.463-.314-.6-.087-.075-.3-.27-.3-.27l-.018.208s.084.012.115.14c.058.235.228.623.395.97h-.269l.309.08c.166.34.319.622.34.648.116.187.114.398.113.591v.125l-.078.039c-.012-.245-.256-.246-.482-.246h-.052l-.196-.049c.02.018.052.03.084.042.068.024.135.048.085.128-.051.028-.08.13-.109.234l-.018.063-.106.006.163.063c.13.05.258.099.404.16l.101.015-.103.26-.14-.057-.006-.099c-.247-.098-.725-.14-.742-.12-.144.14-.256.306-.368.471l-.077.112c.06-.046.113-.099.168-.152.123-.12.246-.24.425-.283.013-.001.131.02.25.042l.164.03-.098.015c-.072.01-.143.02-.158.04-.132.165-.24.352-.349.54q-.077.136-.158.266c.077-.08.136-.16.196-.24.12-.162.238-.323.501-.478.033-.021.274-.017.391.042-.027.099-.08.211-.134.324l-.055.119c-.066.153-.17.299-.275.444q-.078.106-.148.213c.256-.311.322-.377.389-.444a3 3 0 0 0 .224-.245c.124-.294.247-.611.361-.925l.024-.013c.023.012.116.01.234.007.107-.003.233-.006.345.001.197-.042.295-.106.383-.164.095-.062.178-.116.36-.13.237-.018.26.427.257.462a5.3 5.3 0 0 1-.422 1.586c-.476.917-1.01 1.74-1.766 1.855-.772.135-1.233-.126-1.657-.365a7 7 0 0 0-.244-.133l-.191.163c-.65.647-1.421.59-1.737-.256h.001l-.01-.02-.052-.098-.043-.083c-.08-.157-.162-.314-.258-.46-.949-.75-.548-1.436-.287-1.882l.022-.037c-.543-.137-1.262-.428-1.36-.812-.16-1.24-.08-1.632.08-2.27l-.072.016c-.704.148-1.418.299-2.173.55v-.005a8 8 0 0 0-1.107.41c-.158.046-.306.093-.457.14-.28.087-.568.178-.941.271a2.1 2.1 0 0 1-.55-.001c-.222-.03-.528-.03-.77-.03h-.001c-.208.001-.37.002-.39-.018-.144-.201-.234-.485-.323-.764-.083-.26-.165-.517-.288-.698l-.003-.004-.003-.003a4 4 0 0 0-.426-.467l-.067-.066C2.337 7.24 1.814 6.652 1.667 6.03l-.026-.109c-.042-.16-.096-.37-.055-.809V5.11l.002-.003c.147-.508.386-.922.792-1.337.423.007.84.016 1.167.079l.058.009c.163.026.44.07.723.176.813.302 1.887.8 1.887.8q-.273-.151-.552-.311c-.642-.366-1.283-.732-1.725-.822q-.126-.018-.162-.118c.539-.317.8-.668 1.06-1.018.154-.206.307-.412.516-.609l.104-.046c.185-.082.286-.126.472-.147 1.782.282 2.982.941 3.931 1.462l.37.202q.279.148.535.277c.208.105.407.205.6.316.312.102 1.25.81 1.525 1.193.28.589.483 1.225.669 1.84.133.624.25.877.25.877s-.114-.522-.095-.616c.118.044.395.13.51.117 0 0-.514-.266-.58-.5-.11-.382-.22-.872-.31-1.27-.086-.387-.153-.688-.182-.718-.165-.207-.852-.733-1.273-.976-.16-.092-.246-.149-.252-.19l.08-.082a4 4 0 0 1 .45-.41c.114-.092.23-.185.392-.245.599-.27 1.022-.099 1.268 0 .113.046.188.076.226.042 0 0-.188-.216-.105-.18.045.023.14.05.227.073a.8.8 0 0 1 .169.056c.319.25 1.153 1.161 1.655 2.124.12.235.17.39.114.674s-.1.44-.16.63c-.056.127-.369.996-.368 1.112-.063.477.204 1.073.204 1.073q.001-.09 0-.156c-.003-.075-.004-.136.005-.208l.018-.207s-.011-.055-.01-.077q.016-.131.04-.232.013-.064.02-.113c.092-.571.247-.995.425-1.484l.048-.132q.032-.073.065-.127c.038-.068.07-.124.067-.192.003-.142-.093-.32-.192-.504q-.047-.089-.092-.177a7 7 0 0 0-.457-.811c-.434-.625-.804-1.113-1.482-1.42-.19-.082-.937-.164-1.194-.115-.313.065-.582.129-.796.266a3.6 3.6 0 0 0-.474.387c-.145.133-.287.264-.44.361-.558-.279-.882-.501-1.017-.594l-.065-.043c-.409-.22-.9-.473-1.428-.715-.253-.236-1.826-.8-3.265-.913m1.703 14.851c-.252-.285-.494-.828-.687-1.281 1.064.64 2.78 1.342 4.238 1.307.146.253.32.52.463.732-1.856.283-3.143-.286-3.93-.672zm-.583-2.517c.68.607 1.39 1.24 3.852 1.765l.003-.006a2.3 2.3 0 0 1 .144-.806l.005-.014c-2.334-.278-4.074-2.126-4.44-3.117-.129.597-.12 1.204-.052 1.763.175.136.33.275.488.415m4.277.284a6 6 0 0 0-.118.275c-.82-.404-1.497-.891-2.178-1.381l-.017-.012c-1.102-.805-1.377-1.762-1.571-3.015a.3.3 0 0 1 .089-.08q.535-.359 1.158-.496c.362 1.357 1.106 2.722 1.845 3.968l.117.15c.2.261.31.406.675.591M9.57 17.84c.672-.004 1.364-.008 2.02-.308.054.113.134.211.175.26l.024.033c.624.813-.787.626-1.078.577-.517-.083-1.024-.285-1.506-.559q.18-.003.364-.003m4.784-3.569c-.424-.331-.781-.673-1.016-1.024-.064.344-.268.605-.459.85q-.058.074-.112.147c-.043.068-.074.16.137.456.057.078.263.092.402.084a3 3 0 0 0-.136-.094c-.115-.077-.23-.154-.255-.224.248.17.479.219.687.191.048-.005.107-.056.152-.133.09-.193.16-.244.232-.296l.007-.005.17.212zm-.296-10.603c.123.01.788 1.062.82 1.236.023.165.062.338.101.514.052.233.106.47.126.697-.11-.384-.228-.767-.378-1.15-.043-.106-.153-.345-.46-.683a1.6 1.6 0 0 1-.204-.589zm-1.99 3.513c.124.205.238.395.358.49-.079-.173-.15-.37-.222-.574-.183-.51-.381-1.065-.765-1.405-.514-.165-1.216-.174-1.917-.183q-.316-.003-.626-.012c.281.071.612.117.945.164.576.08 1.16.161 1.51.378.01.03-.013.05-.047.066l-.085-.013a.8.8 0 0 0-.33-.01c-.144.047-.277.121-.41.195a5 5 0 0 1-.19.102c.376-.077.567-.04.784.003.1.02.205.04.338.051.27.103.473.442.657.748m2.303 1.927a2.6 2.6 0 0 0-.865.023.9.9 0 0 0-.138.33q-.016.067-.038.133c.348-.383.486-.407 1.041-.486m-1.074 1.42s.405-.06.397-.021c-.027.127.035.418.054.438l-.223.182c.368-.185.751-.198 1.141-.212q.172-.005.344-.016s-.428-.118-.402-.122c.096-.013-.025-.447-.058-.456.082-.028.161-.048.243-.069-.612-.16-.966-.066-1.496.276m.455.414-.004.003q.003.003.004-.003m4.418.232c-.095.096-.19.191-.548.3-.343.081-.537-.057-.698-.241.058.016.104.04.15.062.148.073.29.144.79-.015l.404-.196q-.055.045-.098.09m-5.072 1.81c0-.016.56.056.624.077-.509-.003-.51-.002-.84.323l-.028.028c-.004-.127.028-.274.244-.428" fill="#CED0D6"/><path d="m4.829 2.077-.107-.104zm.724-.64.08-.127-.081-.05-.08.052zM4.43 2.524l-.113-.098zm-.714.714-.09-.122-.008.008zm-.62.207.008.15h.001zm-.09.007-.012-.15zm-.4-.009-.07.132.024.013.028.004zm-.654.21-.116-.097-.007.01zm-.646 1.361-.144-.044-.002.008zm1.003 2.494L2.2 7.61l.004.004zm1.085 1.355-.137.063.005.008zm.27.645-.141.052zm.161.413-.137.061.003.006zm.01.021.135-.067zm.161.104-.032.147h.001zm.68.069.014-.15h-.005zm0 0-.012.15h.004zm.354.023-.013.15h.01zm.56-.024.016.15.012-.003zm.133-.025-.027-.147zm.73-.17-.035-.147-.013.005zm.71-.237.143.042.087-.293-.285.11zm-.143.147-.092-.12zm-.162.151.123.086.004-.005zm-.794 3.287-.089.121.263.191-.025-.324zm-.004-.003.088-.121-.152-.11-.074.172zm0 0-.138-.059-.02.046.012.048zm.005.024.15-.013-.001-.011-.003-.011zm.006.069-.15.012v.004zm.438 1.771.14-.051zm.522 1.007-.122.087zm.173.226-.015.15.36.035-.23-.28zm0 0 .014-.15-.504-.048.396.316zm.001.002.116-.096-.01-.012-.012-.01zm3.719 2.179-.033.146.013.002zm1.066-.074.04.145.004-.001zm2.863-.961.05.142-.063-.291zm-2.485.064-.024.148.009.001zm-.08-.012-.025.148h.004zm0 0 .024-.148h-.004zm-.426-.15-.119.093.007.008.007.007zm-.048-.182-.005-.15zm.119-.026.038.145zm.442-.084.013.15.003-.299zm-.675-.18.139-.055zm-.002-.004.139-.056zm-.299-.644.013-.15-.273-.023.128.243zm1.115-.16.108.105.292-.302-.417.048zm-.694.005-.017.149zm-.352-.1-.055.14h.003zm-.158-.054.043-.143zm-.136-.058-.14.055.007.019.013.016zm-.058-.131-.137.062.001.001zm0 0 .136-.062v-.002zm-.089-.215.142-.05zm-.1-.633h-.15v.009zm0 0h.15v-.01zm0 0 .15-.01zm-.005-.085.116-.095-.298-.367.032.472zm.843.596-.045.143.125.04.055-.119zm.045.014.053-.14-.004-.002zm0 0-.053.14.004.001zm.756.079-.046-.143zm.068-.022.062.136zm.001 0h.15v-.207l-.196.063zm-.303-.022.067-.134-.008-.004zm-.84-.6-.12.09zm-.054-.069-.125.084.006.008.006.007zm-.294-.44-.134-.068-.04.078.05.073zm.259-.187.016-.15H11.4zm.137.016.017-.15zm.595.002.135-.066-.053-.108-.117.028zm.096.224.14-.055zm.427.605-.082.125.018.013.022.006zm1.597-.43-.122-.086zm.035-.049.089-.12-.123-.091-.088.125zm3.024.01.096.115.01-.007.007-.01zm1.42-3.567-.13.076.007.01.008.01zm-.497-.463-.031-.147-.008.002zm-.526.204-.064-.136zm-.842.181-.009-.15-.009.3zm.069-.003-.006-.15zm.115-.009.149.02v-.006zm-.025-.762-.137.062.005.008zm-.43-.846-.133.07v.001zm0 0 .132-.07v-.001zm-.133-.247.133-.07-.003-.006-.004-.006zm-.05-.129.14-.05zm-.314-.6.102-.11-.005-.005zm-.3-.27.102-.11-.225-.207-.026.304zm-.018.208-.15-.013-.011.14.139.02zm.115.14-.146.037zm.395.97v.15h.24l-.105-.216zm-.269 0v-.15l-.038.295zm.309.08.134-.065-.03-.062-.066-.018zm.34.648.128-.079-.005-.008-.006-.007zm.113.591.15.002zm0 .125.067.134.085-.042-.002-.095zm-.078.039-.15.007.011.23.206-.103zm-.482-.246-.001.15zm-.052 0-.036.145.017.004h.018zm-.196-.049.035-.145-.562-.137.425.393zm.084.042-.05.141zm.085.128.07.133.036-.02.021-.033zm-.109.234-.144-.04zm0 0 .145.04v-.002zm-.018.063.008.15.106-.005.03-.102zm-.106.006-.007-.15-.047.29zm.163.063-.054.14zm0 0 .067-.135-.006-.003-.008-.003zm0 0-.067.134.007.003.006.003zm.404.16-.058.138.017.007.018.003zm.101.015.14.056.07-.176-.187-.028zm-.103.26-.056.139.14.056.055-.14zm-.14-.057-.15.007.004.096.09.036zm-.006-.099.15-.007-.005-.096-.089-.036zm-.742-.12.105.108.008-.01zm-.368.471.123.085h.001zm0 0-.124-.085v.001zm0 0 .123.085zm0 0-.124-.084zm0 0 .124.085zm-.077.112-.123-.085.216.203zm.168-.152.104.108.002-.002zm0 0-.105-.107-.001.001zm.425-.283-.017-.149-.01.001-.008.003zm.25.042-.027.148h.003zm0 0 .028-.147-.005-.001zm0 0-.029.148.011.001zm0 0 .027-.148h-.01zm.164.03.03.146-.005-.294zm-.098.015-.02-.149zm-.158.04.117.095.006-.008zm-.349.54.125.083.005-.008zm0 0-.125-.084-.003.006zm0 0-.128-.078-.002.003zm0 0 .128.078.002-.003zm0 0-.128-.078-.002.003zm0 0 .13.075zm-.158.266-.127-.08.234.185zm.196-.24-.12-.09zm.501-.478.077.13.005-.004zm.391.042.145.04.033-.119-.11-.055zm-.134.324.136.064zm-.055.119-.137-.062-.002.003zm-.275.444.121.088zm-.148.213-.126-.082.242.177zm.389-.444.106.107zm.224-.245.114.098.015-.018.01-.021zm.361-.925-.07-.132-.051.027-.02.054zm.024-.013.072-.132-.072-.038-.07.038zm.234.007-.004-.15zm.345.001-.01.15.021.001.02-.004zm.383-.164-.082-.125zm.36-.13.011.15zm.257.462-.149-.014zm-.422 1.586.133.069.004-.01zm-1.766 1.855-.022-.148h-.003zm-1.657-.365-.074.13zm-.244-.133.069-.134-.09-.046-.076.065zm-.191.163-.098-.115-.008.008zm-1.737-.256.141-.053-.005-.012zm0 0-.01-.15-.22.015.095.2zm.001 0 .01.149.232-.016-.11-.205zm-.01-.02-.135.066.002.005zm-.052-.098-.133.069.002.004zm-.043-.083-.133.068zm-.258-.46.126-.082-.014-.02-.019-.015zm-.287-1.882.13.076zm.022-.037.13.076.1-.172-.194-.05zm-1.36-.812-.15.02.002.009.002.01zm.08-2.27.146.037.058-.232-.235.05zm-.072.016-.031-.147h-.003zm0 0 .03.147h.003zm-2.173.55-.148.023.027.176.168-.056zm0-.005.147-.023-.024-.16-.157.036zm-1.107.41.041.144.016-.004.014-.008zm-.457.14.045.143zm-.941.271.018.149.01-.001.008-.002zm-.55-.001-.02.149zm-.77-.03v.15zm-.001 0v-.15zm-.39-.018-.122.088.01.012.01.01zm-.323-.764-.143.046zm-.288-.698.124-.085-.007-.01zm-.003-.004.117-.094-.006-.007zm-.003-.003-.12.09.004.005.005.006zm-.426-.467-.106.107zm-.067-.066-.106.107zM1.667 6.03l-.147.03.001.004zm-.026-.109-.145.038zm-.055-.809-.142-.05-.006.018-.002.019zm0-.002.142.05.001-.003zm.002-.003.142.047.002-.005zM2.38 3.77l.002-.15h-.064l-.045.045zm1.167.079-.028.147h.004zm.058.009-.024.148zm.723.176-.052.14zm1.887.8-.064.136.136-.267zm-.552-.311-.075.13zm-1.725-.822.03-.148H3.96zm-.162-.118-.076-.13-.108.064.044.118zm1.06-1.018-.117-.094-.003.005zm0 0 .118.094.003-.004zm.516-.609-.06-.137-.024.01-.02.018zm.104-.046-.06-.137zm.472-.147.024-.148-.02-.003-.02.002zM9.86 3.225l.075-.13-.003-.001zm0 0-.074.13.002.002zm.37.202.073-.132H10.3zm.535.277-.067.134zm.6.316-.074.13.014.008.014.004zm1.525 1.193.136-.064-.006-.013-.008-.01zm.669 1.84.147-.032-.004-.012zm.25.877-.136.063.282-.094zm-.095-.616.053-.14-.165-.062-.035.173zm.51.117.018.15.487-.058-.436-.225zm-.58-.5.143-.042zm-.31-1.27.147-.033zm-.182-.718-.118.094.01.01zm-1.273-.976-.075.13zm-.252-.19-.107-.105-.054.055.013.075zm.08-.082L11.6 3.59zm.37-.348.09.12zm.08-.062.093.117zm.392-.245.052.141.01-.004zm1.268 0 .056-.139zm.226.042.102.11.107-.1-.096-.11zm-.105-.18.072-.133-.007-.003-.006-.003zm.227.073-.04.145zm.169.056-.103.11.01.008zm1.655 2.124.134-.069zm.114.674.147.03zm-.16.63.137.06.003-.006.002-.008zm-.368 1.112.149.02.001-.01V7.57zm.204 1.073-.136.061.287-.059zm0-.156h-.15v.003zm0 0h.15v-.004zm.005-.208.15.019v-.006zm.018-.207.15.013.002-.022-.005-.021zm-.01-.077-.149-.014zm.04-.232-.148-.03zm.02-.113-.148-.024-.001.005zm.425-1.484.14.052zm.048-.132-.138-.06-.003.009zm.065-.127-.125-.083-.006.01zm0 0 .125.084.006-.01zm.067-.192-.15-.003v.008zm-.192-.504-.133.07h.001zm0 0 .133-.07v-.001zm-.092-.177-.134.067zm-.457-.811.126-.082-.002-.004zm-1.482-1.42.061-.136h-.001zm-1.194-.115-.028-.148h-.003zm-.796.266.08.127zm-.474.387-.101-.11zm-.44.361-.067.134.076.038.071-.045zm-1.017-.594-.085.124zm-.065-.043.075-.13-.004-.002zM8.82 2.351l-.102.11.018.017.022.01zm-3.265-.913-.08.127.031.02.037.002zm1.015 13.57.077-.129-.398-.24.183.428zm.687 1.281-.113.1.006.005zm3.55.026.13-.075-.044-.077-.089.002zm.464.732.022.148.234-.036-.132-.196zm-3.93-.672-.105.106.017.017.023.011zm3.185-.838-.031.147.11.023.053-.099zm-3.852-1.765-.1.111v.001zm3.855 1.759.133.07.018-.034v-.039zm.144-.806.138.058zm.005-.014.14.058.075-.183-.197-.024zm-4.44-3.117.14-.052-.179-.485-.108.505zm-.052 1.763-.15.018.008.062.05.039zm.488.415.101-.11-.001-.002zm4.16.559-.067.134.144.072.06-.15zm.117-.275.136.065.063-.132-.13-.066zM8.654 12.95l.088-.122zm-.017-.012-.088.121zM7.066 9.923l-.116-.095-.043.052.01.066zm.089-.08.057.14.014-.006.013-.009zm1.158-.496.145-.038-.037-.14-.14.032zm1.845 3.968-.128.076.005.009.006.008zm.117.15.12-.09zm1.315 4.066.135-.065-.064-.133-.133.062zm-2.02.308v.15zm2.194-.047.117-.095zm.025.032-.136.064.007.014.01.013zm-1.078.577.025-.148h-.002zm-1.506-.559-.003-.15-.545.011.474.27zm.364-.003v-.15zm3.769-4.593.124-.083-.204-.306-.068.362zm1.016 1.024.097.114.14-.12-.145-.112zm-1.475-.174.119.092zm-.112.147-.121-.09-.006.01zm.137.456-.122.087zm.402.084.008.15.41-.021-.328-.248zm-.136-.094.084-.124zm0 0-.083.125zm-.255-.224.084-.124-.379-.257.153.431zm.687.191-.017-.149h-.002zm.152-.133.13.076.003-.007.003-.006zm.232-.296.088.121zm.007-.005.118-.094-.09-.112-.116.084zm.17.212-.117.093.096.121.118-.1zm.714-9.53.149-.022-.001-.005zm-.82-1.237.014-.15-.432-.039.316.298zm.922 1.75-.146.033v.004zm0 0-.145.037zm0 0 .147-.032-.001-.005zm.126.697-.144.041.294-.055zm-.378-1.15.14-.055v-.003zm-.46-.683-.128.077.007.013.01.011zm-.204-.589.147-.028zm-.005-.025.147-.028-.009-.048-.035-.033zm-1.632 4.002-.093.118.11.086.093-.102zm-.358-.49-.128.078zm.358.49.11.102.068-.073-.041-.09zm-.222-.573-.142.05zm-.765-1.405.1-.112-.024-.021-.03-.01zm-1.917-.183-.002.15zm-.626-.012.005-.15-.042.295zm.945.164-.021.148zm1.51.378.146-.04-.016-.057-.05-.03zm-.047.066-.02.149.044.006.04-.02zm-.085-.013.025-.148zm-.33-.01-.035-.146-.011.004zm-.41.195.072.131zm0 0-.074-.13zm-.19.102-.067-.134.097.28zm.784.003-.03.147zm.338.051.053-.14-.02-.007-.02-.002zm2.095 2.698-.033-.147-.054.012-.034.045zm.865-.023h.15v-.133l-.132-.016zm-1.003.352-.145-.037zm-.038.134-.142-.05.253.15zm1.041-.486.021.148.13-.018v-.13zm-.677 1.399.146.03zm-.397.02-.022-.148-.023.004-.022.01zm.227.6-.094-.116.162.25zm1.142-.212v-.15h-.005zm0 0v.15h.005zm.344-.016.011.15.03-.294zm-.402-.122-.02-.148zm-.058-.456-.048-.142-.455.154.462.132zm.243-.069.037.146.002-.291zm-1.496.276-.081-.126.148.26zm.455.414.147.026.073-.4-.315.257zm4.418.232-.106-.106zm0 0 .106.107zm-.548.3.035.146.01-.003zm-.698-.241.041-.145-.488-.14.334.383zm.15.062-.067.135.011.004zm0 0 .067-.135-.011-.004zm.79-.015.046.143.01-.003.01-.005zm.404-.196.094.117-.16-.252zm-4.546 1.977v.15l.049-.292zm-.624-.077.087.123.063-.045v-.078zm-.216.4.105.107zm-.028.028-.15.005.013.34.243-.239zM4.936 2.182c.251-.257.473-.471.7-.619l-.165-.25c-.257.167-.5.404-.75.66zm-.392.438a10 10 0 0 1 .393-.438l-.216-.209c-.15.155-.28.308-.404.452zm-.74.737c.29-.213.513-.473.74-.737l-.227-.195c-.23.268-.432.501-.69.69zm-.699.237c.326-.02.596-.146.709-.244l-.196-.227c-.056.048-.26.156-.53.171zm-.087.006q.044-.004.086-.006l-.015-.3-.095.007zm-.43-.01a1.8 1.8 0 0 0 .43.01l-.024-.299c-.094.008-.183.015-.369-.008zm-.52.157a.6.6 0 0 1 .252-.199.26.26 0 0 1 .215.026l.143-.264a.56.56 0 0 0-.452-.047.9.9 0 0 0-.39.292zm-.619 1.31c.118-.385.405-1.002.626-1.32l-.246-.171c-.242.347-.54.993-.666 1.403zm.968 2.346c-.615-.645-1.195-1.425-.965-2.354l-.292-.072c-.272 1.1.428 1.99 1.04 2.633zM3.53 8.8c-.237-.517-.571-.868-1.116-1.4l-.21.214c.547.534.842.85 1.053 1.31zm.274.655c-.08-.219-.17-.462-.278-.663l-.264.141c.096.18.178.402.26.626zm.158.404a7 7 0 0 1-.158-.404l-.281.104c.054.147.109.295.165.422zm.008.015-.01-.021-.269.134.01.021zm.059.025-.062-.015c-.012-.003-.008-.003 0 .002q.008.005.013.011l.006.007-.001-.002-.004-.006-.01-.022-.27.134c.014.026.04.089.101.129a.3.3 0 0 0 .082.036l.08.019zm.656.065a5 5 0 0 1-.657-.065l-.063.293c.206.044.461.058.703.072zm.005 0-.026.3zm.353.024q-.179-.014-.358-.024l-.017.3q.18.009.35.023zm.532-.024c-.192.02-.395.025-.543.023l-.004.3c.157.002.372-.003.578-.025zm.121-.023-.134.025.056.294.132-.024zm.709-.165c-.214.074-.466.12-.709.165l.054.295c.238-.044.513-.094.753-.177zm.703-.235a5.4 5.4 0 0 1-.69.231l.072.291a6 6 0 0 0 .727-.243zm.003.406c.031-.025.07-.054.103-.085a.3.3 0 0 0 .092-.139l-.287-.085q.004-.015.004-.01l-.016.016a1 1 0 0 1-.079.064zm-.126.114a.6.6 0 0 1 .126-.114l-.183-.239c-.054.042-.143.108-.196.19zm-.772 3.193c-.054-.684-.03-1.238.09-1.74s.337-.96.678-1.449l-.246-.172c-.359.515-.594 1.006-.724 1.55s-.152 1.132-.097 1.835zm-.242.13.004.003.177-.242-.004-.003zm.226-.061-.275-.12v.001zm.014-.071-.006-.023-.291.07.005.023zm.01.091-.006-.069-.3.025.006.07zm.429 1.733c-.219-.598-.361-1.114-.43-1.737l-.298.033c.072.653.222 1.194.446 1.807zm.503.971a4.8 4.8 0 0 1-.503-.971l-.282.103c.105.287.325.738.54 1.042zm.167.218a4 4 0 0 1-.167-.218l-.244.174q.081.115.18.235zm-.131.244.03-.298h-.001zm.11-.265-.002-.001-.187.235h.002zm3.658 2.15c-1.711-.384-2.978-1.328-3.636-2.128l-.232.19c.698.85 2.023 1.832 3.802 2.23zm.995-.072c-.338.09-.695.113-1.008.07l-.04.297c.354.049.751.023 1.125-.077zm2.9-.816-.05-.142v.001q-.002 0-.005.002l-.016.005-.062.022-.993.344c-.598.204-1.31.444-1.78.585l.088.288a62 62 0 0 0 1.79-.59c.299-.102.568-.195.763-.263l.23-.08.064-.023.016-.006.004-.001h.001zm-2.5.213c.404.04 1.035.023 1.558-.002a34 34 0 0 0 .88-.055l.055-.005.019-.001h.001l-.012-.15-.013-.15h-.004l-.015.002-.055.004a29 29 0 0 1-.87.055c-.525.026-1.136.04-1.514.004zm-.085-.012.078.011.046-.296-.083-.012zm-.004 0 .05-.297h-.001zm-.506-.19c.15.145.366.17.51.19l.041-.297c-.17-.024-.276-.044-.341-.108zm.052-.441a.17.17 0 0 0-.138.08c-.024.041-.024.082-.024.1.002.04.015.08.024.104a.7.7 0 0 0 .072.14l.237-.183q.005.008-.008-.016l-.02-.045c-.007-.019-.005-.02-.005-.01 0 .003.002.031-.017.063a.14.14 0 0 1-.112.067zm.085-.021-.066.017-.018.004.008.3a.4.4 0 0 0 .077-.012l.076-.02zm.467-.088c-.206.018-.366.061-.467.088l.077.29c.099-.026.238-.063.417-.08zm-.8.026c.008.02.026.072.066.113a.3.3 0 0 0 .152.082c.099.026.273.045.58.078l.032-.299a5 5 0 0 1-.535-.069c-.03-.008-.024-.011-.013 0 .008.009.01.018-.004-.017zm-.003-.005.002.005.279-.112-.002-.005zm-.291-.63c.112.21.22.453.292.63l.278-.112a7 7 0 0 0-.305-.659zm1.14-.334a.36.36 0 0 1-.159.08 1.4 1.4 0 0 1-.276.045c-.205.015-.421 0-.56-.01l-.025.298c.142.012.378.028.607.011.114-.008.232-.024.338-.056a.65.65 0 0 0 .29-.16zm-.604.258a3 3 0 0 0 .661.002l.049-.005.013-.001h.005l-.017-.15-.017-.149h-.003l-.012.002-.043.004-.156.01a3 3 0 0 1-.445-.011zm-.387-.109c.051.02.256.093.387.109l.035-.298a2 2 0 0 1-.318-.092zm-.15-.05q.069.02.147.05l.11-.28a2 2 0 0 0-.17-.057zm-.212-.112c.036.048.09.07.113.08.03.011.067.022.1.032l.087-.287-.077-.025-.008-.003c.001 0 .012.007.024.022zm-.074-.158c.018.04.035.074.054.123l.28-.11a2 2 0 0 0-.062-.14zm0-.001.272-.124zm-.094-.227c.038.109.067.17.094.228l.272-.127c-.026-.054-.05-.106-.084-.2zm-.108-.674c.012.206.026.45.108.675l.282-.102c-.064-.178-.078-.378-.091-.592zm0-.01h.3zm0 .009.299-.017zm-.006-.083.005.084.3-.019-.005-.085zm1.038.443a1.6 1.6 0 0 1-.772-.548l-.233.19c.227.279.521.52.915.644zm.05.015-.038-.013-.023-.006q-.008-.002-.032-.003-.014-.002-.047.007a.15.15 0 0 0-.09.079l.27.128a.15.15 0 0 1-.135.086q-.023-.001-.027-.003l-.005-.001.028.01zm.003.001-.106.281zm.657.077a.8.8 0 0 1-.361.005 2 2 0 0 1-.3-.083l-.098.283c.063.022.193.067.344.095.149.027.335.04.507-.015zm.063-.02-.063.02.092.285.063-.02zm-.01.004.015-.006.009-.002.006-.002.052.296a.2.2 0 0 0 .041-.013zm-.088.136a.15.15 0 0 1 .088-.136l.123.273a.15.15 0 0 0 .09-.137zm.19.145.006-.002-.092-.286-.006.002zm-.41-.031a.4.4 0 0 0 .117.033.976.976 0 0 0 .273.003l-.052-.296-.032.002a1 1 0 0 1-.144-.005c-.024-.004-.03-.007-.028-.006zm-.894-.646c.054.072.13.173.27.287.138.114.335.236.632.362l.118-.276a2.3 2.3 0 0 1-.561-.318 1.2 1.2 0 0 1-.218-.234zm-.046-.059c.013.015.026.032.046.06l.24-.18q-.026-.038-.06-.077zm-.306-.456.294.44.25-.166-.294-.44zm.381-.42c-.054 0-.138 0-.217.05a.5.5 0 0 0-.173.22l.268.134c.043-.086.063-.1.064-.1l.006-.001.057-.003zm.157.017-.138-.016-.033.298q.073.007.136.016zm.543.005c-.158.038-.274.026-.543-.005l-.035.298c.262.03.43.051.649-.002zm.27.315a3 3 0 0 0-.1-.235l-.27.131q.049.104.092.214zm.37.535c-.209-.138-.28-.31-.37-.535l-.278.11c.089.225.188.48.484.675zm1.393-.391c-.132.187-.242.338-.432.42-.187.082-.481.106-1-.048l-.085.288c.55.164.926.157 1.205.035.277-.12.43-.343.557-.522zm.035-.05-.035.05.245.173.034-.05zm3.05-.018c-.843.707-2.074.546-2.84-.016l-.177.242c.844.62 2.232.823 3.209.004zm1.401-3.355a.1.1 0 0 1-.02-.037q-.002-.006 0 .002a1 1 0 0 1 0 .066 2 2 0 0 1-.03.268 6.5 6.5 0 0 1-.216.886c-.22.7-.593 1.54-1.153 2.187l.227.196c.597-.69.985-1.573 1.212-2.293.113-.361.187-.685.227-.928q.03-.185.033-.306a1 1 0 0 0-.003-.111.3.3 0 0 0-.01-.054.2.2 0 0 0-.038-.07zm-.35-.414c-.004.001.002-.002.024.01a.4.4 0 0 1 .09.074c.075.077.151.19.221.309l.259-.153a2 2 0 0 0-.263-.364.7.7 0 0 0-.167-.132.33.33 0 0 0-.227-.037zm-.495.194c.15-.07.303-.141.502-.196l-.078-.289c-.227.062-.4.143-.55.213zm-.923.194c.409.048.661-.071.923-.194l-.127-.272c-.256.12-.442.206-.76.168zm.08-.302-.07.004.016.299.067-.003zm-.027.121a.15.15 0 0 1 .115-.125h.003-.015l-.076.004.012.3.084-.004.037-.003.028-.006a.2.2 0 0 0 .035-.015c.007-.004.065-.036.075-.111zm-.009-.672c-.005-.011-.002-.008.005.026q.009.041.016.128c.008.116.01.288-.012.524l.299.028a3.6 3.6 0 0 0 .012-.573 1.4 1.4 0 0 0-.02-.164.4.4 0 0 0-.034-.11zm-.43-.845c.14.26.299.554.427.836l.273-.123c-.133-.293-.296-.597-.436-.855zm0 0 .265-.141zm-.133-.248.133.248.264-.142-.131-.246zm-.059-.148.031.085c.008.02.02.051.036.075l.25-.164q.007.01.003.002l-.009-.02-.029-.079zm-.274-.542a.8.8 0 0 1 .155.242c.049.104.088.213.119.3l.282-.101a4 4 0 0 0-.13-.327 1.1 1.1 0 0 0-.222-.333zm-.198-.38-.101.111.002.002.007.007.109.099c.063.058.14.127.185.165l.195-.228a10 10 0 0 1-.286-.257l-.007-.006-.002-.002zm.132.222.018-.208-.3-.026-.017.208zm.11.092a.36.36 0 0 0-.122-.201.3.3 0 0 0-.111-.052h-.004a11 11 0 0 0-.045.296h-.003l-.021-.008c-.004-.002.007.003.015.037zm.386.94c-.168-.349-.332-.723-.385-.94l-.292.072c.062.252.24.653.406.998zm-.136-.085h-.269v.3h.27zm-.307.295.309.08.076-.29-.309-.08zm.804.489c.005.006.005.008-.002-.005l-.023-.04-.075-.138a15 15 0 0 1-.223-.436l-.27.131a16 16 0 0 0 .334.638c.005.01.015.026.026.039zm.146.687c.001-.187.007-.443-.135-.672l-.255.158c.089.144.091.311.09.511zm0 .12v-.12l-.3-.003v.13zm-.217-.131-.078.039.134.268.078-.039zm.139.166a.4.4 0 0 0-.082-.23.4.4 0 0 0-.18-.12c-.12-.04-.265-.04-.37-.04l-.001.3c.12.001.211.003.274.024q.039.016.044.026c.005.005.014.02.015.054zm-.632-.39h-.052l-.001.3h.052zm-.017.005-.196-.048-.07.291.195.048zm-.333.208c.027.025.057.04.077.05l.059.022.1-.283-.02-.007-.015-.006-.005-.002.008.005zm.136.072.036.014c.01.004.004.003-.005-.006a.101.101 0 0 1-.028-.067c-.001-.027.009-.04.005-.033l.254.159a.24.24 0 0 0 .04-.134.2.2 0 0 0-.059-.137.3.3 0 0 0-.081-.055c-.022-.01-.046-.018-.061-.024zm.064-.145a.3.3 0 0 0-.13.164c-.022.052-.039.112-.052.161l.289.08a1 1 0 0 1 .04-.127l.013-.027c.002-.004-.003.005-.018.014zm-.183.327.29.077zm0-.002-.017.062.288.085.019-.066zm.12-.046-.106.006.015.3.106-.006zm-.153.295.163.064.108-.28-.162-.063zm.164.064.107-.28zm-.014-.006.134-.269zm.013.006c.13.05.257.098.4.158l.115-.277a16 16 0 0 0-.407-.161zm.435.168.102.015.045-.296-.102-.016zm-.015-.189-.103.26.278.111.104-.26zm.092.177-.14-.057-.113.278.14.057zm-.047.074-.005-.098-.3.015.006.098zm-.099-.23a2.3 2.3 0 0 0-.493-.114 3 3 0 0 0-.285-.022.3.3 0 0 0-.068.012.16.16 0 0 0-.066.045l.227.196c-.025.03-.054.04-.06.041l-.02.006q-.008 0 0 0l.048.001q.071.003.184.018c.15.02.316.053.422.096zm-.903-.088c-.157.153-.277.33-.387.494l.248.168a3 3 0 0 1 .348-.448zm-.387.493.247.17zm0 .001.248.168zm0 0 .248.168zm0 0 .247.17zm0 0 .247.17zm0 0 .248.169zm0 0 .248.169zm0 0-.076.11.247.171.077-.112zm.14.314c.066-.051.126-.11.18-.162l-.21-.215a2 2 0 0 1-.155.14zm.181-.163-.212-.213zm-.002 0c.128-.123.224-.212.356-.244l-.07-.291c-.225.054-.377.206-.495.32zm.337-.24h-.022l.012.002.054.008.163.03.054-.296-.252-.042c-.002 0-.021-.003-.042 0zm.21.04.047-.296zm-.005 0 .057-.295zm.011.001.035-.298zm-.01-.001.167.03.05-.296-.162-.03zm.161-.265-.087.013.04.298c.034-.005.074-.01.109-.018zm-.087.013c-.034.005-.076.01-.112.018a.4.4 0 0 0-.062.019.2.2 0 0 0-.086.066l.245.173a.1.1 0 0 1-.032.031q-.011.007-.013.007l.012-.003.089-.013zm-.255.096c-.14.174-.254.372-.362.558l.26.15c.11-.19.212-.367.336-.52zm-.357.55.25.166zm-.003.005.256.155zm-.002.003.26.15zm0 0 .26.15zm.002-.003.256.156zm0 0 .256.156zm-.002.003.26.15zm0 0 .26.15zm0 0q-.078.135-.155.262l.254.159q.084-.137.16-.27zm.08.446c.085-.088.15-.177.209-.256l-.242-.179c-.06.082-.114.154-.183.226zm.209-.256c.116-.158.22-.299.457-.438l-.153-.258c-.29.17-.424.353-.546.517zm.462-.441c-.023.015-.042.016-.034.015l.02-.002a1 1 0 0 1 .085.002c.074.005.14.02.171.035l.134-.268a.98.98 0 0 0-.463-.062.2.2 0 0 0-.076.028zm.165-.124c-.024.084-.07.184-.126.3l.272.128c.051-.109.11-.234.143-.347zm-.126.3-.056.121.273.124.055-.117zm-.057.124a2.3 2.3 0 0 1-.259.416l.243.175c.103-.142.219-.302.292-.473zm-.259.416c-.05.07-.104.143-.152.219l.252.163q.066-.101.143-.207zm.09.395c.253-.309.316-.37.379-.432l-.212-.213a5 5 0 0 0-.4.455zm.379-.432c.051-.052.104-.104.232-.255l-.228-.194c-.122.143-.17.19-.216.236zm.256-.293c.125-.297.25-.617.364-.933l-.282-.102c-.113.312-.235.627-.358.918zm.294-.852.024-.013-.142-.264-.024.013zm.183-.288q-.09.003-.146.002l-.038-.001h-.001s.012.002.027.01l-.143.264c.035.018.072.022.085.024q.031.003.065.003.069 0 .159-.002zm.358.002c-.12-.008-.253-.004-.358-.002l.008.3c.108-.003.228-.005.332.001zm.292-.14c-.082.053-.161.106-.332.143l.063.293c.223-.048.339-.123.434-.185zm.43-.155a.8.8 0 0 0-.259.059c-.07.029-.125.066-.17.096l.164.25a.52.52 0 0 1 .288-.106zm.419.625a1.079 1.079 0 0 0-.045-.309.6.6 0 0 0-.11-.206.32.32 0 0 0-.264-.11l.023.3c.004 0 .007-.002.018.01a.3.3 0 0 1 .046.096 1 1 0 0 1 .028.134q.006.069.005.058zm-.435 1.633a5.4 5.4 0 0 0 .435-1.633l-.3-.027a5.1 5.1 0 0 1-.41 1.54zm-1.88 1.944c.428-.065.78-.33 1.079-.678s.558-.797.797-1.257l-.267-.139c-.236.457-.482.88-.758 1.2-.275.322-.568.527-.896.577zm-1.753-.383c.428.242.93.527 1.756.382l-.051-.295c-.718.125-1.14-.112-1.558-.348zm-.24-.131q.117.06.24.13l.147-.26a7 7 0 0 0-.25-.137zm-.025.144.191-.163-.194-.229-.191.163zm-1.974-.318c.171.46.482.736.865.784.374.047.773-.13 1.118-.474l-.212-.213c-.305.304-.617.421-.87.39-.243-.031-.477-.207-.62-.592zm.005.012.27-.129zm.126-.214h-.001l.02.299h.001zm-.133.2.01.02.265-.142-.01-.02zm-.05-.095.048.09.269-.132-.055-.104zm-.045-.088.043.084.266-.138-.043-.083zm-.25-.445c.09.138.168.287.25.445l.266-.137c-.08-.156-.164-.32-.265-.473zm-.291-2.04c-.128.218-.315.532-.331.896-.017.38.151.781.654 1.18l.186-.236c-.446-.353-.552-.67-.54-.931.012-.278.156-.53.29-.758zm.021-.037-.021.037.259.15.021-.036zm-1.376-.699c.034.134.12.247.221.342.103.095.23.179.368.251.274.146.601.256.88.327l.073-.291a3.8 3.8 0 0 1-.813-.3 1.5 1.5 0 0 1-.304-.207.43.43 0 0 1-.135-.197zm.08-2.344c-.08.32-.143.589-.164.936-.02.347 0 .765.08 1.39l.298-.039c-.08-.615-.098-1.013-.078-1.332.02-.318.076-.565.156-.882zm.105.199.072-.015-.062-.294-.072.015zm.002 0-.067-.293zm-2.159.546c.746-.249 1.452-.398 2.157-.546l-.062-.294c-.703.148-1.425.3-2.19.555zM8.125 9.1v.005l.297-.046v-.005zm-.887.52c.088-.048.303-.136.53-.22s.445-.156.538-.177L8.24 8.93c-.115.027-.35.106-.576.189-.224.083-.459.177-.569.237zm-.483.15c.15-.047.298-.093.453-.139l-.083-.288c-.16.047-.31.093-.46.14zm-.95.274c.378-.095.67-.187.95-.274l-.09-.286c-.28.087-.564.176-.933.269zm-.605.002q.289.038.587 0l-.036-.297a2 2 0 0 1-.511 0zm-.752-.028c.247 0 .542 0 .752.028l.04-.298c-.235-.032-.553-.03-.792-.03zm0 0v-.3zm-.492-.059c.031.03.067.039.077.041l.047.01q.043.005.098.006c.072.002.167.002.27.002v-.3a8 8 0 0 1-.26-.002l-.07-.005H4.11l.014.005a.1.1 0 0 1 .035.023zm-.364-.828c.086.271.183.58.344.806l.244-.175c-.128-.178-.211-.436-.302-.722zm-.269-.66c.108.16.184.392.269.66l.286-.091c-.08-.254-.169-.535-.307-.738zm.004.006.003.004.234-.188-.003-.004zm.003.004.003.003.222-.202-.003-.003zm-.42-.461c.15.148.289.286.41.45l.241-.18c-.137-.184-.293-.338-.44-.484zm-.067-.066.066.066.211-.213-.066-.067zM1.52 6.064c.158.67.714 1.287 1.321 1.89l.212-.213c-.616-.612-1.106-1.17-1.24-1.745zm-.025-.105q.015.057.024.1l.294-.058q-.012-.06-.028-.118zm-.06-.86c-.042.461.015.688.06.86l.29-.076c-.039-.15-.09-.34-.05-.757zm.01-.039-.002.003.283.099.001-.003zm0 0-.002.002.285.095v-.003zm.827-1.395a3.2 3.2 0 0 0-.83 1.4l.289.084c.14-.484.366-.876.755-1.274zm1.302.036c-.341-.065-.773-.074-1.193-.08l-.004.3c.426.006.83.016 1.14.075zm.054.009L3.57 3.7l-.048.297.058.009zm.751.183c-.299-.111-.588-.157-.751-.183l-.048.296c.164.026.426.068.695.168zm1.835.941.063-.136h-.001l-.003-.001-.178-.082-.46-.205c-.37-.162-.845-.364-1.256-.517l-.104.281c.402.15.87.349 1.24.51a41 41 0 0 1 .623.28l.01.005.002.001zm-.627-.18c.186.105.372.212.554.312l.145-.263q-.27-.15-.55-.31zm-1.68-.806c.2.04.456.147.75.294.291.147.609.328.93.511l.149-.26c-.32-.183-.644-.368-.944-.519-.298-.15-.584-.271-.825-.32zm-.272-.213c.021.058.057.11.11.148a.4.4 0 0 0 .171.066l.042-.297a.1.1 0 0 1-.035-.01l-.003-.003-.004-.009zm1.08-1.16c-.258.348-.505.678-1.016.978l.152.259c.566-.333.843-.706 1.105-1.057zm.003-.004.235.188zm.53-.624c-.22.208-.38.423-.533.629l.24.179c.155-.207.3-.403.499-.59zm.146-.074-.103.046.12.275.105-.047zm.517-.159c-.212.023-.33.077-.517.16l.122.273c.184-.081.266-.117.427-.134zm4.02 1.48C8.98 2.572 7.76 1.9 5.951 1.615l-.047.297c1.754.277 2.935.925 3.882 1.445zm.002.001-.15.26zm.367.2q-.179-.096-.37-.201l-.144.263q.192.105.372.202zm.531.275a19 19 0 0 1-.53-.275l-.144.264c.188.102.367.192.539.279zm.607.32c-.198-.113-.4-.216-.607-.32l-.135.268c.208.105.403.204.594.312zm1.572 1.235c-.151-.21-.47-.494-.779-.732a7 7 0 0 0-.456-.324 2 2 0 0 0-.364-.192l-.094.285c.058.02.162.074.297.16.131.084.283.191.434.308.307.237.595.498.718.67zm.69 1.884c-.186-.614-.392-1.26-.676-1.86l-.271.128c.273.578.474 1.205.66 1.819zm.107.921.136-.062v-.001l-.003-.007-.014-.033q-.018-.046-.052-.148a7 7 0 0 1-.17-.658l-.294.063c.068.317.131.541.179.688a3 3 0 0 0 .074.205l.005.011.002.003v.002zm-.242-.645a.4.4 0 0 0-.004.09q.003.045.01.094c.008.066.02.143.034.215l.05.255.004.017.001.006.147-.032.146-.031v-.006l-.004-.016-.049-.246a4 4 0 0 1-.04-.272v-.015zm.64-.003a.3.3 0 0 1-.071-.005 2.645 2.645 0 0 1-.37-.103l-.104.28c.063.024.167.058.27.085q.08.021.157.034a.6.6 0 0 0 .153.007zm-.708-.31a.6.6 0 0 0 .157.242c.066.066.145.127.217.178a3 3 0 0 0 .258.159l.017.01q.004.001.005.002l.002.001.07-.133.068-.133-.004-.002-.015-.008a2.2 2.2 0 0 1-.405-.286.3.3 0 0 1-.082-.113zm-.31-1.278c.088.396.199.89.31 1.278l.288-.083c-.108-.377-.216-.862-.306-1.261zm-.146-.647c-.018-.02-.023-.038-.018-.024l.012.034.039.147c.03.125.069.295.112.49l.293-.066a28 28 0 0 0-.114-.496 3 3 0 0 0-.063-.221c-.005-.01-.018-.044-.044-.071zm-1.239-.95c.203.117.474.305.716.49.247.19.445.362.514.45l.235-.187c-.095-.12-.323-.314-.566-.5a8 8 0 0 0-.75-.513zm-.325-.295c.008.053.039.09.057.111a.5.5 0 0 0 .071.061q.076.054.197.123l.15-.26a2 2 0 0 1-.17-.105l-.027-.022c-.004-.005.012.01.018.043zm.121-.212-.08.082.213.211.082-.083zm.385-.362c-.13.1-.27.244-.385.362l.215.21a4 4 0 0 1 .353-.334zm.078-.06-.078.06.183.238.082-.064zm.433-.268c-.187.07-.32.177-.433.267l.187.235c.115-.092.214-.17.35-.221zm1.377.001c-.256-.103-.729-.293-1.386.003l.123.273c.542-.244.916-.092 1.15.002zm.068.07a.1.1 0 0 1 .053-.024q.015 0-.001-.002l-.046-.015-.074-.029-.112.278c.052.022.111.046.163.058.045.01.143.027.221-.046zm.056-.208a.2.2 0 0 0-.054-.015.157.157 0 0 0-.176.164.2.2 0 0 0 .012.057.5.5 0 0 0 .06.098c.02.028.043.057.06.077q.015.016.022.026l.006.007.002.002v.001l.114-.098.113-.1v.001l-.002-.002-.005-.006-.019-.022a2 2 0 0 1-.069-.09q-.006-.014-.002-.003a.1.1 0 0 1 .008.037.143.143 0 0 1-.187.142zm.208.067-.125-.035a1 1 0 0 1-.07-.026l-.143.264c.036.02.084.036.124.049l.135.038zm.23.091c-.025-.024-.057-.037-.066-.04l-.05-.018-.114-.033-.08.29.13.038q.004.001 0 0-.003 0-.023-.017zm1.687 2.164a8.2 8.2 0 0 0-.913-1.355c-.314-.383-.61-.683-.783-.817l-.185.236c.147.115.427.395.736.772.306.374.634.834.88 1.303zm.128.773c.031-.156.035-.286.01-.413a1.4 1.4 0 0 0-.137-.359l-.267.137c.058.115.093.197.11.28.015.08.015.17-.01.297zm-.165.647c.063-.195.108-.357.165-.647l-.294-.058a5 5 0 0 1-.156.613zm-.36 1.065c0 .007 0-.002.01-.04q.01-.046.033-.12a11.878 11.878 0 0 1 .312-.89l-.275-.12a12 12 0 0 0-.362 1.06.5.5 0 0 0-.018.113zm.054 1.074.137-.061v-.001l-.002-.004a1 1 0 0 1-.035-.088 3 3 0 0 1-.081-.245c-.057-.202-.102-.446-.074-.654l-.298-.04c-.035.27.023.561.083.776a3 3 0 0 0 .13.37l.002.006.001.002zm-.15-.153v.15l.3.005q.002-.095 0-.162zm0-.003h.3zm.006-.227c-.01.085-.008.157-.007.23l.3-.007a1 1 0 0 1 .005-.185zm.018-.2-.018.206.299.026.018-.207zm-.01-.079a.4.4 0 0 0 .012.118v.003l.147-.03.147-.03v-.001l-.001-.006-.005-.033v.008zm.041-.248c-.013.066-.031.152-.04.248l.298.029q.013-.117.036-.217zm.019-.102q-.005.036-.019.102l.294.06c.008-.04.018-.085.023-.124zm.433-1.516c-.178.488-.338.924-.432 1.511l.296.048c.09-.556.24-.968.418-1.456zm.048-.132-.048.132.282.103.048-.133zm.075-.149c-.02.037-.047.084-.072.141l.276.118a1 1 0 0 1 .058-.112zm.006-.01.25.167zm.042-.104c0 .019-.005.037-.048.114l.262.147c.034-.061.09-.155.086-.272zm-.174-.438q.077.14.128.255.049.118.046.175l.3.005a.8.8 0 0 0-.07-.296c-.039-.093-.09-.19-.14-.281zm0-.002.265-.138zm-.094-.18q.046.094.094.182l.265-.142q-.048-.088-.09-.172zm-.448-.795c.186.283.328.552.448.796l.269-.133a8 8 0 0 0-.466-.827zm-1.419-1.364c.637.287.987.744 1.421 1.368l.246-.172c-.434-.625-.825-1.146-1.544-1.47zm-1.105-.106c.105-.02.337-.014.58.01.118.013.233.028.33.046q.15.03.196.05l.12-.275a1.3 1.3 0 0 0-.262-.07 5 5 0 0 0-.354-.049c-.242-.025-.512-.036-.665-.007zm-.743.246c.188-.12.43-.18.746-.247l-.061-.293c-.31.064-.605.133-.846.287zm-.452.37c.15-.138.294-.269.452-.37l-.161-.253c-.184.118-.346.267-.494.403zm-.462.378c.167-.106.319-.246.462-.377l-.203-.221c-.147.135-.28.256-.42.344zm-1.182-.597a8 8 0 0 0 1.035.604l.134-.268c-.55-.275-.867-.493-1-.584zm-.055-.037q0 0 .005.003l.011.007.039.027.17-.248-.075-.05zm-1.415-.708c.524.24 1.012.492 1.42.71l.14-.264c-.41-.22-.903-.476-1.436-.719zm-3.215-.9a10 10 0 0 1 2.804.675q.15.064.247.118a.7.7 0 0 1 .124.08l.204-.22a1 1 0 0 0-.184-.124 3 3 0 0 0-.273-.13 10.245 10.245 0 0 0-2.898-.699zm-.068-.023.159-.254zm.957 13.502c.097.226.207.48.326.712.117.231.248.452.387.61l.224-.2a2.7 2.7 0 0 1-.344-.546c-.114-.223-.22-.468-.318-.694zm4.372 1.098c-1.416.034-3.104-.652-4.157-1.286l-.155.257c1.075.648 2.822 1.365 4.32 1.33zm.591.798a13 13 0 0 1-.457-.723l-.26.15c.149.258.326.528.468.74zm-4.12-.454c.797.392 2.118.976 4.018.686l-.045-.297c-1.81.277-3.064-.277-3.84-.658zm-.125-.115q.042.044.086.087l.212-.212-.084-.085zm3.407-1.003c-1.222-.261-2.001-.547-2.555-.838-.553-.29-.889-.59-1.228-.893l-.2.224c.342.305.7.625 1.288.934.586.308 1.393.601 2.633.866zm-.16.069-.003.006.264.142.004-.006zm.137-.792c-.088.214-.16.568-.155.865l.3-.005c-.004-.258.06-.57.132-.745zm.006-.014-.006.014.277.115.006-.014zm-4.443-3.008c.195.53.743 1.26 1.529 1.89.789.635 1.833 1.18 3.035 1.324l.035-.297c-1.133-.136-2.126-.653-2.882-1.26-.76-.61-1.265-1.3-1.436-1.761zm.237 1.693c-.066-.548-.073-1.138.05-1.714l-.293-.063c-.133.619-.123 1.244-.054 1.813zm.44.321c-.157-.14-.316-.282-.497-.422l-.183.238c.17.132.322.267.48.408zm.001.001-.202.222zm4.197.727a6 6 0 0 1 .115-.267l-.271-.129q-.056.122-.122.282zm-2.405-1.316c.68.489 1.367.983 2.2 1.393l.132-.269c-.807-.397-1.474-.877-2.156-1.368zm-.016-.012.016.012.176-.244-.017-.012zM6.918 9.946c.196 1.265.48 2.272 1.63 3.113l.178-.242c-1.053-.77-1.32-1.677-1.512-2.917zm.18-.241a.4.4 0 0 0-.148.123l.232.19a.4.4 0 0 1 .037-.04l-.007.005zm1.183-.504a3.5 3.5 0 0 0-1.21.519l.168.248q.51-.344 1.107-.474zm2.006 4.037c-.739-1.245-1.473-2.594-1.829-3.93l-.29.078c.368 1.379 1.121 2.76 1.862 4.005zm.107.136-.118-.152-.235.186q.063.079.115.149zm.624.549a1.5 1.5 0 0 1-.365-.243 2.4 2.4 0 0 1-.259-.306l-.238.183c.098.128.183.24.292.342.111.104.243.194.434.291zm.51 3.472c-.622.284-1.282.29-1.96.294l.002.3c.668-.004 1.393-.006 2.082-.322zm.353.302a1.2 1.2 0 0 1-.156-.23l-.27.13c.063.13.153.24.193.29zm.043.062c-.01-.02-.024-.038-.025-.04l-.018-.022-.233.19.015.018q.001.003 0 0l-.002-.003-.008-.014zm-1.238.79c.145.024.593.088.93.035a.9.9 0 0 0 .248-.072.4.4 0 0 0 .194-.18c.092-.18.01-.39-.15-.6l-.238.183c.151.197.127.27.121.28-.005.01-.019.028-.058.047a.6.6 0 0 1-.163.046c-.285.044-.689-.01-.834-.035zm-1.555-.576c.493.28 1.017.49 1.556.576l.047-.296c-.495-.08-.984-.274-1.454-.541zm.437-.284-.366.003.006.3.362-.004zm.001 0v.3zm3.644-4.36c.248.37.62.724 1.049 1.06l.184-.237c-.418-.327-.761-.657-.984-.99zm-.215.86c.187-.242.416-.53.487-.915l-.295-.055c-.056.302-.235.536-.429.785zm-.111.144.11-.145-.236-.184-.115.15zm.139.278c-.102-.142-.132-.218-.139-.254l-.002-.016v-.004l.008-.014-.253-.16a.3.3 0 0 0-.045.102.34.34 0 0 0-.002.15c.02.1.08.218.189.37zm.272.023a1 1 0 0 1-.2-.009.3.3 0 0 1-.07-.018c-.016-.007-.011-.008-.003.004l-.242.176c.037.05.089.08.13.098q.069.026.137.036c.09.015.187.016.264.012zm-.21.18q.07.047.128.09l.18-.24a3 3 0 0 0-.142-.1zm0 0 .166-.25zm-.315-.299a.43.43 0 0 0 .14.176c.054.043.118.085.174.123l.167-.25a2 2 0 0 1-.151-.106.4.4 0 0 1-.042-.039c-.01-.01-.008-.011-.005-.004zm.81-.008c-.168.022-.362-.014-.584-.166l-.169.248c.275.188.542.249.792.216zm.042-.06a.2.2 0 0 1-.054.064q-.001-.001.014-.004l.034.298a.3.3 0 0 0 .159-.075.5.5 0 0 0 .106-.131zm.272-.341c-.036.026-.083.06-.133.118a1 1 0 0 0-.146.235l.272.127a.7.7 0 0 1 .1-.165.5.5 0 0 1 .084-.072zm.008-.006-.008.006.177.242.008-.005zm.375.24-.17-.212-.234.187.17.212zm-.023-.184-.192.163.195.228.191-.163zm.768-9.279a.6.6 0 0 0-.051-.14 3 3 0 0 0-.09-.172 8 8 0 0 0-.532-.817 2 2 0 0 0-.119-.138 1 1 0 0 0-.059-.051.2.2 0 0 0-.103-.042l-.027.3c-.034-.004-.052-.02-.045-.015l.022.02q.036.035.094.11a7.38 7.38 0 0 1 .507.779 3 3 0 0 1 .102.203l.005.016zm.1.508a7 7 0 0 1-.1-.503l-.296.043c.025.171.065.35.104.525zm0-.004-.291.073zm0-.001-.29.075zm.13.72c-.022-.239-.078-.485-.13-.715l-.292.065c.053.234.103.461.123.678zm-.667-1.082c.146.377.264.756.373 1.137l.289-.082c-.11-.386-.231-.774-.383-1.164zm-.432-.636c.294.324.395.547.433.639l.277-.115c-.05-.12-.168-.374-.488-.726zm-.24-.662c.034.184.072.387.223.638l.257-.154a1.5 1.5 0 0 1-.186-.54zm-.006-.025.005.025.295-.056-.005-.025zm.045.08.206-.217zm-1.436 3.777a.8.8 0 0 1-.147-.171 5 5 0 0 1-.175-.279l-.257.155c.06.101.123.205.185.295.062.088.13.174.208.235zm-.203.016.22.203zm-.254-.422c.073.203.146.406.228.586l.273-.125a8 8 0 0 1-.218-.562zm-.723-1.343c.35.31.537.824.723 1.343l.283-.101c-.179-.5-.389-1.095-.806-1.466zM9.52 5.658c.71.01 1.385.02 1.873.176l.092-.286c-.54-.173-1.268-.181-1.96-.19zm-.629-.012q.313.01.63.012l.003-.3q-.317-.003-.622-.012zm.97-.135a9 9 0 0 1-.927-.16l-.075.29c.29.074.63.121.96.167zm1.57.4c-.197-.122-.45-.201-.718-.26-.269-.059-.565-.1-.852-.14l-.041.297c.29.04.573.08.829.136s.47.127.624.222zm-.063.329a.3.3 0 0 0 .092-.069.19.19 0 0 0 .037-.173l-.29.08a.11.11 0 0 1 .02-.096c.013-.016.024-.019.013-.014zm-.173-.001.089.014.04-.298-.08-.012zm-.272-.012a.7.7 0 0 1 .272.012l.049-.296c-.104-.018-.242-.042-.39-.007zm-.372.18a2.2 2.2 0 0 1 .384-.183l-.092-.285c-.16.052-.307.133-.438.206zm0 0-.146-.262zm-.195.105q.102-.052.195-.105l-.146-.262a5 5 0 0 1-.183.099zm.745-.278a1.84 1.84 0 0 0-.842-.003l.06.294c.349-.071.517-.038.725.003zm.322.049a3 3 0 0 1-.322-.05l-.057.295c.1.02.213.042.354.054zm.774.82c-.091-.152-.193-.322-.308-.466s-.252-.279-.425-.345l-.107.28q.146.058.297.251c.1.127.193.28.286.434zm1.34 2.173a2.4 2.4 0 0 1 .816-.02l.036-.298a2.7 2.7 0 0 0-.916.025zm-.024.22a.7.7 0 0 1 .113-.277l-.24-.179c-.102.137-.136.276-.163.382zm-.041.146c.017-.05.03-.102.041-.146l-.29-.074a2 2 0 0 1-.035.122zm.878-.684c-.271.039-.467.067-.637.14-.177.077-.315.197-.494.394l.222.202c.17-.187.273-.27.391-.32.125-.055.276-.078.56-.119zm-.129.149h.3zm-.38 1.43a.155.155 0 0 0-.069-.163.2.2 0 0 0-.065-.026.4.4 0 0 0-.073-.005c-.044 0-.1.005-.15.01l-.143.017-.047.006-.014.002h-.004l.021.149.022.148h.004l.012-.002a4 4 0 0 1 .3-.03h.015s-.02-.003-.041-.018a.14.14 0 0 1-.062-.15zm.016.304q.015.018.018.025l.005.01q.003.004.001 0l-.008-.027a1 1 0 0 1-.021-.107.7.7 0 0 1-.011-.206l-.294-.061a1 1 0 0 0 .009.314 2 2 0 0 0 .04.184l.01.026c.003.005.013.027.033.048zm-.238.401.223-.182-.19-.232-.222.182zm1.042-.478c-.386.014-.802.026-1.204.228l.135.268c.334-.168.685-.182 1.08-.196zm.005 0v.3zM15 10.75a9 9 0 0 1-.338.015l.01.3q.172-.005.35-.016zm-.412-.121a.15.15 0 0 0-.128.168c.006.053.039.084.045.09q.016.015.025.019c.015.01.031.016.035.017l.05.018a6 6 0 0 0 .29.084l.048.014.013.003.004.001h.001l.04-.144.04-.144-.005-.002-.013-.003a12 12 0 0 1-.36-.106c-.005-.002.005 0 .017.008l.023.018c.005.005.037.036.044.089a.15.15 0 0 1-.072.147c-.025.016-.049.019-.054.02zm-.078-.164a.14.14 0 0 1-.073-.05q-.007-.01-.005-.006l.014.034c.012.035.025.085.035.134q.015.08.014.119c0 .014-.002.01.003-.002a.12.12 0 0 1 .09-.065l.043.297a.18.18 0 0 0 .142-.112.3.3 0 0 0 .022-.107 1 1 0 0 0-.02-.19 1.4 1.4 0 0 0-.073-.24l-.022-.037-.024-.027a.2.2 0 0 0-.063-.036zm.248-.359q-.124.03-.255.073l.096.284c.076-.025.15-.045.232-.065zm-1.379.548c.26-.167.462-.264.666-.305.202-.04.42-.028.711.048l.076-.29c-.32-.084-.585-.104-.846-.052-.258.051-.498.172-.77.347zm-.148-.26.134.268zm.427.431-.004.004.19.232.004-.003zm-.018.223A.151.151 0 0 0 13.89 11l.008-.033-.295-.053q.001-.008.008-.027a.149.149 0 0 1 .245-.046zm4.637.233-.212-.213zm-.61.336c.187-.056.313-.112.407-.17.097-.06.155-.118.203-.167l-.212-.211a.7.7 0 0 1-.148.122 1.5 1.5 0 0 1-.337.14zm-.855-.286c.087.1.194.2.335.26a.8.8 0 0 0 .51.029l-.068-.292a.5.5 0 0 1-.324-.013.65.65 0 0 1-.227-.181zm.33-.17c-.045-.023-.103-.052-.176-.073l-.082.289c.043.012.078.03.125.052zm-.011-.005-.111.278zm.69-.019c-.243.077-.384.093-.474.088a.5.5 0 0 1-.205-.064l-.133.268c.076.038.171.086.32.095.143.009.323-.019.582-.1zm.382-.188-.403.196.131.27.404-.196zm.074.331a1 1 0 0 1 .086-.079l-.187-.234q-.068.055-.111.102zm-4.505 1.64a2.564 2.564 0 0 0-.15-.03 8 8 0 0 0-.421-.053 1 1 0 0 0-.11-.004.155.155 0 0 0-.087.035.15.15 0 0 0-.055.117h.3a.15.15 0 0 1-.1.14q-.026.007-.03.007-.008 0 0 0l.055.004a6 6 0 0 1 .477.063q.032.006.024.004zm-.784.571c.175-.172.233-.225.302-.251.072-.028.165-.03.432-.029l.002-.3c-.241-.001-.404-.005-.542.049-.14.054-.248.164-.404.317zm-.027.027.027-.027-.21-.214-.028.028zm.05-.656a.75.75 0 0 0-.252.28.6.6 0 0 0-.053.275l.3-.011a.3.3 0 0 1 .024-.133.46.46 0 0 1 .156-.166z" fill="#CED0D6"/></svg>