<svg viewBox="0 0 16 16" fill="none" xmlns="http://www.w3.org/2000/svg">
  <path d="M16 2a2 2 0 1 1-4 0 2 2 0 0 1 4 0M10 8a2 2 0 1 1-4 0 2 2 0 0 1 4 0" fill="#43454A"></path><path fill-rule="evenodd" clip-rule="evenodd" d="M14 4a2 2 0 1 0-1.723-.984l-3.261 3.26a2 2 0 1 0 .707.707l3.261-3.26A2 2 0 0 0 14 4m0-1a1 1 0 1 0 0-2 1 1 0 0 0 0 2M8 9a1 1 0 1 0 0-2 1 1 0 0 0 0 2" fill="#CED0D6"></path><path d="M6.911 5.204a3 3 0 0 1 1.866-.102l2.325-2.325a3 3 0 0 1-.085-1.095A7 7 0 0 0 8 1c-1.497 0-2.884.47-4.022 1.27zM5.171 9h-4.1A7.002 7.002 0 1 0 14.32 4.983a3 3 0 0 1-1.095-.085l-2.325 2.325A3.003 3.003 0 0 1 8 11a3 3 0 0 1-2.829-2" fill="#253627"></path><path d="M3.199 2.906A6.98 6.98 0 0 0 1 8h4c0-.903.399-1.713 1.03-2.263z" fill="#43454A"></path><path d="M4.698 2.99A5.97 5.97 0 0 1 8 2c1.113 0 2.155.303 3.048.83l.054-.053a3 3 0 0 1-.085-1.095A7 7 0 0 0 8 1c-1.497 0-2.884.47-4.022 1.27zM2.083 9H1.071A7.002 7.002 0 1 0 14.32 4.983a3 3 0 0 1-1.095-.085l-.054.054A6 6 0 1 1 2.084 9" fill="#57965C"></path><path d="M3.199 2.906A6.98 6.98 0 0 0 1 8h1c0-1.731.733-3.291 1.906-4.387z" fill="#CED0D6"></path>
</svg>
