<svg viewBox="0 0 16 16" fill="none" xmlns="http://www.w3.org/2000/svg">
  <g clip-path="url(#a)" fill="#CED0D6"><path fill-rule="evenodd" clip-rule="evenodd" d="M12.95 14a2.5 2.5 0 1 1 0-1H16v1h-1v2h-1v-2zm-2.45 1a1.5 1.5 0 1 0 0-3 1.5 1.5 0 0 0 0 3"></path><path d="M2 3.5a.5.5 0 0 1 .5-.5h11a.5.5 0 0 1 0 1h-11a.5.5 0 0 1-.5-.5M2 6.5a.5.5 0 0 1 .5-.5h7a.5.5 0 0 1 0 1h-7a.5.5 0 0 1-.5-.5M2.5 12a.5.5 0 0 0 0 1h4.535c.051-.353.154-.69.302-1zM13.5 10a.5.5 0 0 0 0-1h-11a.5.5 0 0 0 0 1z"></path></g><defs><clipPath id="a"><path fill="#fff" d="M0 0H16V16H0z"></path></clipPath></defs>
</svg>
