<svg viewBox="0 0 16 16" fill="none" xmlns="http://www.w3.org/2000/svg">
  <path d="M8.203 10.553H9.42L12.179 15h-1.273zM5 5h3.983q.95 0 1.673.357a2.6 2.6 0 0 1 1.115 1.016c.262.434.393.929.393 1.506q0 .864-.4 1.523a2.66 2.66 0 0 1-1.13 1.015q-.729.357-1.702.357H6.08V15H5zm3.983 4.766q.615 0 1.072-.229.457-.236.708-.665.258-.429.257-.993c0-.377-.085-.696-.257-.977a1.66 1.66 0 0 0-.708-.658 2.4 2.4 0 0 0-1.072-.229H6.08v3.751z" fill="#6C707E"></path><path d="M4.5 2.5h8" stroke="#6C707E" stroke-linecap="round"></path>
</svg>
