<svg viewBox="0 0 16 16" fill="none" xmlns="http://www.w3.org/2000/svg">
  <g clip-path="url(#a)" fill-rule="evenodd" clip-rule="evenodd"><path d="M14.412 8.295a1 1 0 0 0-1.414 0l-1.351 1.351L8 13.293V16h2.707l4.998-4.998a1 1 0 0 0 0-1.414zM14 11.293l.998-.998-1.293-1.293-.998.998zm-2-.586L13.293 12l-3 3H9v-1.293z" fill="#548AF7"></path><path d="M3 2a2 2 0 0 0-2 2v8a2 2 0 0 0 2 2h4v-1H6V6h4v3.879l1-1V6h3v1.024c.36.053.707.204 1 .454V4a2 2 0 0 0-2-2zm7 1H6v2h4zM3 3h2v2H2V4a1 1 0 0 1 1-1m-1 9V6h3v7H3a1 1 0 0 1-1-1m12-8v1h-3V3h2a1 1 0 0 1 1 1" fill="#CED0D6"></path></g><defs><clipPath id="a"><path fill="#fff" d="M0 0H16V16H0z"></path></clipPath></defs>
</svg>
