<svg viewBox="0 0 16 16" fill="none" xmlns="http://www.w3.org/2000/svg">
  <path d="M2 6v6a2 2 0 0 0 2 2h6a2 2 0 0 0 2-2V6a2 2 0 0 0-2-2H4a2 2 0 0 0-2 2" fill="#43454A"></path><path fill-rule="evenodd" clip-rule="evenodd" d="M3 6v6a1 1 0 0 0 1 1h6a1 1 0 0 0 1-1V6a1 1 0 0 0-1-1H4a1 1 0 0 0-1 1m-1 6V6a2 2 0 0 1 2-2h6a2 2 0 0 1 2 2v6a2 2 0 0 1-2 2H4a2 2 0 0 1-2-2" fill="#CED0D6"></path><path fill-rule="evenodd" clip-rule="evenodd" d="M5 2.5a.5.5 0 0 1 .5-.5H12a2 2 0 0 1 2 2v6.5a.5.5 0 0 1-1 0V4a1 1 0 0 0-1-1H5.5a.5.5 0 0 1-.5-.5" fill="#CED0D6"></path>
</svg>
