<svg viewBox="0 0 16 16" fill="none" xmlns="http://www.w3.org/2000/svg">
  <path fill="#EBECF0" d="M3 3H13V6H3z"></path><path fill="#EBECF0" d="M3 10H13V13H3z"></path><path d="M4 4h2v1H4z" fill="#6C707E"></path><path fill-rule="evenodd" clip-rule="evenodd" d="M2 3v3a1 1 0 0 0 1 1h10a1 1 0 0 0 1-1V3a1 1 0 0 0-1-1H3a1 1 0 0 0-1 1m1 3V3h10v3z" fill="#6C707E"></path><path d="M6 11H4v1h2z" fill="#6C707E"></path><path fill-rule="evenodd" clip-rule="evenodd" d="M2 10v3a1 1 0 0 0 1 1h10a1 1 0 0 0 1-1v-3a1 1 0 0 0-1-1H3a1 1 0 0 0-1 1m1 3v-3h10v3z" fill="#6C707E"></path>
</svg>
