<svg width="16" height="16" viewBox="0 0 16 16" fill="none"><path fill-rule="evenodd" clip-rule="evenodd" d="M13.5 11a.5.5 0 0 0-.5.5V13h-1.5a.5.5 0 0 0 0 1H13v1.5a.5.5 0 0 0 1 0V14h1.5a.5.5 0 0 0 0-1H14v-1.5a.5.5 0 0 0-.5-.5" fill="#CED0D6"/><path fill-rule="evenodd" clip-rule="evenodd" d="M2 8a6 6 0 1 1 11.659 2h1.051A7 7 0 1 0 10 14.71V13.66A6 6 0 0 1 2 8" fill="#CED0D6"/><circle cx="6" cy="6" r="1" fill="#CED0D6"/><circle cx="10" cy="6" r="1" fill="#CED0D6"/><path d="M10.763 9.438c-1.019 2.13-4.518 2.09-5.544-.002" stroke="#CED0D6" stroke-linecap="round"/></svg>