<svg width="16" height="16" viewBox="0 0 16 16" fill="none"><path d="M6.992 4H6v8h.992V8.557q0-.478.2-.85c.133-.25.341-.444.58-.58q.36-.211.827-.211.44 0 .753.182.318.177.49.524.17.342.17.827V12H11V8.335c0-.486-.064-.903-.246-1.248a1.86 1.86 0 0 0-.758-.793 2.26 2.26 0 0 0-1.112-.268q-.69 0-1.203.325c-.273.17-.512.401-.692.691l.003-.143z" fill="#CED0D6"/><path fill-rule="evenodd" clip-rule="evenodd" d="M2 4a2 2 0 0 1 2-2h8a2 2 0 0 1 2 2v8a2 2 0 0 1-2 2H4a2 2 0 0 1-2-2zm2-1h8a1 1 0 0 1 1 1v8a1 1 0 0 1-1 1H4a1 1 0 0 1-1-1V4a1 1 0 0 1 1-1" fill="#CED0D6"/></svg>