<svg viewBox="0 0 16 16" fill="none" xmlns="http://www.w3.org/2000/svg">
  <path d="m8.5 15.5 2-2-2-2m-3 2H10m2.5-2-2-2 2-2m3 2H11" stroke="#3574F0" stroke-linecap="round" stroke-linejoin="round"></path><path fill-rule="evenodd" clip-rule="evenodd" d="M2 3.392h.017c.062-.388.29-.717.58-.979.34-.307.804-.561 1.335-.764C4.998 1.24 6.436 1 8 1s3.002.241 4.068.649c.53.203.995.457 1.335.764.29.262.518.591.58.98H14V6h-1v-.903a5 5 0 0 1-.932.46c-1.066.407-2.504.648-4.068.648s-3.002-.241-4.068-.648A5 5 0 0 1 3 5.097v1.45c0 .1.051.252.268.447.216.196.557.395 1.021.572.926.354 2.237.583 3.711.583.658 0 1.284-.045 1.857-.127l-.418.417a1.5 1.5 0 0 0-.388.673Q8.538 9.15 8 9.15c-1.564 0-3.002-.241-4.068-.648A5 5 0 0 1 3 8.04v1.45c0 .1.051.251.268.447.216.196.557.395 1.021.572.71.272 1.648.47 2.711.547V12h-.654c-.912-.106-1.738-.297-2.414-.556A5 5 0 0 1 3 10.985v1.45c0 .1.051.251.268.447.168.152.413.307.732.452v1.08l-.068-.026c-.53-.203-.995-.457-1.335-.764-.32-.29-.566-.662-.594-1.106H2zm1 .21c0-.1.051-.251.268-.447.216-.195.557-.395 1.021-.572C5.215 2.229 6.526 2 8 2s2.786.23 3.71.583c.465.177.806.377 1.022.572.217.196.268.348.268.448s-.051.252-.268.447c-.216.196-.557.395-1.021.573-.925.353-2.237.582-3.711.582s-2.785-.229-3.71-.582c-.465-.178-.806-.377-1.022-.573C3.05 3.855 3 3.703 3 3.603" fill="#6C707E"></path>
</svg>
