<svg width="16" height="16" viewBox="0 0 16 16" fill="none"><path d="M13.842 13.75a.75.75 0 0 0 .75-1.3zm-2.217-1.28 2.217 1.28.75-1.3-2.217-1.28zM14.9 9.75a.75.75 0 0 0 0-1.5zm-2.5 0h2.5v-1.5h-2.5zM14.574 5.46a.75.75 0 0 0-.714-1.32zm-2.217 1.2 2.217-1.2-.714-1.32-2.217 1.2zM2.155 13.75a.75.75 0 1 1-.75-1.3zm2.22-1.282-2.22 1.282-.75-1.3 2.22-1.281zM1.1 9.75a.75.75 0 0 1 0-1.5zm2.5 0H1.1v-1.5h2.5zM1.423 5.46a.75.75 0 0 1 .714-1.32zm2.22 1.2-2.22-1.2.714-1.32 2.22 1.2z" fill="#fff"/><path d="M10.243 4.754a2.4 2.4 0 1 0-4.465.057" stroke="#fff" stroke-width="1.5"/><path d="M4 7.5a3 3 0 0 1 3-3h2a3 3 0 0 1 3 3V10a4 4 0 0 1-8 0z" stroke="#fff" stroke-width="1.5"/></svg>