<svg viewBox="0 0 16 16" fill="none" xmlns="http://www.w3.org/2000/svg">
  <path fill-rule="evenodd" clip-rule="evenodd" d="M12.062 8a.7.7 0 0 0-.132-.126c-.151-.117-.298-.193-.448-.27l-.025-.013a1.7 1.7 0 0 0-.647-.142 1.77 1.77 0 0 0-1.032.309q.034.158.102.307c-.314.083-.606.24-.849.464L7.688 9.766a1.84 1.84 0 0 0-.3-1.017A1.76 1.76 0 0 0 6.12 9.817c-.08.165-.124.363-.124.528-.032.566.565.92 1.005.752.008.313.114.626.322.89l1.842 2.338A8.7 8.7 0 0 1 6.906 15v-1.768C4.115 12.677 2 10.18 2 7.175 2 3.762 4.712 1 8.063 1c3.352 0 6.164 2.808 5.925 6.658a7 7 0 0 1-.033.372 2 2 0 0 0-.342-.03zM8.903 3.19a.7.7 0 0 1 .622-.258c.372.04.722.347.697.785 0 .165-.045.376-.124.54a1.77 1.77 0 0 1-1.269 1.069c-.358-.453-.438-1.071-.2-1.648l.013-.025c.075-.155.148-.307.261-.464M4.798 9.2c-.716.04-1.064-.822-.547-1.275.12-.123.274-.213.473-.296q.317-.136.647-.141a1.74 1.74 0 0 1 1.02.309c-.08.535-.475 1.026-1.033 1.274a1.25 1.25 0 0 1-.56.128M5.36 5.08a1.4 1.4 0 0 0-.56-.129q-.058-.005-.112 0h-.012c-.628.034-.909.85-.386 1.275.16.123.314.213.473.296a1.74 1.74 0 0 0 1.679-.168c-.12-.535-.525-1.027-1.082-1.274m1.88-1.853c.112.117.185.268.26.423l.013.027a1.72 1.72 0 0 1-.162 1.648c-.557-.124-1.067-.492-1.306-1.068a1.3 1.3 0 0 1-.124-.541c0-.412.346-.71.71-.747a.69.69 0 0 1 .609.258" fill="#55A76A"></path><path fill-rule="evenodd" clip-rule="evenodd" d="m15.893 11.367-3.5 4.442a.5.5 0 0 1-.787 0l-3.499-4.442a.5.5 0 0 1 .055-.678l1.547-1.424c.185-.17.427-.265.678-.265h3.226c.251 0 .493.095.678.265l1.547 1.424a.5.5 0 0 1 .055.678" fill="#FFF7F7"></path><path fill-rule="evenodd" clip-rule="evenodd" d="m12 14.69 2.819-3.578-1.206-1.11h-3.226l-1.206 1.11zm3.893-3.323-3.5 4.442a.5.5 0 0 1-.787 0l-3.499-4.442a.5.5 0 0 1 .055-.678l1.547-1.424c.185-.17.427-.265.678-.265h3.226c.251 0 .493.095.678.265l1.547 1.424a.5.5 0 0 1 .055.678" fill="#DB3B4B"></path>
</svg>
