<svg viewBox="0 0 16 16" fill="none" xmlns="http://www.w3.org/2000/svg">
  <path fill-rule="evenodd" clip-rule="evenodd" d="M14 11.95a2.5 2.5 0 1 0-1 0V16h1v-1h2v-1h-2zm1-2.45a1.5 1.5 0 1 1-3 0 1.5 1.5 0 0 1 3 0" fill="#6C707E"></path><path d="M13.646 6.003 13.5 6a3.5 3.5 0 0 0-3.398 4.342c-.877.746-1.884 1.334-2.847 1.683-1.332.482-3.677.953-3.944 1.006l-.025.006-.104-.055c-1.738-.83-1.786-4.525 1.37-5.716.777-.294 1.535-.332 2.315-.37.609-.031 1.231-.062 1.886-.216 1.595-.372 3.442-1.55 4.192-3.082.244.709.502 1.534.701 2.405M12 13.15v-.487a3.5 3.5 0 0 1-1.69-1.722 8.7 8.7 0 0 1-2.282 1.706c-.661.334-1.23.503-1.994.73-.441.132-.947.283-1.574.496a7 7 0 0 0-.375.14c.435-.07.868-.095.868-.095.531-.023 1.127-.005 1.753.015 1.794.056 3.834.12 5.294-.784" fill="#F2FCF3"></path><path d="M6.556 5.927c-.703.038-1.515.101-2.363.421-1.94.733-2.94 2.27-3.151 3.777-.196 1.399.288 3.024 1.643 3.711l.038.091.039.095c.04.101.14.345.323.55.11.123.27.258.494.344.228.088.46.1.669.066a8 8 0 0 1 .703-.079l.047-.003h.008c.488-.022 1.038-.005 1.666.015l.286.009c.729.021 1.536.038 2.334-.021.89-.066 1.841-.23 2.708-.635V13.15c-1.46.902-3.5.839-5.294.783a24 24 0 0 0-1.753-.015s-.432.025-.868.095c0 0 .165-.069.375-.14a41 41 0 0 1 1.574-.495c.765-.228 1.333-.397 1.994-.73a8.7 8.7 0 0 0 2.281-1.707 3.5 3.5 0 0 1-.207-.6c-.876.747-1.884 1.335-2.847 1.684-1.413.511-3.969 1.011-3.969 1.011l-.103-.054c-1.738-.83-1.786-4.525 1.369-5.716.777-.294 1.535-.332 2.316-.37.608-.031 1.23-.062 1.886-.216 1.595-.372 3.441-1.55 4.192-3.082.243.709.501 1.534.7 2.405.375.015.734.09 1.069.214-.22-1.084-.535-2.1-.822-2.933L13.11 1l-1.064 2.172C11.458 4.369 9.908 5.4 8.523 5.724h-.001c-.56.132-1.087.158-1.701.19h-.002z" fill="#208A3C"></path>
</svg>
