<svg viewBox="0 0 16 16" fill="none" xmlns="http://www.w3.org/2000/svg">
  <path d="M14.937 8.941Q15 8.48 15 8a7 7 0 1 0-6.059 6.937L11.88 12H11.5a1.5 1.5 0 0 1 0-3h3.379z" fill="#25324D"></path><path fill-rule="evenodd" clip-rule="evenodd" d="M6.5 5v6h1V9.04h2.495v-1H7.5V6h3V5z" fill="#548AF7"></path><path fill-rule="evenodd" clip-rule="evenodd" d="M11 10.5a.5.5 0 0 1 .5-.5h4a.5.5 0 0 1 .5.5v4a.5.5 0 0 1-1 0v-2.793l-4.146 4.147a.5.5 0 0 1-.708-.708L14.293 11H11.5a.5.5 0 0 1-.5-.5" fill="#CED0D6"></path><path d="M10.361 13.518A6 6 0 1 1 13.917 9h.962l.058-.059Q15 8.48 15 8a7 7 0 1 0-6.059 6.937z" fill="#548AF7"></path>
</svg>
