<svg width="16" height="16" viewBox="0 0 16 16" fill="none"><path d="M3.5 9.5v-6h4v6z" stroke="#CED0D6" stroke-linejoin="round"/><path d="M4 5.5h3M4 7.5h3" stroke="#CED0D6"/><path d="M10 7.6h1v4.896h-.368q0-.846.288-1.476.294-.63.834-.966.546-.342 1.278-.342.66 0 1.17.282t.798.834q.288.546.288 1.314V16h-1.032v-3.744q0-.522-.186-.888a1.26 1.26 0 0 0-.522-.558 1.6 1.6 0 0 0-.798-.192q-.504 0-.888.222-.384.216-.6.618c-.14.268-.262.577-.262.917V16h-1z" fill="#548AF7"/><path d="M2 13V3a1 1 0 0 1 1-1h10a1 1 0 0 1 1 1v5.84a3.2 3.2 0 0 1 1 .48V3a2 2 0 0 0-2-2H3a2 2 0 0 0-2 2v10a2 2 0 0 0 2 2h6v-1H3a1 1 0 0 1-1-1" fill="#CED0D6"/></svg>