<svg viewBox="0 0 16 16" fill="none" xmlns="http://www.w3.org/2000/svg">
  <circle cx="12.5" cy="12.5" r="3.5" fill="#43454A"></circle><path fill-rule="evenodd" clip-rule="evenodd" d="M11.433 9.651a.5.5 0 0 1-.183.683c-.334.194-.62.463-.834.784a2.5 2.5 0 1 0 3.333-.784.5.5 0 1 1 .501-.865c.469.27.868.646 1.166 1.095a3.5 3.5 0 1 1-4.667-1.096.5.5 0 0 1 .684.183" fill="#CED0D6"></path><path fill-rule="evenodd" clip-rule="evenodd" d="M12.5 8a.5.5 0 0 1 .5.5v3a.5.5 0 0 1-1 0v-3a.5.5 0 0 1 .5-.5" fill="#CED0D6"></path><path d="M13.984 8.278a1.5 1.5 0 0 0-2.98.123c-.257 0-.517.064-.755.202a4.51 4.51 0 0 0-2.173 3.071q-.414.203-.821.35c-1.332.483-3.677.954-3.944 1.007l-.025.005-.104-.054c-1.738-.83-1.786-4.525 1.37-5.716.777-.294 1.535-.332 2.315-.37.609-.031 1.231-.062 1.886-.216 1.595-.372 3.442-1.55 4.192-3.082.45 1.31.948 3.014 1.039 4.68M8.242 13.96c-.52.005-1.037-.012-1.536-.027-.626-.02-1.222-.038-1.753-.015 0 0-.433.025-.868.095 0 0 .165-.069.375-.14a41 41 0 0 1 1.574-.495c.755-.225 1.318-.393 1.969-.718.016.454.099.89.24 1.3" fill="#253627"></path><path d="M6.556 5.927c-.703.038-1.515.101-2.363.421-1.94.733-2.94 2.27-3.151 3.777-.196 1.399.288 3.024 1.643 3.711l.038.091.039.095c.04.101.14.345.323.55.11.123.27.258.494.344.228.088.46.1.669.066a8 8 0 0 1 .703-.079l.047-.003h.008c.488-.022 1.038-.005 1.666.015l.286.009c.553.016 1.151.03 1.756.01a4.5 4.5 0 0 1-.472-.974c-.519.005-1.037-.012-1.536-.027a24 24 0 0 0-1.753-.015s-.432.025-.868.095c0 0 .165-.069.375-.14a41 41 0 0 1 1.574-.495c.755-.225 1.318-.393 1.969-.718a4.6 4.6 0 0 1 .073-.985q-.414.201-.821.35c-1.413.511-3.969 1.011-3.969 1.011l-.103-.054c-1.738-.83-1.786-4.525 1.369-5.716.777-.294 1.535-.332 2.316-.37.608-.031 1.23-.062 1.886-.216 1.595-.372 3.441-1.55 4.192-3.082.45 1.311.949 3.018 1.038 4.685q.009.058.013.118c.256 0 .516.064.754.202q.127.073.247.154-.001-.444-.04-.88c-.14-1.681-.635-3.344-1.065-4.593L13.11 1l-1.064 2.172C11.458 4.369 9.908 5.4 8.523 5.724h-.001c-.56.132-1.087.158-1.701.19h-.002z" fill="#57965C"></path>
</svg>
