<svg width="16" height="16" viewBox="0 0 16 16" fill="none"><path d="M3 3a1 1 0 0 0-1 1v8a1 1 0 0 0 1 1h2v-1.05A3.49 3.49 0 0 1 4 9.5c0-.954.381-1.818 1-2.45V3z" fill="#25324D"/><path d="M6 2v1h7a1 1 0 0 1 1 1v2.035c.353.051.69.154 1 .302V4a2 2 0 0 0-2-2z" fill="#CED0D6"/><path d="M6 2H3a2 2 0 0 0-2 2v8a2 2 0 0 0 2 2h3v-1.337a3.5 3.5 0 0 1-1-.714V13H3a1 1 0 0 1-1-1V4a1 1 0 0 1 1-1h2v4.05a3.5 3.5 0 0 1 1-.713z" fill="#548AF7"/><path fill-rule="evenodd" clip-rule="evenodd" d="M14 11.95a2.5 2.5 0 1 0-1 0V16h1v-1h2v-1h-2zm1-2.45a1.5 1.5 0 1 1-3 0 1.5 1.5 0 0 1 3 0" fill="#F2C55C"/><path fill-rule="evenodd" clip-rule="evenodd" d="M8 11.95a2.5 2.5 0 1 0-1 0V16h1v-1h2v-1H8zM9 9.5a1.5 1.5 0 1 1-3 0 1.5 1.5 0 0 1 3 0" fill="#548AF7"/></svg>