<svg width="16" height="16" viewBox="0 0 16 16" fill="none"><path d="M7.5 13.5H6m0 0h3m-3 0A1.5 1.5 0 0 1 4.5 12V4.5m0 0V4A1.5 1.5 0 0 0 3 2.5m1.5 2h-3V4A1.5 1.5 0 0 1 3 2.5m0 0h7.5a2 2 0 0 1 2 2V8" stroke="#CED0D6" stroke-linejoin="round"/><path d="M14 11.5a.5.5 0 0 1-.5.5h-1a.5.5 0 0 1 0-1h1a.5.5 0 0 1 .5.5M13.5 14a.5.5 0 0 0 0-1h-1a.5.5 0 0 0 0 1z" fill="#548AF7"/><path fill-rule="evenodd" clip-rule="evenodd" d="M10 9.5a.5.5 0 0 1 .5-.5h5a.5.5 0 0 1 .5.5v6a.5.5 0 0 1-.5.5h-5a.5.5 0 0 1-.5-.5zm1 .5v5h4v-5z" fill="#548AF7"/></svg>