<svg viewBox="0 0 16 16" fill="none" xmlns="http://www.w3.org/2000/svg">
  <path d="m12.773 5.144 1.23.37v1.59l-1.23-.089z" fill="#F58435"></path><path d="M11.113 5.397v1.716l1.659-.098V5.144zM3.219 4.276 2 4.656v2.496l1.219-.098z" fill="#9D5025"></path><path d="M4.887 4.53v2.622L3.22 7.054V4.276zM13.999 8v2l-5.995 1.51V8.049z" fill="#F58435"></path><path d="M2 8v2l6.005 1.51V8.049z" fill="#9D5025"></path><path d="m8.004 1 1.768.848v4.914l-1.768-.156z" fill="#F58435"></path><path d="m8.005 1-1.778.868v4.904l1.778-.166z" fill="#9D5025"></path><path d="M9.762 12.446v1.716L8.004 15V13.1z" fill="#F58435"></path><path d="M6.246 12.446v1.716L8.005 15V13.1z" fill="#9D5025"></path><path d="m8.005 11.949 1.758.496-1.758.653-1.759-.653z" fill="#FEB57E"></path>
</svg>
