<svg viewBox="0 0 16 16" fill="none" xmlns="http://www.w3.org/2000/svg">
  <g clip-path="url(#a)" fill-rule="evenodd" clip-rule="evenodd"><path d="M8.969 8a4 4 0 1 1 0-1H14.5a.5.5 0 0 1 0 1H14v2.5a.5.5 0 0 1-1 0V8h-1v2.5a.5.5 0 0 1-1 0V8zM5 10.5a3 3 0 1 0 0-6 3 3 0 0 0 0 6" fill="#6C707E"></path><path d="M15.827 11.176a.6.6 0 0 1 0 .848l-3.797 3.797a.6.6 0 0 1-.848 0l-2.006-2.006a.6.6 0 1 1 .848-.848l1.582 1.581 3.373-3.372a.6.6 0 0 1 .848 0" fill="#369650"></path></g><defs><clipPath id="a"><path fill="#fff" d="M0 0H16V16H0z"></path></clipPath></defs>
</svg>
