<svg viewBox="0 0 16 16" fill="none" xmlns="http://www.w3.org/2000/svg">
  <path d="M4.853 9.81H2.707q.426 1.463 1.583 2.621 1.847 1.847 4.443 1.846.518 0 1.007-.074 1.955-.295 3.423-1.771 1.165-1.159 1.595-2.622H4.853M3.67 6.895H2.547a7 7 0 0 0-.082.756H15a7 7 0 0 0-.082-.756M2.466 8.353q.02.387.082.755h12.369000000000002q.063-.368.083-.755M14.758 6.193q-.428-1.467-1.595-2.634-1.464-1.462-3.413-1.757a7 7 0 0 0-1.017-.076q-2.597 0-4.443 1.833-1.158 1.167-1.584 2.634" fill="#2C2255"></path><path d="M2.094 8.002c0-3.311 2.486-6.062 5.72-6.546q-.12-.005-.241-.006C3.943 1.45 1 4.383 1 8.002s2.943 6.551 6.573 6.551q.122 0 .242-.006c-3.235-.483-5.721-3.234-5.721-6.545" fill="#F7941E"></path><path d="M12.998 7.65a4.3 4.3 0 0 0-.13-.755h-8.27a4.3 4.3 0 0 0-.13.755z" fill="url(#a)"></path><path d="M12.998 8.353h-8.53q.03.389.13.755h8.27a4.3 4.3 0 0 0 .13-.755" fill="url(#b)"></path><path d="M8.733 12.282a4.28 4.28 0 0 0 3.88-2.472h-7.76a4.28 4.28 0 0 0 3.88 2.472" fill="url(#c)"></path><defs><linearGradient id="a" x1="8.733" y1="15.129" x2="8.733" y2="5.689" gradientUnits="userSpaceOnUse"><stop offset=".303" stop-color="#473788"></stop><stop offset=".872" stop-color="#2C2255"></stop></linearGradient><linearGradient id="b" x1="8.733" y1="15.13" x2="8.733" y2="5.689" gradientUnits="userSpaceOnUse"><stop offset=".303" stop-color="#473788"></stop><stop offset=".872" stop-color="#2C2255"></stop></linearGradient><linearGradient id="c" x1="8.733" y1="15.129" x2="8.733" y2="5.689" gradientUnits="userSpaceOnUse"><stop offset=".303" stop-color="#473788"></stop><stop offset=".863" stop-color="#2C2255"></stop></linearGradient></defs>
</svg>
