<svg width="16" height="16" viewBox="0 0 16 16" fill="none"><g clip-path="url(#a)" fill="#CED0D6"><path fill-rule="evenodd" clip-rule="evenodd" d="M7 3h5a1 1 0 0 1 1 1v8a1 1 0 0 1-1 1H7zM6 2h6a2 2 0 0 1 2 2v8a2 2 0 0 1-2 2H4a2 2 0 0 1-2-2V4a2 2 0 0 1 2-2zm0 11H4a1 1 0 0 1-1-1V4a1 1 0 0 1 1-1h2z"/><rect x="8" y="10" width="4" height="1" rx=".5"/><rect x="8" y="7.5" width="4" height="1" rx=".5"/><rect x="8" y="5" width="4" height="1" rx=".5"/></g><defs><clipPath id="a"><path fill="#fff" d="M0 0H16V16H0z"/></clipPath></defs></svg>