<svg width="16" height="16" viewBox="0 0 16 16" fill="none"><path d="M1 3v4a1 1 0 0 0 1 1h6a1 1 0 0 0 1-1V4a1 1 0 0 0-1-1H5.5l-1-1H2a1 1 0 0 0-1 1" fill="#43454A"/><path fill-rule="evenodd" clip-rule="evenodd" d="M1 7a1 1 0 0 0 1 1h6a1 1 0 0 0 1-1V4a1 1 0 0 0-1-1H5.5l-1-1H2a1 1 0 0 0-1 1zm3.086-4H2v4h6V4H5.086z" fill="#CED0D6"/><path d="M4.5 7.5v3m4 3h-3a1 1 0 0 1-1-1v-2m0 0h4" stroke="#CED0D6" stroke-linecap="round"/><path d="m12.5 2.5-2 2m2-2 2 2m-2-2v11" stroke="#CED0D6" stroke-linecap="round" stroke-linejoin="round"/></svg>