<svg width="16" height="16" viewBox="0 0 16 16" fill="none"><path fill-rule="evenodd" clip-rule="evenodd" d="m3.714 4.91.006.006v.002c.628.606 1.284.96 2.032 1.676C4.006 5.201.338 4.393 1.244 2.304c.098-.2.243-.398.414-.57.171-.17.37-.316.568-.413 2.09-.909 2.899 2.761 4.292 4.507-.715-.748-1.07-1.404-1.677-2.031v-.001l-.006-.006-.009-.008a.78.78 0 0 0-1.103 0l-.009.008-.008.01a.78.78 0 0 0 0 1.102z" fill="#941F15"/><path fill-rule="evenodd" clip-rule="evenodd" d="m3.714 11.19.006-.005v-.002c.628-.606 1.284-.96 2.032-1.676-1.746 1.393-5.414 2.2-4.508 4.29.098.2.243.398.415.57.17.17.369.316.567.413 2.09.909 2.899-2.761 4.292-4.507-.715.748-1.07 1.404-1.677 2.031v.001l-.006.006-.009.008a.78.78 0 0 1-1.103 0l-.009-.008-.008-.009a.78.78 0 0 1 0-1.103z" fill="#2376AB"/><path fill-rule="evenodd" clip-rule="evenodd" d="m12.235 4.91-.005.006-.001.002c-.628.606-1.284.96-2.032 1.676 1.746-1.393 5.415-2.201 4.508-4.29a2.2 2.2 0 0 0-.414-.57 2.2 2.2 0 0 0-.568-.413c-2.09-.909-2.898 2.761-4.292 4.507.716-.748 1.07-1.404 1.677-2.031l.001-.001.005-.006.009-.008a.78.78 0 0 1 1.103 0l.01.008.008.01a.78.78 0 0 1 0 1.102z" fill="#669915"/><path fill-rule="evenodd" clip-rule="evenodd" d="M6.63 8.05c-.02 2.484-6.574 3.034-5.383 5.754-1.08-2.11 1.85-3.073 2.333-5.076a3.05 3.05 0 0 0-.006-1.381C3.072 5.362.17 4.398 1.247 2.297.056 5.017 6.61 5.567 6.63 8.05" fill="#F23838"/><path fill-rule="evenodd" clip-rule="evenodd" d="M7.294 3.655c-2-.485-2.964-3.412-5.073-2.332 2.72-1.191 3.27 5.362 5.754 5.383 2.484-.02 3.034-6.574 5.754-5.383-2.111-1.08-3.074 1.85-5.078 2.333-.419.101-.937.1-1.357 0" fill="#A9C23A"/><path fill-rule="evenodd" clip-rule="evenodd" d="M12.127 5.44c-1.391.727-2.798 1.462-2.807 2.61.003.352.136.664.36.95h2.772a3 3 0 0 1-.076-.246 3.06 3.06 0 0 1-.007-1.381c.195-.805.784-1.442 1.35-2.053.841-.91 1.63-1.761.983-3.023.641 1.462-.957 2.297-2.575 3.143" fill="#F9AF17"/><path fill-rule="evenodd" clip-rule="evenodd" d="M7.734 9.418c-1.013.188-1.695 1.493-2.37 2.785-.846 1.617-1.681 3.216-3.143 2.575 1.262.646 2.114-.142 3.023-.984.576-.533 1.174-1.087 1.915-1.312z" fill="#60D0E7"/><path fill-rule="evenodd" clip-rule="evenodd" d="m3.714 4.91.006.006v.002c.628.606 1.284.96 2.032 1.676C4.006 5.201.338 4.393 1.244 2.304c.098-.2.243-.398.414-.57.171-.17.37-.316.568-.413 2.09-.909 2.899 2.761 4.292 4.507-.715-.748-1.07-1.404-1.677-2.031v-.001l-.006-.006-.009-.008a.78.78 0 0 0-1.103 0l-.009.008-.008.01a.78.78 0 0 0 0 1.102z" fill="#941F15"/><path fill-rule="evenodd" clip-rule="evenodd" d="m3.714 11.19.006-.005v-.002c.628-.606 1.284-.96 2.032-1.676-1.746 1.393-5.414 2.2-4.508 4.29.098.2.243.398.415.57.17.17.369.316.567.413 2.09.909 2.899-2.761 4.292-4.507-.715.748-1.07 1.404-1.677 2.031v.001l-.006.006-.009.008a.78.78 0 0 1-1.103 0l-.009-.008-.008-.009a.78.78 0 0 1 0-1.103z" fill="#2376AB"/><path fill-rule="evenodd" clip-rule="evenodd" d="m12.235 4.91-.005.006-.001.002c-.628.606-1.284.96-2.032 1.676 1.746-1.393 5.415-2.201 4.508-4.29a2.2 2.2 0 0 0-.414-.57 2.2 2.2 0 0 0-.568-.413c-2.09-.909-2.898 2.761-4.292 4.507.716-.748 1.07-1.404 1.677-2.031l.001-.001.005-.006.009-.008a.78.78 0 0 1 1.103 0l.01.008.008.01a.78.78 0 0 1 0 1.102z" fill="#669915"/><path fill-rule="evenodd" clip-rule="evenodd" d="M6.63 8.05c-.02 2.484-6.574 3.034-5.383 5.754-1.08-2.11 1.85-3.073 2.333-5.076a3.05 3.05 0 0 0-.006-1.381C3.072 5.362.17 4.398 1.247 2.297.056 5.017 6.61 5.567 6.63 8.05" fill="#F23838"/><path fill-rule="evenodd" clip-rule="evenodd" d="M7.294 3.655c-2-.485-2.964-3.412-5.073-2.332 2.72-1.191 3.27 5.362 5.754 5.383 2.484-.02 3.034-6.574 5.754-5.383-2.111-1.08-3.074 1.85-5.078 2.333-.419.101-.937.1-1.357 0" fill="#A9C23A"/><path d="M5.244 13.794c.61-.564 1.246-1.153 2.05-1.348q.184-.044.388-.063l.262-1.16v-.002a1.45 1.45 0 0 1 1.337-1.127c-.379-.422-.803-.695-1.306-.699-1.149.01-1.884 1.416-2.611 2.808-.846 1.617-1.681 3.216-3.143 2.575 1.262.646 2.114-.142 3.023-.984" fill="#60D0E7"/><path d="M12.127 5.44c-1.391.727-2.798 1.462-2.807 2.61.007.83.742 1.443 1.673 1.994q.33-.057.691-.04c.493.013.956.152 1.333.45q.135-.076.277-.142c-.407-.467-.769-.967-.918-1.558a3.06 3.06 0 0 1-.007-1.381c.195-.805.784-1.442 1.35-2.053.841-.91 1.63-1.761.983-3.023.641 1.462-.957 2.297-2.575 3.143" fill="#F9AF17"/><path d="M14.796 11c1.137 0 1.334.958 1.137 1.82l-.634 2.824a.463.463 0 0 1-.548.342.44.44 0 0 1-.358-.523l.591-2.642c.315-1.368-1.469-1.2-2.192-.184l-.682 3.01a.463.463 0 0 1-.58.334.44.44 0 0 1-.336-.518l.594-2.644c.144-.618-.152-.922-.582-.975-.512-.055-1.213.247-1.604.796l-.686 3.01a.463.463 0 0 1-.55.34.44.44 0 0 1-.356-.523l.91-4.026c.053-.239.299-.391.55-.34.283.057.4.318.346.569.523-.413 1.133-.705 1.83-.667.681.014 1.014.38 1.123.86.627-.538 1.158-.862 2.027-.862" fill="#3574F0"/></svg>