<svg viewBox="0 0 16 16" fill="none" xmlns="http://www.w3.org/2000/svg">
  <path fill-rule="evenodd" clip-rule="evenodd" d="M14 9a2 2 0 1 1-4 0 2 2 0 0 1 4 0m-1 0a1 1 0 1 1-2 0 1 1 0 0 1 2 0M13 12h-2a3 3 0 0 0-3 3 1 1 0 0 0 1 1h6a1 1 0 0 0 1-1 3 3 0 0 0-3-3m-4 3a2 2 0 0 1 2-2h2a2 2 0 0 1 2 2z" fill="#CED0D6"></path><path d="M12 10a1 1 0 1 0 0-2 1 1 0 0 0 0 2M11 13a2 2 0 0 0-2 2h6a2 2 0 0 0-2-2z" fill="#43454A"></path><path d="M13.767 6.575a3 3 0 0 0-4.195 4.187 9.3 9.3 0 0 1-2.317 1.263c-1.332.482-3.677.953-3.944 1.006l-.025.005-.104-.054c-1.738-.83-1.786-4.525 1.37-5.716.777-.294 1.535-.332 2.315-.37.609-.031 1.231-.062 1.886-.216 1.595-.372 3.442-1.55 4.192-3.082.297.862.614 1.896.822 2.977M7.14 13.946c.11-.4.28-.776.5-1.116-.509.221-.995.366-1.606.548-.441.131-.947.282-1.574.495a7 7 0 0 0-.375.14c.435-.07.868-.095.868-.095.531-.023 1.127-.005 1.753.015z" fill="#253627"></path><path d="M6.556 5.927c-.703.038-1.515.101-2.363.421-1.94.733-2.94 2.27-3.151 3.777-.196 1.399.288 3.024 1.643 3.711l.038.091.039.095c.04.101.14.345.323.55.11.123.27.258.494.344.228.088.46.1.669.066a8 8 0 0 1 .703-.079l.047-.003h.008c.488-.022 1.038-.005 1.666.015l.286.009H7a4 4 0 0 1 .14-.978l-.435-.013a24 24 0 0 0-1.753-.015s-.432.025-.868.095c0 0 .165-.069.375-.14a41 41 0 0 1 1.574-.495c.611-.182 1.097-.327 1.605-.548a4 4 0 0 1 2.27-1.68 3 3 0 0 1-.337-.388 9.3 9.3 0 0 1-2.317 1.263c-1.413.511-3.969 1.011-3.969 1.011l-.103-.054c-1.738-.83-1.786-4.525 1.369-5.716.777-.294 1.535-.332 2.316-.37.608-.031 1.23-.062 1.886-.216 1.595-.372 3.441-1.55 4.192-3.082.296.862.614 1.896.821 2.978a3 3 0 0 1 1.231 2.315q.004-.513-.04-1.013c-.14-1.682-.635-3.345-1.065-4.594L13.11 1l-1.064 2.172C11.458 4.369 9.908 5.4 8.523 5.724h-.001c-.56.132-1.087.158-1.701.19h-.002z" fill="#57965C"></path>
</svg>
