<svg width="20" height="20" viewBox="0 0 20 20" fill="none"><path fill-rule="evenodd" clip-rule="evenodd" d="M14 19a1 1 0 0 0 1-1v-3h3a1 1 0 0 0 1-1V9.414a1 1 0 0 0-.292-.707l-6.833-6.833a2 2 0 0 0-2.047-.483L4.45 3.184a2 2 0 0 0-1.265 1.265L1.392 9.827a2 2 0 0 0 .483 2.047l6.833 6.833a1 1 0 0 0 .707.293zM6.563 5.5l8 8H17.5V9.62L13.38 5.5zM5.5 6.56l8 8v2.94H9.622l-4.121-4.121zm-1.5.183v5.136l-1.065-1.066a.5.5 0 0 1-.121-.511zM6.744 4h5.136l-1.066-1.065a.5.5 0 0 0-.511-.121z" fill="#CED0D6"/></svg>