<svg viewBox="0 0 16 16" fill="none" xmlns="http://www.w3.org/2000/svg">
  <g clip-path="url(#a)"><path d="M12.926 16a3.24 3.24 0 0 1-2.9-1.71 3.74 3.74 0 0 1-.428-1.79q0-.986.429-1.783.435-.803 1.196-1.26A3.24 3.24 0 0 1 12.926 9a3.6 3.6 0 0 1 1.436.274q.637.269 1.06.81.422.536.578 1.319h-1.04a2 2 0 0 0-.448-.81 1.9 1.9 0 0 0-.715-.483 2.3 2.3 0 0 0-.871-.163q-.644 0-1.157.326-.508.326-.793.908-.286.58-.286 1.319 0 .732.286 1.313.285.58.793.914.513.326 1.157.326.461 0 .87-.157.41-.163.716-.49a2 2 0 0 0 .448-.809H16a2.95 2.95 0 0 1-.585 1.3 2.8 2.8 0 0 1-1.079.822q-.644.28-1.41.281" fill="#3574F0"></path><path d="M3 3.603c0-.1.051-.252.268-.448.216-.195.557-.395 1.021-.572C5.215 2.229 6.526 2 8 2s2.786.23 3.71.583c.465.177.806.377 1.022.572.217.196.268.348.268.448s-.051.252-.268.447c-.216.196-.557.395-1.021.573-.925.353-2.237.582-3.711.582s-2.785-.229-3.71-.582c-.465-.178-.806-.377-1.022-.573C3.05 3.855 3 3.703 3 3.603" fill="#EBECF0"></path><path d="M3 6.547v-1.45c.272.175.588.328.932.46 1.066.407 2.504.648 4.068.648s3.002-.241 4.068-.648c.344-.132.66-.285.932-.46v1.45c0 .1-.051.252-.268.447-.216.196-.557.395-1.021.572-.925.354-2.237.583-3.711.583s-2.785-.229-3.71-.583c-.465-.177-.806-.376-1.022-.572C3.05 6.8 3 6.646 3 6.547M3 9.49V8.041c.272.175.588.328.932.46 1.066.407 2.504.648 4.068.648.76 0 1.492-.057 2.164-.162a4.3 4.3 0 0 0-1.016 1.254l-.002.002a4.5 4.5 0 0 0-.344.827q-.39.023-.802.023c-1.474 0-2.785-.229-3.71-.583-.465-.177-.806-.376-1.022-.572C3.05 9.742 3 9.59 3 9.49M8.614 12.08q-.303.013-.614.013c-1.564 0-3.002-.241-4.068-.649A5 5 0 0 1 3 10.985v1.45c0 .1.051.251.268.447.216.196.557.395 1.021.572.926.354 2.237.583 3.711.583q.424 0 .828-.024a4.9 4.9 0 0 1-.23-1.513q0-.212.016-.42" fill="#EBECF0"></path><path fill-rule="evenodd" clip-rule="evenodd" d="M2.017 3.392H2v9.126h.003c.028.444.274.816.594 1.106.34.307.804.561 1.335.764 1.066.408 2.504.65 4.068.65q.655-.001 1.273-.056a5 5 0 0 1-.124-.213l-.004-.009a4.5 4.5 0 0 1-.317-.747q-.405.024-.828.024c-1.474 0-2.785-.23-3.71-.583-.465-.177-.806-.377-1.022-.572-.217-.196-.268-.348-.268-.448v-1.449c.272.175.588.328.932.46 1.066.407 2.504.648 4.068.648q.31 0 .614-.012.04-.522.188-1.01-.39.022-.802.022c-1.474 0-2.785-.229-3.71-.583-.465-.177-.806-.376-1.022-.572C3.05 9.742 3 9.59 3 9.49V8.041c.272.175.588.328.932.46 1.066.407 2.504.648 4.068.648.76 0 1.492-.057 2.164-.162q.254-.212.543-.387c.673-.404 1.42-.6 2.219-.6q.555-.001 1.074.113v-4.72h-.017c-.062-.389-.29-.718-.58-.98-.34-.307-.804-.561-1.335-.764C11.002 1.24 9.564 1 8 1s-3.002.241-4.068.649c-.53.203-.995.457-1.335.764-.29.262-.518.591-.58.98m1.25-.237c-.216.196-.267.348-.267.448s.051.252.268.447c.216.196.557.395 1.021.573.926.353 2.237.582 3.711.582s2.786-.229 3.71-.582c.465-.178.806-.377 1.022-.573.217-.195.268-.347.268-.447s-.051-.252-.268-.448c-.216-.195-.557-.395-1.021-.572C10.785 2.229 9.474 2 8 2s-2.785.23-3.71.583c-.465.177-.806.377-1.022.572M3 5.097v1.45c0 .1.051.252.268.447.216.196.557.395 1.021.572.926.354 2.237.583 3.711.583s2.786-.229 3.71-.583c.465-.177.806-.376 1.022-.572.217-.195.268-.348.268-.447v-1.45a5 5 0 0 1-.932.46c-1.066.407-2.504.648-4.068.648s-3.002-.241-4.068-.648A5 5 0 0 1 3 5.097" fill="#6C707E"></path></g><defs><clipPath id="a"><path fill="#fff" d="M0 0H16V16H0z"></path></clipPath></defs>
</svg>
