<svg width="16" height="16" viewBox="0 0 16 16" fill="none"><path d="M2.039 13v-1.02h.52a.53.53 0 0 0 .494-.287q.162-.285.162-.877V3.9h1.086v6.981q0 .722-.182 1.196-.183.468-.553.696T2.624 13zM7.098 13.156q-.657 0-1.072-.286-.417-.285-.618-.884-.195-.604-.195-1.554h1.118q0 .605.078.995.084.383.254.566a.6.6 0 0 0 .448.181.54.54 0 0 0 .416-.168q.163-.175.24-.534.08-.363.079-.935 0-.619-.163-.982a1.26 1.26 0 0 0-.494-.578l-.578-.351a2.8 2.8 0 0 1-.709-.611 2.2 2.2 0 0 1-.403-.767 3.5 3.5 0 0 1-.13-1.001q0-.878.176-1.43.181-.554.552-.813.37-.26.962-.26.604 0 .982.267.376.26.559.819.182.552.182 1.436H7.67q0-.54-.065-.877-.064-.339-.195-.501a.4.4 0 0 0-.338-.162q-.312-.001-.455.364-.143.357-.143 1.15 0 .513.15.845.156.325.487.527l.637.39q.429.266.69.617.265.344.39.813.122.467.123 1.092 0 .915-.195 1.501-.195.579-.605.858-.404.273-1.053.273M12.704 13l-1.371-4.16-.3-.292L9.416 3.9h1.105l1.047 3.114.325.357L13.802 13zm-3.419 0 1.93-5.648.293-.267 1.08-3.185h1.085l-1.651 4.713-.3.292L10.372 13z" fill="#E08855"/></svg>