<svg viewBox="0 0 16 16" fill="none" xmlns="http://www.w3.org/2000/svg">
  <path fill-rule="evenodd" clip-rule="evenodd" d="M9 11.5a.5.5 0 0 1 .5-.5h6a.5.5 0 0 1 0 1h-6a.5.5 0 0 1-.5-.5m0 2a.5.5 0 0 1 .5-.5h6a.5.5 0 0 1 0 1h-6a.5.5 0 0 1-.5-.5m0 2a.5.5 0 0 1 .5-.5h6a.5.5 0 0 1 0 1h-6a.5.5 0 0 1-.5-.5" fill="#6C707E"></path><path d="M13.908 10c.341-2.141-.354-4.632-.963-6.402-.75 1.532-2.597 2.71-4.192 3.082-.655.154-1.277.185-1.886.215-.78.04-1.538.077-2.316.37-3.155 1.192-3.107 4.887-1.369 5.717l.104.055.025-.006c.267-.053 2.612-.524 3.944-1.006q.37-.135.745-.314V11.5A1.5 1.5 0 0 1 9.5 10h.982c.829-.786 1.502-1.717 1.848-2.712-.168.947-.616 1.878-1.226 2.712zM8 13.96v-1.299c-.65.325-1.212.492-1.966.717-.441.131-.947.282-1.574.495a7 7 0 0 0-.375.14c.435-.07.868-.095.868-.095.531-.023 1.127-.005 1.753.015.421.013.856.027 1.294.028" fill="#F2FCF3"></path><path d="M6.556 5.927c-.703.038-1.515.101-2.363.421-1.94.733-2.94 2.27-3.151 3.777-.196 1.399.288 3.024 1.643 3.711l.038.091.039.095c.04.101.14.345.323.55.11.123.27.258.494.344.228.088.46.1.669.066a8 8 0 0 1 .703-.079l.047-.003h.008c.488-.022 1.038-.005 1.666.015l.286.009c.334.01.684.018 1.042.02v-.983a46 46 0 0 1-1.294-.028 24 24 0 0 0-1.753-.015s-.432.025-.868.095c0 0 .165-.069.375-.14a41 41 0 0 1 1.574-.495c.754-.225 1.317-.392 1.966-.716v-.95q-.375.178-.745.313c-1.413.511-3.969 1.011-3.969 1.011l-.103-.054c-1.738-.83-1.786-4.525 1.369-5.716.777-.294 1.535-.332 2.316-.37.608-.031 1.23-.062 1.886-.216 1.595-.372 3.441-1.55 4.192-3.082.608 1.77 1.304 4.26.962 6.402h1.011c.098-.71.098-1.431.04-2.122-.142-1.682-.636-3.345-1.066-4.594L13.11 1l-1.064 2.172C11.458 4.369 9.908 5.4 8.523 5.724h-.001c-.56.132-1.087.158-1.701.19h-.002z" fill="#208A3C"></path><path d="M11.104 10c.61-.834 1.058-1.765 1.226-2.712-.346.995-1.02 1.926-1.848 2.712z" fill="#208A3C"></path>
</svg>
