<svg width="16" height="16" viewBox="0 0 16 16" fill="none"><rect x="2" y="8" width="5" height="1" rx=".5" fill="#6C707E"/><path fill-rule="evenodd" clip-rule="evenodd" d="M12.146 6.146a.5.5 0 0 1 .708.708L11.707 8H15.5a.5.5 0 0 1 0 1h-3.793l1.147 1.146a.5.5 0 0 1-.708.708l-2-2-.353-.354.353-.354zM8.854 10.147a.5.5 0 1 0-.708.707L9.293 12H5.5a.5.5 0 0 0 0 1h3.793l-1.147 1.146a.5.5 0 1 0 .708.708l2-2 .353-.354-.353-.354z" fill="#6C707E"/><rect x="2" y="5" width="7" height="1" rx=".5" fill="#6C707E"/><rect x="2" y="2" width="12" height="1" rx=".5" fill="#6C707E"/></svg>