<svg viewBox="0 0 16 16" fill="none" xmlns="http://www.w3.org/2000/svg">
  <path d="M15 8v.043l-4.65.464A1.5 1.5 0 0 0 9 10v4.93Q8.51 15 8 15a7 7 0 1 1 7-7" fill="#EDF3FF"></path><path d="m15.5 9.5-5 .5m5 2.25-5 .5m5 2.25-5 .5" stroke="#DB3B4B" stroke-linecap="round" stroke-linejoin="round"></path><path d="M9 10.425v.97a3.6 3.6 0 0 1-.868.105c-1.919 0-3.345-1.494-3.345-3.5s1.426-3.5 3.345-3.5c1.49 0 2.766.9 3.08 2.175h-1.015c-.315-.73-1.093-1.252-2.065-1.252-1.339 0-2.306 1.074-2.306 2.577s.967 2.577 2.306 2.577c.313 0 .605-.054.868-.152" fill="#3574F0"></path><path d="M9 13.917Q8.511 14 8 14a6 6 0 1 1 5.998-5.857l1.002-.1V8a7 7 0 1 0-6 6.93z" fill="#3574F0"></path>
</svg>
