<svg viewBox="0 0 16 16" fill="none" xmlns="http://www.w3.org/2000/svg">
  <path fill-rule="evenodd" clip-rule="evenodd" d="M9 15.076A7.03 7.03 0 0 1 12.528 9 7.03 7.03 0 0 1 16 15.072v.018c-2.066 1.194-4.73 1.237-7-.014m5-3.18a3.01 3.01 0 0 1-1.512 2.604 3.01 3.01 0 0 1-1.489-2.602v-.008c.886-.512 2.028-.53 3 .005" fill="#39207C"></path><path d="M14.824 9.565A7 7 0 1 0 8 15a8.03 8.03 0 0 1 4.032-6.868l.501-.286.498.29a8 8 0 0 1 1.793 1.429" fill="#FAF5FF"></path><path d="M14.824 9.565A7 7 0 1 0 8 15a8 8 0 0 1 .076-1H8a6 6 0 1 1 5.952-5.236q.468.37.872.801" fill="#834DF0"></path><path d="M11.001 8.833q.47-.377.999-.683v-.79c0-1.289-.783-2.114-1.934-2.114-.812 0-1.43.402-1.77 1.07-.292-.673-.89-1.07-1.689-1.07-.758 0-1.326.364-1.645 1.003v-.877H4v5.383h.999V7.59c0-.909.515-1.482 1.33-1.482.746 0 1.177.51 1.177 1.33v3.317h.988V7.59c0-.909.526-1.482 1.33-1.482.752 0 1.177.51 1.177 1.33z" fill="#834DF0"></path>
</svg>
