<svg width="20" height="20" viewBox="0 0 20 20" fill="none"><path fill-rule="evenodd" clip-rule="evenodd" d="M10.025 3.675a.45.45 0 0 1 .402.468v.113q-.015.177-.051.352a3.3 3.3 0 0 0-.04.642.23.23 0 0 0 .092.137l.025.018.002.03.001.03.005.079a4.84 4.84 0 0 1 2.974 1.435l.115-.082.026.004q.092.015.18-.017.25-.196.46-.436.115-.137.244-.26l.004-.003.078-.062a.429.429 0 1 1 .532.667l-.082.066a3 3 0 0 1-.307.18q-.28.158-.526.369a.23.23 0 0 0-.05.158l.002.03-.112.103c.623.952.887 2.095.745 3.223l.12.036.013.022a.35.35 0 0 0 .127.13q.31.083.632.104.179.003.356.027l.006.001.103.025a.43.43 0 0 1 .356.519.43.43 0 0 1-.54.314h-.012v-.001l-.04-.009-.006-.001-.05-.011h-.002a3 3 0 0 1-.332-.128 4 4 0 0 0-.618-.182.23.23 0 0 0-.156.06l-.022.02-.132-.023a4.8 4.8 0 0 1-2.057 2.592q.018.046.04.093l.016.031-.02.03a.22.22 0 0 0-.03.165q.138.296.32.561.107.142.198.295l.003.005.047.096a.43.43 0 0 1-.188.6.43.43 0 0 1-.583-.234l-.047-.095a3 3 0 0 1-.107-.34 3.4 3.4 0 0 0-.242-.596.22.22 0 0 0-.143-.084l-.031-.004-.062-.119a4.78 4.78 0 0 1-3.303-.008l-.07.128-.03.005a.23.23 0 0 0-.121.058 1 1 0 0 0-.141.275l-.046.13c-.025.074-.051.152-.08.225a3 3 0 0 1-.107.337l-.002.005-.044.09a.43.43 0 0 1-.583.234.43.43 0 0 1-.188-.599l.048-.101q.09-.153.199-.296.188-.274.32-.577a.3.3 0 0 0-.029-.162l-.013-.027.055-.116a4.8 4.8 0 0 1-2.061-2.58l-.137.023-.021-.015a.34.34 0 0 0-.169-.062 3.4 3.4 0 0 0-.615.18q-.163.072-.333.122l-.011.003-.104.01a.43.43 0 0 1-.539-.314.43.43 0 0 1 .36-.52h.012l.095-.021q.177-.024.356-.028.32-.021.63-.103a.44.44 0 0 0 .13-.133l.012-.02.124-.036c-.15-1.129.11-2.274.73-3.229l-.098-.09-.002-.026a.34.34 0 0 0-.057-.171 3 3 0 0 0-.528-.37 3 3 0 0 1-.307-.18l-.005-.003-.074-.06a.45.45 0 0 1-.103-.623l.002-.003a.41.41 0 0 1 .343-.152.5.5 0 0 1 .289.11l.085.067q.129.123.243.259.217.239.476.43a.22.22 0 0 0 .165.016l.03-.009.111.08a4.75 4.75 0 0 1 2.988-1.436l.007-.127.02-.017a.34.34 0 0 0 .098-.152 3.3 3.3 0 0 0-.036-.64 3 3 0 0 1-.05-.352L9.58 4.24V4.14a.45.45 0 0 1 .416-.469h.019zM7.45 7.598l1.505 1.066c.079.057.18.07.263.026a.27.27 0 0 0 .148-.224l.003-.06h.01l.1-1.776a4 4 0 0 0-.307.052 3.7 3.7 0 0 0-1.722.916m3.075-.967.105 1.835a.26.26 0 0 0 .42.2l.002-.003 1.49-1.059a3.72 3.72 0 0 0-2.017-.973m-2.497 3.49v-.006l.046-.013a.26.26 0 0 0 .101-.444l-.021-.019V9.63L6.797 8.42a3.7 3.7 0 0 0-.492 2.196zm5.17-1.696-1.365 1.222a.26.26 0 0 0-.082.254c.02.093.09.166.183.191l.046.013v.008l1.723.496a3.76 3.76 0 0 0-.504-2.184m-1.563 2.89-.002.007-.045.003a.26.26 0 0 0-.224.36l.704 1.705a3.67 3.67 0 0 0 1.405-1.767l-1.822-.307zm-3.005.39v-.008l.005-.012a.257.257 0 0 0-.2-.358l-.005.006-.037-.004a.2.2 0 0 0-.049 0l-1.803.306a3.7 3.7 0 0 0 1.394 1.748zm1.625.554h-.008l-.018-.033a.26.26 0 0 0-.161-.127l-.071.002a.26.26 0 0 0-.22.13l-.893 1.604c.63.2 1.303.229 1.948.082l.293-.087zm-.516-2.495h.526l.32.408-.116.51-.472.227-.474-.227-.11-.51z" fill="#CED0D6"/><path fill-rule="evenodd" clip-rule="evenodd" d="M9.94 1.51a1.2 1.2 0 0 0-.445.12L3.4 4.536c-.318.151-.55.44-.628.783L1.28 11.845c-.071.306-.014.627.164.89q.03.047.065.091l4.211 5.236c.223.273.557.43.91.429h6.753c.353 0 .688-.164.91-.434l4.209-5.237c.22-.273.303-.634.219-.977l-1.502-6.53a1.16 1.16 0 0 0-.629-.783l-6.085-2.9a1.2 1.2 0 0 0-.56-.12zM10 3.05 4.196 5.82 2.78 12.013l4.004 4.978h6.442l3.996-4.972-1.427-6.206z" fill="#CED0D6"/></svg>