<svg viewBox="0 0 16 16" fill="none" xmlns="http://www.w3.org/2000/svg">
  <path d="M10 9h1.035L15 14.435V9h1v7h-1.07L11 10.565V16h-1z" fill="#CED0D6"></path><path d="M14.909 8c-.275-1.573-1.158-3.127-2.488-4.457C9.556.678 5.603-.034 2.77 2.8s-2.02 6.936.72 9.675C5.051 14.037 7.041 15 9 15V8h2.544L14 11.367V8z" fill="#253627"></path><path d="M14.909 8c-.275-1.573-1.158-3.127-2.488-4.457C9.556.678 5.603-.034 2.77 2.8s-2.02 6.936.72 9.675C5.051 14.037 7.041 15 9 15v-1.002q-.303 0-.606-.037c-1.455-.172-2.955-.953-4.196-2.194-1.236-1.235-2-2.743-2.163-4.205-.144-1.29.174-2.574 1.104-3.684L9 9.739V8.322L3.846 3.17c1.115-.943 2.372-1.273 3.63-1.138 1.429.153 2.93.915 4.237 2.22 1.165 1.167 1.91 2.475 2.175 3.749z" fill="#57965C"></path>
</svg>
