<svg width="16" height="16" viewBox="0 0 16 16" fill="none"><path d="M4 4h2v1H4z" fill="#CED0D6"/><path fill-rule="evenodd" clip-rule="evenodd" d="M2 3v3a1 1 0 0 0 1 1h10a1 1 0 0 0 1-1V3a1 1 0 0 0-1-1H3a1 1 0 0 0-1 1m1 3V3h10v3z" fill="#CED0D6"/><path d="M6 11H4v1h2z" fill="#CED0D6"/><path fill-rule="evenodd" clip-rule="evenodd" d="M2 10v3a1 1 0 0 0 1 1h10a1 1 0 0 0 1-1v-3a1 1 0 0 0-1-1H3a1 1 0 0 0-1 1m1 3v-3h10v3z" fill="#CED0D6"/><path fill-rule="evenodd" clip-rule="evenodd" d="M3 3h10v3H3zm1 1h2v1H4zM3 10h10v3H3zm1 1h2v1H4z" fill="#43454A"/></svg>