<svg width="20" height="20" viewBox="0 0 20 20" fill="none"><path d="M16.096 11.19q-.486.42-.467 1.133l.038 2.59q.01.934-.419 1.63-.429.704-1.219 1.076-.79.381-1.838.381H11v-1.505h1.143q.876 0 1.381-.476.514-.477.495-1.296l-.038-2.505q-.018-.877.524-1.485.553-.62 1.486-.791-.933-.076-1.486-.676-.543-.6-.524-1.562l.038-2.248q.01-.895-.543-1.42-.552-.533-1.505-.533H11V1.998h1.02q1.124 0 1.952.4.829.4 1.267 1.143.446.742.428 1.734l-.038 2.314q-.018.724.457 1.153.486.42 1.315.419H18v1.6h-.6q-.818 0-1.304.429M4.37 12.323q.02-.714-.466-1.133-.486-.429-1.305-.429H2v-1.6h.6q.828 0 1.304-.42.486-.428.467-1.152l-.038-2.314q-.02-.99.419-1.734a2.94 2.94 0 0 1 1.276-1.143q.83-.4 1.953-.4H9v1.505h-.972q-.952 0-1.504.533-.553.525-.543 1.42l.038 2.248q.019.961-.534 1.562-.543.6-1.476.676.933.172 1.476.79.553.61.534 1.486l-.038 2.505q-.02.82.485 1.296.515.476 1.391.476H9V18H7.81q-1.05 0-1.839-.381a2.76 2.76 0 0 1-1.22-1.076q-.428-.696-.418-1.63z" fill="#6C707E"/></svg>