<svg width="16" height="16" viewBox="0 0 16 16" fill="none"><path d="M1.5 13.5h13M1.5 2.5h13" stroke="#6C707E" stroke-linecap="round"/><path fill-rule="evenodd" clip-rule="evenodd" d="M2.146 6.354a.5.5 0 1 0 .708.707L4 5.914v5.793a.5.5 0 0 0 1 0V5.914l1.146 1.147a.5.5 0 1 0 .708-.707l-2-2L4.5 4l-.354.354zM9.146 6.354a.5.5 0 1 0 .708.707L11 5.914v.89h1v-.89l1.146 1.147a.5.5 0 0 0 .708-.707l-2-2L11.5 4l-.354.354zM11 11.216v.491a.5.5 0 1 0 1 0v-.991h-1zm0-1.965v.5h1V7.769h-1V9.25" fill="#3574F0"/></svg>