<svg width="20" height="20" viewBox="0 0 20 20" fill="none"><path d="M16.453 4.001c2.577 0 3.024 2.169 2.577 4.122l-1.66 7.516c-.119.54-.676.887-1.243.773s-.93-.644-.812-1.184l1.564-7.105c.713-3.098-3.33-2.716-4.97-.415l-1.77 7.937c-.12.54-.677.886-1.244.773l-.069-.016c-.54-.133-.88-.649-.764-1.174l1.57-7.11c.327-1.398-.345-2.086-1.32-2.207-1.16-.124-2.749.559-3.636 1.802l-.001-.008-.002.003-1.775 7.945c-.121.54-.679.885-1.246.77s-.93-.646-.809-1.186L3.13 4.997c.12-.54.678-.884 1.245-.77.645.131.91.722.786 1.29 1.187-.936 2.57-1.596 4.15-1.51 1.544.032 2.299.861 2.546 1.946C13.279 4.736 14.48 4 16.453 4" fill="#6C707E"/></svg>