<svg width="20" height="20" viewBox="0 0 20 20" fill="none"><path d="M10.797 17.189a.48.48 0 0 1-.418.302q-.188.009-.379.009a7.5 7.5 0 1 1 5.303-2.197l1.061 1.061a9 9 0 1 0-5.992 2.628 1.66 1.66 0 0 0 1.463-1.028l.356-.868h-.001l4.13-10.069h-1.354l-1.737 4.41-1.75-4.41h-1.433l2.456 6.02z" fill="#6C707E"/><path d="M8.948 9.208c-.304-.676-.895-1.065-1.622-1.065q-.76.001-1.271.526c-.347.37-.516.806-.516 1.332 0 .522.173.968.516 1.32.337.35.765.526 1.27.526.744 0 1.35-.396 1.623-1.062l.02-.055 1.222.415-.024.063c-.474 1.152-1.561 1.87-2.84 1.87-.9 0-1.631-.29-2.236-.883-.598-.589-.903-1.327-.903-2.194 0-.873.303-1.615.903-2.205.605-.594 1.336-.883 2.236-.883 1.279 0 2.368.716 2.84 1.87l.024.062-1.22.416z" fill="#6C707E"/></svg>