<svg viewBox="0 0 16 16" fill="none" xmlns="http://www.w3.org/2000/svg">
  <path d="M4.377 15.08q-.747 0-1.157-.377-.403-.377-.41-1.066l-.006-1.04h1.079l.007.975q0 .247.143.377.142.136.409.136h.592v.995zM3.37 12.07a.49.49 0 0 0 .435-.247q.162-.246.234-.857.078-.612.078-1.742V7.676q0-1.13-.078-1.742-.072-.61-.234-.857a.49.49 0 0 0-.435-.247.5.5 0 0 0-.436.247q-.156.246-.234.857-.071.612-.071 1.742v1.547q0 1.131.071 1.742.078.612.234.858a.5.5 0 0 0 .436.247m0 1.086q-.663 0-1.099-.416-.43-.422-.65-1.287-.214-.87-.214-2.23V7.677q0-1.358.214-2.222.22-.871.65-1.287.435-.423 1.099-.423.675 0 1.105.416.435.415.65 1.287.214.87.214 2.23v1.547q0 1.358-.214 2.229-.215.87-.65 1.287-.43.416-1.105.416M7.796 8.84H9.01L10.175 13H8.907zM6.34 3.9H7.9q.747 0 1.215.293.474.285.696.87.227.586.227 1.483 0 .91-.234 1.501-.228.585-.708.877-.482.287-1.248.287h-.319V13H6.34zM7.9 8.073q.357 0 .552-.15.202-.15.28-.474.084-.325.084-.904 0-.565-.084-.89-.079-.326-.28-.468-.195-.15-.552-.15h-.37v3.036zm4.839 5.083q-.663 0-1.099-.416-.43-.422-.65-1.287-.214-.87-.214-2.23V7.677q0-1.358.214-2.222.22-.871.65-1.287.435-.423 1.099-.423.617 0 1.027.325.415.325.63.995.22.67.267 1.69H13.48a7.5 7.5 0 0 0-.11-1.118q-.085-.43-.241-.631a.46.46 0 0 0-.39-.202q-.261 0-.423.254t-.24.877q-.078.625-.078 1.742v1.547q0 1.119.078 1.742.078.625.24.878.163.254.423.254.24 0 .39-.202.156-.201.24-.63a7.5 7.5 0 0 0 .11-1.119h1.184q-.046 1.02-.267 1.69-.214.67-.63.995-.41.325-1.027.325" fill="#57965C"></path>
</svg>
