<svg width="28" height="28" viewBox="0 0 28 28" fill="none"><path d="M16.484 24C9.258 24 4 20.452 4 15.548c0-3.677 3.355-6.451 7.839-6.451 3.645 0 6.161 1.516 6.161 3.355 0 1.677-1.645 2.322-3.968 1.548l.516-1.548C10.935 11.194 8 12.645 8 15.484c0 3.161 3.452 5.29 8.258 5.29 5.645 0 9.742-3.484 9.742-8.322C26 6.419 19.903 2 11.516 2c-2.774 0-6 .71-8.58 2.129l.935 1.677C6.032 4.581 9 4 11.516 4 18.742 4 24 7.548 24 12.452c0 3.742-3.516 6.451-7.839 6.451-3.645 0-6.161-1.516-6.161-3.42 0-1.58 1.645-2.193 3.968-1.483l-.516 1.516C17.064 16.871 20 15.355 20 12.452c0-3.097-3.452-5.226-8.258-5.226C6.097 7.226 2 10.71 2 15.548 2 21.581 8.097 26 16.484 26c2.806 0 6-.71 8.645-2.129l-.936-1.71C22.034 23.42 19.065 24 16.484 24" fill="url(#a)"/><defs><linearGradient id="a" x1="4.373" y1="6.318" x2="37.303" y2="31.874" gradientUnits="userSpaceOnUse"><stop stop-color="#955AE0"/><stop offset="1" stop-color="#4D67F0"/></linearGradient></defs></svg>