<svg viewBox="0 0 16 16" fill="none" xmlns="http://www.w3.org/2000/svg">
  <rect x="9.5" y="9.5" width="6" height="6" rx="1.5" fill="#F2FCF3" stroke="#208A3C"></rect><path d="M14.933 8.148c-.245-1.624-1.14-3.233-2.512-4.605C9.556.678 5.603-.034 2.77 2.8s-2.02 6.936.72 9.675c1.336 1.337 2.986 2.234 4.661 2.465A3 3 0 0 1 8 14v-3a3 3 0 0 1 3-3h3q.49.002.933.148" fill="#FFF4EB"></path><path d="M14.933 8.148c-.245-1.624-1.14-3.233-2.512-4.605C9.556.678 5.603-.034 2.77 2.8s-2.02 6.936.72 9.675c1.336 1.337 2.986 2.234 4.661 2.465A3 3 0 0 1 8 14v-.1c-1.329-.255-2.672-1.003-3.802-2.133-1.236-1.235-2-2.743-2.163-4.205-.144-1.29.174-2.574 1.104-3.684L8.54 9.281c.193-.276.431-.517.704-.714L3.846 3.169c1.115-.943 2.372-1.273 3.63-1.138 1.429.153 2.93.915 4.237 2.22 1.165 1.167 1.91 2.475 2.175 3.749H14q.49.002.933.148" fill="#E66D17"></path>
</svg>
