<svg width="16" height="16" viewBox="0 0 16 16" fill="none"><g clip-path="url(#a)"><path fill-rule="evenodd" clip-rule="evenodd" d="M9 1.502A1.5 1.5 0 0 1 11.294.23l4.002 2.497a1.5 1.5 0 0 1 0 2.545L11.294 7.77A1.5 1.5 0 0 1 9 6.498zm1.765-.424a.5.5 0 0 0-.765.424v4.996a.5.5 0 0 0 .765.424l4.002-2.498a.5.5 0 0 0 0-.848z" fill="#57965C"/><path d="M10 1.502a.5.5 0 0 1 .765-.424l4.002 2.498a.5.5 0 0 1 0 .848l-4.002 2.498A.5.5 0 0 1 10 6.498z" fill="#253627"/></g><defs><clipPath id="a"><path fill="#fff" d="M0 0H16V16H0z"/></clipPath></defs></svg>