<svg viewBox="0 0 16 16" fill="none" xmlns="http://www.w3.org/2000/svg">
  <path d="M12.99 13.545q0-.32.115-.565a1.7 1.7 0 0 1 .275-.43q.16-.18.43-.42.26-.24.41-.405t.25-.39q.105-.225.105-.505 0-.304-.135-.54a.9.9 0 0 0-.365-.365 1.03 1.03 0 0 0-.53-.135q-.335 0-.595.15a1 1 0 0 0-.4.41q-.135.26-.135.605h-1.04q0-.62.27-1.09.274-.475.765-.73.495-.255 1.145-.255.625 0 1.095.24.47.235.725.665.255.424.25.99 0 .435-.14.76-.135.325-.33.545t-.505.49a6 6 0 0 0-.365.34 1.3 1.3 0 0 0-.215.31.8.8 0 0 0-.085.375v.19h-.995zm-.105 1.21h1.245V16h-1.245z" fill="#6C707E"></path><path d="M4 5.898V2.905l8-.8v2.993zM4 6.902l8-.8v2.12l-.048.024-.004.002c-.44.229-.802.553-1.073.962L4 9.898zM10.443 10.258 4 10.903v2.992l7.923-.792q.027-.156.077-.31v-.797h-1.625v-1.041q0-.356.068-.697" fill="#FFF7F7"></path><path fill-rule="evenodd" clip-rule="evenodd" d="M11.885 14.112 4.1 14.89a1 1 0 0 1-1.1-.995V2.905a1 1 0 0 1 .9-.995l8-.8a1 1 0 0 1 1.1.995v5.813c-.348.05-.684.148-1 .304v-2.12l-8 .8v2.995l6.875-.687q-.05.075-.095.154l-.002.003c-.162.28-.271.58-.335.891L4 10.903v2.992l7.923-.792a2.6 2.6 0 0 0-.038.442zM4 5.897V2.905l8-.8v2.992z" fill="#DB3B4B"></path>
</svg>
