<svg width="20" height="20" viewBox="0 0 20 20" fill="none"><path d="M6.292 10.227a.958.958 0 1 0 .99.956.975.975 0 0 0-.99-.956M13.849 10.198a.957.957 0 1 0 .99.957.974.974 0 0 0-.99-.957" fill="#CED0D6"/><path fill-rule="evenodd" clip-rule="evenodd" d="m6.65 2.945.529 1.925c.919-.24 1.863-.37 2.812-.39.945.004 1.886.12 2.803.346l.532-1.852a1.04 1.04 0 0 1-.527-.9 1.087 1.087 0 0 1 2.172 0 1.065 1.065 0 0 1-.989 1.046l-.541 1.887c2.055.649 4.268 2.094 4.268 5.313-.016 4.493-6.283 8.679-7.717 8.68s-7.657-4.098-7.703-8.68c0-3.17 2.24-4.62 4.303-5.283l-.53-1.927a1.07 1.07 0 0 1-1.08-1.05 1.086 1.086 0 0 1 2.171 0 1.04 1.04 0 0 1-.503.885M3.516 8.99c-.796 2.622 3.898 6.295 4.755 5.257l.002.002c1.222-1.891.706-6.288-2.489-6.916a2.08 2.08 0 0 0-2.268 1.657M14.42 7.33c-3.195.629-3.71 5.025-2.489 6.914.857 1.037 5.55-2.634 4.753-5.257a2.08 2.08 0 0 0-2.264-1.657" fill="#CED0D6"/></svg>