<svg viewBox="0 0 16 16" fill="none" xmlns="http://www.w3.org/2000/svg">
  <path d="M14.982 8.507Q15 8.255 15 8a7 7 0 1 0-6.548 6.986c-.773-.872-1.299-1.94-1.424-3.062-.141-1.27.24-2.567 1.276-3.603 1.024-1.024 2.292-1.432 3.564-1.296 1.136.122 2.216.668 3.114 1.482" fill="#EDF3FF"></path><path d="M13.996 7.769a6 6 0 1 0-6.264 6.225q.309.528.72.992Q8.228 15 8 15a7 7 0 1 1 6.982-6.493 6.5 6.5 0 0 0-.986-.738" fill="#3574F0"></path><path d="M5.826 8c0 1.093.512 1.959 1.305 2.35q-.12.476-.13.963C5.679 10.853 4.787 9.586 4.787 8c0-2.006 1.426-3.5 3.345-3.5 1.175 0 2.217.56 2.76 1.423l-.782.577c-.357-.637-1.086-1.077-1.978-1.077-1.339 0-2.306 1.074-2.306 2.577" fill="#3574F0"></path><path fill-rule="evenodd" clip-rule="evenodd" d="M14.526 9.453c1.638 1.638 2.09 3.87.434 5.525s-3.972 1.144-5.538-.42c-1.565-1.566-2.03-3.91-.411-5.53 1.62-1.619 3.878-1.212 5.515.425" fill="#FFF4EB"></path><path fill-rule="evenodd" clip-rule="evenodd" d="M14.526 9.453c1.638 1.638 2.09 3.87.434 5.525s-3.972 1.144-5.538-.42c-1.565-1.566-2.03-3.91-.411-5.53 1.62-1.619 3.878-1.212 5.515.425m-.707.708c.699.698 1.086 1.467 1.165 2.161a2.2 2.2 0 0 1-.399 1.556l-4.473-4.473a2.23 2.23 0 0 1 1.543-.391c.7.075 1.472.454 2.164 1.147m-4.415-.05 4.475 4.475a2.26 2.26 0 0 1-1.604.396c-.719-.085-1.49-.477-2.146-1.132-.648-.648-1.032-1.423-1.113-2.148a2.3 2.3 0 0 1 .388-1.591" fill="#E66D17"></path>
</svg>
