<svg viewBox="0 0 16 16" fill="none" xmlns="http://www.w3.org/2000/svg">
  <path d="m8 1.5 6.5 3v3.169a5 5 0 0 0-6.942 6.628L1.5 11.52V4.5z" fill="#45322B"></path><path fill-rule="evenodd" clip-rule="evenodd" d="M8.21 1.046a.5.5 0 0 0-.42 0l-6.5 3A.5.5 0 0 0 1 4.5v7.02a.5.5 0 0 0 .292.454l6.5 2.98A.5.5 0 0 0 8 15a5 5 0 0 1-.734-1.386L2 11.199V5.281L7.5 7.82v1.998c.252-.52.592-.989 1-1.389v-.61L14 5.282v2.135q.537.235 1 .584V4.5a.5.5 0 0 0-.29-.454zM2.693 4.5 8 2.05l5.307 2.45L8 6.95z" fill="#C77D55"></path><path d="M10.713 14.71c-.241-.597-.404-1.362-.45-2.21H9.041c.164.98.803 1.798 1.672 2.21M11.678 14.428c-.207-.473-.365-1.143-.413-1.928h1.47c-.049.785-.207 1.455-.414 1.928-.119.271-.236.437-.322.525-.085-.088-.202-.254-.32-.525M11.678 9.572c-.207.473-.365 1.143-.413 1.928h1.47c-.049-.785-.207-1.455-.414-1.928-.119-.271-.236-.437-.322-.525-.085.088-.202.254-.32.525M13.286 14.71c.241-.597.404-1.362.45-2.21h1.222a3 3 0 0 1-1.672 2.21M13.736 11.5h1.222a3 3 0 0 0-1.672-2.21c.241.597.404 1.362.45 2.21M9.041 11.5h1.222c.046-.848.209-1.613.45-2.21A3 3 0 0 0 9.04 11.5" fill="#43454A"></path><path fill-rule="evenodd" clip-rule="evenodd" d="M16 12a4 4 0 1 0-8 0 4 4 0 0 0 8 0m-5.736.5c.046.848.208 1.613.45 2.21A3 3 0 0 1 9.04 12.5zm1.001 0c.048.785.207 1.455.414 1.928.118.271.236.437.321.525.085-.088.203-.254.321-.525.207-.473.366-1.143.414-1.928zm1.47-1h-1.47c.048-.785.207-1.455.414-1.928.118-.271.236-.437.321-.525.085.088.203.254.321.525.207.473.366 1.143.414 1.928m1.002 1c-.047.848-.21 1.613-.45 2.21a3 3 0 0 0 1.672-2.21zm1.222-1h-1.223c-.046-.848-.208-1.613-.45-2.21a3 3 0 0 1 1.673 2.21m-4.695 0H9.04a3 3 0 0 1 1.672-2.21c-.24.597-.403 1.362-.45 2.21" fill="#CED0D6"></path>
</svg>
