<svg viewBox="0 0 16 16" fill="none" xmlns="http://www.w3.org/2000/svg">
  <path d="M8 2.5C4.5 2.5 1 5 0 8c1 3 4.5 5.5 8 5.5S15 11 16 8c-1-3-4.5-5.5-8-5.5" fill="#F2FCF3"></path><path d="M8 3c1.634 0 3.286.585 4.652 1.535 1.315.915 2.331 2.147 2.816 3.465-.485 1.318-1.5 2.55-2.816 3.465C11.286 12.415 9.634 13 8 13s-3.286-.585-4.652-1.535C2.033 10.55 1.016 9.318.53 8c.485-1.318 1.502-2.55 2.817-3.465C4.714 3.585 6.366 3 8 3Z" stroke="#208A3C"></path><circle cx="8" cy="8" r="2.5" stroke="#208A3C"></circle>
</svg>
