<svg width="16" height="16" viewBox="0 0 16 16" fill="none"><path fill-rule="evenodd" clip-rule="evenodd" d="M9 9.502a1.5 1.5 0 0 1 2.294-1.272l4.002 2.497a1.5 1.5 0 0 1 0 2.546l-4.002 2.497A1.5 1.5 0 0 1 9 14.498zm1.765-.424a.5.5 0 0 0-.765.424v4.996a.5.5 0 0 0 .765.424l4.002-2.498a.5.5 0 0 0 0-.848z" fill="#57965C"/><path d="M10 9.502a.5.5 0 0 1 .765-.424l4.002 2.498a.5.5 0 0 1 0 .848l-4.002 2.498a.5.5 0 0 1-.765-.424z" fill="#253627"/><path d="M10.5 2a.5.5 0 0 0-.5.5v3a.5.5 0 0 0 1 0V4a5 5 0 0 1 1.999 4.115l.959.598Q14 8.362 14 8a6 6 0 0 0-2.682-5H13.5a.5.5 0 0 0 0-1zM6 10.5a.5.5 0 0 0-1 0V12a5.002 5.002 0 0 1 2.09-8.918.5.5 0 0 0-.18-.983A6.002 6.002 0 0 0 4.682 13H2.5a.5.5 0 0 0 0 1h3a.5.5 0 0 0 .5-.5v-3" fill="#CED0D6"/></svg>