<svg width="16" height="16" viewBox="0 0 16 16" fill="none"><path d="M14.799 9.177V7.175c0-.48-.291-.905-.705-1.084l-.056-.235v-.011a2.05 2.05 0 0 0-1.52-1.365 1 1 0 0 1-.504-.28l-1.453-1.453c-.57-.57-1.51-.57-2.08 0l-1.42 1.42a1 1 0 0 1-.459.258 5.7 5.7 0 0 0-1.834.894.43.43 0 0 1-.246.078.42.42 0 0 1-.425-.425V3.508a.81.81 0 0 0-.47-.727c.057-.235-.86-1.197-.793-.235 0 .067.011.145.022.212 0 0-1.856.403-1.856.638v.212c0 .257.212.47.47.47h.48c.37 0 .671.302.671.67v.918c0 1.185.973 2.203 2.17 2.203a1.45 1.45 0 0 1 1.453 1.453l.246 3.724a.62.62 0 0 1-.167.48q-.034.035-.034.068a.218.218 0 0 0 .213.268h.637a.24.24 0 0 0 .235-.19c0-.045 0-.078-.023-.123-.1-.223-.167-.458-.145-.693l.224-3.277a1.01 1.01 0 0 1 1.006-1.006h1.41c.715 0 1.386.358 1.822.928.201.269.47.481.771.615.336.146.403.358.537.839l.29 2.326c.012.067-.033.134-.089.179-.067.044-.123.123-.111.212a.23.23 0 0 0 .234.201h.627c.111 0 .223-.078.234-.2a.18.18 0 0 0-.056-.169.59.59 0 0 1-.145-.447c.075-2.173.224-4.357.224-6.53.19.156.302.391.302.648v2.002c-.09.045-.157.156-.157.391 0 .358.145.649.335.649.18 0 .336-.29.336-.649-.045-.235-.112-.346-.201-.391" fill="#548AF7"/></svg>