<svg width="16" height="16" viewBox="0 0 16 16" fill="none"><path fill-rule="evenodd" clip-rule="evenodd" d="M1 3.867C1 2.836 1.784 2 2.75 2h3.288a1 1 0 0 1 .698.283L8.5 4H13a2 2 0 0 1 2 2v2H6a1 1 0 0 0-1 1v5H2.75C1.784 14 1 13.164 1 12.133z" fill="#43454A"/><path fill-rule="evenodd" clip-rule="evenodd" d="m7.803 4.717.29.283H13a1 1 0 0 1 1 1v2h1V6a2 2 0 0 0-2-2H8.5L6.736 2.283A1 1 0 0 0 6.038 2H2.75C1.784 2 1 2.836 1 3.867v8.266C1 13.164 1.784 14 2.75 14H5v-1H2.75c-.354 0-.75-.326-.75-.867V3.867c0-.54.396-.867.75-.867h3.288z" fill="#CED0D6"/><path d="M7 9.5h5.5a.5.5 0 0 1 .5.5v2.25a3.25 3.25 0 0 1-6.5 0V10a.5.5 0 0 1 .5-.5Z" fill="#25324D" stroke="#548AF7"/><path d="M14 9.5a1.5 1.5 0 0 1 0 3h-1v-3z" stroke="#548AF7"/></svg>