<svg viewBox="0 0 16 16" fill="none" xmlns="http://www.w3.org/2000/svg">
  <path d="M16 13.5a2.5 2.5 0 1 1-5 0 2.5 2.5 0 0 1 5 0" fill="#E66D17"></path><path fill-rule="evenodd" clip-rule="evenodd" d="M2.017 3.392H2v9.126h.003c.028.444.274.816.594 1.106.34.307.804.561 1.335.764 1.066.408 2.504.65 4.068.65.802 0 1.57-.064 2.273-.181a3.5 3.5 0 0 1-.252-.972c-.617.097-1.3.152-2.021.152-1.474 0-2.785-.23-3.71-.583-.465-.177-.806-.377-1.022-.572-.217-.196-.268-.348-.268-.448v-1.449c.272.175.588.328.932.46 1.066.407 2.504.648 4.068.648.847 0 1.656-.07 2.39-.2a3.5 3.5 0 0 1 1.242-1.353c-.92.337-2.2.553-3.632.553-1.474 0-2.785-.229-3.71-.583-.465-.177-.806-.376-1.022-.572C3.05 9.742 3 9.59 3 9.49V8.041c.272.175.588.328.932.46 1.066.407 2.504.648 4.068.648s3.002-.241 4.068-.648c.344-.132.66-.285.932-.46v1.45c0 .1-.051.251-.268.447a2 2 0 0 1-.316.233A3.5 3.5 0 0 1 14 10.035V3.392h-.017c-.062-.388-.29-.717-.58-.979-.34-.307-.804-.561-1.335-.764C11.002 1.24 9.564 1 8 1s-3.002.241-4.068.649c-.53.203-.995.457-1.335.764-.29.262-.518.591-.58.98m1.25-.237c-.216.196-.267.348-.267.448s.051.252.268.447c.216.196.557.395 1.021.573.926.353 2.237.582 3.711.582s2.786-.229 3.71-.582c.465-.178.806-.377 1.022-.573.217-.195.268-.347.268-.447s-.051-.252-.268-.448c-.216-.195-.557-.395-1.021-.572C10.785 2.229 9.474 2 8 2s-2.785.23-3.71.583c-.465.177-.806.377-1.022.572M3 5.097v1.45c0 .1.051.252.268.447.216.196.557.395 1.021.572.926.354 2.237.583 3.711.583s2.786-.229 3.71-.583c.465-.177.806-.376 1.022-.572.217-.195.268-.348.268-.447v-1.45a5 5 0 0 1-.932.46c-1.066.407-2.504.648-4.068.648s-3.002-.241-4.068-.648A5 5 0 0 1 3 5.097" fill="#6C707E"></path>
</svg>
