<svg viewBox="0 0 16 16" fill="none" xmlns="http://www.w3.org/2000/svg">
  <path d="M12.4 14.4v-3.6799999999999997l-1.994-.841M3.598 14.4v-3.6799999999999997l1.994-.841M12.4 4.4v2.4L10 8.4M3.6 4.4v2.4L6 8.4" stroke="#6C707E" stroke-linecap="round" stroke-linejoin="round"></path><path d="M8.009 2.362v.5zM7.999 14.4v.5zm1.47-9.775c0 .663-.149.902-.292 1.015-.179.14-.51.222-1.168.222v1c.665 0 1.313-.066 1.784-.435.506-.396.676-1.026.676-1.802zm-1.46-1.763c.283 0 .65.105.939.366.276.25.52.674.52 1.397h1c0-.975-.342-1.68-.85-2.14a2.44 2.44 0 0 0-1.61-.623zm-1.46 1.763c0-.723.245-1.148.52-1.396.29-.262.656-.367.94-.367v-1c-.5 0-1.114.178-1.609.624-.508.458-.851 1.164-.851 2.139zm1.46 1.237c-.659 0-.99-.082-1.168-.222-.144-.113-.292-.352-.292-1.015h-1c0 .776.17 1.406.675 1.802.471.37 1.12.435 1.785.435zm1.89 4.6c0 .567-.181 1.477-.55 2.234-.382.787-.856 1.204-1.35 1.204v1c1.107 0 1.833-.908 2.25-1.767.433-.89.65-1.95.65-2.672zM8 8.5c1.006 0 1.9.814 1.9 1.961h1C10.9 8.754 9.55 7.5 8 7.5zM6.1 10.46C6.1 9.314 6.995 8.5 8 8.5v-1c-1.55 0-2.9 1.254-2.9 2.961zM8 13.9c-.493 0-.967-.417-1.35-1.204-.367-.757-.55-1.667-.55-2.235h-1c0 .723.219 1.782.65 2.672.418.859 1.144 1.767 2.25 1.767z" fill="#6C707E"></path><path d="m9.6 3.2.8-2M6.4 3.2l-.8-2" stroke="#6C707E" stroke-linecap="round" stroke-linejoin="round"></path>
</svg>
