<svg width="20" height="20" viewBox="0 0 20 20" fill="none"><path d="M2 10.75a.75.75 0 0 1 .75-.75h4.5a.75.75 0 0 1 0 1.5h-4.5a.75.75 0 0 1-.75-.75" fill="#6C707E"/><path d="M10.756 16.697v-5.261a1 1 0 0 1 1.555-.832l3.942 2.63a1 1 0 0 1 0 1.664l-3.942 2.63a1 1 0 0 1-1.555-.831Z" stroke="#6C707E" stroke-width="1.5"/><path d="M2 6.75A.75.75 0 0 1 2.75 6h14.5a.75.75 0 0 1 0 1.5H2.75A.75.75 0 0 1 2 6.75M2 2.75A.75.75 0 0 1 2.75 2h14.5a.75.75 0 0 1 0 1.5H2.75A.75.75 0 0 1 2 2.75" fill="#6C707E"/></svg>