<svg width="20" height="20" viewBox="0 0 20 20" fill="none"><path d="m12.75 13 6.5-.75m-6.5 3.875 6.5-.75m-6.5 3.875 6.5-.75" stroke="#6C707E" stroke-width="1.5" stroke-linecap="round"/><path d="M10 4a8 8 0 0 0-8 8c0 1.19.258 2.454.7 3.5h7.8V17H2.06a.48.48 0 0 1-.429-.252C.91 15.382.5 13.628.5 12A9.5 9.5 0 0 1 10 2.5c4.56 0 8.37 3.214 9.29 7.5a2 2 0 0 0-.298.015l-1.206.14A8 8 0 0 0 10 4" fill="#6C707E"/><path d="m12.238 10.81 2.633-2.187a.85.85 0 1 0-1.086-1.308L11 9.628a2.3 2.3 0 1 0-.5 4.318V13c0-.306.063-.6.176-.87a.8.8 0 1 1 .085-.18 2.25 2.25 0 0 1 1.478-1.14" fill="#6C707E"/></svg>