<svg width="16" height="16" viewBox="0 0 16 16" fill="none"><path d="M2 4a1 1 0 0 1 1-1h2v4.05a3.49 3.49 0 0 0-.885 3.344A3.5 3.5 0 0 0 2 10.035z" fill="#25324D"/><path d="M6 3V2h7a2 2 0 0 1 2 2v2.337a3.5 3.5 0 0 0-1-.302V4a1 1 0 0 0-1-1z" fill="#CED0D6"/><path d="M5 3H3a1 1 0 0 0-1 1v6.035c-.353.05-.69.154-1 .302V4a2 2 0 0 1 2-2h3v4.337c-.375.178-.713.42-1 .714z" fill="#548AF7"/><path fill-rule="evenodd" clip-rule="evenodd" d="M8 11.95a2.5 2.5 0 1 0-1 0V16h1v-1h2v-1H8zM9 9.5a1.5 1.5 0 1 1-3 0 1.5 1.5 0 0 1 3 0" fill="#548AF7"/><path fill-rule="evenodd" clip-rule="evenodd" d="M14 11.95a2.5 2.5 0 1 0-1 0V16h1v-1h2v-1h-2zm1-2.45a1.5 1.5 0 1 1-3 0 1.5 1.5 0 0 1 3 0" fill="#F2C55C"/><path fill-rule="evenodd" clip-rule="evenodd" d="M5 13.5a2.5 2.5 0 1 1-5 0 2.5 2.5 0 0 1 5 0m-1 0a1.5 1.5 0 1 1-3 0 1.5 1.5 0 0 1 3 0" fill="#CED0D6"/></svg>