<svg width="16" height="16" viewBox="0 0 16 16" fill="none"><path fill-rule="evenodd" clip-rule="evenodd" d="M14.5 11a1.5 1.5 0 1 0-1.489-1.315l-2.47 1.235a1.5 1.5 0 1 0 0 2.16l2.47 1.235q-.01.09-.011.185a1.5 1.5 0 1 0 .459-1.08l-2.47-1.235a1.5 1.5 0 0 0 0-.37l2.47-1.235c.27.26.636.42 1.041.42M10 12a.5.5 0 1 1-1 0 .5.5 0 0 1 1 0m5-2.5a.5.5 0 1 1-1 0 .5.5 0 0 1 1 0m0 5a.5.5 0 1 1-1 0 .5.5 0 0 1 1 0" fill="#548AF7"/><path d="M14.5 7q.222 0 .434.038A7.001 7.001 0 0 0 1 8a7 7 0 0 0 7 7v-1a2.5 2.5 0 0 1 2.618-4.236l1.422-.711A2.5 2.5 0 0 1 14.5 7" fill="#43454A"/><path d="M8 2a6 6 0 0 1 5.928 5.066 2.5 2.5 0 0 1 1.006-.028A7.001 7.001 0 0 0 1 8a7 7 0 0 0 7 7v-1A6 6 0 0 1 8 2" fill="#CED0D6"/><path d="M10.474 9.697a3 3 0 1 0-3.223 1.209 2.5 2.5 0 0 1 3.223-1.209" fill="#25324D"/><path d="M9.315 9.507A2 2 0 1 0 8 10a2.5 2.5 0 0 0-.748.906A3.001 3.001 0 0 1 8 5a3 3 0 0 1 2.474 4.697 2.5 2.5 0 0 0-1.159-.19" fill="#548AF7"/></svg>