<svg viewBox="0 0 16 16" fill="none" xmlns="http://www.w3.org/2000/svg">
  <path d="M11.992 14.931h1.024V16h-1.024zm0-7.931h1.024v1.209h-1.024zm.367 8.118q-.739 0-1.313-.265a2.17 2.17 0 0 1-.891-.75 2 2 0 0 1-.329-1.112h1.26a.96.96 0 0 0 .161.549q.162.24.456.372t.671.132q.363 0 .642-.117a.97.97 0 0 0 .426-.338.87.87 0 0 0 .152-.505.931.931 0 0 0-.789-.936l-1.18-.196a2.1 2.1 0 0 1-.868-.348 1.85 1.85 0 0 1-.568-.671 2 2 0 0 1-.196-.887q0-.584.299-1.044.303-.46.838-.72.539-.26 1.22-.26.69 0 1.23.255.543.25.842.7.304.452.314 1.035h-1.26a.83.83 0 0 0-.141-.475.88.88 0 0 0-.392-.324 1.34 1.34 0 0 0-.579-.117q-.328 0-.578.112a.9.9 0 0 0-.392.309.8.8 0 0 0-.137.465q0 .315.2.54.202.225.53.284l1.147.186a2.06 2.06 0 0 1 1.519 1.102q.22.432.22.926 0 .593-.318 1.074a2.16 2.16 0 0 1-.892.754q-.569.27-1.303.27" fill="#CED0D6"></path><path d="M2 3a4.243 4.243 0 0 1 6 0A4.243 4.243 0 0 1 14.8 7.893q-.347-.313-.782-.516v-.184a3.243 3.243 0 0 0-5.31-3.486L8 4.414l-.707-.707a3.243 3.243 0 0 0-4.585 4.586L8 13.586l.825-.825.002.238q.003.524.17 1.005L8 15 2 9a4.243 4.243 0 0 1 0-6" fill="#CED0D6"></path>
</svg>
