<svg width="16" height="16" viewBox="0 0 16 16" fill="none"><path d="M12.95 3.05a7 7 0 1 1-9.9 9.9 7 7 0 0 1 9.9-9.9" fill="#EDF3FF"/><path fill-rule="evenodd" clip-rule="evenodd" d="m14.914 6.905-.987.155a5.97 5.97 0 0 0-1.684-3.303A5.97 5.97 0 0 0 8.94 2.074l.155-.988A6.97 6.97 0 0 1 12.95 3.05a6.97 6.97 0 0 1 1.964 3.855m-8.01-5.82.157.989c-1.21.19-2.37.75-3.304 1.683A5.97 5.97 0 0 0 2.074 7.06l-.988-.155A6.97 6.97 0 0 1 3.05 3.05a6.97 6.97 0 0 1 3.855-1.964m-5.818 8.01A6.97 6.97 0 0 0 3.05 12.95a6.97 6.97 0 0 0 3.855 1.964l.156-.987a5.97 5.97 0 0 1-3.304-1.684A5.97 5.97 0 0 1 2.074 8.94zm8.01 5.82-.156-.988a5.97 5.97 0 0 0 3.303-1.684 5.97 5.97 0 0 0 1.684-3.303l.987.155a6.97 6.97 0 0 1-1.964 3.855 6.97 6.97 0 0 1-3.855 1.964" fill="#3574F0"/><path d="M8.133 11.5c1.489 0 2.765-.9 3.08-2.175h-1.016c-.314.73-1.092 1.252-2.064 1.252-1.34 0-2.306-1.074-2.306-2.577s.967-2.577 2.306-2.577c.972 0 1.75.522 2.064 1.252h1.015C10.898 5.4 9.622 4.5 8.132 4.5 6.215 4.5 4.789 5.994 4.789 8s1.426 3.5 3.345 3.5" fill="#3574F0"/></svg>