<svg viewBox="0 0 16 16" fill="none" xmlns="http://www.w3.org/2000/svg">
  <g clip-path="url(#a)"><path d="m4.814 4.106 3.998-1.072c.346-.092.715.006.968.26l2.927 2.927c.207.207.31.492.29.779H14a2 2 0 0 0-.585-1.487l-2.927-2.927a2 2 0 0 0-1.934-.518L4.555 3.14c-.69.185-1.23.724-1.415 1.415L2.068 8.553c-.185.691.013 1.428.518 1.934l2.927 2.927c.398.397.938.604 1.487.585v-1.002a1 1 0 0 1-.78-.29L3.294 9.779a1 1 0 0 1-.259-.967l1.072-3.998c.092-.346.362-.616.708-.708" fill="#BA9752"></path><path d="M8.5 8a.5.5 0 0 1 .5.5v.826l.181-.164A4 4 0 0 1 12.001 8a4.005 4.005 0 0 1 3.96 3.43.5.5 0 1 1-.991.14 2.97 2.97 0 0 0-.849-1.691A3 3 0 0 0 12.002 9c-.83 0-1.579.335-2.122.879l-.009.009-.124.112h.754a.5.5 0 0 1 0 1h-2a.5.5 0 0 1-.5-.5v-2a.5.5 0 0 1 .5-.5M8.465 12.005a.5.5 0 0 1 .566.424c.093.656.4 1.244.848 1.692A3 3 0 0 0 12 15c.829 0 1.578-.335 2.122-.879l.008-.009.119-.112H13.5a.5.5 0 0 1 0-1h2a.5.5 0 0 1 .5.5v2a.5.5 0 0 1-1 0v-.834l-.176.167A4 4 0 0 1 12 16a4 4 0 0 1-2.828-1.172 4 4 0 0 1-1.131-2.257.5.5 0 0 1 .424-.566" fill="#548AF7"></path></g><defs><clipPath id="a"><path fill="#fff" d="M0 0H16V16H0z"></path></clipPath></defs>
</svg>
