<svg viewBox="0 0 16 16" fill="none" xmlns="http://www.w3.org/2000/svg">
  <path fill-rule="evenodd" clip-rule="evenodd" d="M4.443 1.15c-.193.126-.38.307-.58.512-.117.12-.22.24-.319.356-.183.213-.352.41-.571.571a.92.92 0 0 1-.496.166l-.072.005c-.08.007-.16.014-.32-.006-.182-.099-.355-.035-.523.167-.185.266-.42.771-.517 1.09-.201.81.311 1.48.802 1.994.437.427.689.694.868 1.085.081.152.15.338.216.516.043.118.086.232.13.33l.008.017c.03.06.03.062.128.083.154.033.348.044.544.055q.144.007.283.019c.122.001.29-.003.448-.02l.107-.02c.192-.035.403-.073.584-.136.21-.052.398-.123.567-.19-.012.04-.061.077-.114.118-.049.037-.1.077-.13.121-.56.803-.722 1.52-.635 2.63l-.003-.002.004.019.005.054c.056.51.173.934.35 1.418.08.221.253.572.418.805q.063.09.138.181l.001.001c.542.66 1.579 1.43 2.975 1.743.267.037.569.017.853-.058.754-.229 2.29-.77 2.29-.77s-1.363.114-1.988.052l-.064-.01c-.126-.017-.254-.035-.34-.119-.017-.022-.079-.145-.04-.146q.03-.003.096-.021c.08-.021.2-.053.354-.067-.505-.054-.505-.054-.54-.144l-.002-.003a6 6 0 0 0-.238-.516c.224.019.722.047.891-.127 0 0-.294.034-.555.003a1.6 1.6 0 0 1-.282-.08 2 2 0 0 0-.126-.042c-.055-.017-.096-.03-.11-.047a2 2 0 0 0-.045-.105c-.021-.045-.043-.09-.071-.172-.059-.161-.07-.339-.08-.507l-.005-.067c.17.21.388.386.675.476l.036.011c.1.035.386.134.605.063l.05-.016q.006 0 .005-.002l-.005.002a.6.6 0 0 1-.237-.018c-.46-.196-.59-.37-.673-.48q-.023-.032-.042-.055l-.236-.353c.072-.143.112-.148.207-.15q.06.008.11.013c.212.025.326.038.476.002q.043.09.077.18c.071.18.14.35.341.484.857.254 1.071-.051 1.278-.344l.028-.04c.644.473 1.691.618 2.419.008.925-1.07 1.218-2.757 1.136-2.854-.116-.196-.267-.398-.397-.37-.17.046-.301.108-.421.164-.208.096-.383.178-.674.144l.055-.002a.5.5 0 0 0 .092-.007c.036-.39-.002-.578-.02-.61-.104-.23-.232-.47-.344-.677l-.106-.197a1 1 0 0 1-.04-.103c-.05-.138-.133-.371-.251-.481-.07-.06-.24-.216-.24-.216l-.014.166s.066.01.091.113c.046.188.183.499.317.775h-.216l.247.065c.133.272.255.497.273.518.092.15.09.319.09.473v.1l-.062.031c-.01-.196-.206-.196-.387-.197h-.041l-.157-.038c.016.014.042.023.068.033.054.019.108.038.068.102-.042.022-.064.105-.087.187l-.015.051-.085.004.13.05c.104.04.207.08.323.128l.082.013-.083.208-.112-.046-.004-.078c-.198-.08-.58-.113-.594-.097a2.4 2.4 0 0 0-.295.377l-.06.09q.069-.057.133-.122c.098-.095.197-.192.34-.226.01-.001.106.016.2.033l.131.024q-.035.007-.078.012c-.057.008-.114.016-.126.033-.106.13-.193.281-.28.431a7 7 0 0 1-.126.213c.062-.064.11-.128.157-.192.095-.13.19-.258.401-.382.026-.017.219-.014.313.033a2 2 0 0 1-.108.26l-.044.095c-.052.122-.136.239-.22.355q-.061.085-.118.17c.204-.249.257-.301.31-.355.04-.039.08-.078.18-.196.1-.235.198-.489.29-.74l.018-.01c.019.01.093.008.187.005.086-.002.187-.004.276.001.158-.034.236-.085.307-.131a.52.52 0 0 1 .287-.104c.19-.015.21.342.207.37-.036.393-.155.85-.339 1.268-.38.734-.807 1.393-1.412 1.484-.617.108-.987-.1-1.325-.292a6 6 0 0 0-.196-.107l-.153.13c-.52.519-1.137.473-1.39-.204h.002l-.008-.014-.043-.082-.034-.065a4 4 0 0 0-.206-.367c-.759-.6-.438-1.149-.23-1.506l.018-.03c-.434-.109-1.01-.342-1.088-.649-.128-.991-.063-1.306.064-1.815l-.058.012c-.563.118-1.134.239-1.738.44v-.005a6 6 0 0 0-.886.329c-.126.036-.244.074-.365.111-.224.07-.455.143-.753.217q-.224.029-.44 0c-.177-.025-.422-.024-.617-.024-.166 0-.295 0-.311-.015-.116-.16-.188-.388-.26-.61-.065-.21-.13-.415-.23-.56l-.002-.002-.002-.003c-.104-.14-.222-.256-.341-.373l-.054-.053c-.489-.486-.907-.956-1.024-1.454l-.021-.087a1.6 1.6 0 0 1-.044-.647v-.002l.001-.002c.118-.407.31-.738.634-1.07.338.006.673.013.933.063l.047.007c.13.021.351.056.578.141.65.242 1.51.64 1.51.64q-.218-.12-.442-.249c-.513-.293-1.026-.586-1.38-.658q-.1-.014-.129-.094c.43-.253.64-.534.848-.814.123-.165.245-.33.412-.487l.084-.037c.148-.065.228-.101.377-.117 1.426.225 2.386.752 3.145 1.17q.154.084.297.16.221.12.428.222c.165.084.325.164.48.253.249.082 1 .648 1.22.954.223.471.386.98.534 1.472.107.5.2.702.2.702s-.09-.418-.075-.493c.094.035.316.105.408.094 0 0-.411-.213-.465-.4-.088-.306-.176-.698-.247-1.016-.07-.31-.123-.55-.146-.575-.132-.165-.682-.586-1.019-.78-.127-.074-.196-.12-.201-.152l.064-.066c.094-.096.2-.204.295-.278l.064-.05a1.1 1.1 0 0 1 .314-.196c.48-.216.818-.079 1.015 0 .09.037.15.061.18.033 0 0-.15-.172-.083-.144.035.02.112.04.181.059a.6.6 0 0 1 .135.045c.255.2.923.929 1.325 1.699.096.188.135.312.09.54-.044.227-.08.352-.128.503-.044.102-.295.797-.294.89-.05.381.164.858.164.858l-.001-.125c-.002-.06-.003-.108.005-.166l.014-.165s-.01-.045-.008-.062q.012-.105.031-.186.011-.052.017-.09c.074-.457.197-.797.34-1.187l.038-.106a1 1 0 0 1 .052-.101c.03-.055.056-.1.054-.155.002-.113-.074-.255-.153-.403q-.039-.07-.074-.14a6 6 0 0 0-.366-.65c-.347-.5-.643-.89-1.186-1.135-.152-.067-.749-.132-.955-.093-.25.052-.465.103-.637.213a3 3 0 0 0-.379.31c-.116.106-.23.21-.352.288-.446-.223-.705-.4-.814-.475l-.051-.034a20 20 0 0 0-1.143-.572c-.202-.189-1.46-.64-2.612-.73m1.362 11.881c-.202-.228-.395-.662-.55-1.025.851.513 2.225 1.074 3.39 1.046.117.203.257.416.37.585-1.484.227-2.513-.228-3.142-.537zm-.467-2.013c.545.486 1.112.992 3.082 1.412l.003-.005a1.8 1.8 0 0 1 .114-.645l.005-.01c-1.868-.224-3.26-1.702-3.553-2.495a4.3 4.3 0 0 0-.041 1.41c.14.11.265.22.39.333m3.422.227q-.043.091-.094.22c-.656-.324-1.198-.713-1.743-1.105l-.013-.01c-.882-.644-1.102-1.41-1.257-2.412a.2.2 0 0 1 .07-.063q.429-.288.928-.397c.289 1.085.884 2.177 1.476 3.174l.093.12c.16.209.248.325.54.473m-1.105 3.026c.538-.003 1.092-.006 1.617-.246.043.09.107.169.14.208l.02.026c.498.65-.63.5-.864.461a3.6 3.6 0 0 1-1.204-.446zm3.828-2.855c-.34-.265-.625-.538-.813-.82-.051.276-.214.485-.367.68l-.09.118c-.034.055-.059.129.11.365.046.063.21.073.322.068l-.109-.076c-.092-.061-.185-.123-.204-.179.199.136.383.175.55.153.038-.004.085-.045.122-.107a.5.5 0 0 1 .184-.236l.007-.005.135.17zm-.237-8.483c.099.01.63.85.656.99.019.131.05.27.082.41.041.187.084.376.1.558a10 10 0 0 0-.302-.92c-.035-.085-.123-.276-.368-.546-.11-.182-.137-.327-.164-.471zm-1.591 2.81c.098.165.19.317.286.392-.063-.138-.12-.295-.178-.459-.146-.407-.305-.851-.612-1.123-.411-.132-.972-.14-1.533-.147a24 24 0 0 1-.5-.01c.224.058.488.095.754.132.461.064.929.129 1.21.302.006.024-.012.04-.039.053l-.068-.01a.7.7 0 0 0-.264-.008c-.115.037-.222.097-.328.156q-.075.043-.152.081c.301-.061.454-.031.627.003.08.015.165.032.27.04.217.083.38.354.527.599m1.842 1.542a2 2 0 0 0-.692.019.7.7 0 0 0-.11.263 1 1 0 0 1-.03.107c.277-.306.388-.325.832-.389m-.86 1.136s.324-.047.318-.016a.9.9 0 0 0 .043.35l-.178.146c.294-.148.6-.159.913-.17q.137-.004.275-.012s-.342-.095-.321-.098c.076-.01-.02-.357-.047-.365q.097-.032.195-.055c-.49-.128-.773-.053-1.197.22m.364.331-.003.003q.003.003.004-.003m3.535.187c-.076.076-.152.152-.438.24-.275.064-.43-.046-.559-.194q.068.022.12.05c.118.059.232.115.633-.011l.322-.157q-.044.036-.078.072m-4.058 1.448c0-.014.449.044.5.061-.407-.002-.408-.002-.672.259l-.022.021c-.004-.101.022-.219.194-.341m.5.061" fill="#6C707E"></path><path d="m3.863 1.662-.04-.04zm.58-.512.03-.048-.031-.02-.03.02zm-.899.868-.043-.037zm-.571.571-.034-.046-.004.003zm-.496.166.003.057zm-.072.005L2.4 2.704zm-.32-.006-.027.05.01.005.01.001zm-.523.167-.044-.037-.003.004zm-.517 1.09L.99 3.993v.003zm.802 1.994-.041.04.001.001zm.868 1.085-.052.024.002.003zm.216.516.054-.02zm0 0-.054.019zm.13.33-.053.023.001.003zm.008.017.05-.026zm.128.083-.012.056zm.544.055.003-.057zm.283.019-.005.057h.004zm.448-.02.006.057h.005zm.107-.02-.01-.056zm0 0 .01.057zm.584-.136-.014-.055-.005.001zm.567-.19.055.017.032-.112-.108.042zm-.114.118.034.045zm-.13.121.048.033v-.002zm-.635 2.63-.034.046.1.073-.01-.123zm-.003-.002.033-.046-.057-.042-.029.065zm0 0-.053-.023-.007.018.004.018zm.004.019.058-.005-.002-.009zm.005.054-.057.005v.002zm.35 1.418.053-.02zm.418.805-.047.033zm.138.181-.005.057.137.013-.088-.106zm0 0 .005-.057-.191-.018.15.12zm.001.001.045-.037-.01-.007zm2.975 1.743-.012.056h.004zm.853-.058.015.055h.002zm2.29-.77.02.055-.025-.111zm-1.988.052-.009.056h.004zm-.064-.01-.008.057zm-.34-.119-.046.035.006.006zm-.04-.146v-.058zm.096-.021-.014-.056zm0 0 .014.055zm.354-.067.005.057.001-.114zm-.54-.144.053-.02zm-.002-.003.053-.022zm-.238-.516.004-.057-.104-.009.05.093zm.891-.127.041.04.111-.115-.158.018zm-.555.003-.006.057zm-.282-.08-.02.053zm-.126-.042.016-.055zm-.11-.047-.052.02.003.008.004.006zm-.045-.105-.052.024zm-.071-.172.053-.019zm-.08-.507.057-.003zm-.005-.067.045-.036-.113-.139.012.178zm.675.476-.017.055.047.015.021-.045zm.036.011.021-.053h-.002zm0 0-.021.053.002.001zm.605.063-.018-.054zm.055-.018h.057v-.078l-.074.024zm-.242-.016.025-.051-.003-.002zm-.673-.48-.045.033zm-.042-.055-.048.031.005.006zm-.236-.353-.05-.025-.016.03.019.027zm.207-.15.006-.056h-.007zm.11.013-.007.057zm.476.002.052-.025-.02-.041-.045.01zm.077.18.053-.021zm0 0-.053.02zm.341.484-.03.047.006.005.008.002zm1.278-.344-.046-.033zm.028-.04.034-.046-.047-.034-.034.047zm2.419.008.037.045.006-.007zm1.136-2.854-.05.03.007.007zm-.397-.37-.012-.056-.003.001zm-.421.164-.024-.052zm-.674.144-.003-.057-.004.114zm.055-.002-.002-.057zm.092-.007.057.007v-.002zm-.02-.61-.052.023.002.003zm-.344-.677-.051.026v.001zm0 0 .05-.025v-.002zm-.106-.197.05-.027-.002-.005zm-.04-.103.053-.02zm-.251-.481.038-.042-.001-.001zm-.24-.216.039-.042-.086-.078-.01.115zm-.014.166-.057-.005-.005.054.053.008zm.091.113-.055.014zm.317.775v.057h.09l-.039-.081zm-.216 0v-.057l-.014.113zm.247.065.051-.025-.011-.023-.025-.007zm.273.518.048-.03-.004-.006zm.09.473h-.058zm0 .1.025.05.032-.015v-.036zm-.062.031-.057.003.004.087.078-.039zm-.387-.197v.057zm-.041 0-.014.057h.014zm-.157-.038.014-.056-.214-.052.161.15zm.068.033.019-.054zm.068.102.027.05.013-.007.008-.012zm-.087.187.055.015zm-.015.051.003.057.04-.002.012-.039zm-.085.004-.002-.057-.018.11zm.13.05-.02.054zm.323.128-.022.055.014.002zm.082.013.053.021.027-.067-.071-.01zm-.083.208-.021.053.053.021.021-.053zm-.112-.046-.057.003.002.037.033.013zm-.004-.078.057-.003-.002-.037-.034-.013zm-.594-.097.04.041.003-.004zm-.295.377-.047-.032zm0 0 .047.032zm0 0-.047-.032zm-.06.09-.048-.033.082.078zm.133-.122-.038-.042-.002.002zm0 0 .038.043.002-.002zm.34-.226-.006-.057-.007.002zm.2.033.012-.055h-.002zm0 0-.012.056h.002zm0 0 .01-.056zm.131.024.012.056-.002-.112zm-.078.012.008.057zm-.126.033.044.036.002-.003zm-.28.431.048.032.002-.003zm0 0-.047-.032-.002.003zm-.126.213-.048-.03.089.07zm.157-.192.046.034.001-.003zm0 0-.046-.034-.002.002zm.401-.382.029.049.002-.002zm.313.033.055.016.012-.046-.042-.02zm-.108.26-.051-.025zm0 0 .052.024zm-.044.095-.052-.024v.001zm-.22.355-.046-.033zm-.118.17-.048-.03.091.066zm.31-.355.041.04zm.18-.196.043.037.006-.007.004-.008zm.29-.74-.028-.05-.019.01-.007.02zm.018-.01.028-.05-.027-.015-.027.014zm.187.005V8.87h-.001zm0 0v.057h.002zm.276.001-.003.057h.008l.008-.001zm.307-.131-.031-.048zm.287-.104.005.057zm.207.37-.057-.006zm-.339 1.268.051.026.002-.003zm-1.412 1.484-.008-.056h-.002zm-1.325-.292.028-.05zm-.196-.107.026-.05-.034-.018-.029.025zm-.153.13-.037-.043-.003.004zm-1.39-.204.055-.02-.003-.004zm0 0-.003-.057-.084.006.036.076zm.002 0 .003.057.089-.006-.042-.078zm-.008-.014-.051.025v.002zm-.043-.082-.05.026v.002zm-.034-.065-.05.027zm-.206-.367.048-.031-.005-.008-.007-.005zm-.23-1.506.05.029zm.018-.03.05.03.037-.066-.073-.018zM8.35 8.63l-.057.008.001.007zm.064-1.815.056.013.022-.088-.09.019zm-.058.012-.011-.056-.007.002zm0 0 .01.056.008-.002zm0 0-.01-.056h-.001zm-1.738.44-.056.009.01.066.064-.02zm0-.005.056-.008-.01-.06-.06.013zm-.886.329.017.056.01-.006zm-.365.111-.017-.054zm0 0 .017.055h.001zm-.753.217.007.057.007-.001zm-.44 0-.007.056zm-.617-.024v.057zm0 0v-.057zm-.311-.015-.048.034.009.008zm-.26-.61-.053.016zm-.23-.56.048-.032-.003-.003zm-.002-.002L2.8 6.67l-.003-.003zm-.002-.003-.046.034.003.004zm-.341-.373-.04.04zm-.054-.053-.04.04zM1.334 4.824l-.056.011v.002zm-.021-.087.055-.014zm-.044-.647-.056-.02-.001.015zm0-.002.054.019v-.001zm.001-.002.054.018V4.1zm.634-1.07V2.96H1.88l-.017.017zm.933.063-.01.056h.001zm.047.007-.01.057h.001zm.578.141-.02.053zm1.51.64-.024.052.051-.102zm-.442-.249.028-.05zM3.15 2.96l.012-.055-.004-.001zm-.129-.094-.029-.05-.041.025.017.045zm.848-.814.046.034zm0 0-.046-.034zm.412-.487-.022-.052-.01.004-.007.007zm.084-.037-.023-.052zm0 0 .023.052zm.377-.117.01-.057h-.016zm3.145 1.17.028-.05zm0 0-.027.049zm.297.16.027-.05zm.428.222-.026.051zm0 0 .025-.05zm.48.253-.029.05.011.004zm1.22.954.052-.025-.007-.008zm.534 1.472.056-.012-.001-.005zm.2.702-.051.024.107-.036zm-.075-.493.02-.053-.063-.024-.013.066zm.408.094.006.056.185-.021-.165-.086zm-.465-.4.055-.016zm-.247-1.016.056-.013-.001-.004zm0 0-.056.012.001.004zm-.146-.575-.045.036.003.004zm-1.019-.78-.028.049zm-.201-.152-.04-.04-.021.02.004.03zm.064-.066.041.04zm0 0-.04-.04zm.295-.278.035.045zm.064-.05.036.044.002-.001zm0 0-.035-.045-.002.002zm.314-.196.02.054.004-.002zm1.015 0-.022.053zm.18.033.04.042.04-.038-.037-.041zm-.083-.144.027-.05-.005-.003zm.181.059-.015.055zm.135.045-.039.042.004.002zm1.325 1.699.05-.026zm.09.54.056.01zm-.128.503.053.023.001-.005zm-.294.89.057.007v-.008zm.164.858-.052.024.109-.023zm-.001-.125-.057.002zm.005-.166.056.007V6.63zm.014-.165.057.004v-.008l-.001-.008zm-.008-.062-.056-.005zm.031-.186.056.012zm0 0-.056-.011zm.017-.09-.057-.01v.003zm.34-1.187.053.02zm.038-.106-.052-.023-.001.003zm.052-.101-.048-.032-.002.004zm0 0 .047.031.003-.003zm.054-.155h-.057v.003zm-.153-.403.05-.026zm-.074-.14-.051.024zm-.366-.65.048-.031v-.001zm-1.186-1.135.024-.052h-.001zm-.955-.093-.01-.056h-.002zm-.637.213.03.048zm-.379.31.038.043.001-.001zm0 0-.037-.043-.004.004zm0 0 .04.042.002-.003zm-.352.288-.025.051.029.015.027-.018zm-.814-.475.033-.047zm0 0-.032.047zm-.051-.034.028-.05h-.001zM7.055 1.88l-.039.042.007.006.009.004zm-2.612-.73-.03.048.012.007.013.001zm.812 10.855.03-.049-.152-.09.07.162zm.55 1.025-.043.038.002.002zm2.84.021.05-.028-.017-.03-.034.001zm.37.585.01.057.088-.014-.05-.074zM5.874 13.1l-.04.04.006.007.008.004zm2.547-.67-.012.056.042.008.02-.037zm-3.082-1.412-.037.042zm3.085 1.407.05.026.007-.013v-.014zm.114-.645.053.022zm.005-.01.053.02.028-.069-.074-.008zM4.989 9.274l.054-.02-.068-.184-.041.192zm-.041 1.41-.057.008.003.023.019.015zm3.718.78-.026.05.055.028.023-.057zm.094-.22.052.025.024-.05-.05-.026zm-1.837-.885.033-.046zm-.013-.01-.034.046zM5.653 7.938l-.044-.036-.016.02.003.025zm.07-.063.023.054.01-.007zm.928-.397.055-.015-.014-.053-.054.012zm1.476 3.174-.05.03.005.005zm.093.12.045-.034zm0 0 .046-.034zm0 0-.045.035zm1.052 3.253L9.323 14l-.024-.05-.05.023zm-1.617.246v.057zm1.757-.038-.045.036zm.02.026-.053.025.007.01zm-.864.461.01-.056zm-1.204-.446v-.057l-.208.004.18.102zm3.306-3.677.047-.032-.077-.116-.026.137zm.813.819.037.043.053-.045-.055-.043zm-1.18-.14-.044-.034zm-.09.118-.046-.034-.002.004zm.11.365-.046.033zm.322.068.003.057.156-.008-.125-.095zm-.109-.076-.031.048zm-.204-.179.032-.047-.144-.098.058.164zm.55.153-.007-.057zm.122-.107.049.03.002-.006zm.184-.236.034.046zm.007-.005.044-.035-.034-.043-.044.032zm.135.17-.044.035.036.046.045-.038zm.572-7.624.056-.009v-.001zm-.656-.99.005-.056-.167-.016.123.114zm.737 1.4-.055.013zm0 0 .056-.012zm.101.558-.054.016.111-.021zm-.302-.92.053-.021v-.001zm-.368-.546-.05.03.007.008zm-.164-.471.056-.01zm-.004-.02.056-.011-.003-.019-.014-.013zM9.941 6.134l-.035.045.087-.068zm-.286-.391-.05.029zm.108-.068.054-.019zm-.612-1.123.038-.043-.009-.008-.011-.004zm-1.533-.147V4.35zm-.5-.01.001-.056-.016.112zm.754.132.009-.057zm0 0-.008.056zm1.21.302.054-.015-.005-.021-.02-.012zm-.039.053-.007.057.016.002.016-.007zm-.068-.01-.009.056zm-.264-.008-.013-.055h-.004zm-.328.156.025.05h.002zm0 0-.026-.051-.002.001zm0 0-.028-.05zm0 0-.028-.05zm-.152.081-.025-.05.037.106zm.627.003.011-.056zm.27.04.02-.052-.007-.003-.008-.001zm1.677 2.159-.013-.056-.02.005-.013.017zm.692-.019h.057v-.05l-.05-.006zm-.803.282.056.014zm-.03.107-.054-.018.096.056zm.833-.389.008.057.049-.007v-.05zm-.542 1.12.056.011zm-.317.016-.008-.056-.01.001-.008.005zm.182.48-.036-.044.061.095zm.913-.17.002.057zm.275-.012.004.056.011-.111zm-.321-.098-.008-.056zm-.047-.365-.018-.054-.173.059.175.05zm.195-.055.014.055v-.11zm-1.197.22-.031-.047.056.098zm.364.331.056.01.027-.151-.12.097zm3.534.187-.04-.04zm0 0 .04.04zm-.438.24.013.055.003-.001zm-.559-.194.016-.054-.186-.054.127.146zm.12.05-.025.051zm.633-.011.017.054.008-.003zm.322-.157.036.044-.06-.096zm-4.136 1.52.033.046.024-.017v-.03zm-.172.32.04.04zm-.022.021-.057.002.004.13.092-.091zm.694-.28-.014.056.01.002.01-.001zm0 0 .007.057-.007-.114zM3.904 1.702c.2-.206.383-.382.57-.504l-.062-.096c-.2.13-.39.315-.59.52zm-.317.353c.1-.115.202-.234.317-.353l-.082-.08c-.118.123-.222.244-.321.359zm-.58.58c.225-.165.398-.368.58-.58l-.086-.074c-.183.213-.35.406-.562.562zm-.527.177c.25-.014.452-.112.53-.18l-.075-.086a.87.87 0 0 1-.461.152zm-.07.005.07-.005-.006-.114-.074.006zm-.332-.007c.165.02.25.014.332.007l-.01-.113c-.078.006-.153.012-.308-.007zm-.473.147a.54.54 0 0 1 .231-.178.27.27 0 0 1 .222.025l.054-.1A.38.38 0 0 0 1.8 2.67a.65.65 0 0 0-.282.214zM1.1 4.027c.096-.313.328-.813.51-1.074l-.094-.065A4.9 4.9 0 0 0 .99 3.994zm.79 1.939C1.396 5.45.906 4.803 1.1 4.024l-.11-.027c-.21.843.325 1.533.816 2.048zm.878 1.1c-.184-.402-.444-.675-.88-1.102l-.08.082c.437.427.682.687.856 1.068zm.217.52c-.065-.176-.135-.367-.219-.523l-.1.054c.079.148.146.33.212.508zm0 0-.107.038zm.128.327a6 6 0 0 1-.128-.327l-.107.04c.044.117.087.234.131.333zm.008.014L3.11 7.91l-.102.052.009.016zm.09.054-.07-.02c-.002 0-.003.001-.02-.034l-.102.051c.013.026.027.058.058.079q.024.014.048.02l.06.015zm.534.053a4 4 0 0 1-.535-.053l-.024.111c.16.034.358.045.553.056zm.285.019q-.141-.011-.285-.019l-.006.114q.144.007.281.018zm.437-.02c-.156.017-.321.021-.441.02l-.002.114c.124.001.294-.003.455-.02zm.102-.018-.106.02.02.111.107-.02zm0 0 .02.112zm.576-.135a4 4 0 0 1-.576.135l.02.112c.192-.035.408-.075.594-.139zm.565-.189a4.4 4.4 0 0 1-.56.188l.028.11a5 5 0 0 0 .574-.191zm-.059.216c.026-.02.055-.041.078-.063a.2.2 0 0 0 .057-.083l-.11-.033q0 .007-.026.033a1 1 0 0 1-.068.056zm-.115.107a.5.5 0 0 1 .115-.107l-.069-.09c-.046.035-.107.08-.142.136zm-.627 2.595c-.044-.552-.025-1.002.073-1.413.098-.41.275-.783.552-1.18l-.093-.065a3.5 3.5 0 0 0-.57 1.219c-.101.426-.12.889-.076 1.447zm-.094.048.003.002.067-.092-.003-.002zm.086-.024-.105-.045zm.008-.017-.005-.018-.11.026.004.019zm.005.064-.004-.055-.114.01.005.054zm.347 1.402a5.7 5.7 0 0 1-.347-1.404l-.113.013c.057.516.176.943.353 1.43zm.411.792a4 4 0 0 1-.41-.792l-.108.04c.083.225.257.58.425.818zm.136.178q-.075-.09-.136-.178l-.093.066q.065.09.141.184zm-.05.093.012-.114zm.043-.1-.002-.002-.07.09zm2.952 1.732c-1.383-.31-2.41-1.074-2.944-1.724l-.088.072c.55.67 1.598 1.447 3.007 1.763zm.826-.058a2.2 2.2 0 0 1-.831.057l-.016.113c.275.037.585.017.876-.06zm2.304-.714-.019-.054-.004.002-.013.004-.234.082-.61.21c-.479.164-1.05.356-1.426.47l.033.11c.378-.115.951-.308 1.43-.472.239-.081.454-.156.61-.21l.185-.065.05-.017.013-.005.004-.001zm-1.993.107c.317.032.818.019 1.236-.002a27 27 0 0 0 .702-.044l.044-.003.015-.001-.004-.057-.005-.057h-.003l-.012.001-.044.004-.163.012c-.137.01-.326.021-.535.031-.42.021-.913.034-1.22.003zm-.067-.009.063.01.018-.114-.065-.009zm-.372-.135c.102.1.251.118.372.135l.016-.113c-.13-.018-.239-.035-.309-.104zm0-.245a.07.07 0 0 0-.059.034.1.1 0 0 0-.01.046c0 .021.008.045.015.063a.5.5 0 0 0 .048.096l.09-.07-.003-.006a.3.3 0 0 1-.036-.087v.003l-.005.013a.05.05 0 0 1-.037.022zm.082-.018-.056.014-.027.005.004.113a.3.3 0 0 0 .049-.007l.059-.015zm0 0 .028.11zm.363-.069c-.16.015-.283.047-.363.069l.029.11c.08-.021.195-.052.344-.065zm-.588-.065c.008.02.018.047.04.07a.2.2 0 0 0 .092.049c.073.019.206.033.455.06l.012-.114a4 4 0 0 1-.437-.057c-.03-.008-.037-.014-.04-.017s-.006-.009-.016-.034zm-.002-.004.002.004.106-.043-.002-.004zm-.236-.51c.09.17.179.367.236.51l.106-.043a6 6 0 0 0-.241-.52zm.901-.194a.35.35 0 0 1-.154.081c-.068.02-.15.032-.234.038-.169.012-.346 0-.458-.009l-.01.114c.114.01.298.021.476.009.09-.007.179-.02.258-.043a.46.46 0 0 0 .204-.11zm-.52.1a2.5 2.5 0 0 0 .516.001l.038-.003.01-.001h.003l-.006-.057-.006-.057h-.003l-.01.001-.036.004-.127.008a2.4 2.4 0 0 1-.366-.01zm-.295-.083c.043.015.199.071.295.083l.013-.113c-.08-.01-.222-.06-.27-.077zm-.124-.042q.055.016.123.041l.041-.106q-.075-.029-.13-.044zm-.138-.067a.14.14 0 0 0 .064.042q.033.013.074.025l.033-.109q-.042-.013-.065-.021l-.016-.008q-.003-.003.001.002zm-.052-.115c.015.031.029.06.045.101l.106-.041a2 2 0 0 0-.048-.108zm-.073-.177c.03.084.052.132.073.177l.103-.049a2 2 0 0 1-.069-.166zm-.083-.522c.01.166.021.352.083.523l.107-.04a1.8 1.8 0 0 1-.076-.49zm-.004-.068.004.068.114-.008-.005-.067zm.748.419a1.35 1.35 0 0 1-.647-.458l-.089.072c.176.216.401.4.702.495zm.038.011-.04-.012a.1.1 0 0 0-.032 0 .06.06 0 0 0-.034.031l.102.049a.06.06 0 0 1-.06.031h.002l.024.01zm.002.001-.042.106zm.566.062a.7.7 0 0 1-.32.006c-.106-.02-.199-.051-.248-.069l-.038.108c.05.017.15.052.266.073a.8.8 0 0 0 .375-.01zm.05-.016-.05.016.035.109.05-.017zm-.034.052a.06.06 0 0 1 .027-.048l.011-.005.005-.001.019.112a.1.1 0 0 0 .024-.009.06.06 0 0 0 .028-.049zm.07.056.005-.001-.035-.109-.005.002zm-.28-.021a.3.3 0 0 0 .074.02.74.74 0 0 0 .198.002l-.02-.111a.7.7 0 0 1-.161-.003.2.2 0 0 1-.041-.01zm-.693-.498c.042.056.098.132.204.219.105.086.258.18.491.28l.045-.105a2 2 0 0 1-.464-.264c-.095-.077-.145-.144-.185-.198zm-.04-.05.04.05.091-.068q-.022-.03-.046-.058zm-.24-.36.235.353.095-.063-.235-.353zm.253-.237a.26.26 0 0 0-.141.03.36.36 0 0 0-.116.15l.102.052c.035-.07.058-.095.074-.105s.034-.013.083-.013zm.117.013-.11-.013-.012.113.11.013zm.457.002c-.14.034-.243.023-.457-.002l-.013.113c.211.024.335.04.497 0zm.143.214q-.035-.088-.078-.183l-.103.05q.04.087.075.175zm0 0-.106.042zm.32.458c-.186-.122-.249-.277-.32-.458l-.106.042c.071.18.145.367.363.511zm1.2-.33c-.105.149-.202.285-.372.359-.169.073-.421.09-.843-.036l-.033.11c.434.128.718.119.922.03.203-.088.316-.251.419-.397zm.027-.039-.027.04.093.066.027-.04zm2.43-.002c-.703.588-1.72.45-2.35-.01l-.067.091c.659.483 1.736.637 2.49.006zm1.129-2.774c-.005-.005-.006-.01-.005-.007l.002.013a.4.4 0 0 1 .002.062q-.003.083-.025.222c-.03.186-.087.436-.176.718-.177.564-.479 1.245-.934 1.772l.086.075c.47-.543.777-1.241.957-1.813.09-.286.148-.542.18-.734q.022-.144.025-.236a.5.5 0 0 0-.008-.112.1.1 0 0 0-.018-.034zM14.6 8.5q.023-.007.063.013a.4.4 0 0 1 .089.072c.064.066.128.161.185.258l.098-.058a1.6 1.6 0 0 0-.201-.28.5.5 0 0 0-.118-.093.2.2 0 0 0-.14-.024zm-.408.16c.12-.057.247-.116.412-.161l-.03-.11c-.176.048-.31.11-.43.167zm-.705.149c.308.036.496-.052.705-.15l-.048-.103c-.207.096-.37.172-.643.14zm.06-.116-.056.002.006.114.054-.002zm.038.042a.06.06 0 0 1 .038-.046h.002l-.016.001-.062.003.004.114.065-.003.04-.005.013-.006c.003-.002.025-.014.029-.043zm-.014-.576.003.009.007.03q.008.038.013.11c.007.096.008.237-.01.43l.114.01a3 3 0 0 0 .01-.448 1 1 0 0 0-.015-.124.3.3 0 0 0-.021-.07zm-.344-.676c.111.208.24.445.343.673l.103-.047c-.105-.232-.234-.473-.346-.68zm-.001-.001.102-.051zm-.105-.197q.049.093.106.198l.1-.054-.105-.197zm-.044-.11.024.067a.3.3 0 0 0 .022.048l.096-.063-.003-.006-.009-.02-.023-.064zm-.236-.458a.7.7 0 0 1 .138.212c.04.087.073.177.098.246l.107-.038a3 3 0 0 0-.102-.256.8.8 0 0 0-.164-.248zm-.2-.258-.04.042h.001l.002.002.005.005q.008.006.02.019l.214.191.074-.086a8 8 0 0 1-.21-.19q-.015-.011-.02-.018l-.006-.005-.002-.001zm.042.171.014-.166-.114-.01-.014.166zm.09.095a.22.22 0 0 0-.076-.127.2.2 0 0 0-.06-.028h-.002l-.01.055-.008.057h-.002.001q.003 0 .011.006c.01.007.025.024.035.064zm.312.764c-.134-.278-.268-.583-.312-.764l-.11.027c.047.194.186.51.32.786zm-.051-.033h-.216v.114h.216zm-.23.113.247.064.029-.11-.247-.065zm.578.491-.007-.01-.019-.033-.061-.113a12 12 0 0 1-.179-.35l-.102.05a13 13 0 0 0 .263.505l.016.023zm.103.51c0-.152.003-.338-.099-.504l-.097.06c.083.134.083.286.082.443zm0 .098v-.098l-.115-.001v.101zm-.083-.05-.062.031.051.102.062-.031zm.02.08a.24.24 0 0 0-.051-.147.25.25 0 0 0-.116-.077c-.083-.028-.188-.028-.275-.028v.114c.093 0 .176.001.238.022q.044.015.064.04a.13.13 0 0 1 .027.08zm-.442-.252h-.042v.114h.041zm-.029.001-.156-.038-.027.11.156.04zm-.209.06a.2.2 0 0 0 .046.028l.042.016.038-.107-.048-.021zm.088.044.044.019q.002 0 .003.002-.002-.001-.003-.01c0-.005.001-.003-.006.008l.097.06a.13.13 0 0 0 .023-.071.1.1 0 0 0-.03-.067.2.2 0 0 0-.046-.031q-.024-.01-.044-.017zm.06 0c-.04.02-.062.064-.076.099-.016.037-.028.082-.04.122l.11.03a1 1 0 0 1 .035-.11l.017-.032q.008-.011.008-.01zm-.115.22-.014.05.109.033.014-.052zm.037.01-.084.004.005.114.085-.004zm-.102.114q.066.027.13.05l.041-.106-.13-.05zm.13.05c.104.04.206.08.322.128l.043-.105c-.117-.049-.22-.089-.324-.129zm.335.132.082.012.017-.112-.082-.013zm.037-.065-.083.208.106.042.083-.208zm-.008.176-.113-.046-.043.106.113.046zm-.077.004-.004-.078-.114.005.004.08zm-.04-.128a1.7 1.7 0 0 0-.38-.088 2 2 0 0 0-.216-.016.2.2 0 0 0-.037.005.1.1 0 0 0-.026.018l.087.074q-.017.016-.022.015l-.004.002h.05q.061.003.153.015c.121.016.26.044.353.08zm-.655-.085c-.12.118-.213.255-.302.386l.094.064c.09-.133.177-.26.287-.368zm-.302.386.094.064zm0 0 .094.065zm0 0-.06.09.093.064.061-.09zm.021.167q.075-.061.139-.126l-.08-.081a2 2 0 0 1-.129.117zm.137-.124-.076-.085zm.002-.002c.1-.097.188-.182.313-.212l-.026-.11c-.16.038-.27.147-.367.24zm.306-.21h-.004q.004 0 .012.002l.045.007.13.023.021-.112-.132-.023-.064-.01q-.006-.002-.02 0zm.182.032.024-.111zm.002 0 .02-.112zm0 0 .132.024.02-.112-.132-.024zm.13-.088-.074.012.015.113c.027-.004.057-.008.082-.013zm-.074.012c-.028.003-.06.008-.085.013l-.039.012a.1.1 0 0 0-.042.03l.093.067c-.006.01-.013.01-.008.008l.02-.005q.03-.007.076-.012zm-.163.053c-.11.135-.198.29-.285.438l.099.058a3.3 3.3 0 0 1 .274-.425zm-.283.435.095.064zm-.002.003a7 7 0 0 1-.125.212l.096.06q.066-.106.128-.214zm-.036.282c.065-.067.114-.134.162-.198l-.092-.068a2 2 0 0 1-.152.186zm.163-.2-.095-.064zm-.001.002a1.2 1.2 0 0 1 .384-.367l-.058-.098c-.22.13-.322.266-.418.397zm.386-.369q-.012.007-.004.003l.023-.002a.6.6 0 0 1 .237.036l.051-.102a.73.73 0 0 0-.331-.044.1.1 0 0 0-.038.014zm.227-.029a2 2 0 0 1-.104.25l.103.049c.042-.089.087-.184.11-.268zm-.104.25.103.049zm0 0-.045.096.104.047.044-.094zm-.046.097c-.049.116-.128.227-.213.345l.092.066c.083-.115.171-.236.226-.366zm-.213.345q-.062.085-.12.172l.095.062q.056-.082.117-.168zm-.029.24c.204-.249.256-.3.308-.351l-.08-.081c-.056.055-.11.11-.316.36zm.308-.351c.04-.04.081-.081.182-.2l-.086-.074c-.1.116-.138.155-.176.193zm.192-.215c.1-.236.198-.49.29-.743l-.107-.039c-.091.25-.19.504-.288.738zm.263-.712.02-.01-.054-.1-.02.01zm.178-.112h-.156q-.014-.002-.002.001l-.055.1c.016.009.034.011.045.013l.047.002q.052 0 .124-.002zm.001 0v.114zm.28.001c-.092-.005-.196-.003-.281 0l.003.113c.086-.002.184-.004.271.001zm.272-.122c-.068.045-.14.092-.287.123l.024.112a.9.9 0 0 0 .325-.14zm.314-.113a.6.6 0 0 0-.187.042c-.05.02-.09.047-.127.071l.062.095a.48.48 0 0 1 .26-.095zm.267.431a.802.802 0 0 0-.033-.223.4.4 0 0 0-.075-.142.19.19 0 0 0-.159-.066l.009.114q.038-.003.066.028.03.037.05.1a.7.7 0 0 1 .028.163v.016zm-.342 1.287c.185-.423.306-.887.342-1.287l-.113-.01a4.2 4.2 0 0 1-.334 1.25zm-1.456 1.518c.321-.05.59-.248.825-.521s.438-.626.63-.994l-.102-.052c-.19.366-.39.709-.615.972-.225.262-.472.439-.755.482zm-1.362-.299c.34.192.725.41 1.363.298l-.02-.112c-.597.105-.95-.095-1.287-.285zm-.194-.106q.095.05.194.106l.056-.1a6 6 0 0 0-.198-.107zm-.09.123.153-.13-.074-.087-.153.13zm-1.48-.228c.132.353.364.552.641.587.274.034.575-.095.842-.362l-.08-.08c-.252.25-.52.357-.748.329-.224-.028-.427-.19-.548-.514zm.002.005.103-.05zm.049-.082zl.008.114zm-.054.07.007.014.1-.054-.007-.014zm-.043-.081.042.079.102-.05-.044-.085zm-.034-.066.033.064.101-.052-.033-.065zm-.203-.362c.075.113.138.236.203.361l.101-.052c-.064-.125-.13-.253-.209-.372zm-.231-1.567c-.104.177-.244.415-.256.688-.013.28.109.583.5.892l.07-.09c-.37-.291-.467-.562-.457-.797.011-.24.135-.455.24-.635zm.017-.029-.017.03.098.057.017-.03zm-1.095-.606a.5.5 0 0 0 .16.243c.076.07.173.135.28.191.213.113.47.2.69.256l.028-.11a3 3 0 0 1-.665-.246 1.2 1.2 0 0 1-.256-.175.4.4 0 0 1-.126-.188zM8.36 6.8a3.8 3.8 0 0 0-.13.737c-.016.271 0 .602.064 1.1l.113-.015c-.063-.494-.079-.817-.063-1.078.016-.26.063-.462.127-.717zm.01.082.057-.013-.023-.111-.058.012zm.005-.002-.036-.108zm-.007.002-.02-.112zm-1.73.438c.6-.2 1.168-.32 1.731-.438l-.023-.112c-.563.119-1.137.24-1.745.442zm-.076-.05v.005l.114-.018-.001-.004zm-.802.37c.076-.04.251-.112.433-.179.18-.067.36-.126.438-.144l-.025-.111c-.087.02-.272.082-.453.148-.18.067-.363.14-.447.186zm-.375.116q.178-.057.364-.111l-.032-.11c-.126.037-.245.074-.366.112zm.001 0-.036-.109zm-.757.218c.3-.076.532-.148.756-.218l-.034-.11c-.224.071-.453.143-.75.217zm-.46 0q.223.03.453 0l-.014-.112a1.7 1.7 0 0 1-.425-.001zm-.61-.023c.195 0 .436 0 .61.023l.014-.113c-.182-.025-.432-.024-.625-.024zm0 0v-.114zm0 0v-.114zm-.351-.03a.1.1 0 0 0 .035.018l.029.006.072.005.215.001v-.114a7 7 0 0 1-.273-.005l-.013-.003c-.004 0 .004 0 .012.009zm-.274-.636c.07.22.144.458.266.628l.093-.067c-.11-.152-.179-.37-.25-.595zm-.223-.543c.092.136.155.332.223.543l.108-.034c-.065-.206-.133-.42-.237-.574zm0 0 .002.003.089-.071L2.8 6.67zm0 0 .002.003.084-.077-.002-.003zm-.34-.37c.12.117.235.23.336.366l.091-.068c-.106-.143-.228-.263-.346-.38zm-.053-.054.054.053.08-.081-.054-.053zm-1.04-1.48c.122.515.553.996 1.04 1.48l.08-.08c-.49-.488-.896-.947-1.009-1.427zm-.02-.087.02.084.112-.022-.022-.09zm-.046-.666c-.033.36.011.533.046.666l.11-.029c-.032-.124-.074-.284-.043-.627zm.004-.016-.001.002.107.038.001-.003zm0-.001v.002l.107.036.001-.002zm.647-1.092a2.5 2.5 0 0 0-.648 1.094l.11.031c.115-.397.301-.72.62-1.045zm.985.047c-.266-.051-.606-.058-.943-.064l-.002.114c.34.006.669.013.924.062zm.045.007-.047-.007-.018.112.047.008zm.59.144c-.234-.087-.46-.123-.59-.144l-.018.113c.13.02.346.055.568.137zm1.489.693.024-.051h-.001l-.01-.005-.134-.062-.367-.163c-.297-.13-.675-.29-1.002-.412l-.04.106c.324.12.7.28.996.41a33 33 0 0 1 .5.225l.007.003h.002v.001zm-.47-.2q.223.13.442.25l.055-.1q-.217-.12-.44-.248zm-1.363-.65c.169.034.38.122.616.24.235.118.49.264.747.41l.056-.098c-.256-.146-.514-.294-.752-.413a2.8 2.8 0 0 0-.644-.251zm-.171-.131a.2.2 0 0 0 .066.09q.047.033.109.04l.015-.112a.1.1 0 0 1-.056-.02.1.1 0 0 1-.028-.038zm.855-.868c-.207.279-.41.552-.83.799l.057.098c.441-.26.656-.548.865-.829zm0 0 .092.068zm.42-.494c-.172.161-.297.33-.42.494l.092.068c.123-.165.243-.326.406-.48zm.099-.048-.083.037.045.104.084-.037zm0 0 .046.104zm.394-.122c-.158.017-.246.056-.394.122l.046.104a1 1 0 0 1 .36-.113zM7.915 2.53c-.76-.417-1.728-.949-3.164-1.176l-.017.113c1.415.224 2.368.747 3.126 1.163zm0 0-.055.1zm.296.161-.296-.16-.055.1q.153.084.297.16zm.426.221c-.137-.07-.279-.14-.426-.22l-.054.1q.223.12.429.222zm0 0-.05.102zm.483.254c-.157-.09-.317-.17-.483-.254l-.051.102c.166.084.324.164.478.251zm1.238.97c-.116-.16-.364-.382-.61-.572a5 5 0 0 0-.36-.256 1.4 1.4 0 0 0-.278-.146l-.036.108c.055.018.143.065.252.134.107.069.23.156.352.25.246.19.482.404.587.55zm.543 1.49c-.149-.492-.313-1.005-.538-1.48l-.103.049c.221.467.383.972.532 1.463zm.145.718.052-.024V6.32l-.004-.007-.01-.028-.044-.121a5 5 0 0 1-.138-.533l-.112.024c.054.251.105.429.142.544a2 2 0 0 0 .057.159l.004.008.001.002v.001zm-.131-.504a.2.2 0 0 0-.002.057l.007.07a4 4 0 0 0 .056.322l.013.063.001.003v.001l.056-.012.056-.012-.001-.004-.003-.014-.01-.048a8 8 0 0 1-.055-.313l-.006-.062v-.029zm.457.048a.3.3 0 0 1-.074-.005 2.161 2.161 0 0 1-.307-.086l-.04.108a2 2 0 0 0 .33.091q.056.01.104.005zm-.513-.328c.017.061.061.118.11.167.05.05.109.095.165.135a2 2 0 0 0 .218.133l.027-.05.026-.05-.001-.001-.003-.002-.013-.007a2 2 0 0 1-.189-.117 1 1 0 0 1-.15-.122.3.3 0 0 1-.08-.117zm-.248-1.019c.072.318.16.712.248 1.02l.11-.032c-.088-.304-.175-.694-.246-1.013zm.001.004.11-.033zm-.133-.551c-.005-.006-.005-.01-.001 0l.011.033q.014.045.032.121c.025.101.056.238.09.393l.111-.025-.09-.395a3 3 0 0 0-.048-.169.1.1 0 0 0-.022-.037zm-1.005-.771a6 6 0 0 1 .58.397c.197.15.361.293.422.37l.09-.071c-.072-.09-.248-.24-.443-.39a6 6 0 0 0-.592-.405zm-.23-.192a.1.1 0 0 0 .03.057q.02.02.048.04.056.04.152.095l.057-.099a2 2 0 0 1-.142-.088l-.03-.026c-.007-.007-.004-.005-.002.003zm.08-.115-.064.066.081.08.065-.066zm0 0 .082.08zm.302-.283c-.1.077-.209.188-.302.283l.082.08c.095-.097.197-.202.29-.273zm.063-.05-.063.05.07.09.064-.05zm-.002.002.075.086zm.331-.206c-.139.051-.238.131-.33.204l.072.09c.092-.074.178-.143.298-.187zm1.056 0c-.2-.08-.558-.224-1.06.001l.048.104c.457-.206.777-.077.97.001zm.12.044c.008-.007.012 0-.015-.006a1 1 0 0 1-.105-.038l-.043.106c.044.018.086.035.122.043.033.008.082.014.12-.021zm-.022-.155-.026-.007a.06.06 0 0 0-.05.015.06.06 0 0 0-.02.05q0 .017.006.026c.007.02.025.045.039.064l.063.079.005.006.001.001.044-.037.043-.037-.002-.002-.004-.005a2 2 0 0 1-.076-.098l-.005-.008-.002-.004v.002l.002.008c0 .006 0 .026-.018.04a.05.05 0 0 1-.039.013h-.005zm.174.057-.101-.029a.4.4 0 0 1-.068-.025l-.054.1a1 1 0 0 0 .088.034l.105.03zm.159.058a.1.1 0 0 0-.034-.02l-.035-.013-.09-.025-.03.11.085.024.027.01c.008.003.005.002 0-.003zm1.336 1.714a6.5 6.5 0 0 0-.724-1.073 4.7 4.7 0 0 0-.616-.644l-.07.09c.123.096.35.324.598.626a6.4 6.4 0 0 1 .711 1.054zm.097.577a.8.8 0 0 0 .007-.306 1 1 0 0 0-.104-.27l-.101.052a1 1 0 0 1 .093.24.7.7 0 0 1-.007.262zm-.13.51c.049-.153.084-.28.13-.51l-.112-.022a4 4 0 0 1-.127.498zm-.292.872v-.003a.2.2 0 0 1 .01-.044q.009-.04.027-.1a9.5 9.5 0 0 1 .252-.719l-.104-.045a10 10 0 0 0-.287.838.3.3 0 0 0-.012.074zm.107.86.052-.024V6.89l-.002-.004-.007-.015a2 2 0 0 1-.089-.259 1.4 1.4 0 0 1-.061-.549l-.113-.015c-.027.203.016.426.064.595a3 3 0 0 0 .094.272l.007.016.002.005v.001zm-.058-.124q.002.053 0 .122l.115.002-.001-.127zm.005-.175c-.008.062-.007.115-.005.175l.114-.003a1 1 0 0 1 .004-.158zm.014-.163-.014.165.113.01.015-.166zm-.007-.062a.2.2 0 0 0 .007.07l.001.008.056-.011.056-.012v-.002l-.001-.004-.005-.032v-.007zm.031-.192a2 2 0 0 0-.031.192l.113.01q.012-.099.03-.18zm0 0 .112.022zm.016-.086q-.004.033-.016.086l.112.023q.011-.052.017-.095zm.343-1.2c-.142.39-.268.735-.343 1.198l.113.018c.073-.451.195-.786.337-1.177zm.039-.106-.039.106.107.04.039-.107zm.055-.11q-.025.045-.054.107l.105.045a1 1 0 0 1 .049-.095zm.002-.003.095.063zm.045-.12c.001.035-.014.066-.047.124l.1.056c.029-.052.064-.111.06-.185zm-.147-.379c.04.075.078.145.105.21q.043.098.042.165l.114.002a.5.5 0 0 0-.05-.211c-.03-.071-.071-.146-.11-.22zm-.074-.142.074.142.1-.053-.072-.14zm-.362-.644c.15.23.265.447.362.643l.102-.05a6 6 0 0 0-.37-.655zm-1.162-1.114c.527.237.815.616 1.162 1.116l.094-.065c-.348-.5-.651-.903-1.21-1.155zm-.922-.09c.095-.017.288-.011.482.008.096.01.19.023.268.038a1 1 0 0 1 .172.044l.046-.104a1 1 0 0 0-.197-.052 4 4 0 0 0-.277-.039 2.2 2.2 0 0 0-.515-.006zm-.616.206c.161-.103.366-.153.618-.205l-.024-.112c-.249.052-.474.105-.656.221zm-.371.304c.12-.11.239-.22.37-.304l-.06-.096c-.143.091-.268.207-.387.316zm-.001 0-.075-.085zm.004-.003-.083-.078zm-.363.297c.127-.08.245-.189.36-.294l-.077-.084a2.6 2.6 0 0 1-.344.282zm-.877-.476c.11.075.371.255.82.48l.052-.103c-.443-.221-.7-.397-.807-.47zm0 0 .064-.094zm-.048-.032.048.032.065-.094-.056-.037zm-1.137-.569c.42.192.812.395 1.139.57l.054-.1c-.328-.176-.722-.38-1.146-.574zm-2.594-.726a8 8 0 0 1 2.263.545q.122.053.204.097a.6.6 0 0 1 .111.074l.078-.084a.7.7 0 0 0-.135-.09 3 3 0 0 0-.213-.101 8.133 8.133 0 0 0-2.299-.554zm-.025-.009.06-.096zm.79 10.83c.077.182.165.383.259.567.093.183.194.354.3.474l.085-.075a2.3 2.3 0 0 1-.284-.45 9 9 0 0 1-.256-.56zm3.441.967c-1.15.028-2.513-.527-3.36-1.037l-.058.097c.855.515 2.24 1.082 3.42 1.054zm.42.61a11 11 0 0 1-.37-.581l-.098.057c.118.204.259.419.372.588zm-3.217-.454c.634.31 1.676.772 3.177.543l-.017-.113c-1.467.224-2.484-.225-3.11-.532zm-.083-.08.068.07.08-.082-.067-.068zm2.668-.697c-.982-.21-1.61-.44-2.06-.676s-.724-.48-.996-.723l-.075.085c.272.244.554.496 1.017.739s1.102.476 2.09.687zm-.06.024-.002.005.1.054.003-.006zm.113-.64a1.9 1.9 0 0 0-.12.668l.115-.002c-.004-.215.049-.474.11-.622zm.004-.01-.004.01.105.044.005-.011zM4.936 9.294c.151.41.58.985 1.203 1.485.625.502 1.45.933 2.396 1.046l.014-.114c-.921-.11-1.726-.53-2.338-1.02-.613-.493-1.027-1.053-1.168-1.437zm.068 1.384a4.2 4.2 0 0 1 .041-1.392l-.111-.024a4.4 4.4 0 0 0-.043 1.43zm.372.296c-.125-.112-.251-.224-.393-.334l-.07.09a7 7 0 0 1 .388.33zm3.342.511a5 5 0 0 1 .094-.216l-.103-.05q-.044.094-.096.223zm-1.828-1.08c.544.392 1.09.784 1.75 1.11l.05-.102c-.65-.321-1.188-.708-1.734-1.1zm-.013-.01.013.01.066-.092-.013-.01zm-1.28-2.449c.155 1.007.379 1.792 1.28 2.45l.066-.093c-.863-.63-1.08-1.377-1.234-2.374zm.105-.125a.3.3 0 0 0-.093.08l.088.072a.2.2 0 0 1 .048-.046zm.936-.4q-.51.112-.946.406l.064.094a2.6 2.6 0 0 1 .907-.389zm1.538 3.2c-.592-.995-1.183-2.082-1.47-3.159l-.11.03c.291 1.093.89 2.191 1.482 3.188zm.09.116-.095-.121-.089.07.093.12zm0 0-.091.069zm0 0-.092.069zm.52.456a1.3 1.3 0 0 1-.307-.204 2 2 0 0 1-.214-.252l-.09.07c.079.103.144.188.227.265s.183.147.332.223zm.462 2.78c-.511.233-1.053.237-1.593.24v.114c.537-.003 1.103-.005 1.64-.251zm.208.223A1 1 0 0 1 9.323 14l-.102.05c.046.097.114.18.146.22zm.027.037c-.004-.008-.011-.017-.013-.02l-.014-.017-.089.072.013.016.002.003-.002-.005zm-.924.543c.117.02.465.068.724.028a.7.7 0 0 0 .18-.052.27.27 0 0 0 .127-.116c.056-.109.013-.248-.114-.413l-.09.07c.123.16.126.246.103.291a.16.16 0 0 1-.075.065.5.5 0 0 1-.148.042c-.24.038-.572-.008-.688-.028zm-1.223-.454c.39.221.801.386 1.224.454l.017-.113a3.6 3.6 0 0 1-1.185-.44zm.32-.11-.293.004.002.114q.144-.003.29-.003zm2.967-3.584c.193.288.484.565.825.832l.07-.09c-.337-.263-.617-.532-.8-.806zm-.274.683c.15-.194.323-.414.377-.705l-.112-.02c-.048.259-.202.457-.355.655zm-.09.117q.043-.058.09-.117l-.09-.07-.091.118zm.11.297a.7.7 0 0 1-.121-.228.1.1 0 0 1 0-.043.1.1 0 0 1 .013-.03l-.096-.061a.2.2 0 0 0-.028.063.2.2 0 0 0-.001.092.8.8 0 0 0 .14.273zm.273.044a1 1 0 0 1-.174-.008.3.3 0 0 1-.07-.018q-.026-.012-.029-.019l-.092.067c.02.028.05.046.078.057q.045.017.095.026c.066.01.14.012.198.009zm-.137.029q.058.038.105.073l.07-.09q-.054-.04-.112-.078zm-.227-.208a.3.3 0 0 0 .093.113c.04.032.088.064.134.095l.063-.095a2 2 0 0 1-.125-.089q-.054-.045-.058-.062zm.596.077c-.15.02-.321-.014-.51-.143l-.064.094c.209.143.407.186.59.162zm.08-.079a.3.3 0 0 1-.048.061c-.017.015-.028.018-.03.018l.012.114a.18.18 0 0 0 .093-.046.4.4 0 0 0 .072-.089zm.2-.253c-.028.02-.06.044-.095.084a.7.7 0 0 0-.107.174l.103.048a.6.6 0 0 1 .09-.147.4.4 0 0 1 .077-.067zm.007-.005-.006.005.067.092.006-.005zm.214.18-.136-.17-.089.072.136.17zm.071-.138-.153.13.074.087.153-.13zm.512-7.46a.4.4 0 0 0-.036-.097 2 2 0 0 0-.07-.133 6 6 0 0 0-.42-.646 1 1 0 0 0-.09-.105.3.3 0 0 0-.04-.034.1.1 0 0 0-.05-.021l-.011.113c-.01 0-.012-.005-.005 0l.025.023q.034.033.08.094a5.941 5.941 0 0 1 .411.631q.042.074.067.127a.4.4 0 0 1 .027.068zm.081.408a6 6 0 0 1-.08-.407l-.114.017c.02.134.051.275.083.415zm0 0-.111.026zm.102.565c-.017-.187-.06-.38-.102-.565l-.111.025c.042.187.083.373.1.55zm-.412-.895c.118.305.213.61.3.916l.11-.032a10 10 0 0 0-.304-.925zm-.357-.528c.24.265.325.45.357.53l.106-.044c-.038-.09-.129-.287-.38-.562zm-.178-.499c.028.146.056.3.17.49l.099-.058a1.2 1.2 0 0 1-.157-.453zm-.004-.02.004.02.112-.02-.004-.021zm.017.031.078-.084zm-1.23 3.116a.7.7 0 0 1-.131-.15 4 4 0 0 1-.143-.227l-.097.059q.074.125.146.232c.048.07.099.132.154.175zm-.268-.395c.059.162.116.322.18.463l.104-.047a6 6 0 0 1-.176-.455zm-.596-1.1c.294.26.45.688.596 1.1l.108-.039c-.145-.403-.308-.863-.628-1.147zm-1.496-.133c.564.008 1.115.015 1.517.144l.035-.109c-.422-.135-.993-.141-1.55-.149zm-.502-.01q.249.008.502.01l.002-.114q-.254-.002-.5-.01zm.765.018a7 7 0 0 1-.749-.13l-.028.11c.228.06.496.096.762.133zm0 0-.016.113zm1.232.311a1.8 1.8 0 0 0-.555-.2c-.212-.046-.447-.079-.677-.11l-.015.112c.23.032.46.064.667.11.208.045.388.103.52.185zm-.044.153a.2.2 0 0 0 .051-.038.09.09 0 0 0 .018-.082l-.11.03v-.01l.004-.01H9.03l-.011.007zm-.102-.006.07.01.015-.112-.066-.01zm-.242-.008a.6.6 0 0 1 .242.008l.019-.113c-.085-.014-.183-.03-.287-.006zm-.314.15c.108-.06.21-.116.319-.152l-.035-.108c-.122.04-.233.101-.34.16zm-.002 0-.05-.101zm.002 0-.055-.1zm0 0-.055-.1zm-.153.082q.078-.04.153-.082l-.055-.1q-.075.042-.15.08zm.612-.104a1.4 1.4 0 0 0-.649-.003l.023.112c.29-.06.434-.03.604.003zm.264.04a2 2 0 0 1-.264-.04l-.022.112c.08.015.168.032.277.042zm.57.625c-.073-.121-.152-.253-.24-.365a.8.8 0 0 0-.314-.256l-.04.106c.093.036.18.115.264.22.083.106.159.231.233.354zm1.114 1.645c.22-.048.448-.045.673-.017l.014-.113a2.1 2.1 0 0 0-.712.02zm-.067.222a.6.6 0 0 1 .1-.243l-.091-.068c-.073.098-.098.198-.12.283zm-.032.112q.019-.057.032-.112l-.11-.028q-.014.054-.03.103zm.77-.464c-.219.031-.366.053-.492.107-.13.056-.233.145-.374.3l.084.076c.138-.15.228-.225.335-.271.11-.047.24-.067.464-.1zm-.048.056h.114zm-.43 1.131a.06.06 0 0 0-.005-.041.1.1 0 0 0-.022-.023.1.1 0 0 0-.029-.011.3.3 0 0 0-.046-.004 3.825 3.825 0 0 0-.274.027h-.003l-.001.001.008.056.008.057h.003a2 2 0 0 1 .155-.02 1 1 0 0 1 .128-.006q.002.001-.01-.005a.053.053 0 0 1-.022-.055zm.03.3.006.008v.002-.004l-.009-.028-.018-.09a.6.6 0 0 1-.008-.188l-.112-.023a.7.7 0 0 0 .008.228 1 1 0 0 0 .036.152.1.1 0 0 0 .014.021zm-.184.23.178-.147-.072-.088-.178.146zm.875-.271c-.31.01-.63.02-.937.175l.051.102c.282-.142.576-.153.89-.164zm.273-.013q-.135.009-.273.012l.004.114q.137-.004.277-.013zm-.325-.098a.06.06 0 0 0-.042.028.057.057 0 0 0 .02.079q.01.006.017.008l.037.013a5 5 0 0 0 .267.077l.011.003.003.001h.001l.015-.054.015-.055-.003-.001-.011-.003-.039-.011-.255-.076.002.001.009.007c.001.002.014.013.016.033a.056.056 0 0 1-.047.063zm-.055-.253a.05.05 0 0 1-.024-.016l.002.003.013.035c.011.031.023.073.031.115a.5.5 0 0 1 .01.13v.002s.006-.013.023-.015l.016.112a.08.08 0 0 0 .065-.052.2.2 0 0 0 .012-.062.6.6 0 0 0-.014-.137 1 1 0 0 0-.054-.178l-.012-.02-.01-.012a.1.1 0 0 0-.026-.015zm.197-.165a3 3 0 0 0-.2.056l.037.108q.093-.03.19-.054zm-1.152.323c.21-.135.38-.218.554-.253.174-.034.358-.023.597.04l.03-.11c-.251-.066-.453-.08-.65-.041-.195.039-.379.13-.593.269zm-.057-.098.051.101zm.354.337-.004.003.072.088.003-.002zm-.01.086a.058.058 0 0 0 .097-.018l.005-.013-.113-.02.003-.01a.056.056 0 0 1 .091-.017zm3.62.185-.08-.08zm-.462.254c.146-.045.242-.087.312-.13s.112-.085.15-.124l-.08-.08a.6.6 0 0 1-.13.107 1.2 1.2 0 0 1-.285.118zm-.618-.21a.7.7 0 0 0 .246.191.58.58 0 0 0 .369.02l-.026-.111a.47.47 0 0 1-.299-.014.6.6 0 0 1-.204-.161zm.189-.039c-.037-.018-.078-.039-.13-.053l-.032.11c.041.01.074.027.111.045zm.59-.015c-.198.063-.319.078-.402.073a.44.44 0 0 1-.188-.058l-.051.102c.06.03.127.064.232.07.103.006.24-.014.443-.078zm.314-.154-.322.157.05.103.322-.157zm-.013.164a1 1 0 0 1 .074-.068l-.071-.089q-.05.04-.083.077zm-3.58 1.415-.044-.01-.065-.01a6 6 0 0 0-.388-.046h-.021l-.017.004-.019.01a.06.06 0 0 0-.02.045h.113a.06.06 0 0 1-.02.043q-.013.009-.017.01l-.01.002h.008l.048.003a4 4 0 0 1 .415.057zm-.65.353c.135-.133.192-.188.263-.215s.16-.028.368-.027l.001-.114c-.198 0-.314-.002-.41.035-.098.037-.174.113-.302.24zm-.023.022.023-.022-.08-.081-.023.022zm.122-.429a.54.54 0 0 0-.181.2.4.4 0 0 0-.037.19l.114-.004a.3.3 0 0 1 .025-.136.4.4 0 0 1 .145-.157zm.547.053-.028.11zm-.02-.001.013.113zm.006.113v-.114z" fill="#6C707E"></path>
</svg>
