<svg width="20" height="20" viewBox="0 0 20 20" fill="none"><path fill-rule="evenodd" clip-rule="evenodd" d="M4 3.5h3.25a.5.5 0 0 1 .5.5v3.25a.5.5 0 0 1-.5.5H4a.5.5 0 0 1-.5-.5V4a.5.5 0 0 1 .5-.5M2 4a2 2 0 0 1 2-2h3.25a2 2 0 0 1 2 2v3.25a2 2 0 0 1-2 2H4a2 2 0 0 1-2-2zm5.25 8.25H4a.5.5 0 0 0-.5.5V16a.5.5 0 0 0 .5.5h3.25a.5.5 0 0 0 .5-.5v-3.25a.5.5 0 0 0-.5-.5M4 10.75a2 2 0 0 0-2 2V16a2 2 0 0 0 2 2h3.25a2 2 0 0 0 2-2v-3.25a2 2 0 0 0-2-2zm12 1.5h-3.25a.5.5 0 0 0-.5.5V16a.5.5 0 0 0 .5.5H16a.5.5 0 0 0 .5-.5v-3.25a.5.5 0 0 0-.5-.5m-3.25-1.5a2 2 0 0 0-2 2V16a2 2 0 0 0 2 2H16a2 2 0 0 0 2-2v-3.25a2 2 0 0 0-2-2z" fill="#6C707E"/></svg>