<svg viewBox="0 0 16 16" fill="none" xmlns="http://www.w3.org/2000/svg">
  <path d="M15 8a7 7 0 1 0-7 7v-5a2 2 0 0 1 2-2z" fill="#F2FCF3"></path><path d="M10 4.5v1H8.5v6H6v-1h1.5v-5H6v-1z" fill="#208A3C"></path><path d="M10 10h4.645l-1.97 1.97a.75.75 0 0 0 0 1.06l1.97 1.97H10z" fill="#FAF5FF"></path><path fill-rule="evenodd" clip-rule="evenodd" d="M9 10a1 1 0 0 1 1-1h5.248a.75.75 0 0 1 .53 1.28l-2.22 2.22 2.22 2.22a.75.75 0 0 1-.53 1.28H10a1 1 0 0 1-1-1zm5.645 0H10v5h4.645l-1.97-1.97a.75.75 0 0 1 0-1.06z" fill="#834DF0"></path><path d="M8 14a6 6 0 1 1 6-6h1a7 7 0 1 0-7 7z" fill="#208A3C"></path>
</svg>
