<svg viewBox="0 0 16 16" fill="none" xmlns="http://www.w3.org/2000/svg">
  <path fill-rule="evenodd" clip-rule="evenodd" d="M6.5 4C9.538 4 12 5.343 12 7v4c0 1.657-2.462 3-5.5 3S1 12.657 1 11V7c0-1.657 2.462-3 5.5-3M11 7c0 .29-.23.774-1.09 1.243C9.088 8.692 7.884 9 6.5 9s-2.588-.308-3.41-.757C2.23 7.774 2 7.291 2 7c0-.29.23-.774 1.09-1.243C3.912 5.308 5.116 5 6.5 5s2.588.308 3.41.757C10.77 6.226 11 6.709 11 7m0 1.725C10.005 9.496 8.36 10 6.5 10S2.995 9.496 2 8.725V11c0 .29.23.774 1.09 1.243.822.449 2.026.757 3.41.757s2.588-.308 3.41-.757C10.77 11.774 11 11.291 11 11z" fill="#6C707E"></path><path d="M9.91 8.243C10.77 7.774 11 7.291 11 7c0-.29-.23-.774-1.09-1.243C9.088 5.308 7.884 5 6.5 5s-2.588.308-3.41.757C2.23 6.226 2 6.709 2 7c0 .29.23.774 1.09 1.243C3.912 8.692 5.116 9 6.5 9s2.588-.308 3.41-.757" fill="#EBECF0"></path><path d="M6.5 10c1.86 0 3.505-.504 4.5-1.275V11c0 .29-.23.774-1.09 1.243-.822.449-2.026.757-3.41.757s-2.588-.308-3.41-.757C2.23 11.774 2 11.291 2 11V8.725C2.995 9.496 4.64 10 6.5 10" fill="#EBECF0"></path><path d="M15 5c0-1.657-2.462-3-5.5-3-1.685 0-3.194.414-4.203 1.065a11 11 0 0 1 2.78.048A9 9 0 0 1 9.501 3c1.384 0 2.588.308 3.41.757C13.77 4.226 14 4.709 14 5c0 .28-.214.74-1 1.193v1.121q.572-.257 1-.589V9c0 .28-.214.74-1 1.193V11q0 .165-.02.323c1.233-.55 2.02-1.387 2.02-2.323z" fill="#6C707E"></path><path d="M13 10.193V7.314c.379-.17.716-.369 1-.589V9c0 .28-.214.74-1 1.193M10.867 4c.914.5 1.743 1.258 2.028 2.252l.015-.009C13.77 5.774 14 5.291 14 5c0-.29-.23-.774-1.09-1.243C12.088 3.308 10.884 3 9.5 3c-.502 0-.98.04-1.424.113 1.047.154 2.005.459 2.791.888" fill="#EBECF0"></path>
</svg>
