<svg width="16" height="16" viewBox="0 0 16 16" fill="none"><path d="M8.934 2.49h1.989q.034.001.06.026l.926.99.146.154H14a.51.51 0 0 1 .51.51v2.737c0 .408-.268.603-.444.603H8.934c-.176 0-.444-.195-.444-.603V3.093c0-.408.268-.603.444-.603ZM8.934 10.49h1.989q.034.001.06.026l.926.99.146.154H14a.51.51 0 0 1 .51.51v2.737c0 .409-.268.603-.444.603H8.934c-.176 0-.444-.194-.444-.603v-3.814c0-.409.268-.603.444-.603Z" stroke="#CED0D6" stroke-width=".98"/><path d="M1.5 1.5v3m0 0h5m-5 0V12a.5.5 0 0 0 .5.5h4.5" stroke="#CED0D6" stroke-linecap="round"/></svg>