<svg width="16" height="16" viewBox="0 0 16 16" fill="none"><path d="M11.562 10.148a.5.5 0 1 1-.707-.708l.677-.677a2.615 2.615 0 0 1 3.699.006 2.615 2.615 0 0 1 .006 3.699l-.677.677a.5.5 0 1 1-.708-.707l.678-.677a1.615 1.615 0 0 0-.006-2.285 1.615 1.615 0 0 0-2.285-.006zM10.148 10.855a.5.5 0 0 1 0 .707l-.678.677a1.615 1.615 0 0 0 .006 2.285 1.615 1.615 0 0 0 2.285.006l.677-.678a.5.5 0 0 1 .707.707l-.677.678a2.615 2.615 0 0 1-3.699-.006 2.615 2.615 0 0 1-.006-3.699l.677-.677a.5.5 0 0 1 .708 0" fill="#548AF7"/><path d="M13.854 10.854a.5.5 0 0 0-.708-.708l-3 3a.5.5 0 0 0 .708.708z" fill="#548AF7"/><path fill-rule="evenodd" clip-rule="evenodd" d="M3 2a2 2 0 0 0-2 2v8a2 2 0 0 0 2 2h4.054a3.6 3.6 0 0 1-.035-1H6V6h4v2.905q.066-.09.148-.172l.677-.677A4 4 0 0 1 11 7.892V6h3v1.054c.344.06.681.17 1 .33V4a2 2 0 0 0-2-2zm7 1H6v2h4zM3 3h2v2H2V4a1 1 0 0 1 1-1m-1 9V6h3v7H3a1 1 0 0 1-1-1m12-8v1h-3V3h2a1 1 0 0 1 1 1" fill="#CED0D6"/></svg>