<svg viewBox="0 0 16 16" fill="none" xmlns="http://www.w3.org/2000/svg">
  <path fill-rule="evenodd" clip-rule="evenodd" d="M15.565 10.38a1.254 1.254 0 0 0-1.763-.03.12.12 0 0 0-.038.09.13.13 0 0 0 .038.09l.153.16a.12.12 0 0 0 .158.01.717.717 0 0 1 1.003.094.75.75 0 0 1-.05 1.027c-.418.426-.895.179-1.528-.15-.891-.463-2.091-1.087-3.875-.219a.41.41 0 0 0-.217.257.43.43 0 0 0 .039.337l.524.923a.4.4 0 0 0 .146.15.4.4 0 0 0 .205.056h.001a.4.4 0 0 0 .196-.052l.004-.002c.35-.193.67-.42.963-.69a.25.25 0 0 1 .339.368 5.4 5.4 0 0 1-1.059.759.902.902 0 0 1-1.236-.346l-.473-.832c-.824.722-1.3 1.97-1.009 3.52q.009.042.041.071a.12.12 0 0 0 .077.029h.559q.047 0 .083-.031a.12.12 0 0 0 .04-.082.85.85 0 0 1 .275-.523.816.816 0 0 1 1.089 0c.15.135.248.32.274.523q.007.047.04.077.034.03.08.031h.545a.12.12 0 0 0 .08-.03.13.13 0 0 0 .04-.078.85.85 0 0 1 .274-.523.817.817 0 0 1 1.089 0c.15.135.248.32.274.523q.007.046.04.077.034.03.08.031h.542a.12.12 0 0 0 .085-.035.12.12 0 0 0 .036-.086c.012-.78.219-1.677.806-2.127 2.037-1.554 1.501-2.887 1.03-3.368m-2.937 2.392.864.442a.55.55 0 0 0 .218-.49.56.56 0 0 0-.296-.446.533.533 0 0 0-.717.224.56.56 0 0 0-.07.27" fill="#4682FA"></path><path d="M1 3.867C1 2.836 1.731 2 2.633 2h3.489a1 1 0 0 1 .721.308L8.467 4H13a2 2 0 0 1 2 2v3h-.303a2.25 2.25 0 0 0-1.585.625l-.005.005-.002.001a1.13 1.13 0 0 0-.324.613 5 5 0 0 0-.682-.168c-.844-.14-1.8-.045-2.874.477l-.002.001a1.42 1.42 0 0 0-.779 1.067l-.007.007c-.67.588-1.144 1.408-1.338 2.372H2.633C1.731 14 1 13.164 1 12.133z" fill="#EBECF0"></path><path d="M6.122 3H2.633C2.405 3 2 3.258 2 3.867v8.266c0 .609.405.867.633.867h4.789a4.6 4.6 0 0 0-.323 1H2.633C1.731 14 1 13.164 1 12.133V3.867C1 2.836 1.731 2 2.633 2h3.489a1 1 0 0 1 .721.308L8.467 4H13a2 2 0 0 1 2 2v3h-.303a2.2 2.2 0 0 0-.697.102V6a1 1 0 0 0-1-1H8.04z" fill="#6C707E"></path>
</svg>
