<svg viewBox="0 0 16 16" fill="none" xmlns="http://www.w3.org/2000/svg">
  <path fill-rule="evenodd" clip-rule="evenodd" d="M11.477 3.019c-1.394-.006-2.94.43-3.772.943-.311.192-.63.407-.95.634 0 0-2.888 2.224-3.786 3.343q-.181.226-.325.482l-.02.037-.026.05-.006.012a3.4 3.4 0 0 0-.303.92v.009l-.005.033c-.049.368-.029.76.122 1.092.183.405.487.707.928.954.426.24 1.205.443 1.205.443l-.013.006c.649.115 1.321.076 1.977.012q.483-.045.966-.107h.013c-.022-.108-.056-.315-.014-.326.441-.117.704-.188 1.047-.307.329-.115.57-.219.836-.366.066-.036.119-.098.189-.128.22-.094.466-.117.703-.153q.285-.045.572-.052c.125-.002.25-.005.373.019a.8.8 0 0 1 .27.093.44.44 0 0 1 .14.13q.027.061.05.125c.696-.261 1.404-.576 1.942-1.087.796-.755 1.428-1.743 1.741-2.794.17-.572.2-1.214.038-1.788-.1-.354-.253-.583-.597-.93-.702-.713-1.725-1.153-2.718-1.267a5 5 0 0 0-.577-.032M6.755 4.596q-.215.152-.428.31zm3.006.672c.452-.001.702.068.702.068s-.743.07-1.156.143c-.327.058-.853.16-1.263.298-.8.271-1.56.65-2.31 1.035-.578.296-1.13.638-1.683.978-.377.233-1.114.726-1.114.726s.628-.811 2.298-1.749c.477-.268.964-.52 1.464-.743.39-.175.787-.341 1.196-.466a7.3 7.3 0 0 1 1.66-.284 5 5 0 0 1 .206-.006m-5.728.774c-.148.001-.275.175-.353.306-.1.167-.144.455-.165.685.32-.274.64-.529.862-.701-.085-.144-.193-.269-.314-.287zm6.456.733s-1.394.53-2.087.806q-1.198.476-2.383.983-.828.354-1.647.731c-.503.23-1.498.71-1.498.71s.848-.695 2.42-1.383c.919-.4 1.537-.752 2.525-1.075.462-.15.917-.32 1.383-.454.425-.122 1.287-.318 1.287-.318m.484 1.415s-.196.233-.632.522c-.219.145-.41.296-.625.429a10 10 0 0 1-.856.475c-.364.177-.742.326-1.118.474-.369.146-.74.288-1.118.41-.466.15-.936.287-1.415.391-.347.076-1.052.167-1.052.167s.87-.294 1.303-.447a56.066 56.066 0 0 0 2.635-.985c.344-.139.69-.273 1.025-.43.257-.12.506-.256.755-.39.37-.2 1.098-.616 1.098-.616m1.013.914s-.011.145-.379.52a3.6 3.6 0 0 1-.576.451c-.645.398-.989.5-.989.5s.637-.417.945-.64q.273-.196.532-.412c.161-.133.467-.419.467-.419m-9.893 1.377c-.216.098-.477.218-.648.31-.318.17-.942.467-.921.563.031.148.738-.137 1.106-.21q.35-.07.7-.146a3 3 0 0 1-.237-.517m8.637.236c-.094 0-.194.006-.316.02-.373.041-.473.075-.772.172-.106.034-.169.09-.252.136-.15.082-.291.181-.447.25-.225.1-.463.165-.698.236-.194.059-.221.07-.587.158-.064.015-.004.119.053.198.868.018 3.493.06 3.528-.087l.194-.804.052-.018a.3.3 0 0 0-.028-.074.34.34 0 0 0-.135-.13c-.094-.047-.206-.04-.31-.046a4 4 0 0 0-.282-.01m.475.217c.104.002.188.018.188.07-.002.11-.24.105-.35.116-.705.07-.953.057-1.43.06-.091 0-.274-.01-.274-.01s.458-.109.866-.158c.236-.028.467-.058.694-.065.078-.003.202-.015.306-.013m-.54.442q.127-.002.253.013c.066.01.14.013.192.055.023.02.05.06.04.08-.018.04-.09.042-.24.052-.181.012-.358.027-.537.032-.444.013-1.333-.002-1.333-.002s.277-.074.418-.1q.473-.085.952-.117.127-.009.254-.013" fill="#548AF7"></path><path fill-rule="evenodd" clip-rule="evenodd" d="M11.477 3.019c-1.394-.006-2.94.43-3.772.943-.311.192-.63.407-.95.634 0 0-2.888 2.224-3.786 3.343q-.181.226-.325.482l-.02.037-.026.05-.006.012a3.4 3.4 0 0 0-.303.92v.009l-.005.033c-.049.368-.029.76.122 1.092.183.405.487.707.928.954.426.24 1.205.443 1.205.443l-.013.006c.649.115 1.321.076 1.977.012q.483-.045.966-.107h.013c-.022-.108-.056-.315-.014-.326.441-.117.704-.188 1.047-.307.329-.115.57-.219.836-.366.066-.036.119-.098.189-.128.22-.094.466-.117.703-.153q.285-.045.572-.052c.125-.002.25-.005.373.019a.8.8 0 0 1 .27.093.44.44 0 0 1 .14.13q.027.061.05.125c.696-.261 1.404-.576 1.942-1.087.796-.755 1.428-1.743 1.741-2.794.17-.572.2-1.214.038-1.788-.1-.354-.253-.583-.597-.93-.702-.713-1.725-1.153-2.718-1.267a5 5 0 0 0-.577-.032M6.755 4.596q-.215.152-.428.31zm3.006.672c.452-.001.702.068.702.068s-.743.07-1.156.143c-.327.058-.853.16-1.263.298-.8.271-1.56.65-2.31 1.035-.578.296-1.13.638-1.683.978-.377.233-1.114.726-1.114.726s.628-.811 2.298-1.749c.477-.268.964-.52 1.464-.743.39-.175.787-.341 1.196-.466a7.3 7.3 0 0 1 1.66-.284 5 5 0 0 1 .206-.006m-5.728.774c-.148.001-.275.175-.353.306-.1.167-.144.455-.165.685.32-.274.64-.529.862-.701-.085-.144-.193-.269-.314-.287zm6.456.733s-1.394.53-2.087.806q-1.198.476-2.383.983-.828.354-1.647.731c-.503.23-1.498.71-1.498.71s.848-.695 2.42-1.383c.919-.4 1.537-.752 2.525-1.075.462-.15.917-.32 1.383-.454.425-.122 1.287-.318 1.287-.318m.484 1.415s-.196.233-.632.522c-.219.145-.41.296-.625.429a10 10 0 0 1-.856.475c-.364.177-.742.326-1.118.474-.369.146-.74.288-1.118.41-.466.15-.936.287-1.415.391-.347.076-1.052.167-1.052.167s.87-.294 1.303-.447a56.066 56.066 0 0 0 2.635-.985c.344-.139.69-.273 1.025-.43.257-.12.506-.256.755-.39.37-.2 1.098-.616 1.098-.616m1.013.914s-.011.145-.379.52a3.6 3.6 0 0 1-.576.451c-.645.398-.989.5-.989.5s.637-.417.945-.64q.273-.196.532-.412c.161-.133.467-.419.467-.419m-9.893 1.377c-.216.098-.477.218-.648.31-.318.17-.942.467-.921.563.031.148.738-.137 1.106-.21q.35-.07.7-.146a3 3 0 0 1-.237-.517m8.637.236c-.094 0-.194.006-.316.02-.373.041-.473.075-.772.172-.106.034-.169.09-.252.136-.15.082-.291.181-.447.25-.225.1-.463.165-.698.236-.194.059-.221.07-.587.158-.064.015-.004.119.053.198.868.018 3.493.06 3.528-.087l.194-.804.052-.018a.3.3 0 0 0-.028-.074.34.34 0 0 0-.135-.13c-.094-.047-.206-.04-.31-.046a4 4 0 0 0-.282-.01m.475.217c.104.002.188.018.188.07-.002.11-.24.105-.35.116-.705.07-.953.057-1.43.06-.091 0-.274-.01-.274-.01s.458-.109.866-.158c.236-.028.467-.058.694-.065.078-.003.202-.015.306-.013m-.54.442q.127-.002.253.013c.066.01.14.013.192.055.023.02.05.06.04.08-.018.04-.09.042-.24.052-.181.012-.358.027-.537.032-.444.013-1.333-.002-1.333-.002s.277-.074.418-.1q.473-.085.952-.117.127-.009.254-.013" fill="#548AF7"></path>
</svg>
