<svg viewBox="0 0 16 16" fill="none" xmlns="http://www.w3.org/2000/svg">
  <path fill-rule="evenodd" clip-rule="evenodd" d="M10.854 10.146a.5.5 0 0 1 0 .708L8.707 13l2.147 2.146a.5.5 0 0 1-.708.708l-2.5-2.5a.5.5 0 0 1 0-.708l2.5-2.5a.5.5 0 0 1 .708 0m1.292 0a.5.5 0 0 1 .708 0l2.5 2.5a.5.5 0 0 1 0 .708l-2.5 2.5a.5.5 0 0 1-.708-.708L14.293 13l-2.147-2.146a.5.5 0 0 1 0-.708" fill="#CED0D6"></path><path d="M14.765 10.643c.722-2.392-.264-5.02-2.344-7.1C9.556.678 5.603-.034 2.77 2.8s-2.02 6.936.72 9.675c1.23 1.23 2.726 2.088 4.262 2.398l-.812-.812a1.5 1.5 0 0 1 0-2.122l2.5-2.5C9.732 9.146 10.116 9 10.5 9h2c.384 0 .768.147 1.06.44z" fill="#45322B"></path><path d="M14.765 10.643c.722-2.392-.264-5.02-2.344-7.1C9.556.678 5.603-.034 2.77 2.8s-2.02 6.936.72 9.675c1.23 1.23 2.726 2.088 4.262 2.398l-.812-.812a1.5 1.5 0 0 1-.375-.625 8.2 8.2 0 0 1-2.366-1.67c-1.236-1.234-2-2.742-2.163-4.204-.144-1.29.174-2.574 1.104-3.684l5.93 5.931.37-.37q.18-.178.395-.283L3.846 3.169c1.115-.943 2.372-1.273 3.63-1.138 1.429.153 2.93.915 4.237 2.22 1.312 1.313 2.09 2.807 2.253 4.228.05.445.042.891-.033 1.333z" fill="#C77D55"></path>
</svg>
