<svg viewBox="0 0 16 16" fill="none" xmlns="http://www.w3.org/2000/svg">
  <path d="M10.5 16a.5.5 0 0 0 0-1 .5.5 0 0 1-.5-.5v-1.64a1 1 0 0 0-.49-.86 1 1 0 0 0 .49-.86V9.5a.5.5 0 0 1 .5-.5.5.5 0 0 0 0-1A1.5 1.5 0 0 0 9 9.5v1.64l-1.158.386a.5.5 0 0 0 0 .948L9 12.86v1.64a1.5 1.5 0 0 0 1.5 1.5M12.5 8a.5.5 0 0 0 0 1 .5.5 0 0 1 .5.5v1.64a1 1 0 0 0 .49.86 1 1 0 0 0-.49.86v1.64a.5.5 0 0 1-.5.5.5.5 0 0 0 0 1 1.5 1.5 0 0 0 1.5-1.5v-1.64l1.158-.386a.5.5 0 0 0 0-.948L14 11.14V9.5A1.5 1.5 0 0 0 12.5 8" fill="#6C707E"></path><path d="M7.596 1.304a.9.9 0 0 1 .36-.096h-.004a.94.94 0 0 1 .452.096l4.868 2.32c.254.121.44.352.503.627l.813 3.532A2 2 0 0 0 13 7h-3a2 2 0 0 0-2 2v1.419l-.474.158a1.5 1.5 0 0 0 0 2.846l.474.158v1.212H5.303a.93.93 0 0 1-.727-.343L1.207 10.26l-.052-.073a.9.9 0 0 1-.131-.712l1.193-5.22a.92.92 0 0 1 .503-.627zM15 9.756a1 1 0 0 0 0-.134z" fill="#3574F0"></path><path fill-rule="evenodd" clip-rule="evenodd" d="M8.02 2.94c.19.02.331.183.322.374v.091a3 3 0 0 1-.041.281q-.042.255-.033.514a.18.18 0 0 0 .074.11l.02.014.002.025.001.023.004.063a3.87 3.87 0 0 1 2.379 1.148l.092-.066.02.004a.3.3 0 0 0 .144-.014 2.7 2.7 0 0 0 .37-.349q.09-.109.194-.207l.003-.003.063-.05a.343.343 0 1 1 .425.534l-.065.053q-.12.078-.246.143-.224.128-.421.296a.18.18 0 0 0-.04.126l.002.024-.09.083q.26.399.414.843h-.919a3 3 0 0 0-.136-.26l-.29.26H10c-.712 0-1.338.373-1.692.934l-.097-.122h-.42l-.262.326.089.408.378.182.024-.012Q8 8.856 8 9v.68h-.003a.21.21 0 0 0-.177.104l-.484.871a1.5 1.5 0 0 0-.836 1.357.8.8 0 0 0-.103.21l-.037.103q-.03.091-.065.18-.035.136-.084.27l-.002.003-.036.073a.343.343 0 0 1-.606.064.34.34 0 0 1-.01-.356l.038-.081a3 3 0 0 1 .16-.237q.15-.219.255-.462a.24.24 0 0 0-.023-.13l-.01-.021.044-.092a3.84 3.84 0 0 1-1.65-2.065l-.109.018-.016-.012a.27.27 0 0 0-.135-.049 2.7 2.7 0 0 0-.493.145q-.13.056-.266.097l-.009.002-.083.009a.343.343 0 0 1-.431-.252.343.343 0 0 1 .287-.415l.007-.001h.003l.077-.017q.141-.02.284-.022.257-.018.504-.083a.35.35 0 0 0 .104-.106l.01-.016.099-.029a3.82 3.82 0 0 1 .584-2.583l-.079-.073v-.02a.3.3 0 0 0-.047-.137 2.5 2.5 0 0 0-.422-.296 3 3 0 0 1-.246-.144l-.004-.002-.059-.047a.36.36 0 0 1-.082-.5l.002-.002a.33.33 0 0 1 .273-.122.4.4 0 0 1 .232.088l.068.054q.103.098.194.207.174.191.382.345c.04.02.087.025.131.012l.024-.007.09.063a3.8 3.8 0 0 1 2.39-1.148l.005-.101.015-.014a.27.27 0 0 0 .08-.122 2.7 2.7 0 0 0-.03-.512 3 3 0 0 1-.04-.282v-.084a.36.36 0 0 1 .333-.376h.015zM5.96 6.078l1.203.853a.2.2 0 0 0 .21.02.21.21 0 0 0 .12-.178l.002-.048h.007l.081-1.421q-.124.016-.246.042c-.517.116-.993.37-1.378.732m2.46-.773.083 1.468a.207.207 0 0 0 .336.16l.002-.002 1.193-.848a3 3 0 0 0-1.615-.778M6.42 8.097v-.005l.037-.01a.207.207 0 0 0 .082-.356l-.018-.015v-.007l-1.084-.967a2.95 2.95 0 0 0-.394 1.756zm.482 1.266v-.006l.004-.01a.206.206 0 0 0-.16-.285l-.004.004-.03-.003h-.039l-1.442.245a2.96 2.96 0 0 0 1.116 1.398z" fill="#fff"></path>
</svg>
