<svg viewBox="0 0 16 16" fill="none" xmlns="http://www.w3.org/2000/svg">
  <path d="M11.999 13a1 1 0 1 0 0-2 1 1 0 0 0 0 2" fill="#6C707E"></path><path fill-rule="evenodd" clip-rule="evenodd" d="M13.12 15.676a.5.5 0 0 1-.468.324h-1.307a.5.5 0 0 1-.468-.324l-.25-.666a.5.5 0 0 0-.55-.317l-.7.116a.5.5 0 0 1-.516-.243l-.653-1.132a.5.5 0 0 1 .047-.568l.45-.548a.5.5 0 0 0 0-.636l-.45-.548a.5.5 0 0 1-.047-.568l.653-1.132a.5.5 0 0 1 .515-.243l.701.116a.5.5 0 0 0 .55-.317l.25-.666A.5.5 0 0 1 11.345 8h1.307a.5.5 0 0 1 .468.324l.25.666a.5.5 0 0 0 .55.317l.7-.116a.5.5 0 0 1 .516.243l.653 1.132a.5.5 0 0 1-.047.568l-.451.548a.5.5 0 0 0 0 .636l.451.548a.5.5 0 0 1 .047.568l-.653 1.132a.5.5 0 0 1-.515.243l-.701-.116a.5.5 0 0 0-.55.317zM11.692 15h.614l.127-.34a1.5 1.5 0 0 1 1.65-.954l.36.06.307-.532-.231-.281a1.5 1.5 0 0 1 0-1.906l.231-.281-.307-.532-.36.06a1.5 1.5 0 0 1-1.65-.953L12.306 9h-.614l-.128.34a1.5 1.5 0 0 1-1.651.954l-.36-.06-.306.532.231.281a1.5 1.5 0 0 1 0 1.906l-.231.281.307.532.359-.06a1.5 1.5 0 0 1 1.65.953z" fill="#6C707E"></path><path fill-rule="evenodd" clip-rule="evenodd" d="M12.309 15h-.614l-.128-.34a1.5 1.5 0 0 0-1.65-.954l-.36.06-.307-.532.231-.281a1.5 1.5 0 0 0 0-1.906l-.231-.281.307-.532.36.06a1.5 1.5 0 0 0 1.65-.953L11.695 9h.614l.127.34a1.5 1.5 0 0 0 1.651.954l.36-.06.306.532-.231.281a1.5 1.5 0 0 0 0 1.906l.231.281-.307.532-.359-.06a1.5 1.5 0 0 0-1.65.953zm.693-3a1 1 0 1 1-2 0 1 1 0 0 1 2 0" fill="#EBECF0"></path><path fill-rule="evenodd" clip-rule="evenodd" d="M6 3.5a2.5 2.5 0 1 1-5 0 2.5 2.5 0 0 1 5 0m-1 0a1.5 1.5 0 1 1-3 0 1.5 1.5 0 0 1 3 0" fill="#DB3B4B"></path><path d="M7 3.5a3.5 3.5 0 0 1-5.924 2.525c-.365 2.24.605 4.642 2.413 6.45 1.278 1.278 2.842 2.154 4.442 2.431a5 5 0 0 1 6.964-6.984c-.29-1.546-1.166-3.07-2.474-4.379C10.548 1.67 8.21.717 6.023 1.073 6.628 1.704 7 2.559 7 3.5" fill="#F2FCF3"></path><path d="m5.578 6.317 2.536 2.536q.316-.39.706-.711l-2.53-2.53a3.5 3.5 0 0 1-.712.705M6.668 2.01q.402-.023.809.02c1.428.154 2.93.916 4.236 2.222.95.951 1.621 1.997 1.98 3.042.431.155.835.368 1.202.629-.29-1.547-1.166-3.072-2.474-4.38C10.548 1.67 8.21.717 6.023 1.073c.262.274.481.59.645.937M7.93 14.906a5 5 0 0 1-.625-1.184c-1.096-.35-2.175-1.022-3.107-1.955-1.236-1.235-2-2.743-2.163-4.205a5 5 0 0 1-.024-.893 3.5 3.5 0 0 1-.935-.644c-.365 2.24.605 4.642 2.413 6.45 1.278 1.278 2.842 2.154 4.442 2.431" fill="#208A3C"></path>
</svg>
