<svg width="14" height="14" viewBox="0 0 14 14" fill="none"><path d="M3 3v8a2 2 0 0 0 2 2h4a2 2 0 0 0 2-2V3a2 2 0 0 0-2-2H5a2 2 0 0 0-2 2" fill="#25324D"/><path fill-rule="evenodd" clip-rule="evenodd" d="M4 3v8a1 1 0 0 0 1 1h4a1 1 0 0 0 1-1V3a1 1 0 0 0-1-1H5a1 1 0 0 0-1 1m-1 8V3a2 2 0 0 1 2-2h4a2 2 0 0 1 2 2v8a2 2 0 0 1-2 2H5a2 2 0 0 1-2-2" fill="#548AF7"/><path fill-rule="evenodd" clip-rule="evenodd" d="M0 3.5A.5.5 0 0 1 .5 3H3v1H.5a.5.5 0 0 1-.5-.5M11 3h2.5a.5.5 0 0 1 0 1H11zM0 7a.5.5 0 0 1 .5-.5H3v1H.5A.5.5 0 0 1 0 7m11-.5h2.5a.5.5 0 0 1 0 1H11zm-11 4a.5.5 0 0 1 .5-.5H3v1H.5a.5.5 0 0 1-.5-.5m11-.5h2.5a.5.5 0 0 1 0 1H11z" fill="#CED0D6"/></svg>