<svg viewBox="0 0 16 16" fill="none" xmlns="http://www.w3.org/2000/svg">
  <path d="M15 8A7 7 0 1 0 1 8z" fill="#253627"></path><path d="M14 8h1A7 7 0 1 0 1 8h1a6 6 0 1 1 12 0" fill="#57965C"></path><path d="M15 8.043V8H1a7 7 0 0 0 8 6.93V10a1.5 1.5 0 0 1 1.35-1.493z" fill="#45322B"></path><path d="M9 14.93Q8.51 15 8 15a7 7 0 0 1-7-7h1a6 6 0 0 0 7 5.917z" fill="#C77D55"></path><path d="m15.5 9.5-5 .5m5 2.25-5 .5m5 2.25-5 .5" stroke="#DB5C5C" stroke-linecap="round" stroke-linejoin="round"></path><path fill-rule="evenodd" clip-rule="evenodd" d="M7.5 6H5V5h6v1H8.5v6h-1z" fill="#CED0D6"></path>
</svg>
