<svg width="16" height="16" viewBox="0 0 16 16" fill="none"><path d="M3 3a1 1 0 0 0-1 1v6.035Q2.245 10 2.5 10c.98 0 1.865.402 2.5 1.05V3z" fill="#25324D"/><path d="M6 14h6v-1H6zM6 3h7a1 1 0 0 1 1 1v2.035c.353.051.69.154 1 .302V4a2 2 0 0 0-2-2H6z" fill="#CED0D6"/><path d="M6 2H3a2 2 0 0 0-2 2v6.337c.31-.148.647-.251 1-.302V4a1 1 0 0 1 1-1h2v8.05c.619.632 1 1.496 1 2.45z" fill="#548AF7"/><path fill-rule="evenodd" clip-rule="evenodd" d="M14 11.95a2.5 2.5 0 1 0-1 0V16h1v-1h2v-1h-2zm1-2.45a1.5 1.5 0 1 1-3 0 1.5 1.5 0 0 1 3 0" fill="#F2C55C"/><path fill-rule="evenodd" clip-rule="evenodd" d="M5 13.5a2.5 2.5 0 1 1-5 0 2.5 2.5 0 0 1 5 0m-1 0a1.5 1.5 0 1 1-3 0 1.5 1.5 0 0 1 3 0" fill="#CED0D6"/></svg>