<svg viewBox="0 0 16 16" fill="none" xmlns="http://www.w3.org/2000/svg">
  <rect x="2" y="3" width="4" height="1" rx=".5" fill="#CED0D6"></rect><rect x="10" y="7.5" width="4" height="1" rx=".5" fill="#CED0D6"></rect><rect x="10" y="12" width="4" height="1" rx=".5" fill="#CED0D6"></rect><path fill-rule="evenodd" clip-rule="evenodd" d="M10.18 3.115A.5.5 0 0 1 10.5 3h3a.5.5 0 0 1 0 1h-2.706l-4.852 8.734A.5.5 0 0 1 5.5 13h-3a.5.5 0 0 1 0-1h2.706l2.04-3.672L10 4 7 7l-.002.012-1.679 1.373A.5.5 0 0 1 5 8.5H2.5a.5.5 0 0 1 0-1h2.322z" fill="#3574F0"></path>
</svg>
