<svg viewBox="0 0 16 16" fill="none" xmlns="http://www.w3.org/2000/svg">
  <path d="M3.561 13.156q-.623 0-1.04-.286-.41-.292-.617-.897t-.208-1.54h1.222q0 .603.065.968.071.364.214.533a.5.5 0 0 0 .377.163.46.46 0 0 0 .364-.156q.144-.157.208-.488.072-.332.072-.851 0-.625-.143-.982a1.1 1.1 0 0 0-.449-.559l-.604-.377a2.7 2.7 0 0 1-.67-.598 2.4 2.4 0 0 1-.39-.8 4 4 0 0 1-.123-1.04q0-.838.188-1.397.195-.56.579-.832.383-.273.936-.273.578 0 .962.28.383.272.572.832.195.558.195 1.41H4.055q0-.546-.058-.864-.053-.32-.156-.455a.33.33 0 0 0-.286-.144q-.255 0-.377.319-.117.312-.117 1.053 0 .546.136.865.144.311.462.506l.546.338q.435.274.702.637.273.365.396.858.13.488.13 1.145 0 .883-.208 1.475-.201.585-.617.871-.416.285-1.047.286M7.783 8.84h1.215L10.162 13H8.894zM6.327 3.9h1.56q.747 0 1.215.293.476.285.696.87.228.586.227 1.483 0 .91-.234 1.501-.226.585-.708.877-.48.287-1.248.287h-.319V13h-1.19zm1.56 4.173q.357 0 .552-.15.202-.15.28-.474.084-.325.084-.904 0-.565-.084-.89-.078-.326-.28-.468-.195-.15-.552-.15h-.37v3.036zM11.138 3.9h3.094v1.15h-1.904V7.97h1.644v1.15h-1.644V13h-1.19z" fill="#548AF7"></path>
</svg>
