<svg viewBox="0 0 16 16" fill="none" xmlns="http://www.w3.org/2000/svg">
  <path d="M1 9a1 1 0 0 1 1-1h4a1 1 0 0 1 1 1v4a1 1 0 0 1-1 1H2a1 1 0 0 1-1-1zM9 1a1 1 0 0 0-1 1v4a1 1 0 0 0 1 1h4a1 1 0 0 0 1-1V2a1 1 0 0 0-1-1z" fill="#FAF5FF"></path><path d="M1 2a1 1 0 0 1 1-1h4a1 1 0 0 1 1 1v4a1 1 0 0 1-1 1H2a1 1 0 0 1-1-1zM8 9a1 1 0 0 1 1-1h4a1 1 0 0 1 1 1v4a1 1 0 0 1-1 1H9a1 1 0 0 1-1-1z" fill="#EDF3FF"></path><path fill-rule="evenodd" clip-rule="evenodd" d="M2 8a1 1 0 0 0-1 1v4a1 1 0 0 0 1 1h4a1 1 0 0 0 1-1V9a1 1 0 0 0-1-1zm4 1H2v4h4zM8 2a1 1 0 0 1 1-1h4a1 1 0 0 1 1 1v4a1 1 0 0 1-1 1H9a1 1 0 0 1-1-1zm1 0h4v4H9z" fill="#834DF0"></path><path fill-rule="evenodd" clip-rule="evenodd" d="M2 1a1 1 0 0 0-1 1v4a1 1 0 0 0 1 1h4a1 1 0 0 0 1-1V2a1 1 0 0 0-1-1zm4 1H2v4h4zM9 8a1 1 0 0 0-1 1v4a1 1 0 0 0 1 1h4a1 1 0 0 0 1-1V9a1 1 0 0 0-1-1zm4 1H9v4h4z" fill="#3574F0"></path>
</svg>
