<svg width="16" height="17" viewBox="0 0 16 17" fill="none"><path d="M.968 2.927 7.56 15.148a.5.5 0 0 0 .88 0l6.593-12.221a.5.5 0 0 0-.509-.733l-6.456.886a.5.5 0 0 1-.136 0l-6.456-.886a.5.5 0 0 0-.508.733" fill="url(#a)"/><path d="m12.812 3.975-4.666 9.173c-.105.207-.418.099-.374-.129l.662-3.41a.2.2 0 0 0-.261-.227l-.857.294a.2.2 0 0 1-.263-.221l.398-2.459a.2.2 0 0 0-.247-.225l-1.432.368a.2.2 0 0 1-.25-.21l.465-5.744a.2.2 0 0 1 .166-.181L11.66.058a.2.2 0 0 1 .222.266l-1.26 3.46a.2.2 0 0 0 .229.263l1.742-.358a.2.2 0 0 1 .219.286" fill="url(#b)"/><defs><linearGradient id="a" x1=".884" y1="1.615" x2="9.833" y2="12.94" gradientUnits="userSpaceOnUse"><stop stop-color="#41D1FF"/><stop offset="1" stop-color="#BD34FE"/></linearGradient><linearGradient id="b" x1="7.599" y1=".3" x2="9.259" y2="11.93" gradientUnits="userSpaceOnUse"><stop stop-color="#FFEA83"/><stop offset=".083" stop-color="#FFDD35"/><stop offset="1" stop-color="#FFA800"/></linearGradient></defs></svg>