<svg width="16" height="16" viewBox="0 0 16 16" fill="none"><g clip-path="url(#a)"><path d="m.975 2.898 6.586 12.031a.5.5 0 0 0 .878 0l6.586-12.031a.5.5 0 0 0-.506-.736l-6.452.874a.5.5 0 0 1-.134 0l-6.452-.874a.5.5 0 0 0-.506.736" fill="url(#b)"/><path d="m12.809 3.923-4.663 9.032c-.106.206-.418.097-.373-.13l.66-3.353a.2.2 0 0 0-.26-.228l-.858.29a.2.2 0 0 1-.261-.221l.397-2.415a.2.2 0 0 0-.247-.226l-1.433.363a.2.2 0 0 1-.248-.21l.464-5.655a.2.2 0 0 1 .166-.181L11.66.058a.2.2 0 0 1 .221.266l-1.256 3.399a.2.2 0 0 0 .228.265l1.74-.353a.2.2 0 0 1 .217.288" fill="url(#c)"/></g><defs><linearGradient id="b" x1=".884" y1="1.592" x2="9.671" y2="12.877" gradientUnits="userSpaceOnUse"><stop stop-color="#41D1FF"/><stop offset="1" stop-color="#BD34FE"/></linearGradient><linearGradient id="c" x1="7.599" y1=".296" x2="9.212" y2="11.762" gradientUnits="userSpaceOnUse"><stop stop-color="#FFEA83"/><stop offset=".083" stop-color="#FFDD35"/><stop offset="1" stop-color="#FFA800"/></linearGradient><clipPath id="a"><path fill="#fff" d="M0 0H16V16H0z"/></clipPath></defs></svg>