<svg viewBox="0 0 16 16" fill="none" xmlns="http://www.w3.org/2000/svg">
  <path d="M7.668 12.99a5 5 0 1 1 5.321-5.322c-.308.145-.64.247-.99.297A4 4 0 1 0 7.966 12c-.05.349-.152.681-.297.99" fill="#6C707E"></path><circle cx="11.5" cy="4.5" r="3" fill="#FFF4EB" stroke="#E66D17"></circle><circle cx="4.5" cy="11.5" r="3" fill="#FFF4EB" stroke="#E66D17"></circle><path fill-rule="evenodd" clip-rule="evenodd" d="M9 10a1 1 0 0 1 1-1h5a1 1 0 0 1 1 1v5a1 1 0 0 1-1 1h-5a1 1 0 0 1-1-1zm1 5v-5h5v5z" fill="#6C707E"></path><path fill="#55A76A" d="M11 11H14V14H11z"></path>
</svg>
