<svg viewBox="0 0 40 40" fill="none" xmlns="http://www.w3.org/2000/svg">
  <path d="M11.35 18.75a7.21 7.21 0 0 1-3.487-7.824.18.18 0 0 0 0-.113.65.65 0 0 0-.638.313 7.363 7.363 0 0 0 2.5 9.537 2.59 2.59 0 0 1 1.625-1.912Z" fill="#F68E1E" stroke="#362F8A" stroke-width=".5" stroke-miterlimit="10"></path><path d="M26.55 31.25h-1.913l.825 6.25h1.25a.487.487 0 0 0 .475-.612zM12.5 36.7a1.11 1.11 0 0 1-1.025.8h2.4a1.13 1.13 0 0 0 .887-.788c.525-1.713 1.1-4.325 2.375-5.45H14.85c-1.275 1.112-1.863 3.737-2.35 5.437Z" fill="#362F8A" stroke="#362F8A" stroke-width=".5" stroke-miterlimit="10"></path><path d="M24.913 31.25h-4.35c1.25 1.125 1.725 3.75 2.237 5.45a1.11 1.11 0 0 0 1.063.8h1.25a.487.487 0 0 0 .462-.612zM10.626 30.389l-1.725 6.5a.487.487 0 0 0 .475.612h1.938a1.125 1.125 0 0 0 1.062-.8c.513-1.712 1.088-4.325 2.375-5.45z" fill="#F68E1E" stroke="#362F8A" stroke-width=".5" stroke-miterlimit="10"></path><path d="M24.425 28.75a13.5 13.5 0 0 1-.5-3.75c-.008-1.268.16-2.53.5-3.75a3.85 3.85 0 0 1 1.387-2.3 1.05 1.05 0 0 1 .588-.188H11.25a.8.8 0 0 0-.225.087c-1.25.5-2.138 2.875-2.213 5.8v.7c.075 2.925 1 5.313 2.213 5.8a.6.6 0 0 0 .225.1H26.4a1.05 1.05 0 0 1-.587-.187 3.85 3.85 0 0 1-1.388-2.313Z" fill="#F68E1E" stroke="#362F8A" stroke-width=".5" stroke-miterlimit="10"></path><path d="M26.5 20a10.3 10.3 0 0 1 .9 5 10.3 10.3 0 0 1-.9 5" stroke="#362F8A" stroke-width=".5" stroke-miterlimit="10"></path><path d="M34.349 10.437c0-1.362-1.138-2.15-2.5-2.5a63 63 0 0 0-6.113-1.613c-.25 0-.637 0-1.088-.074a44 44 0 0 1-2.712-3.638.3.3 0 0 0-.538 0 16 16 0 0 0-.524 3.113 6.5 6.5 0 0 0 0 .987l-.613.263a14.4 14.4 0 0 1-4.175-3.225.288.288 0 0 0-.5.187v.813c-.003 2.244.51 4.46 1.5 6.475v.325a5.41 5.41 0 0 0 1.663 4.312l.062.063a6.25 6.25 0 0 0 4.238 1.662h4.275a6.13 6.13 0 0 0 4.174-1.588 9 9 0 0 0 1.763-2.25 9.5 9.5 0 0 0 .975-2.575q.08-.263.1-.537v-.2zm-1.638 1.25a.46.46 0 0 1-.337.2h-.25a3.4 3.4 0 0 1-1.588-.388.475.475 0 0 1-.15-.712 3.54 3.54 0 0 1 2.563-1.4.4.4 0 0 1 .412.4c-.016.7-.242 1.38-.65 1.95z" fill="#F68E1E" stroke="#362F8A" stroke-width=".5" stroke-miterlimit="10"></path><path d="M32.712 11.738a.46.46 0 0 1-.338.2h-.25a3.4 3.4 0 0 1-1.587-.388.476.476 0 0 1-.15-.712 3.54 3.54 0 0 1 2.562-1.4.4.4 0 0 1 .413.4 3.5 3.5 0 0 1-.65 1.9" fill="#362F8A"></path><path d="M22.599 21.625h-1.475a.487.487 0 1 1 0-.962h1.475a.487.487 0 1 1 0 .962M17.5 21.625h-1.463a.488.488 0 0 1 0-.962h1.462a.487.487 0 1 1 0 .962M12.599 21.625h-1.475a.487.487 0 1 1 0-.962h1.475a.488.488 0 0 1 0 .962" fill="#fff"></path><path d="M21.974 2.65a.288.288 0 0 0-.525 0 25 25 0 0 0-.562 4.1 9.9 9.9 0 0 1 3.75-.524 26.5 26.5 0 0 1-2.663-3.575Z" fill="#362F8A" stroke="#362F8A" stroke-width=".5" stroke-miterlimit="10"></path><path d="M21.448 18.75a.6.6 0 0 0-.2 0c-1.25.5-2.15 2.875-2.225 5.8v.763c.075 2.925 1.013 5.312 2.225 5.8a.55.55 0 0 0 .213.1M15.975 18.75a.8.8 0 0 0-.225.087c-1.25.5-2.138 2.875-2.213 5.8v.763c.075 2.925 1.013 5.313 2.213 5.8a.6.6 0 0 0 .225.1M26.288 31.251c1.305 0 2.363-2.81 2.363-6.275s-1.058-6.275-2.363-6.275-2.362 2.81-2.362 6.275 1.058 6.275 2.362 6.275Z" stroke="#362F8A" stroke-width=".5" stroke-miterlimit="10"></path><path d="M27.063 19.838a.66.66 0 0 0-.65-.175c-.2 0-.338.15-.338.262a.16.16 0 0 0 0 .1 10.3 10.3 0 0 1 .9 5 10.3 10.3 0 0 1-.9 5c-.087.15 0 .313.313.363a.65.65 0 0 0 .637-.175 10.2 10.2 0 0 0 1-5.213 10.2 10.2 0 0 0-.962-5.162" fill="#362F8A"></path>
</svg>
