<svg width="16" height="16" viewBox="0 0 16 16" fill="none"><path d="M15.224 6.499c.358-1.563 0-3.298-2.062-3.298-1.577 0-2.54.588-3.678 1.561-.197-.867-.8-1.53-2.035-1.556-1.265-.07-2.372.46-3.321 1.207.1-.453-.113-.926-.629-1.03-.454-.093-.9.183-.996.616l-1.828 8.19c-.097.433.193.858.647.95s.9-.185.996-.617l1.42-6.355.002-.003v.007c.71-.995 1.982-1.541 2.91-1.442.78.097 1.317.647 1.055 1.766L6.45 12.182c-.09.404.158.8.56.925a3.6 3.6 0 0 1 1.046-2.282l.556-.556.914-4.102c1.313-1.84 4.548-2.147 3.977.332l-.11.501c.56.003 1.121.135 1.633.397z" fill="#548AF7"/><path d="M11.562 10.148a.5.5 0 1 1-.707-.708l.677-.677a2.615 2.615 0 0 1 3.699.006 2.615 2.615 0 0 1 .006 3.699l-.677.677a.5.5 0 1 1-.708-.707l.678-.677a1.615 1.615 0 0 0-.006-2.285 1.615 1.615 0 0 0-2.285-.006zM10.148 10.855a.5.5 0 0 1 0 .707l-.678.677a1.615 1.615 0 0 0 .006 2.285 1.615 1.615 0 0 0 2.285.006l.677-.678a.5.5 0 0 1 .707.707l-.677.678a2.615 2.615 0 0 1-3.699-.006 2.615 2.615 0 0 1-.006-3.699l.677-.677a.5.5 0 0 1 .708 0" fill="#CED0D6"/><path d="M13.854 10.854a.5.5 0 0 0-.708-.708l-3 3a.5.5 0 0 0 .708.708z" fill="#CED0D6"/></svg>