<svg width="16" height="16" viewBox="0 0 16 16" fill="none"><path fill-rule="evenodd" clip-rule="evenodd" d="M1.146 10.654a.5.5 0 0 1 .708-.708L4 12.093V2.5a.5.5 0 0 1 1 0v9.593l2.146-2.147a.5.5 0 1 1 .708.708l-3 3-.354.353-.354-.353zM11 2.5a.5.5 0 0 1 1 0v1l-.004.062a2 2 0 0 1 0 3.876q.004.03.004.062v1l-.004.062a2 2 0 0 1 0 3.876q.004.03.004.062v1a.5.5 0 0 1-1 0v-1q0-.032.004-.062a2 2 0 0 1 0-3.876L11 8.5v-1q0-.032.004-.062a2 2 0 0 1 0-3.876L11 3.5zm.5 4a1 1 0 1 0 0-2 1 1 0 0 0 0 2m1 4a1 1 0 1 1-2 0 1 1 0 0 1 2 0" fill="#6C707E"/></svg>