<svg width="20" height="20" viewBox="0 0 20 20" fill="none"><path d="M12.732 7.786c.126.045.22.18.31.31.121.175.234.337.406.246.57-.302.786-1.008.483-1.575a1.17 1.17 0 0 0-1.579-.482 1.163 1.163 0 0 0-.483 1.575c.08.15.258.08.446.005.147-.06.3-.12.417-.08M5.304 8.112a.75.75 0 1 1-1.501 0 .75.75 0 0 1 1.501 0M16.128 8.112a.75.75 0 1 1-1.501 0 .75.75 0 0 1 1.501 0M12.013 10.252c.608-.3.99-.488.99.066 0 .693-.332 1.82-1.221 2.504v.003c-.45.346-1.043.578-1.809.584h-.001c-.766-.006-1.36-.238-1.81-.584l-.002-.002c-.89-.684-1.223-1.811-1.223-2.505 0-.554.382-.366.99-.066.54.265 1.256.618 2.043.621.787-.003 1.504-.356 2.043-.621M7.23 7.786c-.126.045-.22.18-.31.31-.12.175-.233.337-.406.246a1.163 1.163 0 0 1-.483-1.575 1.17 1.17 0 0 1 1.58-.482c.569.302.785 1.007.482 1.575-.08.15-.257.08-.445.005-.147-.06-.3-.12-.417-.08" fill="#6C707E"/><path fill-rule="evenodd" clip-rule="evenodd" d="M19 10c0 .943-.145 1.853-.414 2.707.3.032.57.164.768.379.296.32.427.713.37 1.106q-.042.28-.184.511c.198.16.345.382.415.65.056.21.112.646-.184 1.095q.029.045.053.091c.178.336.19.716.032 1.07-.238.535-.83.957-1.98 1.41-.716.282-1.37.462-1.376.464-.946.244-1.8.367-2.541.367-1.19 0-2.085-.316-2.666-.942a9 9 0 0 1-2.586 0c-.581.626-1.476.942-2.666.942-.74 0-1.596-.123-2.542-.367-.006-.002-.66-.182-1.375-.464-1.15-.453-1.742-.875-1.98-1.41a1.2 1.2 0 0 1 .085-1.16 1.35 1.35 0 0 1-.185-1.097c.071-.267.217-.49.416-.649a1.35 1.35 0 0 1-.185-.51c-.057-.394.075-.787.37-1.107a1.2 1.2 0 0 1 .77-.38A9 9 0 1 1 19 10m-2.27 1.47c.216 0 .418.05.596.145q.172-.781.174-1.615a7.5 7.5 0 1 0-14.826 1.615c.178-.095.38-.145.595-.145.302 0 .612.099.922.294.206.13.433.36.667.65.217-.3.52-.498.868-.552q.1-.015.2-.016c.794 0 1.271.684 1.451 1.299.09.207.52 1.154 1.166 1.796.823.817 1.13 1.656.924 2.54a8 8 0 0 0 1.066 0c-.206-.884.1-1.723.924-2.54.646-.642 1.076-1.589 1.165-1.796.18-.615.658-1.3 1.451-1.3q.1 0 .2.017c.348.054.652.253.869.552.234-.29.461-.52.667-.65.31-.195.62-.294.921-.294m-13.46.924c.118 0 .263.05.422.15.496.313 1.453 1.948 1.804 2.584a.57.57 0 0 0 .498.303c.359 0 .639-.354.033-.804-.91-.678-.591-1.784-.156-1.853a.4.4 0 0 1 .056-.004c.395 0 .57.677.57.677s.51 1.275 1.388 2.147.924 1.572.284 2.505c-.437.635-1.272.718-2.128.718-.888 0-1.8-.155-2.31-.287-.025-.006-3.126-.819-2.733-1.56.066-.125.175-.175.312-.175.294 0 .715.23 1.11.447.35.191.68.372.883.372.096 0 .168-.075.196-.174.089-.317-.499-.533-1.134-.767-.746-.274-1.557-.572-1.421-1.086.044-.168.165-.237.334-.236.434 0 1.188.45 1.8.815.421.251.776.462.916.462q.04 0 .055-.023c.172-.277.093-.502-1.121-1.232l-.402-.239c-.994-.586-1.625-.959-1.195-1.423q.084-.089.23-.088c.738 0 2.48 1.576 2.48 1.576s.47.486.754.486c.065 0 .12-.026.159-.09.101-.17-.374-.65-.887-1.167-.504-.51-1.045-1.056-1.103-1.376-.079-.437.056-.658.305-.658m13.46 0c-.118 0-.263.05-.423.15-.496.313-1.453 1.948-1.803 2.584a.57.57 0 0 1-.499.303c-.359 0-.638-.354-.033-.804.911-.678.591-1.784.157-1.853a.4.4 0 0 0-.056-.004c-.396 0-.57.677-.57.677s-.51 1.275-1.389 2.147c-.878.872-.923 1.572-.283 2.505.436.635 1.271.718 2.128.718.888 0 1.8-.155 2.31-.287.025-.006 3.125-.819 2.732-1.56-.066-.125-.175-.175-.312-.175-.293 0-.715.23-1.11.447-.35.191-.679.372-.882.372-.097 0-.169-.075-.197-.174-.088-.317.5-.533 1.135-.767.745-.274 1.556-.572 1.42-1.086-.044-.168-.164-.237-.334-.236-.433 0-1.187.45-1.8.815-.42.251-.775.462-.915.462q-.04 0-.055-.023c-.173-.277-.093-.502 1.121-1.232l.402-.239c.993-.586 1.624-.959 1.195-1.423q-.086-.089-.23-.088c-.738 0-2.48 1.576-2.48 1.576s-.47.486-.755.486a.17.17 0 0 1-.158-.09c-.102-.17.374-.65.886-1.167.505-.51 1.045-1.056 1.103-1.376.08-.437-.055-.658-.305-.658" fill="#6C707E"/></svg>