<svg viewBox="0 0 14 14" fill="none" xmlns="http://www.w3.org/2000/svg">
  <path fill-rule="evenodd" clip-rule="evenodd" d="M7 7.502A1.5 1.5 0 0 1 9.294 6.23l4.002 2.497a1.5 1.5 0 0 1 0 2.546L9.294 13.77A1.5 1.5 0 0 1 7 12.498zm1.765-.424A.5.5 0 0 0 8 7.502v4.996a.5.5 0 0 0 .765.424l4.002-2.498a.5.5 0 0 0 0-.848z" fill="#57965C"></path><path d="M8 7.502a.5.5 0 0 1 .765-.424l4.002 2.498a.5.5 0 0 1 0 .848l-4.002 2.498A.5.5 0 0 1 8 12.498z" fill="#253627"></path><path d="m5.1 8.716 1.047 5.145a.702.702 0 0 1-1.107-.422l-.814-4.007L.427 7.826A.699.699 0 0 1 .362 6.57l3.603-1.983.38-3.953a.701.701 0 0 1 1.158-.46L8.574 2.85l4.052-.898a.7.7 0 0 1 .786.978l-1.698 3.631-.854-.533 1.388-2.969-3.95.876L5.284 1.31 4.91 5.208 1.388 7.146z" fill="#C77D55"></path>
</svg>
