<svg width="16" height="16" viewBox="0 0 16 16" fill="none"><g clip-path="url(#a)"><path fill-rule="evenodd" clip-rule="evenodd" d="M3 2a2 2 0 0 0-2 2v8a2 2 0 0 0 2 2h5.256A4.5 4.5 0 0 1 15 8.758V4a2 2 0 0 0-2-2z" fill="#43454A"/><path fill-rule="evenodd" clip-rule="evenodd" d="M3 3h10a1 1 0 0 1 1 1v4.256q.535.19 1 .502V4a2 2 0 0 0-2-2H3a2 2 0 0 0-2 2v8a2 2 0 0 0 2 2h5.256a4.5 4.5 0 0 1-.229-1H3a1 1 0 0 1-1-1V4a1 1 0 0 1 1-1" fill="#CED0D6"/><path d="M4 5.5h1M7 5.5h1" stroke="#CED0D6" stroke-linecap="round"/><path fill-rule="evenodd" clip-rule="evenodd" d="M12.5 16a3.5 3.5 0 1 0 0-7 3.5 3.5 0 0 0 0 7m.5-5.5a.5.5 0 0 0-1 0v2a.5.5 0 0 0 .146.354l1.415 1.414a.5.5 0 0 0 .707-.707L13 12.293z" fill="#548AF7"/></g><defs><clipPath id="a"><path fill="#fff" d="M0 0H16V16H0z"/></clipPath></defs></svg>