<svg viewBox="0 0 16 16" fill="none" xmlns="http://www.w3.org/2000/svg">
  <path d="M14.93 7H13.5A1.5 1.5 0 0 0 12 8.52V11a4 4 0 0 1-.6 2.108A4 4 0 0 1 8 15a7 7 0 1 1 6.93-8" fill="#25324D"></path><path d="M14.93 7A7.001 7.001 0 0 0 1 8a7 7 0 0 0 7 7v-1a6 6 0 1 1 5.917-7z" fill="#548AF7"></path><path d="M8.133 11.5c1.489 0 2.765-.9 3.08-2.175h-1.016c-.314.73-1.092 1.252-2.064 1.252-1.34 0-2.306-1.074-2.306-2.577s.967-2.577 2.306-2.577c.972 0 1.75.522 2.064 1.252h1.015C10.898 5.4 9.622 4.5 8.132 4.5 6.215 4.5 4.789 5.994 4.789 8s1.426 3.5 3.345 3.5" fill="#548AF7"></path><path d="M15 10a1 1 0 0 1 1 1 5 5 0 0 1-5.836 4.93c-.208-.034-.219-.318-.028-.408A5 5 0 0 0 12.999 11a1 1 0 0 1 1-1z" fill="#DB5C5C"></path><path fill-rule="evenodd" clip-rule="evenodd" d="M13.5 9a.5.5 0 0 1 .5.5v.5h1v-.5A1.5 1.5 0 0 0 13.5 8a.5.5 0 0 0 0 1" fill="#57965C"></path>
</svg>
