<svg viewBox="0 0 16 16" fill="none" xmlns="http://www.w3.org/2000/svg">
  <path fill-rule="evenodd" clip-rule="evenodd" d="M2.017 3.392H2v9.126h.003c.028.444.274.816.594 1.106.34.307.804.561 1.335.764.935.357 2.155.587 3.496.638a5 5 0 0 1-.326-1.018c-1.106-.072-2.08-.274-2.813-.554-.464-.177-.805-.377-1.021-.572-.217-.196-.268-.348-.268-.448v-1.449c.272.175.588.328.932.46.855.326 1.949.546 3.155.62q.099-.514.295-.985c-1.22-.054-2.299-.266-3.093-.57-.464-.177-.805-.376-1.021-.572C3.05 9.742 3 9.59 3 9.49V8.041c.272.175.588.328.932.46 1.066.407 2.504.648 4.068.648s3.002-.241 4.068-.648c.344-.132.66-.285.932-.46V9h1V3.392h-.017c-.062-.388-.29-.717-.58-.979-.34-.307-.804-.561-1.335-.764C11.002 1.24 9.564 1 8 1s-3.002.241-4.068.649c-.53.203-.995.457-1.335.764-.29.262-.518.591-.58.98m1.25-.237c-.216.196-.267.348-.267.448s.051.252.268.447c.216.196.557.395 1.021.573.926.353 2.237.582 3.711.582s2.786-.229 3.71-.582c.465-.178.806-.377 1.022-.573.217-.195.268-.347.268-.447s-.051-.252-.268-.448c-.216-.195-.557-.395-1.021-.572C10.785 2.229 9.474 2 8 2s-2.785.23-3.71.583c-.465.177-.806.377-1.022.572M3 5.097v1.45c0 .1.051.252.268.447.216.196.557.395 1.021.572.926.354 2.237.583 3.711.583s2.786-.229 3.71-.583c.465-.177.806-.376 1.022-.572.217-.195.268-.348.268-.447v-1.45a5 5 0 0 1-.932.46c-1.066.407-2.504.648-4.068.648s-3.002-.241-4.068-.648A5 5 0 0 1 3 5.097" fill="#3574F0"></path><path d="M9.9 10.857a.5.5 0 1 0-.7-.714A4 4 0 0 0 8 13c0 1.12.46 2.132 1.2 2.857a.5.5 0 1 0 .7-.714A3 3 0 0 1 9 13c0-.84.344-1.598.9-2.143M14.8 10.143a.5.5 0 1 0-.7.714c.556.545.9 1.304.9 2.143a3 3 0 0 1-.9 2.143.5.5 0 0 0 .7.714A4 4 0 0 0 16 13a4 4 0 0 0-1.2-2.857M12 14a1 1 0 1 0 0-2 1 1 0 0 0 0 2" fill="#6C707E"></path>
</svg>
