<svg viewBox="0 0 16 16" fill="none" xmlns="http://www.w3.org/2000/svg">
  <g clip-path="url(#a)" fill-rule="evenodd" clip-rule="evenodd"><path d="M14 6h-3v3h-1V6H6v3H5V6H2v6a1 1 0 0 0 1 1h1v1H3a2 2 0 0 1-2-2V4a2 2 0 0 1 2-2h10a2 2 0 0 1 2 2v5h-1zM5 3H3a1 1 0 0 0-1 1v1h3zm1 0v2h4V3zm5 0v2h3V4a1 1 0 0 0-1-1z" fill="#CED0D6"></path><path d="M6.5 10a.5.5 0 0 1 .464.314l1.536 3.84 1.536-3.84a.5.5 0 0 1 .928 0l1.536 3.84 1.536-3.84a.5.5 0 0 1 .928 0l1 2.5a.5.5 0 0 1-.928.372l-.536-1.34-1.536 3.84a.5.5 0 0 1-.928 0l-1.536-3.84-1.536 3.84a.5.5 0 0 1-.928 0L6.5 11.846l-.536 1.34a.5.5 0 1 1-.928-.372l1-2.5A.5.5 0 0 1 6.5 10" fill="#548AF7"></path></g><defs><clipPath id="a"><path fill="#fff" d="M0 0H16V16H0z"></path></clipPath></defs>
</svg>
