<svg viewBox="0 0 17 16" fill="none" xmlns="http://www.w3.org/2000/svg">
  <path fill-rule="evenodd" clip-rule="evenodd" d="M2.633 2C1.731 2 1 2.836 1 3.867v8.266C1 13.164 1.731 14 2.633 14H8.28a4.9 4.9 0 0 1-.264-1.62c0-.835.19-1.62.583-2.33v-.002a4.424 4.424 0 0 1 3.919-2.288A4.4 4.4 0 0 1 15 8.498V6a2 2 0 0 0-2-2H8.467L6.843 2.308A1 1 0 0 0 6.122 2zM7 9a1 1 0 1 1-2 0 1 1 0 0 1 2 0" fill="#43454A"></path><path d="M2.633 3h3.489L8.04 5H13a1 1 0 0 1 1 1v2.002a4.3 4.3 0 0 1 1 .496V6a2 2 0 0 0-2-2H8.467L6.843 2.308A1 1 0 0 0 6.122 2H2.633C1.731 2 1 2.836 1 3.867v8.266C1 13.164 1.731 14 2.633 14H8.28a4.8 4.8 0 0 1-.228-1H2.633C2.405 13 2 12.742 2 12.133V3.867C2 3.258 2.405 3 2.633 3" fill="#CED0D6"></path><path fill-rule="evenodd" clip-rule="evenodd" d="M6 7a2 2 0 1 0 0 4 2 2 0 0 0 0-4m0 3a1 1 0 1 0 0-2 1 1 0 0 0 0 2" fill="#CED0D6"></path><path d="M12.518 15.1q.704 0 1.271-.35.569-.35.89-.97t.322-1.4q0-.785-.322-1.405a2.36 2.36 0 0 0-.885-.965q-.562-.35-1.276-.35-.709 0-1.276.35-.563.35-.885.97-.321.615-.321 1.4t.321 1.405q.322.615.885.965.568.35 1.276.35m0 .9a3.45 3.45 0 0 1-1.784-.47 3.44 3.44 0 0 1-1.261-1.3 3.8 3.8 0 0 1-.457-1.85q0-1.02.457-1.845a3.425 3.425 0 0 1 3.045-1.775q.975 0 1.774.475.804.47 1.261 1.3.462.825.463 1.845 0 1.02-.463 1.85-.457.825-1.261 1.3a3.43 3.43 0 0 1-1.774.47" fill="#C77D55"></path>
</svg>
