<svg viewBox="0 0 16 16" fill="none" xmlns="http://www.w3.org/2000/svg">
  <path d="M5.001 2h3a1 1 0 0 1 1 1v3a1 1 0 0 1-1 1h-3a1 1 0 0 1-1-1V3a1 1 0 0 1 1-1" fill="#57965C"></path><path fill-rule="evenodd" clip-rule="evenodd" d="M14.089 6.735c.762 0 1.123.273 1.162.304l.141.111-.058.171a1.74 1.74 0 0 1-.42.623c-.278.273-.78.6-1.595.6h-.132c-.066.17-.138.368-.216.584-.306.847-.709 1.961-1.303 2.633-.445.505-.97.934-1.552 1.271-.706.4-1.475.68-2.274.826a9.4 9.4 0 0 1-1.743.158c-1.294 0-1.85-.146-2.752-.576-.903-.43-1.446-1.14-1.933-2.244-.27-.613-.368-1.523-.401-2.212-.026-.537.414-.963.953-.963h9c.115-.005.683-.053 1.038-.25-.294-.464-.377-1.006-.24-1.583a2.7 2.7 0 0 1 .364-.851l.134-.194.205.118c.038.022.874.515 1.021 1.526q.3-.05.6-.052M6 11a1 1 0 1 1-2 0 1 1 0 0 1 2 0" fill="#57965C"></path>
</svg>
