<svg viewBox="0 0 16 16" fill="none" xmlns="http://www.w3.org/2000/svg">
  <path d="M3.5 13.5h-1a1 1 0 0 1-1-1v-9a1 1 0 0 1 1-1h1M12.5 13.5h1a1 1 0 0 0 1-1v-9a1 1 0 0 0-1-1h-1" stroke="#CED0D6" stroke-linecap="round"></path><path d="M3.205 4.5H4.25l3.565 5.435V4.5h.98v7h-1.05l-3.56-5.435V11.5h-.98z" fill="#CED0D6"></path><path fill="#CED0D6" d="M10 8H11V9H10z"></path><path fill="#CED0D6" d="M12 8H13V9H12z"></path><path fill="#CED0D6" d="M12 10H13V11H12z"></path><path fill="#CED0D6" d="M10 10H11V11H10z"></path>
</svg>
