<svg width="20" height="20" viewBox="0 0 20 20" fill="none"><g clip-path="url(#a)"><g clip-path="url(#b)"><path d="M9.375 3.613c.61 1.808 1.436 3.263 2.605 4.423 1.168 1.158 2.634 1.98 4.461 2.588-1.827.609-3.293 1.432-4.46 2.59-1.17 1.16-1.996 2.615-2.606 4.423-.61-1.808-1.436-3.263-2.605-4.423-1.168-1.159-2.635-1.981-4.464-2.59 1.828-.608 3.296-1.429 4.464-2.588s1.995-2.615 2.605-4.423Z" stroke="#6C707E" stroke-width="1.5"/><path d="M16.241 6.134a2.38 2.38 0 1 0 0-4.762 2.38 2.38 0 0 0 0 4.762" fill="#6C707E"/></g></g><defs><clipPath id="a"><path fill="#fff" d="M0 0H20V20H0z"/></clipPath><clipPath id="b"><path fill="#fff" d="M0 0H20V20H0z"/></clipPath></defs></svg>