<svg viewBox="0 0 16 16" fill="none" xmlns="http://www.w3.org/2000/svg">
  <rect x="2.5" y="2.5" width="11" height="11" rx="1.5" fill="#FFF7F7" stroke="#DB3B4B"></rect><path d="M10.066 5.25c-.812 0-1.43.402-1.77 1.07-.292-.673-.89-1.07-1.689-1.07-.758 0-1.326.364-1.645 1.003v-.877H4v5.382h.999V7.595c0-.91.515-1.482 1.33-1.482.746 0 1.177.51 1.177 1.33v3.316h.988V7.595c0-.91.526-1.482 1.33-1.482.752 0 1.177.51 1.177 1.33v3.316H12V7.364c0-1.288-.783-2.113-1.934-2.113" fill="#DB3B4B"></path>
</svg>
