<svg viewBox="0 0 16 16" fill="none" xmlns="http://www.w3.org/2000/svg">
  <g clip-path="url(#a)"><path d="M2 4a1 1 0 0 1 1-1h2v10H3a1 1 0 0 1-1-1z" fill="#43454A"></path><path fill-rule="evenodd" clip-rule="evenodd" d="M14 11.95a2.5 2.5 0 1 0-1 0V16h1v-1h2v-1h-2zm1-2.45a1.5 1.5 0 1 1-3 0 1.5 1.5 0 0 1 3 0" fill="#548AF7"></path><path fill-rule="evenodd" clip-rule="evenodd" d="M1 4a2 2 0 0 1 2-2h10a2 2 0 0 1 2 2v2.337a3.5 3.5 0 0 0-1-.302V4a1 1 0 0 0-1-1H6v10h6v1H3a2 2 0 0 1-2-2zm2-1h2v10H3a1 1 0 0 1-1-1V4a1 1 0 0 1 1-1" fill="#CED0D6"></path></g><defs><clipPath id="a"><path fill="#fff" d="M0 0H16V16H0z"></path></clipPath></defs>
</svg>
