<svg width="20" height="20" viewBox="0 0 20 20" fill="none"><path fill-rule="evenodd" clip-rule="evenodd" d="M19.784 13.97a.75.75 0 0 1 0 1.06l-4.746 4.746a.75.75 0 0 1-1.061 0L11.47 17.27a.75.75 0 0 1 1.06-1.06l1.977 1.976 4.216-4.215a.75.75 0 0 1 1.06 0" fill="#6C707E"/><path d="M18.94 12.272c.36-2.756-.905-5.651-3.256-8.002-3.683-3.684-8.766-4.6-12.41-.956-3.643 3.643-2.596 8.918.926 12.44 1.953 1.952 4.426 3.175 6.876 3.243l-.667-.667a2.24 2.24 0 0 1-.58-.995c-1.591-.356-3.2-1.274-4.568-2.642-1.56-1.56-2.517-3.455-2.72-5.28-.175-1.575.201-3.138 1.31-4.502l10.904 10.905 1.061-1.06L4.913 3.852c1.36-1.1 2.874-1.48 4.392-1.317 1.778.19 3.666 1.142 5.319 2.795 1.662 1.662 2.634 3.54 2.836 5.31a5.7 5.7 0 0 1-.392 2.862l.594-.594c.36-.36.81-.572 1.277-.637" fill="#6C707E"/></svg>