<svg width="16" height="16" viewBox="0 0 16 16" fill="none"><g clip-path="url(#a)" fill="#CED0D6"><path d="M8.5 8a.5.5 0 0 1 .5.5v.826l.181-.164A4 4 0 0 1 12.001 8a4.005 4.005 0 0 1 3.96 3.43.5.5 0 1 1-.991.14 2.97 2.97 0 0 0-.849-1.691A3 3 0 0 0 12.002 9c-.83 0-1.579.335-2.122.879l-.009.009-.124.112h.754a.5.5 0 0 1 0 1h-2a.5.5 0 0 1-.5-.5v-2a.5.5 0 0 1 .5-.5M8.465 12.005a.5.5 0 0 1 .566.424c.093.656.4 1.244.848 1.692A3 3 0 0 0 12 15c.829 0 1.578-.335 2.122-.879l.008-.009.119-.112H13.5a.5.5 0 0 1 0-1h2a.5.5 0 0 1 .5.5v2a.5.5 0 0 1-1 0v-.834l-.176.167A4 4 0 0 1 12 16a4 4 0 0 1-2.828-1.172 4 4 0 0 1-1.131-2.257.5.5 0 0 1 .424-.566"/><path fill-rule="evenodd" clip-rule="evenodd" d="m5.424 4.8.676.54v1.557l-.155.363A5.5 5.5 0 0 0 5.5 9.426V14.5a.5.5 0 0 0 .5.5h2a5 5 0 0 1-.583-1H6.5V9.426a4.5 4.5 0 0 1 .364-1.772l.196-.457A.5.5 0 0 0 7.1 7V5.6h1.2V7h1V5.35l1.266-.95c.52.002.92.017 1.394.155.526.154 1.175.47 2.153 1.155a.5.5 0 0 0 .763-.56c-.63-1.999-1.603-3.069-2.643-3.617C11.223 1 10.219 1 9.618 1H6.6a.5.5 0 0 0-.186.036l-.91.364h-.986l-.695-.347A.5.5 0 0 0 3.6 1h-2a.5.5 0 0 0-.5.5v3.2a.5.5 0 0 0 .5.5h2a.5.5 0 0 0 .223-.053l.695-.347zm6.342-2.383C10.986 2.006 10.201 2 9.6 2H6.696l-.91.364A.5.5 0 0 1 5.6 2.4H4.4a.5.5 0 0 1-.224-.053L3.482 2H2.1v2.2h1.382l.694-.347A.5.5 0 0 1 4.4 3.8h1.2a.5.5 0 0 1 .312.11l.738.59h2.116l1.334-1a.5.5 0 0 1 .3-.1h.021c.589 0 1.15 0 1.819.195.337.098.694.244 1.095.454-.483-.87-1.042-1.354-1.569-1.632"/></g><defs><clipPath id="a"><path fill="#fff" d="M0 0H16V16H0z"/></clipPath></defs></svg>