<svg width="16" height="16" viewBox="0 0 16 16" fill="none"><path d="M12.5 15.5v-6M9.902 14l5.196-3m0 3-5.196-3" stroke="#3574F0" stroke-linecap="round"/><path d="M3 5.414V13a2 2 0 0 0 2 2h3.758A4.5 4.5 0 0 1 13 8.027V3a2 2 0 0 0-2-2H7.414a1 1 0 0 0-.707.293L3.293 4.707A1 1 0 0 0 3 5.414" fill="#EBECF0"/><path fill-rule="evenodd" clip-rule="evenodd" d="M3 5.414V13a2 2 0 0 0 2 2h3.758a4.5 4.5 0 0 1-.502-1H5a1 1 0 0 1-1-1V6h2a2 2 0 0 0 2-2V2h3a1 1 0 0 1 1 1v5.027a4.6 4.6 0 0 1 1 0V3a2 2 0 0 0-2-2H7.414a1 1 0 0 0-.707.293L3.293 4.707A1 1 0 0 0 3 5.414m4-3L4.414 5H6a1 1 0 0 0 1-1z" fill="#6C707E"/></svg>