<svg viewBox="0 0 16 16" fill="none" xmlns="http://www.w3.org/2000/svg">
  <path fill-rule="evenodd" clip-rule="evenodd" d="M0 4a2 2 0 0 1 2-2h12a2 2 0 0 1 2 2v8a2 2 0 0 1-2 2H2a2 2 0 0 1-2-2zm2-1h12a1 1 0 0 1 1 1v1H1V4a1 1 0 0 1 1-1M1 6v6a1 1 0 0 0 1 1h12a1 1 0 0 0 1-1V6z" fill="#6C707E"></path><path d="M2 11.013h.819a.6.6 0 0 0 .297-.07.5.5 0 0 0 .204-.203.6.6 0 0 0 .073-.301V7.1H4.45v3.42q0 .434-.192.77a1.34 1.34 0 0 1-.533.525A1.6 1.6 0 0 1 2.95 12H2zM5.482 7.1h2.142q.528 0 .927.192.399.193.616.543t.217.808q0 .462-.22.82a1.47 1.47 0 0 1-.627.549q-.402.196-.941.196H6.539V12H5.482zM7.54 9.336a.94.94 0 0 0 .402-.08.6.6 0 0 0 .263-.238.7.7 0 0 0 .09-.368.7.7 0 0 0-.09-.36.58.58 0 0 0-.263-.238.9.9 0 0 0-.402-.084H6.539v1.368zM10.908 7.1h1.158l1.796 4.9h-1.064l-.375-1.092h-1.83L10.243 12H9.158zm1.246 3-.613-1.747-.066-.312-.07.312-.57 1.747z" fill="#6C707E"></path>
</svg>
