<svg viewBox="0 0 16 16" fill="none" xmlns="http://www.w3.org/2000/svg">
  <circle cx="12.5" cy="12.5" r="3.5" fill="#EBECF0"></circle><path fill-rule="evenodd" clip-rule="evenodd" d="M11.433 9.651a.5.5 0 0 1-.183.683c-.334.194-.62.463-.834.784a2.5 2.5 0 1 0 3.333-.784.5.5 0 1 1 .501-.865c.469.27.868.646 1.166 1.095a3.5 3.5 0 1 1-4.667-1.096.5.5 0 0 1 .684.183" fill="#CED0D6"></path><path fill-rule="evenodd" clip-rule="evenodd" d="M12.5 8a.5.5 0 0 1 .5.5v3a.5.5 0 0 1-1 0v-3a.5.5 0 0 1 .5-.5" fill="#CED0D6"></path><path d="M14.962 8.733a7 7 0 1 0-6.23 6.23A4.5 4.5 0 0 1 8 12.5c0-.918.276-1.776.75-2.49a4.5 4.5 0 0 1 1.499-1.407c.238-.138.498-.203.754-.202a1.5 1.5 0 0 1 2.994 0c.256 0 .516.064.754.202q.108.062.211.13" fill="#25324D"></path><path d="M8.254 13.995a6 6 0 1 1 5.737-5.661l.006.067c.256 0 .516.064.754.202q.108.062.211.13a7 7 0 1 0-6.23 6.23 4.5 4.5 0 0 1-.478-.968" fill="#548AF7"></path><path d="M8.132 10.577q.158 0 .307-.018a4.5 4.5 0 0 0-.327.94 3.4 3.4 0 0 1-1.325-.27c-1.203-.517-2-1.73-2-3.229 0-2.006 1.426-3.5 3.345-3.5 1.082 0 2.051.474 2.621 1.223l-.745.615c-.383-.548-1.061-.915-1.876-.915-1.339 0-2.306 1.074-2.306 2.577 0 1.15.567 2.049 1.432 2.408.266.11.56.169.874.169" fill="#548AF7"></path>
</svg>
