<svg viewBox="0 0 11 11" fill="none" xmlns="http://www.w3.org/2000/svg">
  <path d="M4.095 1.974 5 2.879V2.5a.5.5 0 0 1 1 0v1.379l1 1V2.5a1.5 1.5 0 0 0-2.905-.526M4 4.707V5.5a1.5 1.5 0 0 0 2.147 1.354l.732.732A2.5 2.5 0 0 1 3 5.5a.5.5 0 0 0-1 0 3.5 3.5 0 0 0 3 3.465V9.5a.5.5 0 0 0 1 0v-.535a3.5 3.5 0 0 0 1.596-.662l.55.55a.5.5 0 1 0 .708-.707l-6-6a.5.5 0 1 0-.708.708zM7.975 5.854l.822.822C8.93 6.31 9 5.913 9 5.5a.5.5 0 0 0-1 0q0 .18-.025.354" fill="#DB3B4B"></path><path d="M4.096 1.974 5 2.879V2.5a.5.5 0 1 1 1 0v1.379l1 1" fill="#FFF7F7"></path>
</svg>
