<svg viewBox="0 0 16 16" fill="none" xmlns="http://www.w3.org/2000/svg">
  <path fill-rule="evenodd" clip-rule="evenodd" d="M10 11V9h1.537c.766 0 1.463.313 1.463.954S12.285 11 11.547 11zm2.36.828c.815-.238 1.64-.718 1.64-1.915S12.949 8 11.622 8H9v6h1v-2h1.328l1.445 2H14z" fill="#E66D17"></path><path fill-rule="evenodd" clip-rule="evenodd" d="M15.5 10a.5.5 0 0 1 .5.5V15a1 1 0 0 1-1 1h-3.5a.5.5 0 0 1 0-1H15v-4.5a.5.5 0 0 1 .5-.5" fill="#3574F0"></path><path d="M1 3.867C1 2.836 1.731 2 2.633 2h3.489a1 1 0 0 1 .721.308L8.467 4H13a2 2 0 0 1 2 2v1H8v7H2.633C1.731 14 1 13.164 1 12.133z" fill="#EBECF0"></path><path d="M2.633 3h3.489L8.04 5H13a1 1 0 0 1 1 1v1h1V6a2 2 0 0 0-2-2H8.467L6.843 2.308A1 1 0 0 0 6.122 2H2.633C1.731 2 1 2.836 1 3.867v8.266C1 13.164 1.731 14 2.633 14H8v-1H2.633C2.405 13 2 12.742 2 12.133V3.867C2 3.258 2.405 3 2.633 3" fill="#6C707E"></path>
</svg>
