<svg viewBox="0 0 16 16" fill="none" xmlns="http://www.w3.org/2000/svg">
  <rect x="2.5" y="2.5" width="11" height="11" rx="1.5" fill="#45322B" stroke="#C77D55"></rect><path d="M7.85 11.72q-.585 0-1.075-.185a2.1 2.1 0 0 1-.81-.515 1.46 1.46 0 0 1-.4-.765h.965q.1.21.295.355t.455.22.54.075q.45 0 .785-.185.34-.18.52-.51a1.5 1.5 0 0 0 .185-.755V9.24l.04-1.46.415-.47q-.01.675-.29 1.2a2.05 2.05 0 0 1-.77.81q-.485.29-1.1.29-.64 0-1.165-.31a2.2 2.2 0 0 1-.815-.865A2.6 2.6 0 0 1 5.33 7.19q0-.69.295-1.245t.815-.87q.525-.315 1.165-.315.615 0 1.1.295.49.295.77.825.28.525.29 1.205l-.415-.42V4.88h.955l-.015 4.575q0 .665-.305 1.18-.305.52-.86.8-.555.285-1.275.285m-.02-2.95q.42 0 .755-.205.34-.205.535-.565.2-.364.2-.81 0-.45-.2-.81a1.46 1.46 0 0 0-.535-.565 1.4 1.4 0 0 0-.755-.21q-.425 0-.765.21a1.4 1.4 0 0 0-.53.565q-.19.36-.19.81 0 .446.19.81.19.36.53.565t.765.205" fill="#C77D55"></path>
</svg>
