<svg width="20" height="20" viewBox="0 0 20 20" fill="none"><path fill-rule="evenodd" clip-rule="evenodd" d="M3 2a2 2 0 0 0-2 2v12a2 2 0 0 0 2 2h5V7.5h4v3.706a6.1 6.1 0 0 1 1.5-.545V7.5h4v3.474c.573.235 1.07.542 1.5.884V4a2 2 0 0 0-2-2zm3.5 1.5H3a.5.5 0 0 0-.5.5v2h4zm1.5 0V6h4V3.5zm5.5 0V6h4V4a.5.5 0 0 0-.5-.5zm-7 13v-9h-4V16a.5.5 0 0 0 .5.5z" fill="#CED0D6"/><path d="M15 17.5a1.5 1.5 0 1 0 0-3 1.5 1.5 0 0 0 0 3" fill="#CED0D6"/><path fill-rule="evenodd" clip-rule="evenodd" d="M20 16s-1-4-5-4-5 4-5 4 1 4 5 4 5-4 5-4m-1.584 0-.02-.048A5 5 0 0 0 17.8 14.9c-.545-.727-1.39-1.4-2.8-1.4s-2.255.673-2.8 1.4c-.282.376-.475.76-.597 1.052l-.02.048.02.048c.122.292.315.676.597 1.052.545.727 1.39 1.4 2.8 1.4s2.255-.673 2.8-1.4c.282-.376.475-.76.597-1.052z" fill="#CED0D6"/></svg>