<svg viewBox="0 0 16 16" fill="none" xmlns="http://www.w3.org/2000/svg">
  <g clip-path="url(#a)"><path d="M2.5 3a.5.5 0 0 0 0 1h10a.5.5 0 0 0 0-1zM2.5 6a.5.5 0 0 0 0 1h5a.5.5 0 0 0 0-1zM2 9.5a.5.5 0 0 1 .5-.5h3a.5.5 0 0 1 0 1h-3a.5.5 0 0 1-.5-.5M2.5 12a.5.5 0 0 0 0 1h5a.5.5 0 0 0 0-1z" fill="#CED0D6"></path><path d="M10.854 7.854a.5.5 0 0 0-.708-.708l-2 2a.5.5 0 0 0 0 .708l2 2a.5.5 0 0 0 .708-.708L9.707 10H14.5a.5.5 0 0 0 0-1H9.707z" fill="#548AF7"></path></g><defs><clipPath id="a"><path fill="#fff" d="M0 0H16V16H0z"></path></clipPath></defs>
</svg>
