<svg width="16" height="16" viewBox="0 0 16 16" fill="none"><g clip-path="url(#a)"><g clip-path="url(#b)"><path d="m3 7.5 3 3L12.5 4" stroke="#55A76A" stroke-width="2" stroke-linecap="round" stroke-linejoin="round"/><path fill-rule="evenodd" clip-rule="evenodd" d="M16 12.5a3.5 3.5 0 1 1-7 0 3.5 3.5 0 0 1 7 0m-1 0a2.5 2.5 0 0 1-3.879 2.086l3.465-3.465c.262.396.414.87.414 1.379m-4.586 1.379 3.465-3.465a2.5 2.5 0 0 0-3.465 3.465" fill="#CED0D6"/></g></g><defs><clipPath id="a"><path fill="#fff" d="M0 0H16V16H0z"/></clipPath><clipPath id="b"><path fill="#fff" d="M0 0H16V16H0z"/></clipPath></defs></svg>