<svg viewBox="0 0 16 16" fill="none" xmlns="http://www.w3.org/2000/svg">
  <path fill-rule="evenodd" clip-rule="evenodd" d="M2.176 4.929c-.14.147-.176.263-.176.345s.035.198.176.346c.143.15.374.308.698.452.647.286 1.575.476 2.626.476s1.98-.19 2.626-.476c.324-.144.555-.302.698-.452.14-.148.176-.264.176-.346s-.035-.198-.176-.345c-.143-.15-.374-.309-.698-.452C7.479 4.19 6.55 4 5.5 4s-1.98.19-2.626.477c-.324.143-.555.301-.698.452M9 6.742q-.22.134-.469.244c-.801.355-1.873.562-3.031.562s-2.23-.207-3.031-.562A4 4 0 0 1 2 6.742v1.016c0 .082.035.198.176.346.143.15.374.308.698.452.647.286 1.575.476 2.626.476s1.98-.19 2.626-.476c.324-.144.555-.302.698-.452.14-.148.176-.264.176-.346zm1-1.468c0-.408-.189-.759-.452-1.035-.262-.275-.617-.499-1.017-.676C7.73 3.207 6.658 3 5.5 3s-2.23.207-3.031.563c-.4.177-.755.401-1.017.676C1.19 4.515 1 4.866 1 5.274v7.452c0 .408.189.759.452 1.035.262.275.617.499 1.017.676.801.356 1.873.563 3.031.563s2.23-.207 3.031-.563c.4-.177.755-.401 1.017-.675.263-.277.452-.628.452-1.036zM9 9.226q-.22.134-.469.244c-.801.355-1.873.563-3.031.563s-2.23-.208-3.031-.563A4 4 0 0 1 2 9.226v1.016c0 .082.035.198.176.345.143.15.374.309.698.452.647.287 1.575.477 2.626.477s1.98-.19 2.626-.477c.324-.143.555-.301.698-.451.14-.148.176-.264.176-.346zm0 2.484q-.22.134-.469.243c-.801.356-1.873.563-3.031.563s-2.23-.207-3.031-.562A4 4 0 0 1 2 11.71v1.016c0 .082.035.198.176.345.143.15.374.309.698.452C3.521 13.81 4.45 14 5.5 14s1.98-.19 2.626-.477c.324-.143.555-.301.698-.452.14-.147.176-.263.176-.345z" fill="#CED0D6"></path><path d="M10.88 4.54c.894-.04 1.678-.217 2.245-.468.324-.144.555-.302.698-.452.141-.148.177-.264.177-.346s-.036-.198-.177-.345c-.143-.15-.374-.309-.698-.452C12.48 2.19 11.551 2 10.5 2c-.906 0-1.72.141-2.342.364a8.7 8.7 0 0 0-1.517-.302c.233-.195.517-.362.827-.5C8.27 1.208 9.342 1 10.5 1s2.23.207 3.03.563c.4.177.756.401 1.017.676.264.276.453.627.453 1.035v7.452c0 .408-.189.759-.453 1.035-.261.275-.616.499-1.016.676-.688.306-1.576.502-2.546.55q.015-.127.015-.261v-.74c.844-.05 1.584-.222 2.125-.463.324-.143.555-.301.698-.452.141-.147.177-.263.177-.345V9.71q-.22.134-.47.244c-.684.303-1.566.499-2.53.55V9.501c.844-.05 1.584-.222 2.125-.463.324-.143.555-.301.698-.452.141-.147.177-.263.177-.345V7.226q-.22.134-.47.244c-.684.304-1.566.499-2.53.55V7.017c.844-.05 1.584-.222 2.125-.462.324-.144.555-.302.698-.452.141-.148.177-.264.177-.346V4.742q-.22.134-.47.244c-.684.303-1.566.499-2.53.55v-.262c0-.264-.045-.51-.12-.734" fill="#CED0D6"></path><path d="M2 5.274c0-.082.035-.198.176-.345.143-.15.374-.309.698-.452C3.521 4.19 4.45 4 5.5 4s1.98.19 2.626.477c.324.143.555.301.698.452.14.147.176.263.176.345s-.035.198-.176.346c-.143.15-.374.308-.698.452-.647.286-1.575.476-2.626.476s-1.98-.19-2.626-.476c-.324-.144-.555-.302-.698-.452C2.036 5.472 2 5.356 2 5.274M8.531 6.986q.249-.11.469-.244v1.016c0 .082-.035.198-.176.346-.143.15-.374.308-.698.452-.647.286-1.575.476-2.626.476s-1.98-.19-2.626-.476c-.324-.144-.555-.302-.698-.452C2.036 7.956 2 7.84 2 7.758V6.742q.22.134.469.244c.801.355 1.873.562 3.031.562s2.23-.207 3.031-.562M8.531 9.47q.249-.11.469-.244v1.016c0 .082-.035.198-.176.345-.143.15-.374.309-.698.452-.647.287-1.575.477-2.626.477s-1.98-.19-2.626-.477c-.324-.143-.555-.301-.698-.451-.14-.148-.176-.264-.176-.346V9.226q.22.134.469.244c.801.355 1.873.563 3.031.563s2.23-.208 3.031-.563M8.531 11.954q.249-.11.469-.244v1.016c0 .082-.035.198-.176.345-.143.15-.374.309-.698.452C7.479 13.81 6.55 14 5.5 14s-1.98-.19-2.626-.477c-.324-.143-.555-.301-.698-.452-.14-.147-.176-.263-.176-.345V11.71q.22.134.469.243c.801.356 1.873.563 3.031.563s2.23-.207 3.031-.562" fill="#43454A"></path>
</svg>
