<svg width="16" height="16" viewBox="0 0 16 16" fill="none"><path fill-rule="evenodd" clip-rule="evenodd" d="m2.403 2.161-.252-1.14.196-.044a7.59 7.59 0 0 1 5.586.934 7.586 7.586 0 0 1 5.72-.903l.195.047-.273 1.136-.194-.047a6.3 6.3 0 0 0-1.496-.176 6.4 6.4 0 0 0-2.917.702 7.8 7.8 0 0 1 2.678 5.904 7.8 7.8 0 0 1-3.606 6.595l-.107.068-.107-.068a7.801 7.801 0 0 1-3.605-6.595A7.8 7.8 0 0 1 6.898 2.67a6.418 6.418 0 0 0-4.3-.552zm7.009 2.43A6.8 6.8 0 0 0 7.933 3.08 6.8 6.8 0 0 0 6.43 4.626l-.002.002-.028.042a2.356 2.356 0 0 0-.217.737 1.68 1.68 0 0 0 .24 1.136c.319.491.946 1.087 1.283 1.392.138.124.227.2.227.2s.09-.076.227-.2c.337-.305.965-.9 1.282-1.392a1.68 1.68 0 0 0 .242-1.136 2.4 2.4 0 0 0-.217-.737l-.029-.042-.002-.002zM5.556 7.08q-.166.721-.167 1.495c0 1.854.751 3.529 1.96 4.728V9.399l-.01-.049a1.2 1.2 0 0 0-.107-.254c-.128-.24-.395-.621-.946-1.146a4.9 4.9 0 0 1-.73-.87m2.961 2.323v3.9a6.64 6.64 0 0 0 1.96-4.728q-.002-.773-.167-1.495c-.154.239-.389.547-.73.871-.551.525-.817.906-.946 1.146-.063.12-.093.205-.106.254l-.01.05z" fill="url(#a)"/><defs><radialGradient id="a" cx="0" cy="0" r="1" gradientTransform="matrix(-5.7351 8.76523 -7.10142 -4.54417 10.608 5.44)" gradientUnits="userSpaceOnUse"><stop stop-color="#4AF7EE"/><stop offset=".339" stop-color="#5EA6F2"/><stop offset=".688" stop-color="#746EF7"/><stop offset="1" stop-color="#6A99FB"/></radialGradient></defs></svg>