<svg width="16" height="16" viewBox="0 0 16 16" fill="none"><path d="M13.5.8a.7.7 0 0 1 .7.7v4.7H9.5a.7.7 0 1 1 0-1.4h2.078A4.8 4.8 0 1 0 7 12.696v1.424A6.202 6.202 0 0 1 8 1.8c1.936 0 3.663.887 4.8 2.276V1.5a.7.7 0 0 1 .7-.7" fill="#fff"/><path fill-rule="evenodd" clip-rule="evenodd" d="M10.842 8.244A1.7 1.7 0 0 0 8.3 9.72v4.558a1.7 1.7 0 0 0 2.541 1.477l4-2.279c1.145-.652 1.145-2.302 0-2.954zM9.7 9.72a.3.3 0 0 1 .448-.26l4 2.278a.3.3 0 0 1 0 .522l-4 2.279a.3.3 0 0 1-.448-.26z" fill="#fff"/></svg>