<svg viewBox="0 0 16 16" fill="none" xmlns="http://www.w3.org/2000/svg">
  <path fill-rule="evenodd" clip-rule="evenodd" d="M12.146 9.146a.5.5 0 0 1 .708 0l3 3a.5.5 0 0 1 0 .708l-3 3a.5.5 0 0 1-.708-.708L14.293 13H8.5a.5.5 0 0 1 0-1h5.793l-2.147-2.146a.5.5 0 0 1 0-.708" fill="#3574F0"></path><path d="M4 2a2 2 0 0 0-2 2v8a2 2 0 0 0 2 2h7.878H7v-1H4a1 1 0 0 1-1-1V4a1 1 0 0 1 1-1h8a1 1 0 0 1 1 1v3.878l1 1V4a2 2 0 0 0-2-2z" fill="#6C707E"></path><path d="M10.525 11a.5.5 0 0 0-.025-1h-5a.5.5 0 0 0 0 1h5.025M5 5.5a.5.5 0 0 1 .5-.5h5a.5.5 0 0 1 0 1h-5a.5.5 0 0 1-.5-.5M5.5 7.5a.5.5 0 0 0 0 1h5a.5.5 0 0 0 0-1z" fill="#6C707E"></path>
</svg>
