<svg viewBox="0 0 16 16" fill="none" xmlns="http://www.w3.org/2000/svg">
  <path fill-rule="evenodd" clip-rule="evenodd" d="M14.526 9.453c1.638 1.638 2.09 3.87.434 5.525s-3.972 1.144-5.538-.42c-1.565-1.566-2.03-3.91-.411-5.53 1.62-1.619 3.878-1.212 5.515.425" fill="#FFF4EB"></path><path fill-rule="evenodd" clip-rule="evenodd" d="M14.526 9.453c1.638 1.638 2.09 3.87.434 5.525s-3.972 1.144-5.538-.42c-1.565-1.566-2.03-3.91-.411-5.53 1.62-1.619 3.878-1.212 5.515.425m-.707.708c.699.698 1.086 1.467 1.165 2.161a2.2 2.2 0 0 1-.399 1.556l-4.473-4.473a2.23 2.23 0 0 1 1.543-.391c.7.075 1.472.454 2.164 1.147m-4.415-.05 4.475 4.475a2.26 2.26 0 0 1-1.604.396c-.719-.085-1.49-.477-2.146-1.132-.648-.648-1.032-1.423-1.113-2.148a2.3 2.3 0 0 1 .388-1.591" fill="#E66D17"></path><path d="M3.294 10.709 1.293 8.708a1 1 0 0 1 0-1.414l2-2.001a1 1 0 0 1 1.415 0l2 2a1 1 0 0 1 0 1.415l-2 2a1 1 0 0 1-1.414 0M9.042 7.715a4.23 4.23 0 0 1 2.826-.69c1.103.118 2.152.637 3.034 1.41a1 1 0 0 0-.193-1.141l-2.001-2.001a1 1 0 0 0-1.414 0l-2.001 2a1 1 0 0 0-.251.422" fill="#EDF3FF"></path><path d="M7.294 6.709 5.293 4.708a1 1 0 0 1 0-1.414l2-2.001a1 1 0 0 1 1.415 0l2 2a1 1 0 0 1 0 1.415l-2 2a1 1 0 0 1-1.414 0M5.293 12.708l2 2a1 1 0 0 0 1.102.213c-.742-.86-1.245-1.903-1.367-2.997-.11-.99.097-1.995.684-2.882a1 1 0 0 0-.418.25l-2.001 2.002a1 1 0 0 0 0 1.414" fill="#EBECF0"></path><path fill-rule="evenodd" clip-rule="evenodd" d="M3.294 10.709 1.293 8.708a1 1 0 0 1 0-1.414l2-2.001a1 1 0 0 1 1.415 0l2 2a1 1 0 0 1 0 1.415l-2 2a1 1 0 0 1-1.414 0M2 8l2 2 2.002-2L4 6z" fill="#3574F0"></path><path d="M9.042 7.715a4.2 4.2 0 0 1 1.939-.695L12 6l1.5 1.5c.498.24.97.557 1.401.936a1 1 0 0 0-.193-1.142l-2.001-2.001a1 1 0 0 0-1.414 0l-2.001 2a1 1 0 0 0-.251.422" fill="#3574F0"></path><path fill-rule="evenodd" clip-rule="evenodd" d="M7.294 6.709 5.293 4.708a1 1 0 0 1 0-1.414l2-2.001a1 1 0 0 1 1.415 0l2 2a1 1 0 0 1 0 1.415l-2 2a1 1 0 0 1-1.414 0M6 4l2 2 2.002-2L8 2z" fill="#6C707E"></path><path d="m5.293 12.708 2 2a1 1 0 0 0 1.102.213 6 6 0 0 1-.941-1.466L6 12l1.021-1.022c.067-.672.29-1.332.69-1.937a1 1 0 0 0-.417.25l-2.001 2.002a1 1 0 0 0 0 1.414" fill="#6C707E"></path>
</svg>
