<svg viewBox="0 0 16 16" fill="none" xmlns="http://www.w3.org/2000/svg">
  <path fill-rule="evenodd" clip-rule="evenodd" d="m9.249 12.737 2.027 2.045 2.742-.735.733-2.784-2.027-2.045-2.742.735zm1.316 2.75L8.54 13.44a1 1 0 0 1-.257-.958l.733-2.785a1 1 0 0 1 .708-.711l2.742-.735a1 1 0 0 1 .97.262l2.026 2.045a1 1 0 0 1 .257.958l-.733 2.785a1 1 0 0 1-.708.711l-2.742.735a1 1 0 0 1-.97-.262" fill="#BA9752"></path><path d="M3 13V5.414a1 1 0 0 1 .293-.707l3.414-3.414A1 1 0 0 1 7.414 1H11a2 2 0 0 1 2 2v4.1A5 5 0 0 0 8 15H5a2 2 0 0 1-2-2" fill="#43454A"></path><path fill-rule="evenodd" clip-rule="evenodd" d="M3 13V5.414a1 1 0 0 1 .293-.707l3.414-3.414A1 1 0 0 1 7.414 1H11a2 2 0 0 1 2 2v4.1a5 5 0 0 0-1-.1V3a1 1 0 0 0-1-1H8v2a2 2 0 0 1-2 2H4v7a1 1 0 0 0 1 1h2.416q.235.537.584 1H5a2 2 0 0 1-2-2m1.414-8L7 2.414V4a1 1 0 0 1-1 1z" fill="#CED0D6"></path>
</svg>
