<svg viewBox="0 0 16 16" fill="none" xmlns="http://www.w3.org/2000/svg">
  <path fill-rule="evenodd" clip-rule="evenodd" d="M3 3a1 1 0 0 0-1 1h2a1 1 0 0 0-1-1m1.732 0H10.5A1.5 1.5 0 0 1 12 4.5V8h1V4.5A2.5 2.5 0 0 0 10.5 2H3a2 2 0 0 0-2 2v.5a.5.5 0 0 0 .5.5H4v7a2 2 0 0 0 2 2h2v-1H6a1 1 0 0 1-1-1V4a2 2 0 0 0-.268-1" fill="#6C707E"></path><path d="M10 10h4.645l-1.97 1.97a.75.75 0 0 0 0 1.06l1.97 1.97H10z" fill="#FAF5FF"></path><path fill-rule="evenodd" clip-rule="evenodd" d="M9 10a1 1 0 0 1 1-1h5.248a.75.75 0 0 1 .53 1.28l-2.22 2.22 2.22 2.22a.75.75 0 0 1-.53 1.28H10a1 1 0 0 1-1-1zm5.645 0H10v5h4.645l-1.97-1.97a.75.75 0 0 1 0-1.06z" fill="#834DF0"></path>
</svg>
