<svg viewBox="0 0 40 40" fill="none" xmlns="http://www.w3.org/2000/svg">
  <path d="M6.4 5.22C8.803 3.498 13.977 2.3 19.9 2.3c5.921 0 11.096 1.198 13.498 2.92v30.153c-2.402 1.73-7.577 2.927-13.498 2.927-5.922 0-11.096-1.198-13.499-2.927v-1.534l6.178-1.265a7.436 7.436 0 0 0 5.908-7.672l.356-.074c1.918-.397 3.627-1.494 4.724-3.122a7.33 7.33 0 0 0 1.272-4.555l.37-.074c1.958-.404 3.627-1.69 4.703-3.627.99-1.783 1.326-3.896.936-5.8l-.155-.761a.915.915 0 0 0-1.077-.707L6.4 10.947z" fill="#C00"></path><path d="M15.114 25.596a3.94 3.94 0 0 1-.639 1.91 4.14 4.14 0 0 1-2.63 1.77l-5.438 1.117V14.392l21.17-4.347a5.4 5.4 0 0 1-.606 1.77c-.343.612-1.11 1.689-2.423 1.958l-6.729 1.38c-.915.188-1.534 1.07-1.352 1.984a1.683 1.683 0 0 0 1.992 1.326l3.014-.62a4.05 4.05 0 0 1-3.223 3.667l-6.81 1.4a1.69 1.69 0 0 0 .337 3.338 2 2 0 0 0 .336-.033z" fill="#C00"></path>
</svg>
