<svg width="16" height="16" viewBox="0 0 16 16" fill="none"><g clip-path="url(#a)"><path d="M6.256 14.184c.235-.157-.382-.098-.433-.203a4 4 0 0 1-.723-.13c-.443-.113-1.493-.823-1.604-1.49-.11-.665 0-1.959.47-2.717.299-.465.684-.869 1.134-1.19 0 0-.914-2.174-.994-3.817C4.026 2.995 4.145.054 5.231 0s.894 2.685.722 4.466A23 23 0 0 0 5.9 8.024 5 5 0 0 1 7.31 7.79q.635-.014 1.256.118s.338-2.527 1.47-4.1c1.133-1.573 2.306-3.192 3.075-2.733.768.458-.208 2.098-.887 2.951s-1.857 2.134-2.25 2.818a12 12 0 0 0-.678 1.412c.7.36 1.271.924 1.64 1.62.53 1.096.581 2.456.294 3.03a2.08 2.08 0 0 1-1.437 1.025c-.338.026-1.77.38-1.77.38z" fill="#fff"/><path d="M8.756 7.927s.853-2.229 1.62-3.484c.765-1.256 1.793-2.201 2.115-2.009s-.66 1.37-1.516 2.516a29 29 0 0 0-1.907 3.17zM5.333 8.311l.243-.192s-.033-2.229 0-3.587c.034-1.357.105-3.051-.348-3.033-.454.018-.769 1.32-.592 3.172.13 1.23.364 2.448.697 3.64" fill="#DD00A1"/><path d="M4.566 13.095a.497.497 0 1 0 0-.994.497.497 0 0 0 0 .994M10.438 13.095a.497.497 0 1 0 0-.995.497.497 0 0 0 0 .995" fill="#F9D8D2"/><path d="M8.328 12.554a.05.05 0 0 0-.064 0s-.146.256-.362.272a.54.54 0 0 1-.384-.18v-.348c.138-.075.361-.305.361-.384a.36.36 0 0 0-.384-.28c-.256 0-.436.167-.436.305s.282.315.362.369v.372a.45.45 0 0 1-.333.179c-.205 0-.359-.277-.359-.28a.05.05 0 0 0-.064-.02.046.046 0 0 0-.02.059c0 .015.181.33.443.33a.53.53 0 0 0 .384-.184.63.63 0 0 0 .407.187h.036a.63.63 0 0 0 .438-.32.046.046 0 0 0 0-.064.1.1 0 0 0-.025-.013" fill="#10110E"/><path d="M5.1 8.455S4.4 6.66 4.252 5.71s-.257-2.506-.077-3.549q.108-.725.305-1.432s-.336 2.432-.21 3.495c.125 1.063.83 4.23.83 4.23M8.566 7.904S9.08 5.19 9.824 4.122c.746-1.068 1.68-2.354 2.14-2.682l.466-.328s-1.88 1.962-2.606 3.587C9.1 6.323 8.566 7.904 8.566 7.904" fill="#E5E5E5"/><path d="M5.579 10.978a.39.39 0 1 0 .005 0zm.102.361a.108.108 0 1 1 .108-.107.11.11 0 0 1-.105.11zM9.409 10.978a.39.39 0 1 0-.006.779.39.39 0 0 0 .006-.779m.115.361a.1.1 0 0 1-.077-.03.1.1 0 0 1-.033-.074.11.11 0 0 1 .105-.11.11.11 0 0 1 .11.104.105.105 0 0 1-.103.108z" fill="#10110E"/><path opacity=".2" d="M7.567 14.12c1.995 0 3.612-1.166 3.612-2.604 0-1.437-1.617-2.603-3.612-2.603s-3.613 1.166-3.613 2.603 1.617 2.603 3.613 2.603" fill="#8ACCCE"/><path d="M11.94 10.069V8.347a.63.63 0 0 0 .49-.587.68.68 0 0 0-1.35 0 .636.636 0 0 0 .494.587v1.678h-.052c-.512-1.778-2.026-2.89-4.004-2.89s-3.5 1.102-4.002 2.89h-.172a.707.707 0 0 0-.738.661v1.317a.705.705 0 0 0 .738.664h.233c.196.504.512.954.92 1.309l-.33.3a.2.2 0 0 0-.023.281c.75.905 1.978 1.435 3.364 1.435s2.616-.512 3.366-1.435a.2.2 0 0 0-.023-.284l-.333-.305c.407-.353.723-.8.92-1.301h.256a.7.7 0 0 0 .735-.666v-1.315a.66.66 0 0 0-.489-.617M7.518 9.044c1.83 0 3.315 1.204 3.315 2.682 0 1.602-1.668 2.306-3.315 2.306s-3.315-.71-3.315-2.318c0-1.466 1.478-2.683 3.315-2.683z" fill="#fff"/><path d="M12.064 11.57h-.49v-.256a4.8 4.8 0 0 0-.1-.971h.21a.346.346 0 0 1 .37.32zM11.694 12.344h-.256q.073-.276.108-.559h.512v.218a.343.343 0 0 1-.348.338h-.016zM7.519 15.654c-1.228 0-2.322-.44-3.008-1.225l.333-.31a4.58 4.58 0 0 0 2.664.769 4.54 4.54 0 0 0 2.665-.769l.346.31c-.68.784-1.763 1.225-3 1.225M3.345 10.356h.217q-.096.481-.097.97-.007.13 0 .257H2.99v-.897a.325.325 0 0 1 .317-.33z" fill="#515151"/><path d="M7.518 8.81a4.5 4.5 0 0 0-1.227.178v-1.34c.4-.112.813-.167 1.227-.164.416-.003.83.052 1.23.164v1.347a4 4 0 0 0-1.23-.184" fill="#000"/><path d="M2.975 11.785h.513a5 5 0 0 0 .11.554h-.256a.346.346 0 0 1-.37-.32v-.234zM11.756 8.037c.17 0 .307-.124.307-.277 0-.152-.138-.276-.307-.276-.17 0-.308.124-.308.276s.138.277.308.277" fill="#515151"/></g><defs><clipPath id="a"><path fill="#fff" d="M0 0H16V16H0z"/></clipPath></defs></svg>