<svg width="16" height="16" viewBox="0 0 16 16" fill="none"><g clip-path="url(#a)"><path d="M6.256 14.184c.235-.157-.382-.098-.433-.203a4 4 0 0 1-.723-.13c-.443-.113-1.493-.823-1.604-1.49-.11-.665 0-1.959.47-2.717.299-.465.684-.869 1.134-1.19 0 0-.914-2.174-.994-3.817C4.026 2.995 4.145.054 5.231 0s.894 2.685.722 4.466c-.11 1.183-.074 3.54 0 4.726 1.941-.566 2.9-.092 2.9-.092s.031-1.532.444-1.444l-.65-.217c.155-.805.558-2.476 1.39-3.632 1.133-1.573 2.306-3.192 3.075-2.733.768.458-.208 2.098-.887 2.951s-1.857 2.134-2.25 2.818a12 12 0 0 0-.678 1.412c.7.36 1.271.924 1.64 1.62.53 1.096.581 2.456.294 3.03a2.08 2.08 0 0 1-1.437 1.025c-.338.026-1.77.38-1.77.38z" fill="#515151"/><path d="M8.756 7.927s.853-2.229 1.62-3.484c.765-1.256 1.793-2.201 2.115-2.009s-.66 1.37-1.516 2.516a29 29 0 0 0-1.907 3.17zM5.333 8.311l.243-.192s-.033-2.229 0-3.587c.034-1.357.105-3.051-.348-3.033-.454.018-.769 1.32-.592 3.172.13 1.23.364 2.448.697 3.64" fill="#DD00A1"/><path d="M7.567 14.12c1.995 0 3.612-1.166 3.612-2.604 0-1.437-1.617-2.603-3.612-2.603s-3.613 1.166-3.613 2.603 1.617 2.603 3.613 2.603" fill="#E8F5F5"/><path d="M4.566 13.095a.497.497 0 1 0 0-.994.497.497 0 0 0 0 .994M10.44 13.095a.497.497 0 1 0 0-.995.497.497 0 0 0 0 .995" fill="#F9D8D2"/><path d="M8.328 12.554a.05.05 0 0 0-.064 0s-.146.256-.362.272a.54.54 0 0 1-.384-.18v-.348c.138-.075.361-.305.361-.384a.36.36 0 0 0-.384-.28c-.256 0-.436.167-.436.305s.282.315.362.369v.372a.45.45 0 0 1-.333.179c-.205 0-.359-.277-.359-.28a.05.05 0 0 0-.064-.02.046.046 0 0 0-.02.059c0 .015.181.33.443.33a.53.53 0 0 0 .384-.184.63.63 0 0 0 .407.187h.036a.63.63 0 0 0 .438-.32.046.046 0 0 0 0-.064.1.1 0 0 0-.025-.013M5.579 10.978a.39.39 0 1 0 .005 0zm.102.361a.108.108 0 1 1 .108-.107.11.11 0 0 1-.105.11zM9.409 10.978a.39.39 0 1 0-.006.779.39.39 0 0 0 .006-.779m.115.361a.1.1 0 0 1-.077-.03.1.1 0 0 1-.033-.074.11.11 0 0 1 .105-.11.11.11 0 0 1 .11.104.105.105 0 0 1-.103.108z" fill="#10110E"/><path fill-rule="evenodd" clip-rule="evenodd" d="M11.941 8.347v1.722a.66.66 0 0 1 .49.617v1.315a.7.7 0 0 1-.736.666h-.256a3.3 3.3 0 0 1-.92 1.301l.333.305a.203.203 0 0 1 .023.284c-.75.923-1.98 1.435-3.366 1.435s-2.614-.53-3.364-1.435a.2.2 0 0 1 .023-.281l.33-.3a3.3 3.3 0 0 1-.92-1.31h-.233a.704.704 0 0 1-.738-.663v-1.317a.707.707 0 0 1 .738-.66h.172c.502-1.79 2.024-2.89 4.002-2.89s3.492 1.111 4.004 2.89h.052V8.346a.636.636 0 0 1-.495-.587.679.679 0 0 1 1.35 0 .63.63 0 0 1-.489.587m-1.107 3.38c0-1.479-1.486-2.683-3.315-2.683v-.013c-1.837 0-3.315 1.217-3.315 2.683 0 1.609 1.667 2.318 3.315 2.318s3.315-.704 3.315-2.306M7.52 8.81a4.5 4.5 0 0 0-1.227.177v-1.34c.399-.112.812-.168 1.227-.164.415-.004.83.052 1.23.164v1.347a4 4 0 0 0-1.23-.184m4.545 2.76h-.49v-.257q0-.49-.1-.971h.21a.346.346 0 0 1 .37.32zm-.625.773h.256v-.003h.015a.344.344 0 0 0 .349-.338v-.218h-.513a4 4 0 0 1-.107.559m-3.92 3.31c-1.227 0-2.321-.44-3.008-1.225l.333-.31a4.58 4.58 0 0 0 2.665.769 4.54 4.54 0 0 0 2.664-.769l.346.31c-.679.784-1.763 1.225-3 1.225m-4.053-4.327q0-.49.097-.971h-.256a.325.325 0 0 0-.318.33v.897h.477a2 2 0 0 1 0-.256m.023.458q.038.28.11.554h-.256a.346.346 0 0 1-.37-.32v-.234zm8.575-4.025c0 .153-.138.277-.307.277-.17 0-.308-.124-.308-.277 0-.152.138-.276.308-.276s.307.124.307.276" fill="#515151"/></g><defs><clipPath id="a"><path fill="#fff" d="M0 0H16V16H0z"/></clipPath></defs></svg>