<svg viewBox="0 0 16 16" fill="none" xmlns="http://www.w3.org/2000/svg">
  <path d="M15.421 14.726C16.79 12.78 15.304 9 15.304 9s-.603 1.309-2.255 1.917c-1.444.53-2.408.084-3.577.662C8.49 12.064 8 12.819 8 13.955c0 .694.324 1.148.821 1.448 5.12-.677 6.08-3.91 6.08-3.91s-.537 3.444-4.932 4.32c.653.132 1.381.166 2.039.183 1.424.038 2.67-.212 3.413-1.27" fill="#55A76A"></path><path d="m14.969 7.336-.57 1.238-.007.013q-.015.03-.057.098a3 3 0 0 1-.288.382 3.3 3.3 0 0 1-1.343.911c-.554.204-1.009.226-1.575.252l-.02.001c-.57.027-1.292.062-2.08.451-.619.306-1.145.73-1.509 1.31-.364.582-.52 1.248-.52 1.963 0 .37.063.702.176.997a7.001 7.001 0 1 1 7.793-7.616" fill="#EDF3FF"></path><path d="M11.212 9.325c-.314 1.276-1.59 2.175-3.08 2.175-1.919 0-3.345-1.494-3.345-3.5s1.426-3.5 3.345-3.5c1.49 0 2.766.9 3.08 2.175h-1.015c-.315-.73-1.093-1.252-2.065-1.252-1.339 0-2.306 1.074-2.306 2.577s.967 2.577 2.306 2.577c.972 0 1.75-.522 2.065-1.252z" fill="#3574F0"></path><path d="M13.869 9.253Q13.999 8.646 14 8a6 6 0 1 0-7 5.917v.038c0 .37.063.702.176.997a7.001 7.001 0 1 1 7.793-7.616l-.57 1.238-.007.013q-.015.03-.057.098a3 3 0 0 1-.466.568" fill="#3574F0"></path>
</svg>
