<svg width="20" height="20" viewBox="0 0 20 20" fill="none"><path fill-rule="evenodd" clip-rule="evenodd" d="M19 10a9 9 0 1 1-18 0 9 9 0 0 1 18 0m-2.654 4A7.5 7.5 0 0 1 10 17.5 7.5 7.5 0 0 1 3.655 14h6.428c.06 0 .101-.021.101-.077v-1.856c0-.056-.04-.067-.101-.067H8.508v-1.416h1.703c.155 0 .831.045 1.047.913.012.046.026.156.041.279.017.134.036.284.057.385.066.33.145.545.208.718l.012.033c.101.312.513 1.094.952 1.094L15.304 14zm.884-2h-2.204c-.345 0-.734-.405-.812-.845-.151-.855-.486-1.127-.999-1.534l-.035-.028c.662-.423 1.35-1.047 1.35-1.882 0-.902-.614-1.47-1.033-1.749-.588-.39-1.239-.468-1.414-.468h-8.08A7.5 7.5 0 0 1 17.23 12M2.927 7.5A7.5 7.5 0 0 0 2.5 10c0 .693.094 1.363.27 2h2.778V7.5zm5.582.044V8.79h2.06c.44 0 .973-.156.973-.59 0-.524-.696-.657-.81-.657z" fill="#CED0D6"/></svg>