<svg width="20" height="20" viewBox="0 0 20 20" fill="none"><path d="M8.342 3.61h2.66v12.195c-1.362.258-2.366.36-3.451.36-3.25-.004-4.942-1.456-4.942-4.244 0-2.687 1.795-4.43 4.575-4.43.432 0 .76.034 1.158.135zm.093 6.214a2.7 2.7 0 0 0-.897-.136c-1.346 0-2.123.821-2.123 2.26 0 1.4.743 2.174 2.106 2.174.294 0 .534-.017.914-.068zM15.662 7.818v6.106c0 2.103-.158 3.114-.62 3.986-.432.838-1 1.366-2.175 1.95l-2.469-1.163c1.175-.546 1.743-1.028 2.106-1.765.38-.752.5-1.624.5-3.917V7.818zM13.004 3.61h2.661v2.704h-2.66z" fill="#6C707E"/></svg>