<svg viewBox="0 0 16 16" fill="none" xmlns="http://www.w3.org/2000/svg">
  <path d="M10.71 14.71c-.24-.597-.403-1.362-.449-2.21H9.04c.164.98.803 1.798 1.672 2.21M11.676 14.428c-.206-.473-.365-1.143-.413-1.928h1.47c-.049.785-.207 1.455-.414 1.928-.119.271-.236.437-.321.525-.086-.088-.203-.254-.322-.525M11.676 9.572c-.206.473-.365 1.143-.413 1.928h1.47c-.049-.785-.207-1.455-.414-1.928-.119-.271-.236-.437-.321-.525-.086.088-.203.254-.322.525M13.285 14.71c.24-.597.403-1.362.449-2.21h1.222a3 3 0 0 1-1.671 2.21M13.734 11.5h1.222a3 3 0 0 0-1.671-2.21c.24.597.403 1.362.449 2.21M9.04 11.5h1.221c.046-.848.209-1.613.45-2.21a3 3 0 0 0-1.672 2.21" fill="#43454A"></path><path fill-rule="evenodd" clip-rule="evenodd" d="M16 12a4 4 0 1 0-8 0 4 4 0 0 0 8 0m-5.736.5c.046.848.208 1.613.45 2.21A3 3 0 0 1 9.04 12.5zm1.001 0c.048.785.207 1.455.414 1.928.118.271.236.437.321.525.085-.088.203-.254.321-.525.207-.473.366-1.143.414-1.928zm1.47-1h-1.47c.048-.785.207-1.455.414-1.928.118-.271.236-.437.321-.525.085.088.203.254.321.525.207.473.366 1.143.414 1.928m1.002 1c-.047.848-.21 1.613-.45 2.21a3 3 0 0 0 1.672-2.21zm1.222-1h-1.223c-.046-.848-.208-1.613-.45-2.21a3 3 0 0 1 1.673 2.21m-4.695 0H9.04a3 3 0 0 1 1.672-2.21c-.24.597-.403 1.362-.45 2.21" fill="#CED0D6"></path><path d="m10.272 3.379-6.897-.006 4.551-2.182c.544-.255 1.208-.362 1.952.382l2.138 2.138c-.335-.335-.856-.333-1.486-.332zM8.466 8.464 3.375 3.373l.006 6.898v.257c-.001.631-.002 1.152.332 1.486l.51.512L6.697 15H8a4.98 4.98 0 0 1-1-3c0-1.38.56-2.63 1.465-3.536" fill="#29B6F6"></path><path d="m3.373 3.374.006 6.897v.258c-.001.63-.002 1.151.332 1.486L1.573 9.877c-.745-.744-.637-1.408-.382-1.951zM15 8V6.697l-2.474-2.474-.511-.512c-.335-.335-.855-.334-1.486-.332h-.257l-6.899-.005 5.091 5.09A4.98 4.98 0 0 1 12 7c1.126 0 2.165.372 3 1" fill="#01579B"></path>
</svg>
