<svg width="20" height="20" viewBox="0 0 20 20" fill="none"><path fill-rule="evenodd" clip-rule="evenodd" d="M10 17.443a.86.86 0 0 1-.673-.206c-2.559-2.373-5.434-1.33-7.048-.387-.523.305-1.279-.063-1.279-.668V4.097c0-.368.2-.704.536-.853 1.48-.655 5.697-2.167 8.464.403 2.767-2.57 6.985-1.058 8.464-.403a.92.92 0 0 1 .536.853v12.085c0 .605-.756.974-1.28.668-1.613-.943-4.488-1.986-7.046.387a.86.86 0 0 1-.674.206m-.75-12.42c-.933-1.046-2.152-1.361-3.455-1.316-1.273.044-2.503.44-3.295.758v10.584c.801-.362 1.776-.675 2.85-.746a6.4 6.4 0 0 1 3.9.986zm1.5 10.266a6.4 6.4 0 0 1 3.9-.986c1.074.071 2.049.384 2.85.746V4.465c-.792-.318-2.022-.714-3.295-.758-1.303-.045-2.522.27-3.455 1.317z" fill="#CED0D6"/></svg>