<svg width="20" height="20" viewBox="0 0 20 20" fill="none"><path fill-rule="evenodd" clip-rule="evenodd" d="M7.5 6.61 6.737 6h-1.06l-.842.42a.75.75 0 0 1-.335.08H2a.75.75 0 0 1-.75-.75v-4A.75.75 0 0 1 2 1h2.5a.75.75 0 0 1 .335.08l.842.42h1.179l1.115-.446A.8.8 0 0 1 8.25 1h3.777c.753 0 2.033 0 3.323.68 1.334.705 2.569 2.072 3.365 4.594a.75.75 0 0 1-1.145.84c-1.216-.85-2.015-1.239-2.655-1.425-.562-.164-1.038-.186-1.665-.189l-1.5 1.125v2.109a2.24 2.24 0 0 0-1.5-.178V7H9v2a.75.75 0 0 1-.08.335L8.7 9.78a4.25 4.25 0 0 0-.449 1.9v5.82h.749c.226.54.522 1.045.878 1.5H7.5a.75.75 0 0 1-.75-.75v-6.57c0-.892.208-1.773.607-2.571l.143-.286zM12 2.5c.751 0 1.705.009 2.65.507.559.295 1.155.785 1.694 1.628a7 7 0 0 0-1.009-.386c-.853-.25-1.57-.249-2.303-.249H13a.75.75 0 0 0-.45.15l-1.8 1.35H8.513L7.47 4.664A.75.75 0 0 0 7 4.5H5.5a.75.75 0 0 0-.335.08L4.323 5H2.75V2.5h1.573l.842.42A.75.75 0 0 0 5.5 3H7a.8.8 0 0 0 .279-.054L8.394 2.5z" fill="#6C707E"/><path d="M11.5 10.75a.75.75 0 0 0-1.5 0v2.5c0 .414.336.75.75.75h2.5a.75.75 0 0 0 0-1.5h-.7a3.501 3.501 0 0 1 5.894 1.875.75.75 0 0 0 1.477-.266 5.001 5.001 0 0 0-8.421-2.68zM11.555 15.62a.75.75 0 0 0-1.477.264 5.001 5.001 0 0 0 8.422 2.687v.679a.75.75 0 0 0 1.5 0v-2.5a.75.75 0 0 0-.75-.75h-2.5a.75.75 0 0 0 0 1.5h.7a3.501 3.501 0 0 1-5.895-1.88" fill="#6C707E"/></svg>