<svg width="16" height="16" viewBox="0 0 16 16" fill="none"><path d="M12.5 9A1.5 1.5 0 0 1 11 7.5V5H8V3.514l-1.264-1.23A1 1 0 0 0 6.038 2H2.75C1.784 2 1 2.836 1 3.867v8.266C1 13.164 1.784 14 2.75 14h10.5c.966 0 1.75-.836 1.75-1.867V9z" fill="#43454A"/><path fill-rule="evenodd" clip-rule="evenodd" d="M12.146.146a.5.5 0 0 1 .708 0l3 3a.5.5 0 0 1-.708.708L13 1.707V7.5a.5.5 0 0 1-1 0V1.707L9.854 3.854a.5.5 0 1 1-.708-.708z" fill="#548AF7"/><path d="M14 9v3.133c0 .54-.396.867-.75.867H2.75c-.354 0-.75-.326-.75-.867V3.867c0-.54.396-.867.75-.867h3.288L8 4.909V3.514l-1.264-1.23A1 1 0 0 0 6.038 2H2.75C1.784 2 1 2.836 1 3.867v8.266C1 13.164 1.784 14 2.75 14h10.5c.966 0 1.75-.836 1.75-1.867V9z" fill="#CED0D6"/></svg>