<svg width="16" height="16" viewBox="0 0 16 16" fill="none"><g clip-path="url(#a)" fill="#6C707E"><path d="M4 4h2v1H4z"/><path fill-rule="evenodd" clip-rule="evenodd" d="M2 3v3a1 1 0 0 0 1 1h10a1 1 0 0 0 1-1V3a1 1 0 0 0-1-1H3a1 1 0 0 0-1 1m1 3V3h10v3z"/><path d="M6 11H4v1h2z"/><path fill-rule="evenodd" clip-rule="evenodd" d="M2 10v3a1 1 0 0 0 1 1h10a1 1 0 0 0 1-1v-3a1 1 0 0 0-1-1H3a1 1 0 0 0-1 1m1 3v-3h10v3z"/></g><defs><clipPath id="a"><path fill="#fff" d="M0 0H16V16H0z"/></clipPath></defs></svg>