<svg viewBox="0 0 16 16" fill="none" xmlns="http://www.w3.org/2000/svg">
  <g clip-path="url(#a)"><path fill-rule="evenodd" clip-rule="evenodd" d="M11 10.5a.5.5 0 0 1 .5-.5h4a.5.5 0 0 1 .5.5v4a.5.5 0 0 1-1 0v-2.793l-4.146 4.147a.5.5 0 0 1-.708-.708L14.293 11H11.5a.5.5 0 0 1-.5-.5" fill="#548AF7"></path><path d="M1 4a2 2 0 0 1 2-2h10a2 2 0 0 1 2 2v5h-3.5a1.5 1.5 0 0 0 0 3h.379l-2 2H3a2 2 0 0 1-2-2z" fill="#43454A"></path><path d="M4 5.5h1M7 5.5h1" stroke="#CED0D6" stroke-linecap="round"></path><path d="M13 3H3a1 1 0 0 0-1 1v8a1 1 0 0 0 1 1h7.879l-1 1H3a2 2 0 0 1-2-2V4a2 2 0 0 1 2-2h10a2 2 0 0 1 2 2v5h-1V4a1 1 0 0 0-1-1" fill="#CED0D6"></path></g><defs><clipPath id="a"><path fill="#fff" d="M0 0H16V16H0z"></path></clipPath></defs>
</svg>
