<svg width="20" height="20" viewBox="0 0 20 20" fill="none"><path fill-rule="evenodd" clip-rule="evenodd" d="M9.69.067a.75.75 0 0 1 .623.001l4.375 2.01a.75.75 0 0 1-.626 1.364L10 1.575 3.563 4.5 10 7.426l7.94-3.609A.75.75 0 0 1 19 4.5v3.75a.75.75 0 0 1-.44.683l-8.25 3.75a.75.75 0 0 1-.62 0L2.5 9.415v1.852l7.5 3.41 7.94-3.61a.75.75 0 0 1 1.06.683v3.5a.75.75 0 0 1-.423.675l-8.25 4a.75.75 0 0 1-.654 0l-8.25-4a.75.75 0 0 1 .654-1.35L10 18.417l7.5-3.637v-1.865l-7.19 3.268a.75.75 0 0 1-.62 0l-8.25-3.75A.75.75 0 0 1 1 11.75v-3.5a.75.75 0 0 1 1.06-.683l7.94 3.61 7.5-3.41V5.665l-7.19 3.268a.75.75 0 0 1-.62 0l-8.25-3.75a.75.75 0 0 1 0-1.366z" fill="#6C707E"/></svg>