<svg viewBox="0 0 16 16" fill="none" xmlns="http://www.w3.org/2000/svg">
  <path d="M1.5 2a.5.5 0 0 1 .5.5V13h12.5a.5.5 0 0 1 0 1H2a1 1 0 0 1-1-1V2.5a.5.5 0 0 1 .5-.5" fill="#6C707E"></path><path fill-rule="evenodd" clip-rule="evenodd" d="M8 2a1 1 0 0 0-1 1v4a1 1 0 0 0 1 1h1a1 1 0 0 0 1-1V3a1 1 0 0 0-1-1zm0 1h1v4H8zM3 5a1 1 0 0 1 1-1h1a1 1 0 0 1 1 1v5a1 1 0 0 1-1 1H4a1 1 0 0 1-1-1zm2 0H4v5h1zM11 5a1 1 0 0 1 1-1h1a1 1 0 0 1 1 1v6a1 1 0 0 1-1 1h-1a1 1 0 0 1-1-1zm2 0h-1v6h1z" fill="#3574F0"></path><path d="M8 3h1v4H8zM5 5H4v5h1zM12 5h1v6h-1z" fill="#EDF3FF"></path>
</svg>
