<svg width="20" height="20" viewBox="0 0 20 20" fill="none"><path d="M18.75 7.39a1.375 1.375 0 1 1-2.75 0 1.375 1.375 0 0 1 2.75 0" fill="#6C707E"/><path d="M8.386 6.277 6.892 2.259S6.21 3.437 6.014 5.34c-.146 1.405.151 2.464.151 2.464m1.948-3.042c2.72 0 3.095-.075 4.157.5.375.204.68.536 1.182 1.075 0 0 2.485.143 3.563.244 0 0 1.235.069 1.235.801 0 4.375-5.98 4.878-5.98 4.878m0 4.989s-.062-1.662.242-2.66c.301-.99 1.266-2.325 1.266-2.325" stroke="#6C707E" stroke-width="1.5" stroke-linecap="round" stroke-linejoin="round"/><circle cx="11.75" cy="8.016" r=".75" fill="#6C707E"/><path fill-rule="evenodd" clip-rule="evenodd" d="M5 20c-2.761 0-5-1.125-5-2.505v-4.997C0 11.118 2.239 10 5 10s5 1.118 5 2.498v4.997C10 18.875 7.761 20 5 20m2.863-2.076c.493-.247.613-.435.637-.481v-.66c-.902.443-2.137.717-3.5.717s-2.598-.274-3.5-.718v.66c.024.047.144.235.637.482.656.329 1.666.576 2.863.576s2.207-.247 2.863-.576M1.5 14.943v-.655c.902.443 2.137.717 3.5.717s2.598-.274 3.5-.717v.655c-.024.046-.144.234-.637.481C7.207 15.753 6.197 16 5 16s-2.207-.247-2.863-.576c-.493-.247-.613-.435-.637-.481m.635-2.87c.615-.307 1.542-.542 2.643-.57q.11-.003.222-.003c1.198 0 2.21.246 2.865.574.38.19.538.344.6.426-.062.082-.22.238-.602.43-.656.328-1.666.575-2.863.575s-2.207-.247-2.863-.576c-.382-.191-.54-.347-.603-.43.063-.08.221-.236.601-.425" fill="#6C707E"/></svg>