<svg viewBox="0 0 16 16" fill="none" xmlns="http://www.w3.org/2000/svg">
  <path d="M14.5 4.5 8 1.5l-6.5 3v7.02L7 14.042V14c0-1.111.604-2.08 1.5-2.598v-1.08A2 2 0 1 1 11.732 8H14.5z" fill="#45322B"></path><path fill-rule="evenodd" clip-rule="evenodd" d="M8.21 1.046a.5.5 0 0 0-.42 0l-6.5 3A.5.5 0 0 0 1 4.5v7.02a.5.5 0 0 0 .292.454l5.772 2.647a3 3 0 0 1-.024-1.111L2 11.2V5.28L7.5 7.82v4.521a3 3 0 0 1 1-.94V7.82L14 5.28V8c.364 0 .706.097 1 .268V4.5a.5.5 0 0 0-.29-.454zM2.693 4.5 8 2.05l5.307 2.45L8 6.95z" fill="#C77D55"></path><path fill-rule="evenodd" clip-rule="evenodd" d="M11 9a1 1 0 0 1-.5.866v2.197q.277.072.516.214l2.018-2.018a1 1 0 1 1 .707.707l-2.018 2.018q.142.24.214.516h2.197a1 1 0 1 1 0 1h-2.197A2 2 0 1 1 9.5 12.063V9.866A1 1 0 1 1 11 9m-1 6a1 1 0 1 0 0-2 1 1 0 0 0 0 2" fill="#CED0D6"></path>
</svg>
