<svg width="16" height="16" viewBox="0 0 16 16" fill="none"><g clip-path="url(#a)"><g clip-path="url(#b)"><path d="M1 3.867C1 2.836 1.784 2 2.75 2h3.288a1 1 0 0 1 .698.283L8.5 4H13a2 2 0 0 1 2 2v3.366l-3.176-1.983C10.159 6.343 8 7.541 8 9.504V14H2.75C1.784 14 1 13.164 1 12.133z" fill="#43454A"/><path fill-rule="evenodd" clip-rule="evenodd" d="M9 9.502a1.5 1.5 0 0 1 2.294-1.272l4.002 2.497a1.5 1.5 0 0 1 0 2.546l-4.002 2.497A1.5 1.5 0 0 1 9 14.498zm1.765-.424a.5.5 0 0 0-.765.424v4.996a.5.5 0 0 0 .765.424l4.002-2.498a.5.5 0 0 0 0-.848z" fill="#57965C"/><path d="M10 9.502a.5.5 0 0 1 .765-.424l4.002 2.498a.5.5 0 0 1 0 .848l-4.002 2.498a.5.5 0 0 1-.765-.424z" fill="#253627"/><path d="m6.038 3 2.056 2H13a1 1 0 0 1 1 1v2.742l1 .624V6a2 2 0 0 0-2-2H8.5L6.736 2.283A1 1 0 0 0 6.038 2H2.75C1.784 2 1 2.836 1 3.867v8.266C1 13.164 1.784 14 2.75 14H8v-1H2.75c-.354 0-.75-.326-.75-.867V3.867c0-.54.396-.867.75-.867z" fill="#CED0D6"/></g></g><defs><clipPath id="a"><path fill="#fff" d="M0 0H16V16H0z"/></clipPath><clipPath id="b"><path fill="#fff" d="M0 0H16V16H0z"/></clipPath></defs></svg>