<svg width="16" height="16" viewBox="0 0 16 16" fill="none"><path fill-rule="evenodd" clip-rule="evenodd" d="M12.421 3.543c2.865 2.866 3.656 6.772.76 9.668-2.897 2.897-6.953 2.003-9.692-.736C.75 9.736-.065 5.634 2.77 2.8s6.787-2.122 9.652.743m-.708.709c1.312 1.312 2.09 2.806 2.253 4.227.143 1.253-.182 2.514-1.154 3.655L3.846 3.17c1.115-.943 2.372-1.273 3.63-1.138 1.429.153 2.93.915 4.237 2.22m-8.574-.374 8.964 8.964c-1.137.958-2.425 1.272-3.71 1.12-1.454-.173-2.954-.954-4.195-2.195-1.236-1.235-2-2.743-2.163-4.205-.144-1.29.174-2.574 1.104-3.684" fill="#6C707E"/></svg>