<svg viewBox="0 0 16 16" fill="none" xmlns="http://www.w3.org/2000/svg">
  <path d="M1 4a2 2 0 0 1 2-2h10a2 2 0 0 1 2 2v8a2 2 0 0 1-2 2H3a2 2 0 0 1-2-2z" fill="#EBECF0"></path><path fill-rule="evenodd" clip-rule="evenodd" d="M13 3H3a1 1 0 0 0-1 1v8a1 1 0 0 0 1 1h10a1 1 0 0 0 1-1V4a1 1 0 0 0-1-1M3 2a2 2 0 0 0-2 2v8a2 2 0 0 0 2 2h10a2 2 0 0 0 2-2V4a2 2 0 0 0-2-2z" fill="#6C707E"></path><path fill-rule="evenodd" clip-rule="evenodd" d="M7 10.5a.5.5 0 0 1 .5-.5h3a.5.5 0 0 1 0 1h-3a.5.5 0 0 1-.5-.5M4.126 5.167a.5.5 0 0 1 .708 0l1.98 1.98a.5.5 0 0 1 0 .707l-1.98 1.98a.5.5 0 1 1-.708-.708L5.753 7.5 4.126 5.874a.5.5 0 0 1 0-.707" fill="#6C707E"></path>
</svg>
