<svg viewBox="0 0 16 16" fill="none" xmlns="http://www.w3.org/2000/svg">
  <path d="M6 4H4v1h2z" fill="#6C707E"></path><path fill-rule="evenodd" clip-rule="evenodd" d="M2 6V3a1 1 0 0 1 1-1h10a1 1 0 0 1 1 1v3a1 1 0 0 1-1 1H3a1 1 0 0 1-1-1m1-3v3h10V3z" fill="#6C707E"></path><path d="M6 11H4v1h2z" fill="#6C707E"></path><path d="M2 13v-3a1 1 0 0 1 1-1h5.52l-1.036.953-.048.047H3v3h5.12l.788 1H3a1 1 0 0 1-1-1" fill="#6C707E"></path><path fill-rule="evenodd" clip-rule="evenodd" d="m15.893 11.367-3.5 4.442a.5.5 0 0 1-.787 0l-3.499-4.442a.5.5 0 0 1 .055-.678l1.547-1.424c.185-.17.427-.265.678-.265h3.226c.251 0 .493.095.678.265l1.547 1.424a.5.5 0 0 1 .055.678" fill="#FFF7F7"></path><path fill-rule="evenodd" clip-rule="evenodd" d="m12 14.69 2.819-3.578-1.206-1.11h-3.226l-1.206 1.11zm3.893-3.323-3.5 4.442a.5.5 0 0 1-.787 0l-3.499-4.442a.5.5 0 0 1 .055-.678l1.547-1.424c.185-.17.427-.265.678-.265h3.226c.251 0 .493.095.678.265l1.547 1.424a.5.5 0 0 1 .055.678" fill="#DB3B4B"></path>
</svg>
