<svg viewBox="0 0 16 16" fill="none" xmlns="http://www.w3.org/2000/svg">
  <path d="M4.646 5.146a.5.5 0 0 0 0 .708l3 3a.5.5 0 0 0 .708 0l3-3a.5.5 0 0 0-.708-.708L8.5 7.293V1.5a.5.5 0 0 0-1 0v5.793L5.354 5.146a.5.5 0 0 0-.708 0" fill="#6C707E"></path><path fill-rule="evenodd" clip-rule="evenodd" d="M4.776 8.553 5.5 10h5l.724-1.447A1 1 0 0 1 12.118 8H14a1 1 0 0 1 1 1v4a1 1 0 0 1-1 1H2a1 1 0 0 1-1-1V9a1 1 0 0 1 1-1h1.882a1 1 0 0 1 .894.553M3.882 9l1 2h6.236l1-2H14v4H2V9z" fill="#6C707E"></path>
</svg>
