<svg viewBox="0 0 16 16" fill="none" xmlns="http://www.w3.org/2000/svg">
  <path fill-rule="evenodd" clip-rule="evenodd" d="M12.854 15.854a.5.5 0 0 1-.708 0l-3-3a.5.5 0 0 1 .708-.708L12 14.293V8.5a.5.5 0 0 1 1 0v5.793l2.146-2.147a.5.5 0 0 1 .708.708z" fill="#369650"></path><path d="M3 2a2 2 0 0 0-2 2v8a2 2 0 0 0 2 2h5.879l-.44-.44a1.5 1.5 0 0 1 2.122-2.12l.439.439V8.5A1.5 1.5 0 0 1 12.5 7H15V4a2 2 0 0 0-2-2z" fill="#EBECF0"></path><path d="M3 3h10a1 1 0 0 1 1 1v3h1V4a2 2 0 0 0-2-2H3a2 2 0 0 0-2 2v8a2 2 0 0 0 2 2h5.879l-.44-.44a1.5 1.5 0 0 1-.354-.56H3a1 1 0 0 1-1-1V4a1 1 0 0 1 1-1" fill="#6C707E"></path><path d="M3.5 5.5A.5.5 0 0 1 4 5h1a.5.5 0 0 1 0 1H4a.5.5 0 0 1-.5-.5M7 5a.5.5 0 0 0 0 1h1a.5.5 0 0 0 0-1z" fill="#6C707E"></path>
</svg>
