<svg width="20" height="20" viewBox="0 0 20 20" fill="none"><path fill-rule="evenodd" clip-rule="evenodd" d="M15.684 4.27c3.684 3.684 4.7 8.706.977 12.43s-8.939 2.576-12.46-.946C.677 12.232-.37 6.957 3.273 3.314s8.727-2.728 12.41.956m-1.06 1.06c1.662 1.663 2.634 3.541 2.836 5.31.172 1.51-.201 3.03-1.337 4.422L4.913 3.852c1.36-1.099 2.874-1.479 4.392-1.316 1.778.19 3.666 1.142 5.319 2.795M3.85 4.912l11.215 11.214c-1.398 1.145-2.967 1.515-4.534 1.33-1.815-.215-3.7-1.192-5.27-2.762-1.56-1.56-2.517-3.455-2.72-5.28-.175-1.575.201-3.138 1.31-4.502" fill="#CED0D6"/></svg>