<svg width="20" height="20" viewBox="0 0 20 20" fill="none"><path fill-rule="evenodd" clip-rule="evenodd" d="M8.696 14.525c.057-.31.226-.619.113-.866-.05.192-.339.495-.452.619-.113.123-.113.123-.338.247-.75.168-1.396.147-2.146 0-.353-.062-1.194-.639-1.243-.866-.014.255 0 .495.226.866s.226.742.226.99c0 .247-.15.455-.339.865.016.26.063.373 0 .619-.104.409-.512.207-.79.124-.343-.103-.856-.119-.678-.619.157-.44.15-1.116.226-1.732-.628-.99-1.13-2.137-1.242-3.34-.087-.933.041-1.531.226-2.102.292-.905.586-1.472 1.242-2.103.885-.85 1.302-1.021 2.598-1.237-.312.382-.319.425-.655.858-.34.439-.542.882-.758 1.361-.298.662-.292.914.104 1.496.34.5.525.726.673 1.217-.123.277-.167.512-.209.89.418.5.728.842 1.133.948.397.103.73.083 1.085-.116.79-.442 1.689-1.064 2.58-1.088.411-1.11.2-1.985.003-3.059-.135-.733-.3-1.512-.342-2.26-.324.596-.576 1.831-.452 2.598.15.924.113 1.237 0 1.732-.565.123-.63.33-1.355.742-.292.166-1.017.371-1.356.247-.339-.123-.171-.495 0-.866.276-.595 1.021-3.31 1.356-3.896-.41.541-1.711 2.61-2.033 3.154-.123-.384-.226-.618-.452-.866-.226-.247.44-1.486.804-1.917.63-.745.766-1.184 1.455-1.917.374-.399.564-.495 1.016-.742.452-.248 1.124-.131 1.581-.248-.226-.247-.451-.37-.79-.37.339-.62.554-.663 1.242-.99.859-.409 1.046-.45 1.581-.433.52.016.813.138 1.468.742.345.317.667.468 1.017.742-.127.012.117.13-.027.193.176-.037.183.018.366.054.05.037.098.035.225.124.24.167.398.24.565.495.177.269.253.686.199.68a.44.44 0 0 0-.294.075l-.01.005a2 2 0 0 1-.49.181.54.54 0 0 0 .338-.006.56.56 0 0 0 .038.587q-.097.04-.199.088c.316-.052.449-.047.757-.002.02.106.192.204.211.319l-.114.01h-.01c-.145-.127-.308-.106-.53-.05-.674.168-.515.583-.826 1.207.322-.431.298-.882.824-1.019.122-.031.205-.071.288-.057a.7.7 0 0 0-.33.376c-.143.446-.054.821-.212 1.238.196-.372.208-.736.383-1.127.063-.141.297-.366.44-.37l.119-.002c.034.247-.004.631-.017.836-.025.372-.173.778-.226.99.226.061.565-.186.79-.805.226-.618.185-1.067.113-1.484-.097-.573.14-.163.452-.433.23-.199.467-.518.678-.742.209-.223.383.277.465.494.356.944.307 1.708.212 2.66-.105 1.068-.481 2.01-1.341 2.536-1.096.67-2.3.278-3.388-.124-.233-.086-.587-.23-.791-.371.056.274.008.832 0 1.113-.014.495.049.715.187.852.138.138.216.138.364.138.226 0 .565-.124.678-.371.113-.248.113-.31.113-.433.082.028.25.1.338.123 0 0-.077.153-.126.33-.129.458-.551.845-1.003.845s-.735-.313-1.017-.588c-.194-.19-.381-.37-.567-.55-.508-.175-.655-.52-1.126-.902-.113.742 0 .99.451 1.36-.068.76-.24 1.113-.451 1.608-.137.318-.813 1.48-1.017 1.608-.145.092-.845.88-1.016.99-.128.185-.26.507-.452.618-.584.339-.757.075-1.016-.494-.113-.248-.226-.495 0-.619.225-.124.465-.495.564-.618.1-.124.057-.68.113-.99m3.501 0c-.054.23-.226.495-.338.742-.114.248-.374.7-.565.866.037.033.154.14.276.153.085.009.424.01.509.012.187.004.258-.013.277-.265.01-.124.001-.147-.051-.256l-.014-.58a5 5 0 0 0-.094-.672m-9.74.442v.01a.7.7 0 0 1-.087.242c-.22.324-.777-.151-.938-.333a1.27 1.27 0 0 1-.322-.655c-.02-.161-.001-.165.1-.28q.207-.228.412-.46l.09-.265c.163.62.44 1.23.746 1.741m7.217 2.645c-.183.298-.205.483-.498.657-.87.516-1.333-.083-1.848-.953-.246-.415-.783-1.361-.213-1.682.24-.135.422-.237.603-.353a6 6 0 0 1-1.794-.018q.016.122.027.228c.04.365.035.518-.078.766-.113.247-.226.37-.34.494.03.317.083.72 0 1.052-.18.738-1.557.286-2.07.134-.616-.182-1.497-.352-1.135-1.22.085-.204.151-.412.201-.61-.539.261-1.288-.293-1.645-.685a2.34 2.34 0 0 1-.588-1.226c-.055-.357-.005-.355.228-.608l.64-.693.257-.77a6 6 0 0 1-.073-.57c-.062-.79-.04-1.35.062-1.867-.375.16-.806.085-.997-.35a3 3 0 0 1-.171-.58C-.595 7.875.973 6.717 1.43 6.63c-.053.163-.11.311-.16.46.31.175.272.676.206.999-.112-.154-.173-.356-.338-.365-.024.365-.02.769-.28.983.077.225.073.226.292.133.311-.13.545-.423.78-.708a4.9 4.9 0 0 1 1.027-1.457c1.1-1.067 2.138-1.417 3.811-1.709.223-.254.453-.5.7-.738.335-.324.552-.391.869-.41.523-.766.935-1.3 1.79-1.695 1.79-.825 3.023-.864 4.46.433.474.429.88.88 1.401 1.238.264.181.453.312.653.573.252.328.457.657.6 1.08.185-.084.396-.162.566-.322.22-.205.36-.55.564-.776.27-.3.887.062 1.023.349.464.973.652 2.202.595 3.271-.113 2.103-.658 3.127-1.718 3.747-.721.421-1.52.63-2.348.459-.113.742-.79 1.731-1.58 1.731-.791 0-.791-.123-1.13-.37-.22-.16-.466-.418-.48-.387-.03.066-.072.12-.085.2.143.31.068.065.19.384.135.35.2.58.21.956l.024 1c.136.264.148.328.128.63-.042.637-.362.698-.896.694-.178-.001-.849.003-1.02-.01-.34-.027-.564-.056-.681-.21-.31.274-.83.758-.93.819m2.938-10.44a.9.9 0 0 1-.074-.352c-.184.16-.383.311-.59.399.286-.279.674-.935.954-1.142.32-.235.752-.19 1.124-.377-.127.126-.29.227-.456.324.183.073.34.22.43.426q.056.131.07.268c.25-.09.495-.132.702-.129-.74.227-1.529.758-2.072 1.461q.093-.274.249-.496a.8.8 0 0 1-.337-.381" fill="#CED0D6"/></svg>