<svg width="20" height="20" viewBox="0 0 20 20" fill="none"><circle cx="10" cy="10" r="8" stroke="#6C707E" stroke-width="1.5"/><path d="M10 2c.27 0 .604.126.985.484.383.359.769.912 1.113 1.647.687 1.468 1.152 3.544 1.152 5.869s-.465 4.401-1.152 5.87c-.344.734-.73 1.287-1.113 1.646-.381.358-.716.484-.985.484-.27 0-.604-.126-.985-.484-.383-.359-.769-.912-1.113-1.647C7.215 14.401 6.75 12.325 6.75 10s.465-4.401 1.152-5.87c.344-.734.73-1.287 1.113-1.646C9.396 2.126 9.73 2 10 2ZM17.5 12.75h-15M17.5 7.25H2.444" stroke="#6C707E" stroke-width="1.5"/></svg>