<svg width="16" height="16" viewBox="0 0 16 16" fill="none"><path d="M14.206 1.022c-.319.054-.906.32-1.66.747l.13 1.066a12 12 0 0 1 1.538-.9c-.02.009-.035.02-.055.029-.157.077-.636.335-1.427.914.49.16 1.268.349 1.91.474.563-.937.384-1.535.384-1.535s-.171-.905-.82-.795" fill="url(#a)"/><path d="M10.415 4.588c.246-.21.492-.419.732-.613a20 20 0 0 1 .8-.62c.247-.181.491-.358.73-.52l-.132-1.066-.155.09q-.3.175-.627.382a29 29 0 0 0-2.161 1.505c-.009.008-.016.01-.024.018l.147 1.442a25 25 0 0 1 .69-.618" fill="url(#b)"/><path d="M5.682 9.298q.318-.35.648-.711.314-.342.644-.685c.22-.23.44-.455.66-.685A47 47 0 0 1 9.016 5.86c.085-.077.165-.157.25-.235q.22-.205.436-.4.013-.014.023-.02L9.58 3.76c-.015.011-.033.027-.048.037a27 27 0 0 0-.696.55c-.234.191-.47.388-.7.586q-.295.253-.579.517-.059.051-.112.106-.36.334-.666.655a17 17 0 0 0-1.006 1.126c-.095.118-.187.243-.277.362a15 15 0 0 0-.603.867s.029.888.142 1.455c.165-.186.334-.379.505-.567q.07-.073.142-.155" fill="url(#c)"/><path d="M4.894 8.563c-.226.36-.456.77-.632 1.145q-.008.023-.02.036c-.074-.381-.47-.875-.471-.87.16.674.238 1.305.082 1.84-.212-.036-.46-.197-.724-.426.207.422.421.598.508.659-.305-.096-.69-.012-1.094.104.53-.012.927.058 1.17.217a94 94 0 0 0-2.754 3.407.4.4 0 0 0 .342-.145c1.198-1.527 3.746-4.522 3.746-4.522-.121-.567-.153-1.445-.153-1.445" fill="url(#d)"/><path d="M9.8 5.32S8.509 6.555 7.719 7.368a56 56 0 0 0-2.578 2.826c-.002.004-.01.012-.012.017.086.023.488.121.488.121.62.155 1.573.014 2.287-.336q.495-.24.983-.649c.244-.204.492-.434.744-.702.222-.234.442-.492.672-.774q-.244.03-.523-.018c-.03-.006-.068-.01-.098-.016l-.102-.022c.63-.002 1.137-.276 1.58-.68-.184.046-.467.08-.775.034a1 1 0 0 1-.123-.025c-.01-.004-.02-.003-.03-.006.223-.008.415-.034.595-.086l.114-.039q.087-.034.165-.07.05-.023.104-.053c.078-.047.157-.094.235-.153l.07-.055c.033-.027.062-.06.094-.086a6 6 0 0 0 .346-.341c.048-.054.093-.097.128-.145a.3.3 0 0 0 .043-.055c.041-.05.076-.098.107-.135.045-.06.075-.11.1-.144q-.036.011-.08.019c-.25.044-.577.011-.838-.053C11.255 5.703 9.8 5.32 9.8 5.32" fill="url(#e)"/><path d="M12.754 2.863a21 21 0 0 0-.796.595q-.347.273-.742.61c-.229.193-.468.4-.726.626q-.33.293-.695.632l1.613.426c.532-.033.806-.143 1.108-.341q.123-.085.249-.175c.255-.19.519-.402.761-.618.237-.213.457-.427.638-.627a4 4 0 0 0 .292-.357c.07-.095.13-.193.185-.282a19 19 0 0 1-1.887-.489" fill="url(#f)"/><path d="M3.996 11.52c.147.15.208.422.253.72a1.07 1.07 0 0 0-.057-.799c.87.378 1.72.45 2.364-.047q.085-.069.166-.146c-.265.158-.528.167-.939-.013l-.005-.002.005.002c.721-.038 1.13-.184 1.574-.521.103-.082.213-.167.324-.268-.751.346-1.443.26-2.056-.114-.27-.073-.496-.121-.496-.121s-.822.938-1.133 1.31" fill="url(#g)"/><defs><linearGradient id="a" x1="13.515" y1="4.168" x2="17.05" y2="3.009" gradientUnits="userSpaceOnUse"><stop stop-color="#F69923"/><stop offset=".312" stop-color="#F79A23"/><stop offset=".838" stop-color="#E97826"/></linearGradient><linearGradient id="b" x1="8.737" y1="20.336" x2="19.002" y2="8.289" gradientUnits="userSpaceOnUse"><stop offset=".323" stop-color="#9E2064"/><stop offset=".63" stop-color="#C92037"/><stop offset=".751" stop-color="#CD2335"/><stop offset="1" stop-color="#E97826"/></linearGradient><linearGradient id="c" x1="6.226" y1="21.508" x2="19.749" y2="11.592" gradientUnits="userSpaceOnUse"><stop offset=".323" stop-color="#9E2064"/><stop offset=".63" stop-color="#C92037"/><stop offset=".751" stop-color="#CD2335"/><stop offset="1" stop-color="#E97826"/></linearGradient><linearGradient id="d" x1="2.636" y1="18.881" x2="11.593" y2="14.988" gradientUnits="userSpaceOnUse"><stop stop-color="#282662"/><stop offset=".095" stop-color="#662E8D"/><stop offset=".788" stop-color="#9F2064"/><stop offset=".949" stop-color="#CD2032"/></linearGradient><linearGradient id="e" x1="11.219" y1="18.539" x2="17.253" y2="4.504" gradientUnits="userSpaceOnUse"><stop offset=".323" stop-color="#9E2064"/><stop offset=".63" stop-color="#C92037"/><stop offset=".751" stop-color="#CD2335"/><stop offset="1" stop-color="#E97826"/></linearGradient><linearGradient id="f" x1="14.384" y1="19.141" x2="18.151" y2="4.693" gradientUnits="userSpaceOnUse"><stop offset=".323" stop-color="#9E2064"/><stop offset=".63" stop-color="#C92037"/><stop offset=".751" stop-color="#CD2335"/><stop offset="1" stop-color="#E97826"/></linearGradient><linearGradient id="g" x1="9.313" y1="15.603" x2="11.157" y2="8.056" gradientUnits="userSpaceOnUse"><stop stop-color="#282662"/><stop offset=".095" stop-color="#662E8D"/><stop offset=".788" stop-color="#9F2064"/><stop offset=".949" stop-color="#CD2032"/></linearGradient></defs></svg>