<svg width="20" height="20" viewBox="0 0 20 20" fill="none"><path fill-rule="evenodd" clip-rule="evenodd" d="M19.78 14.22a.75.75 0 0 1 0 1.06l-4.5 4.5a.75.75 0 0 1-1.06 0l-2.5-2.5a.75.75 0 1 1 1.06-1.06l1.97 1.97 3.97-3.97a.75.75 0 0 1 1.06 0" fill="#6C707E"/><path d="m2.648 9.644 6.998-6.998a.5.5 0 0 1 .707 0l6.998 6.998a.5.5 0 0 1 0 .707l-4.159 4.16 1.06 1.06 4.16-4.159a2 2 0 0 0 0-2.828l-6.998-6.998a2 2 0 0 0-2.829 0L1.588 8.584a2 2 0 0 0 0 2.828l6.997 6.998a2 2 0 0 0 2.444.3l-1.287-1.286a.5.5 0 0 1-.096-.075l-6.998-6.998a.5.5 0 0 1 0-.707" fill="#6C707E"/></svg>