<svg width="14" height="14" viewBox="0 0 14 14" fill="none"><path fill-rule="evenodd" clip-rule="evenodd" d="M4.854 10.354a.5.5 0 0 1-.708-.708L6.293 7.5H.5a.5.5 0 0 1 0-1h5.793L4.146 4.354a.5.5 0 1 1 .708-.708l3 3a.5.5 0 0 1 0 .708z" fill="#6C707E"/><path d="m7.857 5.236 1.709-2.984a.5.5 0 0 1 .868 0l2.433 4.25c.177.307.177.686 0 .994l-2.433 4.252a.5.5 0 0 1-.868 0L7.858 8.764l-.733.732 1.573 2.749a1.5 1.5 0 0 0 2.603 0l2.434-4.251a2 2 0 0 0 0-1.99L11.3 1.754a1.5 1.5 0 0 0-2.603 0L7.124 4.504z" fill="#DB3B4B"/></svg>