<svg viewBox="0 0 16 16" fill="none" xmlns="http://www.w3.org/2000/svg">
  <path fill-rule="evenodd" clip-rule="evenodd" d="M12.474 5.656c-.031.22.218.634.218.634.017.064.056.143.1.23.033.065.069.134.098.205.047.112.103.228.159.336A9 9 0 0 0 12 7c-1.226 0-2.386.246-3.276.691q-.152.076-.306.169c-.107-.833-.042-1.121.081-1.575l-.058.011c-.559.109-1.125.219-1.723.4a.1.1 0 0 0-.031.001c-.168.036-.796.186-.956.266-.19.051-.364.08-.553.111-.172.028-.356.058-.577.11-.15.016-1.28-.056-1.316-.087-.077-.1-.096-.19-.119-.303a1.6 1.6 0 0 0-.157-.456c-.09-.172-.44-.51-.592-.65-.494-.452-.586-.718-.704-1.182q-.01-.04-.022-.083a1.4 1.4 0 0 1-.046-.601 1.1 1.1 0 0 0 .045-.36c0-.167 0-.302.204-.495q.194.001.372-.01a2.5 2.5 0 0 1 .54.01q.041.006.102.013c.135.014.33.036.529.104l.283.101c.43.154 1.168.419 1.23.422.21.012-.828-.494-1.223-.687l-.084-.041a5 5 0 0 0-.342-.154c-.058-.024-.085-.034-.089-.045.43-.233.557-.395.7-.58.087-.112.18-.232.352-.382a.9.9 0 0 0 .223-.139c.077-.06.145-.113.243-.123q.235.033.429.057c.38.048.668.084.997.205a20 20 0 0 1 1.918.846c.137.07.265.13.388.19.174.085.34.164.507.253.251.076 1.085.604 1.307.89.226.439.407.914.557 1.372l.012.054c.02.096.05.242.127.438.058.148.247.53.247.53s-.174-1.054-.192-1.113c-.093-.298-.18-.684-.25-.987-.06-.27-.107-.474-.13-.496-.133-.154-.64-.546-.98-.728l-.085-.044c-.085-.044-.144-.074-.149-.097l.053-.05c.072-.067.113-.106.212-.176l.091-.07c.084-.066.172-.136.29-.176l.085-.037c.102-.045.205-.09.307-.105.47-.068.908.024 1.11.188.408.332.963 1.013 1.212 1.453.098.176.142.292.097.503-.043.2-.083.316-.13.448l-.007.022-.053.146v.002c-.086.23-.226.614-.226.682m-2.425.009c-.097-.07-.19-.213-.29-.366-.148-.228-.313-.48-.531-.557-.107-.009-.193-.024-.274-.039a1.5 1.5 0 0 0-.633-.002q.077-.037.153-.076c.108-.055.215-.11.332-.145a.7.7 0 0 1 .267.007l.069.01c.027-.012.045-.027.038-.05-.283-.161-.756-.222-1.221-.282-.27-.034-.537-.069-.764-.122q.25.007.506.009c.567.007 1.134.013 1.55.136.31.254.47.669.618 1.048.059.153.116.3.18.429" fill="#FDEE21"></path><path d="M7.48 8.661a9 9 0 0 1-.698-1.546c-.308.065-.614.15-.877.315-.057.02-.236.25-.284.319a2.2 2.2 0 0 0-.33.734c.24.61.713 1.384 1.709 1.944V10c0-.526.192-.971.48-1.339M7 12.36a5.4 5.4 0 0 1-.776-.23l.027.029c.256.24.484.415.749.588z" fill="#FDEE21"></path><path d="M3.436 1.893c.091-.103.19-.214.317-.335.098-.094.175-.171.24-.236.156-.155.24-.239.379-.322a8 8 0 0 1 1.88.353c.81.269 1.576.66 1.875.812l.094.048q.014.007.05.03c.108.066.37.228.824.437.124-.072.206-.147.29-.224.086-.08.175-.162.313-.243.174-.103.526-.218.779-.266l.038-.007c.207-.037.51-.091 1.025.123.523.218.805.594 1.135 1.033l.048.063c.35.466.574.974.572 1.113.002.062-.022.111-.056.181l-.027.057-.06.153c-.137.342-.259.648-.33 1.052-.007.057.186.468.218.513q.004.005.004.003a18 18 0 0 0 .37.677q.061.101.134.228a8 8 0 0 0-.499-.074 5 5 0 0 1-.158-.337 3 3 0 0 0-.098-.205 1.4 1.4 0 0 1-.1-.23s-.25-.415-.218-.634c0-.068.14-.451.225-.682.023-.064.043-.117.053-.148l.008-.022c.046-.132.087-.247.13-.448.045-.211 0-.327-.097-.503-.25-.44-.804-1.12-1.212-1.453-.202-.164-.641-.256-1.11-.187-.102.014-.205.06-.307.104l-.085.037c-.118.04-.206.11-.29.176q-.044.037-.092.07c-.098.07-.14.109-.212.177l-.052.049c.004.023.063.053.149.097l.085.044c.34.182.847.574.98.728.022.022.069.226.13.496.07.303.157.69.25.987.018.06.192 1.112.192 1.112s-.19-.381-.247-.529c-.077-.196-.107-.342-.128-.438l-.011-.054a9.5 9.5 0 0 0-.557-1.373c-.222-.285-1.056-.813-1.308-.89a16 16 0 0 0-.506-.251l-.388-.19a20 20 0 0 0-1.918-.847c-.33-.121-.617-.157-.998-.205q-.194-.023-.428-.057c-.098.01-.167.063-.243.123-.062.049-.13.102-.223.14-.172.149-.265.27-.352.381-.144.185-.27.347-.7.58.004.01.03.021.089.045.067.028.176.073.341.154l.084.041c.395.193 1.433.699 1.224.687-.062-.003-.801-.268-1.23-.422l-.283-.1c-.2-.07-.395-.09-.53-.105l-.102-.013c-.164-.029-.344-.02-.54-.01a6 6 0 0 1-.372.01c-.204.193-.204.328-.203.495 0 .102 0 .215-.045.36-.033.326.011.482.045.601q.013.044.022.083c.118.464.21.73.705 1.183.15.138.502.477.592.65.104.198.133.339.157.456.023.112.041.202.119.302.036.03 1.165.103 1.316.086a9 9 0 0 1 .576-.109c.189-.031.363-.06.553-.11.16-.08.788-.231.956-.267a.1.1 0 0 1 .032 0c.598-.182 1.164-.292 1.722-.4l.059-.012c-.123.454-.188.742-.082 1.574-.344.207-.679.474-.937.802a9 9 0 0 1-.699-1.546c-.307.065-.613.15-.877.315-.056.02-.235.25-.283.319a2.2 2.2 0 0 0-.33.734c.24.61.712 1.384 1.708 1.944v1.933a5.4 5.4 0 0 1-.775-.23l.026.029c.257.24.484.415.749.587v.53c-.63-.348-1.103-.758-1.378-1.117a5 5 0 0 1-.49-.867 5 5 0 0 1-.344-1.321c-.089-.95-.06-1.558.367-2.222.025-.038.081-.099.139-.16.074-.079.15-.16.163-.198a.7.7 0 0 1-.16.048l-.142.029c-.19.06-.414.099-.615.133l-.083.015c-.16.015-.33.024-.452.023L3.72 7.62c-.199-.01-.396-.02-.552-.051-.106-.022-.167-.107-.207-.18a3 3 0 0 1-.11-.266 2.3 2.3 0 0 0-.17-.376c-.18-.365-.435-.661-.876-1.06-.297-.287-.475-.654-.61-1.066a1.5 1.5 0 0 1-.018-.874c.038-.113.057-.251.076-.392.032-.23.066-.47.182-.624.17-.189.426-.319.61-.227.159.018.24.012.32.005l.076-.005c.24-.013.432-.097.5-.151.212-.144.344-.292.494-.46M13.044 6.231l-.004-.003z" fill="#000"></path><path d="M9.76 5.3c.1.152.192.294.29.365a5 5 0 0 1-.18-.428c-.148-.38-.309-.795-.619-1.049-.416-.123-.982-.13-1.55-.136q-.256-.002-.505-.009c.227.053.494.088.763.122.466.06.938.12 1.222.283.006.022-.011.037-.039.049l-.068-.01a.7.7 0 0 0-.267-.007c-.117.035-.225.09-.332.145q-.076.04-.153.076a1.5 1.5 0 0 1 .633.002c.08.015.166.03.273.039.219.077.383.33.532.557" fill="#000"></path><path fill-rule="evenodd" clip-rule="evenodd" d="M16 13.996C16 15.1 14.21 16 12 16s-4-.9-4-2.004V9.999C8 8.895 9.79 8 12 8s4 .895 4 1.999zm-1-3.997v.005l-.007.019a.4.4 0 0 1-.07.108c-.092.108-.263.248-.542.387-.558.279-1.398.48-2.381.48s-1.823-.201-2.381-.48c-.279-.14-.45-.28-.541-.387A.4.4 0 0 1 9 10.004L9 10v-.006l.007-.019a.4.4 0 0 1 .07-.108c.092-.108.263-.248.542-.387C10.177 9.201 11.017 9 12 9s1.823.202 2.381.48c.279.14.45.28.541.387a.4.4 0 0 1 .077.127zm0 1.322c-.733.415-1.805.676-3 .676s-2.267-.261-3-.676v.682l.007.019c.008.02.027.056.07.108.092.108.263.247.542.387.558.278 1.398.48 2.381.48s1.823-.202 2.381-.48c.279-.14.45-.28.541-.387a.4.4 0 0 0 .077-.127l.001-.006v-.676m0 1.998c-.733.415-1.805.677-3 .677s-2.267-.262-3-.677v.688l.007.019c.008.02.027.056.07.108.092.108.263.248.542.387.558.278 1.398.48 2.381.48s1.823-.201 2.381-.48c.279-.14.45-.28.541-.387a.4.4 0 0 0 .077-.127L15 14v-.682" fill="#6C707E"></path>
</svg>
