<svg viewBox="0 0 16 16" fill="none" xmlns="http://www.w3.org/2000/svg">
  <path fill-rule="evenodd" clip-rule="evenodd" d="M2.017 3.392H2v9.126h.003c.028.444.274.816.594 1.106.34.307.804.561 1.335.764.882.337 2.018.56 3.27.628A2.7 2.7 0 0 1 7 14c-1.063-.077-2-.275-2.71-.547-.465-.177-.806-.377-1.022-.572-.217-.196-.268-.348-.268-.448v-1.449c.272.175.588.328.932.46.943.36 2.178.59 3.533.639a3.3 3.3 0 0 1 .896-.995q-.179.004-.361.004c-1.474 0-2.785-.229-3.71-.583-.465-.177-.806-.376-1.022-.572C3.05 9.742 3 9.59 3 9.49V8.041c.272.175.588.328.932.46 1.066.407 2.504.648 4.068.648s3.002-.241 4.068-.648c.344-.132.66-.285.932-.46v1.812c.448-.213.774-.489 1-.733V3.392h-.017c-.062-.388-.29-.717-.58-.979-.34-.307-.804-.561-1.335-.764C11.002 1.24 9.564 1 8 1s-3.002.241-4.068.649c-.53.203-.995.457-1.335.764-.29.262-.518.591-.58.98m1.25-.237c-.216.196-.267.348-.267.448s.051.252.268.447c.216.196.557.395 1.021.573.926.353 2.237.582 3.711.582s2.786-.229 3.71-.582c.465-.178.806-.377 1.022-.573.217-.195.268-.347.268-.447s-.051-.252-.268-.448c-.216-.195-.557-.395-1.021-.572C10.785 2.229 9.474 2 8 2s-2.785.23-3.71.583c-.465.177-.806.377-1.022.572M3 5.097v1.45c0 .1.051.252.268.447.216.196.557.395 1.021.572.926.354 2.237.583 3.711.583s2.786-.229 3.71-.583c.465-.177.806-.376 1.022-.572.217-.195.268-.348.268-.447v-1.45a5 5 0 0 1-.932.46c-1.066.407-2.504.648-4.068.648s-3.002-.241-4.068-.648A5 5 0 0 1 3 5.097" fill="#CED0D6"></path><path d="M15.421 14.726C16.79 12.78 15.304 9 15.304 9s-.603 1.309-2.255 1.917c-1.444.53-2.408.084-3.577.662C8.49 12.064 8 12.819 8 13.955c0 .694.324 1.148.821 1.448 5.12-.677 6.08-3.91 6.08-3.91s-.537 3.444-4.932 4.32c.653.132 1.381.166 2.039.183 1.424.038 2.67-.212 3.413-1.27" fill="#57965C"></path>
</svg>
