<svg viewBox="0 0 16 16" fill="none" xmlns="http://www.w3.org/2000/svg">
  <path d="M7.396 15.73c.185.107.395.162.607.162v-.002c.213 0 .423-.056.609-.163l5.781-3.34c.374-.216.607-.62.607-1.053V4.66a1.22 1.22 0 0 0-.607-1.054L8.612.266a1.27 1.27 0 0 0-1.216 0l-5.79 3.339C1.233 3.819 1 4.225 1 4.659v6.673c0 .433.232.838.607 1.056l1.517.874c.735.362.999.362 1.333.362 1.087 0 1.712-.659 1.712-1.805v-6.59a.166.166 0 0 0-.166-.166h-.732a.165.165 0 0 0-.168.166v6.587c0 .51-.526 1.016-1.386.586l-1.584-.915a.18.18 0 0 1-.09-.155V4.66c0-.064.036-.126.092-.158l5.78-3.335a.18.18 0 0 1 .178 0L13.874 4.5c.055.033.09.093.09.16v6.673a.18.18 0 0 1-.089.156l-5.783 3.338a.2.2 0 0 1-.18 0l-1.482-.88c-.045-.026-.101-.034-.144-.01-.41.233-.489.264-.873.398-.095.033-.236.09.052.251z" fill="#369650"></path><path d="M6.728 9.158c0 .975.53 2.136 3.061 2.136l-.008.007c1.832 0 2.883-.723 2.883-1.982 0-1.25-.844-1.582-2.621-1.818-1.795-.238-1.978-.36-1.978-.782 0-.347.155-.81 1.485-.81 1.189 0 1.626.256 1.807 1.056.016.075.084.13.162.13h.752a.168.168 0 0 0 .168-.182c-.116-1.381-1.034-2.024-2.886-2.024-1.649 0-2.633.695-2.633 1.862 0 1.267.979 1.615 2.562 1.772 1.894.185 2.042.462 2.042.834 0 .646-.519.921-1.738.921-1.53 0-1.866-.384-1.979-1.145a.17.17 0 0 0-.165-.141h-.747a.166.166 0 0 0-.167.166" fill="#369650"></path>
</svg>
