<svg viewBox="0 0 16 16" fill="none" xmlns="http://www.w3.org/2000/svg">
  <path d="M1 3.867C1 2.836 1.731 2 2.633 2h3.489a1 1 0 0 1 .721.308L8.467 4H13a2 2 0 0 1 2 2v5h-1v-.5c0-.384-.146-.768-.44-1.06l-4-4A1.5 1.5 0 0 0 7 6.5V7H5.5a1.5 1.5 0 1 0 0 3h1.585a1.5 1.5 0 0 0 .354 1.56L9.88 14H2.633C1.731 14 1 13.164 1 12.133z" fill="#EDF3FF"></path><path d="M2.633 3h3.489L8.04 5H13a1 1 0 0 1 1 1v5h1V6a2 2 0 0 0-2-2H8.467L6.843 2.308A1 1 0 0 0 6.122 2H2.633C1.731 2 1 2.836 1 3.867v8.266C1 13.164 1.731 14 2.633 14H9.88l-1-1H2.633C2.405 13 2 12.742 2 12.133V3.867C2 3.258 2.405 3 2.633 3" fill="#3574F0"></path><path d="m12.5 14.5-2-2 2-2m3 2H11m-2.5-2 2-2-2-2m-3 2H10" stroke="#6C707E" stroke-linecap="round" stroke-linejoin="round"></path>
</svg>
