<svg width="16" height="16" viewBox="0 0 16 16" fill="none"><path d="M7 13.74V10c0-1.003.698-1.712 1.433-2.15-.344-.035-.664.042-1.205.236C6.362 8.397 1 9.564 1 9.564v1.415c0 .142.195.291.566.468.383.184 1.667.716 2.909 1.23A128 128 0 0 1 7 13.742" fill="#A42122"/><path d="M7 12.325V10c0-1.135.894-1.894 1.724-2.309a6 6 0 0 1 1.286-.46c-.4-.157-.717-.278-.88-.338-.736-.27-1.037-.259-1.902.052-.813.291-4.476 1.727-5.522 2.137l-.169.066c-.728.285-.713.53.029.884.383.183 1.666.715 2.907 1.23 1.082.448 2.132.884 2.527 1.063" fill="#D82F27"/><path d="M15 7.563C14.152 7.2 13.103 7 12 7c-1.226 0-2.386.246-3.276.691C7.894 8.106 7 8.865 7 10v1.433a127 127 0 0 0-2.524-1.062C3.234 9.856 1.95 9.323 1.566 9.14 1.196 8.963 1 8.813 1 8.672V7.257s5.362-1.168 6.228-1.478 1.166-.322 1.902-.052c.37.135 1.661.402 2.95.669 1.28.265 2.557.529 2.92.662z" fill="#A42122"/><path d="M14.642 7.424C13.865 7.149 12.952 7 12 7c-1.226 0-2.386.246-3.276.691C7.894 8.106 7 8.865 7 10v.018c-.394-.18-1.444-.615-2.526-1.063-1.241-.515-2.525-1.048-2.908-1.23-.742-.355-.757-.6-.029-.885l.228-.089c1.118-.438 4.664-1.827 5.463-2.114.865-.31 1.166-.321 1.902-.052.37.136 1.524.59 2.674 1.041 1.14.448 2.276.894 2.638 1.027.66.242.745.445.2.77" fill="#D82F27"/><path d="M13.268 7.09c.543-.237.98-.432 1.183-.539.38-.198.548-.351.548-.491V4.665c-.362-.133-1.64-.397-2.92-.662-1.288-.267-2.58-.534-2.949-.67-.736-.27-1.037-.258-1.902.053C6.362 3.696 1 4.863 1 4.863V6.28c0 .14.195.29.566.468.383.183 1.667.715 2.908 1.23 1.163.482 2.289.949 2.603 1.099q.059.028.115.052c.307-.664.936-1.139 1.532-1.437C9.614 7.246 10.774 7 12 7c.434 0 .86.03 1.268.09" fill="#A42122"/><path d="M14.451 5.136c-.747.39-4.617 1.98-5.441 2.41s-1.282.426-1.933.115c-.65-.311-4.77-1.975-5.511-2.33-.742-.354-.757-.598-.029-.884.73-.285 4.825-1.892 5.69-2.203s1.167-.322 1.903-.052c.737.27 4.584 1.801 5.312 2.068s.756.487.01.876" fill="#D82F27"/><path d="M9.835 3.773 8.622 3.9l-.272.654-.439-.73-1.4-.125 1.045-.377-.314-.579.979.383.922-.302-.249.598zM8.278 6.943l-2.264-.939 3.244-.498zM5.138 5.48c.958 0 1.734-.3 1.734-.672 0-.37-.776-.672-1.734-.672-.957 0-1.734.301-1.734.672s.777.672 1.734.672" fill="#fff"/><path d="m11.268 3.952 1.92.758-1.919.758z" fill="#791514"/><path d="m9.144 4.792 2.124-.84.001 1.516-.208.082z" fill="#AD2524"/><path fill-rule="evenodd" clip-rule="evenodd" d="M16 13.996C16 15.1 14.21 16 12 16s-4-.9-4-2.004V9.999C8 8.895 9.79 8 12 8s4 .895 4 1.999zm-1-3.997v.005l-.007.019a.4.4 0 0 1-.07.108c-.092.108-.263.248-.542.387-.558.279-1.398.48-2.381.48s-1.823-.201-2.381-.48c-.279-.14-.45-.28-.541-.387A.4.4 0 0 1 9 10.004L9 10v-.006l.007-.019a.4.4 0 0 1 .07-.108c.092-.108.263-.248.542-.387C10.177 9.201 11.017 9 12 9s1.823.202 2.381.48c.279.14.45.28.541.387a.4.4 0 0 1 .077.127zm0 1.322c-.733.415-1.805.676-3 .676s-2.267-.261-3-.676v.682l.007.019c.008.02.027.056.07.108.092.108.263.247.542.387.558.278 1.398.48 2.381.48s1.823-.202 2.381-.48c.279-.14.45-.28.541-.387a.4.4 0 0 0 .077-.127l.001-.006v-.676m0 1.998c-.733.415-1.805.677-3 .677s-2.267-.262-3-.677v.688l.007.019c.008.02.027.056.07.108.092.108.263.248.542.387.558.278 1.398.48 2.381.48s1.823-.201 2.381-.48c.279-.14.45-.28.541-.387a.4.4 0 0 0 .077-.127L15 14v-.682" fill="#6C707E"/></svg>