<svg width="16" height="16" viewBox="0 0 16 16" fill="none"><path d="M3.478 3.9h1.898q.78 0 1.287.299.514.3.76.89.247.592.247 1.489 0 .904-.253 1.501a1.8 1.8 0 0 1-.774.897q-.519.3-1.32.3h-.539V13H3.478zm1.878 4.173q.365 0 .579-.15a.85.85 0 0 0 .305-.474q.098-.318.098-.864T6.24 5.72q-.09-.318-.305-.461-.215-.15-.579-.15h-.572v2.964zm5.158 3.9a.7.7 0 0 0 .559-.26q.22-.267.331-.884.117-.624.117-1.716V7.787q0-1.092-.117-1.71-.11-.623-.331-.883a.7.7 0 0 0-.56-.267.7.7 0 0 0-.565.267q-.22.26-.338.883-.11.618-.11 1.71v1.326q0 1.092.11 1.716.116.618.338.884a.71.71 0 0 0 .566.26m0 1.183q-.76 0-1.287-.442-.52-.449-.793-1.346-.267-.897-.267-2.255V7.787q0-1.358.267-2.255.273-.897.793-1.34.526-.448 1.287-.448t1.28.442q.526.442.793 1.346.273.897.273 2.255v1.326q0 1.359-.273 2.262-.267.897-.793 1.339-.52.442-1.28.442" fill="#548AF7"/></svg>