<svg viewBox="0 0 16 16" fill="none" xmlns="http://www.w3.org/2000/svg">
  <path fill-rule="evenodd" clip-rule="evenodd" d="M12.146 9.146a.5.5 0 0 1 .708 0l3 3a.5.5 0 0 1 0 .708l-3 3a.5.5 0 0 1-.708-.708L14.293 13H8.5a.5.5 0 0 1 0-1h5.793l-2.147-2.146a.5.5 0 0 1 0-.708" fill="#3574F0"></path><path d="M2 3.5a.5.5 0 0 1 .5-.5h11a.5.5 0 0 1 0 1h-11a.5.5 0 0 1-.5-.5M2 6.5a.5.5 0 0 1 .5-.5h7a.5.5 0 0 1 0 1h-7a.5.5 0 0 1-.5-.5M2.5 12a.5.5 0 0 0 0 1H7v-1zM11 10H2.5a.5.5 0 0 1 0-1H11z" fill="#6C707E"></path>
</svg>
