<svg viewBox="0 0 16 16" fill="none" xmlns="http://www.w3.org/2000/svg">
  <path d="M15 8c0 .766-.123 1.503-.35 2.193A3.5 3.5 0 0 0 13.5 10a3.5 3.5 0 0 0-2.45 1h-1.1a3.5 3.5 0 0 0-5.94 2.752A7 7 0 1 1 15 8" fill="#402929"></path><path d="M4.122 12.579a6 6 0 1 1 9.535-2.575q.522.024.993.19c.227-.69.35-1.428.35-2.194a7 7 0 1 0-10.991 5.752 3.6 3.6 0 0 1 .113-1.173" fill="#DB5C5C"></path><path d="M7.258 10.008a3.6 3.6 0 0 1 1.017.078V7.327H9.83V6.43H8.275v-.95c0-.36.246-.606.6-.606h1.006V4H8.778c-.903 0-1.52.571-1.52 1.406V6.43H6.121v.897h1.137z" fill="#DB5C5C"></path><path fill-rule="evenodd" clip-rule="evenodd" d="M7.5 16a2.5 2.5 0 0 0 2.45-3h1.1q-.05.243-.05.5a2.5 2.5 0 1 0 .5-1.5h-2a2.5 2.5 0 1 0-2 4m0-1a1.5 1.5 0 1 0 0-3 1.5 1.5 0 0 0 0 3m6 0a1.5 1.5 0 1 0 0-3 1.5 1.5 0 0 0 0 3" fill="#CED0D6"></path>
</svg>
