<svg viewBox="0 0 16 16" fill="none" xmlns="http://www.w3.org/2000/svg">
  <path d="M15 8A7 7 0 1 0 1 8z" fill="#EDF3FF"></path><path d="M14 8h1A7 7 0 1 0 1 8h1a6 6 0 1 1 12 0" fill="#3574F0"></path><path d="m15.5 9.5-5 .5m5 2.25-5 .5m5 2.25-5 .5" stroke="#DB3B4B" stroke-linecap="round" stroke-linejoin="round"></path><path d="M15 8.043V8H1a7 7 0 0 0 8 6.93V10a1.5 1.5 0 0 1 1.35-1.493z" fill="#FFF4EB"></path><path d="M9 14.93Q8.51 15 8 15a7 7 0 0 1-7-7h1a6 6 0 0 0 7 5.917z" fill="#E66D17"></path><path d="M9 11.395a3.6 3.6 0 0 1-.866.105C6.215 11.5 4.79 10.006 4.79 8s1.426-3.5 3.345-3.5c1.49 0 2.766.9 3.08 2.175h-1.015c-.315-.73-1.093-1.252-2.065-1.252-1.339 0-2.306 1.074-2.306 2.577s.967 2.577 2.306 2.577a2.5 2.5 0 0 0 .866-.15z" fill="#6C707E"></path>
</svg>
