<svg viewBox="0 0 16 16" fill="none" xmlns="http://www.w3.org/2000/svg">
  <path d="M14.5 9a1.5 1.5 0 0 1-1.5 1.5h-1.5v-8H13A1.5 1.5 0 0 1 14.5 4zM6.5 10.5H3A1.5 1.5 0 0 1 1.5 9V5.692c0-.426.181-.832.498-1.116l1.887-1.693a1.5 1.5 0 0 1 1.002-.384H11.5v8.293l-3.465 3.446A.9.9 0 0 1 6.5 13.6z" fill="#FFF7F7"></path><path d="M14.5 9a1.5 1.5 0 0 1-1.5 1.5h-1.5v-8H13A1.5 1.5 0 0 1 14.5 4zM6.5 10.5H3A1.5 1.5 0 0 1 1.5 9V5.692c0-.426.181-.832.498-1.116l1.887-1.693a1.5 1.5 0 0 1 1.002-.384H11.5v8.293l-3.465 3.446A.9.9 0 0 1 6.5 13.6z" stroke="#DB3B4B"></path>
</svg>
