<svg width="20" height="20" viewBox="0 0 20 20" fill="none"><path fill-rule="evenodd" clip-rule="evenodd" d="M7.5 4.5a2 2 0 1 1-4 0 2 2 0 0 1 4 0m1.5 0a3.5 3.5 0 0 1-2.75 3.42v5.33H9.5c.71 0 1.204 0 1.59-.027.38-.026.602-.074.771-.144a2.25 2.25 0 0 0 1.218-1.218c.07-.169.118-.39.144-.77.021-.306.026-.679.027-1.172A3.501 3.501 0 0 1 14 3a3.5 3.5 0 0 1 .75 6.92c-.001.498-.006.918-.03 1.273-.031.456-.097.86-.256 1.242a3.75 3.75 0 0 1-2.029 2.03c-.382.158-.786.224-1.242.255-.444.03-.99.03-1.666.03H6.25V18a.75.75 0 0 1-1.5 0V7.92A3.501 3.501 0 0 1 5.5 1 3.5 3.5 0 0 1 9 4.5m7 2a2 2 0 1 1-4 0 2 2 0 0 1 4 0" fill="#CED0D6"/></svg>