<svg width="20" height="20" viewBox="0 0 20 20" fill="none"><g clip-path="url(#a)"><g clip-path="url(#b)" fill="#CED0D6"><path d="M10.58 3.902a.5.5 0 0 0-.49-.402h-.18a.5.5 0 0 0-.49.402L9.08 5.594a4.5 4.5 0 0 1 1.838 0zM14.04 8.016l2.146.858a.5.5 0 0 1 .314.465V10h-2c0-.712-.165-1.385-.46-1.984M5.96 8.016A4.5 4.5 0 0 0 5.5 10h-2v-.661a.5.5 0 0 1 .314-.465zM10 11.5a1.5 1.5 0 1 0 0-3 1.5 1.5 0 0 0 0 3"/><path fill-rule="evenodd" clip-rule="evenodd" d="M14 10a4 4 0 1 1-8 0 4 4 0 0 1 8 0m-1.5 0a2.5 2.5 0 1 1-5 0 2.5 2.5 0 0 1 5 0"/><path fill-rule="evenodd" clip-rule="evenodd" d="M15.362 1.63A1.25 1.25 0 0 0 14.276 1H5.72c-.449 0-.863.24-1.086.63L.163 9.38a1.25 1.25 0 0 0 0 1.24l4.471 7.75c.223.39.637.63 1.086.63h8.556c.449 0 .863-.24 1.086-.63l4.471-7.75c.22-.384.22-.856 0-1.24zM18.459 10l-4.327-7.5H5.864L1.537 10l4.327 7.5h8.268z"/></g></g><defs><clipPath id="a"><path fill="#fff" d="M0 0H20V20H0z"/></clipPath><clipPath id="b"><path fill="#fff" d="M0 0H20V20H0z"/></clipPath></defs></svg>