<svg width="14" height="14" viewBox="0 0 14 14" fill="none"><path fill-rule="evenodd" clip-rule="evenodd" d="M13.827.176a.6.6 0 0 1 0 .848L10.03 4.821a.6.6 0 0 1-.848 0L7.176 2.815a.6.6 0 1 1 .848-.848l1.582 1.581L12.979.176a.6.6 0 0 1 .848 0" fill="#6C707E"/><path d="M6.037 2.064C3.1 2.454.677 4.587 0 7c.75 2.672 3.64 5 7 5s6.25-2.328 7-5c-.3-1.068-.941-2.08-1.818-2.912L10.741 5.53c-.131.13-.28.234-.438.31a3.5 3.5 0 1 1-3.818-2.303l-.013-.013a1.6 1.6 0 0 1-.435-1.46" fill="#E55765"/><path d="M9 7a2 2 0 1 1-4 0 2 2 0 0 1 4 0" fill="#E55765"/></svg>