<svg width="14" height="14" viewBox="0 0 14 14" fill="none"><path d="M10 7a4.5 4.5 0 1 1-9 0 4.5 4.5 0 0 1 9 0" fill="#FFF7F7"/><path fill-rule="evenodd" clip-rule="evenodd" d="M11.5 8a.5.5 0 0 1-.5-.5V1.707L9.854 2.854a.5.5 0 1 1-.708-.708l2-2a.5.5 0 0 1 .708 0l2 2a.5.5 0 0 1-.708.708L12 1.707V7.5a.5.5 0 0 1-.5.5" fill="#DB3B4B"/><path d="M10 7a4.5 4.5 0 1 1-1.578-3.422l.017-.017a1.5 1.5 0 0 1-.391-1.437 5.5 5.5 0 1 0 2.66 6.65A1.5 1.5 0 0 1 10 7.5z" fill="#DB3B4B"/><path d="M7.463 10.08a.96.96 0 0 1-.432-.088.8.8 0 0 1-.28-.248 2 2 0 0 1-.184-.408L6.12 8a6 6 0 0 0-.112-.32l-.128-.36a5.02 5.02 0 0 1-.16-.68h-.032a4 4 0 0 1-.12.648q-.088.32-.192.68L4.76 10H3.663L5.24 5.68l-.136-.368q-.128-.368-.368-.488a1.16 1.16 0 0 0-.568-.128q-.135 0-.248.016-.113.015-.192.032v-.8l.16-.032q.096-.016.208-.024a3 3 0 0 1 .232-.008q.44 0 .76.12.32.113.544.384.232.272.416.752L7.36 8.64q.096.247.16.376a.45.45 0 0 0 .136.176.3.3 0 0 0 .16.048 1 1 0 0 0 .136-.008l.112-.032v.768a.6.6 0 0 1-.16.056 2.4 2.4 0 0 1-.44.056" fill="#DB3B4B"/></svg>