<svg viewBox="0 0 16 16" fill="none" xmlns="http://www.w3.org/2000/svg">
  <path d="M8 3.5 4 5v3c0 1.856 1.53 3.329 2.698 4.183L12 6.88V5z" fill="#43454A"></path><path d="M4 3a1 1 0 0 0-1 1v1.5a.5.5 0 0 1-1 0V4a2 2 0 0 1 2-2h1.5a.5.5 0 0 1 0 1zM13 5.5V4a1 1 0 0 0-1-1h-1.5a.5.5 0 0 1 0-1H12a2 2 0 0 1 2 2v1.5a.5.5 0 0 1-1 0M3 12a1 1 0 0 0 1 1h1.5a.5.5 0 0 1 0 1H4a2 2 0 0 1-2-2v-1.5a.5.5 0 0 1 1 0zM12 6.88l-1 1V5.694L8 4.568 5 5.693V8c0 1.054.718 2.05 1.659 2.872.257.226.517.425.756.594l-.717.717C5.531 11.329 4 9.856 4 8V5l4-1.5L12 5z" fill="#CED0D6"></path><path d="M11.562 10.148a.5.5 0 1 1-.707-.708l.677-.677a2.615 2.615 0 0 1 3.699.006 2.615 2.615 0 0 1 .006 3.699l-.677.677a.5.5 0 1 1-.708-.707l.678-.677a1.615 1.615 0 0 0-.006-2.285 1.615 1.615 0 0 0-2.285-.006zM10.148 10.855a.5.5 0 0 1 0 .707l-.678.677a1.615 1.615 0 0 0 .006 2.285 1.615 1.615 0 0 0 2.285.006l.677-.678a.5.5 0 0 1 .707.707l-.677.678a2.615 2.615 0 0 1-3.699-.006 2.615 2.615 0 0 1-.006-3.699l.677-.677a.5.5 0 0 1 .708 0" fill="#548AF7"></path><path d="M13.854 10.854a.5.5 0 0 0-.708-.708l-3 3a.5.5 0 0 0 .708.708z" fill="#548AF7"></path>
</svg>
