<svg viewBox="0 0 16 16" fill="none" xmlns="http://www.w3.org/2000/svg">
  <path d="M4 4h2v1H4z" fill="#6C707E"></path><path fill-rule="evenodd" clip-rule="evenodd" d="M2 3v3a1 1 0 0 0 1 1h10a1 1 0 0 0 1-1V3a1 1 0 0 0-1-1H3a1 1 0 0 0-1 1m1 3V3h10v3z" fill="#6C707E"></path><path d="M6 11H4v1h2z" fill="#6C707E"></path><path fill-rule="evenodd" clip-rule="evenodd" d="M2 10v3a1 1 0 0 0 1 1h10a1 1 0 0 0 1-1v-3a1 1 0 0 0-1-1H3a1 1 0 0 0-1 1m1 3v-3h10v3z" fill="#6C707E"></path><path fill-rule="evenodd" clip-rule="evenodd" d="M3 3h10v3H3zm1 1h2v1H4zM3 10h10v3H3zm1 1h2v1H4z" fill="#EBECF0"></path>
</svg>
