<svg width="16" height="16" viewBox="0 0 16 16" fill="none"><path d="M6.865 8h1.222L7.74 9.683H8.84q.902.018 1.346.37.452.352.266 1.34l-.594 2.933h-1.24l.568-2.802q.088-.44-.054-.625t-.61-.185l-.983-.01-.726 3.622H5.59z" fill="#676BD7"/><path fill-rule="evenodd" clip-rule="evenodd" d="M1.266 9.683H3.64q1.044.008 1.514.599.47.59.31 1.612a3.1 3.1 0 0 1-.275.916q-.203.45-.566.811-.442.459-.948.582a4.4 4.4 0 0 1-1.044.123H1.567L1.231 16H0zm.505 3.647.53-2.634h.178q.098 0 .204-.009.708-.009 1.177.132.479.141.32 1.066-.196 1.102-.762 1.287-.567.176-1.417.167h-.124a1 1 0 0 1-.106-.009M14.135 9.683h-2.373L10.496 16h1.23l.337-1.674h1.063q.54 0 1.045-.123.504-.124.947-.582.363-.36.566-.81.213-.45.275-.917.16-1.022-.31-1.612-.469-.591-1.514-.6m-1.339 1.013-.53 2.634q.054.01.107.01h.124q.85.008 1.417-.168.566-.185.761-1.287.16-.925-.319-1.066-.469-.141-1.177-.132-.106.009-.204.009z" fill="#676BD7"/><path d="M12.146 6.647a.5.5 0 0 0 .708.707L15.707 4.5l-2.853-2.854a.5.5 0 0 0-.708.708L13.793 4H9a.5.5 0 0 0 0 1h4.793z" fill="#DB3B4B"/><path d="M3.854 2.354a.5.5 0 1 0-.707-.707L.293 4.5l2.854 2.854a.5.5 0 1 0 .707-.707L2.207 5H7a.5.5 0 0 0 0-1H2.207z" fill="#369650"/></svg>