<svg viewBox="0 0 16 16" fill="none" xmlns="http://www.w3.org/2000/svg">
  <path d="M10.875 15.55q.759.45 1.707.45a3.3 3.3 0 0 0 1.624-.401q.725-.406 1.131-1.117.411-.715.411-1.605v-.541h-2.78v.962h1.61a1.7 1.7 0 0 1-.275.807q-.261.396-.71.619a2.24 2.24 0 0 1-.997.217q-.613 0-1.102-.31a2.15 2.15 0 0 1-.764-.864q-.27-.556-.27-1.267t.27-1.262q.276-.556.76-.865.487-.315 1.097-.314.483 0 .899.188.42.189.696.508.28.319.362.71h1.165a2.5 2.5 0 0 0-.517-1.247 3 3 0 0 0-1.121-.89A3.4 3.4 0 0 0 12.58 9q-.946 0-1.706.454-.759.45-1.189 1.252-.43.798-.43 1.794t.43 1.798a3.2 3.2 0 0 0 1.19 1.252" fill="#208A3C"></path><path d="M14.967 8.682a7 7 0 1 0-6.066 6.26 5 5 0 0 1-.096-.169l-.001-.002a4.74 4.74 0 0 1-.549-2.271c0-.812.177-1.576.55-2.267.37-.69.89-1.242 1.558-1.638A4.26 4.26 0 0 1 12.58 8a4.4 4.4 0 0 1 2.386.682" fill="#FFF4EB"></path><path d="m7.06 2.074-.155-.988A6.97 6.97 0 0 0 3.05 3.05a6.97 6.97 0 0 0-1.964 3.855l.988.155c.19-1.209.75-2.37 1.684-3.303A5.97 5.97 0 0 1 7.06 2.074M13.927 7.06l.988-.155A6.97 6.97 0 0 0 12.95 3.05a6.97 6.97 0 0 0-3.855-1.964l-.155.988c1.209.19 2.37.75 3.303 1.683a5.97 5.97 0 0 1 1.684 3.303M1.086 9.095A6.97 6.97 0 0 0 3.05 12.95a6.97 6.97 0 0 0 3.855 1.964l.156-.987a5.97 5.97 0 0 1-3.303-1.684A5.97 5.97 0 0 1 2.074 8.94zM7.258 12h1.017V7.327H9.83V6.43H8.275v-.95c0-.36.246-.606.6-.606h1.006V4H8.778c-.903 0-1.52.571-1.52 1.406V6.43H6.121v.897h1.137z" fill="#E66D17"></path>
</svg>
