<svg viewBox="0 0 16 16" fill="none" xmlns="http://www.w3.org/2000/svg">
  <path d="M11.999 13a1 1 0 1 0 0-2 1 1 0 0 0 0 2" fill="#6C707E"></path><path fill-rule="evenodd" clip-rule="evenodd" d="M13.12 15.676a.5.5 0 0 1-.468.324h-1.307a.5.5 0 0 1-.468-.324l-.25-.666a.5.5 0 0 0-.55-.317l-.7.116a.5.5 0 0 1-.516-.243l-.653-1.132a.5.5 0 0 1 .047-.568l.45-.548a.5.5 0 0 0 0-.636l-.45-.548a.5.5 0 0 1-.047-.568l.653-1.132a.5.5 0 0 1 .515-.243l.701.116a.5.5 0 0 0 .55-.317l.25-.666A.5.5 0 0 1 11.345 8h1.307a.5.5 0 0 1 .468.324l.25.666a.5.5 0 0 0 .55.317l.7-.116a.5.5 0 0 1 .516.243l.653 1.132a.5.5 0 0 1-.047.568l-.451.548a.5.5 0 0 0 0 .636l.451.548a.5.5 0 0 1 .047.568l-.653 1.132a.5.5 0 0 1-.515.243l-.701-.116a.5.5 0 0 0-.55.317zM11.692 15h.614l.127-.34a1.5 1.5 0 0 1 1.65-.954l.36.06.307-.532-.231-.281a1.5 1.5 0 0 1 0-1.906l.231-.281-.307-.532-.36.06a1.5 1.5 0 0 1-1.65-.953L12.306 9h-.614l-.128.34a1.5 1.5 0 0 1-1.651.954l-.36-.06-.306.532.231.281a1.5 1.5 0 0 1 0 1.906l-.231.281.307.532.359-.06a1.5 1.5 0 0 1 1.65.953z" fill="#6C707E"></path><path fill-rule="evenodd" clip-rule="evenodd" d="M12.309 15h-.614l-.128-.34a1.5 1.5 0 0 0-1.65-.954l-.36.06-.307-.532.231-.281a1.5 1.5 0 0 0 0-1.906l-.231-.281.307-.532.36.06a1.5 1.5 0 0 0 1.65-.953L11.695 9h.614l.127.34a1.5 1.5 0 0 0 1.651.954l.36-.06.306.532-.231.281a1.5 1.5 0 0 0 0 1.906l.231.281-.307.532-.359-.06a1.5 1.5 0 0 0-1.65.953zm.693-3a1 1 0 1 1-2 0 1 1 0 0 1 2 0" fill="#EBECF0"></path><path fill-rule="evenodd" clip-rule="evenodd" d="M9.481 2.239a1.5 1.5 0 1 0-2.962 0L3.502 3.884A1.5 1.5 0 1 0 2 6.414v3.171a1.5 1.5 0 1 0 1.502 2.531l3.017 1.646a1.5 1.5 0 0 0 1.863 1.69 5 5 0 0 1-1.314-2.627l-.07.059-3.017-1.645A1.5 1.5 0 0 0 4 11h3.1q.106-.523.316-1H3.902l4.063-6.5h.07l2.354 3.765q.496-.168 1.034-.232L8.984 3.132l.018-.016 3.017 1.646A1.5 1.5 0 0 0 13 6.415V7.1q.523.106 1 .316V6.415a1.5 1.5 0 1 0-1.502-2.531zm-2.483.877.017.016L3 9.556V6.415a1.5 1.5 0 0 0 .981-1.653z" fill="#DF0098"></path>
</svg>
