<svg viewBox="0 0 16 16" fill="none" xmlns="http://www.w3.org/2000/svg">
  <g clip-path="url(#a)"><circle cx="5" cy="11" r="4.5" fill="#25324D" stroke="#548AF7"></circle><path d="M10.905 12.07A5 5 0 1 0 3.93 5.095a6 6 0 0 1 6.975 6.975" fill="#3D3223"></path><path d="M10.99 10.657A4 4 0 0 0 5.343 5.01a6 6 0 0 0-1.413.085 5 5 0 1 1 6.975 6.975 6 6 0 0 0 .085-1.413" fill="#C77D55"></path><path d="M13.905 9.07A5 5 0 1 0 6.93 2.095a6 6 0 0 1 6.975 6.975" fill="#253627"></path><path d="M13.99 7.657A4 4 0 0 0 8.343 2.01a6 6 0 0 0-1.413.085 5 5 0 1 1 6.975 6.975 6 6 0 0 0 .085-1.413" fill="#57965C"></path></g><defs><clipPath id="a"><path fill="#fff" d="M0 0H16V16H0z"></path></clipPath></defs>
</svg>
