<svg viewBox="0 0 16 16" fill="none" xmlns="http://www.w3.org/2000/svg">
  <path d="M7.275 1.916a.5.5 0 0 0-.555-.832 3.87 3.87 0 0 0-1.722 3.219v.747a2.5 2.5 0 0 0-.748.283 1.5 1.5 0 0 0 2.495 0 2.5 2.5 0 0 0-.747-.283v-.747c0-.96.479-1.855 1.277-2.387" fill="#57965C"></path><path d="M11.999 13a1 1 0 1 0 0-2 1 1 0 0 0 0 2" fill="#CED0D6"></path><path fill-rule="evenodd" clip-rule="evenodd" d="M13.12 15.676a.5.5 0 0 1-.468.324h-1.307a.5.5 0 0 1-.468-.324l-.25-.666a.5.5 0 0 0-.55-.317l-.7.116a.5.5 0 0 1-.516-.243l-.653-1.132a.5.5 0 0 1 .047-.568l.45-.548a.5.5 0 0 0 0-.636l-.45-.548a.5.5 0 0 1-.047-.568l.653-1.132a.5.5 0 0 1 .515-.243l.701.116a.5.5 0 0 0 .55-.317l.25-.666A.5.5 0 0 1 11.345 8h1.307a.5.5 0 0 1 .468.324l.25.666a.5.5 0 0 0 .55.317l.7-.116a.5.5 0 0 1 .516.243l.653 1.132a.5.5 0 0 1-.047.568l-.451.548a.5.5 0 0 0 0 .636l.451.548a.5.5 0 0 1 .047.568l-.653 1.132a.5.5 0 0 1-.515.243l-.701-.116a.5.5 0 0 0-.55.317zM11.692 15h.614l.127-.34a1.5 1.5 0 0 1 1.65-.954l.36.06.307-.532-.231-.281a1.5 1.5 0 0 1 0-1.906l.231-.281-.307-.532-.36.06a1.5 1.5 0 0 1-1.65-.953L12.306 9h-.614l-.128.34a1.5 1.5 0 0 1-1.651.954l-.36-.06-.306.532.231.281a1.5 1.5 0 0 1 0 1.906l-.231.281.307.532.359-.06a1.5 1.5 0 0 1 1.65.953z" fill="#CED0D6"></path><path fill-rule="evenodd" clip-rule="evenodd" d="M12.309 15h-.614l-.128-.34a1.5 1.5 0 0 0-1.65-.954l-.36.06-.307-.532.231-.281a1.5 1.5 0 0 0 0-1.906l-.231-.281.307-.532.36.06a1.5 1.5 0 0 0 1.65-.953L11.695 9h.614l.127.34a1.5 1.5 0 0 0 1.651.954l.36-.06.306.532-.231.281a1.5 1.5 0 0 0 0 1.906l.231.281-.307.532-.359-.06a1.5 1.5 0 0 0-1.65.953zm.693-3a1 1 0 1 1-2 0 1 1 0 0 1 2 0" fill="#43454A"></path><path d="M3 7.5V8a7 7 0 0 0 4.746 6.63A5 5 0 0 1 7 12c0-1.166.4-2.24 1.069-3.09A6 6 0 0 1 8 8v-.5a2.5 2.5 0 0 0-5 0" fill="#DB5C5C"></path>
</svg>
