<svg viewBox="0 0 16 16" fill="none" xmlns="http://www.w3.org/2000/svg">
  <path d="M8 1a7 7 0 0 0 0 14 5 5 0 0 1 7-7 7 7 0 0 0-7-7" fill="#25324D"></path><path d="M7.403 13.97a6 6 0 1 1 6.568-6.567c.368.158.713.36 1.029.597a7 7 0 1 0-7 7 5 5 0 0 1-.597-1.03" fill="#548AF7"></path><path d="M11.998 13a1 1 0 1 0 0-2 1 1 0 0 0 0 2" fill="#CED0D6"></path><path fill-rule="evenodd" clip-rule="evenodd" d="M13.12 15.676a.5.5 0 0 1-.469.324h-1.307a.5.5 0 0 1-.468-.324l-.25-.666a.5.5 0 0 0-.55-.317l-.7.116a.5.5 0 0 1-.516-.243l-.653-1.132a.5.5 0 0 1 .047-.568l.451-.548a.5.5 0 0 0 0-.636l-.451-.548a.5.5 0 0 1-.047-.568l.653-1.132a.5.5 0 0 1 .515-.243l.701.116a.5.5 0 0 0 .55-.317l.25-.666A.5.5 0 0 1 11.344 8h1.307a.5.5 0 0 1 .468.324l.25.666a.5.5 0 0 0 .55.317l.701-.116a.5.5 0 0 1 .515.243l.654 1.132a.5.5 0 0 1-.047.568l-.452.548a.5.5 0 0 0 0 .636l.452.548a.5.5 0 0 1 .047.568l-.654 1.132a.5.5 0 0 1-.515.243l-.7-.116a.5.5 0 0 0-.551.317zM11.69 15h.615l.128-.34a1.5 1.5 0 0 1 1.65-.954l.36.06.306-.532-.231-.281a1.5 1.5 0 0 1 0-1.906l.231-.281-.307-.532-.359.06a1.5 1.5 0 0 1-1.65-.953L12.305 9h-.614l-.128.34a1.5 1.5 0 0 1-1.65.954l-.36-.06-.307.532.231.281a1.5 1.5 0 0 1 0 1.906l-.23.281.306.532.36-.06a1.5 1.5 0 0 1 1.65.953z" fill="#CED0D6"></path><path fill-rule="evenodd" clip-rule="evenodd" d="M12.309 15h-.614l-.128-.34a1.5 1.5 0 0 0-1.65-.954l-.36.06-.307-.532.231-.281a1.5 1.5 0 0 0 0-1.906l-.231-.281.307-.532.36.06a1.5 1.5 0 0 0 1.65-.953L11.695 9h.614l.127.34a1.5 1.5 0 0 0 1.651.954l.36-.06.306.532-.231.281a1.5 1.5 0 0 0 0 1.906l.231.281-.307.532-.359-.06a1.5 1.5 0 0 0-1.65.953zm.693-3a1 1 0 1 1-2 0 1 1 0 0 1 2 0" fill="#43454A"></path><path d="M4.787 8c0 1.141.462 2.117 1.213 2.746a3.2 3.2 0 0 0 1.045.582q.064-.476.214-.92C6.393 10.049 5.827 9.15 5.827 8c0-1.503.966-2.577 2.305-2.577q.32 0 .607.072c.542.132.986.438 1.27.843l.744-.615a3.1 3.1 0 0 0-1.571-1.067 3.6 3.6 0 0 0-1.05-.156C6.213 4.5 4.787 5.994 4.787 8" fill="#548AF7"></path>
</svg>
