<svg viewBox="0 0 16 16" fill="none" xmlns="http://www.w3.org/2000/svg">
  <path d="M1 3.867C1 2.836 1.784 2 2.75 2h3.288a1 1 0 0 1 .698.283L8.5 4H13a2 2 0 0 1 2 2v2h-4a2 2 0 0 0-2 2v4H2.75C1.784 14 1 13.164 1 12.133z" fill="#43454A"></path><path d="m6.038 3 2.056 2H13a1 1 0 0 1 1 1v2h1V6a2 2 0 0 0-2-2H8.5L6.736 2.283A1 1 0 0 0 6.038 2H2.75C1.784 2 1 2.836 1 3.867v8.266C1 13.164 1.784 14 2.75 14H9v-1H2.75c-.354 0-.75-.326-.75-.867V3.867c0-.54.396-.867.75-.867z" fill="#CED0D6"></path><path d="M12 12h2v-1h-2zM12 14h2v-1h-2z" fill="#548AF7"></path><path fill-rule="evenodd" clip-rule="evenodd" d="M11 9a1 1 0 0 0-1 1v5a1 1 0 0 0 1 1h4a1 1 0 0 0 1-1v-5a1 1 0 0 0-1-1zm4 1h-4v5h4z" fill="#548AF7"></path>
</svg>
