<svg viewBox="0 0 16 16" fill="none" xmlns="http://www.w3.org/2000/svg">
  <path d="m12 8 1.113 2.812 2.887.244-2.2 1.981.672 2.963L12 14.412 9.528 16l.672-2.963L8 11.056l2.887-.244z" fill="#CED0D6"></path><path d="M15 8c0 .675-.095 1.327-.274 1.945l-.912-.077-.884-2.236a1 1 0 0 0-1.86 0l-.884 2.236-2.27.191a1 1 0 0 0-.585 1.74l1.764 1.589-.357 1.574A7 7 0 1 1 15 8" fill="#402929"></path><path d="M8 14q.498 0 .974-.079l-.236 1.04a7 7 0 1 1 5.988-5.017l-.912-.076-.062-.157A6 6 0 1 0 8 14" fill="#DB5C5C"></path><path d="M8.296 6.315c.34-.668.958-1.07 1.77-1.07 1.04 0 1.78.675 1.913 1.755a1 1 0 0 0-.909.632l-.069.174v-.368c0-.82-.425-1.33-1.177-1.33-.804 0-1.33.573-1.33 1.482v2.42l-.578.05a1 1 0 0 0-.41.126V7.438c0-.82-.431-1.33-1.177-1.33-.815 0-1.33.573-1.33 1.482v3.164H4V5.372h.962v.877c.32-.64.887-1.003 1.645-1.003.799 0 1.397.397 1.689 1.07" fill="#DB5C5C"></path>
</svg>
