<svg viewBox="0 0 16 16" fill="none" xmlns="http://www.w3.org/2000/svg">
  <rect x="2" y="12" width="5" height="1" rx=".5" fill="#6C707E"></rect><rect x="2" y="6" width="12" height="1" rx=".5" fill="#6C707E"></rect><rect x="2" y="9" width="8" height="1" rx=".5" fill="#6C707E"></rect><rect x="2" y="3" width="12" height="1" rx=".5" fill="#6C707E"></rect><path fill-rule="evenodd" clip-rule="evenodd" d="M12.5 9a.5.5 0 0 1 .5.5V12h2.5a.5.5 0 0 1 0 1H13v2.5a.5.5 0 0 1-1 0V13H9.5a.5.5 0 0 1 0-1H12V9.5a.5.5 0 0 1 .5-.5" fill="#6C707E"></path>
</svg>
