<svg viewBox="0 0 16 16" fill="none" xmlns="http://www.w3.org/2000/svg">
  <path d="m14.969 7.336-.57 1.238-.007.013q-.015.03-.057.098a3 3 0 0 1-.288.382 3.3 3.3 0 0 1-1.343.911c-.554.204-1.009.226-1.575.252l-.02.001c-.57.027-1.292.062-2.08.451-.619.306-1.145.73-1.509 1.31-.364.582-.52 1.248-.52 1.963 0 .37.063.702.176.997a7.001 7.001 0 1 1 7.793-7.616" fill="#45322B"></path><path d="M13.869 9.253Q13.999 8.646 14 8a6 6 0 1 0-7 5.917v.038c0 .37.063.702.176.997a7.001 7.001 0 1 1 7.793-7.616l-.57 1.238-.007.013q-.015.03-.057.098a3 3 0 0 1-.466.568" fill="#C77D55"></path><path d="M8.57 5c-.844 0-1.508.371-1.888.998v-.875h-.983V12h1.003V9.52c.384.607 1.039.965 1.868.965 1.458 0 2.476-1.115 2.476-2.742S10.028 5 8.57 5m-.21 4.585c-.977 0-1.658-.752-1.658-1.842S7.382 5.9 8.36 5.9c.972 0 1.643.752 1.643 1.842s-.67 1.842-1.643 1.842" fill="#C77D55"></path><path d="M15.421 14.726C16.79 12.78 15.304 9 15.304 9s-.603 1.309-2.255 1.917c-1.444.53-2.408.084-3.577.662C8.49 12.064 8 12.819 8 13.955c0 .694.324 1.148.821 1.448 5.12-.677 6.08-3.91 6.08-3.91s-.537 3.444-4.932 4.32c.653.132 1.381.166 2.039.183 1.424.038 2.67-.212 3.413-1.27" fill="#57965C"></path><path d="M15.421 14.726C16.79 12.78 15.304 9 15.304 9s-.603 1.309-2.255 1.917c-1.444.53-2.408.084-3.577.662C8.49 12.064 8 12.819 8 13.955c0 .694.324 1.148.821 1.448 5.12-.677 6.08-3.91 6.08-3.91s-.537 3.444-4.932 4.32c.653.132 1.381.166 2.039.183 1.424.038 2.67-.212 3.413-1.27" fill="#57965C"></path>
</svg>
