<svg viewBox="0 0 16 16" fill="none" xmlns="http://www.w3.org/2000/svg">
  <path fill-rule="evenodd" clip-rule="evenodd" d="M12.5 9a.5.5 0 0 1 .5.5V12h2.5a.5.5 0 0 1 0 1H13v2.5a.5.5 0 0 1-1 0V13H9.5a.5.5 0 0 1 0-1H12V9.5a.5.5 0 0 1 .5-.5" fill="#3574F0"></path><path fill-rule="evenodd" clip-rule="evenodd" d="M3 2a2 2 0 0 0-2 2v8a2 2 0 0 0 2 2h5v-1H6V6h4v5h1V6h3v2h1V4a2 2 0 0 0-2-2zm7 1H6v2h4zM3 3h2v2H2V4a1 1 0 0 1 1-1m-1 9V6h3v7H3a1 1 0 0 1-1-1m12-8v1h-3V3h2a1 1 0 0 1 1 1" fill="#6C707E"></path>
</svg>
