<svg width="20" height="20" viewBox="0 0 20 20" fill="none"><path fill-rule="evenodd" clip-rule="evenodd" d="M15.228 13.04s.605.177.957.35c.122.059.333.178.485.335.15.153.222.309.222.309l2.385 3.892-3.855.002-1.803-3.277s-.37-.614-.596-.792c-.19-.148-.27-.201-.458-.201h-.916v4.268H8.24v-10.9h6.85s3.12.054 3.12 2.927-2.981 3.087-2.981 3.087m-1.484-3.65-2.065-.001-.002 1.853h2.067s.957-.003.957-.943c0-.96-.957-.91-.957-.91" fill="#6C707E"/><path fill-rule="evenodd" clip-rule="evenodd" d="M18.984 12.333c.65-.86 1.016-1.828 1.016-2.85C20 5.902 15.523 3 10 3S0 5.902 0 9.482c0 2.982 3.104 5.493 7.332 6.25V13.66c-2.05-.794-3.402-2.152-3.402-3.695 0-2.447 3.403-4.432 7.6-4.432 4.199 0 7.296 1.358 7.296 4.432 0 .95-.295 1.735-.826 2.367z" fill="#6C707E"/></svg>