<svg viewBox="0 0 16 16" fill="none" xmlns="http://www.w3.org/2000/svg">
  <path d="M10.713 14.71c-.241-.597-.404-1.362-.45-2.21H9.041c.164.98.803 1.798 1.672 2.21M11.678 14.428c-.207-.473-.365-1.143-.413-1.928h1.47c-.049.785-.207 1.455-.414 1.928-.119.271-.236.437-.322.525-.085-.088-.202-.254-.32-.525M11.678 9.572c-.207.473-.365 1.143-.413 1.928h1.47c-.049-.785-.207-1.455-.414-1.928-.119-.271-.236-.437-.322-.525-.085.088-.202.254-.32.525M13.286 14.71c.241-.597.404-1.362.45-2.21h1.222a3 3 0 0 1-1.672 2.21M13.736 11.5h1.222a3 3 0 0 0-1.672-2.21c.241.597.404 1.362.45 2.21M9.041 11.5h1.222c.046-.848.209-1.613.45-2.21A3 3 0 0 0 9.04 11.5" fill="#EBECF0"></path><path fill-rule="evenodd" clip-rule="evenodd" d="M16 12a4 4 0 1 0-8 0 4 4 0 0 0 8 0m-5.736.5c.046.848.208 1.613.45 2.21A3 3 0 0 1 9.04 12.5zm1.001 0c.048.785.207 1.455.414 1.928.118.271.236.437.321.525.085-.088.203-.254.321-.525.207-.473.366-1.143.414-1.928zm1.47-1h-1.47c.048-.785.207-1.455.414-1.928.118-.271.236-.437.321-.525.085.088.203.254.321.525.207.473.366 1.143.414 1.928m1.002 1c-.047.848-.21 1.613-.45 2.21a3 3 0 0 0 1.672-2.21zm1.222-1h-1.223c-.046-.848-.208-1.613-.45-2.21a3 3 0 0 1 1.673 2.21m-4.695 0H9.04a3 3 0 0 1 1.672-2.21c-.24.597-.403 1.362-.45 2.21" fill="#6C707E"></path><path d="M8.96 8.03A4.98 4.98 0 0 1 12 7c.837 0 1.626.206 2.319.569 1.216-1.6.713-3.61-.793-5.116C11.89.816 9.63.41 8.011 2.028c-1.62 1.62-1.154 3.964.411 5.53q.256.255.537.472M8.006 8.992a6 6 0 0 0-.48-.539C5.89 6.816 3.63 6.41 2.011 8.028c-1.62 1.62-1.154 3.964.411 5.53 1.446 1.445 3.533 1.99 5.148.762A5 5 0 0 1 7 12c0-1.13.374-2.17 1.006-3.008" fill="#FFF4EB"></path><path fill-rule="evenodd" clip-rule="evenodd" d="M8.96 8.03q.432-.331.932-.565a4.5 4.5 0 0 1-.763-.615c-.648-.648-1.032-1.423-1.113-2.148a2.3 2.3 0 0 1 .388-1.591l3.898 3.898c.724.043 1.407.24 2.017.56 1.216-1.6.713-3.61-.793-5.116C11.89.816 9.63.41 8.011 2.028c-1.62 1.62-1.154 3.964.411 5.53q.256.255.537.472m3.86-4.87c.698.7 1.085 1.468 1.164 2.162a2.2 2.2 0 0 1-.399 1.556L9.112 2.405a2.23 2.23 0 0 1 1.543-.39c.7.074 1.472.453 2.164 1.145M8.006 8.992a6 6 0 0 0-.48-.539C5.89 6.816 3.63 6.41 2.011 8.028c-1.62 1.62-1.154 3.964.411 5.53 1.446 1.445 3.533 1.99 5.148.762a5 5 0 0 1-.561-2.018L3.112 8.405a2.23 2.23 0 0 1 1.543-.391c.7.075 1.472.454 2.164 1.147q.374.375.63.767.227-.501.557-.936m-5.602.119 4.475 4.475a2.26 2.26 0 0 1-1.604.396c-.719-.085-1.49-.477-2.146-1.132-.648-.648-1.032-1.423-1.113-2.148a2.3 2.3 0 0 1 .388-1.591" fill="#E66D17"></path>
</svg>
