<svg viewBox="0 0 16 16" fill="none" xmlns="http://www.w3.org/2000/svg">
  <path d="M8 8h8v8H8z" fill="#253627"></path><path d="M10 10h4.645l-1.97 1.97a.75.75 0 0 0 0 1.06l1.97 1.97H10z" fill="#2F2936"></path><path fill-rule="evenodd" clip-rule="evenodd" d="M9 10a1 1 0 0 1 1-1h5.248a.75.75 0 0 1 .53 1.28l-2.22 2.22 2.22 2.22a.75.75 0 0 1-.53 1.28H10a1 1 0 0 1-1-1zm5.645 0H10v5h4.645l-1.97-1.97a.75.75 0 0 1 0-1.06z" fill="#A571E6"></path><path d="M15 8a7 7 0 1 0-7 7v-5a2 2 0 0 1 2-2z" fill="#253627"></path><path d="M9.73 6.359v-.974h.925V8H10q-.18 0-.35.03c-.005-1.049-.728-1.84-1.69-1.84-.966 0-1.69.796-1.69 1.85s.724 1.85 1.69 1.85h.043L8 10v.773l-.129.003c-1.488 0-2.607-1.175-2.607-2.736 0-1.56 1.119-2.735 2.607-2.735.845 0 1.484.385 1.83 1.054z" fill="#57965C"></path><path d="M15 8v-.08C15 4.114 11.854 1 8 1S1 4.186 1 8.08C1 11.886 4.146 15 8 15v-1.006c-3.299 0-5.994-2.663-5.994-5.914C2.006 4.741 4.7 2.006 8 2.006s5.994 2.663 5.994 5.914V8z" fill="#57965C"></path>
</svg>
