<svg viewBox="0 0 16 16" fill="none" xmlns="http://www.w3.org/2000/svg">
  <circle cx="12" cy="12" r="2" fill="#43454A"></circle><path fill-rule="evenodd" clip-rule="evenodd" d="M13.738 14.445a3 3 0 1 1 .707-.707l1.409 1.408a.5.5 0 0 1-.708.708zM14 12a2 2 0 1 1-4 0 2 2 0 0 1 4 0" fill="#CED0D6"></path><path d="M6.556 5.927c-.703.038-1.515.101-2.363.421-1.94.733-2.94 2.27-3.151 3.777-.196 1.399.288 3.024 1.643 3.711l.038.091.039.095c.04.101.14.345.323.55.11.123.27.258.494.344.228.088.46.1.669.066a8 8 0 0 1 .703-.079l.047-.003h.008c.488-.022 1.038-.005 1.666.015l.286.009c.717.02 1.509.037 2.293-.018a4 4 0 0 1-.74-.95c-.61.014-1.22-.005-1.805-.023a24 24 0 0 0-1.753-.015s-.432.025-.868.095c0 0 .165-.069.375-.14a41 41 0 0 1 1.574-.495c.765-.228 1.333-.397 1.994-.73l.022-.012a4 4 0 0 1-.04-.93 8 8 0 0 1-.755.319c-1.413.511-3.969 1.011-3.969 1.011l-.103-.054c-1.738-.83-1.786-4.525 1.369-5.716.777-.294 1.535-.332 2.316-.37.608-.031 1.23-.062 1.886-.216 1.595-.372 3.441-1.55 4.192-3.082.473 1.376.999 3.189 1.049 4.934.371.214.705.486.988.803.028-.49.016-.98-.024-1.457-.142-1.682-.636-3.345-1.066-4.594L13.11 1l-1.064 2.172C11.458 4.369 9.908 5.4 8.523 5.724h-.001c-.56.132-1.087.158-1.701.19h-.002z" fill="#57965C"></path><path d="M13.994 8.532c-.05-1.745-.576-3.558-1.049-4.934-.75 1.532-2.597 2.71-4.192 3.082-.655.153-1.277.185-1.886.215-.78.039-1.538.077-2.316.37-3.155 1.192-3.107 4.887-1.369 5.717l.104.054.025-.005c.267-.054 2.612-.525 3.944-1.007q.376-.136.756-.318a4.003 4.003 0 0 1 5.983-3.174M8.51 13.956a4 4 0 0 1-.46-1.32l-.022.011c-.661.334-1.23.503-1.994.73-.44.132-.947.283-1.574.496-.21.071-.375.14-.375.14.435-.07.868-.095.868-.095.531-.023 1.127-.005 1.753.015.585.018 1.196.037 1.804.023" fill="#253627"></path>
</svg>
