<svg viewBox="0 0 16 16" fill="none" xmlns="http://www.w3.org/2000/svg">
  <path d="M1 3.867C1 2.836 1.784 2 2.75 2h3.288a1 1 0 0 1 .698.283L8.5 4H13a2 2 0 0 1 2 2v1.39A5.5 5.5 0 0 0 6.875 14H2.75C1.784 14 1 13.164 1 12.133z" fill="#EBECF0"></path><path d="m6.038 3 2.056 2H13a1 1 0 0 1 1 1v.875q.53.208 1 .514V6a2 2 0 0 0-2-2H8.5L6.736 2.283A1 1 0 0 0 6.038 2H2.75C1.784 2 1 2.836 1 3.867v8.266C1 13.164 1.784 14 2.75 14h4.125a5.5 5.5 0 0 1-.284-1H2.75c-.354 0-.75-.326-.75-.867V3.867c0-.54.396-.867.75-.867z" fill="#6C707E"></path><path d="M11.998 13a1 1 0 1 0 0-2 1 1 0 0 0 0 2" fill="#3574F0"></path><path fill-rule="evenodd" clip-rule="evenodd" d="M13.12 15.676a.5.5 0 0 1-.468.324h-1.307a.5.5 0 0 1-.469-.324l-.25-.666a.5.5 0 0 0-.55-.317l-.7.116a.5.5 0 0 1-.515-.243l-.654-1.132a.5.5 0 0 1 .047-.568l.451-.548a.5.5 0 0 0 0-.636l-.451-.548a.5.5 0 0 1-.047-.568l.654-1.132a.5.5 0 0 1 .515-.243l.7.116a.5.5 0 0 0 .55-.317l.25-.666A.5.5 0 0 1 11.345 8h1.306a.5.5 0 0 1 .469.324l.25.666a.5.5 0 0 0 .55.317l.7-.116a.5.5 0 0 1 .515.243l.654 1.132a.5.5 0 0 1-.047.568l-.452.548a.5.5 0 0 0 0 .636l.452.548a.5.5 0 0 1 .047.568l-.654 1.132a.5.5 0 0 1-.515.243l-.7-.116a.5.5 0 0 0-.55.317zM11.69 15h.614l.128-.34a1.5 1.5 0 0 1 1.65-.954l.36.06.307-.532-.232-.281a1.5 1.5 0 0 1 0-1.906l.232-.281-.307-.532-.36.06a1.5 1.5 0 0 1-1.65-.953L12.305 9h-.614l-.128.34a1.5 1.5 0 0 1-1.65.954l-.36-.06-.307.532.232.281a1.5 1.5 0 0 1 0 1.906l-.232.281.307.532.36-.06a1.5 1.5 0 0 1 1.65.953z" fill="#3574F0"></path><path fill-rule="evenodd" clip-rule="evenodd" d="M12.309 15h-.614l-.128-.34a1.5 1.5 0 0 0-1.65-.954l-.36.06-.307-.532.231-.281a1.5 1.5 0 0 0 0-1.906l-.231-.281.307-.532.36.06a1.5 1.5 0 0 0 1.65-.953L11.695 9h.614l.127.34a1.5 1.5 0 0 0 1.651.954l.36-.06.306.532-.231.281a1.5 1.5 0 0 0 0 1.906l.231.281-.307.532-.359-.06a1.5 1.5 0 0 0-1.65.953zm.693-3a1 1 0 1 1-2 0 1 1 0 0 1 2 0" fill="#EDF3FF"></path>
</svg>
