<svg width="14" height="14" viewBox="0 0 14 14" fill="none"><path d="M8.356 6.26a1 1 0 0 1 0 1.512L3.158 12.27a1 1 0 0 1-1.655-.756V2.516a1 1 0 0 1 1.655-.756z" fill="#F2FCF3"/><path fill-rule="evenodd" clip-rule="evenodd" d="M8.684 5.881a1.5 1.5 0 0 1 0 2.269l-5.2 4.499c-.97.84-2.48.15-2.48-1.134V2.516c0-1.285 1.51-1.975 2.48-1.134zm-.655 1.513a.5.5 0 0 0 0-.757L2.83 2.138a.5.5 0 0 0-.827.378v8.999a.5.5 0 0 0 .827.378z" fill="#208A3C"/><path d="m6.857 1.5 5.5 4.76a1 1 0 0 1 0 1.512L6.892 12.5" stroke="#208A3C" stroke-linecap="round"/></svg>