<svg width="20" height="20" viewBox="0 0 20 20" fill="none"><path fill-rule="evenodd" clip-rule="evenodd" d="M3.82 3.988c-.274.246-.32.42-.32.512s.046.266.32.512.713.501 1.32.731c1.207.458 2.925.757 4.86.757s3.653-.299 4.86-.757c.607-.23 1.046-.485 1.32-.73.274-.247.32-.421.32-.513s-.046-.266-.32-.512-.713-.501-1.32-.731C13.654 2.799 11.936 2.5 10 2.5s-3.653.299-4.86.757c-.607.23-1.046.485-1.32.73M16.5 6.622a7 7 0 0 1-1.107.524C13.976 7.683 12.069 8 10 8s-3.976-.317-5.393-.854A7 7 0 0 1 3.5 6.622V8.2c0 .092.046.266.32.512s.713.501 1.32.731c1.207.458 2.925.757 4.86.757s3.653-.299 4.86-.757c.607-.23 1.046-.485 1.32-.73.274-.247.32-.421.32-.513zM18 4.5c0-.668-.36-1.217-.819-1.629-.46-.412-1.083-.75-1.789-1.017C13.977 1.317 12.07 1 10 1s-3.976.317-5.393.854c-.705.268-1.328.605-1.788 1.017S2 3.832 2 4.5v11c0 .668.36 1.217.819 1.629.46.412 1.083.75 1.788 1.017C6.024 18.683 7.931 19 10 19s3.976-.317 5.393-.854c.705-.268 1.328-.605 1.788-1.017S18 16.168 18 15.5zm-1.5 5.822a7 7 0 0 1-1.107.524c-1.417.537-3.324.854-5.393.854s-3.976-.317-5.393-.854a7 7 0 0 1-1.107-.524V11.8c0 .092.046.266.32.512s.713.501 1.32.731c1.207.458 2.925.757 4.86.757s3.653-.299 4.86-.757c.607-.23 1.046-.485 1.32-.73.274-.247.32-.421.32-.513zm0 3.6a7 7 0 0 1-1.107.524c-1.417.537-3.324.854-5.393.854s-3.976-.317-5.393-.854a7 7 0 0 1-1.107-.524V15.5c0 .092.046.266.32.512s.713.501 1.32.731c1.207.458 2.925.757 4.86.757s3.653-.299 4.86-.757c.607-.23 1.046-.485 1.32-.73.274-.247.32-.421.32-.513z" fill="#6C707E"/></svg>