<svg viewBox="0 0 16 16" fill="none" xmlns="http://www.w3.org/2000/svg">
  <path d="M10 10h4.645l-1.97 1.97a.75.75 0 0 0 0 1.06l1.97 1.97H10z" fill="#2F2936"></path><path fill-rule="evenodd" clip-rule="evenodd" d="M9 10a1 1 0 0 1 1-1h5.248a.75.75 0 0 1 .53 1.28l-2.22 2.22 2.22 2.22a.75.75 0 0 1-.53 1.28H10a1 1 0 0 1-1-1zm5.645 0H10v5h4.645l-1.97-1.97a.75.75 0 0 1 0-1.06z" fill="#A571E6"></path><path d="M15.341 2.32a2.44 2.44 0 0 0-1.368-1.212c-.697-.234-1.513-.11-2.301.58a.5.5 0 0 0 .658.752c.549-.48.999-.493 1.324-.384.363.122.655.427.788.701l.005.013a1.3 1.3 0 0 1 .062.179c.047.242-.008.583-.225.915a1.54 1.54 0 0 1-1.32.706c-.395 0-.83-.165-1.4-.45a29 29 0 0 1-.477-.248 16 16 0 0 0-1.451-.7c-1.516-.616-3.405-.905-5.933.341-.662.326-.933 1.087-.72 1.75l.001.002Q1.535 6.297.893 7.857C.42 9.003.286 10.328.439 11.808a.6.6 0 0 0 .597.539h1.192a.72.72 0 0 0 .69-.537.987.987 0 0 1 1.904 0 .72.72 0 0 0 .69.536h1.076a.72.72 0 0 0 .69-.536.99.99 0 0 1 .722-.7v-1.013a1.99 1.99 0 0 0-1.62 1.249h-.66a1.987 1.987 0 0 0-3.7 0h-.617c-.085-1.207.056-2.24.414-3.107.313-.759.8-1.412 1.482-1.96l.382 1.255.002.007c.18.527.624.804 1.055.9.422.093.896.031 1.273-.179a9.8 9.8 0 0 0 1.915-1.345.5.5 0 0 0-.669-.743c-.526.473-1.1.872-1.725 1.21l-.007.004a.85.85 0 0 1-.571.076c-.186-.041-.283-.132-.322-.238l-.578-1.902-.119-.368a.45.45 0 0 1 .21-.546c2.235-1.102 3.823-.837 5.114-.312.476.193.898.415 1.317.636q.269.141.54.28c.577.289 1.198.556 1.847.556.549 0 1.023-.158 1.41-.41-.298.758-.908 1.644-2.108 2.542a3 3 0 0 0-.343.298h1.56c1.46-1.287 1.993-2.589 2.118-3.646a4.3 4.3 0 0 0-.115-1.63 1.6 1.6 0 0 0-.144-.403" fill="#CED0D6"></path><path d="M9.144 6.04c-.037.107.02.219.115.28l.889.57c.095.062.22.068.302-.01a.798.798 0 1 0-1.306-.84" fill="#CED0D6"></path>
</svg>
