<svg viewBox="0 0 16 16" fill="none" xmlns="http://www.w3.org/2000/svg">
  <path d="M1 6a2 2 0 0 1 2-2h8a2 2 0 0 1 2 2v6a2 2 0 0 1-2 2H3a2 2 0 0 1-2-2z" fill="#43454A"></path><path d="M4.5 2a.5.5 0 0 0 0 1H13a1 1 0 0 1 1 1v6.5a.5.5 0 0 0 1 0V4a2 2 0 0 0-2-2zM6.354 8.646l-1.5-1.5a.5.5 0 1 0-.708.708L5.293 9l-1.147 1.146a.5.5 0 0 0 .708.708l1.5-1.5a.5.5 0 0 0 0-.708M7.5 10h2a.5.5 0 0 1 0 1h-2a.5.5 0 0 1 0-1" fill="#CED0D6"></path><path fill-rule="evenodd" clip-rule="evenodd" d="M1 6a2 2 0 0 1 2-2h8a2 2 0 0 1 2 2v6a2 2 0 0 1-2 2H3a2 2 0 0 1-2-2zm2-1h8a1 1 0 0 1 1 1v6a1 1 0 0 1-1 1H3a1 1 0 0 1-1-1V6a1 1 0 0 1 1-1" fill="#CED0D6"></path>
</svg>
