<svg viewBox="0 0 16 16" fill="none" xmlns="http://www.w3.org/2000/svg">
  <path d="M11.562 10.148a.5.5 0 1 1-.707-.708l.677-.677a2.615 2.615 0 0 1 3.699.006 2.615 2.615 0 0 1 .006 3.699l-.677.677a.5.5 0 1 1-.708-.707l.678-.677a1.615 1.615 0 0 0-.006-2.285 1.615 1.615 0 0 0-2.285-.006zM10.148 10.855a.5.5 0 0 1 0 .707l-.678.677a1.615 1.615 0 0 0 .006 2.285 1.615 1.615 0 0 0 2.285.006l.677-.678a.5.5 0 0 1 .707.707l-.677.678a2.615 2.615 0 0 1-3.699-.006 2.615 2.615 0 0 1-.006-3.699l.677-.677a.5.5 0 0 1 .708 0" fill="#3574F0"></path><path d="M13.854 10.854a.5.5 0 0 0-.708-.708l-3 3a.5.5 0 0 0 .708.708z" fill="#3574F0"></path><path d="M14 3.5 8 1 2 3.5v5.679c0 1.766.892 3.057 2.032 4.079.839.751 1.86 1.395 2.797 1.987l.171.108v-1.978c0-.923.352-1.845 1.056-2.55l2.77-2.77A3.6 3.6 0 0 1 13.378 7H14z" fill="#EBECF0"></path><path d="M13 7.02V4.166L8 2.083 3 4.167v5.012c0 1.377.679 2.419 1.7 3.334.667.598 1.473 1.132 2.3 1.657v1.183l-.171-.108c-.937-.592-1.958-1.236-2.797-1.987C2.892 12.236 2 10.945 2 9.178V3.5L8 1l6 2.5V7h-.621q-.19 0-.379.02" fill="#6C707E"></path>
</svg>
