<svg viewBox="0 0 16 16" fill="none" xmlns="http://www.w3.org/2000/svg">
  <path d="M2 4a1 1 0 0 1 1-1h2v10H3a1 1 0 0 1-1-1z" fill="#EBECF0"></path><path fill-rule="evenodd" clip-rule="evenodd" d="M3 2a2 2 0 0 0-2 2v8a2 2 0 0 0 2 2h6.879l1-1H6V3h7a1 1 0 0 1 1 1v5.879l1-1V4a2 2 0 0 0-2-2zm2 1H3a1 1 0 0 0-1 1v8a1 1 0 0 0 1 1h2z" fill="#6C707E"></path><path fill-rule="evenodd" clip-rule="evenodd" d="M10.146 10.146a.5.5 0 0 1 .708 0L13 12.293l2.146-2.147a.5.5 0 0 1 .708.708L13.707 13l2.147 2.146a.5.5 0 0 1-.708.708L13 13.707l-2.146 2.147a.5.5 0 0 1-.708-.708L12.293 13l-2.147-2.146a.5.5 0 0 1 0-.708" fill="#DB3B4B"></path>
</svg>
