<svg viewBox="0 0 17 16" fill="none" xmlns="http://www.w3.org/2000/svg">
  <path fill-rule="evenodd" clip-rule="evenodd" d="M6 15v-3l6.703-6.703a1 1 0 0 1 1.414 0l1.586 1.586a1 1 0 0 1 0 1.414L9 15zm1-1v-1.586l4.354-4.353 1.585 1.585L8.586 14zm6.646-5.06 1.35-1.35-1.586-1.586-1.35 1.35z" fill="#CED0D6"></path><path fill-rule="evenodd" clip-rule="evenodd" d="M2 11V8l6.703-6.703a1 1 0 0 1 1.414 0l1.586 1.586a1 1 0 0 1 0 1.414L5 11zm1-1V8.414l4.354-4.353 1.585 1.585L4.586 10zm6.646-5.06 1.35-1.35L9.41 2.004l-1.35 1.35z" fill="#57965C"></path>
</svg>
