<svg viewBox="0 0 16 16" fill="none" xmlns="http://www.w3.org/2000/svg">
  <path fill-rule="evenodd" clip-rule="evenodd" d="M14.412 8.295a1 1 0 0 0-1.414 0l-1.351 1.351L8 13.293V16h2.707l4.998-4.998a1 1 0 0 0 0-1.414zM14 11.293l.998-.998-1.293-1.293-.998.998zm-2-.586L13.293 12l-3 3H9v-1.293z" fill="#548AF7"></path><path fill-rule="evenodd" clip-rule="evenodd" d="M3.5 5A4 4 0 0 0 7 8.969V11H5.5a.5.5 0 0 0 0 1H7v1l1-1V8.969A4 4 0 1 0 3.5 5m4 3a3 3 0 1 1 0-6 3 3 0 0 1 0 6" fill="#D6AE58"></path><path d="M7 14v-1H5.5a.5.5 0 0 0 0 1z" fill="#D6AE58"></path>
</svg>
