<svg viewBox="0 0 16 16" fill="none" xmlns="http://www.w3.org/2000/svg">
  <path d="M14.044 3.66c.052.511-.07 1.112-.171 1.539-.092.382-.351 1.292-.73 2.126-.414.907-.942 1.7-.942 1.7l-.113-.15s.297-.403.376-.643c.108-.328.093-.666.068-.82l-.04-.233c-.058-.336-.117-.67-.105-.948.005-.107.035-.27.068-.444.05-.26.103-.542.077-.689-.012-.067-.185-.895-.585-1.505a5.6 5.6 0 0 0-1.051-1.148c-.284-.228-1.04-.619-1.04-.619s.543-.119.927-.147l.067-.005c.3-.024.94-.075 1.538.152.614.233 1.182.788 1.29.914.135.156.325.509.366.92M6.423 2.205c-.013 0-.066-.018-.151-.047-.83-.285-4.712-1.616-4.496 2.701.05 1.013 1.452 7.662 3.123 5.654.311-.375.566-.643.753-.84.176-.185.293-.308.343-.4.026.017.023.008.003-.005l-.003.006A2.5 2.5 0 0 1 5.685 9c-.253-.247-.367-.553-.449-.77l-.032-.086c-.03-.078-.067-.332-.063-.667.003-.147.021-.31.04-.479a7 7 0 0 0 .043-.456c.01-.188 0-.376-.009-.554q-.01-.172-.011-.327c-.001-.281.047-1.574.354-2.198.14-.285.277-.559.44-.778.175-.236.354-.41.411-.464q.028-.026.014-.016M14.092 9.676s-.825.083-1.117.055a1.8 1.8 0 0 1-.63-.187.5.5 0 0 0-.124-.05c-.199-.024-.386.186-.418.237-.078.123-.197.477 0 .632.257.203.886.19 1.159.125.775-.183 1.13-.812 1.13-.812M7.867 10.102c0-.277-.153-.47-.43-.47-.088 0-.253.146-.425.298-.109.097-.22.196-.317.262-.11.075-.364.172-.591.259-.249.095-.467.178-.434.21.05.046.508.29.95.271.097-.004.554-.048.85-.23.276-.168.397-.468.397-.6" fill="#3592C4"></path><path fill-rule="evenodd" clip-rule="evenodd" d="M7 9.257s.16-.645.295-.888c.204-.369.36-.918.36-1.369q0-.17.004-.321c.007-.478.013-.846-.16-1.198l-.012-.027c-.055-.116-.162-.344-.445-.396-.68-.124-1.543.46-1.543.46s.023.37.023.528q-.002.858-.023 1.012l-.01.088a6 6 0 0 0-.039.386c-.002.05-.002.1-.002.179 0 .274.006.288.131.575l.022.05c.117.272.354.582.71.759.194.096.688.162.688.162m-.101-3.174c.166.033.308-.162.317-.255.009-.094-.118-.197-.285-.23-.166-.034-.308.015-.317.108-.009.094.119.344.285.377" fill="#3592C4"></path><path d="M7.541 8.566c-.06.103-.09.21-.12.318q-.018.066-.038.134c-.036.11-.126.281-.126.281s.26.04.363.06c.184.036.31.132.343.196.148.28.153.457.158.648l.004.119c.004.058.003.226.001.454-.004.72-.012 2.042.098 2.455.048.182.096.358.18.507.126.225.291.388.323.418.135.13.56.387.998.304.228-.043.719-.297 1.007-.723.325-.478.437-1.283.48-1.597.117-.856.186-1.728.195-1.846l.002-.018c.011-.15.04-.511.23-.762.088-.117.4-.215.4-.215s-.327-.424-.431-.591c-.22-.355-.443-.808-.56-1.047l-.068-.137a8 8 0 0 1-.207-.433l-.04-.09c-.234-.503-.335-1.247-.32-1.352.086-.649.494-.896.916-.959.268-.04.79 0 .79 0s-.227-.529-.346-.742a4.6 4.6 0 0 0-.561-.784 4 4 0 0 0-1.435-1.025c-.474-.196-.974-.335-1.446-.335-.696 0-1.273.211-1.708.576-.599.502-.875 1.301-.928 1.62 0 0-.074.237-.122.495-.05.273-.073.638-.073.638s.48-.226.667-.286a2.1 2.1 0 0 1 .645-.11h.03c.323-.012.885.296.97.75.038.204.17 1.201.151 1.43l-.01.156c-.008.167-.019.384-.068.612a3.2 3.2 0 0 1-.344.88" fill="#3592C4"></path><path fill-rule="evenodd" clip-rule="evenodd" d="M11.92 8.625c.08-.064.28-.588.308-.791.021-.149-.015-.445-.045-.691l-.028-.24c-.006-.063-.02-.151-.034-.237a3 3 0 0 1-.031-.23 1.7 1.7 0 0 1 .016-.299q.01-.078.012-.137c0-.089.026-.198.057-.326a5 5 0 0 0 .053-.235c.024-.123.05-.41.05-.41s-.329-.046-.448-.055a2 2 0 0 0-.33 0c-.09 0-.289.03-.452.121a.85.85 0 0 0-.283.313c-.037.076-.073.312-.04.559.04.294.156.604.198.68.044.08.116.24.201.428l.142.312c.275.593.602 1.279.654 1.238m-.167-3.026c.009.093-.118.343-.285.377s-.308-.162-.317-.256c-.009-.093.119-.196.285-.23s.308.015.317.109" fill="#3592C4"></path>
</svg>
