<svg viewBox="0 0 16 16" fill="none" xmlns="http://www.w3.org/2000/svg">
  <path d="M5 2a1 1 0 0 1 1-1h4a1 1 0 0 1 1 1v3a1 1 0 0 1-1 1H6a1 1 0 0 1-1-1z" fill="#EBECF0"></path><path fill-rule="evenodd" clip-rule="evenodd" d="M6 2h4v3H6zm2.5 4H10a1 1 0 0 0 1-1V2a1 1 0 0 0-1-1H6a1 1 0 0 0-1 1v3a1 1 0 0 0 1 1h1.5v2h-4a.5.5 0 0 0-.5.5v3.793l-1.146-1.147a.5.5 0 0 0-.708.708l2 2a.5.5 0 0 0 .708 0l2-2a.5.5 0 0 0-.708-.708L4 12.293V9h8v3.293l-1.146-1.147a.5.5 0 0 0-.708.708l2 2a.5.5 0 0 0 .708 0l2-2a.5.5 0 0 0-.708-.708L13 12.293V8.5a.5.5 0 0 0-.5-.5h-4z" fill="#6C707E"></path>
</svg>
