<svg width="16" height="16" viewBox="0 0 16 16" fill="none"><path fill-rule="evenodd" clip-rule="evenodd" d="M1 3.867C1 2.836 1.784 2 2.75 2h3.288a1 1 0 0 1 .698.283L8.5 4H13a2 2 0 0 1 2 2v2.758A4.5 4.5 0 0 0 8.256 14H2.75C1.784 14 1 13.164 1 12.133z" fill="#25324D"/><path fill-rule="evenodd" clip-rule="evenodd" d="m7.803 4.717.29.283H13a1 1 0 0 1 1 1v2.256q.535.19 1 .502V6a2 2 0 0 0-2-2H8.5L6.736 2.283A1 1 0 0 0 6.038 2H2.75C1.784 2 1 2.836 1 3.867v8.266C1 13.164 1.784 14 2.75 14h5.506a4.5 4.5 0 0 1-.229-1H2.75c-.354 0-.75-.326-.75-.867V3.867c0-.54.396-.867.75-.867h3.288z" fill="#548AF7"/><path d="M13 9.5a.5.5 0 0 0-1 0v1a.5.5 0 1 0 1 0zM10.152 10.567a.5.5 0 0 0-.5.866l.866.5a.5.5 0 1 0 .5-.866zM15.348 11.433a.5.5 0 0 0-.5-.866l-.866.5a.5.5 0 0 0 .5.866zM11.018 13.933a.5.5 0 1 0-.5-.866l-.866.5a.5.5 0 0 0 .5.866zM14.482 13.067a.5.5 0 1 0-.5.866l.866.5a.5.5 0 0 0 .5-.866zM13 14.5a.5.5 0 0 0-1 0v1a.5.5 0 1 0 1 0zM12.5 13.5a1 1 0 1 0 0-2 1 1 0 0 0 0 2" fill="#548AF7"/></svg>