<svg width="14" height="14" viewBox="0 0 14 14" fill="none"><path d="M2.988 8.778q.015-.578-.383-.923-.397-.345-1.072-.345H1V6.43h.533q.675 0 1.072-.345.398-.345.383-.922l-.03-1.583q-.015-.78.322-1.365.345-.585.983-.9T5.763 1H6.5v1.005h-.73q-.78 0-1.237.435-.45.427-.443 1.163l.03 1.567q.015.765-.412 1.253-.427.48-1.155.532.728.135 1.155.63.427.487.412 1.185l-.03 1.777q-.015.66.398 1.05.42.398 1.132.398h.88V13h-.887q-.802 0-1.41-.3-.6-.292-.93-.848-.322-.547-.315-1.282zM11.015 8.778q-.015-.578.382-.923.398-.345 1.072-.345H13V6.43h-.53q-.675 0-1.073-.345t-.383-.922l.03-1.583q.015-.78-.33-1.365a2.24 2.24 0 0 0-.974-.9Q9.102 1 8.24 1H7.5v1.005h.732q.78 0 1.23.435.458.427.45 1.163l-.03 1.567q-.015.765.412 1.253.427.48 1.156.532-.728.135-1.155.63-.428.487-.413 1.185l.03 1.777q.015.66-.405 1.05-.413.398-1.125.398H7.5V13h.89q.802 0 1.402-.3.607-.292.93-.848.33-.547.322-1.282z" fill="#CED0D6"/></svg>