<svg viewBox="0 0 16 16" fill="none" xmlns="http://www.w3.org/2000/svg">
  <path d="M1.626 9.668a.5.5 0 0 0 .748.664zM14 10.5a.5.5 0 0 0 1 0zm-12-3a.5.5 0 0 0-1 0zm-.5 3H1v.5h.5zm3 .5a.5.5 0 0 0 0-1zM2 10l.374.332.002-.002.007-.008.032-.035.127-.137a20.708 20.708 0 0 1 2.203-2.006C6.175 7.026 7.933 6 9.5 6V5C7.568 5 5.576 6.224 4.13 7.356a22 22 0 0 0-2.502 2.31l-.001.001zm7.5-4c1.162 0 2.001.29 2.613.697.616.41 1.032.96 1.315 1.527.284.567.428 1.14.5 1.577a6 6 0 0 1 .072.7l.5-.001h.5v-.022a3 3 0 0 0-.011-.229 7 7 0 0 0-.074-.612 6.6 6.6 0 0 0-.593-1.86c-.342-.685-.863-1.384-1.654-1.912C11.874 5.335 10.838 5 9.5 5zM1 7.5v3h1v-3zm.5 3.5h3v-1h-3z" fill="#CED0D6"></path>
</svg>
