<svg viewBox="0 0 16 16" fill="none" xmlns="http://www.w3.org/2000/svg">
  <path d="M5.927 2.871C5.959 1.207 7.72.035 9.39.996l.015.009.014.01c.26.203.501.47.67.862.17.389.26.887.245 1.54.009.828.035 1.587.384 2.276.317.626.758 1.142 1.18 1.752.413.596.782 1.254.86 2.09.028.302.005.548-.06.849a1 1 0 0 1 .102.045c.102.057.18.138.248.235a1 1 0 0 1 .152.372q.017.089.03.174l.028.173c.031.17.154.304.348.473l.187.162c.065.057.13.118.187.18.112.119.235.286.248.493a.64.64 0 0 1-.069.329h.001a1.1 1.1 0 0 1-.306.365c-.11.09-.236.17-.322.228l.001.001c-.27.187-.525.347-.752.503l-.217.155c-.172.13-.332.275-.51.43a4.6 4.6 0 0 1-.572.438c-.532.333-1.32.271-1.786-.163a1 1 0 0 1-.296-.487 3.7 3.7 0 0 0-1.193-.321c-.448-.046-.874-.009-1.19.12a1 1 0 0 1-.078.175l-.051.087c-.192.304-.497.589-.908.664-.348.064-.707-.014-.995-.105-.201-.063-.401-.146-.579-.214a3 3 0 0 0-.53-.16 9.5 9.5 0 0 1-1.44-.353 1.2 1.2 0 0 1-.44-.256.73.73 0 0 1-.224-.538v-.001c.001-.12.03-.236.058-.332.03-.108.057-.184.08-.277l.019-.143c.008-.15-.015-.321-.035-.54-.024-.262-.041-.596.14-.89a.73.73 0 0 1 .326-.263c.12-.054.254-.092.378-.116.135-.026.242-.047.331-.075s.13-.056.147-.074l.102-.135q.048-.074.103-.163c.051-.083.113-.183.193-.273a4 4 0 0 1 .03-.65c.17-1.124.845-2.023 1.436-2.857.282-.399.463-.628.636-1.043.085-.205.131-.326.16-.434.03-.104.044-.203.058-.366.029-.353.02-.464.007-.689a17 17 0 0 1-.015-1.397Z" fill="#191919" stroke="#fff" stroke-width=".5"></path><path fill-rule="evenodd" clip-rule="evenodd" d="M3.296 11.28c-.245.119-.808.117-.945.353-.15.261-.053.55-.051.882 0 .236-.004.498-.101.777-.08.23-.108.31.007.513s.615.3 1.291.463.461.043 1.218.342c.47.186 1.132.414 1.56.075.159-.126.418-.409.434-.685a1.2 1.2 0 0 0-.043-.428c-.123-.34-.37-.486-.606-.842-.43-.66-.888-1.288-1.253-1.838-.258-.39-.465-.483-.64-.452-.54.096-.366.594-.871.84M10.149 10.717c-.238.17-.186.679-.2.947-.021.41-.024.867-.038 1.049-.023.3-.249.98-.221 1.302.027.32.05.508.247.692s.545.32.974.258c.429-.063.591-.333.87-.544.277-.211.563-.461.93-.7s.958-.63 1.043-.735c.085-.106.143-.197.082-.337-.062-.139-.276-.354-.51-.55-.61-.51-.347-.985-.601-1.235-.078-.085-.136-.132-.226-.15-.487-.1-.621.093-.907.064-.308-.03-.192.038-.825-.047-.218-.025-.468-.113-.618-.014" fill="#FCC624"></path><path fill-rule="evenodd" clip-rule="evenodd" d="M6.174 6.821c-.218.482-.207.318-.353.821-.204.187-.426.688-.573 1.12-.187.626-.327 1.27-.153 2.02.07.076.126.148.19.209.1.096.207.174.34.275.466.36.793.55.858.783.085.31-.107.516-.346.643.175.177.734.54 1.754.495.897-.04 1.46-.384 1.941-.977.003-.137.018-.366.025-.612.006-.236.007-.472.043-.655a1 1 0 0 1 .039-.12.43.43 0 0 1 .367-.253c.08-.003.163-.01.243.008.122-.964.025-1.63-.456-2.65-.037-.071-.216-.375-.322-.46-.083-.412-.094-.392-.26-.77-.253-.57-.344-1.232-.421-1.62-.053.028-.144.066-.284.176-.102.08-.29.247-.435.348a2 2 0 0 1-.298.168 1.1 1.1 0 0 1-.396.106c-.385.02-.569-.076-.744-.261-.074-.078-.13-.163-.222-.267a1 1 0 0 0-.157-.149c-.001.051-.163 1.14-.38 1.622m1.728-2.876a1.4 1.4 0 0 1 .058-.55c.114-.38.525-.634.872-.455.348.18.412.644.33.905-.052.161-.174.35-.266.468a5 5 0 0 0-.268-.1.44.44 0 0 0 .16-.172c.116-.213.075-.489-.09-.617-.165-.129-.392-.06-.507.152a.54.54 0 0 0-.024.465 4 4 0 0 0-.265-.096m-1.276-.911c.326-.115.52.161.6.556.024.121.026.243.012.354l-.028.01q-.057.024-.125.058a1 1 0 0 0 .016-.082c.026-.221-.078-.45-.23-.51-.154-.06-.3.07-.325.291-.025.212.069.431.212.502a3 3 0 0 0-.127.092c-.113-.11-.189-.29-.232-.477-.078-.34.006-.716.227-.794" fill="#F5F5F5"></path><path fill-rule="evenodd" clip-rule="evenodd" d="M6.516 5.06c.005.005.003.015.01.022.071.072.155.144.227.227.084.096.16.203.232.269.13.12.255.185.436.208.351.043.613-.055.909-.252.139-.093.332-.265.443-.35.185-.14.239-.13.294-.2.056-.075.084-.268.067-.36a.22.22 0 0 0-.113-.165c-.084-.054-.229-.11-.48-.197h-.002V4.26h-.003V4.26h-.003l-.001-.001H8.53v-.001h-.003v-.001h-.002l-.001-.001h-.002l-.001-.001H8.52l-.002-.001h-.002v-.001h-.003v-.001h-.005V4.25h-.002V4.25h-.003v-.001h-.001l-.003-.001-.006-.003-.005-.001h-.001l-.004-.002-.003-.001h-.001l-.005-.002-.007-.003h-.001l-.005-.002-.007-.002-.002-.001-.005-.002-.006-.002-.006-.003H8.43l-.002-.001-.003-.002h-.003l-.001-.001-.004-.002h-.001l-.006-.003h-.002l-.004-.002-.004-.001-.003-.001h-.001l-.005-.002-.006-.002-.002-.001-.004-.002-.004-.002h-.002L8.367 4.2l-.005-.002-.004-.002h-.003v-.001l-.005-.002-.004-.001-.002-.001h-.002l-.004-.002-.006-.003-.006-.002-.004-.002H8.32l-.002-.001-.004-.001-.004-.002h-.001l-.003-.001-.003-.001h-.001l-.004-.002-.004-.002h-.002L8.29 4.17l-.004-.002-.004-.002H8.28l-.005-.002-.004-.002h-.002l-.002-.001-.003-.001-.004-.002h-.002l-.005-.003-.005-.002-.003-.001-.002-.001H8.24l-.004-.002h-.002l-.001-.001h-.002v-.001H8.23l-.002-.001h-.001v-.001h-.003v-.001h-.002v-.001H8.22l-.001-.001h-.001l-.002-.001h-.002l-.001-.001-.002-.001h-.003v-.001h-.003v-.001h-.001l-.002-.001-.001-.001h-.002l-.002-.001h-.001v-.001h-.002l-.002-.001-.002-.001-.002-.001h-.002l-.001-.001h-.002v-.001H8.18l-.001-.001-.002-.001h-.002l-.002-.001-.002-.001H8.17l-.001-.001h-.001v-.001h-.003c-.255-.1-.42-.166-.653-.158a.8.8 0 0 0-.279.058l-.005.003-.006.001-.005.003h-.001l-.006.002-.004.002-.003.002-.003.001h-.001l-.005.003h-.001l-.006.003-.005.002H7.18l-.004.002h-.001l-.002.002-.005.002h-.001l-.003.002-.002.001h-.001l-.004.002-.003.001-.003.002H7.15l-.001.002-.004.001-.002.002-.004.001-.003.002-.003.002-.004.001-.003.002-.003.001-.004.002-.003.002-.004.002-.002.002h-.001l-.003.002-.003.001-.005.002-.002.002-.004.002-.004.002-.003.002-.004.001-.004.003-.003.001-.004.002-.003.002-.004.002-.003.002-.004.002-.004.003-.022.012-.004.003-.004.002-.002.001-.005.003-.002.001h-.001l-.004.003-.002.001-.002.002-.005.003-.002.001-.005.002-.003.002-.007.004-.002.002-.005.003-.002.001-.006.003-.002.002-.006.004h-.001l-.003.002-.005.003-.002.001-.005.003h-.001v.001H6.94v.001H6.94l-.001.001h-.001l-.002.002h-.001v.001h-.002v.001h-.001l-.007.004-.003.002-.005.004-.003.001-.005.004-.003.002-.002.001-.003.002-.002.001-.003.002-.006.004-.002.002-.006.003-.002.002-.003.001-.003.002-.002.002-.003.002-.003.002-.003.002-.002.002h-.002l-.003.003h-.002l-.002.002-.002.001-.002.002h-.002l-.001.002-.002.001-.002.002-.004.002-.002.001v.001l-.003.001-.002.002h-.002l-.002.002-.001.001-.002.002-.002.001-.002.001-.002.002h-.002l-.002.002-.001.001h-.001v.001l-.003.002-.004.002-.002.002h-.001l-.002.002-.002.002h-.002l-.002.002-.003.003h-.002l-.002.002-.002.002h-.002v.001l-.002.001-.002.002-.002.001-.002.001-.002.001-.002.002-.002.001-.002.002-.003.002-.002.001-.003.002-.001.002-.004.002-.002.001-.002.002-.008.006c-.119.083-.24.195-.31.309-.042.067-.108.207-.047.287 0 0 .158.082.315.176.255.152.546.231.805.216.207-.011.437-.077.604-.158.167-.082.373-.21.574-.368.031-.023.09-.082.128-.1.032-.015.137-.006.133.03-.004.028-.128.079-.172.112-.22.166-.465.327-.624.402a2 2 0 0 1-.627.176c-.17.01-.316-.01-.464-.06a2 2 0 0 1-.381-.181c-.049-.028-.096-.052-.162-.094z" fill="#FCC624"></path><path fill-rule="evenodd" clip-rule="evenodd" d="M12.132 10.647a.5.5 0 0 0 .027-.093c.032-.324-.59-.396-1.074-.38-.22.007-.391.034-.494.064a.375.375 0 0 0-.285.328c-.04.31.05.963.354 1.106.313.148.788-.063 1.069-.381.19-.216.31-.467.403-.644" fill="#191919"></path>
</svg>
