<svg width="20" height="20" viewBox="0 0 20 20" fill="none"><g clip-path="url(#a)" fill="#CED0D6"><path fill-rule="evenodd" clip-rule="evenodd" d="M15 20c-2.761 0-5-1.125-5-2.505v-4.997C10 11.118 12.239 10 15 10s5 1.118 5 2.498v4.997C20 18.875 17.761 20 15 20m2.863-2.076c.493-.247.613-.435.637-.481v-.66c-.902.443-2.137.717-3.5.717s-2.598-.274-3.5-.718v.66c.024.047.144.235.637.482.656.329 1.666.576 2.863.576s2.207-.247 2.863-.576M11.5 14.943v-.655c.902.443 2.137.717 3.5.717s2.598-.274 3.5-.717v.655c-.024.046-.144.234-.637.481-.656.329-1.666.576-2.863.576s-2.207-.247-2.863-.576c-.493-.247-.613-.435-.637-.481m.635-2.87c.615-.307 1.542-.542 2.643-.57q.11-.003.222-.003c1.198 0 2.21.246 2.865.574.38.19.538.344.6.426-.062.082-.22.238-.602.43-.656.328-1.666.575-2.863.575s-2.207-.247-2.863-.576c-.382-.191-.54-.347-.603-.43.063-.08.221-.236.601-.425"/><path d="M8.5 16.5H4a.5.5 0 0 1-.5-.5V4a.5.5 0 0 1 .5-.5h12a.5.5 0 0 1 .5.5v4.599a10 10 0 0 1 1.5.319V4a2 2 0 0 0-2-2H4a2 2 0 0 0-2 2v12a2 2 0 0 0 2 2h4.5z"/></g><defs><clipPath id="a"><path fill="#fff" d="M0 0H20V20H0z"/></clipPath></defs></svg>