<svg viewBox="0 0 16 16" fill="none" xmlns="http://www.w3.org/2000/svg">
  <circle cx="8" cy="8" r="6.5" fill="#25324D" stroke="#548AF7"></circle><path d="M6.002 4.5H7v7h-.998zm2.79 7.12q-.65 0-1.145-.285a2.06 2.06 0 0 1-.77-.805 2.6 2.6 0 0 1-.285-1.205h.345v-.77h-.345q.01-.686.285-1.2.28-.52.77-.805.495-.29 1.145-.29.705 0 1.255.34.55.335.855.945.31.61.31 1.395 0 .784-.31 1.395a2.3 2.3 0 0 1-.855.95 2.37 2.37 0 0 1-1.255.335m-.205-.88q.47 0 .835-.225.365-.23.565-.635.205-.41.205-.94t-.205-.935a1.5 1.5 0 0 0-.565-.635 1.53 1.53 0 0 0-.835-.23q-.475 0-.845.23a1.53 1.53 0 0 0-.57.635q-.205.405-.205.935t.205.94q.205.405.57.635.37.225.845.225" fill="#548AF7"></path>
</svg>
