<svg viewBox="0 0 12 12" fill="none" xmlns="http://www.w3.org/2000/svg">
  <path d="M6.002.5q.417 0 .817.06c.026.004.063.023.09.07l.743 1.322c.21.371.604.6 1.03.595l1.516-.017c.054 0 .088.022.105.042.34.425.617.901.82 1.415.009.024.01.066-.017.112l-.773 1.306a1.17 1.17 0 0 0 0 1.19l.773 1.306c.028.046.026.088.016.112-.202.514-.48.99-.82 1.415-.015.02-.05.042-.104.042l-1.516-.017a1.17 1.17 0 0 0-1.03.595l-.744 1.322c-.026.047-.063.066-.089.07a5.6 5.6 0 0 1-1.635 0c-.026-.005-.062-.023-.088-.07l-.744-1.322a1.17 1.17 0 0 0-1.03-.595l-1.516.017c-.054 0-.09-.022-.106-.042a5.5 5.5 0 0 1-.818-1.416c-.01-.024-.012-.065.015-.11l.774-1.307a1.17 1.17 0 0 0 0-1.19L.897 4.1c-.027-.046-.025-.087-.015-.11.202-.515.479-.991.818-1.417.016-.02.052-.042.106-.042l1.515.017c.426.005.822-.224 1.03-.595L5.097.63c.026-.047.062-.066.088-.07q.4-.06.818-.06Z" stroke="#9DA0A8"></path><circle cx="6" cy="6" r="1.5" stroke="#9DA0A8"></circle>
</svg>
