<svg viewBox="0 0 16 16" fill="none" xmlns="http://www.w3.org/2000/svg">
  <path d="M1 2a1 1 0 0 1 1-1h4a1 1 0 0 1 1 1v4a1 1 0 0 1-1 1H2a1 1 0 0 1-1-1zM1 9a1 1 0 0 1 1-1h4a1 1 0 0 1 1 1v4a1 1 0 0 1-1 1H2a1 1 0 0 1-1-1zM9 1a1 1 0 0 0-1 1v4a1 1 0 0 0 1 1h4a1 1 0 0 0 1-1V2a1 1 0 0 0-1-1z" fill="#EBECF0"></path><path fill-rule="evenodd" clip-rule="evenodd" d="M2 1a1 1 0 0 0-1 1v4a1 1 0 0 0 1 1h4a1 1 0 0 0 1-1V2a1 1 0 0 0-1-1zm4 1H2v4h4zM2 8a1 1 0 0 0-1 1v4a1 1 0 0 0 1 1h4a1 1 0 0 0 1-1V9a1 1 0 0 0-1-1zm4 1H2v4h4zM8 2a1 1 0 0 1 1-1h4a1 1 0 0 1 1 1v4a1 1 0 0 1-1 1H9a1 1 0 0 1-1-1zm1 0h4v4H9z" fill="#6C707E"></path><path fill-rule="evenodd" clip-rule="evenodd" d="M14.526 9.453c1.638 1.638 2.09 3.87.434 5.525s-3.972 1.144-5.538-.42c-1.565-1.566-2.03-3.91-.411-5.53 1.62-1.619 3.878-1.212 5.515.425" fill="#FFF4EB"></path><path fill-rule="evenodd" clip-rule="evenodd" d="M14.526 9.453c1.638 1.638 2.09 3.87.434 5.525s-3.972 1.144-5.538-.42c-1.565-1.566-2.03-3.91-.411-5.53 1.62-1.619 3.878-1.212 5.515.425m-.707.708c.699.698 1.086 1.467 1.165 2.161a2.2 2.2 0 0 1-.399 1.556l-4.473-4.473a2.23 2.23 0 0 1 1.543-.391c.7.075 1.472.454 2.164 1.147m-4.415-.05 4.475 4.475a2.26 2.26 0 0 1-1.604.396c-.719-.085-1.49-.477-2.146-1.132-.648-.648-1.032-1.423-1.113-2.148a2.3 2.3 0 0 1 .388-1.591" fill="#E66D17"></path>
</svg>
