<svg viewBox="0 0 16 16" fill="none" xmlns="http://www.w3.org/2000/svg">
  <path fill-rule="evenodd" clip-rule="evenodd" d="M7.5 3.337c.184-.147.435-.331.743-.516C8.913 2.42 9.877 2 11 2s2.088.42 2.757.821a6.7 6.7 0 0 1 1.012.745l.082.078c.094.093.149.223.149.356v9.5a.5.5 0 0 1-.853.354l-.01-.01-.043-.04a5.748 5.748 0 0 0-.852-.626c-.58-.348-1.365-.678-2.242-.678s-1.662.33-2.243.679a5.7 5.7 0 0 0-.852.626l-.05.048a.5.5 0 0 1-.097.075.5.5 0 0 1-.621-.084l-.042-.04a5.74 5.74 0 0 0-.852-.626C5.663 12.83 4.877 12.5 4 12.5s-1.662.33-2.243.679a5.7 5.7 0 0 0-.852.626q-.028.026-.042.04l-.009.008A.5.5 0 0 1 0 13.5V4c0-.132.054-.261.148-.355l.024-.023.06-.056q.076-.07.217-.187c.187-.153.457-.355.794-.558C1.913 2.42 2.877 2 4 2s2.088.42 2.757.821c.308.185.56.37.743.516m.5 9.137q.114-.076.243-.153c.67-.401 1.634-.821 2.757-.821s2.088.42 2.757.821q.129.077.243.153V4.221l-.082-.068a6 6 0 0 0-.675-.474C12.663 3.33 11.877 3 11 3s-1.662.33-2.243.679A6 6 0 0 0 8 4.22zM1 4.221l.082-.068c.157-.129.387-.302.675-.474C2.337 3.33 3.123 3 4 3s1.662.33 2.243.679A6 6 0 0 1 7 4.22v8.253a7 7 0 0 0-.243-.153C6.087 11.92 5.123 11.5 4 11.5s-2.088.42-2.757.821a7 7 0 0 0-.243.153z" fill="#6C707E"></path>
</svg>
