<svg width="20" height="20" viewBox="0 0 20 20" fill="none"><path fill-rule="evenodd" clip-rule="evenodd" d="M8.008 1.421a11.5 11.5 0 0 1 2-.171h.005q1.067.009 2.117.187a2.93 2.93 0 0 1 1.771.866c.47.483.826 1.191.826 1.877v3.69a2.75 2.75 0 0 1-2.681 2.75H8.143a1.72 1.72 0 0 0-1.686 1.645v1.875a.75.75 0 0 1-.75.75h-1.36a2.56 2.56 0 0 1-1.895-.795c-.459-.478-.74-1.109-.9-1.765a8.1 8.1 0 0 1-.005-4.363 3.18 3.18 0 0 1 3.2-2.557h.7V4.16c0-.593.074-1.254.536-1.792.452-.527 1.151-.792 2.023-.947zm1.995 1.329a10 10 0 0 0-1.736.149c-.767.135-1.038.32-1.146.446-.098.114-.174.308-.174.815v1.75a1 1 0 0 1-1 1H4.715a1.68 1.68 0 0 0-1.103.37c-.353.284-.495.644-.613 1.064a6.6 6.6 0 0 0 0 3.592c.113.402.238.81.535 1.12.203.21.456.334.813.334h.61v-1.167A3.22 3.22 0 0 1 8.125 9.12h3.892a1.25 1.25 0 0 0 1.21-1.25V4.212a1.43 1.43 0 0 0-.4-.862c-.259-.266-.571-.37-.927-.43a12 12 0 0 0-1.897-.17" fill="#CED0D6"/><path fill-rule="evenodd" clip-rule="evenodd" d="M13.227 5.72a.75.75 0 0 1 .75-.75h1.51c.793 0 1.413.322 1.858.841.414.483.652 1.104.804 1.705a7.4 7.4 0 0 1-.007 4.429l-.001.005c-.196.608-.435 1.236-.834 1.708-.443.523-1.043.812-1.82.812h-1.2v1.25c0 .827-.373 1.455-.887 1.896-.488.418-1.1.668-1.649.823a7.2 7.2 0 0 1-4.328-.004c-1.087-.338-2.466-1.121-2.466-2.715v-1.65a.75.75 0 0 1 1.5 0v1.65c0 .525.44.981 1.413 1.283l.004.002a5.7 5.7 0 0 0 3.436 0c.394-.125.794-.255 1.114-.529.236-.201.363-.433.363-.756v-1.75a1 1 0 0 1 1-1h1.7c.353 0 .528-.107.675-.28.19-.226.357-.598.55-1.198a5.9 5.9 0 0 0 0-3.547c-.128-.404-.222-.826-.506-1.157-.172-.2-.382-.318-.719-.318h-1.51a.75.75 0 0 1-.75-.75" fill="#CED0D6"/><path d="M10.272 13.825a.95.95 0 1 1 0 1.9.95.95 0 0 1 0-1.9M9.438 4.5a.95.95 0 1 1-.938.95.94.94 0 0 1 .938-.95" fill="#CED0D6"/></svg>