<svg viewBox="0 0 16 16" fill="none" xmlns="http://www.w3.org/2000/svg">
  <path d="M1 3.867C1 2.836 1.731 2 2.633 2h3.489a1 1 0 0 1 .721.308L8.467 4H13a2 2 0 0 1 2 2v2a5 5 0 0 0-7.584 6H2.633C1.731 14 1 13.164 1 12.133z" fill="#43454A"></path><path d="M2.633 3h3.489L8.04 5H13a1 1 0 0 1 1 1v1.416q.537.235 1 .584V6a2 2 0 0 0-2-2H8.467L6.843 2.308A1 1 0 0 0 6.122 2H2.633C1.731 2 1 2.836 1 3.867v8.266C1 13.164 1.731 14 2.633 14h4.783a5 5 0 0 1-.316-1H2.633C2.405 13 2 12.742 2 12.133V3.867C2 3.258 2.405 3 2.633 3" fill="#CED0D6"></path><path fill-rule="evenodd" clip-rule="evenodd" d="m9.249 12.737 2.027 2.045 2.742-.735.733-2.784-2.027-2.045-2.742.735zm1.316 2.75L8.54 13.44a1 1 0 0 1-.257-.958l.733-2.785a1 1 0 0 1 .708-.711l2.742-.735a1 1 0 0 1 .97.262l2.026 2.045a1 1 0 0 1 .257.958l-.733 2.785a1 1 0 0 1-.708.711l-2.742.735a1 1 0 0 1-.97-.262" fill="#BA9752"></path>
</svg>
