<svg viewBox="0 0 16 16" fill="none" xmlns="http://www.w3.org/2000/svg">
  <path fill-rule="evenodd" clip-rule="evenodd" d="M14 16H9c-1.105 0-2-1.12-2-2.5S7.895 11 9 11h5c1.105 0 2 1.12 2 2.5s-.895 2.5-2 2.5m-1.6-1H9c-.356 0-1-.452-1-1.5S8.644 12 9 12h3.4c-.251.418-.4.937-.4 1.5s.149 1.082.4 1.5m2.6-1.5c0 1.048-.644 1.5-1 1.5s-1-.452-1-1.5.644-1.5 1-1.5 1 .452 1 1.5" fill="#3574F0"></path><path d="M9 15h3.4a2.9 2.9 0 0 1-.4-1.5c0-.563.149-1.082.4-1.5H9c-.356 0-1 .452-1 1.5S8.644 15 9 15M14 15c.356 0 1-.452 1-1.5s-.644-1.5-1-1.5-1 .452-1 1.5.644 1.5 1 1.5" fill="#EDF3FF"></path><path d="M6.556 5.927c-.703.038-1.515.101-2.363.421-1.94.733-2.94 2.27-3.151 3.777-.196 1.399.288 3.024 1.643 3.711l.038.091.039.095c.04.101.14.345.323.55.11.123.27.258.494.344.228.088.46.1.669.066a8 8 0 0 1 .703-.079l.047-.003h.008c.377-.017.79-.01 1.249.002a4 4 0 0 1-.233-.988c-.376-.009-.735-.01-1.069.004 0 0-.432.025-.868.095 0 0 .165-.069.375-.14a40 40 0 0 1 1.542-.485c.01-.345.066-.692.164-1.024-1.348.372-2.88.672-2.88.672l-.103-.054c-1.738-.83-1.786-4.525 1.369-5.716.777-.294 1.535-.332 2.316-.37.608-.031 1.23-.062 1.886-.216 1.595-.372 3.441-1.55 4.192-3.082.608 1.77 1.304 4.26.962 6.402H14c.32 0 .62.053.896.15.121-.759.125-1.532.063-2.272-.142-1.682-.636-3.345-1.066-4.594L13.11 1l-1.064 2.172C11.458 4.369 9.908 5.4 8.523 5.724h-.001c-.56.132-1.087.158-1.701.19h-.002z" fill="#208A3C"></path><path d="M13.908 10c.341-2.141-.354-4.632-.963-6.402-.75 1.532-2.597 2.71-4.192 3.082-.655.154-1.277.185-1.886.215-.78.039-1.538.077-2.316.37-3.155 1.192-3.107 4.887-1.369 5.717l.104.055.025-.006c.203-.04 1.608-.323 2.855-.668C6.546 11.08 7.56 10 9 10zM4.953 13.918c.334-.014.693-.013 1.069-.004a4 4 0 0 1-.02-.527c-.434.13-.93.278-1.542.486a7 7 0 0 0-.375.14c.435-.07.868-.095.868-.095" fill="#F2FCF3"></path>
</svg>
