<svg width="20" height="20" viewBox="0 0 20 20" fill="none"><path fill-rule="evenodd" clip-rule="evenodd" d="M2 4.73c0-.616.346-1.12.786-1.496.441-.378 1.043-.69 1.729-.938 1.378-.5 3.239-.796 5.263-.796s3.885.296 5.263.796c.686.248 1.287.56 1.729.938.44.377.786.88.786 1.496v3.623c-.003.613-.348 1.114-.786 1.49-.442.377-1.043.689-1.73.938-1.377.499-3.238.795-5.262.795s-3.885-.296-5.263-.795a6.7 6.7 0 0 1-1.219-.571v1.754c0 .097.053.274.335.516.28.24.723.485 1.327.704 1.202.435 2.906.717 4.82.717v1.292c-2.024 0-3.885-.296-5.263-.795a6.7 6.7 0 0 1-1.219-.571v1.754c0 .098.053.274.335.516.28.24.723.485 1.327.704 1.202.436 2.906.718 4.82.718v1.291c-2.024 0-3.885-.296-5.263-.795-.686-.249-1.288-.56-1.73-.939C2.347 16.7 2 16.196 2 15.581zm1.296 0c0-.098.053-.275.335-.516.28-.24.723-.486 1.327-.704 1.202-.436 2.906-.718 4.82-.718 1.913 0 3.617.282 4.82.718.603.218 1.047.464 1.327.704.282.241.334.418.334.516 0 .097-.052.274-.334.515-.28.24-.724.486-1.327.704-1.203.436-2.907.718-4.82.718s-3.618-.282-4.82-.718c-.604-.218-1.047-.464-1.327-.704-.282-.241-.335-.418-.335-.515m0 3.617c0 .097.053.274.335.516.28.24.723.485 1.327.704 1.202.435 2.906.717 4.82.717 1.913 0 3.617-.282 4.82-.717.603-.22 1.047-.465 1.327-.704.282-.242.334-.419.334-.516V6.593a6.7 6.7 0 0 1-1.218.57c-1.378.5-3.24.796-5.263.796-2.024 0-3.885-.296-5.263-.796a6.7 6.7 0 0 1-1.219-.57z" fill="#6C707E"/><path d="M19.31 14.229a.644.644 0 0 0 0-.913.65.65 0 0 0-.916 0l-4.08 4.064-2.133-2.127a.65.65 0 0 0-.917 0 .644.644 0 0 0 0 .914l3.05 3.04z" fill="#6C707E"/></svg>