<svg width="16" height="16" viewBox="0 0 16 16" fill="none"><path d="m.294 12.709 2.997 2.997a1.003 1.003 0 0 0 1.418 0l2.997-2.997a1.003 1.003 0 0 0 0-1.418L4.71 8.294a1.003 1.003 0 0 0-1.418 0L.294 11.29a1.003 1.003 0 0 0 0 1.418" fill="#43454A"/><path fill-rule="evenodd" clip-rule="evenodd" d="M1.003 12 4 14.997 6.997 12 4 9.003zm2.288 3.706L.294 12.71a1.003 1.003 0 0 1 0-1.418L3.29 8.294a1.003 1.003 0 0 1 1.418 0l2.997 2.997a1.003 1.003 0 0 1 0 1.418L4.71 15.706a1.003 1.003 0 0 1-1.418 0" fill="#CED0D6"/></svg>