<svg width="20" height="20" viewBox="0 0 20 20" fill="none"><path d="m18.165 8.833-.7.27v.003zm-.023-.06.7-.27-.002-.003zm-2.904-6.272.677-.323a.75.75 0 0 0-1.37.035zM13.127 7.75v.75h.54l.171-.513zm-6.306 0-.712.237.171.513h.54zM4.709 2.504l.693-.289a.75.75 0 0 0-1.37-.034zm-2.902 6.27.696.28.002-.007zm-.024.06-.696-.28-.003.007zm1.42 4.851.475-.58-.014-.012-.014-.01zm.01.007-.475.58.017.015.02.014zm.02.015.444-.605-.007-.004zm3.508 2.578.447-.603-.003-.002zm1.741 1.29.447-.603zm1.057.784-.447.602zm.43.142v-.75zm.432-.142-.447-.603zm1.057-.784-.446-.603zm1.741-1.29-.444-.605-.002.002zm3.534-2.594-.43-.614-.007.005-.006.005zm.01-.006.43.614.008-.005.008-.006zm2.121-5.121-.023-.06-1.4.54.024.06zM13.126 7H6.822v1.5h6.306zM1.11 8.495l-.023.06 1.392.558.024-.06zm-.026.066a4.87 4.87 0 0 0-.137 3.142l1.44-.422a3.37 3.37 0 0 1 .094-2.175zm-.137 3.142a4.95 4.95 0 0 0 1.811 2.586l.892-1.207a3.45 3.45 0 0 1-1.264-1.8zm1.782 2.563.009.007.949-1.162-.009-.006zm.045.035.02.015.876-1.218-.02-.015zm.014.01 3.51 2.578.887-1.209-3.508-2.578zm3.507 2.576 1.74 1.29.894-1.205-1.741-1.29zm1.74 1.29 1.057.784.894-1.205-1.057-.784zm1.057.784c.254.189.563.29.878.29v-1.5q.006-.001.016.005zm.878.29c.315 0 .623-.101.878-.29l-.894-1.205a.03.03 0 0 1 .016-.005zm.878-.29 1.057-.784-.893-1.205-1.058.784zm1.057-.784 1.74-1.29-.892-1.205-1.741 1.29zm1.738-1.288 3.534-2.593-.887-1.21-3.534 2.594zm3.52-2.583.01-.007-.86-1.229-.01.007zm.026-.018A4.95 4.95 0 0 0 19 11.703l-1.44-.422a3.45 3.45 0 0 1-1.263 1.8zM19 11.703a4.87 4.87 0 0 0-.137-3.142l-1.397.545a3.37 3.37 0 0 1 .095 2.175zm-14.29-9.2-.678-.322v.001l-.001.003-.006.011-.02.044-.37.779c-.242.508-.568 1.198-.907 1.919-.67 1.426-1.41 3.024-1.62 3.563l1.397.546c.188-.48.899-2.018 1.581-3.472a534 534 0 0 1 1.272-2.69l.021-.043.006-.011v-.003h.001v-.001zm2.822 5.01c-.159-.478-.7-1.82-1.185-3.006a410 410 0 0 0-.925-2.242l-.015-.037-.004-.01v-.002h-.001l-.693.288-.692.288v.001l.001.002.004.01.015.036a359 359 0 0 1 .922 2.234c.496 1.212 1.011 2.494 1.15 2.912zM15.238 2.5l-.693-.288-.001.003-.004.01-.015.036-.058.14a317 317 0 0 0-.867 2.104c-.485 1.187-1.026 2.529-1.185 3.007l1.423.474c.14-.418.654-1.7 1.15-2.914.245-.599.48-1.17.655-1.591l.209-.505.058-.139.015-.036.005-.012zm3.602 6c-.207-.53-.947-2.128-1.618-3.557a551 551 0 0 0-1.198-2.537l-.08-.169-.022-.044-.005-.012-.002-.003-.677.322-.677.323.001.003.006.012.02.044q.03.059.081.169a490 490 0 0 1 1.195 2.53c.684 1.456 1.395 2.995 1.579 3.464z" fill="#CED0D6"/></svg>