<svg width="14" height="14" viewBox="0 0 14 14" fill="none"><g clip-path="url(#a)"><path fill-rule="evenodd" clip-rule="evenodd" d="M1.597 1.413c-.29.262-.518.591-.58.98H1v9.125h.003c.028.444.274.816.594 1.106.34.307.804.561 1.335.764a9.8 9.8 0 0 0 2.24.535c.578.074 1.193.114 1.828.114.683 0 1.343-.046 1.957-.132a9.8 9.8 0 0 0 2.11-.517c.532-.203.996-.457 1.336-.764.32-.29.566-.662.594-1.106H13V2.392h-.017c-.062-.388-.29-.717-.58-.979-.34-.307-.804-.561-1.335-.764C10.002.24 8.564 0 7 0S3.998.241 2.932.649c-.53.203-.995.457-1.335.764m6.727 11.56c.93-.091 1.75-.275 2.387-.519.464-.177.805-.377 1.021-.572.217-.196.268-.348.268-.448V9.985a5 5 0 0 1-.932.46c-.828.316-1.88.532-3.04.613a15 15 0 0 1-2.034.001l-.022-.001c-1.16-.081-2.212-.297-3.04-.614A5 5 0 0 1 2 9.985v1.45c0 .1.051.251.268.447.216.196.557.395 1.021.572.637.244 1.457.428 2.387.52a13.6 13.6 0 0 0 2.648 0M5.677 10.03a13.6 13.6 0 0 0 2.646 0c.93-.092 1.75-.276 2.387-.52.465-.177.806-.376 1.022-.572.217-.196.268-.348.268-.448V7.041a5 5 0 0 1-.932.46c-1.066.407-2.504.648-4.068.648-1.368 0-2.64-.184-3.651-.504a8 8 0 0 1-.417-.144A5 5 0 0 1 2 7.04v1.45c0 .1.051.251.268.447.216.196.557.395 1.021.572.637.244 1.458.428 2.388.52M2.23 2.19C2.045 2.37 2 2.51 2 2.603c0 .1.051.252.268.447.216.196.557.395 1.021.573.926.353 2.237.582 3.711.582s2.785-.229 3.71-.582c.465-.178.806-.377 1.022-.573.217-.195.268-.347.268-.447s-.051-.252-.268-.448c-.216-.195-.557-.395-1.021-.572C9.785 1.229 8.474 1 7 1s-2.785.23-3.71.583l-.086.033c-.42.17-.734.356-.937.54zm.703 2.366A5 5 0 0 1 2 4.097v1.45c0 .1.051.252.268.447.216.196.557.395 1.021.572.926.354 2.237.583 3.711.583s2.785-.229 3.71-.583c.465-.177.806-.376 1.022-.572.217-.195.268-.348.268-.447v-1.45a5 5 0 0 1-.932.46c-1.066.407-2.504.648-4.068.648s-3.002-.241-4.068-.648" fill="#6C707E"/></g><defs><clipPath id="a"><path fill="#fff" d="M0 0H14V14H0z"/></clipPath></defs></svg>