<svg width="16" height="16" viewBox="0 0 16 16" fill="none"><path fill-rule="evenodd" clip-rule="evenodd" d="M3.922 3.482s.07.104.223.343.203.364.237.433c.01-.01.25-.221.275-.433a.35.35 0 0 0-.094-.272.6.6 0 0 0-.263-.118c-.202-.032-.345.04-.378.047" fill="#389FD6"/><path fill-rule="evenodd" clip-rule="evenodd" d="M11.629 12.104c.076.076.085.2.152.304.114.19.313.446.494.58.2.151.399.408.608.54.37.23.788.371 1.148.6.21.132.418.188.628.331.104.076.17.2.303.247-.039-.067-.134-.501-.433-.903-.211-.285-.617-.553-.77-.664-.304-.21-.753-.494-.876-.844.19-.039.935-.088 1.268-.173.152-.038.508-.255.508-.255-.091-.091-.162-.545-.659-1.002-.438-.403-1.296-.809-1.554-.97-.295-.19-1.291-.43-1.358-.526-.171-.21-.266-.484-.39-.732-.275-.521-.541-1.1-.778-1.652-.17-.37-.275-.74-.484-1.082C8.457 4.288 7.394 3.31 5.76 2.35c-.35-.2-.769-.285-1.215-.39-.237-.01-.475-.028-.712-.037-.152-.067-.304-.18-.437-.266C2.854 1.317 1.459.51 1.06 1.487c-.257.618.38 1.225.598 1.539.162.218.37.465.484.712.067.161.086.332.153.503.151.418.294.883.493 1.273.105.2.218.408.351.588.077.105.21.152.238.323-.132.19-.143.475-.219.712-.341 1.074-.209 2.403.276 3.191.151.237.513.76.997.56.427-.17.332-.712.456-1.187.028-.114.01-.19.066-.265.133.284.266.54.39.807.294.465 1.642 1.737 1.927 1.842-.076-.114-.315-.598-.448-.788-.399-.532-.696-1.12-1.009-1.729-.152-.295-.424-.662-.547-.957-.02-.04-.192-.364-.288-.344-.175.037-.518.527-.586.693-.18.409-.186.76-.253 1.283-.038.01-.373-.364-.462-.973-.106-.732-.027-1.622.108-2.047.066-.2.344-.826.23-1.016a1.3 1.3 0 0 0-.23-.428c-.123-.18-.323-.408-.408-.607-.228-.532-.45-1.121-.696-1.653-.114-.247-.32-.503-.482-.73-.18-.257-.75-1.064-.674-1.178.019-.076.057-.105.133-.124.123-.104.68.217.792.287.242.152.571.498.69.577.132.095.275.123.445.171h.2c.304.066.646.062.931.148.503.162.959.508 1.367.765 1.244.788 2.27 1.951 2.963 3.29.114.218.713 1.59.912 2.045.199.446.39.755.675 1.126.142.199.711.328.968.432.19.085.484.195.655.3.323.199.645.345.95.564.151.114.412.219.44.409-.366-.01-.925.012-1.298.111-.4.108-.709.299-.72.392" fill="#389FD6"/></svg>