<svg width="20" height="20" viewBox="0 0 20 20" fill="none"><path d="M14.854 5.146a.5.5 0 0 1 0 .708l-1.415 1.414a.5.5 0 1 1-.707-.707l1.414-1.415a.5.5 0 0 1 .708 0M12.025 7.975a.5.5 0 0 1 0 .707l-1.414 1.414a.5.5 0 1 1-.707-.707l1.414-1.414a.5.5 0 0 1 .707 0M9.197 10.803a.5.5 0 0 1 0 .707l-1.415 1.415a.5.5 0 1 1-.707-.708l1.415-1.414a.5.5 0 0 1 .707 0M5.5 7a.5.5 0 0 1 .5.5v2a.5.5 0 0 1-1 0v-2a.5.5 0 0 1 .5-.5" fill="#CED0D6"/><path d="M5.5 11a.5.5 0 0 1 .5.5V14h2.5a.5.5 0 0 1 0 1h-3a.5.5 0 0 1-.5-.5v-3a.5.5 0 0 1 .5-.5M10 14.5a.5.5 0 0 1 .5-.5h2a.5.5 0 0 1 0 1h-2a.5.5 0 0 1-.5-.5" fill="#CED0D6"/></svg>