<svg width="16" height="16" viewBox="0 0 16 16" fill="none"><path d="M12.95 3.05a7 7 0 1 1-9.9 9.9 7 7 0 0 1 9.9-9.9" fill="#FFF7F7"/><path fill-rule="evenodd" clip-rule="evenodd" d="m14.914 6.905-.987.155a5.97 5.97 0 0 0-1.684-3.303A5.97 5.97 0 0 0 8.94 2.074l.155-.988A6.97 6.97 0 0 1 12.95 3.05a6.97 6.97 0 0 1 1.964 3.855m-8.01-5.82.157.989c-1.21.19-2.37.75-3.304 1.683A5.97 5.97 0 0 0 2.074 7.06l-.988-.155A6.97 6.97 0 0 1 3.05 3.05a6.97 6.97 0 0 1 3.855-1.964m-5.818 8.01A6.97 6.97 0 0 0 3.05 12.95a6.97 6.97 0 0 0 3.855 1.964l.156-.987a5.97 5.97 0 0 1-3.304-1.684A5.97 5.97 0 0 1 2.074 8.94zm8.01 5.82-.156-.988a5.97 5.97 0 0 0 3.303-1.684 5.97 5.97 0 0 0 1.684-3.303l.987.155a6.97 6.97 0 0 1-1.964 3.855 6.97 6.97 0 0 1-3.855 1.964" fill="#DB3B4B"/><path d="M10.066 5.246c-.812 0-1.43.401-1.77 1.07-.292-.674-.89-1.07-1.689-1.07-.758 0-1.326.363-1.645 1.002v-.876H4v5.382h.999V7.59c0-.91.515-1.482 1.33-1.482.746 0 1.177.51 1.177 1.33v3.316h.988V7.59c0-.91.526-1.482 1.33-1.482.752 0 1.177.51 1.177 1.33v3.316H12V7.36c0-1.288-.783-2.113-1.934-2.113" fill="#DB3B4B"/></svg>