<svg viewBox="0 0 16 16" fill="none" xmlns="http://www.w3.org/2000/svg">
  <rect x="2.5" y="2.5" width="11" height="11" rx="1.5" fill="#402929" stroke="#DB5C5C"></rect><path d="M8.113 11.516a3.13 3.13 0 0 1-1.664-.456A3.26 3.26 0 0 1 5.28 9.8a3.8 3.8 0 0 1-.426-1.795q0-.99.426-1.79a3.2 3.2 0 0 1 1.17-1.26 3.1 3.1 0 0 1 1.663-.461q.766 0 1.43.32.67.32 1.097.868.43.548.519 1.198h-.796a1.8 1.8 0 0 0-.412-.84 2.3 2.3 0 0 0-.805-.605 2.4 2.4 0 0 0-1.033-.224q-.699 0-1.256.36-.558.358-.873.994-.315.635-.316 1.44 0 .806.316 1.44.314.636.873.995t1.256.359q.64 0 1.154-.262.52-.262.82-.728.3-.47.31-1.057v-.058H8.603v-.728h2.609v.495q0 .858-.407 1.557a2.93 2.93 0 0 1-1.111 1.1q-.709.398-1.581.398" fill="#DB5C5C"></path>
</svg>
