<svg viewBox="0 0 16 16" fill="none" xmlns="http://www.w3.org/2000/svg">
  <path d="M14.943 7.107A7 7 0 1 0 8.83 14.95l-1.39-1.39a1.5 1.5 0 0 1 0-2.122l3-3a1.5 1.5 0 0 1 2.12 2.122l-.439.439H14V8.5a1.5 1.5 0 0 1 .943-1.393" fill="#402929"></path><path d="M16 8.5a.5.5 0 0 0-1 0V11a1 1 0 0 1-1 1H9.707l2.147-2.146a.5.5 0 0 0-.708-.708l-3 3a.5.5 0 0 0 0 .708l3 3a.5.5 0 0 0 .708-.708L9.707 13H14a2 2 0 0 0 2-2z" fill="#CED0D6"></path><path d="M8.296 6.315c.34-.668.958-1.07 1.77-1.07 1.15 0 1.934.826 1.934 2.114v.726a1.5 1.5 0 0 0-.999 0v-.647c0-.82-.425-1.33-1.177-1.33-.804 0-1.33.573-1.33 1.482v2.795l-.37.37h-.618V7.437c0-.82-.431-1.33-1.177-1.33-.815 0-1.33.573-1.33 1.482v3.164H4V5.372h.962v.877c.32-.64.887-1.003 1.645-1.003.799 0 1.397.397 1.689 1.07" fill="#DB5C5C"></path><path d="M1.07 9a7 7 0 0 0 7.76 5.951L7.876 14A6 6 0 0 1 2.082 9z" fill="#CED0D6"></path><path d="M14 8h.085c.144-.407.458-.734.858-.893A7.001 7.001 0 0 0 1.07 7h1.012A6.002 6.002 0 0 1 14 8" fill="#DB5C5C"></path>
</svg>
