<svg viewBox="0 0 14 14" fill="none" xmlns="http://www.w3.org/2000/svg">
  <g clip-path="url(#a)"><path d="M10 7a4.5 4.5 0 1 1-9 0 4.5 4.5 0 0 1 9 0" fill="#F2FCF3"></path><path d="M5.5 4v6M4 9.5h3m-3-5h3" stroke="#208A3C"></path><path fill-rule="evenodd" clip-rule="evenodd" d="M11.5 7.5a.5.5 0 0 1 .5.5v4.293l1.146-1.147a.5.5 0 0 1 .708.708l-2 2a.5.5 0 0 1-.708 0l-2-2a.5.5 0 0 1 .708-.708L11 12.293V8a.5.5 0 0 1 .5-.5" fill="#6C707E"></path><path fill-rule="evenodd" clip-rule="evenodd" d="M11.5 6.5A.5.5 0 0 1 11 6V1.707L9.854 2.854a.5.5 0 1 1-.708-.708l2-2a.5.5 0 0 1 .708 0l2 2a.5.5 0 0 1-.708.708L12 1.707V6a.5.5 0 0 1-.5.5" fill="#DB3B4B"></path><path d="M8.44 3.56a1.5 1.5 0 0 1-.392-1.436 5.5 5.5 0 1 0 0 9.751 1.5 1.5 0 0 1 .391-1.436l-.017-.017a4.5 4.5 0 1 1 0-6.844z" fill="#208A3C"></path></g><defs><clipPath id="a"><path fill="#fff" d="M0 0H14V14H0z"></path></clipPath></defs>
</svg>
