<svg viewBox="0 0 16 16" fill="none" xmlns="http://www.w3.org/2000/svg">
  <path fill-rule="evenodd" clip-rule="evenodd" d="M12.146.146a.5.5 0 0 1 .708 0l3 3a.5.5 0 0 1-.708.708L13 1.707V7.5a.5.5 0 0 1-1 0V1.707L9.854 3.854a.5.5 0 1 1-.708-.708z" fill="#CED0D6"></path><path d="m11 4.121-.44.44a1.5 1.5 0 0 1-2.12-2.122l.947-.948C7.125.587 4.69.88 2.77 2.8c-2.834 2.834-2.02 6.936.72 9.675s6.795 3.633 9.692.736c2.256-2.256 2.275-5.124.819-7.636V7.5a1.5 1.5 0 0 1-3 0z" fill="#45322B"></path><path fill-rule="evenodd" clip-rule="evenodd" d="M13.898 8.046q.043.218.068.433c.143 1.253-.182 2.514-1.154 3.655L3.846 3.17c1.115-.943 2.372-1.273 3.63-1.138q.56.06 1.129.243l.782-.783C7.125.587 4.69.88 2.77 2.8c-2.834 2.834-2.02 6.936.72 9.675s6.795 3.633 9.692.736c2.255-2.256 2.275-5.124.819-7.636V7.5c0 .192-.036.377-.102.546m-1.795 4.796L3.139 3.878c-.93 1.11-1.248 2.394-1.104 3.684.163 1.462.927 2.97 2.163 4.205 1.241 1.241 2.74 2.022 4.196 2.194 1.284.153 2.572-.16 3.709-1.119" fill="#C77D55"></path>
</svg>
