<svg width="20" height="20" viewBox="0 0 20 20" fill="none"><path fill-rule="evenodd" clip-rule="evenodd" d="M10.25 3c0 1.115-.73 2.06-1.738 2.382v1.201c.844.187 1.573.68 2.066 1.355l1.219-.704a2.5 2.5 0 1 1 .72 1.317l-1.333.769a3.5 3.5 0 0 1-.05 1.576l1.353.781a2.5 2.5 0 1 1-.698 1.33l-1.342-.776a3.5 3.5 0 0 1-1.935 1.186v1.201a2.501 2.501 0 1 1-1.5-.007v-1.189a3.501 3.501 0 0 1 0-6.844V5.389A2.501 2.501 0 1 1 10.25 3m-2.5 1a1 1 0 1 0 0-2 1 1 0 0 0 0 2m2 6a2 2 0 1 1-4 0 2 2 0 0 1 4 0m-1 7a1 1 0 1 1-2 0 1 1 0 0 1 2 0m5.5-2.55a1 1 0 1 0 0-2 1 1 0 0 0 0 2m1-7.7a1 1 0 1 1-2 0 1 1 0 0 1 2 0" fill="#6C707E"/></svg>