<svg width="16" height="16" viewBox="0 0 16 16" fill="none"><path fill-rule="evenodd" clip-rule="evenodd" d="M11 .5a.5.5 0 0 1 .5-.5h4a.5.5 0 0 1 .5.5v4a.5.5 0 0 1-1 0V1.707l-4.146 4.147a.5.5 0 0 1-.708-.708L14.293 1H11.5a.5.5 0 0 1-.5-.5" fill="#3574F0"/><path d="m11.879 2-2.44 2.44a1.5 1.5 0 1 0 2.122 2.12L14 4.122V12a2 2 0 0 1-2 2H4a2 2 0 0 1-2-2V4a2 2 0 0 1 2-2z" fill="#FFAF0F"/><path d="M9.266 6.354q-.21.168-.357.392a1.6 1.6 0 0 0-.257.89q0 .414.171.765.175.345.496.577.32.23.757.308l1.013.17q.333.057.534.3.201.24.201.573a.8.8 0 0 1-.14.47.9.9 0 0 1-.394.312q-.257.111-.594.111-.346 0-.616-.12a1 1 0 0 1-.415-.346.9.9 0 0 1-.15-.504H8.504q.004.538.282.957.278.416.77.65.49.231 1.128.231.633 0 1.124-.235t.765-.646q.274-.414.274-.927a1.76 1.76 0 0 0-.722-1.428 1.8 1.8 0 0 0-.783-.33l-.996-.162a.82.82 0 0 1-.491-.26.74.74 0 0 1-.189-.505.76.76 0 0 1 .376-.669 1.5 1.5 0 0 1-.775-.574M11.159 6.848q.219-.106.402-.287l.348-.349q.34.202.548.513.26.39.265.89H11.71a.77.77 0 0 0-.128-.437.84.84 0 0 0-.422-.33M4.213 11h1.009q.231 0 .406-.094a.67.67 0 0 0 .274-.274.84.84 0 0 0 .098-.41V6h1v4.358q0 .483-.214.855-.213.372-.594.582A1.8 1.8 0 0 1 5.32 12H4.213z" fill="#000"/></svg>