<svg width="16" height="16" viewBox="0 0 16 16" fill="none"><path fill-rule="evenodd" clip-rule="evenodd" d="M13.654 3.109c.26-.007.51-.014.717-.068.238-.06.34-.103.407-.13A.5.5 0 0 1 15 2.862c.207-.007.336.12.34.346.009.704-.12 1.003-.447 1.31-.091.087-.2.176-.316.271-.3.246-.653.534-.898.926-.149.237-.23.636-.32 1.083-.048.236-.098.486-.163.732-.057.219-.115.452-.172.685-.116.474-.23.945-.347 1.281-.183.53-.033 1.732.509 1.892-.617.468-1.612.33-1.977-.256-.368.1-.555.407-.742.713-.148.24-.295.481-.53.624-.435.264-.851.384-1.428.533-.32.063-.503.052-.41-.053l.097-.147c.264-.403.503-.768.67-1.29q-.261-.038-.522-.08c-1.087-.17-2.152-.338-3.094-.207-.63.088-1.03.383-1.417.67-.132.097-.263.194-.401.281-1.165.733-2.445.547-2.554.272-.065-.163.117-.283.285-.393.101-.066.197-.13.23-.196-.247.035-.666-.04-.747-.216-.06-.131.174-.375.232-.418.11-.083.35-.146.513-.189l.09-.023c.27-.076.53-.098.769-.117.378-.032.699-.059.912-.288.227-.246.33-.435.425-.61.104-.191.198-.366.435-.578.585-.526 1.214-.986 2.196-1.307.287-.093.583-.172.886-.253.733-.195 1.505-.4 2.271-.852.579-.34.906-.896 1.252-1.484q.11-.191.23-.384l.02-.034c.465-.752.92-1.489 1.727-1.842.31-.136.69-.146 1.05-.156m1.41.602c.112-.228.112-.428 0-.541s-.29-.062-.492.113V3.28a1.07 1.07 0 0 1-.548.138q-.074.002-.152.003c-.126 0-.264.002-.421.019-1.197.128-1.718 1.064-2.258 2.036-.294.529-.594 1.068-1.012 1.493q-.13.131-.278.246c-.415.322-.924.553-1.392.74-.403.16-.795.241-1.18.321-.34.071-.677.14-1.01.263a6.5 6.5 0 0 0-1.482.775 4 4 0 0 0-.301.234c-.252.215-.417.453-.577.698l-.05.078a4 4 0 0 1-.516.683c-.201.206-.685.231-1.178.257-.47.024-.948.049-1.2.23l-.011.008c-.032.02-.084.053.037.093.014.004.062.003.127 0 .077-.002.178-.005.277 0h.017c.085.004.354.014.343.112-.01.092-.096.225-.175.344a1 1 0 0 1-.128.142c-.063.062-.118.115-.1.141.83.124 1.382-.238 1.382-.238s1.083-.865 1.752-1.09a5.1 5.1 0 0 1 1.877-.236c.22.011.44.044.66.076.204.03.408.06.61.073.128.008.291.046.456.084.215.05.432.101.575.085.186-.12.294-.384.396-.637.112-.277.218-.54.417-.584-.011 1.316-.149 1.822-.69 2.586.569-.105 1.143-.804 1.143-.804s1.02-1.309 1.126-1.623c.102.082.13.27.156.451.016.108.032.213.062.293.672-.39.888-1.207 1.122-2.094q.059-.227.124-.457l.197-.705c.265-.96.503-1.818.682-2.109.173-.281.456-.476.72-.659q.1-.067.193-.135c.323-.237.613-.482.7-.901" fill="#CED0D6"/><path fill-rule="evenodd" clip-rule="evenodd" d="M12.836 4.238c.262.237.811.047.713-.425-.407-.035-.642.11-.713.425" fill="#CED0D6"/></svg>