<svg width="14" height="14" viewBox="0 0 14 14" fill="none"><path fill-rule="evenodd" clip-rule="evenodd" d="M12 9.95a2.5 2.5 0 1 0-1 0V14h1v-1h2v-1h-2zm1-2.45a1.5 1.5 0 1 1-3 0 1.5 1.5 0 0 1 3 0" fill="#E66D17"/><path d="M2.605 7.855q.398.345.383.923l-.03 1.792q-.007.735.315 1.282.33.555.93.848.608.3 1.41.3H6.5v-1.005h-.88q-.712 0-1.132-.397-.413-.39-.398-1.05l.03-1.778q.015-.698-.412-1.185-.427-.495-1.155-.63.728-.052 1.155-.532.427-.488.412-1.253l-.03-1.567q-.007-.735.443-1.163.457-.435 1.237-.435h.73V1h-.737q-.862 0-1.5.315t-.983.9q-.337.585-.322 1.365l.03 1.583q.015.577-.383.922-.397.345-1.072.345H1v1.08h.533q.675 0 1.072.345M10 12.587v-1.924l-.088-.043q-.008.609-.405.978-.413.396-1.125.397H7.5V13h.89q.802 0 1.402-.3a2 2 0 0 0 .208-.113M11.045 3.58l-.009.45c-.406.054-.79.177-1.139.358l.015-.785q.008-.735-.45-1.163-.45-.435-1.23-.435H7.5V1h.74q.862 0 1.5.315t.974.9q.345.585.33 1.365" fill="#6C707E"/></svg>