<svg viewBox="0 0 16 16" fill="none" xmlns="http://www.w3.org/2000/svg">
  <path d="M10.875 15.55q.759.45 1.707.45a3.3 3.3 0 0 0 1.624-.401q.725-.406 1.131-1.117.411-.715.411-1.605v-.541h-2.78v.962h1.61a1.7 1.7 0 0 1-.275.807q-.261.396-.71.619a2.24 2.24 0 0 1-.997.217q-.613 0-1.102-.31a2.15 2.15 0 0 1-.764-.864q-.27-.556-.27-1.267t.27-1.262q.276-.556.76-.865.487-.315 1.097-.314.483 0 .899.188.42.189.696.508.28.319.362.71h1.165a2.5 2.5 0 0 0-.517-1.247 3 3 0 0 0-1.121-.89A3.4 3.4 0 0 0 12.58 9q-.946 0-1.706.454-.759.45-1.189 1.252-.43.798-.43 1.794t.43 1.798a3.2 3.2 0 0 0 1.19 1.252" fill="#57965C"></path><path d="M14.967 8.683Q15 8.345 15 8a7 7 0 1 0-6.099 6.943 5 5 0 0 1-.096-.17l-.001-.002a4.74 4.74 0 0 1-.549-2.271c0-.812.177-1.576.55-2.267.37-.69.891-1.242 1.558-1.638A4.26 4.26 0 0 1 12.58 8a4.4 4.4 0 0 1 2.386.683" fill="#2F2936"></path><path d="M14.967 8.683Q15 8.345 15 8a7 7 0 1 0-6.099 6.943 5 5 0 0 1-.096-.17l-.001-.002a4.5 4.5 0 0 1-.331-.79 6 6 0 1 1 5.523-5.759q.256.085.503.204.245.115.468.257" fill="#A571E6"></path><path fill-rule="evenodd" clip-rule="evenodd" d="M8.68 10.483a4 4 0 0 1 .125-.25c.37-.69.891-1.242 1.558-1.638q.312-.186.645-.313.04-.26.04-.54C11.047 6.117 10.028 5 8.57 5c-.844 0-1.508.371-1.889.998v-.875H5.7V12h1.003V9.52c.384.607 1.039.965 1.868.965q.054 0 .109-.002m-.32-.898c-.977 0-1.657-.752-1.657-1.842S7.383 5.9 8.36 5.9c.972 0 1.642.752 1.642 1.842s-.67 1.842-1.642 1.842" fill="#A571E6"></path>
</svg>
