<svg width="16" height="16" viewBox="0 0 16 16" fill="none"><path d="M8.12 14.593c.141.145.081.297-.018.407.676-.187 1.035-.326 1.236-.636 1.119-1.729.92-3.177 1.124-3.409.12-.135.373-.212.388-.482 0 0 .356-.04.455-.104-.315-.054-.696-.296-.616-.56.163-.538 1.303-.876 1.54-1.157.514-.611.489-1.053.425-1.646-1.067.942-1.97 1.523-2.197 1.692a.68.68 0 0 1-.401.104.28.28 0 0 1-.217-.13c-.067-.096.023-.245.07-.4.09-.303.281-.554.424-.714.538-.605 1.366-1.091 1.958-1.443 0 0 1.188-2.865-2.404-5.115 2.485 2.149 1.321 4.645 1.321 4.645S8.91 7.01 8.718 8.059c-.21 1.148.912 1.263.912 2.014 0 .504-.81.854-1.036 1.773-.162.659.289 1.351.184 1.494a1 1 0 0 1-.193.196c-.08.06-.125.083-.211.13-.083.043-.143.102-.22.102-.107 0-.219-.094-.35-.167-.159-.09-.412-.222-.412-.222l-.017.007s-.057.198.105.263c.272.111.782.242.64.571-.102.24-.802.144-.802.144s.132.056.308.082c.162.024.391.04.495.147M5.221 10.41s.359-.181.74-.163c.417.019.653.258.827.563.23.403.338.907.366 1.188-.254-.372-.438-.77-.607-.97a.34.34 0 0 0-.207-.128c-.17-.024-.3.012-.43-.068-.248-.153-.106-.294-.296-.368-.164-.064-.393-.054-.393-.054M3.375 7.576c.598.216 1.374 1.009 1.602 1.518-.982-.39-1.512-.917-1.602-1.518M4.086 6.454c.085.054 1.899 1.043 1.86 2.601.617-.049 1.116-.264 1.103-.629-.053-1.537-2.317-2.624-2.435-2.848-.12-.225-.933-2.616 1.288-4.571-2.084 1.38-2.587 2.896-2.59 3.936-.001.618.145 1.073.32 1.22.142.118.367.234.454.29" fill="#588CF3"/></svg>