<svg viewBox="0 0 16 16" fill="none" xmlns="http://www.w3.org/2000/svg">
  <path d="m8.5 15.5 2-2-2-2m-3 2H10m2.5-2-2-2 2-2m3 2H11" stroke="#3574F0" stroke-linecap="round" stroke-linejoin="round"></path><path fill-rule="evenodd" clip-rule="evenodd" d="M5 2a1 1 0 0 1 1-1h4a1 1 0 0 1 1 1v3a1 1 0 0 1-1 1H8.5v1.5h1.879l-.94.94-.057.06H5V10h1a1 1 0 0 1 1 1v1H6v-1H2v3h2.085A1.5 1.5 0 0 0 5.5 15H2a1 1 0 0 1-1-1v-3a1 1 0 0 1 1-1h2V8.5a1 1 0 0 1 1-1h2.5V6H6a1 1 0 0 1-1-1zm5 0H6v3h4z" fill="#6C707E"></path>
</svg>
