<svg viewBox="0 0 16 16" fill="none" xmlns="http://www.w3.org/2000/svg">
  <path d="M8.354 5.146a.5.5 0 0 0-.708 0l-2.5 2.5a.5.5 0 1 0 .708.708L8 6.207l2.146 2.147a.5.5 0 0 0 .708-.708z" fill="#6C707E"></path><path fill-rule="evenodd" clip-rule="evenodd" d="M14 4a2 2 0 0 0-2-2H4a2 2 0 0 0-2 2v6a2 2 0 0 0 2 2h8a2 2 0 0 0 2-2zm-1 6V4a1 1 0 0 0-1-1H4a1 1 0 0 0-1 1v6a1 1 0 0 0 1 1h8a1 1 0 0 0 1-1" fill="#6C707E"></path><path d="M4 13.5a.5.5 0 0 1 .5-.5h7a.5.5 0 0 1 0 1h-7a.5.5 0 0 1-.5-.5" fill="#6C707E"></path><path fill-rule="evenodd" clip-rule="evenodd" d="M13 10V4a1 1 0 0 0-1-1H4a1 1 0 0 0-1 1v6a1 1 0 0 0 1 1h8a1 1 0 0 0 1-1M8.354 5.146a.5.5 0 0 0-.708 0l-2.5 2.5a.5.5 0 0 0 .708.708L8 6.207l2.146 2.147a.5.5 0 0 0 .708-.708z" fill="#EBECF0"></path>
</svg>
