<svg viewBox="0 0 16 16" fill="none" xmlns="http://www.w3.org/2000/svg">
  <path d="M10.875 15.55q.759.45 1.707.45a3.3 3.3 0 0 0 1.624-.401q.725-.406 1.131-1.117.411-.715.411-1.605v-.541h-2.78v.962h1.61a1.7 1.7 0 0 1-.275.807q-.261.396-.71.619a2.24 2.24 0 0 1-.997.217q-.613 0-1.102-.31a2.15 2.15 0 0 1-.764-.864q-.27-.556-.27-1.267t.27-1.262q.276-.556.76-.865.487-.315 1.097-.314.483 0 .899.188.42.189.696.508.28.319.362.71h1.165a2.5 2.5 0 0 0-.517-1.247 3 3 0 0 0-1.121-.89A3.4 3.4 0 0 0 12.58 9q-.946 0-1.706.454-.759.45-1.189 1.252-.43.798-.43 1.794t.43 1.798a3.2 3.2 0 0 0 1.19 1.252" fill="#208A3C"></path><path d="M14.967 8.683Q15 8.345 15 8a7 7 0 1 0-6.099 6.943 5 5 0 0 1-.096-.17l-.001-.002a4.74 4.74 0 0 1-.549-2.271c0-.812.177-1.576.55-2.267.37-.69.891-1.242 1.558-1.638A4.26 4.26 0 0 1 12.58 8a4.4 4.4 0 0 1 2.386.683" fill="#F2FCF3"></path><path fill-rule="evenodd" clip-rule="evenodd" d="M9.73 6.359v-.974h.925v2.937q0 .057.004.112-.15.075-.296.161a4.16 4.16 0 0 0-1.558 1.638q-.12.22-.212.451-.34.091-.722.092c-1.488 0-2.607-1.175-2.607-2.736 0-1.56 1.119-2.735 2.607-2.735.845 0 1.484.385 1.83 1.054zM6.27 8.04c0 1.054.724 1.85 1.69 1.85.965 0 1.69-.796 1.69-1.85s-.725-1.85-1.69-1.85c-.966 0-1.69.796-1.69 1.85" fill="#208A3C"></path><path d="M14.925 8.656Q15 8.31 15 7.92C15 4.114 11.854 1 8 1S1 4.186 1 8.08C1 11.886 4.146 15 8 15q.46 0 .9-.06a5 5 0 0 1-.095-.167l-.001-.002a4.5 4.5 0 0 1-.333-.796q-.231.02-.471.02c-3.299 0-5.994-2.664-5.994-5.915C2.006 4.741 4.7 2.006 8 2.006s5.994 2.663 5.994 5.914q0 .152-.017.297.267.087.522.209.222.105.426.23" fill="#208A3C"></path>
</svg>
