<svg width="16" height="16" viewBox="0 0 16 16" fill="none"><g clip-path="url(#a)"><g clip-path="url(#b)" fill="#CED0D6"><path fill-rule="evenodd" clip-rule="evenodd" d="M15.827 11.176a.6.6 0 0 1 0 .848l-3.797 3.797a.6.6 0 0 1-.848 0l-2.006-2.006a.6.6 0 1 1 .848-.848l1.582 1.581 3.373-3.372a.6.6 0 0 1 .848 0"/><path d="m10.442 12.03 3.356-3.242a1 1 0 0 0 .288-.702 1 1 0 0 0-.293-.707L8.707 2.293A1 1 0 0 0 8 2a1 1 0 0 0-.707.293l-5 5A1 1 0 0 0 2 8c0 .257.097.511.293.707l5 5a1 1 0 0 0 .824.286c.078.193.195.373.352.53l.317.317a2 2 0 0 1-2.2-.426l-5-5A2 2 0 0 1 1 8c0-.512.195-1.024.586-1.415l5-5C6.976 1.196 7.488 1 8 1s1.024.195 1.414.586L14.5 6.672c.39.39.586.902.586 1.414S14.891 9.109 14.5 9.5l-3.32 3.208-.449-.448a1.6 1.6 0 0 0-.289-.23"/></g></g><defs><clipPath id="a"><path fill="#fff" d="M0 0H16V16H0z"/></clipPath><clipPath id="b"><path fill="#fff" d="M0 0H16V16H0z"/></clipPath></defs></svg>