<svg viewBox="0 0 16 16" fill="none" xmlns="http://www.w3.org/2000/svg">
  <path d="M8 1.5c-3.038 0-5.5.941-5.5 2.103v8.831c0 1.162 2.462 2.103 5.5 2.103s5.5-.941 5.5-2.103V3.603C13.5 2.44 11.038 1.5 8 1.5" fill="#2F2936"></path><ellipse cx="8" cy="3.603" rx="5.5" ry="2.103" stroke="#B589EC"></ellipse><path d="M13.5 12.434c0 1.162-2.462 2.103-5.5 2.103s-5.5-.941-5.5-2.103M13.5 9.49c0 1.162-2.462 2.103-5.5 2.103s-5.5-.941-5.5-2.103M13.5 6.547c0 1.16-2.462 2.102-5.5 2.102s-5.5-.941-5.5-2.102M13.5 3.392v9.126M2.5 3.392v9.126" stroke="#B589EC"></path>
</svg>
