<svg viewBox="0 0 16 16" fill="none" xmlns="http://www.w3.org/2000/svg">
  <path d="M13.967 13.533a.5.5 0 1 0 .5-.866zm-2.217-1.28 2.217 1.28.5-.866-2.217-1.28zM14.9 9.5a.5.5 0 0 0 0-1zm-2.5 0h2.5v-1h-2.5zM14.455 5.24a.5.5 0 0 0-.476-.88zm-2.217 1.2 2.217-1.2-.476-.88-2.217 1.2zM2.03 13.533a.5.5 0 0 1-.5-.866zm2.22-1.282-2.22 1.282-.5-.866 2.22-1.282zM1.1 9.5a.5.5 0 0 1 0-1zm2.5 0H1.1v-1h2.5zM1.542 5.24a.5.5 0 0 1 .476-.88zm2.22 1.2-2.22-1.2.476-.88 2.22 1.2z" fill="#CED0D6"></path><path fill-rule="evenodd" clip-rule="evenodd" d="M6.3 4.2a1.7 1.7 0 1 1 3.201.8h.999q.04 0 .08.002a2.7 2.7 0 1 0-5.158 0Q5.46 4.999 5.5 5h1c-.127-.238-.2-.51-.2-.8" fill="#CED0D6"></path><path d="M4 7.5a3 3 0 0 1 3-3h2a3 3 0 0 1 3 3V10a4 4 0 0 1-8 0z" stroke="#CED0D6"></path>
</svg>
