<svg width="20" height="20" viewBox="0 0 20 20" fill="none"><path d="M15.5 18v-4.6l-2.492-1.052M4.498 18v-4.6l2.492-1.052M15.5 5.5v3l-3 2M4.5 5.5v3l3 2" stroke="#CED0D6" stroke-width="1.5" stroke-linecap="round" stroke-linejoin="round"/><path d="M10 18v-.75zm1.713-12.218c0 .814-.184 1.064-.318 1.17-.186.146-.56.251-1.383.251v1.5c.832 0 1.683-.08 2.308-.57.678-.531.893-1.367.893-2.351zm-1.7-2.079c.327 0 .754.123 1.09.426.315.284.61.78.61 1.653h1.5c0-1.25-.441-2.168-1.106-2.767a3.18 3.18 0 0 0-2.094-.812zm-1.7 2.079c0-.872.294-1.369.61-1.653a1.68 1.68 0 0 1 1.09-.426v-1.5c-.653 0-1.451.231-2.095.812-.665.599-1.106 1.517-1.106 2.767zm1.7 1.421c-.823 0-1.197-.105-1.383-.251-.134-.106-.318-.356-.318-1.17h-1.5c0 .984.215 1.82.893 2.35.625.49 1.476.571 2.307.571zm2.237 5.874c0 .69-.223 1.81-.675 2.739-.474.975-1.035 1.434-1.575 1.434v1.5c1.46 0 2.399-1.196 2.925-2.28.548-1.128.825-2.47.825-3.393zM10 10.75c1.188 0 2.25.962 2.25 2.327h1.5c0-2.204-1.744-3.827-3.75-3.827zm-2.25 2.327c0-1.365 1.062-2.327 2.25-2.327v-1.5c-2.006 0-3.75 1.623-3.75 3.827zM10 17.25c-.54 0-1.101-.459-1.575-1.434-.452-.93-.675-2.049-.675-2.74h-1.5c0 .923.277 2.266.825 3.395C7.601 17.554 8.54 18.75 10 18.75z" fill="#CED0D6"/><path d="m12 4 1-2.5M8 4 7 1.5" stroke="#CED0D6" stroke-width="1.5" stroke-linecap="round" stroke-linejoin="round"/></svg>