<svg width="20" height="20" viewBox="0 0 20 20" fill="none"><path d="M5.5 15.3a.75.75 0 0 1 .75-.75h11a.75.75 0 0 1 0 1.5h-11a.75.75 0 0 1-.75-.75" fill="#CED0D6"/><circle cx="3.1" cy="15.3" r="1.1" fill="#CED0D6"/><path d="M5.5 10a.75.75 0 0 1 .75-.75h11a.75.75 0 0 1 0 1.5h-11A.75.75 0 0 1 5.5 10" fill="#CED0D6"/><circle cx="3.1" cy="10" r="1.1" fill="#CED0D6"/><path d="M5.5 4.7a.75.75 0 0 1 .75-.75h11a.75.75 0 0 1 0 1.5h-11a.75.75 0 0 1-.75-.75" fill="#CED0D6"/><circle cx="3.1" cy="4.7" r="1.1" fill="#CED0D6"/></svg>