<svg width="16" height="16" viewBox="0 0 16 16" fill="none"><path d="M2.75 4C1.784 4 1 4.836 1 5.867v6.266C1 13.164 1.784 14 2.75 14h8.5c.966 0 1.75-.836 1.75-1.867V8a2 2 0 0 0-2-2H8.5L6.736 4.283A1 1 0 0 0 6.038 4z" fill="#EBECF0"/><path fill-rule="evenodd" clip-rule="evenodd" d="M8.094 7 6.038 5H2.75c-.354 0-.75.326-.75.867v6.266c0 .54.396.867.75.867h8.5c.354 0 .75-.326.75-.867V8a1 1 0 0 0-1-1zM8.5 6H11a2 2 0 0 1 2 2v4.133C13 13.164 12.216 14 11.25 14h-8.5C1.784 14 1 13.164 1 12.133V5.867C1 4.836 1.784 4 2.75 4h3.288a1 1 0 0 1 .698.283z" fill="#6C707E"/><path d="M4 2.5a.5.5 0 0 0 .5.5h3.538l2.056 2H13a1 1 0 0 1 1 1v4.5a.5.5 0 0 0 1 0V6a2 2 0 0 0-2-2h-2.5L8.736 2.283A1 1 0 0 0 8.038 2H4.5a.5.5 0 0 0-.5.5" fill="#6C707E"/></svg>