<svg viewBox="0 0 16 16" fill="none" xmlns="http://www.w3.org/2000/svg">
  <path d="m7.363 11.565-1.886-.808L.615 15h7.386a5 5 0 0 1-.95-2.289 1.5 1.5 0 0 1 .312-1.147" fill="url(#a)"></path><path d="M11.328 7.045 8 .52l.675 6.49c.406.047.762.256 1.003.561a5 5 0 0 1 1.65-.526" fill="url(#b)"></path><path d="M8.675 7.01 8 .52.615 15l4.862-4.244.01.004L7 9.444V8.5a1.5 1.5 0 0 1 1.675-1.49" fill="url(#c)"></path><path d="M8.5 8a.5.5 0 0 1 .5.5v.826l.181-.164A4 4 0 0 1 12.001 8a4.005 4.005 0 0 1 3.96 3.43.5.5 0 1 1-.991.14 2.97 2.97 0 0 0-.849-1.691A3 3 0 0 0 12.002 9c-.83 0-1.579.335-2.122.879l-.009.009-.124.112h.754a.5.5 0 0 1 0 1h-2a.5.5 0 0 1-.5-.5v-2a.5.5 0 0 1 .5-.5M8.465 12.005a.5.5 0 0 1 .566.424c.093.656.4 1.244.848 1.692A3 3 0 0 0 12 15c.829 0 1.578-.335 2.122-.879l.008-.009.119-.112H13.5a.5.5 0 0 1 0-1h2a.5.5 0 0 1 .5.5v2a.5.5 0 0 1-1 0v-.834l-.176.167A4 4 0 0 1 12 16a4 4 0 0 1-2.828-1.172 4 4 0 0 1-1.131-2.257.5.5 0 0 1 .424-.566" fill="#3574F0"></path><defs><linearGradient id="a" x1="18.339" y1="13.225" x2="14.309" y2="6.521" gradientUnits="userSpaceOnUse"><stop stop-color="#01B202"></stop><stop offset="1" stop-color="#0FE90F"></stop></linearGradient><linearGradient id="b" x1="4.409" y1="8.159" x2="15.942" y2="13.878" gradientUnits="userSpaceOnUse"><stop stop-color="#B83535"></stop><stop offset="1" stop-color="#FD5B5A"></stop></linearGradient><linearGradient id="c" x1="4.134" y1="-5.259" x2="-7.39" y2="1.649" gradientUnits="userSpaceOnUse"><stop stop-color="#7777E9"></stop><stop offset="1" stop-color="#01009A"></stop></linearGradient></defs>
</svg>
