<svg viewBox="0 0 16 16" fill="none" xmlns="http://www.w3.org/2000/svg">
  <g clip-path="url(#a)"><path d="M12 14a1 1 0 1 0 0-2 1 1 0 0 0 0 2" fill="#548AF7"></path><path fill-rule="evenodd" clip-rule="evenodd" d="M12 16c-3 0-4-3-4-3s1-3 4-3 4 3 4 3-1 3-4 3m2.902-3.021.011.021-.01.021a4.4 4.4 0 0 1-.546.839C13.86 14.456 13.119 15 12 15s-1.86-.544-2.357-1.14a4.4 4.4 0 0 1-.545-.838L9.087 13l.01-.021c.116-.231.295-.537.546-.839C10.14 11.544 10.881 11 12 11s1.86.544 2.357 1.14c.251.302.43.607.545.838" fill="#548AF7"></path><path d="M1 4a2 2 0 0 1 2-2h10a2 2 0 0 1 2 2v6.067A4.64 4.64 0 0 0 12 9c-3.75 0-5 4-5 4s.133.426.443 1H3a2 2 0 0 1-2-2z" fill="#43454A"></path><path d="M3 3h10a1 1 0 0 1 1 1v5.435c.373.174.705.392 1 .632V4a2 2 0 0 0-2-2H3a2 2 0 0 0-2 2v8a2 2 0 0 0 2 2h4.443C7.133 13.426 7 13 7 13H3a1 1 0 0 1-1-1V4a1 1 0 0 1 1-1" fill="#CED0D6"></path><path d="M3.5 5.5A.5.5 0 0 1 4 5h1a.5.5 0 0 1 0 1H4a.5.5 0 0 1-.5-.5M6.5 5.5A.5.5 0 0 1 7 5h1a.5.5 0 0 1 0 1H7a.5.5 0 0 1-.5-.5" fill="#CED0D6"></path></g><defs><clipPath id="a"><path fill="#fff" d="M0 0H16V16H0z"></path></clipPath></defs>
</svg>
