<svg viewBox="0 0 16 16" fill="none" xmlns="http://www.w3.org/2000/svg">
  <path d="M10 10h4.645l-1.97 1.97a.75.75 0 0 0 0 1.06l1.97 1.97H10z" fill="#2F2936"></path><path fill-rule="evenodd" clip-rule="evenodd" d="M9 10a1 1 0 0 1 1-1h5.248a.75.75 0 0 1 .53 1.28l-2.22 2.22 2.22 2.22a.75.75 0 0 1-.53 1.28H10a1 1 0 0 1-1-1zm5.645 0H10v5h4.645l-1.97-1.97a.75.75 0 0 1 0-1.06z" fill="#A571E6"></path><path d="M2 12V4a2 2 0 0 1 2-2h8a2 2 0 0 1 2 2v4h-4a2 2 0 0 0-2 2v4H4a2 2 0 0 1-2-2" fill="#43454A"></path><path d="M2 12V4a2 2 0 0 1 2-2h8a2 2 0 0 1 2 2v4h-1V5.4L10.873 8H10q-.24 0-.463.054l3.45-4.217A1 1 0 0 0 12 3H4a1 1 0 0 0-1 1v6.599l3.613-4.416a.5.5 0 0 1 .803.039l1.43 2.144c-.287.204-.519.48-.666.804L6.96 7.339l-3.947 4.823A1 1 0 0 0 4 13h4v1H4a2 2 0 0 1-2-2" fill="#CED0D6"></path>
</svg>
