<svg viewBox="0 0 16 16" fill="none" xmlns="http://www.w3.org/2000/svg">
  <g opacity=".8" fill="#BBE6FB"><path d="M3.279 6.698c-.366.394-.562.83-.537 1.28.044.798.777 1.467 1.897 1.875q.427.124.862.22.284.06.572.1.27.038.545.063l.103.01a7.306 7.306 0 0 0 1.439-.028h.004a7.7 7.7 0 0 0 1.975-.463 5.8 5.8 0 0 0 1.366-.733 4.7 4.7 0 0 0 .944-.912q.268-.345.467-.742l-.002-.056a1.5 1.5 0 0 0-.335-.85l-.182-.102c-.692-.381-1.41-.685-2.172-.85-.29-.063-.586-.107-.88-.148a7 7 0 0 0-.626-.055 22 22 0 0 0-.942-.017 6 6 0 0 0-.582.035c-.272.027-.544.057-.815.1-.58.095-1.152.24-1.688.504q-.566.28-1.114.587a6 6 0 0 0-.3.182M12.47 8.487a.06.06 0 0 1 .023-.029z"></path></g><path d="M4.313 6.12a3.5 3.5 0 0 0-.052.548c.035 1.98 1.543 3.382 3.368 3.382s3.267-1.6 3.233-3.582a2.5 2.5 0 0 0-.143-.83 7 7 0 0 0-.494-.128c-.29-.063-.585-.107-.879-.148a7 7 0 0 0-.626-.055 22 22 0 0 0-.943-.017 6 6 0 0 0-.582.035c-.272.027-.544.057-.814.1-.581.095-1.152.24-1.688.504q-.19.095-.38.192" fill="#D3EFFC" opacity=".8"></path><path d="M5.159 5.73c-.189.105-.295.65-.29.898.029 1.57 1.259 2.842 2.747 2.842 1.49 0 2.667-1.387 2.639-2.956-.007-.36-.093-.834-.58-1.104l-.329-.048a7 7 0 0 0-.626-.055 22 22 0 0 0-.943-.017 6 6 0 0 0-.582.035c-.272.027-.544.057-.815.1a6.7 6.7 0 0 0-1.221.306" fill="#1287B1"></path><path fill-rule="evenodd" clip-rule="evenodd" d="m8.311 6.87.31-.58.002.672.492-.407-.236.62.599-.17-.438.476.613.09-.57.258.533.339h-.618l.375.535-.572-.256.158.65-.438-.476-.084.666-.237-.62-.312.58v-.671l-.493.406.236-.62-.598.17.437-.475-.613-.091.57-.258-.533-.338h.618l-.374-.536.572.257-.158-.65.437.475.084-.666z" fill="#fff"></path><path d="M13.334 6.044c.543-.488.893-1.112 1.156-1.804l-.002.002-.007.008-.127.191q-.11.17-.226.338c-.231.328-.476.642-.77.905a1.3 1.3 0 0 1-.337.227 1 1 0 0 1-.133.042l-.004-.008v-.002q.342-.339.592-.76c.168-.28.308-.574.421-.897l-.016.02a6 6 0 0 1-.75.937 2 2 0 0 1-.44.343.7.7 0 0 1-.255.087l.013-.014.005-.004a5 5 0 0 0 .467-.53c.145-.194.272-.397.357-.631a2 2 0 0 0 .052-.171.07.07 0 0 0-.034.025q-.324.446-.702.842c-.144.151-.295.292-.465.407a.8.8 0 0 1-.31.141.22.22 0 0 1-.162-.028c.185-.224.35-.458.504-.702.152-.244.293-.495.412-.758a.1.1 0 0 0-.019.014l-.135.18q-.123.167-.25.331a3.6 3.6 0 0 1-.464.5.7.7 0 0 1-.232.145c-.056.016-.11.005-.15-.037-.03-.034-.018-.072-.005-.107l.009-.028.011-.026.05-.09q.06-.114.125-.226.034-.058.077-.118l.031-.047-.081.068a5 5 0 0 1-.19.154c-.104.079-.21.155-.335.192-.046.014-.092.02-.132-.009.306-.29.512-.656.719-1.022l.07-.124-.156.175-.035.041a6 6 0 0 1-.66.677.8.8 0 0 1-.293.181.2.2 0 0 1-.062.003l-.035-.002.196-.434q.104-.226.205-.45-.05.065-.096.132-.062.087-.127.172c-.13.16-.279.297-.469.371a.53.53 0 0 1-.362.018l.04-.062q.061-.09.116-.183.072-.123.134-.253.04-.089.08-.183l.036-.086-.082.102q-.071.091-.144.175c-.111.127-.24.231-.39.3a.61.61 0 0 1-.484.034c-.054-.021-.074-.052-.052-.11q.031-.085.073-.161.024-.042.05-.08l.035-.054a1 1 0 0 0-.114.092c-.136.108-.276.21-.451.235-.098.015-.207-.023-.208-.164a.6.6 0 0 1 .015-.146q.017-.066.04-.134l.024-.077-.02.03-.09.14a8 8 0 0 1-.187.284 2.4 2.4 0 0 1-.207.245c-.037.04-.062.026-.076-.028-.018-.073-.005-.145.008-.216l.007-.042q.015-.09.036-.185l.018-.087-.029.044-.075.105c-.071.1-.142.202-.22.298a.6.6 0 0 1-.166.136c-.076.041-.137.008-.152-.081a.9.9 0 0 1 .016-.35l.012-.069-.038.088-.047.108a.9.9 0 0 1-.163.267c-.052.05-.1.053-.146-.003a.5.5 0 0 1-.085-.146 2 2 0 0 1-.049-.179l-.017-.07-.003.023-.008.053c-.022.13-.054.255-.118.37-.039.065-.088.117-.16.134l-.171.04-.258.06a9.4 9.4 0 0 0-1.771.627c-.611.288-1.192.642-1.745 1.046-.317.232-.628.475-.922.739-.231.206-.46.412-.684.627q-.205.198-.402.404l-.175.178-.053.055-.05.052-.05.055-.05.054a.1.1 0 0 0 .049-.018q.47-.278.91-.615.36-.278.718-.56l.504-.395c.383-.3.772-.593 1.191-.83q.549-.309 1.114-.588c.536-.264 1.108-.41 1.688-.504q.407-.061.815-.1.29-.032.582-.035.471 0 .943.017.314.014.626.055c.294.04.589.085.879.148.762.165 1.48.469 2.173.85q.173.097.344.195.21.124.426.24c.086.047.18.09.275.104.208.033.416 0 .62-.047.46-.105.861-.34 1.226-.655q.294-.255.538-.567.07-.089.136-.181L16 5.397q-.021.003-.032.02a4 4 0 0 1-.478.463c-.249.2-.51.376-.826.418a.6.6 0 0 1-.33-.042c.495-.348.827-.845 1.12-1.38a.04.04 0 0 0-.023.014 6 6 0 0 1-.724.651c-.337.251-.687.476-1.107.522a.8.8 0 0 1-.266-.019M10.72 10.218l-.097-.257.037-.01q.048-.015.094-.02a.44.44 0 0 1 .241.074c.152.088.28.212.403.342.28.298.52.633.75.979a15 15 0 0 1 .195.297.02.02 0 0 0-.002-.021l-.11-.213q-.135-.254-.263-.51a9 9 0 0 1-.448-.99 2 2 0 0 1-.078-.303c-.013-.08.035-.119.108-.096a.6.6 0 0 1 .137.062c.161.103.298.24.434.379a5 5 0 0 1 .189.206q.003-.015-.003-.023l-.087-.15q-.094-.158-.181-.32c-.034-.065-.055-.136-.077-.207l-.016-.053c-.005-.019.005-.053.02-.067.006-.009.027-.003.045.001l.01.003q.015.004.03.015l.056.045q.072.055.139.117c.317.3.61.628.903.957l.019.021.172.195.08.09q.003-.012-.003-.019l-.105-.146-.198-.277a8 8 0 0 1-.491-.78 1.3 1.3 0 0 1-.144-.363c-.017-.084.016-.136.095-.144a.4.4 0 0 1 .11.007c.113.022.215.075.315.133l.147.085a1 1 0 0 0-.056-.053l-.033-.03-.08-.072q-.182-.165-.36-.335a.5.5 0 0 1-.144-.213c-.017-.052-.007-.087.04-.106a.5.5 0 0 1 .125-.031.9.9 0 0 1 .347.05c.284.087.546.229.805.378l.093.056.063.039-.008-.015-.003-.005-.094-.1q-.151-.156-.296-.321a.7.7 0 0 1-.11-.2c-.022-.056.012-.093.067-.075.06.022.123.045.18.077.253.146.488.325.724.504l.199.154a3 3 0 0 0-.15-.146l-.076-.072-.053-.053q-.268-.261-.53-.53c-.054-.056-.099-.13-.14-.2-.033-.055-.01-.1.05-.112a.4.4 0 0 1 .111-.009c.114.017.228.034.34.059q.11.026.22.058l.118.033a.1.1 0 0 0-.037-.023l-.206-.116q-.256-.144-.51-.294c-.07-.04-.132-.095-.193-.149l-.061-.051c-.013-.012-.022-.042-.016-.056s.032-.027.048-.023l.027.004c.074.012.15.024.22.046q.13.044.263.097l.13.05-.07-.055-.112-.083c-.197-.137-.4-.265-.64-.292-.115-.011-.221.011-.3.108a1 1 0 0 0-.096.167 4.5 4.5 0 0 1-.493.794q-.413.528-.944.91c-.425.311-.883.551-1.366.734-.64.245-1.3.395-1.974.464H8.16a7.3 7.3 0 0 1-1.542.018c-.182-.02-.364-.038-.545-.064a8 8 0 0 1-.571-.1 15 15 0 0 1-1.38-.376 3.5 3.5 0 0 0-.839-.164 7 7 0 0 0-.59-.003q-.195.01-.39.028l-.208.017-.182.016a7 7 0 0 1-.39.027 4 4 0 0 1-.699-.022 2.6 2.6 0 0 1-.728-.211L0 9.343c.138.123.287.225.454.297.225.099.461.15.704.172q.35.033.703.022l.048-.001c.37-.009.741-.018 1.11.044.075.013.149.041.223.07l.006.002c.045.018.072.06.062.115a1 1 0 0 1-.054.172c-.096.192-.23.354-.365.514q-.06.074-.126.146l-.066.075.011-.001h.003l.13-.11q.137-.118.28-.232c.226-.177.455-.353.712-.478q.112-.052.234-.08c.09-.023.171.028.182.114a.5.5 0 0 1-.004.16c-.034.186-.117.348-.201.51l-.003.005q-.045.086-.094.171l-.015.027.008.007.01-.012.014-.018.108-.126q.142-.17.292-.334c.129-.136.274-.248.451-.304.173-.054.337-.051.477.084.154.148.175.181.087.386-.094.218-.227.409-.359.599l-.025.036-.111.153a.05.05 0 0 0 .027-.015l.234-.222q.232-.223.467-.441c.089-.082.185-.16.297-.206q.093-.04.118.062.023.081.026.164a3 3 0 0 1-.047.556q-.008.05-.014.101l-.004.034a.1.1 0 0 0 .025-.042l.01-.026c.099-.232.197-.464.327-.677.04-.065.09-.121.14-.178l.009-.01c.011-.014.043-.024.057-.017.013.008.023.04.024.061.004.123-.027.24-.058.358l-.006.021c-.126.473-.29.93-.454 1.389l-.005.012-.089.244a.2.2 0 0 0 .036-.048c.267-.521.538-1.04.837-1.54.088-.147.186-.286.286-.422.056-.076.117-.075.185-.011a.6.6 0 0 1 .151.24c.092.215.15.442.201.673q.02.088.037.177l.026.124a8 8 0 0 0-.023-.41 3.4 3.4 0 0 1 .005-.672c.007-.053.014-.111.058-.137.113-.065.233-.106.364-.063.126.04.19.149.235.272.063.172.078.355.082.536.006.28-.017.559-.056.836q-.041.274-.084.547l-.007.037-.007.034-.01.057-.001.013a.03.03 0 0 0 .014-.018c.178-.534.346-1.07.388-1.641.017-.229.017-.457-.125-.665.368.27.636.616.813 1.044q.264.633.235 1.34l.007-.01.002-.005c.048-.187.05-.378.032-.57a4 4 0 0 0-.118-.652 7 7 0 0 0-.408-1.102l-.006-.012c-.028-.061-.055-.121-.09-.193l.048.01q.039.006.073.016c.13.045.234.136.331.236.23.235.412.512.586.797l.028.045q.015.023.028.046a.1.1 0 0 0-.01-.046l-.002-.006-.054-.132q-.08-.187-.148-.38a1.5 1.5 0 0 1-.107-.552c.006-.126.076-.213.188-.214q.111-.002.22.024c.213.053.37.198.495.386.137.201.224.43.293.668.087.3.133.608.162.935l.014-.032q.01-.02.015-.037l.008-.043a.5.5 0 0 0 .016-.133 4 4 0 0 0-.046-.421 5.4 5.4 0 0 0-.26-.908q-.09-.246-.186-.496" fill="#DFE1E6"></path>
</svg>
