<svg viewBox="0 0 16 16" fill="none" xmlns="http://www.w3.org/2000/svg">
  <path d="M2 4a2 2 0 0 1 2-2h8a2 2 0 0 1 2 2v8a2 2 0 0 1-2 2H4a2 2 0 0 1-2-2z" fill="#402929"></path><path d="M9 3h3a1 1 0 0 1 1 1v3h1V4a2 2 0 0 0-2-2H9zM7 3V2H4a2 2 0 0 0-2 2v3h1V4a1 1 0 0 1 1-1zM3 9H2v3a2 2 0 0 0 2 2h3v-1H4a1 1 0 0 1-1-1zM9 13v1h3a2 2 0 0 0 2-2V9h-1v3a1 1 0 0 1-1 1zM7.256 12h1.017V7.327h1.555V6.43H8.273v-.95c0-.36.246-.606.6-.606H9.88V4H8.776c-.903 0-1.52.571-1.52 1.406V6.43H6.12v.897h1.137z" fill="#DB5C5C"></path>
</svg>
