<svg viewBox="0 0 16 16" fill="none" xmlns="http://www.w3.org/2000/svg">
  <path d="m14.283 7.358-.466.18v.001zm-.017-.046.466-.18V7.13zM12.038 2.5l.451-.215a.5.5 0 0 0-.912.021zm-1.62 4V7h.361l.114-.342zm-4.836 0-.475.158.114.342h.36zm-1.62-3.998.46-.193a.5.5 0 0 0-.911-.022zm-2.227 4.81.464.186.002-.004zm-.018.046-.464-.187-.002.005zm1.09 3.722.316-.388-.009-.007-.01-.008zm.006.005-.316.387.012.01.012.009zm.016.01.296-.402-.004-.003zm2.692 1.978.297-.401-.001-.001zm1.335.99.298-.402zm.81.601-.297.402zm.331.11v-.5zm.331-.11-.298-.401zm.811-.6-.298-.403zm1.336-.99-.296-.404-.002.002zm2.71-1.99-.287-.41-.008.007zm.008-.005.287.41.01-.008zm1.557-3.901-.018-.046-.933.36.018.045zM10.419 6H5.582v1h4.837zM1.27 7.126l-.018.045.928.373.018-.046zm-.02.05a3.66 3.66 0 0 0-.103 2.362l.96-.281a2.66 2.66 0 0 1 .075-1.718zm-.103 2.362a3.72 3.72 0 0 0 1.362 1.944l.594-.804a2.72 2.72 0 0 1-.997-1.421zm1.343 1.929.006.005.633-.774-.007-.006zm.03.024.016.01.584-.811-.016-.011zm.012.008 2.692 1.977.592-.805-2.692-1.978zm2.69 1.976 1.335.99.596-.804-1.336-.99zm1.335.99.81.601.596-.803-.81-.601zm.81.601c.183.135.403.207.63.207v-1a.06.06 0 0 1-.034-.01zm.63.207c.225 0 .446-.072.628-.207l-.596-.803a.06.06 0 0 1-.033.01zm.628-.207.81-.601-.595-.804-.81.602zm.81-.601 1.336-.99-.595-.803-1.336.99zm1.334-.988 2.711-1.99-.591-.806-2.711 1.99zm2.702-1.983.007-.005-.573-.82-.007.006zm.018-.013a3.72 3.72 0 0 0 1.362-1.943l-.96-.282a2.72 2.72 0 0 1-.996 1.421zm1.362-1.943a3.66 3.66 0 0 0-.103-2.362l-.931.363c.214.55.24 1.152.074 1.717zM3.962 2.502l-.451-.215-.002.003-.004.009-.016.034-.284.596-.695 1.472c-.514 1.096-1.08 2.318-1.24 2.73l.93.363c.146-.371.693-1.554 1.216-2.668a409 409 0 0 1 .976-2.063l.016-.034.004-.009v-.002h.001zm2.094 3.84c-.122-.365-.535-1.385-.908-2.29a300 300 0 0 0-.665-1.6l-.044-.106-.012-.028-.003-.007V2.31h-.001l-.461.193-.461.194.004.01.012.027.044.106a300 300 0 0 1 .663 1.595c.38.922.776 1.901.883 2.224zM12.038 2.5l-.46-.193h-.001v.002l-.004.007-.012.028-.205.492c-.134.322-.316.758-.504 1.216-.373.905-.786 1.926-.908 2.29l.949.316c.108-.323.504-1.302.884-2.225a301 301 0 0 1 .662-1.596l.045-.106.011-.028.003-.007.001-.002zm2.693 4.63c-.157-.403-.724-1.626-1.239-2.724-.26-.554-.51-1.084-.696-1.476l-.223-.47-.062-.13-.016-.033-.004-.01-.001-.001v-.001l-.452.215-.451.215.001.003.004.009.016.034.284.597c.186.391.436.92.695 1.473.524 1.116 1.07 2.3 1.213 2.663z" fill="#CED0D6"></path>
</svg>
