<svg viewBox="0 0 16 16" fill="none" xmlns="http://www.w3.org/2000/svg">
  <g clip-path="url(#a)"><path fill-rule="evenodd" clip-rule="evenodd" d="M9 10a1 1 0 0 1 1-1h5a1 1 0 0 1 1 1v5a1 1 0 0 1-1 1h-5a1 1 0 0 1-1-1zm1 5v-5h5v5z" fill="#CED0D6"></path><path fill="#57965C" d="M11 11H14V14H11z"></path><path fill-rule="evenodd" clip-rule="evenodd" d="M2.017 3.392H2v9.126h.003c.028.444.274.816.594 1.106.34.307.804.561 1.335.764 1.066.408 2.504.65 4.068.65v-1.001c-1.474 0-2.785-.23-3.71-.583-.465-.177-.806-.377-1.022-.572-.217-.196-.268-.348-.268-.448v-1.449c.272.175.588.328.932.46 1.066.407 2.504.648 4.068.648v-1c-1.474 0-2.785-.229-3.71-.583-.465-.177-.806-.376-1.022-.572C3.05 9.742 3 9.59 3 9.49V8.041c.272.175.588.328.932.46 1.066.407 2.504.648 4.068.648h.19A2 2 0 0 1 9.473 8.07c-.465.052-.96.08-1.473.08-1.474 0-2.785-.23-3.71-.584-.465-.177-.806-.376-1.022-.572C3.05 6.8 3 6.646 3 6.547v-1.45c.272.175.588.328.932.46 1.066.407 2.504.648 4.068.648s3.002-.241 4.068-.648c.344-.132.66-.285.932-.46v1.45c0 .1-.051.252-.268.447-.216.196-.557.395-1.021.572A8.5 8.5 0 0 1 10 8H14V3.392h-.017c-.062-.388-.29-.717-.58-.979-.34-.307-.804-.561-1.335-.764C11.002 1.24 9.564 1 8 1s-3.002.241-4.068.649c-.53.203-.995.457-1.335.764-.29.262-.518.591-.58.98m1.25-.237c-.216.196-.267.348-.267.448s.051.252.268.447c.216.196.557.395 1.021.573.926.353 2.237.582 3.711.582s2.786-.229 3.71-.582c.465-.178.806-.377 1.022-.573.217-.195.268-.347.268-.447s-.051-.252-.268-.448c-.216-.195-.557-.395-1.021-.572C10.785 2.229 9.474 2 8 2s-2.785.23-3.71.583c-.465.177-.806.377-1.022.572" fill="#CED0D6"></path></g><defs><clipPath id="a"><path fill="#fff" d="M0 0H16V16H0z"></path></clipPath></defs>
</svg>
