<svg width="20" height="20" viewBox="0 0 20 20" fill="none"><path fill-rule="evenodd" clip-rule="evenodd" d="M17.248 18.309a4 4 0 1 1 1.06-1.06l1.472 1.47a.75.75 0 1 1-1.06 1.061zM17.5 15a2.5 2.5 0 1 1-5 0 2.5 2.5 0 0 1 5 0" fill="#6C707E"/><path d="M5.75 2a.75.75 0 0 1 .75.75V5h7V2.75a.75.75 0 0 1 1.5 0V5h2.25a.75.75 0 0 1 0 1.5H15v3c-.52 0-1.023.072-1.5.207V6.5h-7v7h3.207c-.135.477-.207.98-.207 1.5h-3v2.25a.75.75 0 0 1-1.5 0V15H2.75a.75.75 0 0 1 0-1.5H5v-7H2.75a.75.75 0 0 1 0-1.5H5V2.75A.75.75 0 0 1 5.75 2" fill="#6C707E"/></svg>