<svg width="16" height="16" viewBox="0 0 16 16" fill="none"><path fill-rule="evenodd" clip-rule="evenodd" d="M4.137 2.658c.027.068.133.15.224.235 0 0 .94.917 1.055 1.049.52.6.746 1.192.767 2.008.013.525-.086.986-.334 1.52-.44.96-1.368 2.02-2.8 3.195l.21-.07c.135-.1.32-.209.75-.446.997-.545 2.117-1.046 3.492-1.562 1.979-.744 7.277-1.928 7.277-1.928s-.315-.472-.454-.645a5.1 5.1 0 0 0-1.501-1.25c-.83-.463-1.901-.825-3.259-1.093-.256-.05-.818-.148-1.275-.218-.968-.15-1.594-.254-2.283-.372a24 24 0 0 1-.863-.159 6 6 0 0 1-.56-.15c-.152-.059-.372-.118-.419-.298 0 0-.072.074-.027.184m1.473.679c.015.015.344.878.344.878s-.1-.15-.402-.49c-.3-.34-.552-.6-.552-.572 0 0 .596.169.61.184m1.557.273-.931.748s-.249-.945-.249-.949zm.573 1.435s-1.345-.397-1.345-.401c0-.013 1.167-1.011 1.186-1.005zM8.998 3.88c.294.057.72.146.746.157.013.004-.032.03-.173.093a9 9 0 0 0-1.385.752 7 7 0 0 1-.201.132c-.002 0-.004-.062-.004-.136 0-.402-.08-.807-.229-1.15a.3.3 0 0 1-.025-.068c.006-.006.875.144 1.27.22m.93.503c-.076.315-.281.783-.533 1.223a1.4 1.4 0 0 1-.089.143 1 1 0 0 1-.127-.067 7 7 0 0 0-.828-.406c-.085-.036-.159-.066-.161-.07-.015-.013.666-.463 1.025-.679.286-.173.751-.431.76-.423a1.6 1.6 0 0 1-.047.28m2.07.438.076.035.077.035-.107.025c-.91.21-1.378.37-2.129.675a2 2 0 0 1-.12.046.6.6 0 0 1 .044-.108c.226-.48.517-1.287.517-1.287s1.269.41 1.641.58m-4.559.548c0 .002-.962.947-.962.947s-.085-1.305-.083-1.307c0 0 1.045.347 1.045.36m4.817-.005c-.127.182-1.444 1.616-1.444 1.616s-.58-.52-.916-.8a5 5 0 0 0-.156-.126.2.2 0 0 1-.043-.036c0-.006.36-.115.633-.225a22 22 0 0 1 1.617-.554c.256-.08.529-.185.533-.181 0 0-.135.182-.224.306m.508-.196s.641.465 1.039.854c.112.11.374.402.37.404-.192 0-2.902.622-2.902.622s-.023-.032.08-.131c.643-.62 1.413-1.75 1.413-1.75m-4.318.61c.19.096.476.248.49.261.002.002-.1.055-.224.116-.397.199-1.279.715-1.281.715-.009 0 .562-1.33.569-1.33 0 0 .239.135.446.239M7.01 7.029l-.51-.28S7.648 5.584 7.654 5.59 7.01 7.028 7.01 7.028m3.047-.139c.12.1.394.321.394.321l-2.48.87s.927-1.132 1.295-1.684l.074-.114zm-1.685.146c-.207.275-.958 1.237-.962 1.24-.007.002-.246-.853-.235-.863.04-.036.656-.468 1.045-.677.262-.14.672-.347.678-.343.004.004-.352.412-.526.643m-1.988.013c.006 0 .315.187.315.187s-.862.882-.841.85c.14-.213.522-1.037.526-1.037m.627 1.332s-1.037.418-1.36.566c-.091.042-.614.288-.533.229.632-.46 1.609-1.517 1.712-1.57z" fill="#F26522"/><path fill-rule="evenodd" clip-rule="evenodd" d="M5.909 1.478c.484-.196 1.235-.467 1.281-.46.023.001.028.01.064.154.065.236.184.566.308.852.16.368.436.913.685 1.353l.043.076-.454-.07a8 8 0 0 1-.17-.306c-.062-.115-.117-.216-.12-.216.009.01-.356.241-.593.38l-.546-.092c.064-.03.487-.264.678-.387.21-.134.391-.288.391-.288h-.04c-.132.003-.478.01-.956-.079a9 9 0 0 1-1.135-.297L6.3 3.125v.006l-.544-.093c-.006-.01-.025-.034-.048-.062l-.013-.016c-.036-.044-.662-.711-.662-.711s-.57.316-.605.464c-.117-.048-.23-.114-.263-.236.046-.068.17-.187.27-.259.313-.22.82-.473 1.474-.74m-.362.435s1.484.368 1.772.29c.037-.01-.303-.865-.307-.867-.06.01-1.474.568-1.465.577M3.073 10.658l-.034.026a4.3 4.3 0 0 0-.553.55c-.193.241-.345.497-.41.694-.117.355-.06.714.164 1.046.288.423.86.854 1.529 1.148.34.15.913.343 1.345.45.717.183 2.104.38 2.867.409.154.006.361.006.37 0 .017-.01.135-.237.273-.518.47-.958.807-1.857.991-2.624.11-.465.197-1.085.254-1.819.015-.205.021-.892.008-1.124A8 8 0 0 0 9.77 7.89l-.347.096c.074.25.14 1.051.14 1.051s-1.129-.618-1.281-.715q-.203.064-.384.124c.23.141 1.334.816 1.561.915.079.034-1.72.84-1.72.84s.095-1.473.114-1.74a12 12 0 0 0-.406.147c.003.193-.028.591-.052.913-.02.25-.035.453-.028.477A37 37 0 0 1 6.67 8.91q-.183.072-.36.146c.11.163.858 1.303.858 1.303s-1.753.602-1.872.641c-.018.006.854-1.679.985-1.931q-.295.123-.574.246l-.19.36c-.248.473-.606 1.152-.643 1.253a.95.95 0 0 1-.217-.385 2 2 0 0 1 .01-.63l.003-.011c.014-.068.02-.097.034-.115q-.24.12-.47.241 0 .02-.005.051a3 3 0 0 0-.024.227c-.013.237.061.375.166.568q.046.085.1.193c.042.087.074.16.074.16l-2.004.547c-.015.005.328-.595.658-.937.152-.159.577-.501.832-.7l-.021.012c-.431.237-.615.345-.75.447zm1.8.27q-.008.024.008.002 0 .002-.007-.002m2.493-.93q0 .003.002.002zm2.06 1.023.132-1.22s-1.545.682-1.558.696zm-1.699-.383a1 1 0 0 0-.114-.062l-.007.018-.023.06a10.4 10.4 0 0 1-.666 1.517c-.048.09-.086.165-.086.167s.023-.004.048-.015l.298-.112c.946-.353 1.87-.738 2.15-.895l.068-.038-.048-.01a6.4 6.4 0 0 1-1.62-.63m-.486.146a1 1 0 0 0 .036-.098l-.152.062a14 14 0 0 1-1.857.64l-.192.053.038.047c.26.328.657.666 1.106.94.076.047.14.085.141.085.002 0 .068-.112.146-.251.309-.546.55-1.032.734-1.478m1.635 2.245s.191-.446.265-.71c.09-.315.205-.635.205-.635l-.06.027a34 34 0 0 1-1.36.572c-.516.2-1.017.347-1.174.393l-.05.015c.012.01 2.174.338 2.174.338m-5.825.164.053.04s1.443-1.648 1.439-1.652l-.636.21-1.47.488q-.032.008.002.158c.021.096.147.303.291.465.14.159.25.239.32.29m1.855-1.291-.067-.076s-1.193 1.28-1.391 1.567l-.062.089.038.027c.022.015.04.028.043.028s.279-.096.615-.214a35 35 0 0 0 1.722-.677.6.6 0 0 0-.115-.074c-.376-.22-.478-.33-.783-.67m3.775 1.512c-.307-.025-2.127-.369-2.117-.38 0 .003-.935 1.17-1.012 1.243l-.005.003q0 .002.005-.003c.1-.043 1.62-.438 2.526-.674.387-.1.662-.172.666-.174.009-.007-.017-.01-.063-.015m-3.656.729s1.106-1.239 1.104-1.24c-.002-.002-.701.285-1.312.536l-.895.367c-.042.01 1.103.337 1.103.337m3.079.534c.014.003.46-.85.45-.87-.06.008-2.43.646-2.43.646s1.944.222 1.98.224" fill="#6C707E"/></svg>