<svg viewBox="0 0 16 16" fill="none" xmlns="http://www.w3.org/2000/svg">
  <path fill-rule="evenodd" clip-rule="evenodd" d="M9 15.076A7.03 7.03 0 0 1 12.528 9 7.03 7.03 0 0 1 16 15.072v.018c-2.066 1.194-4.73 1.237-7-.014m5-3.18a3.01 3.01 0 0 1-1.512 2.604 3.01 3.01 0 0 1-1.489-2.602v-.008c.886-.512 2.028-.53 3 .005" fill="#39207C"></path><path d="M14.824 9.565A7 7 0 1 0 8 15a8.03 8.03 0 0 1 4.032-6.868l.501-.286.498.29a8 8 0 0 1 1.793 1.429" fill="#FAF5FF"></path><path d="M14.824 9.565A7 7 0 1 0 8 15a8 8 0 0 1 .076-1H8a6 6 0 1 1 5.952-5.236q.468.37.872.801" fill="#834DF0"></path><path d="M8.891 11.42a3.6 3.6 0 0 1-.759.08c-1.919 0-3.345-1.494-3.345-3.5s1.426-3.5 3.345-3.5c1.49 0 2.766.9 3.08 2.175h-1.015c-.315-.73-1.093-1.252-2.065-1.252-1.339 0-2.306 1.074-2.306 2.577s.967 2.577 2.306 2.577c.972 0 1.75-.522 2.065-1.252h.246a8 8 0 0 0-1.552 2.095" fill="#834DF0"></path>
</svg>
