<svg width="16" height="16" viewBox="0 0 16 16" fill="none"><path d="M3.828 8.84h1.216L6.207 13H4.94zM2.372 3.9h1.56q.748 0 1.216.293.474.285.695.87.228.586.228 1.483 0 .91-.234 1.501-.228.585-.709.877-.48.287-1.248.287h-.318V13h-1.19zm1.56 4.173q.358 0 .553-.15.2-.15.28-.474.084-.325.084-.904 0-.565-.085-.89-.078-.326-.28-.468-.194-.15-.552-.15h-.37v3.036zm4.688 5.083q-.623 0-1.04-.286-.409-.292-.617-.897t-.208-1.54h1.222q0 .603.065.968.072.364.214.533a.5.5 0 0 0 .377.163.46.46 0 0 0 .364-.156q.144-.157.208-.488.072-.332.072-.851 0-.625-.143-.982a1.1 1.1 0 0 0-.449-.559l-.604-.377a2.7 2.7 0 0 1-.67-.598 2.4 2.4 0 0 1-.39-.8 4 4 0 0 1-.123-1.04q0-.838.188-1.397.195-.56.579-.832.384-.273.936-.273.578 0 .962.28.383.272.572.832.195.558.195 1.41H9.114q0-.546-.058-.864-.052-.32-.156-.455a.33.33 0 0 0-.286-.144q-.255 0-.377.319-.117.312-.117 1.053 0 .546.136.865.144.311.462.506l.546.338q.435.274.702.637.273.365.396.858.13.488.13 1.145 0 .883-.208 1.475-.201.585-.617.871-.415.285-1.047.286M10.665 3.9h3.679v1.15h-1.248V13h-1.197V5.05h-1.234z" fill="#3574F0"/></svg>