<svg viewBox="0 0 16 16" fill="none" xmlns="http://www.w3.org/2000/svg">
  <path d="M10.713 14.71c-.241-.597-.404-1.362-.45-2.21H9.041c.164.98.803 1.798 1.672 2.21M11.678 14.428c-.207-.473-.365-1.143-.413-1.928h1.47c-.049.785-.207 1.455-.414 1.928-.119.271-.236.437-.322.525-.085-.088-.202-.254-.32-.525M11.678 9.572c-.207.473-.365 1.143-.413 1.928h1.47c-.049-.785-.207-1.455-.414-1.928-.119-.271-.236-.437-.322-.525-.085.088-.202.254-.32.525M13.286 14.71c.241-.597.404-1.362.45-2.21h1.222a3 3 0 0 1-1.672 2.21M13.736 11.5h1.222a3 3 0 0 0-1.672-2.21c.241.597.404 1.362.45 2.21M9.041 11.5h1.222c.046-.848.209-1.613.45-2.21A3 3 0 0 0 9.04 11.5" fill="#43454A"></path><path fill-rule="evenodd" clip-rule="evenodd" d="M16 12a4 4 0 1 0-8 0 4 4 0 0 0 8 0m-5.736.5c.046.848.208 1.613.45 2.21A3 3 0 0 1 9.04 12.5zm1.001 0c.048.785.207 1.455.414 1.928.118.271.236.437.321.525.085-.088.203-.254.321-.525.207-.473.366-1.143.414-1.928zm1.47-1h-1.47c.048-.785.207-1.455.414-1.928.118-.271.236-.437.321-.525.085.088.203.254.321.525.207.473.366 1.143.414 1.928m1.002 1c-.047.848-.21 1.613-.45 2.21a3 3 0 0 0 1.672-2.21zm1.222-1h-1.223c-.046-.848-.208-1.613-.45-2.21a3 3 0 0 1 1.673 2.21m-4.695 0H9.04a3 3 0 0 1 1.672-2.21c-.24.597-.403 1.362-.45 2.21" fill="#CED0D6"></path><path d="M14.895 7.923c-.29-1.547-1.166-3.072-2.474-4.38C9.556.678 5.603-.034 2.77 2.8s-2.02 6.936.72 9.675c1.278 1.278 2.842 2.154 4.442 2.431a5 5 0 0 1 6.964-6.984" fill="#253627"></path><path d="M14.895 7.923c-.29-1.547-1.166-3.072-2.474-4.38C9.556.678 5.603-.034 2.77 2.8s-2.02 6.936.72 9.675c1.278 1.278 2.842 2.154 4.442 2.431a5 5 0 0 1-.626-1.184c-1.096-.35-2.175-1.022-3.107-1.955-1.236-1.235-2-2.743-2.163-4.205-.144-1.29.174-2.574 1.104-3.684l4.975 4.975q.316-.39.706-.711L3.846 3.169c1.115-.943 2.372-1.273 3.63-1.138 1.429.153 2.93.915 4.237 2.22.95.952 1.621 1.998 1.98 3.043.431.155.835.368 1.202.629" fill="#57965C"></path>
</svg>
