<svg viewBox="0 0 16 16" fill="none" xmlns="http://www.w3.org/2000/svg">
  <path fill-rule="evenodd" clip-rule="evenodd" d="M1.386 8.42a.6.6 0 0 1 0-.81l4.071-4.466a.6.6 0 0 1 1.044.404v8.91a.6.6 0 0 1-1.042.405z" fill="#FFF7F7"></path><path fill-rule="evenodd" clip-rule="evenodd" d="M5.086 2.807C5.763 2.065 7 2.544 7 3.548v8.91c0 1.002-1.233 1.482-1.911.742L1.016 8.757a1.1 1.1 0 0 1-.002-1.484zm.79.642a.1.1 0 0 0-.051.032L1.753 7.946a.1.1 0 0 0 0 .135l4.072 4.444c.02.022.038.029.051.032a.1.1 0 0 0 .06-.007.1.1 0 0 0 .047-.035.1.1 0 0 0 .016-.058V3.548a.1.1 0 0 0-.016-.058.1.1 0 0 0-.048-.035.1.1 0 0 0-.059-.006" fill="#DB3B4B"></path><path d="M14.522 7.479A4.5 4.5 0 0 0 12.5 7a4.48 4.48 0 0 0-3 1.146V3.543a.6.6 0 0 1 1.042-.406z" fill="#F2FCF3"></path><path d="M10 7.758V3.543q.002-.045.016-.058a.1.1 0 0 1 .048-.036.1.1 0 0 1 .059-.006c.013.003.03.01.05.032l3.336 3.639c.66.15 1.263.446 1.777.852a1.1 1.1 0 0 0-.289-.71L10.911 2.8C10.233 2.06 9 2.54 9 3.543V8.67c.285-.352.622-.66 1-.913" fill="#208A3C"></path><path fill-rule="evenodd" clip-rule="evenodd" d="M14.167 12.59a1.08 1.08 0 0 1-.631-.728c.174-.118.39-.181.602-.177a1 1 0 0 1 .377.081c.093.047.183.091.276.162.325.235.12.759-.298.735a.8.8 0 0 1-.326-.073m-1.256.801a.96.96 0 0 1 .095-.941c.325.07.622.281.761.61a.75.75 0 0 1 .073.31c.023.352-.514.561-.77.279-.069-.07-.112-.164-.159-.258m.116-4.14a.41.41 0 0 1 .363-.147c.216.022.42.199.406.448a.75.75 0 0 1-.073.31c-.139.329-.415.54-.74.61a.91.91 0 0 1-.116-.942c.047-.094.09-.185.16-.279m-.95 4.398c-.232.306-.77.09-.747-.31 0-.093.026-.207.072-.3.14-.33.415-.54.74-.611a.98.98 0 0 1 .095.941c-.047.094-.09.186-.16.28m-1.444-.964c-.418.024-.621-.469-.32-.728a.8.8 0 0 1 .276-.169 1.03 1.03 0 0 1 .972.096c-.046.306-.277.586-.601.728a.74.74 0 0 1-.327.073m0-2.427c.116 0 .21.027.327.074.325.141.561.422.63.728a1.03 1.03 0 0 1-.979.096 1.7 1.7 0 0 1-.275-.17.406.406 0 0 1 .225-.728q.034-.002.072 0m1.422-.985c.07.07.113.163.16.257.14.33.091.683-.095.942a1.06 1.06 0 0 1-.761-.61.75.75 0 0 1-.073-.31c0-.235.202-.406.414-.426a.4.4 0 0 1 .355.147M12.536 8A3.53 3.53 0 0 0 9 11.529a3.534 3.534 0 0 0 2.861 3.46V16c2.117-.318 3.99-1.995 4.13-4.195S14.492 8 12.537 8" fill="#55A76A"></path>
</svg>
