<svg width="16" height="16" viewBox="0 0 16 16" fill="none"><g clip-path="url(#a)" fill-rule="evenodd" clip-rule="evenodd" fill="#CED0D6"><path d="M12.182 10.032s.484.142.766.28c.097.047.266.143.388.268.12.122.178.247.178.247l1.908 3.114-3.084.001-1.443-2.621s-.295-.492-.477-.634c-.151-.119-.216-.161-.366-.161H9.32l.001 3.414-2.73.001V5.22h5.481s2.497.044 2.497 2.342-2.386 2.47-2.386 2.47m-1.187-2.92L9.343 7.11v1.483h1.652s.766-.003.766-.755c0-.767-.766-.727-.766-.727"/><path d="M15.187 9.467c.52-.689.813-1.463.813-2.281C16 4.322 12.418 2 8 2S0 4.322 0 7.186c0 2.385 2.484 4.394 5.866 5v-1.657c-1.64-.635-2.722-1.722-2.722-2.956 0-1.958 2.722-3.545 6.08-3.545s5.837 1.085 5.837 3.545c0 .76-.236 1.388-.661 1.894z"/></g><defs><clipPath id="a"><path fill="#fff" d="M0 0H16V16H0z"/></clipPath></defs></svg>