<svg viewBox="0 0 16 16" fill="none" xmlns="http://www.w3.org/2000/svg">
  <path d="M8.5 8a.5.5 0 0 1 .5.5v.826l.181-.164A4 4 0 0 1 12.001 8a4.005 4.005 0 0 1 3.96 3.43.5.5 0 1 1-.991.14 2.97 2.97 0 0 0-.849-1.691A3 3 0 0 0 12.002 9c-.83 0-1.579.335-2.122.879l-.009.009-.124.112h.754a.5.5 0 0 1 0 1h-2a.5.5 0 0 1-.5-.5v-2a.5.5 0 0 1 .5-.5M8.465 12.005a.5.5 0 0 1 .566.424c.093.656.4 1.244.848 1.692A3 3 0 0 0 12 15c.829 0 1.578-.335 2.122-.879l.008-.009.119-.112H13.5a.5.5 0 0 1 0-1h2a.5.5 0 0 1 .5.5v2a.5.5 0 0 1-1 0v-.834l-.176.167A4 4 0 0 1 12 16a4 4 0 0 1-2.828-1.172 4 4 0 0 1-1.131-2.257.5.5 0 0 1 .424-.566" fill="#3574F0"></path><path d="M4.5 2a.5.5 0 0 1 .354.146l2 2a.5.5 0 1 1-.708.708L5 3.707v8.586l1.146-1.147a.5.5 0 0 1 .708.707l-2 2a.5.5 0 0 1-.708 0l-2-2a.5.5 0 0 1 .708-.707L4 12.293V3.707L2.854 4.854a.5.5 0 1 1-.708-.708l2-2A.5.5 0 0 1 4.5 2M11.5 2a.5.5 0 0 1 .354.146l2 2a.5.5 0 0 1-.707.708L12 3.707V7q-.514.001-1 .1V3.707L9.854 4.854a.5.5 0 1 1-.708-.708l2-2A.5.5 0 0 1 11.5 2" fill="#6C707E"></path>
</svg>
