<svg viewBox="0 0 16 16" fill="none" xmlns="http://www.w3.org/2000/svg">
  <path d="M16 8.5a.5.5 0 0 0-1 0V11a1 1 0 0 1-1 1H9.707l2.147-2.146a.5.5 0 0 0-.708-.708l-3 3a.5.5 0 0 0 0 .708l3 3a.5.5 0 0 0 .708-.708L9.707 13H14a2 2 0 0 0 2-2z" fill="#3574F0"></path><path fill-rule="evenodd" clip-rule="evenodd" d="M2.017 3.392H2v9.126h.003c.028.444.274.816.594 1.106.34.307.804.561 1.335.764 1.066.408 2.504.65 4.068.65q.453 0 .89-.027l-.975-.974c-1.439-.009-2.718-.236-3.626-.583-.464-.177-.805-.377-1.021-.572-.217-.196-.268-.348-.268-.448v-1.449c.272.175.588.328.932.46.85.324 1.935.543 3.132.619.07-.229.195-.444.375-.625l.348-.347c-1.387-.021-2.617-.245-3.498-.582-.464-.177-.805-.376-1.021-.572C3.05 9.742 3 9.59 3 9.49V8.041c.272.175.588.328.932.46 1.066.407 2.504.648 4.068.648.642 0 1.263-.04 1.846-.117l.593-.593C10.732 8.146 11.116 8 11.5 8H14V3.392h-.017c-.062-.388-.29-.717-.58-.979-.34-.307-.804-.561-1.335-.764C11.002 1.24 9.564 1 8 1s-3.002.241-4.068.649c-.53.203-.995.457-1.335.764-.29.262-.518.591-.58.98m1.25-.237c-.216.196-.267.348-.267.448s.051.252.268.447c.216.196.557.395 1.021.573.926.353 2.237.582 3.711.582s2.786-.229 3.71-.582c.465-.178.806-.377 1.022-.573.217-.195.268-.347.268-.447s-.051-.252-.268-.448c-.216-.195-.557-.395-1.021-.572C10.785 2.229 9.474 2 8 2s-2.785.23-3.71.583c-.465.177-.806.377-1.022.572M3 5.097v1.45c0 .1.051.252.268.447.216.196.557.395 1.021.572.926.354 2.237.583 3.711.583s2.786-.229 3.71-.583c.465-.177.806-.376 1.022-.572.217-.195.268-.348.268-.447v-1.45a5 5 0 0 1-.932.46c-1.066.407-2.504.648-4.068.648s-3.002-.241-4.068-.648A5 5 0 0 1 3 5.097" fill="#6C707E"></path>
</svg>
