<svg viewBox="0 0 16 16" fill="none" xmlns="http://www.w3.org/2000/svg">
  <g clip-path="url(#a)"><g clip-path="url(#b)"><path fill-rule="evenodd" clip-rule="evenodd" d="M6.31 7a9 9 0 0 1-.198-1.5h-1.45c.108.732.452 1.387.952 1.886L5 8h-.184a4.375 4.375 0 1 1 6.37 0H9.547a3.38 3.38 0 0 0 1.79-2.5h-1.45c-.04.818-.18 1.568-.388 2.186V7h-.838c.113-.434.194-.942.224-1.5H7.114c.03.558.111 1.066.225 1.5zm1.264-4.695c-.235.54-.411 1.304-.46 2.195h1.772c-.048-.89-.225-1.655-.46-2.195-.139-.321-.28-.518-.384-.62L8 1.648l-.042.037c-.105.102-.245.299-.384.62M9.888 4.5h1.45a3.38 3.38 0 0 0-1.996-2.598c.297.682.496 1.588.546 2.598m-5.226 0h1.45c.05-1.01.25-1.916.546-2.598A3.38 3.38 0 0 0 4.662 4.5" fill="#CED0D6"></path><path d="M1.266 9.69H3.64q1.044.01 1.514.603t.31 1.62q-.062.47-.275.921a2.7 2.7 0 0 1-.566.815q-.442.46-.948.584a4.4 4.4 0 0 1-1.044.124H1.567l-.336 1.682H0zm1.036 1.01-.531 2.657q.052.008.106.008h.124q.85.009 1.417-.168.566-.186.761-1.293.16-.93-.319-1.07-.47-.143-1.177-.134-.107.01-.204.01h-.186zM6.865 8h1.222L7.74 9.691H8.84q.902.018 1.346.372.452.354.266 1.346l-.594 2.948h-1.24l.568-2.815q.088-.444-.054-.629-.142-.186-.61-.186l-.983-.009-.726 3.64H5.59zM11.762 9.69h2.373q1.045.01 1.514.603t.31 1.62q-.062.47-.274.921a2.7 2.7 0 0 1-.567.815q-.443.46-.947.584a4.4 4.4 0 0 1-1.045.124h-1.063l-.336 1.682h-1.23zm1.036 1.01-.531 2.657q.052.008.106.008h.124q.85.009 1.417-.168.566-.186.761-1.293.16-.93-.319-1.07-.469-.143-1.177-.134-.106.01-.204.01h-.186z" fill="#999DF7"></path></g></g><defs><clipPath id="a"><path fill="#fff" d="M0 0H16V16H0z"></path></clipPath><clipPath id="b"><path fill="#fff" d="M0 0H16V16H0z"></path></clipPath></defs>
</svg>
