<svg width="16" height="16" viewBox="0 0 16 16" fill="none"><path d="M3 2a2 2 0 0 0-2 2v8a2 2 0 0 0 2 2h6.879L11 12.879v-.964A1.5 1.5 0 0 1 11.5 9H15V4a2 2 0 0 0-2-2z" fill="#43454A"/><path fill-rule="evenodd" clip-rule="evenodd" d="M11 10.5a.5.5 0 0 1 .5-.5h4a.5.5 0 0 1 .5.5v4a.5.5 0 0 1-1 0v-2.793l-4.146 4.147a.5.5 0 0 1-.708-.708L14.293 11H11.5a.5.5 0 0 1-.5-.5" fill="#548AF7"/><path fill-rule="evenodd" clip-rule="evenodd" d="M1 4a2 2 0 0 1 2-2h10a2 2 0 0 1 2 2v5h-1V6h-3v3.085a1.5 1.5 0 0 0-1 1.415V6H6v7h4v-2.5a1.5 1.5 0 0 0 1 1.415v.964L9.879 14H3a2 2 0 0 1-2-2zm5-1h4v2H6zM5 3H3a1 1 0 0 0-1 1v1h3zM2 6v6a1 1 0 0 0 1 1h2V6zm12-1V4a1 1 0 0 0-1-1h-2v2z" fill="#CED0D6"/></svg>