<svg viewBox="0 0 16 16" fill="none" xmlns="http://www.w3.org/2000/svg">
  <path d="M0 10a1 1 0 0 1 1-1h14a1 1 0 0 1 1 1v5a1 1 0 0 1-1 1H1a1 1 0 0 1-1-1z" fill="#6C707E"></path><path d="M2.5 10.5v4H4A1.5 1.5 0 0 0 5.5 13v-1A1.5 1.5 0 0 0 4 10.5zM7.5 10.5v4H9a1.5 1.5 0 0 0 1.5-1.5v-1A1.5 1.5 0 0 0 9 10.5zM12.5 10v4.5H15" stroke="#F7F8FA"></path><path fill-rule="evenodd" clip-rule="evenodd" d="M4.732 3H10.5A1.5 1.5 0 0 1 12 4.5V8h1V4.5A2.5 2.5 0 0 0 10.5 2H3a2 2 0 0 0-2 2v.5a.5.5 0 0 0 .5.5H4v3h1V4a2 2 0 0 0-.268-1M3 3a1 1 0 0 0-1 1h2a1 1 0 0 0-1-1" fill="#3574F0"></path><path d="M12 8V4.5A1.5 1.5 0 0 0 10.5 3H4.732c.17.294.268.636.268 1v4zM2 4a1 1 0 0 1 2 0z" fill="#EDF3FF"></path>
</svg>
