<svg width="20" height="20" viewBox="0 0 20 20" fill="none"><rect x="3" y="11" width="6" height="1.5" rx=".75" fill="#CED0D6"/><path fill-rule="evenodd" clip-rule="evenodd" d="M15.039 9.04a.65.65 0 0 1 .92.92l-1.141 1.14h4.43a.65.65 0 1 1 0 1.3h-4.43l1.14 1.14a.65.65 0 0 1-.92.92l-2.25-2.25-.459-.46.46-.46zM11.17 13.99a.65.65 0 0 0-.92.92l1.141 1.14h-4.43a.65.65 0 0 0 0 1.3h4.43l-1.14 1.14a.65.65 0 0 0 .92.92l2.25-2.25.459-.46-.46-.46z" fill="#CED0D6"/><rect x="3" y="7" width="9" height="1.5" rx=".75" fill="#CED0D6"/><rect x="3" y="3" width="14" height="1.5" rx=".75" fill="#CED0D6"/></svg>