<svg viewBox="0 0 16 16" fill="none" xmlns="http://www.w3.org/2000/svg">
  <path d="M10 10h4.645l-1.97 1.97a.75.75 0 0 0 0 1.06l1.97 1.97H10z" fill="#2F2936"></path><path fill-rule="evenodd" clip-rule="evenodd" d="M9 10a1 1 0 0 1 1-1h5.248a.75.75 0 0 1 .53 1.28l-2.22 2.22 2.22 2.22a.75.75 0 0 1-.53 1.28H10a1 1 0 0 1-1-1zm5.645 0H10v5h4.645l-1.97-1.97a.75.75 0 0 1 0-1.06z" fill="#A571E6"></path><path d="M8 15a7 7 0 1 1 7-7h-5a2 2 0 0 0-2 2z" fill="#45322B"></path><path d="M8 14a6 6 0 1 1 6-6h1a7 7 0 1 0-7 7z" fill="#C77D55"></path><path d="M11 8a3 3 0 1 0-3 3v-1a2 2 0 1 1 2-2z" fill="#C77D55"></path>
</svg>
