<svg viewBox="0 0 16 16" fill="none" xmlns="http://www.w3.org/2000/svg">
  <path d="M14.464 10.692a7 7 0 1 0-7.069 4.283L12 5.763z" fill="#FFF7F7"></path><path d="m11.757 6.249-.756 1.512v-.32c0-.82-.425-1.329-1.177-1.329-.804 0-1.33.573-1.33 1.482v3.164h-.988V7.443c0-.82-.431-1.33-1.177-1.33-.815 0-1.33.573-1.33 1.482v3.164H4V5.377h.962v.877c.32-.64.887-1.003 1.645-1.003.799 0 1.397.397 1.689 1.07.34-.668.958-1.07 1.77-1.07.77 0 1.375.37 1.691.999" fill="#DB3B4B"></path><path d="M13.83 9.424Q13.998 8.737 14 8a6 6 0 1 0-6.117 5.999l-.488.975a7 7 0 1 1 7.069-4.283z" fill="#DB3B4B"></path><path d="m12 8 .416 4.08-1.777 1.578-.006-.003L8 16z" fill="url(#a)"></path><path fill-rule="evenodd" clip-rule="evenodd" d="M10.633 13.655 16 16H8z" fill="url(#b)"></path><path fill-rule="evenodd" clip-rule="evenodd" d="m12 8 4 8-3.333-1.46z" fill="url(#c)"></path><defs><linearGradient id="a" x1="9.906" y1="4.808" x2="3.6" y2="8.515" gradientUnits="userSpaceOnUse"><stop stop-color="#7777E9"></stop><stop offset="1" stop-color="#01009A"></stop></linearGradient><linearGradient id="b" x1="17.6" y1="15.019" x2="15.354" y2="11.355" gradientUnits="userSpaceOnUse"><stop stop-color="#01B202"></stop><stop offset="1" stop-color="#0FE90F"></stop></linearGradient><linearGradient id="c" x1="10.055" y1="12.22" x2="16.35" y2="15.281" gradientUnits="userSpaceOnUse"><stop stop-color="#B83535"></stop><stop offset="1" stop-color="#FD5B5A"></stop></linearGradient></defs>
</svg>
