<svg viewBox="0 0 16 16" fill="none" xmlns="http://www.w3.org/2000/svg">
  <g clip-path="url(#a)"><path d="M13.081 2.853C11.781.993 9.213.44 7.357 1.623l-3.26 2.078a3.74 3.74 0 0 0-1.694 2.505q-.063.346-.063.7c.002.637.158 1.265.456 1.829a3.8 3.8 0 0 0-.56 1.398 3.99 3.99 0 0 0 .684 3.015c1.3 1.86 3.874 2.411 5.724 1.229l3.257-2.078a3.73 3.73 0 0 0 1.69-2.507q.063-.346.062-.698c0-.637-.155-1.264-.45-1.828a3.76 3.76 0 0 0 .621-2.095c0-.83-.26-1.64-.743-2.316z" fill="#DB5C5C"></path><path d="M7.038 13.323a2.586 2.586 0 0 1-2.779-1.031 2.4 2.4 0 0 1-.41-1.813q.03-.154.08-.304l.06-.187.167.127c.386.283.818.499 1.276.638l.12.036-.01.12v.063c0 .152.046.299.134.422a.78.78 0 0 0 .836.317.7.7 0 0 0 .2-.088L9.97 9.535a.68.68 0 0 0 .318-.58.78.78 0 0 0-.975-.73.7.7 0 0 0-.2.087l-1.242.793a2.4 2.4 0 0 1-1.313.374A2.59 2.59 0 0 1 4.43 8.366a2.4 2.4 0 0 1-.41-1.813 2.26 2.26 0 0 1 1.016-1.507l3.26-2.077a2.4 2.4 0 0 1 1.314-.374 2.59 2.59 0 0 1 2.134 1.112 2.4 2.4 0 0 1 .326 2.12l-.062.186-.166-.122a4.2 4.2 0 0 0-1.276-.638l-.12-.038.01-.12v-.063c0-.151-.046-.3-.134-.423a.78.78 0 0 0-.64-.335.8.8 0 0 0-.194.03.7.7 0 0 0-.2.088L6.028 6.469a.68.68 0 0 0-.307.455 1 1 0 0 0-.014.121c0 .151.046.298.134.42a.78.78 0 0 0 .836.31.7.7 0 0 0 .2-.087l1.245-.798a2.4 2.4 0 0 1 1.314-.373 2.59 2.59 0 0 1 2.128 1.113 2.4 2.4 0 0 1 .409 1.817 2.25 2.25 0 0 1-1.017 1.507l-3.254 2.077a2.4 2.4 0 0 1-.664.292" fill="#fff"></path></g><defs><clipPath id="a"><path fill="#fff" transform="translate(2.175 1)" d="M0 0H11.65V14H0z"></path></clipPath></defs>
</svg>
