<svg viewBox="0 0 16 16" fill="none" xmlns="http://www.w3.org/2000/svg">
  <path fill-rule="evenodd" clip-rule="evenodd" d="M9 15.076A7.03 7.03 0 0 1 12.528 9 7.03 7.03 0 0 1 16 15.072v.018c-2.066 1.194-4.73 1.237-7-.014m5-3.18a3.01 3.01 0 0 1-1.512 2.604 3.01 3.01 0 0 1-1.489-2.602v-.008c.886-.512 2.028-.53 3 .005" fill="#fff"></path><path d="M14.824 9.565A7 7 0 1 0 8 15a8.03 8.03 0 0 1 4.032-6.868l.501-.286.498.29a8 8 0 0 1 1.793 1.429" fill="#2F2936"></path><path d="M14.824 9.565A7 7 0 1 0 8 15a8 8 0 0 1 .076-1H8a6 6 0 1 1 5.952-5.236q.468.37.872.801" fill="#A571E6"></path><path fill-rule="evenodd" clip-rule="evenodd" d="M11.353 8.567a4 4 0 0 0 .039-.568q0-.995-.449-1.788A3.2 3.2 0 0 0 9.727 4.97a3.33 3.33 0 0 0-1.722-.455q-.95 0-1.729.455-.78.449-1.229 1.248a3.6 3.6 0 0 0-.442 1.78q0 .99.442 1.788.45.794 1.222 1.248.78.45 1.73.449.482 0 .92-.115a8 8 0 0 1 2.434-2.801M8.01 10.534q.651 0 1.17-.319.52-.318.82-.89.299-.579.299-1.326T10 6.673a2.195 2.195 0 0 0-1.996-1.215q-.649 0-1.176.318a2.25 2.25 0 0 0-.832.897q-.299.577-.299 1.326 0 .747.3 1.326.305.572.831.89.534.32 1.183.319" fill="#A571E6"></path>
</svg>
