<svg width="20" height="20" viewBox="0 0 20 20" fill="none"><path d="M18.902 4.653c-.47-.98-2.016-2.137-3.748-.623m3.748.623c.599 1.142-.43 3.27-2.502 3.27-2.733 0-5.602-4.58-11.92-1.327a.96.96 0 0 0-.46 1.153l.223.692m14.659-3.788S20.63 8.3 15.884 11.85c-1.345 1.007-1.833 2.99-1.878 4.749a.1.1 0 0 1-.1.098h-1.558a.216.216 0 0 1-.206-.17 1.92 1.92 0 0 0-1.871-1.463c-.896 0-1.662.615-1.87 1.467a.216.216 0 0 1-.206.168H6.699a.216.216 0 0 1-.205-.168 1.926 1.926 0 0 0-3.74 0 .215.215 0 0 1-.206.169H.926a.1.1 0 0 1-.099-.09c-.388-3.696.677-6.434 3.416-8.169m0 0 .752 2.475c.28.823 1.404.96 2.09.574a12 12 0 0 0 2.359-1.656" stroke="#6C707E" stroke-width="1.5" stroke-linecap="round"/><path fill-rule="evenodd" clip-rule="evenodd" d="M11.557 9.513c-.095-.061-.152-.172-.12-.28a1.034 1.034 0 1 1 1.668 1.07c-.086.075-.21.07-.306.008z" fill="#6C707E"/></svg>