<svg viewBox="0 0 16 16" fill="none" xmlns="http://www.w3.org/2000/svg">
  <path d="m13.275 12.458.148.752.764.053c.461.031.813.408.813.862a.876.876 0 0 1-.875.875H9.25a1.248 1.248 0 0 1-.138-2.49l.533-.057.248-.476a1.811 1.811 0 0 1 3.382.481" fill="#43454A"></path><path fill-rule="evenodd" clip-rule="evenodd" d="m13.423 13.21-.148-.752a1.809 1.809 0 0 0-3.382-.481l-.248.476-.533.056A1.248 1.248 0 0 0 9.25 15h4.875a.876.876 0 0 0 .875-.875.866.866 0 0 0-.813-.862zM11.5 10c1.365 0 2.501.971 2.756 2.265.975.067 1.744.87 1.744 1.86C16 15.16 15.16 16 14.125 16H9.25a2.248 2.248 0 0 1-.244-4.485A2.81 2.81 0 0 1 11.5 10" fill="#CED0D6"></path><path d="M6.556 5.927c-.703.038-1.515.101-2.363.421-1.94.733-2.94 2.27-3.151 3.777-.196 1.399.288 3.024 1.643 3.711l.038.091.039.095c.04.101.14.345.323.55.11.123.27.258.494.344.228.088.46.1.669.066a8 8 0 0 1 .703-.079l.047-.003h.008c.364-.016.764-.01 1.204.001a3.2 3.2 0 0 1-.206-.988c-.37-.008-.722-.01-1.05.005 0 0-.433.025-.869.095 0 0 .165-.069.375-.14.62-.211 1.123-.36 1.56-.491.043-.378.151-.737.312-1.065-1.384.394-3.046.72-3.046.72l-.103-.055c-1.738-.83-1.786-4.525 1.369-5.716.777-.294 1.535-.332 2.316-.37.608-.031 1.23-.062 1.886-.216 1.595-.372 3.441-1.55 4.192-3.082.596 1.735 1.277 4.163.981 6.275.326.27.606.593.828.957.254-.971.285-1.99.204-2.952-.142-1.682-.636-3.345-1.066-4.594L13.11 1l-1.064 2.172C11.458 4.369 9.908 5.4 8.523 5.724h-.001c-.56.132-1.087.158-1.701.19h-.002z" fill="#57965C"></path><path d="M12.945 3.598c.596 1.735 1.277 4.163.982 6.275A3.8 3.8 0 0 0 10 9.307a3.83 3.83 0 0 0-1.616 1.311 3.25 3.25 0 0 0-2.051 1.699c-1.286.365-2.81.672-3.022.714l-.025.005-.104-.054c-1.738-.83-1.786-4.525 1.37-5.716.777-.294 1.535-.332 2.315-.37.609-.031 1.231-.062 1.886-.216 1.595-.372 3.442-1.55 4.192-3.082M4.953 13.918c.328-.014.681-.013 1.051-.005a3.3 3.3 0 0 1 .017-.531c-.438.13-.94.28-1.561.49a7 7 0 0 0-.375.141c.435-.07.868-.095.868-.095" fill="#253627"></path>
</svg>
