<svg viewBox="0 0 16 16" fill="none" xmlns="http://www.w3.org/2000/svg">
  <path fill-rule="evenodd" clip-rule="evenodd" d="M12.5 9a.5.5 0 0 1 .5.5V12h2.5a.5.5 0 0 1 0 1H13v2.5a.5.5 0 0 1-1 0V13H9.5a.5.5 0 0 1 0-1H12V9.5a.5.5 0 0 1 .5-.5" fill="#3574F0"></path><path fill-rule="evenodd" clip-rule="evenodd" d="M12.5 9a.5.5 0 0 1 .5.5V12h2.5a.5.5 0 0 1 0 1H13v2.5a.5.5 0 0 1-1 0V13H9.5a.5.5 0 0 1 0-1H12V9.5a.5.5 0 0 1 .5-.5" fill="#6C707E"></path><path d="M15 8h-2.5A1.5 1.5 0 0 0 11 9.5V11H9.5A1.5 1.5 0 0 0 8 12.5V15a7 7 0 1 1 7-7" fill="#EDF3FF"></path><path d="M8 14a6 6 0 1 1 6-6h1a7 7 0 1 0-7 7z" fill="#3574F0"></path>
</svg>
