<svg viewBox="0 0 16 16" fill="none" xmlns="http://www.w3.org/2000/svg">
  <circle cx="8" cy="8" r="7" fill="#FFF7F7"></circle><mask id="a" fill="#fff"><path fill-rule="evenodd" clip-rule="evenodd" d="m14.913 6.905-.987.155a5.97 5.97 0 0 0-1.684-3.303 5.97 5.97 0 0 0-3.303-1.683l.155-.988A6.97 6.97 0 0 1 12.95 3.05a6.97 6.97 0 0 1 1.964 3.855m-8.01-5.82.157.989c-1.21.19-2.37.75-3.304 1.683A5.97 5.97 0 0 0 2.073 7.06l-.988-.155A6.97 6.97 0 0 1 3.049 3.05a6.97 6.97 0 0 1 3.855-1.964m-5.818 8.01a6.97 6.97 0 0 0 1.964 3.855 6.97 6.97 0 0 0 3.855 1.964l.156-.987a5.97 5.97 0 0 1-3.304-1.684A5.97 5.97 0 0 1 2.073 8.94zm8.01 5.82-.156-.988a5.97 5.97 0 0 0 3.303-1.684 5.97 5.97 0 0 0 1.684-3.303l.987.155a6.97 6.97 0 0 1-1.964 3.855 6.97 6.97 0 0 1-3.855 1.964"></path></mask><path fill-rule="evenodd" clip-rule="evenodd" d="m14.913 6.905-.987.155a5.97 5.97 0 0 0-1.684-3.303 5.97 5.97 0 0 0-3.303-1.683l.155-.988A6.97 6.97 0 0 1 12.95 3.05a6.97 6.97 0 0 1 1.964 3.855m-8.01-5.82.157.989c-1.21.19-2.37.75-3.304 1.683A5.97 5.97 0 0 0 2.073 7.06l-.988-.155A6.97 6.97 0 0 1 3.049 3.05a6.97 6.97 0 0 1 3.855-1.964m-5.818 8.01a6.97 6.97 0 0 0 1.964 3.855 6.97 6.97 0 0 0 3.855 1.964l.156-.987a5.97 5.97 0 0 1-3.304-1.684A5.97 5.97 0 0 1 2.073 8.94zm8.01 5.82-.156-.988a5.97 5.97 0 0 0 3.303-1.684 5.97 5.97 0 0 0 1.684-3.303l.987.155a6.97 6.97 0 0 1-1.964 3.855 6.97 6.97 0 0 1-3.855 1.964" fill="#FFF7F7"></path><path d="m14.913 6.905.156.988.988-.156-.156-.988zm-.987.155-.988.156.155.988.988-.156zM8.939 2.074l-.988-.156-.156.988.988.155zm.155-.988L9.25.098l-.988-.156-.156.988zm-2.19 0L7.892.93l-.156-.988-.988.156zm.156.988.155.987.988-.155-.156-.988zM2.073 7.06l-.156.988.988.156.155-.988zm-.988-.155-.988-.156-.156.988.988.156zm0 2.19-.156-.988-.988.156.156.988zm5.819 5.82-.156.987.988.156.156-.988zm.156-.988.987.155.156-.988-.988-.155zM2.073 8.94l.987-.156-.155-.988-.988.156zm7.021 5.974-.988.156.156.988.988-.156zm-.155-.987-.156-.988-.988.155.156.988zm4.987-4.987.155-.988-.988-.156-.155.988zm.987.155.988.156.156-.988-.988-.156zm-3.378-4.63a4.97 4.97 0 0 1 1.403 2.751l1.975-.311A6.97 6.97 0 0 0 12.95 3.05zM8.783 3.06a4.97 4.97 0 0 1 2.752 1.403l1.414-1.414a6.97 6.97 0 0 0-3.855-1.964zm.156-.987c1.209.19 2.37.75 3.303 1.683l1.414-1.414A7.97 7.97 0 0 0 9.25.098zm3.303 1.683a5.97 5.97 0 0 1 1.684 3.303l1.975-.31a7.97 7.97 0 0 0-2.245-4.407zm-7.778.707a4.97 4.97 0 0 1 2.751-1.403l-.311-1.975A6.97 6.97 0 0 0 3.049 3.05zM3.06 7.216a4.97 4.97 0 0 1 1.404-2.752L3.049 3.05a6.97 6.97 0 0 0-1.964 3.855zm-.987-.156c.19-1.209.75-2.37 1.683-3.303L2.342 2.343A7.97 7.97 0 0 0 .097 6.75zm1.683-3.303A5.97 5.97 0 0 1 7.06 2.074L6.748.098a7.97 7.97 0 0 0-4.406 2.245zm0 8.486A5.97 5.97 0 0 1 2.073 8.94l-1.976.31a7.97 7.97 0 0 0 2.245 4.407zm3.304 1.684a5.97 5.97 0 0 1-3.304-1.684l-1.414 1.414a7.97 7.97 0 0 0 4.406 2.245zm.155-.988a4.97 4.97 0 0 1-2.751-1.403L3.049 12.95a6.97 6.97 0 0 0 3.855 1.964zm-2.751-1.403A4.97 4.97 0 0 1 3.06 8.784l-1.975.311a6.97 6.97 0 0 0 1.964 3.855zm7.07 0a4.97 4.97 0 0 1-2.751 1.403l.311 1.975a6.97 6.97 0 0 0 3.855-1.964zm1.404-2.752a4.97 4.97 0 0 1-1.403 2.752l1.414 1.414a6.97 6.97 0 0 0 1.964-3.855zm.988.156a5.97 5.97 0 0 1-1.684 3.303l1.414 1.414a7.97 7.97 0 0 0 2.245-4.406zm-1.684 3.303a5.97 5.97 0 0 1-3.303 1.684l.31 1.975a7.97 7.97 0 0 0 4.407-2.245zm1.84-4.195.987-.155-.311-1.976-.988.156zM8.105.93l-.155.988 1.975.311.156-.988zm-.059.988L7.892.93l-1.976.311.156.988zM.93 7.893l.988.155.311-1.975-.988-.156zm6.963 7.177.155-.988-1.975-.311-.156.988zM1.917 7.952l-.988.155.311 1.976.988-.156zm6.034 6.13.155.988 1.976-.311-.156-.988zm7.118-5.975-.988-.155-.311 1.975.988.156z" fill="#DB3B4B" mask="url(#a)"></path><path d="M5.636 4h.822c.976 0 1.464.577 1.774 1.363L10.845 12h-1.13L8.06 7.531 6.273 12H5.154l2.4-5.792-.37-.768c-.137-.297-.41-.523-.774-.523h-.774z" fill="#DB3B4B"></path><path fill-rule="evenodd" clip-rule="evenodd" d="m14.913 6.905-.987.155a5.97 5.97 0 0 0-1.684-3.303 5.97 5.97 0 0 0-3.303-1.683l.155-.988A6.97 6.97 0 0 1 12.95 3.05a6.97 6.97 0 0 1 1.964 3.855m-8.01-5.82.157.989c-1.21.19-2.37.75-3.304 1.683A5.97 5.97 0 0 0 2.073 7.06l-.988-.155A6.97 6.97 0 0 1 3.049 3.05a6.97 6.97 0 0 1 3.855-1.964m-5.818 8.01a6.97 6.97 0 0 0 1.964 3.855 6.97 6.97 0 0 0 3.855 1.964l.156-.987a5.97 5.97 0 0 1-3.304-1.684A5.97 5.97 0 0 1 2.073 8.94zm8.01 5.82-.156-.988a5.97 5.97 0 0 0 3.303-1.684 5.97 5.97 0 0 0 1.684-3.303l.987.155a6.97 6.97 0 0 1-1.964 3.855 6.97 6.97 0 0 1-3.855 1.964" fill="#DB3B4B"></path>
</svg>
