<svg viewBox="0 0 16 16" fill="none" xmlns="http://www.w3.org/2000/svg">
  <circle cx="8" cy="8" r="7" fill="#402929"></circle><path d="M5.636 4h.822c.976 0 1.464.577 1.774 1.363L10.845 12h-1.13L8.06 7.531 6.273 12H5.154l2.4-5.792-.37-.768c-.137-.297-.41-.523-.774-.523h-.774z" fill="#DB5C5C"></path><path fill-rule="evenodd" clip-rule="evenodd" d="m14.913 6.905-.987.155a5.97 5.97 0 0 0-1.684-3.303 5.97 5.97 0 0 0-3.303-1.683l.155-.988A6.97 6.97 0 0 1 12.95 3.05a6.97 6.97 0 0 1 1.964 3.855m-8.01-5.82.157.989c-1.21.19-2.37.75-3.304 1.683A5.97 5.97 0 0 0 2.073 7.06l-.988-.155A6.97 6.97 0 0 1 3.049 3.05a6.97 6.97 0 0 1 3.855-1.964m-5.818 8.01a6.97 6.97 0 0 0 1.964 3.855 6.97 6.97 0 0 0 3.855 1.964l.156-.987a5.97 5.97 0 0 1-3.304-1.684A5.97 5.97 0 0 1 2.073 8.94zm8.01 5.82-.156-.988a5.97 5.97 0 0 0 3.303-1.684 5.97 5.97 0 0 0 1.684-3.303l.987.155a6.97 6.97 0 0 1-1.964 3.855 6.97 6.97 0 0 1-3.855 1.964" fill="#DB5C5C"></path>
</svg>
