<svg viewBox="0 0 16 16" fill="none" xmlns="http://www.w3.org/2000/svg">
  <circle cx="12" cy="12" r="2" fill="#EBECF0"></circle><path fill-rule="evenodd" clip-rule="evenodd" d="M13.738 14.445a3 3 0 1 1 .707-.707l1.409 1.408a.5.5 0 0 1-.708.708zM14 12a2 2 0 1 1-4 0 2 2 0 0 1 4 0" fill="#6C707E"></path><path d="M14.992 9.345c.108-2.014-.862-4.093-2.57-5.802C9.555.678 5.601-.034 2.768 2.8s-2.02 6.936.72 9.675c1.653 1.654 3.786 2.634 5.854 2.515a4 4 0 1 1 5.649-5.645" fill="#FFF4EB"></path><path d="M14.992 9.345c.108-2.014-.862-4.093-2.57-5.802C9.555.678 5.601-.034 2.768 2.8s-2.02 6.936.72 9.675c1.653 1.654 3.786 2.634 5.854 2.515a4 4 0 0 1-.822-1.015l-.127-.014c-1.455-.172-2.955-.953-4.196-2.194-1.236-1.235-2-2.743-2.163-4.205-.144-1.29.174-2.574 1.104-3.684l5.687 5.687q.307-.4.705-.712L3.846 3.169c1.115-.943 2.372-1.273 3.63-1.138 1.429.153 2.93.915 4.237 2.22 1.312 1.313 2.09 2.807 2.253 4.228l.004.039c.385.218.73.498 1.022.827" fill="#E66D17"></path>
</svg>
