<svg viewBox="0 0 16 16" fill="none" xmlns="http://www.w3.org/2000/svg">
  <path d="M10 10h4.645l-1.97 1.97a.75.75 0 0 0 0 1.06l1.97 1.97H10z" fill="#FAF5FF"></path><path fill-rule="evenodd" clip-rule="evenodd" d="M9 10a1 1 0 0 1 1-1h5.248a.75.75 0 0 1 .53 1.28l-2.22 2.22 2.22 2.22a.75.75 0 0 1-.53 1.28H10a1 1 0 0 1-1-1zm5.645 0H10v5h4.645l-1.97-1.97a.75.75 0 0 1 0-1.06z" fill="#834DF0"></path><path d="M15 8a7 7 0 1 0-7 7v-5a2 2 0 0 1 2-2z" fill="#EDF3FF"></path><path fill-rule="evenodd" clip-rule="evenodd" d="M8 10.602C6.716 10.533 5.803 9.468 5.803 8c0-1.518.977-2.606 2.33-2.606.987 0 1.77.532 2.089 1.267h.986C10.884 5.39 9.613 4.5 8.133 4.5c-1.914 0-3.34 1.494-3.34 3.5 0 1.96 1.36 3.43 3.207 3.498zM14.915 6.905l-.988.155a5.97 5.97 0 0 0-1.684-3.303A5.97 5.97 0 0 0 8.94 2.074l.155-.988A6.97 6.97 0 0 1 12.95 3.05a6.97 6.97 0 0 1 1.965 3.855m-8.01-5.82.156.989c-1.21.19-2.37.75-3.303 1.683A5.97 5.97 0 0 0 2.074 7.06l-.988-.155A6.97 6.97 0 0 1 3.05 3.05a6.97 6.97 0 0 1 3.855-1.964m-5.82 8.01A6.97 6.97 0 0 0 3.05 12.95a6.97 6.97 0 0 0 3.855 1.964l.156-.987a5.97 5.97 0 0 1-3.303-1.684A5.97 5.97 0 0 1 2.074 8.94z" fill="#3574F0"></path>
</svg>
