<svg xmlns="http://www.w3.org/2000/svg" style="display:none">
  <symbol viewBox="0 0 14 14" fill="none" id="breakpoint_light">
    <path fill-rule="evenodd" clip-rule="evenodd" d="M7 14A7 7 0 1 0 7 0a7 7 0 0 0 0 14" fill="#E55765"></path>
  </symbol>
  <symbol viewBox="0 0 14 14" fill="none" id="breakpoint_dark">
    <path fill-rule="evenodd" clip-rule="evenodd" d="M7 14A7 7 0 1 0 7 0a7 7 0 0 0 0 14" fill="#DB5C5C"></path>
  </symbol>
  <symbol viewBox="0 0 14 14" fill="none" id="breakpoint-dependent_light">
    <path fill-rule="evenodd" clip-rule="evenodd" d="M2.5 5a2.5 2.5 0 1 0 0-5 2.5 2.5 0 0 0 0 5" fill="#6C707E"></path><path d="M5.173.24c.332.393.58.86.714 1.373Q6.427 1.5 7 1.5a5.5 5.5 0 1 1-5.387 4.387A3.5 3.5 0 0 1 .24 5.173 7 7 0 1 0 5.174.24" fill="#E55765"></path>
  </symbol>
  <symbol viewBox="0 0 14 14" fill="none" id="breakpoint-dependent_dark">
    <path fill-rule="evenodd" clip-rule="evenodd" d="M2.5 5a2.5 2.5 0 1 0 0-5 2.5 2.5 0 0 0 0 5" fill="#CED0D6"></path><path d="M5.173.24c.332.393.58.86.714 1.373Q6.427 1.5 7 1.5a5.5 5.5 0 1 1-5.387 4.387A3.5 3.5 0 0 1 .24 5.173 7 7 0 1 0 5.174.24" fill="#DB5C5C"></path>
  </symbol>
  <symbol viewBox="0 0 14 14" fill="none" id="breakpoint-disabled_light">
    <path d="M7 .75a6.25 6.25 0 1 1 0 12.5A6.25 6.25 0 0 1 7 .75Z" stroke="#E55765" stroke-width="1.5"></path>
  </symbol>
  <symbol viewBox="0 0 14 14" fill="none" id="breakpoint-disabled_dark">
    <path d="M7 .75a6.25 6.25 0 1 1 0 12.5A6.25 6.25 0 0 1 7 .75Z" stroke="#DB5C5C" stroke-width="1.5"></path>
  </symbol>
  <symbol viewBox="0 0 14 14" fill="none" id="breakpoint-exception_light">
    <path fill-rule="evenodd" clip-rule="evenodd" d="M8.626.514c.066-.45-.523-.7-.821-.348L1.106 8.062c-.249.293-.032.734.36.734H6.07l-.695 4.69c-.066.45.523.7.821.348l6.699-7.896c.248-.293.032-.734-.36-.734H7.93z" fill="#E55765"></path>
  </symbol>
  <symbol viewBox="0 0 14 14" fill="none" id="breakpoint-exception_dark">
    <path fill-rule="evenodd" clip-rule="evenodd" d="M8.626.514c.066-.45-.523-.7-.821-.348L1.106 8.062c-.249.293-.032.734.36.734H6.07l-.695 4.69c-.066.45.523.7.821.348l6.699-7.896c.248-.293.032-.734-.36-.734H7.93z" fill="#DB5C5C"></path>
  </symbol>
  <symbol viewBox="0 0 14 14" fill="none" id="breakpoint-exception-disabled_light">
    <path fill-rule="evenodd" clip-rule="evenodd" d="M7.016 7.979c.237.275.343.64.29 1l-.29 1.955 3.8-4.48H7.931a1.25 1.25 0 0 1-1.237-1.433l.29-1.955-3.8 4.48h2.885c.364 0 .71.158.947.433m-5.471-.433L7.33.725 7.402.64l.232-.273.17-.2c.299-.353.888-.103.822.347l-.046.31-.05.335-.015.102-.399 2.693-.185 1.25h4.603c.392 0 .608.44.36.734l-.36.424-.075.088-.004.004-5.786 6.821-.071.085-.232.273-.17.2c-.299.352-.888.103-.822-.347l.046-.31.05-.335.015-.102.399-2.693.185-1.25H1.466c-.392 0-.609-.44-.36-.734l.36-.424.075-.088z" fill="#E55765"></path>
  </symbol>
  <symbol viewBox="0 0 14 14" fill="none" id="breakpoint-exception-disabled_dark">
    <path fill-rule="evenodd" clip-rule="evenodd" d="M7.016 7.979c.237.275.343.64.29 1l-.29 1.955 3.8-4.48H7.931a1.25 1.25 0 0 1-1.237-1.433l.29-1.955-3.8 4.48h2.885c.364 0 .71.158.947.433m-5.471-.433L7.33.725 7.402.64l.232-.273.17-.2c.299-.353.888-.103.822.347l-.046.31-.05.335-.015.102-.399 2.693-.185 1.25h4.603c.392 0 .608.44.36.734l-.36.424-.075.088-.004.004-5.786 6.821-.071.085-.232.273-.17.2c-.299.352-.888.103-.822-.347l.046-.31.05-.335.015-.102.399-2.693.185-1.25H1.466c-.392 0-.609-.44-.36-.734l.36-.424.075-.088z" fill="#DB5C5C"></path>
  </symbol>
  <symbol viewBox="0 0 14 14" fill="none" id="breakpoint-field_light">
    <path d="M7 9a2 2 0 1 0 0-4 2 2 0 0 0 0 4" fill="#E55765"></path><path fill-rule="evenodd" clip-rule="evenodd" d="M7 2C3.64 2 .75 4.328 0 7c.75 2.672 3.64 5 7 5s6.25-2.328 7-5c-.75-2.672-3.64-5-7-5m3.5 5a3.5 3.5 0 1 1-7 0 3.5 3.5 0 0 1 7 0" fill="#E55765"></path>
  </symbol>
  <symbol viewBox="0 0 14 14" fill="none" id="breakpoint-field_dark">
    <path d="M7 9a2 2 0 1 0 0-4 2 2 0 0 0 0 4" fill="#DB5C5C"></path><path fill-rule="evenodd" clip-rule="evenodd" d="M7 2C3.64 2 .75 4.328 0 7c.75 2.672 3.64 5 7 5s6.25-2.328 7-5c-.75-2.672-3.64-5-7-5m3.5 5a3.5 3.5 0 1 1-7 0 3.5 3.5 0 0 1 7 0" fill="#DB5C5C"></path>
  </symbol>
  <symbol viewBox="0 0 14 14" fill="none" id="breakpoint-field-dependent_light">
    <path fill-rule="evenodd" clip-rule="evenodd" d="M2.5 5a2.5 2.5 0 1 0 0-5 2.5 2.5 0 0 0 0 5" fill="#6C707E"></path><path d="M3.718 5.782C3.338 5.923 2.928 6 2.5 6c-.67 0-1.295-.188-1.827-.514A6 6 0 0 0 0 7c.75 2.672 3.64 5 7 5s6.25-2.328 7-5c-.75-2.672-3.64-5-7-5q-.522 0-1.026.073a3.54 3.54 0 0 1-.192 1.645 3.5 3.5 0 1 1-2.065 2.065" fill="#E55765"></path>
  </symbol>
  <symbol viewBox="0 0 14 14" fill="none" id="breakpoint-field-dependent_dark">
    <path fill-rule="evenodd" clip-rule="evenodd" d="M2.5 5a2.5 2.5 0 1 0 0-5 2.5 2.5 0 0 0 0 5" fill="#CED0D6"></path><path d="M3.718 5.782C3.338 5.923 2.928 6 2.5 6c-.67 0-1.295-.188-1.827-.514A6 6 0 0 0 0 7c.75 2.672 3.64 5 7 5s6.25-2.328 7-5c-.75-2.672-3.64-5-7-5q-.522 0-1.026.073a3.54 3.54 0 0 1-.192 1.645 3.5 3.5 0 1 1-2.065 2.065" fill="#DB5C5C"></path>
  </symbol>
  <symbol viewBox="0 0 14 14" fill="none" id="breakpoint-field-disabled_light">
    <path fill-rule="evenodd" clip-rule="evenodd" d="M0 7c.75-2.672 3.64-5 7-5s6.25 2.328 7 5c-.75 2.672-3.64 5-7 5S.75 9.672 0 7m7 3.5a3.5 3.5 0 1 0 0-7 3.5 3.5 0 0 0 0 7" fill="#E55765"></path>
  </symbol>
  <symbol viewBox="0 0 14 14" fill="none" id="breakpoint-field-disabled_dark">
    <path fill-rule="evenodd" clip-rule="evenodd" d="M0 7c.75-2.672 3.64-5 7-5s6.25 2.328 7 5c-.75 2.672-3.64 5-7 5S.75 9.672 0 7m7 3.5a3.5 3.5 0 1 0 0-7 3.5 3.5 0 0 0 0 7" fill="#DB5C5C"></path>
  </symbol>
  <symbol viewBox="0 0 14 14" fill="none" id="breakpoint-field-muted_light">
    <path d="M7 9a2 2 0 1 0 0-4 2 2 0 0 0 0 4" fill="#6C707E"></path><path fill-rule="evenodd" clip-rule="evenodd" d="M7 2C3.64 2 .75 4.328 0 7c.75 2.672 3.64 5 7 5s6.25-2.328 7-5c-.75-2.672-3.64-5-7-5m3.5 5a3.5 3.5 0 1 1-7 0 3.5 3.5 0 0 1 7 0" fill="#6C707E"></path>
  </symbol>
  <symbol viewBox="0 0 14 14" fill="none" id="breakpoint-field-muted_dark">
    <path d="M7 9a2 2 0 1 0 0-4 2 2 0 0 0 0 4" fill="#CED0D6"></path><path fill-rule="evenodd" clip-rule="evenodd" d="M7 2C3.64 2 .75 4.328 0 7c.75 2.672 3.64 5 7 5s6.25-2.328 7-5c-.75-2.672-3.64-5-7-5m3.5 5a3.5 3.5 0 1 1-7 0 3.5 3.5 0 0 1 7 0" fill="#CED0D6"></path>
  </symbol>
  <symbol viewBox="0 0 14 14" fill="none" id="breakpoint-field-muted-dependent_light">
    <path fill-rule="evenodd" clip-rule="evenodd" d="M2.5 5a2.5 2.5 0 1 0 0-5 2.5 2.5 0 0 0 0 5" fill="#6C707E"></path><path d="M3.718 5.782C3.338 5.923 2.928 6 2.5 6c-.67 0-1.295-.188-1.827-.514A6 6 0 0 0 0 7c.75 2.672 3.64 5 7 5s6.25-2.328 7-5c-.75-2.672-3.64-5-7-5q-.522 0-1.026.073a3.54 3.54 0 0 1-.192 1.645 3.5 3.5 0 1 1-2.065 2.065" fill="#6C707E"></path>
  </symbol>
  <symbol viewBox="0 0 14 14" fill="none" id="breakpoint-field-muted-dependent_dark">
    <path fill-rule="evenodd" clip-rule="evenodd" d="M2.5 5a2.5 2.5 0 1 0 0-5 2.5 2.5 0 0 0 0 5" fill="#CED0D6"></path><path d="M3.718 5.782C3.338 5.923 2.928 6 2.5 6c-.67 0-1.295-.188-1.827-.514A6 6 0 0 0 0 7c.75 2.672 3.64 5 7 5s6.25-2.328 7-5c-.75-2.672-3.64-5-7-5q-.522 0-1.026.073a3.54 3.54 0 0 1-.192 1.645 3.5 3.5 0 1 1-2.065 2.065" fill="#CED0D6"></path>
  </symbol>
  <symbol viewBox="0 0 14 14" fill="none" id="breakpoint-field-muted-disabled_light">
    <path fill-rule="evenodd" clip-rule="evenodd" d="M0 7c.75-2.672 3.64-5 7-5s6.25 2.328 7 5c-.75 2.672-3.64 5-7 5S.75 9.672 0 7m7 3.5a3.5 3.5 0 1 0 0-7 3.5 3.5 0 0 0 0 7" fill="#6C707E"></path>
  </symbol>
  <symbol viewBox="0 0 14 14" fill="none" id="breakpoint-field-muted-disabled_dark">
    <path fill-rule="evenodd" clip-rule="evenodd" d="M0 7c.75-2.672 3.64-5 7-5s6.25 2.328 7 5c-.75 2.672-3.64 5-7 5S.75 9.672 0 7m7 3.5a3.5 3.5 0 1 0 0-7 3.5 3.5 0 0 0 0 7" fill="#CED0D6"></path>
  </symbol>
  <symbol viewBox="0 0 14 14" fill="none" id="breakpoint-field-unsuspendent_light">
    <path d="M7 9a2 2 0 1 0 0-4 2 2 0 0 0 0 4" fill="#FFAF0F"></path><path fill-rule="evenodd" clip-rule="evenodd" d="M7 2C3.64 2 .75 4.328 0 7c.75 2.672 3.64 5 7 5s6.25-2.328 7-5c-.75-2.672-3.64-5-7-5m3.5 5a3.5 3.5 0 1 1-7 0 3.5 3.5 0 0 1 7 0" fill="#FFAF0F"></path>
  </symbol>
  <symbol viewBox="0 0 14 14" fill="none" id="breakpoint-field-unsuspendent_dark">
    <path d="M7 9a2 2 0 1 0 0-4 2 2 0 0 0 0 4" fill="#F2C55C"></path><path fill-rule="evenodd" clip-rule="evenodd" d="M7 2C3.64 2 .75 4.328 0 7c.75 2.672 3.64 5 7 5s6.25-2.328 7-5c-.75-2.672-3.64-5-7-5m3.5 5a3.5 3.5 0 1 1-7 0 3.5 3.5 0 0 1 7 0" fill="#F2C55C"></path>
  </symbol>
  <symbol viewBox="0 0 14 14" fill="none" id="breakpoint-field-unsuspendent-disabled_light">
    <path fill-rule="evenodd" clip-rule="evenodd" d="M0 7c.75-2.672 3.64-5 7-5s6.25 2.328 7 5c-.75 2.672-3.64 5-7 5S.75 9.672 0 7m7 3.5a3.5 3.5 0 1 0 0-7 3.5 3.5 0 0 0 0 7" fill="#FFAF0F"></path>
  </symbol>
  <symbol viewBox="0 0 14 14" fill="none" id="breakpoint-field-unsuspendent-disabled_dark">
    <path fill-rule="evenodd" clip-rule="evenodd" d="M0 7c.75-2.672 3.64-5 7-5s6.25 2.328 7 5c-.75 2.672-3.64 5-7 5S.75 9.672 0 7m7 3.5a3.5 3.5 0 1 0 0-7 3.5 3.5 0 0 0 0 7" fill="#F2C55C"></path>
  </symbol>
  <symbol viewBox="0 0 14 14" fill="none" id="breakpoint-field-unsuspendent-valid_light">
    <path fill-rule="evenodd" clip-rule="evenodd" d="M13.827.176a.6.6 0 0 1 0 .848L10.03 4.821a.6.6 0 0 1-.848 0L7.176 2.815a.6.6 0 1 1 .848-.848l1.582 1.581L12.979.176a.6.6 0 0 1 .848 0" fill="#6C707E"></path><path d="M6.037 2.064C3.1 2.454.677 4.587 0 7c.75 2.672 3.64 5 7 5s6.25-2.328 7-5c-.3-1.068-.941-2.08-1.818-2.912L10.741 5.53c-.131.13-.28.234-.438.31a3.5 3.5 0 1 1-3.818-2.303l-.013-.013a1.6 1.6 0 0 1-.435-1.46" fill="#FFAF0F"></path><path d="M9 7a2 2 0 1 1-4 0 2 2 0 0 1 4 0" fill="#FFAF0F"></path>
  </symbol>
  <symbol viewBox="0 0 14 14" fill="none" id="breakpoint-field-unsuspendent-valid_dark">
    <path fill-rule="evenodd" clip-rule="evenodd" d="M13.827.176a.6.6 0 0 1 0 .848L10.03 4.821a.6.6 0 0 1-.848 0L7.176 2.815a.6.6 0 1 1 .848-.848l1.582 1.581L12.979.176a.6.6 0 0 1 .848 0" fill="#CED0D6"></path><path d="M6.037 2.064C3.1 2.454.677 4.587 0 7c.75 2.672 3.64 5 7 5s6.25-2.328 7-5c-.3-1.068-.941-2.08-1.818-2.912L10.741 5.53c-.131.13-.28.234-.438.31a3.5 3.5 0 1 1-3.818-2.303l-.013-.013a1.6 1.6 0 0 1-.435-1.46" fill="#F2C55C"></path><path d="M9 7a2 2 0 1 1-4 0 2 2 0 0 1 4 0" fill="#F2C55C"></path>
  </symbol>
  <symbol viewBox="0 0 14 14" fill="none" id="breakpoint-field-valid_light">
    <path fill-rule="evenodd" clip-rule="evenodd" d="M13.827.176a.6.6 0 0 1 0 .848L10.03 4.821a.6.6 0 0 1-.848 0L7.176 2.815a.6.6 0 1 1 .848-.848l1.582 1.581L12.979.176a.6.6 0 0 1 .848 0" fill="#6C707E"></path><path d="M6.037 2.064C3.1 2.454.677 4.587 0 7c.75 2.672 3.64 5 7 5s6.25-2.328 7-5c-.3-1.068-.941-2.08-1.818-2.912L10.741 5.53c-.131.13-.28.234-.438.31a3.5 3.5 0 1 1-3.818-2.303l-.013-.013a1.6 1.6 0 0 1-.435-1.46" fill="#E55765"></path><path d="M9 7a2 2 0 1 1-4 0 2 2 0 0 1 4 0" fill="#E55765"></path>
  </symbol>
  <symbol viewBox="0 0 14 14" fill="none" id="breakpoint-field-valid_dark">
    <path fill-rule="evenodd" clip-rule="evenodd" d="M13.827.176a.6.6 0 0 1 0 .848L10.03 4.821a.6.6 0 0 1-.848 0L7.176 2.815a.6.6 0 1 1 .848-.848l1.582 1.581L12.979.176a.6.6 0 0 1 .848 0" fill="#CED0D6"></path><path d="M6.037 2.064C3.1 2.454.677 4.587 0 7c.75 2.672 3.64 5 7 5s6.25-2.328 7-5c-.3-1.068-.941-2.08-1.818-2.912L10.741 5.53c-.131.13-.28.234-.438.31a3.5 3.5 0 1 1-3.818-2.303l-.013-.013a1.6 1.6 0 0 1-.435-1.46" fill="#DB5C5C"></path><path d="M9 7a2 2 0 1 1-4 0 2 2 0 0 1 4 0" fill="#DB5C5C"></path>
  </symbol>
  <symbol viewBox="0 0 14 14" fill="none" id="breakpoint-invalid_light">
    <path fill-rule="evenodd" clip-rule="evenodd" d="M14 7A7 7 0 1 1 0 7a7 7 0 0 1 14 0m-1.5 0a5.5 5.5 0 0 1-8.823 4.383l7.706-7.706A5.48 5.48 0 0 1 12.5 7m-9.883 3.323 7.706-7.706a5.5 5.5 0 0 0-7.706 7.706" fill="#6C707E"></path>
  </symbol>
  <symbol viewBox="0 0 14 14" fill="none" id="breakpoint-invalid_dark">
    <path fill-rule="evenodd" clip-rule="evenodd" d="M14 7A7 7 0 1 1 0 7a7 7 0 0 1 14 0m-1.5 0a5.5 5.5 0 0 1-8.823 4.383l7.706-7.706A5.48 5.48 0 0 1 12.5 7m-9.883 3.323 7.706-7.706a5.5 5.5 0 0 0-7.706 7.706" fill="#CED0D6"></path>
  </symbol>
  <symbol viewBox="0 0 14 14" fill="none" id="breakpoint-lambda_light">
    <path d="M2.847 0h1.444c1.715 0 2.573 1.01 3.117 2.385L12 14h-1.985l-2.91-7.82L3.967 14H2L6.215 3.865 5.567 2.52c-.24-.521-.722-.917-1.36-.917h-1.36z" fill="#E55765"></path>
  </symbol>
  <symbol viewBox="0 0 14 14" fill="none" id="breakpoint-lambda_dark">
    <path d="M2.847 0h1.444c1.715 0 2.573 1.01 3.117 2.385L12 14h-1.985l-2.91-7.82L3.967 14H2L6.215 3.865 5.567 2.52c-.24-.521-.722-.917-1.36-.917h-1.36z" fill="#DB5C5C"></path>
  </symbol>
  <symbol viewBox="0 0 14 14" fill="none" id="breakpoint-method_light">
    <path fill-rule="evenodd" clip-rule="evenodd" d="M6.293.707a1 1 0 0 1 1.414 0l5.586 5.586a1 1 0 0 1 0 1.414l-5.586 5.586a1 1 0 0 1-1.414 0L.707 7.707a1 1 0 0 1 0-1.414z" fill="#E55765"></path>
  </symbol>
  <symbol viewBox="0 0 14 14" fill="none" id="breakpoint-method_dark">
    <path fill-rule="evenodd" clip-rule="evenodd" d="M6.293.707a1 1 0 0 1 1.414 0l5.586 5.586a1 1 0 0 1 0 1.414l-5.586 5.586a1 1 0 0 1-1.414 0L.707 7.707a1 1 0 0 1 0-1.414z" fill="#E55765"></path>
  </symbol>
  <symbol viewBox="0 0 14 14" fill="none" id="breakpoint-method-dependent_light">
    <path fill-rule="evenodd" clip-rule="evenodd" d="M2.5 5a2.5 2.5 0 1 0 0-5 2.5 2.5 0 0 0 0 5" fill="#6C707E"></path><path d="M3.189 5.932a3.5 3.5 0 0 1-1.954-.167l-.528.528a1 1 0 0 0 0 1.414l5.586 5.586a1 1 0 0 0 1.414 0l5.586-5.586a1 1 0 0 0 0-1.414L7.707.707a1 1 0 0 0-1.414 0l-.529.528a3.5 3.5 0 0 1 .168 1.954L7 2.121 11.879 7l-4.88 4.879L2.122 7z" fill="#E55765"></path>
  </symbol>
  <symbol viewBox="0 0 14 14" fill="none" id="breakpoint-method-dependent_dark">
    <path fill-rule="evenodd" clip-rule="evenodd" d="M2.5 5a2.5 2.5 0 1 0 0-5 2.5 2.5 0 0 0 0 5" fill="#CED0D6"></path><path d="M3.189 5.932a3.5 3.5 0 0 1-1.954-.167l-.528.528a1 1 0 0 0 0 1.414l5.586 5.586a1 1 0 0 0 1.414 0l5.586-5.586a1 1 0 0 0 0-1.414L7.707.707a1 1 0 0 0-1.414 0l-.529.528a3.5 3.5 0 0 1 .168 1.954L7 2.121 11.879 7l-4.88 4.879L2.122 7z" fill="#DB5C5C"></path>
  </symbol>
  <symbol viewBox="0 0 14 14" fill="none" id="breakpoint-method-disabled_light">
    <path d="M6.823 1.237a.25.25 0 0 1 .354 0l5.586 5.586a.25.25 0 0 1 0 .354l-5.586 5.586a.25.25 0 0 1-.354 0L1.237 7.177a.25.25 0 0 1 0-.354z" stroke="#E55765" stroke-width="1.5"></path>
  </symbol>
  <symbol viewBox="0 0 14 14" fill="none" id="breakpoint-method-disabled_dark">
    <path d="M6.823 1.237a.25.25 0 0 1 .354 0l5.586 5.586a.25.25 0 0 1 0 .354l-5.586 5.586a.25.25 0 0 1-.354 0L1.237 7.177a.25.25 0 0 1 0-.354z" stroke="#DB5C5C" stroke-width="1.5"></path>
  </symbol>
  <symbol viewBox="0 0 14 14" fill="none" id="breakpoint-method-muted_light">
    <path fill-rule="evenodd" clip-rule="evenodd" d="M6.293.707a1 1 0 0 1 1.414 0l5.586 5.586a1 1 0 0 1 0 1.414l-5.586 5.586a1 1 0 0 1-1.414 0L.707 7.707a1 1 0 0 1 0-1.414z" fill="#6C707E"></path>
  </symbol>
  <symbol viewBox="0 0 14 14" fill="none" id="breakpoint-method-muted_dark">
    <path fill-rule="evenodd" clip-rule="evenodd" d="M6.293.707a1 1 0 0 1 1.414 0l5.586 5.586a1 1 0 0 1 0 1.414l-5.586 5.586a1 1 0 0 1-1.414 0L.707 7.707a1 1 0 0 1 0-1.414z" fill="#CED0D6"></path>
  </symbol>
  <symbol viewBox="0 0 14 14" fill="none" id="breakpoint-method-muted-dependent_light">
    <path fill-rule="evenodd" clip-rule="evenodd" d="M2.5 5a2.5 2.5 0 1 0 0-5 2.5 2.5 0 0 0 0 5" fill="#6C707E"></path><path d="M3.189 5.932a3.5 3.5 0 0 1-1.954-.167l-.528.528a1 1 0 0 0 0 1.414l5.586 5.586a1 1 0 0 0 1.414 0l5.586-5.586a1 1 0 0 0 0-1.414L7.707.707a1 1 0 0 0-1.414 0l-.529.528a3.5 3.5 0 0 1 .168 1.954L7 2.121 11.879 7l-4.88 4.879L2.122 7z" fill="#6C707E"></path>
  </symbol>
  <symbol viewBox="0 0 14 14" fill="none" id="breakpoint-method-muted-dependent_dark">
    <path fill-rule="evenodd" clip-rule="evenodd" d="M2.5 5a2.5 2.5 0 1 0 0-5 2.5 2.5 0 0 0 0 5" fill="#CED0D6"></path><path d="M3.189 5.932a3.5 3.5 0 0 1-1.954-.167l-.528.528a1 1 0 0 0 0 1.414l5.586 5.586a1 1 0 0 0 1.414 0l5.586-5.586a1 1 0 0 0 0-1.414L7.707.707a1 1 0 0 0-1.414 0l-.529.528a3.5 3.5 0 0 1 .168 1.954L7 2.121 11.879 7l-4.88 4.879L2.122 7z" fill="#CED0D6"></path>
  </symbol>
  <symbol viewBox="0 0 14 14" fill="none" id="breakpoint-method-muted-disabled_light">
    <path d="M6.823 1.237a.25.25 0 0 1 .354 0l5.586 5.586a.25.25 0 0 1 0 .354l-5.586 5.586a.25.25 0 0 1-.354 0L1.237 7.177a.25.25 0 0 1 0-.354z" stroke="#6C707E" stroke-width="1.5"></path>
  </symbol>
  <symbol viewBox="0 0 14 14" fill="none" id="breakpoint-method-muted-disabled_dark">
    <path d="M6.823 1.237a.25.25 0 0 1 .354 0l5.586 5.586a.25.25 0 0 1 0 .354l-5.586 5.586a.25.25 0 0 1-.354 0L1.237 7.177a.25.25 0 0 1 0-.354z" stroke="#CED0D6" stroke-width="1.5"></path>
  </symbol>
  <symbol viewBox="0 0 14 14" fill="none" id="breakpoint-method-unsuspendent_light">
    <path fill-rule="evenodd" clip-rule="evenodd" d="M6.293.707a1 1 0 0 1 1.414 0l5.586 5.586a1 1 0 0 1 0 1.414l-5.586 5.586a1 1 0 0 1-1.414 0L.707 7.707a1 1 0 0 1 0-1.414z" fill="#FFAF0F"></path>
  </symbol>
  <symbol viewBox="0 0 14 14" fill="none" id="breakpoint-method-unsuspendent_dark">
    <path fill-rule="evenodd" clip-rule="evenodd" d="M6.293.707a1 1 0 0 1 1.414 0l5.586 5.586a1 1 0 0 1 0 1.414l-5.586 5.586a1 1 0 0 1-1.414 0L.707 7.707a1 1 0 0 1 0-1.414z" fill="#F2C55C"></path>
  </symbol>
  <symbol viewBox="0 0 14 14" fill="none" id="breakpoint-method-unsuspendent-disabled_light">
    <path d="M6.823 1.237a.25.25 0 0 1 .354 0l5.586 5.586a.25.25 0 0 1 0 .354l-5.586 5.586a.25.25 0 0 1-.354 0L1.237 7.177a.25.25 0 0 1 0-.354z" stroke="#FFAF0F" stroke-width="1.5"></path>
  </symbol>
  <symbol viewBox="0 0 14 14" fill="none" id="breakpoint-method-unsuspendent-disabled_dark">
    <path d="M6.823 1.237a.25.25 0 0 1 .354 0l5.586 5.586a.25.25 0 0 1 0 .354l-5.586 5.586a.25.25 0 0 1-.354 0L1.237 7.177a.25.25 0 0 1 0-.354z" stroke="#F2C55C" stroke-width="1.5"></path>
  </symbol>
  <symbol viewBox="0 0 14 14" fill="none" id="breakpoint-method-unsuspendent-valid_light">
    <path fill-rule="evenodd" clip-rule="evenodd" d="M13.827.176a.6.6 0 0 1 0 .848L10.03 4.821a.6.6 0 0 1-.848 0L7.176 2.815a.6.6 0 1 1 .848-.848l1.582 1.581L12.979.176a.6.6 0 0 1 .848 0" fill="#6C707E"></path><path d="M6.472 3.524A1.6 1.6 0 0 1 7.805.805L7.707.707a1 1 0 0 0-1.414 0L.707 6.293a1 1 0 0 0 0 1.414l5.586 5.586a1 1 0 0 0 1.414 0l5.586-5.586a1 1 0 0 0 0-1.414l-1.658-1.658-.894.895a1.6 1.6 0 0 1-2.263 0z" fill="#FFAF0F"></path>
  </symbol>
  <symbol viewBox="0 0 14 14" fill="none" id="breakpoint-method-unsuspendent-valid_dark">
    <path fill-rule="evenodd" clip-rule="evenodd" d="M13.827.176a.6.6 0 0 1 0 .848L10.03 4.821a.6.6 0 0 1-.848 0L7.176 2.815a.6.6 0 1 1 .848-.848l1.582 1.581L12.979.176a.6.6 0 0 1 .848 0" fill="#CED0D6"></path><path d="M6.472 3.524A1.6 1.6 0 0 1 7.805.805L7.707.707a1 1 0 0 0-1.414 0L.707 6.293a1 1 0 0 0 0 1.414l5.586 5.586a1 1 0 0 0 1.414 0l5.586-5.586a1 1 0 0 0 0-1.414l-1.658-1.658-.894.895a1.6 1.6 0 0 1-2.263 0z" fill="#F2C55C"></path>
  </symbol>
  <symbol viewBox="0 0 14 14" fill="none" id="breakpoint-method-valid_light">
    <path fill-rule="evenodd" clip-rule="evenodd" d="M13.827.176a.6.6 0 0 1 0 .848L10.03 4.821a.6.6 0 0 1-.848 0L7.176 2.815a.6.6 0 1 1 .848-.848l1.582 1.581L12.979.176a.6.6 0 0 1 .848 0" fill="#6C707E"></path><path d="M6.472 3.524A1.6 1.6 0 0 1 7.805.805L7.707.707a1 1 0 0 0-1.414 0L.707 6.293a1 1 0 0 0 0 1.414l5.586 5.586a1 1 0 0 0 1.414 0l5.586-5.586a1 1 0 0 0 0-1.414l-1.658-1.658-.894.895a1.6 1.6 0 0 1-2.263 0z" fill="#E55765"></path>
  </symbol>
  <symbol viewBox="0 0 14 14" fill="none" id="breakpoint-method-valid_dark">
    <path fill-rule="evenodd" clip-rule="evenodd" d="M13.827.176a.6.6 0 0 1 0 .848L10.03 4.821a.6.6 0 0 1-.848 0L7.176 2.815a.6.6 0 1 1 .848-.848l1.582 1.581L12.979.176a.6.6 0 0 1 .848 0" fill="#CED0D6"></path><path d="M6.472 3.524A1.6 1.6 0 0 1 7.805.805L7.707.707a1 1 0 0 0-1.414 0L.707 6.293a1 1 0 0 0 0 1.414l5.586 5.586a1 1 0 0 0 1.414 0l5.586-5.586a1 1 0 0 0 0-1.414l-1.658-1.658-.894.895a1.6 1.6 0 0 1-2.263 0z" fill="#DB5C5C"></path>
  </symbol>
  <symbol viewBox="0 0 14 14" fill="none" id="breakpoint-muted_light">
    <path fill-rule="evenodd" clip-rule="evenodd" d="M7 14A7 7 0 1 0 7 0a7 7 0 0 0 0 14" fill="#6C707E"></path>
  </symbol>
  <symbol viewBox="0 0 14 14" fill="none" id="breakpoint-muted_dark">
    <path fill-rule="evenodd" clip-rule="evenodd" d="M7 14A7 7 0 1 0 7 0a7 7 0 0 0 0 14" fill="#CED0D6"></path>
  </symbol>
  <symbol viewBox="0 0 14 14" fill="none" id="breakpoint-muted-dependent_light">
    <path fill-rule="evenodd" clip-rule="evenodd" d="M2.5 5a2.5 2.5 0 1 0 0-5 2.5 2.5 0 0 0 0 5" fill="#6C707E"></path><path d="M5.173.24c.332.393.58.86.714 1.373Q6.427 1.5 7 1.5a5.5 5.5 0 1 1-5.387 4.387A3.5 3.5 0 0 1 .24 5.173 7 7 0 1 0 5.174.24" fill="#6C707E"></path>
  </symbol>
  <symbol viewBox="0 0 14 14" fill="none" id="breakpoint-muted-dependent_dark">
    <path fill-rule="evenodd" clip-rule="evenodd" d="M2.5 5a2.5 2.5 0 1 0 0-5 2.5 2.5 0 0 0 0 5" fill="#CED0D6"></path><path d="M5.173.24c.332.393.58.86.714 1.373Q6.427 1.5 7 1.5a5.5 5.5 0 1 1-5.387 4.387A3.5 3.5 0 0 1 .24 5.173 7 7 0 1 0 5.174.24" fill="#CED0D6"></path>
  </symbol>
  <symbol viewBox="0 0 14 14" fill="none" id="breakpoint-muted-disabled_light">
    <path d="M7 .75a6.25 6.25 0 1 1 0 12.5A6.25 6.25 0 0 1 7 .75Z" stroke="#6C707E" stroke-width="1.5"></path>
  </symbol>
  <symbol viewBox="0 0 14 14" fill="none" id="breakpoint-muted-disabled_dark">
    <path d="M7 .75a6.25 6.25 0 1 1 0 12.5A6.25 6.25 0 0 1 7 .75Z" stroke="#CED0D6" stroke-width="1.5"></path>
  </symbol>
  <symbol viewBox="0 0 14 14" fill="none" id="breakpoint-obsolete_light">
    <path fill-rule="evenodd" clip-rule="evenodd" d="M7 14A7 7 0 1 0 7 0a7 7 0 0 0 0 14m.9-10.5a.9.9 0 0 0-1.8 0V7a.9.9 0 1 0 1.8 0zM7 11.2A1.1 1.1 0 1 0 7 9a1.1 1.1 0 0 0 0 2.2" fill="#E55765"></path>
  </symbol>
  <symbol viewBox="0 0 14 14" fill="none" id="breakpoint-obsolete_dark">
    <path fill-rule="evenodd" clip-rule="evenodd" d="M7 14A7 7 0 1 0 7 0a7 7 0 0 0 0 14m.9-10.5a.9.9 0 0 0-1.8 0V7a.9.9 0 1 0 1.8 0zM7 11.2A1.1 1.1 0 1 0 7 9a1.1 1.1 0 0 0 0 2.2" fill="#E55765"></path>
  </symbol>
  <symbol viewBox="0 0 14 14" fill="none" id="breakpoint-unsuspendent_light">
    <path fill-rule="evenodd" clip-rule="evenodd" d="M7 14A7 7 0 1 0 7 0a7 7 0 0 0 0 14" fill="#FFAF0F"></path>
  </symbol>
  <symbol viewBox="0 0 14 14" fill="none" id="breakpoint-unsuspendent_dark">
    <path fill-rule="evenodd" clip-rule="evenodd" d="M7 14A7 7 0 1 0 7 0a7 7 0 0 0 0 14" fill="#F2C55C"></path>
  </symbol>
  <symbol viewBox="0 0 14 14" fill="none" id="breakpoint-unsuspendent-disabled_light">
    <path d="M7 .75a6.25 6.25 0 1 1 0 12.5A6.25 6.25 0 0 1 7 .75Z" stroke="#FFAF0F" stroke-width="1.5"></path>
  </symbol>
  <symbol viewBox="0 0 14 14" fill="none" id="breakpoint-unsuspendent-disabled_dark">
    <path d="M7 .75a6.25 6.25 0 1 1 0 12.5A6.25 6.25 0 0 1 7 .75Z" stroke="#F2C55C" stroke-width="1.5"></path>
  </symbol>
  <symbol viewBox="0 0 14 14" fill="none" id="breakpoint-unsuspendent-valid_light">
    <path fill-rule="evenodd" clip-rule="evenodd" d="M13.827.176a.6.6 0 0 1 0 .848L10.03 4.821a.6.6 0 0 1-.848 0L7.176 2.815a.6.6 0 1 1 .848-.848l1.582 1.581L12.979.176a.6.6 0 0 1 .848 0" fill="#6C707E"></path><path d="M6.472 1.261a1.6 1.6 0 0 0 0 2.263L8.478 5.53a1.6 1.6 0 0 0 2.263 0l2.213-2.213a7 7 0 1 1-2.26-2.265L9.608 2.136l-.874-.875a1.6 1.6 0 0 0-2.263 0" fill="#FFAF0F"></path>
  </symbol>
  <symbol viewBox="0 0 14 14" fill="none" id="breakpoint-unsuspendent-valid_dark">
    <path fill-rule="evenodd" clip-rule="evenodd" d="M13.827.176a.6.6 0 0 1 0 .848L10.03 4.821a.6.6 0 0 1-.848 0L7.176 2.815a.6.6 0 1 1 .848-.848l1.582 1.581L12.979.176a.6.6 0 0 1 .848 0" fill="#CED0D6"></path><path d="M6.472 1.261a1.6 1.6 0 0 0 0 2.263L8.478 5.53a1.6 1.6 0 0 0 2.263 0l2.213-2.213a7 7 0 1 1-2.26-2.265L9.608 2.136l-.874-.875a1.6 1.6 0 0 0-2.263 0" fill="#F2C55C"></path>
  </symbol>
  <symbol viewBox="0 0 14 14" fill="none" id="breakpoint-valid_light">
    <path fill-rule="evenodd" clip-rule="evenodd" d="M13.827.176a.6.6 0 0 1 0 .848L10.03 4.821a.6.6 0 0 1-.848 0L7.176 2.815a.6.6 0 1 1 .848-.848l1.582 1.581L12.979.176a.6.6 0 0 1 .848 0" fill="#6C707E"></path><path d="M6.472 1.261a1.6 1.6 0 0 0 0 2.263L8.478 5.53a1.6 1.6 0 0 0 2.263 0l2.213-2.213a7 7 0 1 1-2.26-2.265L9.608 2.136l-.874-.875a1.6 1.6 0 0 0-2.263 0" fill="#E55765"></path>
  </symbol>
  <symbol viewBox="0 0 14 14" fill="none" id="breakpoint-valid_dark">
    <path fill-rule="evenodd" clip-rule="evenodd" d="M13.827.176a.6.6 0 0 1 0 .848L10.03 4.821a.6.6 0 0 1-.848 0L7.176 2.815a.6.6 0 1 1 .848-.848l1.582 1.581L12.979.176a.6.6 0 0 1 .848 0" fill="#CED0D6"></path><path d="M6.472 1.261a1.6 1.6 0 0 0 0 2.263L8.478 5.53a1.6 1.6 0 0 0 2.263 0l2.213-2.213a7 7 0 1 1-2.26-2.265L9.608 2.136l-.874-.875a1.6 1.6 0 0 0-2.263 0" fill="#E55765"></path>
  </symbol>
  <symbol viewBox="0 0 14 14" fill="none" id="multiple-breakpoints_light">
    <path d="M9.975 8.975a5.5 5.5 0 0 0-4.95-4.95 4.5 4.5 0 1 1 4.95 4.95" fill="#E55765"></path><path d="M9 9.5a4.5 4.5 0 1 1-9 0 4.5 4.5 0 0 1 9 0" fill="#E55765"></path>
  </symbol>
  <symbol viewBox="0 0 14 14" fill="none" id="multiple-breakpoints_dark">
    <path d="M9.975 8.975a5.5 5.5 0 0 0-4.95-4.95 4.5 4.5 0 1 1 4.95 4.95" fill="#DB5C5C"></path><path d="M9 9.5a4.5 4.5 0 1 1-9 0 4.5 4.5 0 0 1 9 0" fill="#DB5C5C"></path>
  </symbol>
  <symbol viewBox="0 0 14 14" fill="none" id="multiple-breakpoints-disabled_light">
    <path d="M9.5 0a4.5 4.5 0 0 0-4.475 4.025c.517.049 1.013.169 1.478.35a3 3 0 1 1 3.121 3.122c.182.466.302.961.351 1.478A4.5 4.5 0 0 0 9.5 0" fill="#E55765"></path><path fill-rule="evenodd" clip-rule="evenodd" d="M9 9.5a4.5 4.5 0 1 1-9 0 4.5 4.5 0 0 1 9 0m-1.5 0a3 3 0 1 1-6 0 3 3 0 0 1 6 0" fill="#E55765"></path>
  </symbol>
  <symbol viewBox="0 0 14 14" fill="none" id="multiple-breakpoints-disabled_dark">
    <path d="M9.5 0a4.5 4.5 0 0 0-4.475 4.025c.517.049 1.013.169 1.478.35a3 3 0 1 1 3.121 3.122c.182.466.302.961.351 1.478A4.5 4.5 0 0 0 9.5 0" fill="#DB5C5C"></path><path fill-rule="evenodd" clip-rule="evenodd" d="M9 9.5a4.5 4.5 0 1 1-9 0 4.5 4.5 0 0 1 9 0m-1.5 0a3 3 0 1 1-6 0 3 3 0 0 1 6 0" fill="#DB5C5C"></path>
  </symbol>
  <symbol viewBox="0 0 14 14" fill="none" id="multiple-breakpoints-muted_light">
    <path d="M9.975 8.975a5.5 5.5 0 0 0-4.95-4.95 4.5 4.5 0 1 1 4.95 4.95" fill="#6C707E"></path><path d="M9 9.5a4.5 4.5 0 1 1-9 0 4.5 4.5 0 0 1 9 0" fill="#6C707E"></path>
  </symbol>
  <symbol viewBox="0 0 14 14" fill="none" id="multiple-breakpoints-muted_dark">
    <path d="M9.975 8.975a5.5 5.5 0 0 0-4.95-4.95 4.5 4.5 0 1 1 4.95 4.95" fill="#CED0D6"></path><path d="M9 9.5a4.5 4.5 0 1 1-9 0 4.5 4.5 0 0 1 9 0" fill="#CED0D6"></path>
  </symbol>
  <symbol viewBox="0 0 7 9" fill="none" id="question-badge_light">
    <path d="M3.5 0A3.5 3.5 0 0 0 .302 4.924l2.025 4.082h2.206l2.165-4.082A3.5 3.5 0 0 0 7 3.5 3.5 3.5 0 0 0 3.5 0" fill="#fff"></path><circle cx="3.387" cy="8.22" r=".579" fill="#6C707E" stroke="#6C707E" stroke-width=".2"></circle><path d="M4.155 2.35a1.23 1.23 0 0 0-.631-.159q-.382.002-.664.164a1.13 1.13 0 0 0-.437.455 1.3 1.3 0 0 0-.143.46c-.032.25-.234.484-.525.484h-.07a.5.5 0 0 1-.498-.518v-.011q.01-.099.027-.193.067-.395.256-.735v-.001q.306-.535.845-.827c.36-.198.767-.293 1.214-.293.436 0 .832.091 1.181.282.351.186.628.449.823.787q.294.512.292 1.15a2.27 2.27 0 0 1-.587 1.56l-.001.001-.587.56a7 7 0 0 0-.428.396q-.127.13-.217.312l-.001.002a.75.75 0 0 0-.08.348c0 .26-.21.47-.47.47h-.112a.497.497 0 0 1-.497-.496q-.001-.382.147-.703.14-.296.351-.522.199-.21.51-.482.309-.273.483-.463l.002-.002a1.5 1.5 0 0 0 .275-.418l.001-.003c.07-.15.11-.326.11-.532 0-.253-.053-.467-.152-.65a1.04 1.04 0 0 0-.414-.422z" fill="#6C707E"></path>
  </symbol>
  <symbol viewBox="0 0 7 9" fill="none" id="question-badge_dark">
    <path d="M3.5 0A3.5 3.5 0 0 0 .302 4.924l2.025 4.082h2.206l2.165-4.082A3.5 3.5 0 0 0 7 3.5 3.5 3.5 0 0 0 3.5 0" fill="#1E1F22"></path><circle cx="3.387" cy="8.22" r=".579" fill="#CED0D6" stroke="#CED0D6" stroke-width=".2"></circle><path d="M4.155 2.35a1.23 1.23 0 0 0-.631-.159q-.382.002-.664.164a1.13 1.13 0 0 0-.437.455 1.3 1.3 0 0 0-.143.46c-.032.25-.234.484-.525.484h-.07a.5.5 0 0 1-.498-.518v-.011q.01-.099.027-.193.067-.395.256-.735v-.001q.306-.535.845-.827c.36-.198.767-.293 1.214-.293.436 0 .832.091 1.181.282.351.186.628.449.823.787q.294.512.292 1.15a2.27 2.27 0 0 1-.587 1.56l-.001.001-.587.56a7 7 0 0 0-.428.396q-.127.13-.217.312l-.001.002a.75.75 0 0 0-.08.348c0 .26-.21.47-.47.47h-.112a.497.497 0 0 1-.497-.496q-.001-.382.147-.703.14-.296.351-.522.199-.21.51-.482.309-.273.483-.463l.002-.002a1.5 1.5 0 0 0 .275-.418l.001-.003c.07-.15.11-.326.11-.532 0-.253-.053-.467-.152-.65a1.04 1.04 0 0 0-.414-.422z" fill="#CED0D6"></path>
  </symbol>
</svg>
