<svg viewBox="0 0 16 16" fill="none" xmlns="http://www.w3.org/2000/svg">
  <path fill-rule="evenodd" clip-rule="evenodd" d="M10.146 10.146a.5.5 0 0 1 .708 0L13 12.293l2.146-2.147a.5.5 0 0 1 .708.708L13.707 13l2.147 2.146a.5.5 0 0 1-.708.708L13 13.707l-2.146 2.147a.5.5 0 0 1-.708-.708L12.293 13l-2.147-2.146a.5.5 0 0 1 0-.708" fill="#DB3B4B"></path><path fill-rule="evenodd" clip-rule="evenodd" d="M3 2a2 2 0 0 0-2 2v8a2 2 0 0 0 2 2h6.879l1-1-.879-.879V13H6V6h4v3.085a1.5 1.5 0 0 1 1 0V6h3v3.879l.44-.44c.163-.163.355-.281.56-.354V4a2 2 0 0 0-2-2zm7 1H6v2h4zM3 3h2v2H2V4a1 1 0 0 1 1-1m-1 9V6h3v7H3a1 1 0 0 1-1-1m12-8v1h-3V3h2a1 1 0 0 1 1 1" fill="#6C707E"></path>
</svg>
