<svg width="20" height="20" viewBox="0 0 20 20" fill="none"><g clip-path="url(#a)"><g clip-path="url(#b)" fill-rule="evenodd" clip-rule="evenodd" fill="#CED0D6"><path d="M11.56 6.875c0 .603-.284 1.14-.726 1.483l3.005 1.949a1.875 1.875 0 1 1-2.9 1.449l-2.683 1.659a1.875 1.875 0 1 1-.445-3.308V6.875a1.875 1.875 0 1 1 3.75 0m-1.25 0a.625.625 0 0 1-.891.565l-.14-.09a.624.624 0 0 1 .407-1.1c.345 0 .624.28.624.625m-1.25 4.572v-2.75l2.171 1.408zm-1.25.428a.62.62 0 0 1-.25.5l-.096.06a.625.625 0 1 1 .346-.56m5.626 0a.625.625 0 1 1-1.25 0 .625.625 0 0 1 1.25 0"/><path d="M14.276 1c.449 0 .863.24 1.086.63l4.471 7.75c.22.384.22.856 0 1.24l-4.471 7.75c-.223.39-.637.63-1.086.63H5.72c-.449 0-.863-.24-1.086-.63L.163 10.62a1.25 1.25 0 0 1 0-1.24l4.471-7.75C4.857 1.24 5.271 1 5.72 1zm-.144 1.5L18.46 10l-4.327 7.5H5.864L1.537 10l4.327-7.5z"/></g></g><defs><clipPath id="a"><path fill="#fff" d="M0 0H20V20H0z"/></clipPath><clipPath id="b"><path fill="#fff" d="M0 0H20V20H0z"/></clipPath></defs></svg>