<svg viewBox="0 0 16 16" fill="none" xmlns="http://www.w3.org/2000/svg">
  <path d="M12.477 10.994c.333.283.208.858.529 1.118.163.132.244.349.244.576 0 .355-.198.737-.59.868-1.092.365-1.276 1.444-2.227 1.444-.434 0-.825-.262-.97-.666-.802-.207-1.794-.232-2.597-.034-.171.352-.54.607-.99.607-.508 0-1.294-.604-2.147-.528-.631.057-.979-.322-.979-.76 0-.14.036-.29.112-.43.267-.5-.44-1.203.524-1.623.349-.147.535-.326.674-.487-.296-.862-.103-2.487 1.207-4.116 1.114-1.385.69-1.88.73-3.782C6.012 2.387 6.468 1 8.132 1c1.557 0 2.07 1.32 2.07 2.573 0 .783-.29 1.688.614 2.619 1.078 1.109 1.982 2.839 1.66 4.802" fill="#EBECF0"></path><path d="M13.006 12.112c-.321-.26-.196-.835-.53-1.118.323-1.963-.581-3.693-1.66-4.802-.904-.93-.612-1.836-.612-2.62C10.204 2.322 9.69 1 8.133 1c-1.664 0-2.12 1.388-2.137 2.18-.04 1.903.385 2.398-.729 3.783-1.31 1.63-1.503 3.254-1.207 4.116-.139.161-.325.34-.674.487-.964.42-.257 1.123-.524 1.622a.9.9 0 0 0-.112.432c0 .437.348.816.98.76.852-.077 1.638.527 2.147.527.449 0 .817-.255.989-.607.803-.198 1.795-.173 2.598.034.144.404.534.666.97.666.95 0 1.134-1.079 2.225-1.444.393-.131.591-.512.591-.868 0-.227-.081-.444-.244-.576M7.67 6.007c-.186 0-.34-.15-.583-.331-.308-.229-.622-.36-.618-.6 0-.166.22-.217.507-.398.306-.194.426-.391.728-.391.31 0 .403.156.823.337.413.18.7.25.7.451 0 .207-.432.355-.675.506-.358.221-.541.426-.882.426m.971-3.042c.515.083.572.987.326 1.432l-.207-.085c.107-.317.106-.838-.254-.871-.228-.021-.375.28-.406.538a1 1 0 0 0-.305-.075c.036-.538.383-1.013.846-.939m-1.985.193c.394-.098.627.36.629.837l-.181.111c-.024-.2-.114-.523-.338-.454-.24.075-.2.632-.067.746l-.178.1c-.245-.413-.245-1.245.135-1.34M5.422 14.383c-1.145-.52-1.534-.402-1.753-.402-.453 0-.601-.338-.43-.658.144-.27.099-.555.063-.783-.054-.35-.064-.463.28-.614.475-.201.686-.461.843-.655.442-.547.889.313 1.255 1.079.237.496.704.748.848 1.298.133.508-.414 1.05-1.106.735m4.076-1.093c-.807.393-1.836.573-2.605.175-.114-.329-.296-.541-.492-.755.314-.082.548-.474.268-.868-.298-.42-.907-.714-1.522-1.19-.576-.445-.758-1.542.026-2.769-.382 1.087-.159 2.087.033 2.374.04-.576.086-1.539.873-2.692.397-.582.403-1.351.412-1.832l.362.248c.266.196.488.413.808.413.473 0 .734-.272 1.098-.498.142-.088.357-.176.538-.3.304 1.445 1.56 3.182 1.63 4.172.293-.603-.082-2.05-.082-2.05.491.75.53 1.374.552 2.14.343.141.712.507.746.99L12 10.83c-.074-.536-1.52-1.323-1.65-.314-.695.106-.442 1.205-.582 1.918-.065.326-.184.584-.27.855m2.827-.024c-.575.222-.963.693-1.23.985-.513.564-1.192.293-1.264-.234-.076-.563.21-.87.334-1.501.112-.576-.014-1.462.251-1.557.172 1.023 1.205.593 1.441.314.383 0 .415.13.501.488.054.225.128.414.337.636.244.26.17.661-.37.87M7.658 5.68c-.38 0-.664-.253-.895-.45-.118-.099.03-.283.148-.183.226.192.453.394.747.394.354 0 .666-.303 1.09-.47.143-.056.226.167.083.223-.411.162-.74.486-1.173.486" fill="#6C707E"></path>
</svg>
