<svg viewBox="0 0 16 16" fill="none" xmlns="http://www.w3.org/2000/svg">
  <path d="m14.133 6.991-1.389-.793a1.5 1.5 0 0 0-1.488 0l-.937.535A1 1 0 0 1 10 6V3a1 1 0 0 1 1-1h3a1 1 0 0 1 1 1v3a1 1 0 0 1-.867.991M8 8.058l-.244.14A1.5 1.5 0 0 0 7 9.5V14H2a1 1 0 0 1-1-1V8a1 1 0 0 1 1-1h5a1 1 0 0 1 1 1z" fill="#EBECF0"></path><path d="m14.133 6.991-1.389-.793A1.5 1.5 0 0 0 12 6h2V3h-3v3h1a1.5 1.5 0 0 0-.744.198l-.937.535A1 1 0 0 1 10 6V5H5v2h2a1 1 0 0 1 1 1v.058l-.244.14A1.5 1.5 0 0 0 7 9.5V8H2v5h5v1H2a1 1 0 0 1-1-1V8a1 1 0 0 1 1-1h2V5a1 1 0 0 1 1-1h5V3a1 1 0 0 1 1-1h3a1 1 0 0 1 1 1v3a1 1 0 0 1-.867.991" fill="#6C707E"></path><path d="M15.5 9.5v4l-3.5 2-3.5-2v-4l3.5-2z" stroke="#DF0098" stroke-linejoin="round"></path><path d="M15 13.5H9L12 8z" stroke="#DF0098" stroke-linejoin="round"></path>
</svg>
