<svg width="20" height="20" viewBox="0 0 20 20" fill="none"><path d="M4.75 6.5H6.5V11H8V6.5h1.75V5.003L4.75 5zM12.985 5C11.268 5 10 6.332 10 8s1.268 3 2.985 3c1.122 0 1.796-.4 2.39-1.034l-.819-.82c-.458.42-.868.683-1.532.683-.995 0-1.687-.834-1.687-1.829s.692-1.83 1.687-1.83c.664 0 1.074.264 1.532.684l.82-.82C14.78 5.4 14.107 5 12.986 5M10 13H5v1.5h5z" fill="#6C707E"/><path fill-rule="evenodd" clip-rule="evenodd" d="M16 2H4a2 2 0 0 0-2 2v12a2 2 0 0 0 2 2h12a2 2 0 0 0 2-2V4a2 2 0 0 0-2-2M4 3.5h12a.5.5 0 0 1 .5.5v12a.5.5 0 0 1-.5.5H4a.5.5 0 0 1-.5-.5V4a.5.5 0 0 1 .5-.5" fill="#6C707E"/></svg>