<svg width="16" height="16" viewBox="0 0 16 16" fill="none"><path d="M10.074 5.118q.576 0 1.013.28.441.276.677.782.236.5.236 1.15v3.552h-1.024V7.428q0-.654-.294-1.017-.288-.363-.834-.363-.415 0-.72.209-.299.203-.461.583-.158.373-.158.88v3.162H7.496V7.428q0-.65-.31-1.012-.304-.369-.85-.368-.615 0-.96.45-.348.451-.347 1.222v3.162H4V5.25h.997v.864q.248-.48.651-.737.41-.26.935-.259A1.81 1.81 0 0 1 8.294 6.23a2.1 2.1 0 0 1 .73-.82 1.93 1.93 0 0 1 1.05-.29" fill="#DB5C5C"/><path d="M3.5 13.5h-1a1 1 0 0 1-1-1v-9a1 1 0 0 1 1-1h1M12.5 13.5h1a1 1 0 0 0 1-1v-9a1 1 0 0 0-1-1h-1" stroke="#CED0D6" stroke-linecap="round"/></svg>