<svg width="16" height="16" viewBox="0 0 16 16" fill="none"><path d="M7.952 4c-.33.002-.644.03-.922.078-.816.143-.964.441-.964.992v.727h1.93v.243H5.34c-.56 0-1.052.333-1.205.968-.177.726-.185 1.18 0 1.94.137.564.465.967 1.025.967h.664v-.872c0-.63.55-1.186 1.205-1.186h1.928a.967.967 0 0 0 .965-.97V5.07c0-.517-.442-.906-.965-.992A6 6 0 0 0 7.952 4m-1.043.585a.364.364 0 0 1 0 .727.364.364 0 0 1 0-.727" fill="url(#a)"/><path d="M10.163 6.04v.847a1.23 1.23 0 0 1-1.205 1.21H7.03a.98.98 0 0 0-.965.97v1.818c0 .517.455.821.965.97.611.177 1.197.21 1.928 0 .485-.14.965-.42.965-.97v-.728H7.995v-.242h2.892c.561 0 .77-.387.965-.968.202-.598.193-1.173 0-1.94-.138-.552-.403-.967-.965-.967zM9.08 10.642a.364.364 0 0 1 0 .727.364.364 0 0 1 0-.727" fill="url(#b)"/><path fill-rule="evenodd" clip-rule="evenodd" d="M12.243 3.757a6 6 0 1 0 0 8.486.5.5 0 0 1 .707.707 7 7 0 1 1 0-9.9.5.5 0 1 1-.707.707" fill="#6C707E"/><defs><linearGradient id="a" x1="4" y1="4" x2="8.408" y2="7.798" gradientUnits="userSpaceOnUse"><stop stop-color="#5A9FD4"/><stop offset="1" stop-color="#306998"/></linearGradient><linearGradient id="b" x1="9.033" y1="10.944" x2="7.46" y2="8.715" gradientUnits="userSpaceOnUse"><stop stop-color="#F4C20E"/><stop offset="1" stop-color="#FBDC3E"/></linearGradient></defs></svg>