<svg viewBox="0 0 16 16" fill="none" xmlns="http://www.w3.org/2000/svg">
  <path d="M7.25 7.5A.25.25 0 0 1 7 7.25v-3a.25.25 0 0 1 .5 0v3a.25.25 0 0 1-.25.25M5 8.25a.25.25 0 0 0 .5 0v-2.5a.25.25 0 0 0-.5 0zM4 7.25v.5a.25.25 0 0 0 .5 0v-.5a.25.25 0 0 0-.5 0M1 9.75v-1.5a.25.25 0 0 1 .5 0v1.5a.25.25 0 0 1-.5 0M0 10.25v1a.25.25 0 1 0 .5 0v-1a.25.25 0 1 0-.5 0M1 11.75a.25.25 0 1 0 .5 0v-1a.25.25 0 1 0-.5 0zM2 11.75a.25.25 0 1 0 .5 0v-.5a.25.25 0 1 0-.5 0zM2 9.75v-.5a.25.25 0 0 1 .5 0v.5a.25.25 0 0 1-.5 0M3 9.75a.25.25 0 0 0 .5 0v-1a.25.25 0 0 0-.5 0zM4.25 11a.25.25 0 0 1-.25-.25v-2a.25.25 0 0 1 .5 0v2a.25.25 0 0 1-.25.25M5.25 12a.25.25 0 0 1-.25-.25v-.5a.25.25 0 1 1 .5 0v.5a.25.25 0 0 1-.25.25M10 11.75a.25.25 0 1 0 .5 0v-.5a.25.25 0 1 0-.5 0zM12.25 12a.25.25 0 0 1-.25-.25v-.5a.25.25 0 1 1 .5 0v.5a.25.25 0 0 1-.25.25M11 11.75a.25.25 0 1 0 .5 0v-1a.25.25 0 1 0-.5 0zM6.25 12a.25.25 0 0 1-.25-.25v-1a.25.25 0 1 1 .5 0v1a.25.25 0 0 1-.25.25M7 11.75a.25.25 0 1 0 .5 0v-.5a.25.25 0 1 0-.5 0zM5 10.25v-1a.25.25 0 0 1 .5 0v1a.25.25 0 1 1-.5 0M6 9.25v-2.5a.25.25 0 0 1 .5 0v2.5a.25.25 0 0 1-.5 0M7 8.25v1a.25.25 0 0 0 .5 0v-1a.25.25 0 0 0-.5 0M5 4.25v.5a.25.25 0 0 0 .5 0v-.5a.25.25 0 0 0-.5 0M6 5.75v-1.5a.25.25 0 0 1 .5 0v1.5a.25.25 0 0 1-.5 0M8 6.25a.25.25 0 0 0 .5 0v-2a.25.25 0 0 0-.5 0zM10 5.75v-1.5a.25.25 0 1 1 .5 0v1.5a.25.25 0 1 1-.5 0M10 6.75v3.5a.25.25 0 1 0 .5 0v-3.5a.25.25 0 1 0-.5 0M9.25 8A.25.25 0 0 1 9 7.75v-3a.25.25 0 0 1 .5 0v3a.25.25 0 0 1-.25.25M9 10.75a.25.25 0 1 0 .5 0v-2a.25.25 0 0 0-.5 0zM8.25 10A.25.25 0 0 1 8 9.75v-2.5a.25.25 0 0 1 .5 0v2.5a.25.25 0 0 1-.25.25M4 4.75v1.5a.25.25 0 0 0 .5 0v-1.5a.25.25 0 0 0-.5 0M3 7.75v-1a.25.25 0 0 1 .5 0v1a.25.25 0 0 1-.5 0M3 5.25v.5a.25.25 0 0 0 .5 0v-.5a.25.25 0 0 0-.5 0M2 8.25v-1.5a.25.25 0 0 1 .5 0v1.5a.25.25 0 0 1-.5 0M15 7.75a.25.25 0 1 0 .5 0v-.5a.25.25 0 1 0-.5 0zM14.25 8a.25.25 0 0 1-.25-.25v-1.5a.25.25 0 1 1 .5 0v1.5a.25.25 0 0 1-.25.25M13 7.75a.25.25 0 1 0 .5 0v-1a.25.25 0 1 0-.5 0zM12 7.75v-1a.25.25 0 1 1 .5 0v1a.25.25 0 1 1-.5 0M13 5.25v.5a.25.25 0 1 0 .5 0v-.5a.25.25 0 1 0-.5 0M11 7.75v-.5a.25.25 0 1 1 .5 0v.5a.25.25 0 1 1-.5 0M12 4.75v1a.25.25 0 1 0 .5 0v-1a.25.25 0 1 0-.5 0M11 6.25v-2a.25.25 0 1 1 .5 0v2a.25.25 0 1 1-.5 0" fill="#CED0D6"></path>
</svg>
