<svg viewBox="0 0 16 16" fill="none" xmlns="http://www.w3.org/2000/svg">
  <path d="M11.998 13a1 1 0 1 0 0-2 1 1 0 0 0 0 2" fill="#3574F0"></path><path fill-rule="evenodd" clip-rule="evenodd" d="M13.12 15.676a.5.5 0 0 1-.469.324h-1.307a.5.5 0 0 1-.468-.324l-.25-.666a.5.5 0 0 0-.55-.317l-.7.116a.5.5 0 0 1-.516-.243l-.653-1.132a.5.5 0 0 1 .047-.568l.451-.548a.5.5 0 0 0 0-.636l-.451-.548a.5.5 0 0 1-.047-.568l.653-1.132a.5.5 0 0 1 .515-.243l.701.116a.5.5 0 0 0 .55-.317l.25-.666A.5.5 0 0 1 11.344 8h1.307a.5.5 0 0 1 .468.324l.25.666a.5.5 0 0 0 .55.317l.7-.116a.5.5 0 0 1 .516.243l.653 1.132a.5.5 0 0 1-.046.568l-.452.548a.5.5 0 0 0 0 .636l.452.548a.5.5 0 0 1 .046.568l-.653 1.132a.5.5 0 0 1-.515.243l-.701-.116a.5.5 0 0 0-.55.317zM11.69 15h.615l.127-.34a1.5 1.5 0 0 1 1.65-.954l.36.06.307-.532-.231-.281a1.5 1.5 0 0 1 0-1.906l.231-.281-.307-.532-.36.06a1.5 1.5 0 0 1-1.65-.953L12.305 9h-.614l-.128.34a1.5 1.5 0 0 1-1.651.954l-.36-.06-.306.532.231.281a1.5 1.5 0 0 1 0 1.906l-.231.281.307.532.359-.06a1.5 1.5 0 0 1 1.65.953z" fill="#3574F0"></path><path fill-rule="evenodd" clip-rule="evenodd" d="M12.309 15h-.614l-.128-.34a1.5 1.5 0 0 0-1.65-.954l-.36.06-.307-.532.231-.281a1.5 1.5 0 0 0 0-1.906l-.231-.281.307-.532.36.06a1.5 1.5 0 0 0 1.65-.953L11.695 9h.614l.127.34a1.5 1.5 0 0 0 1.651.954l.36-.06.306.532-.231.281a1.5 1.5 0 0 0 0 1.906l.231.281-.307.532-.359-.06a1.5 1.5 0 0 0-1.65.953zm.693-3a1 1 0 1 1-2 0 1 1 0 0 1 2 0" fill="#EDF3FF"></path><path d="M10 2.5a.5.5 0 0 1 .5-.5h3a.5.5 0 0 1 0 1h-2.182a6 6 0 0 1 2.653 4.403 5 5 0 0 0-1.055-.32A5 5 0 0 0 11 4v1.5a.5.5 0 0 1-1 0v-3M5.5 10a.5.5 0 0 1 .5.5v3a.5.5 0 0 1-.5.5h-3a.5.5 0 0 1 0-1h2.182A6.002 6.002 0 0 1 6.91 2.099a.5.5 0 1 1 .181.983A5.002 5.002 0 0 0 5 12v-1.5a.5.5 0 0 1 .5-.5" fill="#6C707E"></path>
</svg>
