<svg viewBox="0 0 13 13" fill="none" xmlns="http://www.w3.org/2000/svg">
  <circle cx="6.5" cy="6.5" r="6.5" fill="#F7F8FA"></circle><path fill-rule="evenodd" clip-rule="evenodd" d="M5 3.5a1.5 1.5 0 1 1 3 0v3a1.5 1.5 0 1 1-3 0zm2 0v3a.5.5 0 0 1-1 0v-3a.5.5 0 0 1 1 0" fill="#6C707E"></path><path d="M3.5 6a.5.5 0 0 1 .5.5 2.5 2.5 0 0 0 5 0 .5.5 0 0 1 1 0 3.5 3.5 0 0 1-3 3.465v.535a.5.5 0 0 1-1 0v-.535A3.5 3.5 0 0 1 3 6.5a.5.5 0 0 1 .5-.5" fill="#6C707E"></path><path d="M7 6.5v-3a.5.5 0 0 0-1 0v3a.5.5 0 0 0 1 0" fill="#EBECF0"></path>
</svg>
