<svg viewBox="0 0 16 16" fill="none" xmlns="http://www.w3.org/2000/svg">
  <path d="M11.854 1.146a.5.5 0 0 0-.708.708L12.293 3H2.5a.5.5 0 0 0 0 1h9.793l-1.147 1.146a.5.5 0 0 0 .708.708l2-2a.5.5 0 0 0 0-.708z" fill="#CED0D6"></path><path fill-rule="evenodd" clip-rule="evenodd" d="M4.5 15C3.12 15 2 13.21 2 11s1.12-4 2.5-4h7c1.38 0 2.5 1.79 2.5 4s-1.12 4-2.5 4zm-.92-6.298C3.927 8.146 4.28 8 4.5 8h5.346C9.327 8.733 9 9.805 9 11s.327 2.267.846 3H4.5c-.221 0-.573-.146-.92-.702C3.242 12.758 3 11.948 3 11c0-.947.242-1.757.58-2.298M11.5 14c.221 0 .573-.146.92-.702.338-.54.58-1.35.58-2.298 0-.947-.242-1.757-.58-2.298C12.073 8.146 11.72 8 11.5 8s-.573.146-.92.702c-.338.54-.58 1.35-.58 2.298 0 .947.242 1.757.58 2.298.347.556.699.702.92.702" fill="#CED0D6"></path><path d="M4.5 8c-.221 0-.573.146-.92.702C3.242 9.242 3 10.052 3 11c0 .947.242 1.757.58 2.298.347.556.699.702.92.702h5.346C9.327 13.267 9 12.195 9 11s.327-2.267.846-3zM12.42 13.298c-.347.556-.699.702-.92.702s-.573-.146-.92-.702c-.338-.54-.58-1.35-.58-2.298 0-.947.242-1.757.58-2.298.347-.556.699-.702.92-.702s.573.146.92.702c.338.54.58 1.35.58 2.298 0 .947-.242 1.757-.58 2.298" fill="#43454A"></path>
</svg>
