<svg viewBox="0 0 16 16" fill="none" xmlns="http://www.w3.org/2000/svg">
  <path d="M8.5 8a.5.5 0 0 1 .5.5v.826l.181-.164A4 4 0 0 1 12.001 8a4.005 4.005 0 0 1 3.96 3.43.5.5 0 1 1-.991.14 2.97 2.97 0 0 0-.849-1.691A3 3 0 0 0 12.002 9c-.83 0-1.579.335-2.122.879l-.009.009-.124.112h.754a.5.5 0 0 1 0 1h-2a.5.5 0 0 1-.5-.5v-2a.5.5 0 0 1 .5-.5M8.465 12.005a.5.5 0 0 1 .566.424c.093.656.4 1.244.848 1.692A3 3 0 0 0 12 15c.829 0 1.578-.335 2.122-.879l.008-.009.119-.112H13.5a.5.5 0 0 1 0-1h2a.5.5 0 0 1 .5.5v2a.5.5 0 0 1-1 0v-.834l-.176.167A4 4 0 0 1 12 16a4 4 0 0 1-2.828-1.172 4 4 0 0 1-1.131-2.257.5.5 0 0 1 .424-.566" fill="#548AF7"></path><path d="M15.341 2.32a2.44 2.44 0 0 0-1.368-1.212c-.697-.234-1.513-.11-2.301.579a.5.5 0 0 0 .658.753c.549-.48.999-.493 1.324-.384.363.122.655.427.788.701l.005.013a1.3 1.3 0 0 1 .062.178c.047.243-.008.584-.225.916a1.54 1.54 0 0 1-1.32.706c-.395 0-.83-.165-1.4-.45q-.225-.115-.477-.248c-.435-.229-.928-.488-1.451-.7-1.516-.617-3.405-.906-5.933.341-.662.326-.933 1.087-.72 1.75l.001.002Q1.535 6.297.893 7.857C.42 9.003.286 10.328.439 11.808a.6.6 0 0 0 .597.539h1.192a.72.72 0 0 0 .69-.537.987.987 0 0 1 1.904 0 .72.72 0 0 0 .69.536h1.5a5 5 0 0 1 .03-1H5.72a1.987 1.987 0 0 0-3.7 0h-.617c-.085-1.207.056-2.24.414-3.107.313-.76.8-1.412 1.482-1.96l.382 1.255.002.007c.18.527.624.804 1.055.9.422.093.896.031 1.273-.18a9.8 9.8 0 0 0 1.915-1.344.5.5 0 0 0-.669-.744c-.526.474-1.1.873-1.725 1.211l-.007.004a.85.85 0 0 1-.571.076c-.186-.041-.283-.132-.322-.239l-.578-1.9-.002-.009-.117-.36a.45.45 0 0 1 .21-.546c2.235-1.102 3.823-.837 5.114-.312.476.193.898.415 1.317.636q.269.141.54.28c.577.288 1.198.556 1.847.556.549 0 1.023-.158 1.41-.41-.231.587-.649 1.251-1.384 1.938q.56.114 1.07.344c1.028-1.1 1.434-2.184 1.541-3.088a4.3 4.3 0 0 0-.115-1.63 1.6 1.6 0 0 0-.144-.403" fill="#CED0D6"></path><path d="M9.144 6.016c-.037.107.02.218.115.28l.889.57c.095.061.22.067.302-.011a.798.798 0 1 0-1.306-.84" fill="#CED0D6"></path>
</svg>
