<svg viewBox="0 0 16 16" fill="none" xmlns="http://www.w3.org/2000/svg">
  <path d="M1 3.867C1 2.836 1.731 2 2.633 2h3.489a1 1 0 0 1 .721.308L8.467 4H13a2 2 0 0 1 2 2v2.558l-.031-.029c-.37-.34-.854-.529-1.356-.529h-3.226c-.502 0-.986.189-1.356.53L7.484 9.952a1.5 1.5 0 0 0-.162 2.033L8.908 14H2.633C1.731 14 1 13.164 1 12.133z" fill="#43454A"></path><path d="M2.633 3h3.489L8.04 5H13a1 1 0 0 1 1 1v2.038c.36.07.695.24.969.491l.031.029V6a2 2 0 0 0-2-2H8.467L6.843 2.308A1 1 0 0 0 6.122 2H2.633C1.731 2 1 2.836 1 3.867v8.266C1 13.164 1.731 14 2.633 14h6.275l-.787-1H2.633C2.405 13 2 12.742 2 12.133V3.867C2 3.258 2.405 3 2.633 3" fill="#CED0D6"></path><path fill-rule="evenodd" clip-rule="evenodd" d="m15.893 11.367-3.5 4.442a.5.5 0 0 1-.787 0l-3.499-4.442a.5.5 0 0 1 .055-.678l1.547-1.424c.185-.17.427-.265.678-.265h3.226c.251 0 .493.095.678.265l1.547 1.424a.5.5 0 0 1 .055.678" fill="#402929"></path><path fill-rule="evenodd" clip-rule="evenodd" d="m12 14.69 2.819-3.578-1.206-1.11h-3.226l-1.206 1.11zm3.893-3.323-3.5 4.442a.5.5 0 0 1-.787 0l-3.499-4.442a.5.5 0 0 1 .055-.678l1.547-1.424c.185-.17.427-.265.678-.265h3.226c.251 0 .493.095.678.265l1.547 1.424a.5.5 0 0 1 .055.678" fill="#DB5C5C"></path>
</svg>
