<svg viewBox="0 0 16 16" fill="none" xmlns="http://www.w3.org/2000/svg">
  <path fill-rule="evenodd" clip-rule="evenodd" d="M12.146 9.146a.5.5 0 0 1 .708 0l3 3a.5.5 0 0 1 0 .708l-3 3a.5.5 0 0 1-.708-.708L14.293 13H8.5a.5.5 0 0 1 0-1h5.793l-2.147-2.146a.5.5 0 0 1 0-.708" fill="#6C707E"></path><path d="M14.945 9.824c.305-2.16-.68-4.436-2.524-6.28C9.556.677 5.603-.035 2.77 2.8s-2.02 6.936.72 9.675c2.215 2.216 5.292 3.223 7.92 1.996l.03-.032.44-.439H8.5a1.5 1.5 0 0 1 0-3h3.379l-.44-.44a1.5 1.5 0 0 1 2.122-2.12z" fill="#F2FCF3"></path><path d="M14.945 9.824c.305-2.16-.68-4.436-2.524-6.28C9.556.677 5.603-.035 2.77 2.8s-2.02 6.936.72 9.675c2.215 2.216 5.292 3.223 7.92 1.996l.03-.032.44-.439H8.5c-.205 0-.4-.041-.577-.115-1.304-.27-2.617-1.01-3.725-2.118-1.236-1.235-2-2.743-2.163-4.205-.144-1.29.174-2.574 1.104-3.684L10.26 11h1.417L3.846 3.169c1.115-.943 2.372-1.273 3.63-1.138 1.429.153 2.93.915 4.237 2.22 1.312 1.313 2.09 2.807 2.253 4.228q.022.197.03.395z" fill="#208A3C"></path>
</svg>
