<svg width="20" height="20" viewBox="0 0 20 20" fill="none"><path fill-rule="evenodd" clip-rule="evenodd" d="M12.367 14.323a.75.75 0 0 0-1.233.854l.675.974A4.99 4.99 0 0 0 10 20h10a4.99 4.99 0 0 0-1.808-3.849l.675-.974a.751.751 0 0 0-1.233-.854l-.729 1.053A5 5 0 0 0 15 15c-.675 0-1.317.133-1.904.376zM12 18a1 1 0 1 1 2 0 1 1 0 0 1-2 0m6 0a1 1 0 1 0-2 0 1 1 0 0 0 2 0" fill="#6C707E"/><path d="M10 4a8 8 0 0 0-8 8c0 1.19.258 2.454.7 3.5h6.928q.095.267.25.498-.367.47-.645 1.002H2.059a.48.48 0 0 1-.428-.252C.91 15.382.5 13.628.5 12a9.5 9.5 0 1 1 18.964.855 2.24 2.24 0 0 0-1.48-.34Q18 12.258 18 12a8 8 0 0 0-8-8" fill="#6C707E"/><path fill-rule="evenodd" clip-rule="evenodd" d="M12.144 12.534a2.3 2.3 0 0 0 .006-1.652l2.721-2.26a.85.85 0 1 0-1.086-1.307L11 9.628a2.3 2.3 0 1 0-1.361 4.344 2.25 2.25 0 0 1 2.506-1.438M10.8 11.7a.8.8 0 1 1-1.6 0 .8.8 0 0 1 1.6 0" fill="#6C707E"/></svg>