<svg viewBox="0 0 16 16" fill="none" xmlns="http://www.w3.org/2000/svg">
  <path fill-rule="evenodd" clip-rule="evenodd" d="M11 10.5a.5.5 0 0 1 .5-.5h4a.5.5 0 0 1 .5.5v4a.5.5 0 0 1-1 0v-2.793l-4.146 4.147a.5.5 0 0 1-.708-.708L14.293 11H11.5a.5.5 0 0 1-.5-.5" fill="#548AF7"></path><path d="M7 4q-.357 0-.694.069a1.7 1.7 0 0 1 3.39 0A3.5 3.5 0 0 0 9 4zM7 5a2.5 2.5 0 0 0-2.5 2.5V10a3.5 3.5 0 0 0 6.444 1.894A1.5 1.5 0 0 1 11.5 9V7.5A2.5 2.5 0 0 0 9 5z" fill="#43454A"></path><path fill-rule="evenodd" clip-rule="evenodd" d="M10.69 4.435q.01-.117.01-.235a2.7 2.7 0 1 0-5.39.234c-.47.26-.876.626-1.183 1.066l-2.11-1.14a.5.5 0 1 0-.475.88l2.136 1.154c-.115.348-.178.72-.178 1.106v1H1a.5.5 0 0 0 0 1h2.5v.5c0 .49.078.96.222 1.401L1.53 12.667a.5.5 0 0 0 .5.866l2.11-1.218a4.5 4.5 0 0 0 5.578 1.845l2.16-2.16H11.5c-.196 0-.384-.038-.556-.106A3.5 3.5 0 0 1 4.5 10V7.5A2.5 2.5 0 0 1 7 5h2a2.5 2.5 0 0 1 2.5 2.5V9h1V7.5c0-.386-.063-.758-.178-1.106l2.133-1.154a.5.5 0 1 0-.476-.88L11.873 5.5a3.5 3.5 0 0 0-1.182-1.065m-4.384-.366Q6.643 4 7 4h2q.357 0 .696.07a1.7 1.7 0 0 0-3.39-.001" fill="#CED0D6"></path>
</svg>
