<svg viewBox="0 0 16 16" fill="none" xmlns="http://www.w3.org/2000/svg">
  <g clip-path="url(#a)"><path d="M14.947 9.724a.5.5 0 1 0-.894-.447L13.19 11H10.5a.5.5 0 0 0 0 1h2.191l-.5 1H10.5a.5.5 0 0 0 0 1h1.191l-.638 1.277a.5.5 0 1 0 .894.447L12.81 14H15.5a.5.5 0 0 0 0-1h-2.19l.5-1h1.69a.5.5 0 0 0 0-1h-1.19z" fill="#548AF7"></path><path d="M4 3a1 1 0 0 0-1 1v8a1 1 0 0 0 1 1h5.085a1.5 1.5 0 0 1 .297-.5A1.5 1.5 0 0 1 10.5 10h2.073L13 9.146V4a1 1 0 0 0-1-1z" fill="#43454A"></path><path d="M4 2a2 2 0 0 0-2 2v8a2 2 0 0 0 2 2h5.085a1.5 1.5 0 0 1 0-1H4a1 1 0 0 1-1-1V4a1 1 0 0 1 1-1h8a1 1 0 0 1 1 1v5.146l.159-.316c.18-.362.488-.619.841-.744V4a2 2 0 0 0-2-2z" fill="#CED0D6"></path><path d="M11 10V8.335c0-.486-.064-.903-.246-1.248a1.86 1.86 0 0 0-.758-.793 2.26 2.26 0 0 0-1.112-.268q-.69 0-1.203.325c-.273.17-.512.401-.692.691l.003-.143V4H6v8h.992V8.557q0-.478.2-.85c.133-.25.341-.444.58-.58q.36-.211.827-.211.44 0 .753.182.318.177.49.524.17.342.17.827v1.632a1.5 1.5 0 0 1 .488-.08z" fill="#CED0D6"></path></g><defs><clipPath id="a"><path fill="#fff" d="M0 0H16V16H0z"></path></clipPath></defs>
</svg>
