<svg viewBox="0 0 16 16" fill="none" xmlns="http://www.w3.org/2000/svg">
  <path d="M7 0a1 1 0 0 0-1 1v2a1 1 0 0 0 1 1h2a1 1 0 0 0 1-1V1a1 1 0 0 0-1-1zM6 5a1 1 0 0 0-1 1v4a1 1 0 0 0 1 1h4a1 1 0 0 0 1-1V6a1 1 0 0 0-1-1zM11 12a1 1 0 0 0-1 1v2a1 1 0 0 0 1 1h2a1 1 0 0 0 1-1v-2a1 1 0 0 0-1-1zM2 13a1 1 0 0 1 1-1h2a1 1 0 0 1 1 1v2a1 1 0 0 1-1 1H3a1 1 0 0 1-1-1z" fill="#EBECF0"></path><path fill-rule="evenodd" clip-rule="evenodd" d="M6 1a1 1 0 0 1 1-1h2a1 1 0 0 1 1 1v2a1 1 0 0 1-1 1h-.5v1H10a1 1 0 0 1 1 1v4c0 .351-.18.66-.455.838L11.707 12H13a1 1 0 0 1 1 1v2a1 1 0 0 1-1 1h-2a1 1 0 0 1-1-1v-2c0-.351.18-.66.455-.838L9.293 11H6.707l-1.162 1.162A1 1 0 0 1 6 13v2a1 1 0 0 1-1 1H3a1 1 0 0 1-1-1v-2a1 1 0 0 1 1-1h1.293l1.162-1.162A1 1 0 0 1 5 10V6a1 1 0 0 1 1-1h1.5V4H7a1 1 0 0 1-1-1zm1 0h2v2H7zm-1 9V6h4v4zm7 3h-2v2h2zM3 13h2v2H3z" fill="#6C707E"></path>
</svg>
