<svg viewBox="0 0 16 16" fill="none" xmlns="http://www.w3.org/2000/svg">
  <path d="M3.988 9.778q.015-.578-.383-.923-.397-.345-1.072-.345H2V7.43h.533q.675 0 1.072-.345.398-.345.383-.922l-.03-1.583q-.015-.78.322-1.365.345-.585.983-.9Q5.9 2 6.763 2H7.5v1.005h-.73q-.78 0-1.237.435-.45.427-.443 1.163l.03 1.567q.015.765-.412 1.253-.428.48-1.155.532.728.135 1.155.63.427.488.412 1.185l-.03 1.777q-.015.66.398 1.05.42.398 1.132.398h.88V14h-.887q-.802 0-1.41-.3-.6-.292-.93-.848-.322-.547-.315-1.282zM12.015 9.778q-.015-.578.382-.923.398-.345 1.072-.345H14V7.43h-.53q-.675 0-1.073-.345t-.383-.922l.03-1.583q.015-.78-.33-1.365a2.24 2.24 0 0 0-.975-.9Q10.103 2 9.24 2H8.5v1.005h.732q.78 0 1.23.435.457.427.45 1.163l-.03 1.567q-.015.765.412 1.253.427.48 1.156.532-.728.135-1.155.63-.428.488-.413 1.185l.03 1.777q.015.66-.405 1.05-.412.398-1.125.398H8.5V14h.89q.802 0 1.402-.3.607-.292.93-.848.33-.547.322-1.282z" fill="#EDF3FF"></path><path d="M7.5 2v1.005h-.73q-.78 0-1.237.435-.45.427-.443 1.163l.03 1.567q.015.765-.412 1.253-.428.48-1.155.532.728.135 1.155.63.427.488.412 1.185l-.03 1.777q-.015.66.398 1.05.42.398 1.132.398h.88V14h1v-1.005h.882q.712 0 1.125-.397.42-.39.405-1.05l-.03-1.778q-.015-.697.412-1.185.427-.495 1.156-.63-.728-.052-1.155-.532-.428-.488-.413-1.253l.03-1.567q.008-.735-.45-1.163-.45-.435-1.23-.435H8.5V2z" fill="#EDF3FF"></path><path d="M3.988 9.778q.015-.578-.383-.923-.397-.345-1.072-.345H2V7.43h.533q.675 0 1.072-.345.398-.345.383-.922l-.03-1.583q-.015-.78.322-1.365.345-.585.983-.9Q5.9 2 6.763 2H7.5v1.005h-.73q-.78 0-1.237.435-.45.427-.443 1.163l.03 1.567q.015.765-.412 1.253-.428.48-1.155.532.728.135 1.155.63.427.488.412 1.185l-.03 1.777q-.015.66.398 1.05.42.398 1.132.398h.88V14h-.887q-.802 0-1.41-.3-.6-.292-.93-.848-.322-.547-.315-1.282zM12.015 9.778q-.015-.578.382-.923.398-.345 1.072-.345H14V7.43h-.53q-.675 0-1.073-.345t-.383-.922l.03-1.583q.015-.78-.33-1.365a2.24 2.24 0 0 0-.975-.9Q10.103 2 9.24 2H8.5v1.005h.732q.78 0 1.23.435.457.427.45 1.163l-.03 1.567q-.015.765.412 1.253.427.48 1.156.532-.728.135-1.155.63-.428.488-.413 1.185l.03 1.777q.015.66-.405 1.05-.412.398-1.125.398H8.5V14h.89q.802 0 1.402-.3.607-.292.93-.848.33-.547.322-1.282z" fill="#3574F0"></path>
</svg>
