<svg viewBox="0 0 16 16" fill="none" xmlns="http://www.w3.org/2000/svg">
  <path fill="#020303" d="M1 1H15V8H1z"></path><path fill="#499C54" d="M1 8H15V15H1z"></path><path d="M2 2v1.035h.855v2.943h-.832V7H5V5.978h-.855V3.035h.832V2zM9.5 2v1.025h.564v2.95h-.549V7h1.4V4.148l.834 2.851h.017l.819-2.851V7H14V5.975h-.564v-2.95h.549V2h-1.578l-.653 2.286L11.093 2z" fill="#fff"></path><path fill-rule="evenodd" clip-rule="evenodd" d="M5.5 2v1.018h.628v2.946H5.5V7h2.374c.42 0 .739-.346.739-.346l.25-.327c.07-.08.111-.345.111-.345L9 5.655c0-.163-.06-.346-.06-.346l-.13-.327c-.064-.168-.266-.346-.266-.346v-.319c0 .004.202-.17.267-.335l.129-.321s.06-.18.06-.34L8.974 3s-.04-.262-.111-.34l-.25-.321S8.295 2 7.873 2zm2.494 1.025h-.92v.95h.92zm-.92 1.988h.92v.95h-.92zM2.021 13.999v-5h1.17c1.237 0 1.83.794 1.83 2.36 0 1.698-.527 2.64-1.92 2.64zm.989-.993v-3h.39c.412 0 .61.477.61 1.416 0 1.02-.176 1.584-.64 1.584zm3.484.957v-5H7.93c.83 0 1.438.377 1.438 1.142s-.318.98-.535 1.043c.459.125.662.572.662 1.351 0 .883-.605 1.464-1.617 1.464zm.992-3.27h.405c.424 0 .595-.172.595-.502 0-.297-.18-.498-.538-.498h-.462zm0 .766v1.8h.423c.375 0 .578-.337.578-.912 0-.6-.229-.888-.638-.888zM14 13.999l-2.997.007s-.054-1.27.71-2.123c.64-.71 1.287-1.001 1.287-1.591a.49.49 0 0 0-.51-.392c-.44 0-.488.466-.488.466H10.98C10.986 9.664 11.649 9 12.48 9c.846 0 1.52.605 1.52 1.293 0 .71-.493 1.053-1.14 1.756.013-.015-.671.61-.752.954H14z" fill="#fff"></path>
</svg>
