<svg viewBox="0 0 16 16" fill="none" xmlns="http://www.w3.org/2000/svg">
  <path fill-rule="evenodd" clip-rule="evenodd" d="M8.02 2.94c.19.02.331.184.322.374v.091a3 3 0 0 1-.041.282q-.042.255-.033.513a.18.18 0 0 0 .074.11l.02.014.002.025.001.023.004.063a3.87 3.87 0 0 1 2.379 1.148l.092-.066.02.004a.3.3 0 0 0 .144-.014 2.7 2.7 0 0 0 .37-.349q.09-.109.194-.207l.003-.003.063-.05a.343.343 0 1 1 .425.534l-.065.053q-.12.078-.246.143-.224.128-.421.296a.18.18 0 0 0-.04.126l.002.024-.09.083c.498.762.71 1.676.596 2.579l.097.028.01.018a.3.3 0 0 0 .102.104q.248.066.505.083.143.003.284.022h.005l.083.02a.343.343 0 0 1 .285.415.34.34 0 0 1-.432.252h-.01v-.001l-.032-.007-.004-.001-.04-.009h-.002a2 2 0 0 1-.266-.103 3 3 0 0 0-.495-.145.18.18 0 0 0-.124.048l-.018.016-.106-.018c-.286.864-.869 1.599-1.645 2.073q.014.038.032.074l.013.026-.016.023a.18.18 0 0 0-.024.132q.11.238.255.45.087.113.16.236l.002.003.037.077a.343.343 0 0 1-.15.48.34.34 0 0 1-.467-.187l-.037-.076a3 3 0 0 1-.086-.272 2.7 2.7 0 0 0-.194-.477.18.18 0 0 0-.113-.067l-.026-.003-.05-.095c-.853.311-1.79.31-2.641-.007l-.057.103-.024.003a.2.2 0 0 0-.097.047.8.8 0 0 0-.112.22l-.037.104q-.03.092-.065.18-.035.136-.084.27l-.002.003-.036.073a.343.343 0 0 1-.606.064.34.34 0 0 1-.01-.356l.038-.081q.073-.123.16-.237.15-.219.255-.462a.24.24 0 0 0-.023-.13l-.01-.021.044-.092a3.84 3.84 0 0 1-1.65-2.065l-.109.018-.016-.012a.27.27 0 0 0-.135-.049 2.7 2.7 0 0 0-.493.145q-.13.056-.266.097l-.009.002-.083.009a.343.343 0 0 1-.431-.252.343.343 0 0 1 .287-.415l.007-.001h.003l.077-.017q.141-.02.284-.022.257-.018.504-.083a.35.35 0 0 0 .104-.106l.01-.016.099-.029a3.82 3.82 0 0 1 .584-2.583l-.079-.072v-.02a.3.3 0 0 0-.047-.138 2.5 2.5 0 0 0-.422-.296 3 3 0 0 1-.246-.143l-.004-.003-.059-.047a.36.36 0 0 1-.082-.5l.002-.002a.33.33 0 0 1 .273-.121.4.4 0 0 1 .232.087l.068.054q.103.098.194.207.174.191.382.345c.04.02.087.025.131.012l.024-.007.09.064a3.8 3.8 0 0 1 2.39-1.15l.005-.1.015-.014a.27.27 0 0 0 .08-.122 2.7 2.7 0 0 0-.03-.512 3 3 0 0 1-.04-.282v-.084a.36.36 0 0 1 .333-.376h.015zM5.96 6.078l1.203.854a.2.2 0 0 0 .21.02.21.21 0 0 0 .12-.179l.002-.048h.007l.081-1.421q-.124.016-.246.042c-.517.116-.993.37-1.378.732m2.46-.773.083 1.468a.207.207 0 0 0 .336.16l.002-.002 1.193-.848a3 3 0 0 0-1.615-.778M6.42 8.097v-.005l.037-.01a.207.207 0 0 0 .082-.356l-.018-.015v-.007l-1.084-.967a2.95 2.95 0 0 0-.394 1.756zm4.137-1.357-1.092.978a.21.21 0 0 0-.066.203.2.2 0 0 0 .146.153l.037.01v.006l1.379.397a3 3 0 0 0-.404-1.747m-1.25 2.312-.002.006-.036.002a.208.208 0 0 0-.18.289l.564 1.364c.513-.343.91-.838 1.123-1.414L9.32 9.053zm-2.405.311v-.006l.004-.009a.206.206 0 0 0-.16-.286l-.004.005-.03-.004h-.039l-1.442.245a2.96 2.96 0 0 0 1.116 1.398zm1.3.444h-.006l-.014-.026a.2.2 0 0 0-.13-.102l-.056.002a.21.21 0 0 0-.177.103l-.714 1.284c.504.16 1.042.183 1.559.066l.234-.07zM7.79 7.812h.421l.257.326-.094.408-.378.182-.378-.182-.09-.408z" fill="#6C707E"></path><path fill-rule="evenodd" clip-rule="evenodd" d="m7.952 1.209-.02.001a.9.9 0 0 0-.336.094L2.72 3.629a.92.92 0 0 0-.503.627l-1.193 5.22a.9.9 0 0 0 .183.785l3.37 4.189a.93.93 0 0 0 .726.343h5.404c.282 0 .55-.132.727-.347l3.368-4.19a.9.9 0 0 0 .175-.781L13.775 4.25a.93.93 0 0 0-.503-.627l-4.868-2.32a.94.94 0 0 0-.448-.096zM2.007 9.66l1.176-5.144L8 2.22l4.809 2.292 1.185 5.154-3.318 4.128H5.331z" fill="#6C707E"></path>
</svg>
