<svg width="16" height="16" viewBox="0 0 16 16" fill="none"><g clip-path="url(#a)"><path d="M0 10a1 1 0 0 1 1-1h14a1 1 0 0 1 1 1v5a1 1 0 0 1-1 1H1a1 1 0 0 1-1-1z" fill="#6C707E"/><path d="M2.5 10.5v4H4A1.5 1.5 0 0 0 5.5 13v-1A1.5 1.5 0 0 0 4 10.5zM7.5 10.5v4H9a1.5 1.5 0 0 0 1.5-1.5v-1A1.5 1.5 0 0 0 9 10.5zM12.5 10v4.5H15" stroke="#F7F8FA"/><path fill-rule="evenodd" clip-rule="evenodd" d="M2.017 3.392H2V8h3.998a8.6 8.6 0 0 1-1.709-.434c-.464-.177-.805-.376-1.021-.572C3.05 6.8 3 6.646 3 6.547v-1.45c.272.175.588.328.932.46 1.066.407 2.504.648 4.068.648s3.002-.241 4.068-.648c.344-.132.66-.285.932-.46v1.45c0 .1-.051.252-.268.447-.216.196-.557.395-1.021.572A8.5 8.5 0 0 1 10 8H14V3.392h-.017c-.062-.388-.29-.717-.58-.979-.34-.307-.804-.561-1.335-.764C11.002 1.24 9.564 1 8 1s-3.002.241-4.068.649c-.53.203-.995.457-1.335.764-.29.262-.518.591-.58.98m1.25-.237c-.216.196-.267.348-.267.448s.051.252.268.447c.216.196.557.395 1.021.573.926.353 2.237.582 3.711.582s2.786-.229 3.71-.582c.465-.178.806-.377 1.022-.573.217-.195.268-.347.268-.447s-.051-.252-.268-.448c-.216-.195-.557-.395-1.021-.572C10.785 2.229 9.474 2 8 2s-2.785.23-3.71.583c-.465.177-.806.377-1.022.572" fill="#6C707E"/></g><defs><clipPath id="a"><path fill="#fff" d="M0 0H16V16H0z"/></clipPath></defs></svg>