<svg viewBox="0 0 16 16" fill="none" xmlns="http://www.w3.org/2000/svg">
  <path d="M9.658 1.702a.6.6 0 0 1 .419.738L6.922 13.88a.6.6 0 0 1-1.157-.32L8.92 2.122a.6.6 0 0 1 .738-.419M5.412 4.667a.6.6 0 0 1-.093.843L1.96 8.197l3.359 2.687a.6.6 0 0 1-.75.937L.039 8.197l4.53-3.624a.6.6 0 0 1 .843.094M14.946 7.386l-.518 1.123L10.68 5.51a.6.6 0 0 1 .75-.937z" fill="#E66D17"></path><path d="M15.421 14.726C16.79 12.78 15.304 9 15.304 9s-.603 1.309-2.255 1.917c-1.444.53-2.408.084-3.577.662C8.49 12.064 8 12.819 8 13.955c0 .694.324 1.148.821 1.448 5.12-.677 6.08-3.91 6.08-3.91s-.537 3.444-4.932 4.32c.653.132 1.381.166 2.039.183 1.424.038 2.67-.212 3.413-1.27" fill="#55A76A"></path>
</svg>
