<svg viewBox="0 0 16 16" fill="none" xmlns="http://www.w3.org/2000/svg">
  <path d="M14.65 10.193a7 7 0 1 0-4.456 4.456 3.5 3.5 0 0 1 4.456-4.456" fill="#EDF3FF"></path><path d="M8.132 11.5c1.49 0 2.766-.9 3.08-2.175h-1.015c-.315.73-1.093 1.252-2.065 1.252-1.339 0-2.306-1.074-2.306-2.577s.967-2.577 2.306-2.577c.972 0 1.75.522 2.065 1.252h1.015C10.898 5.4 9.622 4.5 8.132 4.5 6.213 4.5 4.787 5.994 4.787 8s1.426 3.5 3.345 3.5" fill="#3574F0"></path><path d="M16 13.5a2.5 2.5 0 1 1-5 0 2.5 2.5 0 0 1 5 0" fill="#55A76A"></path><path d="M10.004 13.657a6 6 0 1 1 3.654-3.654q.52.025.992.19a7 7 0 1 0-4.456 4.456 3.5 3.5 0 0 1-.19-.992" fill="#3574F0"></path>
</svg>
