<svg width="16" height="16" viewBox="0 0 16 16" fill="none"><path d="M1 3.867C1 2.836 1.731 2 2.633 2h3.489a1 1 0 0 1 .721.308L8.467 4H13a2 2 0 0 1 2 2v2H8.5A1.5 1.5 0 0 0 7 9.5V14H2.633C1.731 14 1 13.164 1 12.133z" fill="#43454A"/><path d="M2.633 3h3.489L8.04 5H13a1 1 0 0 1 1 1v2h1V6a2 2 0 0 0-2-2H8.467L6.843 2.308A1 1 0 0 0 6.122 2H2.633C1.731 2 1 2.836 1 3.867v8.266C1 13.164 1.731 14 2.633 14H7v-1H2.633C2.405 13 2 12.742 2 12.133V3.867C2 3.258 2.405 3 2.633 3" fill="#CED0D6"/><path fill-rule="evenodd" clip-rule="evenodd" d="M8 9.5a.5.5 0 0 1 .5-.5h7a.5.5 0 0 1 .5.5v2a.5.5 0 0 1-.5.5h-7a.5.5 0 0 1-.5-.5zm1 .5h1v1H9zm2 0v1h4v-1zM8 13.5a.5.5 0 0 1 .5-.5h7a.5.5 0 0 1 .5.5v2a.5.5 0 0 1-.5.5h-7a.5.5 0 0 1-.5-.5zm1 .5h1v1H9zm2 0v1h4v-1z" fill="#548AF7"/></svg>