<svg viewBox="0 0 16 16" fill="none" xmlns="http://www.w3.org/2000/svg">
  <path fill-rule="evenodd" clip-rule="evenodd" d="M6 3a1 1 0 0 1 1-1h2a1 1 0 0 1 1 1v10a1 1 0 0 1-1 1H7a1 1 0 0 1-1-1zm3 0H7v10h2z" fill="#548AF7"></path><path d="M7 3h2v10H7z" fill="#25324D"></path><path fill-rule="evenodd" clip-rule="evenodd" d="M12 5a1 1 0 0 0-1 1v7a1 1 0 0 0 1 1h2a1 1 0 0 0 1-1V6a1 1 0 0 0-1-1zm0 1h2v7h-2zM2 7a1 1 0 0 0-1 1v5a1 1 0 0 0 1 1h2a1 1 0 0 0 1-1V8a1 1 0 0 0-1-1zm0 1h2v5H2z" fill="#CED0D6"></path><path d="M14 6h-2v7h2zM4 8H2v5h2z" fill="#43454A"></path>
</svg>
