<svg viewBox="0 0 16 16" fill="none" xmlns="http://www.w3.org/2000/svg">
  <path fill-rule="evenodd" clip-rule="evenodd" d="M10.69 4.435q.01-.117.01-.235a2.7 2.7 0 1 0-5.39.234c-.47.26-.876.626-1.183 1.066l-2.11-1.14a.5.5 0 1 0-.475.88l2.136 1.154c-.115.348-.178.72-.178 1.106v1H1a.5.5 0 0 0 0 1h2.5v.5c0 .49.078.96.222 1.401L1.53 12.667a.5.5 0 0 0 .5.866l2.11-1.218A4.5 4.5 0 0 0 8 14.5a4.5 4.5 0 0 0 3.859-2.184l2.108 1.217a.5.5 0 1 0 .5-.866l-2.19-1.264A4.5 4.5 0 0 0 12.5 10v-.5H15a.5.5 0 0 0 0-1h-2.5v-1c0-.386-.063-.758-.178-1.106l2.133-1.154a.5.5 0 1 0-.476-.88L11.873 5.5a3.5 3.5 0 0 0-1.182-1.065m-4.384-.366Q6.643 4 7 4h2q.357 0 .696.07a1.7 1.7 0 0 0-3.39-.001M4.5 7.5A2.5 2.5 0 0 1 7 5h2a2.5 2.5 0 0 1 2.5 2.5V10a3.5 3.5 0 1 1-7 0z" fill="#57965C"></path><path d="M7 4q-.357 0-.694.069a1.7 1.7 0 0 1 3.39 0A3.5 3.5 0 0 0 9 4zM7 5a2.5 2.5 0 0 0-2.5 2.5V10a3.5 3.5 0 1 0 7 0V7.5A2.5 2.5 0 0 0 9 5z" fill="#253627"></path>
</svg>
