<svg viewBox="0 0 16 16" fill="none" xmlns="http://www.w3.org/2000/svg">
  <path fill-rule="evenodd" clip-rule="evenodd" d="M12.5 9a.5.5 0 0 1 .5.5V12h2.5a.5.5 0 0 1 0 1H13v2.5a.5.5 0 0 1-1 0V13H9.5a.5.5 0 0 1 0-1H12V9.5a.5.5 0 0 1 .5-.5" fill="#548AF7"></path><path d="M2.633 2C1.731 2 1 2.836 1 3.867v8.266C1 13.164 1.731 14 2.633 14H8v-3a3 3 0 0 1 3-3h4V6a2 2 0 0 0-2-2H8.467L6.843 2.308A1 1 0 0 0 6.122 2z" fill="#43454A"></path><path d="M6.122 3H2.633C2.405 3 2 3.258 2 3.867v8.266c0 .609.405.867.633.867H8v1H2.633C1.731 14 1 13.164 1 12.133V3.867C1 2.836 1.731 2 2.633 2h3.489a1 1 0 0 1 .721.308L8.467 4H13a2 2 0 0 1 2 2v2h-1V6a1 1 0 0 0-1-1H8.04z" fill="#CED0D6"></path><rect x="9" y="8.998" width="7" height="7" rx="1" fill="#000"></rect><path d="M10.5 14.498h2" stroke="#fff" stroke-linecap="round" stroke-linejoin="round"></path>
</svg>
