<svg viewBox="0 0 16 16" fill="none" xmlns="http://www.w3.org/2000/svg">
  <path fill-rule="evenodd" clip-rule="evenodd" d="M10.146 10.146a.5.5 0 0 1 .708 0L13 12.293l2.146-2.147a.5.5 0 0 1 .708.708L13.707 13l2.147 2.146a.5.5 0 0 1-.708.708L13 13.707l-2.146 2.147a.5.5 0 0 1-.708-.708L12.293 13l-2.147-2.146a.5.5 0 0 1 0-.708" fill="#DB5C5C"></path><path d="M1 2.5a.5.5 0 0 1 .5-.5h13a.5.5 0 0 1 0 1h-13a.5.5 0 0 1-.5-.5M5.275 10.294 7.7 8.063q.349-.324.506-.621.162-.302.162-.637 0-.319-.145-.566a1 1 0 0 0-.408-.382 1.3 1.3 0 0 0-.6-.136q-.36 0-.645.157a1.13 1.13 0 0 0-.442.43 1.26 1.26 0 0 0-.157.633h-.863q0-.57.276-1.02.276-.456.76-.714a2.3 2.3 0 0 1 1.089-.26q.57 0 1.028.234.464.234.723.642.264.408.263.918 0 .489-.255.943-.255.45-.803.948l-1.708 1.585h2.545c-.05.26-.03.53.058.782h-3.81zM10.879 13H1.5a.5.5 0 0 0 0 1h8.379zM14.607 9.294q.003-.05.003-.101a1.8 1.8 0 0 0-.28-.994 1.85 1.85 0 0 0-.779-.676 2.3 2.3 0 0 0-.835-.218l1.681-1.576v-.68h-3.8v.744h2.75l-1.61 1.522v.667h.684q.378 0 .676.153.297.152.463.425.17.272.17.616 0 .335-.166.608-.165.267-.459.42a1.44 1.44 0 0 1-.63.149l.525.526 1.44-1.44q.08-.08.167-.145M1.293 6.677h1.415v4.322h.859V5.05h-.625q0 .28-.106.489a.77.77 0 0 1-.306.319.95.95 0 0 1-.468.11h-.769z" fill="#CED0D6"></path>
</svg>
