<svg viewBox="0 0 16 16" fill="none" xmlns="http://www.w3.org/2000/svg">
  <path d="M12 10h1v5h-1zM10 11h1v4h-1zM15 12h-1v3h1z" fill="#25324D"></path><path fill-rule="evenodd" clip-rule="evenodd" d="M11 10a1 1 0 0 1 1-1h1a1 1 0 0 1 1 1v1h1a1 1 0 0 1 1 1v3a1 1 0 0 1-1 1h-5a1 1 0 0 1-1-1v-4a1 1 0 0 1 1-1zm1 0h1v5h-1zm-1 1h-1v4h1zm3 4h1v-3h-1z" fill="#548AF7"></path><path d="M5 1a2 2 0 0 0-2 2v10a2 2 0 0 0 2 2h3v-1H5a1 1 0 0 1-1-1V3a1 1 0 0 1 1-1h6a1 1 0 0 1 1 1v5h1V3a2 2 0 0 0-2-2z" fill="#CED0D6"></path><path d="M8 12H6.5a.5.5 0 0 0 0 1H8z" fill="#CED0D6"></path>
</svg>
