<svg width="20" height="20" viewBox="0 0 20 20" fill="none"><path d="M10 2.082c7.107 3.497 8.188 9.72 8.244 13.584q-.105.087-.257.203c-.343.257-.867.608-1.572.96-1.408.704-3.545 1.421-6.415 1.421s-5.007-.717-6.415-1.42a10.3 10.3 0 0 1-1.572-.96 7 7 0 0 1-.258-.204C1.81 11.801 2.893 5.579 10 2.082Z" stroke="#6C707E" stroke-width="1.5"/><path d="M10 14.177C7.347 12.9 6.815 10.633 6.757 9.27q.026-.031.057-.065c.156-.162.389-.38.69-.6.605-.44 1.453-.856 2.496-.856s1.891.417 2.496.856c.301.22.534.438.69.6l.058.065c-.058 1.362-.591 3.629-3.244 4.906Z" stroke="#6C707E" stroke-width="1.5"/></svg>