<svg width="20" height="20" viewBox="0 0 20 20" fill="none"><path d="M16.622 6.944c-1.691-1.385-4.443-2.542-7.12-2.542-2.684 0-5.429 1.155-7.116 2.538-.19.156-.476-.042-.352-.254.73-1.248 1.866-2.502 2.896-3.23A7.92 7.92 0 0 1 9.503 2c1.635 0 3.231.508 4.573 1.456 1.03.728 2.168 1.985 2.898 3.233.124.213-.161.411-.352.255M2.386 13.056c1.691 1.385 4.443 2.542 7.119 2.542 2.685 0 5.43-1.155 7.117-2.538.19-.156.476.042.352.254-.73 1.248-1.867 2.502-2.896 3.23A7.92 7.92 0 0 1 9.505 18a7.92 7.92 0 0 1-4.573-1.456c-1.03-.728-2.168-1.985-2.898-3.233-.124-.213.161-.411.352-.255" fill="#6C707E"/></svg>