<svg viewBox="0 0 16 16" fill="none" xmlns="http://www.w3.org/2000/svg">
  <path d="M8.5 8a.5.5 0 0 1 .5.5v.826l.181-.164A4 4 0 0 1 12.001 8a4.005 4.005 0 0 1 3.96 3.43.5.5 0 1 1-.991.14 2.97 2.97 0 0 0-.849-1.691A3 3 0 0 0 12.002 9c-.83 0-1.579.335-2.122.879l-.009.009-.124.112h.754a.5.5 0 0 1 0 1h-2a.5.5 0 0 1-.5-.5v-2a.5.5 0 0 1 .5-.5M8.465 12.005a.5.5 0 0 1 .566.424c.093.656.4 1.244.848 1.692A3 3 0 0 0 12 15c.829 0 1.578-.335 2.122-.879l.008-.009.119-.112H13.5a.5.5 0 0 1 0-1h2a.5.5 0 0 1 .5.5v2a.5.5 0 0 1-1 0v-.834l-.176.167A4 4 0 0 1 12 16a4 4 0 0 1-2.828-1.172 4 4 0 0 1-1.131-2.257.5.5 0 0 1 .424-.566" fill="#548AF7"></path><path d="M7.596 1.304a.9.9 0 0 1 .36-.096h-.004a.94.94 0 0 1 .452.096l4.868 2.32c.254.121.44.352.503.627l.796 3.46A5 5 0 0 0 12 7c-.838 0-1.629.206-2.323.57A1.5 1.5 0 0 0 7 8.5v2c0 .394.152.752.4 1.02a1.5 1.5 0 0 0-.35 1.193c.11.763.391 1.47.803 2.08h-2.55a.93.93 0 0 1-.727-.343L1.207 10.26l-.052-.073a.9.9 0 0 1-.131-.712l1.193-5.22a.92.92 0 0 1 .503-.627z" fill="#CED0D6"></path><path fill-rule="evenodd" clip-rule="evenodd" d="M8.02 2.94c.19.02.331.183.322.374v.091a3 3 0 0 1-.041.281q-.042.255-.033.514a.18.18 0 0 0 .074.11l.02.014.002.025.001.023.004.063a3.87 3.87 0 0 1 2.379 1.148l.092-.066.02.004a.3.3 0 0 0 .144-.014 2.7 2.7 0 0 0 .37-.349q.09-.109.194-.207l.003-.003.063-.05a.343.343 0 1 1 .425.534l-.065.053q-.12.078-.246.143-.224.128-.421.296a.18.18 0 0 0-.04.126l.002.024-.09.083q.264.406.42.857-.442.034-.858.141a3 3 0 0 0-.203-.415l-.9.806A1.5 1.5 0 0 0 7 8.5v2q.002.3.108.563l-.003.005.007.002a1.5 1.5 0 0 0 .287.45q-.177.205-.272.462a4 4 0 0 1-.441-.134l-.057.103-.024.003a.2.2 0 0 0-.097.047.8.8 0 0 0-.112.22l-.037.104q-.03.091-.065.18-.035.136-.084.27l-.002.003-.036.073a.343.343 0 0 1-.606.064.34.34 0 0 1-.01-.356l.038-.081a3 3 0 0 1 .16-.237q.15-.219.255-.462a.24.24 0 0 0-.023-.13l-.01-.021.044-.092a3.84 3.84 0 0 1-1.65-2.065l-.109.018-.016-.012a.27.27 0 0 0-.135-.049 2.7 2.7 0 0 0-.493.145q-.13.056-.266.097l-.009.002-.083.009a.343.343 0 0 1-.431-.252.343.343 0 0 1 .287-.415l.007-.001h.003l.077-.017q.141-.02.284-.022.257-.018.504-.083a.35.35 0 0 0 .104-.106l.01-.016.099-.029a3.82 3.82 0 0 1 .584-2.583l-.079-.073v-.02a.3.3 0 0 0-.047-.137 2.5 2.5 0 0 0-.422-.296 3 3 0 0 1-.246-.144l-.004-.002-.059-.047a.36.36 0 0 1-.082-.5l.002-.002a.33.33 0 0 1 .273-.122.4.4 0 0 1 .232.088l.068.054q.103.098.194.207.174.191.382.345c.04.02.087.025.131.012l.024-.007.09.063a3.8 3.8 0 0 1 2.39-1.148l.005-.101.015-.014a.27.27 0 0 0 .08-.122 2.7 2.7 0 0 0-.03-.512 3 3 0 0 1-.04-.282v-.084a.36.36 0 0 1 .333-.376h.015zM5.96 6.078l1.203.853a.2.2 0 0 0 .21.02.21.21 0 0 0 .12-.178l.002-.048h.007l.081-1.421q-.124.016-.246.042c-.517.116-.993.37-1.378.732m2.46-.773.083 1.468a.207.207 0 0 0 .336.16l.002-.002 1.193-.848a3 3 0 0 0-1.615-.778M6.42 8.097v-.005l.037-.01a.207.207 0 0 0 .082-.356l-.018-.015v-.007l-1.084-.967a2.95 2.95 0 0 0-.394 1.756zm.482 1.266v-.006l.004-.01a.206.206 0 0 0-.16-.285l-.004.004-.03-.003h-.039l-1.442.245a2.96 2.96 0 0 0 1.116 1.398z" fill="#43454A"></path>
</svg>
