<svg width="16" height="16" viewBox="0 0 16 16" fill="none"><rect x="2" y="12" width="5" height="1" rx=".5" fill="#CED0D6"/><rect x="2" y="6" width="12" height="1" rx=".5" fill="#CED0D6"/><rect x="2" y="9" width="8" height="1" rx=".5" fill="#CED0D6"/><rect x="2" y="3" width="12" height="1" rx=".5" fill="#CED0D6"/><path fill-rule="evenodd" clip-rule="evenodd" d="M12.5 9a.5.5 0 0 1 .5.5V12h2.5a.5.5 0 0 1 0 1H13v2.5a.5.5 0 0 1-1 0V13H9.5a.5.5 0 0 1 0-1H12V9.5a.5.5 0 0 1 .5-.5" fill="#CED0D6"/></svg>