<svg width="16" height="16" viewBox="0 0 16 16" fill="none"><circle cx="8" cy="8" r="6.5" fill="#402929" stroke="#DB5C5C"/><path d="m6 4 .211-.106a4 4 0 0 1 3.578 0L10 4" stroke="#DB5C5C"/><path d="M10.066 5.246c-.812 0-1.43.401-1.77 1.07-.292-.674-.89-1.07-1.689-1.07-.758 0-1.326.363-1.645 1.002v-.876H4v5.382h.999V7.59c0-.91.515-1.482 1.33-1.482.746 0 1.177.51 1.177 1.33v3.316h.988V7.59c0-.91.526-1.482 1.33-1.482.752 0 1.177.51 1.177 1.33v3.316H12V7.36c0-1.288-.783-2.113-1.934-2.113" fill="#DB5C5C"/></svg>