<svg viewBox="0 0 14 14" fill="none" xmlns="http://www.w3.org/2000/svg">
  <path d="M6.293 1.414a1 1 0 0 1 1.414 0l.5.5a2 2 0 0 0 1.414.586h.879a1 1 0 0 1 1 1v.879a2 2 0 0 0 .586 1.414l.611.611a1 1 0 0 1 .074 1.332l-.833 1.04a2 2 0 0 0-.438 1.25v.474a1 1 0 0 1-1 1h-.879a2 2 0 0 0-1.414.586l-.5.5a1 1 0 0 1-1.414 0l-.5-.5a2 2 0 0 0-1.414-.586H3.5a1 1 0 0 1-1-1v-.474a2 2 0 0 0-.438-1.249l-.833-1.04a1 1 0 0 1 .074-1.333l.611-.611A2 2 0 0 0 2.5 4.379V3.5a1 1 0 0 1 1-1h.879c.53 0 1.039-.211 1.414-.586z" fill="#253627" stroke="#57965C"></path><path d="m9.5 5.5-3 3L5 7" stroke="#57965C" stroke-linecap="round" stroke-linejoin="round"></path>
</svg>
