<svg width="20" height="20" viewBox="0 0 20 20" fill="none"><g clip-path="url(#a)" fill="#CED0D6"><path d="M7.75 1a.75.75 0 0 0 0 1.5H17a.5.5 0 0 1 .5.5v9.25a.75.75 0 0 0 1.5 0V3a2 2 0 0 0-2-2z"/><path fill-rule="evenodd" clip-rule="evenodd" d="M3 6a2 2 0 0 0-2 2v9a2 2 0 0 0 2 2h9a2 2 0 0 0 2-2V8a2 2 0 0 0-2-2zm9 1.5H3a.5.5 0 0 0-.5.5v9a.5.5 0 0 0 .5.5h9a.5.5 0 0 0 .5-.5V8a.5.5 0 0 0-.5-.5"/><path d="M4.5 4.25a.75.75 0 0 1 .75-.75h9.25a2 2 0 0 1 2 2v9.25a.75.75 0 0 1-1.5 0V5.5a.5.5 0 0 0-.5-.5H5.25a.75.75 0 0 1-.75-.75"/></g><defs><clipPath id="a"><path fill="#fff" d="M0 0H20V20H0z"/></clipPath></defs></svg>