<svg viewBox="0 0 16 16" fill="none" xmlns="http://www.w3.org/2000/svg">
  <path d="M2.43 10.575 2 3.772l4.574-2.117z" fill="url(#a)"></path><path d="M2.43 10.575 2 3.772l4.574-2.117z" fill="url(#b)"></path><path d="M6.353 9.025h3.294L8 5.016z" fill="url(#c)"></path><path d="M6.353 9.025h3.294L8 5.016z" fill="url(#d)"></path><path d="m8 14.342-3.137-1.78.639-1.545h4.996l.639 1.546z" fill="url(#e)"></path><path d="m8 14.342-3.137-1.78.639-1.545h4.996l.639 1.546z" fill="url(#f)"></path><path d="M13.57 10.575 14 3.772 9.426 1.654z" fill="url(#g)"></path><path d="M13.57 10.575 14 3.772 9.426 1.654z" fill="url(#h)"></path><defs><linearGradient id="a" x1="14" y1="10.313" x2="8" y2="14.813" gradientUnits="userSpaceOnUse"><stop offset=".01" stop-color="#9225F2"></stop><stop offset=".989" stop-color="#F41049"></stop></linearGradient><linearGradient id="b" x1="2" y1="1.655" x2="11.047" y2="10.703" gradientUnits="userSpaceOnUse"><stop stop-color="#F933C2"></stop><stop offset="1" stop-color="#F932BE" stop-opacity="0"></stop></linearGradient><linearGradient id="c" x1="14" y1="10.313" x2="8" y2="14.813" gradientUnits="userSpaceOnUse"><stop offset=".01" stop-color="#9225F2"></stop><stop offset=".989" stop-color="#F41049"></stop></linearGradient><linearGradient id="d" x1="2" y1="1.655" x2="11.047" y2="10.703" gradientUnits="userSpaceOnUse"><stop stop-color="#F933C2"></stop><stop offset="1" stop-color="#F932BE" stop-opacity="0"></stop></linearGradient><linearGradient id="e" x1="14" y1="10.313" x2="8" y2="14.813" gradientUnits="userSpaceOnUse"><stop offset=".01" stop-color="#9225F2"></stop><stop offset=".989" stop-color="#F41049"></stop></linearGradient><linearGradient id="f" x1="2" y1="1.655" x2="11.047" y2="10.703" gradientUnits="userSpaceOnUse"><stop stop-color="#F933C2"></stop><stop offset="1" stop-color="#F932BE" stop-opacity="0"></stop></linearGradient><linearGradient id="g" x1="14" y1="10.313" x2="8" y2="14.813" gradientUnits="userSpaceOnUse"><stop offset=".01" stop-color="#9225F2"></stop><stop offset=".989" stop-color="#F41049"></stop></linearGradient><linearGradient id="h" x1="2" y1="1.655" x2="11.047" y2="10.703" gradientUnits="userSpaceOnUse"><stop stop-color="#F933C2"></stop><stop offset="1" stop-color="#F932BE" stop-opacity="0"></stop></linearGradient></defs>
</svg>
