<svg width="16" height="16" viewBox="0 0 16 16" fill="none"><path d="M8 15q.145 0 .29-.006c.5-.02.946-.335 1.137-.8l3.488-8.506h-1.052l-1.351 3.43-1.362-3.43H8.036l1.91 4.682-1.391 3.38-.03.072c-.047.114-.156.168-.277.172h-.004a6 6 0 1 1 3.244-1.111l.581.814A7 7 0 1 0 8 15" fill="#6C707E"/><path d="M5.92 6.556c.566 0 1.026.302 1.261.828l.018.04.95-.322-.02-.049c-.367-.897-1.214-1.454-2.209-1.454-.7 0-1.269.224-1.739.686-.467.46-.703 1.037-.703 1.716 0 .674.238 1.248.703 1.706.47.462 1.04.686 1.74.686.994 0 1.84-.558 2.208-1.454l.02-.048-.951-.324-.017.043c-.212.518-.683.827-1.26.827-.394 0-.727-.138-.99-.41a1.42 1.42 0 0 1-.4-1.026c0-.41.13-.749.4-1.037q.397-.407.99-.408" fill="#6C707E"/></svg>