<svg viewBox="0 0 16 16" fill="none" xmlns="http://www.w3.org/2000/svg">
  <path fill-rule="evenodd" clip-rule="evenodd" d="M2.5 3a.5.5 0 0 0 0 1h11a.5.5 0 0 0 0-1zm0 3a.5.5 0 0 0 0 1h7a.5.5 0 0 0 0-1zm0 6a.5.5 0 0 0 0 1h7a.5.5 0 0 0 0-1zM2 9.5a.5.5 0 0 1 .5-.5h7a.5.5 0 0 1 0 1h-7a.5.5 0 0 1-.5-.5" fill="#6C707E"></path><rect x="14" y="15" width="2" height="1" rx=".5" fill="#6C707E"></rect><rect x="11" y="15" width="2" height="1" rx=".5" fill="#6C707E"></rect><rect x="14" y="8" width="2" height="1" rx=".5" fill="#6C707E"></rect><rect x="11" y="8" width="2" height="1" rx=".5" fill="#6C707E"></rect><path fill-rule="evenodd" clip-rule="evenodd" d="M13 9.5a.5.5 0 0 1 1 0v5a.5.5 0 0 1-1 0z" fill="#6C707E"></path>
</svg>
