<svg viewBox="0 0 16 16" fill="none" xmlns="http://www.w3.org/2000/svg">
  <path fill-rule="evenodd" clip-rule="evenodd" d="M9.05 12a2.5 2.5 0 0 1 2.45-2h2a.5.5 0 0 1 .5.5v.5h1.5a.5.5 0 0 1 0 1H14v2h1.5a.5.5 0 0 1 0 1H14v.5a.5.5 0 0 1-.5.5h-2a2.5 2.5 0 0 1-2.45-2H8.5a.5.5 0 0 1-.5-.5v-1a.5.5 0 0 1 .5-.5zm.95 1.5v-1a1.5 1.5 0 0 1 1.5-1.5H13v4h-1.5a1.5 1.5 0 0 1-1.5-1.5" fill="#3574F0"></path><path d="M1 3.867C1 2.836 1.731 2 2.633 2h3.489a1 1 0 0 1 .721.308L8.467 4H13a2 2 0 0 1 2 2v4h-.085A1.5 1.5 0 0 0 13.5 9h-2a3.5 3.5 0 0 0-3.167 2.01A1.5 1.5 0 0 0 7 12.5v1q.001.264.085.5H2.633C1.731 14 1 13.164 1 12.133z" fill="#EBECF0"></path><path d="M2.633 3h3.489L8.04 5H13a1 1 0 0 1 1 1v3.085c.426.151.764.489.915.915H15V6a2 2 0 0 0-2-2H8.467L6.843 2.308A1 1 0 0 0 6.122 2H2.633C1.731 2 1 2.836 1 3.867v8.266C1 13.164 1.731 14 2.633 14h4.452A1.5 1.5 0 0 1 7 13.5V13H2.633C2.405 13 2 12.742 2 12.133V3.867C2 3.258 2.405 3 2.633 3" fill="#6C707E"></path>
</svg>
