<svg width="16" height="16" viewBox="0 0 16 16" fill="none"><rect x="2.5" y="2.5" width="11" height="11" rx="1.5" fill="#EBECF0" stroke="#6C707E"/><path d="M7.326 9.03q0-.34.115-.595.12-.26.285-.44.17-.184.44-.42.24-.21.375-.35.14-.145.23-.335a.94.94 0 0 0 .095-.425.84.84 0 0 0-.23-.61q-.23-.24-.61-.24-.42 0-.675.27-.25.27-.245.705h-1.38q0-.69.28-1.185.28-.5.8-.76.525-.265 1.235-.265.684 0 1.19.245t.775.695q.27.446.265 1.05 0 .455-.145.785-.146.33-.345.54-.201.21-.525.475-.226.18-.355.3-.126.12-.21.275a.7.7 0 0 0-.08.335v.175H7.326zM8.74 11.5h-1.5V10h1.5z" fill="#6C707E"/></svg>