<svg viewBox="0 0 16 16" fill="none" xmlns="http://www.w3.org/2000/svg">
  <path d="M2.14 13v-1.02h.52a.53.53 0 0 0 .494-.287q.163-.285.163-.877V3.9h1.085v6.981q0 .722-.182 1.196-.18.468-.552.696-.37.227-.943.227zM7.2 13.156q-.657 0-1.073-.286-.416-.285-.617-.884-.195-.604-.195-1.554h1.118q0 .605.078.995.084.383.253.566a.6.6 0 0 0 .449.181.54.54 0 0 0 .416-.168q.162-.175.24-.534.078-.363.078-.935 0-.619-.162-.982a1.26 1.26 0 0 0-.494-.579l-.579-.35a2.8 2.8 0 0 1-.708-.612 2.2 2.2 0 0 1-.403-.767 3.5 3.5 0 0 1-.13-1q0-.879.175-1.43.183-.553.553-.813t.962-.26q.604 0 .981.266.378.26.56.82.18.552.181 1.436H7.772q0-.54-.065-.878-.066-.338-.195-.5a.4.4 0 0 0-.338-.163q-.312 0-.455.364-.144.358-.143 1.151 0 .513.15.845.155.325.487.526l.637.39q.429.267.689.618.266.345.39.812.123.468.123 1.093 0 .915-.195 1.501-.195.579-.604.858-.403.273-1.053.273M9.977 13V3.9h1.56q.747 0 1.215.286.475.285.696.871.227.585.227 1.482 0 .91-.227 1.501-.228.585-.715.871-.48.286-1.248.286h-.423V13zm1.56-4.817q.525 0 .754-.39.227-.396.227-1.254 0-.839-.227-1.229-.228-.396-.754-.396h-.475v3.27z" fill="#E08855"></path>
</svg>
