<svg viewBox="0 0 16 16" fill="none" xmlns="http://www.w3.org/2000/svg">
  <path d="M11.32 16v-.857l2.382-2.375q.354-.361.587-.641t.35-.537q.12-.26.119-.55 0-.333-.155-.573a1 1 0 0 0-.419-.371 1.34 1.34 0 0 0-.6-.132q-.351 0-.614.145a1 1 0 0 0-.409.405 1.3 1.3 0 0 0-.141.624h-1.127q0-.647.297-1.13t.816-.745a2.6 2.6 0 0 1 1.194-.267q.682 0 1.198.26t.803.708q.29.45.29 1.022 0 .385-.145.76-.146.37-.513.826-.368.456-1.025 1.1l-1.248 1.282v.05H16V16z" fill="#3574F0"></path><path fill-rule="evenodd" clip-rule="evenodd" d="M7 4h4v5.121a3 3 0 0 1 1-.773V6h3.5a.5.5 0 0 0 0-1H12V4a1 1 0 0 0-1-1H7a4 4 0 0 0-3.874 3H1a1 1 0 0 0-1 1v2a1 1 0 0 0 1 1h2.126c.444 1.725 2.01 3 3.874 3h3v-1H7a3 3 0 0 1-3-3V7a3 3 0 0 1 3-3M3 9V7H1v2z" fill="#6C707E"></path>
</svg>
