<svg width="14" height="14" viewBox="0 0 14 14" fill="none"><path fill-rule="evenodd" clip-rule="evenodd" d="M7.05 10A2.5 2.5 0 0 1 9.5 8h2a.5.5 0 0 1 .5.5V9h1.5a.5.5 0 0 1 0 1H12v2h1.5a.5.5 0 0 1 0 1H12v.5a.5.5 0 0 1-.5.5h-2a2.5 2.5 0 0 1-2.45-2H6.5a.5.5 0 0 1-.5-.5v-1a.5.5 0 0 1 .5-.5zM8 11.5v-1A1.5 1.5 0 0 1 9.5 9H11v4H9.5A1.5 1.5 0 0 1 8 11.5" fill="#3574F0"/><path d="M2.793 4.207a1 1 0 0 0-.293.707V12.5a1 1 0 0 0 1 1h3.128q-.168-.24-.295-.51A1.5 1.5 0 0 1 5 11.5v-1a1.5 1.5 0 0 1 1.333-1.49A3.5 3.5 0 0 1 9.5 7h2V1.5a1 1 0 0 0-1-1H6.914a1 1 0 0 0-.707.293z" fill="#EBECF0"/><path fill-rule="evenodd" clip-rule="evenodd" d="M5.854.44A1.5 1.5 0 0 1 6.914 0H10.5A1.5 1.5 0 0 1 12 1.5V7h-1V1.5a.5.5 0 0 0-.5-.5H7v2.5A1.5 1.5 0 0 1 5.5 5H3v7.5a.5.5 0 0 0 .5.5h2.837c.178.375.42.713.714 1H3.5A1.5 1.5 0 0 1 2 12.5V4.914c0-.398.158-.78.44-1.06zM3.707 4 6 1.707V3.5a.5.5 0 0 1-.5.5z" fill="#6C707E"/></svg>