<svg width="20" height="20" viewBox="0 0 20 20" fill="none"><path fill-rule="evenodd" clip-rule="evenodd" d="M9 2.5h2a.5.5 0 0 1 .5.5v2a.5.5 0 0 1-.5.5H9a.5.5 0 0 1-.5-.5V3a.5.5 0 0 1 .5-.5M7 3a2 2 0 0 1 2-2h2a2 2 0 0 1 2 2v2a2 2 0 0 1-2 2h-.25v2h2.5a1.5 1.5 0 0 1 1.5 1.5V13H15a2 2 0 0 1 2 2v2a2 2 0 0 1-2 2h-2a2 2 0 0 1-2-2v-2a2 2 0 0 1 2-2h.25v-2.5h-6.5V13H7a2 2 0 0 1 2 2v2a2 2 0 0 1-2 2H5a2 2 0 0 1-2-2v-2a2 2 0 0 1 2-2h.25v-2.5A1.5 1.5 0 0 1 6.75 9h2.5V7H9a2 2 0 0 1-2-2zm0 11.5H5a.5.5 0 0 0-.5.5v2a.5.5 0 0 0 .5.5h2a.5.5 0 0 0 .5-.5v-2a.5.5 0 0 0-.5-.5m8 0h-2a.5.5 0 0 0-.5.5v2a.5.5 0 0 0 .5.5h2a.5.5 0 0 0 .5-.5v-2a.5.5 0 0 0-.5-.5" fill="#CED0D6"/></svg>