<svg width="16" height="16" viewBox="0 0 16 16" fill="none"><path d="M3.895 15.08q-.748 0-1.157-.377-.405-.377-.41-1.066l-.006-1.04H3.4l.006.975q0 .247.143.377.143.136.41.136h.591v.995zm-1.008-3.01a.49.49 0 0 0 .436-.247q.162-.246.234-.857.078-.612.078-1.742V7.676q0-1.13-.078-1.742-.072-.61-.234-.857a.49.49 0 0 0-.436-.247.5.5 0 0 0-.435.247q-.156.246-.234.857-.072.612-.072 1.742v1.547q0 1.131.072 1.742.078.612.234.858a.5.5 0 0 0 .435.247m0 1.086q-.663 0-1.098-.416-.43-.422-.65-1.287-.215-.87-.215-2.23V7.677q0-1.358.215-2.222.22-.871.65-1.287.435-.423 1.098-.423.676 0 1.105.416.435.415.65 1.287.215.87.215 2.23v1.547q0 1.358-.215 2.229-.215.87-.65 1.287-.429.416-1.105.416M5.857 3.9h1.755l.741 5.785.033.864h.143l.02-.864L9.23 3.9h1.787V13H9.926V6.013l.078-.865-.143-.013-.045.871L8.912 13h-.936l-.923-6.955-.045-.871-.143.013.078.864V13H5.857zm6.475 0h1.19v7.95h1.956V13h-3.146z" fill="#369650"/></svg>