<svg width="20" height="20" viewBox="0 0 20 20" fill="none"><path fill-rule="evenodd" clip-rule="evenodd" d="M13 18.25a1.5 1.5 0 1 0 0-3 1.5 1.5 0 0 0 0 3m0 1.5a3 3 0 0 0 2.906-2.25h3.344a.75.75 0 0 0 0-1.5h-3.344a3.001 3.001 0 0 0-5.812 0H6.75a.75.75 0 0 0 0 1.5h3.345A3 3 0 0 0 13 19.75" fill="#CED0D6"/><path fill-rule="evenodd" clip-rule="evenodd" d="m10.04 6.152.417.348H17a.5.5 0 0 1 .5.5v7.023H19V7a2 2 0 0 0-2-2h-6L8.278 2.732a1 1 0 0 0-.64-.232H3.25C2.007 2.5 1 3.545 1 4.833v10.334C1 16.455 2.007 17.5 3.25 17.5h.678V16H3.25c-.363 0-.75-.321-.75-.833V4.833c0-.512.387-.833.75-.833h4.207z" fill="#CED0D6"/></svg>