<svg viewBox="0 0 16 16" fill="none" xmlns="http://www.w3.org/2000/svg">
  <g clip-path="url(#a)"><g clip-path="url(#b)"><path d="M7.603 15.478.251 5.828a.5.5 0 0 1 .024-.636l3.428-3.856A1 1 0 0 1 4.45 1h7.102a1 1 0 0 1 .748.336l3.428 3.856a.5.5 0 0 1 .024.635l-2.07 2.716-1.858-1.16C10.159 6.343 8 7.541 8 9.504v6.171a.5.5 0 0 1-.397-.197" fill="#402929"></path><path fill-rule="evenodd" clip-rule="evenodd" d="M7.603 15.478.251 5.828a.5.5 0 0 1 .024-.636l3.428-3.856A1 1 0 0 1 4.45 1h7.102a1 1 0 0 1 .748.336l3.428 3.856a.5.5 0 0 1 .024.635l-2.07 2.716-.851-.531L14.363 6h-2.996l-.334 1.058a2.45 2.45 0 0 0-1.048-.003L10.32 6H5.683L8 13.336v2.339a.5.5 0 0 1-.397-.197M11.553 2l2.666 3H11.31l-1.5-3zM7.31 2h1.382l1.5 3H5.81zM4.45 2h1.742l-1.5 3H1.784zm2.305 10.714L1.639 6h2.996z" fill="#DB5C5C"></path><path fill-rule="evenodd" clip-rule="evenodd" d="M9 9.502a1.5 1.5 0 0 1 2.294-1.272l4.002 2.497a1.5 1.5 0 0 1 0 2.546l-4.002 2.497A1.5 1.5 0 0 1 9 14.498zm1.765-.424a.5.5 0 0 0-.765.424v4.996a.5.5 0 0 0 .765.424l4.002-2.498a.5.5 0 0 0 0-.848z" fill="#57965C"></path><path d="M10 9.502a.5.5 0 0 1 .765-.424l4.002 2.498a.5.5 0 0 1 0 .848l-4.002 2.498a.5.5 0 0 1-.765-.424z" fill="#253627"></path></g></g><defs><clipPath id="a"><path fill="#fff" d="M0 0H16V16H0z"></path></clipPath><clipPath id="b"><path fill="#fff" d="M0 0H16V16H0z"></path></clipPath></defs>
</svg>
