<svg viewBox="0 0 28 28" fill="none" xmlns="http://www.w3.org/2000/svg">
  <g clip-path="url(#a)"><circle cx="14" cy="14" r="12" fill="#548AF7"></circle><path d="M13.937 21.004q-.525 0-.902-.37a1.24 1.24 0 0 1-.377-.908q0-.525.377-.895a1.23 1.23 0 0 1 .902-.377q.517 0 .895.377a1.2 1.2 0 0 1 .383.895q0 .352-.179.645a1.3 1.3 0 0 1-.46.46 1.2 1.2 0 0 1-.64.173M13.836 16.5a.863.863 0 0 1-.864-.863c.009-.758.088-1.024.237-1.472q.23-.672.652-1.088.422-.415 1.016-.757.384-.232.69-.52.307-.285.486-.66c.12-.248.179-.528.179-.83q0-.543-.269-.94a1.77 1.77 0 0 0-.716-.61 2.2 2.2 0 0 0-.984-.22q-.492 0-.94.195a1.76 1.76 0 0 0-.85.785c-.243.457-.631.883-1.148.883-.56 0-1.025-.475-.86-1.009q.146-.467.417-.849.536-.763 1.418-1.154A4.8 4.8 0 0 1 14.264 7q1.176 0 2.058.422.882.414 1.368 1.166.492.745.492 1.741c0 .456-.074.873-.223 1.24q-.224.543-.639.97-.409.428-.984.758-.544.324-.883.672c-.221.232-.384.437-.486.755-.102.317-.157.444-.165.913a.863.863 0 0 1-.864.863z" fill="#fff"></path></g><defs><clipPath id="a"><path fill="#fff" d="M0 0H28V28H0z"></path></clipPath></defs>
</svg>
