<svg viewBox="0 0 16 16" fill="none" xmlns="http://www.w3.org/2000/svg">
  <g clip-path="url(#a)"><path d="M2 4a1 1 0 0 1 1-1h2v10H3a1 1 0 0 1-1-1z" fill="#25324D"></path><path d="M6 14h7a2 2 0 0 0 2-2V4a2 2 0 0 0-2-2H6v1h7a1 1 0 0 1 1 1v8a1 1 0 0 1-1 1H6z" fill="#CED0D6"></path><path fill-rule="evenodd" clip-rule="evenodd" d="M6 2H3a2 2 0 0 0-2 2v8a2 2 0 0 0 2 2h3zM5 3H3a1 1 0 0 0-1 1v8a1 1 0 0 0 1 1h2z" fill="#548AF7"></path></g><defs><clipPath id="a"><path fill="#fff" d="M0 0H16V16H0z"></path></clipPath></defs>
</svg>
