<svg width="20" height="20" viewBox="0 0 20 20" fill="none"><path d="M16.5 4v4.94a7.5 7.5 0 0 1 1.5.8V4a2 2 0 0 0-2-2H4a2 2 0 0 0-2 2v12a2 2 0 0 0 2 2h5.686a7.4 7.4 0 0 1-.77-1.5H4a.5.5 0 0 1-.5-.5V4a.5.5 0 0 1 .5-.5h12a.5.5 0 0 1 .5.5" fill="#CED0D6"/><path fill-rule="evenodd" clip-rule="evenodd" d="M18.7 18.722c2.07-2.069 1.505-4.859-.542-6.905s-4.87-2.556-6.895-.531-1.442 4.954.515 6.91 4.853 2.595 6.922.526m-.218-3.29c-.091-.8-.541-1.711-1.385-2.555-.834-.833-1.748-1.275-2.554-1.36a2.53 2.53 0 0 0-1.615.35l5.193 5.193a2.5 2.5 0 0 0 .361-1.629m-1.42 2.69-5.196-5.195a2.62 2.62 0 0 0-.347 1.673c.093.84.542 1.759 1.32 2.536.786.787 1.702 1.245 2.534 1.343a2.57 2.57 0 0 0 1.688-.357" fill="#CED0D6"/></svg>