<svg viewBox="0 0 16 16" fill="none" xmlns="http://www.w3.org/2000/svg">
  <path d="M2 4a1 1 0 0 1 1-1h2v10H3a1 1 0 0 1-1-1z" fill="#EDF3FF"></path><path d="M6 14h6v-1H6zM6 3h7a1 1 0 0 1 1 1v2.035c.353.051.69.154 1 .302V4a2 2 0 0 0-2-2H6z" fill="#6C707E"></path><path fill-rule="evenodd" clip-rule="evenodd" d="M6 14H3a2 2 0 0 1-2-2V4a2 2 0 0 1 2-2h3zM5 3H3a1 1 0 0 0-1 1v8a1 1 0 0 0 1 1h2zM14 11.95a2.5 2.5 0 1 0-1 0V16h1v-1h2v-1h-2zm1-2.45a1.5 1.5 0 1 1-3 0 1.5 1.5 0 0 1 3 0" fill="#3574F0"></path>
</svg>
