<svg viewBox="0 0 16 16" fill="none" xmlns="http://www.w3.org/2000/svg">
  <path d="M2 5h11v1H2zM4 7h7v6H4z" fill="#EDF3FF"></path><path d="M7.5 4V3A1.5 1.5 0 1 0 6 4.5h1a.5.5 0 0 0 .5-.5ZM7.5 3v1.5H9A1.5 1.5 0 1 0 7.5 3Z" stroke="#3574F0"></path><path fill-rule="evenodd" clip-rule="evenodd" d="M13 7h-1v6.5a.5.5 0 0 1-.5.5h-8a.5.5 0 0 1-.5-.5V7H2a1 1 0 0 1-1-1V5a1 1 0 0 1 1-1h11a1 1 0 0 1 1 1v1a1 1 0 0 1-1 1m-9 6V7h7v6zm9-7V5H2v1z" fill="#3574F0"></path><path d="M7.5 4.5V13" stroke="#3574F0"></path>
</svg>
