<svg viewBox="0 0 16 16" fill="none" xmlns="http://www.w3.org/2000/svg">
  <path fill-rule="evenodd" clip-rule="evenodd" d="M14.412 8.295a1 1 0 0 0-1.414 0l-1.351 1.351L8 13.293V16h2.707l4.998-4.998a1 1 0 0 0 0-1.414zM14 11.293l.998-.998-1.293-1.293-.998.998zm-2-.586L13.293 12l-3 3H9v-1.293z" fill="#548AF7"></path><path d="M3 13V5.414a1 1 0 0 1 .293-.707l3.414-3.414A1 1 0 0 1 7.414 1H11a2 2 0 0 1 2 2v4.13c-.259.097-.501.25-.71.458L7 12.878V15H5a2 2 0 0 1-2-2" fill="#43454A"></path><path fill-rule="evenodd" clip-rule="evenodd" d="M3 13V5.414a1 1 0 0 1 .293-.707l3.414-3.414A1 1 0 0 1 7.414 1H11a2 2 0 0 1 2 2v4.13c-.259.097-.501.25-.71.458l-.29.29V3a1 1 0 0 0-1-1H8v2a2 2 0 0 1-2 2H4v7a1 1 0 0 0 1 1h2v1H5a2 2 0 0 1-2-2m1.414-8L7 2.414V4a1 1 0 0 1-1 1z" fill="#CED0D6"></path>
</svg>
