<svg width="16" height="16" viewBox="0 0 16 16" fill="none"><path fill-rule="evenodd" clip-rule="evenodd" d="M15 8A7 7 0 1 1 1 8a7 7 0 0 1 14 0m-7.328 5.991.016-.387c.052-.959.042-2.17-.025-2.84-.038-.386-.112-.855-.154-.958-.008-.022.031-.041.202-.1.311-.108.582-.244.623-.311.074-.128-.058-.31-.227-.31a.8.8 0 0 0-.198.067c-.386.177-1.159.385-1.605.432a4.6 4.6 0 0 1-1.119-.047c-.18-.032-.504-.154-.775-.294-.311-.162-.502-.377-.56-.632a1.6 1.6 0 0 1 .018-.568c.043-.17.164-.418.274-.563.49-.645 1.503-1.205 2.541-1.401.33-.062.799-.07 1.153-.016.39.059.729.167 1.065.34.216.111.32.189.56.42.359.342.58.642.786 1.065.301.617.418 1.162.566 2.626a51 51 0 0 1 .191 2.681 6 6 0 1 0-3.333.796M5.079 6.984c-.164.07-.176.293-.022.371.112.057.225.03.283-.067a.209.209 0 0 0-.261-.304m1.067.151a.24.24 0 0 0 0 .41c.15.089.343-.03.343-.209 0-.173-.198-.29-.343-.201" fill="#CED0D6"/><path d="m7.688 13.604-.016.387a6 6 0 1 1 3.332-.796l-.017-.348a51 51 0 0 0-.174-2.333c-.148-1.464-.265-2.01-.566-2.626a3.5 3.5 0 0 0-.785-1.066c-.241-.23-.345-.308-.561-.42a3.4 3.4 0 0 0-1.065-.339 3.9 3.9 0 0 0-1.153.016c-1.038.196-2.05.756-2.541 1.401-.11.145-.231.393-.274.563a1.6 1.6 0 0 0-.017.568c.057.255.248.47.56.632.27.14.593.262.774.294.332.06.811.08 1.12.047.445-.047 1.218-.255 1.604-.432a.8.8 0 0 1 .198-.067c.169 0 .301.182.227.31-.041.067-.312.203-.623.311-.17.059-.21.078-.202.1.042.103.116.572.154.957.067.672.077 1.882.025 2.841" fill="#43454A"/><path d="M5.057 7.355c-.154-.078-.142-.3.022-.371a.209.209 0 0 1 .261.304c-.058.097-.171.124-.283.067M6.146 7.544a.24.24 0 0 1 0-.409c.145-.088.343.028.343.201 0 .18-.193.298-.343.208" fill="#43454A"/></svg>