<svg viewBox="0 0 16 16" fill="none" xmlns="http://www.w3.org/2000/svg">
  <path d="m4 5 4-1.5L12 5v3c0 3-4 5-4 5s-4-2-4-5z" fill="#EBECF0"></path><path d="M4 3a1 1 0 0 0-1 1v1.5a.5.5 0 0 1-1 0V4a2 2 0 0 1 2-2h1.5a.5.5 0 0 1 0 1zM13 5.5V4a1 1 0 0 0-1-1h-1.5a.5.5 0 0 1 0-1H12a2 2 0 0 1 2 2v1.5a.5.5 0 0 1-1 0M12 13h-1.5a.5.5 0 0 0 0 1H12a2 2 0 0 0 2-2v-1.5a.5.5 0 0 0-1 0V12a1 1 0 0 1-1 1M3 12a1 1 0 0 0 1 1h1.5a.5.5 0 0 1 0 1H4a2 2 0 0 1-2-2v-1.5a.5.5 0 0 1 1 0z" fill="#6C707E"></path><path fill-rule="evenodd" clip-rule="evenodd" d="M12 8c0 3-4 5-4 5s-4-2-4-5V5l4-1.5L12 5zM5 8V5.693l3-1.125 3 1.125V8c0 1.054-.718 2.05-1.658 2.872a10 10 0 0 1-1.342.98l-.095-.06a10 10 0 0 1-1.247-.92C5.719 10.05 5 9.054 5 8" fill="#6C707E"></path>
</svg>
