<svg viewBox="0 0 16 16" fill="none" xmlns="http://www.w3.org/2000/svg">
  <path fill-rule="evenodd" clip-rule="evenodd" d="M12.5 9a.5.5 0 0 1 .5.5V12h2.5a.5.5 0 0 1 0 1H13v2.5a.5.5 0 0 1-1 0V13H9.5a.5.5 0 0 1 0-1H12V9.5a.5.5 0 0 1 .5-.5" fill="#548AF7"></path><path d="M4.5 13a.5.5 0 0 1 0 1H4a2 2 0 0 1-2-2V4a2 2 0 0 1 2-2h.5a.5.5 0 0 1 0 1H4a1 1 0 0 0-1 1v8a1 1 0 0 0 1 1zM11.5 3h.5a1 1 0 0 1 1 1v4h1V4a2 2 0 0 0-2-2h-.5a.5.5 0 0 0 0 1" fill="#CED0D6"></path><path d="M11 8a.5.5 0 0 0-.5-.5h-5a.5.5 0 0 0 0 1h5A.5.5 0 0 0 11 8M11 10.5a.5.5 0 0 0-.5-.5h-5a.5.5 0 0 0 0 1h5a.5.5 0 0 0 .5-.5M5 5.5a.5.5 0 0 1 .5-.5h5a.5.5 0 0 1 0 1h-5a.5.5 0 0 1-.5-.5" fill="#CED0D6"></path>
</svg>
