<svg width="20" height="20" viewBox="0 0 20 20" fill="none"><g clip-path="url(#a)" fill-rule="evenodd" clip-rule="evenodd" fill="#CED0D6"><path d="M17.248 18.309a4 4 0 1 1 1.06-1.06l1.472 1.47a.75.75 0 1 1-1.06 1.061zM17.5 15a2.5 2.5 0 1 1-5 0 2.5 2.5 0 0 1 5 0"/><path d="M18.75 10a8.75 8.75 0 1 0-7.818 8.701 5.5 5.5 0 0 1-.953-1.453c-.055-.008-.207-.05-.452-.28-.292-.274-.628-.738-.945-1.417-.272-.58-.51-1.273-.692-2.051h1.817a5.5 5.5 0 0 1 .682-1.5H7.624a16 16 0 0 1-.123-2c0-.696.044-1.367.123-2h4.754a16 16 0 0 1 .123 2.1 5.5 5.5 0 0 1 1.495-.508A18 18 0 0 0 13.888 8h3.083c.18.63.277 1.293.279 1.98.534.24 1.023.562 1.451.951q.048-.459.049-.931M3.03 12h3.082a17.7 17.7 0 0 1 0-4H3.03a7.3 7.3 0 0 0-.279 2c0 .694.097 1.365.28 2m3.323 1.5H3.65a7.27 7.27 0 0 0 3.907 3.328c-.509-.881-.928-2.021-1.203-3.328m5.065-9.051c.272.58.51 1.273.692 2.051H7.89c.183-.778.42-1.471.692-2.051.317-.679.653-1.143.945-1.417S9.98 2.75 10 2.75s.18.008.473.282c.292.274.628.738.945 1.417M16.351 6.5h-2.704c-.275-1.307-.694-2.447-1.203-3.328A7.27 7.27 0 0 1 16.35 6.5m-9.998 0c.275-1.307.694-2.447 1.203-3.328A7.27 7.27 0 0 0 3.65 6.5z"/></g><defs><clipPath id="a"><path fill="#fff" d="M0 0H20V20H0z"/></clipPath></defs></svg>