<svg viewBox="0 0 16 16" fill="none" xmlns="http://www.w3.org/2000/svg">
  <path d="m4.39 1.742.359-.357a1.344 1.344 0 0 1 1.954.075l4.975 5.76a1.32 1.32 0 0 1-.012 1.74l-4.957 5.582c-.51.57-1.398.6-1.943.058l-.359-.357a1.32 1.32 0 0 1-.081-1.786L7.294 8.92a1.32 1.32 0 0 0 .018-1.677L4.297 3.5a1.303 1.303 0 0 1 .093-1.757" fill="#92D13D"></path><path d="M7.289 8.931 4.32 12.468a1.32 1.32 0 0 0 .082 1.786l.359.357a1.34 1.34 0 0 0 1.942-.057l1.073-1.21a5.8 5.8 0 0 0 .632-2.644 5.84 5.84 0 0 0-.94-3.18c.22.45.163 1.008-.18 1.411" fill="#49691F"></path>
</svg>
