<svg viewBox="0 0 16 16" fill="none" xmlns="http://www.w3.org/2000/svg">
  <path fill-rule="evenodd" clip-rule="evenodd" d="M8.854 9.146a.5.5 0 0 0-.708 0l-2 2a.5.5 0 0 0 0 .708l2 2a.5.5 0 0 0 .708-.708L7.707 12H12.5a.5.5 0 0 0 0-1H7.707l1.147-1.146a.5.5 0 0 0 0-.708M7.146 2.146a.5.5 0 0 0 0 .708L8.293 4H3.5a.5.5 0 0 0 0 1h4.793L7.146 6.146a.5.5 0 1 0 .708.708l2-2a.5.5 0 0 0 0-.708l-2-2a.5.5 0 0 0-.708 0M14.5 1a.5.5 0 0 1 .5.5v13a.5.5 0 0 1-1 0v-13a.5.5 0 0 1 .5-.5M1.5 1a.5.5 0 0 1 .5.5v13a.5.5 0 0 1-1 0v-13a.5.5 0 0 1 .5-.5" fill="#6C707E"></path>
</svg>
