<svg width="16" height="16" viewBox="0 0 16 16" fill="none"><path fill-rule="evenodd" clip-rule="evenodd" d="M8.854 10.854a.5.5 0 0 0-.708-.708L6 12.293V2.5a.5.5 0 1 0-1 0v9.793l-2.146-2.147a.5.5 0 0 0-.708.708l3 3a.5.5 0 0 0 .708 0z" fill="#CED0D6"/><path d="M11.973 1.9q.6 0 1.057.213.46.214.713.621.257.403.257.95v3.299h-1.057l-.01-1.858h.262q0 .616-.223 1.062-.219.442-.63.68a1.95 1.95 0 0 1-.975.232q-.48 0-.864-.184a1.5 1.5 0 0 1-.596-.51 1.3 1.3 0 0 1-.214-.737q0-.397.204-.732.21-.335.572-.548.37-.214.83-.262l1.3-.14a.34.34 0 0 0 .237-.112q.088-.102.088-.296l.058 1.082-1.436.16a1 1 0 0 0-.383.121.68.68 0 0 0-.35.606q0 .214.112.379a.75.75 0 0 0 .316.252q.202.092.465.092.364 0 .64-.14.277-.147.427-.403.15-.262.15-.602V3.588a.77.77 0 0 0-.465-.723 1.2 1.2 0 0 0-.51-.102q-.286 0-.514.097a1 1 0 0 0-.368.262.7.7 0 0 0-.17.364H9.815q.048-.456.34-.815.295-.363.765-.567a2.65 2.65 0 0 1 1.053-.204M12.705 9.955h-2.493v-.921h3.798v.902l-2.62 3.143H14V14h-3.914v-.902z" fill="#CED0D6"/></svg>