<svg viewBox="0 0 16 16" fill="none" xmlns="http://www.w3.org/2000/svg">
  <path d="M4 4v8a2 2 0 0 0 2 2h4a2 2 0 0 0 2-2V4a2 2 0 0 0-2-2H6a2 2 0 0 0-2 2" fill="#253627"></path><path fill-rule="evenodd" clip-rule="evenodd" d="M5 4v8a1 1 0 0 0 1 1h4a1 1 0 0 0 1-1V4a1 1 0 0 0-1-1H6a1 1 0 0 0-1 1m-1 8V4a2 2 0 0 1 2-2h4a2 2 0 0 1 2 2v8a2 2 0 0 1-2 2H6a2 2 0 0 1-2-2" fill="#57965C"></path><path fill-rule="evenodd" clip-rule="evenodd" d="M1 4.5a.5.5 0 0 1 .5-.5H4v1H1.5a.5.5 0 0 1-.5-.5M12 4h2.5a.5.5 0 0 1 0 1H12zM1 8a.5.5 0 0 1 .5-.5H4v1H1.5A.5.5 0 0 1 1 8m11-.5h2.5a.5.5 0 0 1 0 1H12zm-11 4a.5.5 0 0 1 .5-.5H4v1H1.5a.5.5 0 0 1-.5-.5m11-.5h2.5a.5.5 0 0 1 0 1H12z" fill="#CED0D6"></path>
</svg>
