<svg viewBox="0 0 16 16" fill="none" xmlns="http://www.w3.org/2000/svg">
  <path d="m.586 6.586 6-6a2 2 0 0 1 2.828 0l6 6a2 2 0 0 1 0 2.828l-6 6a2 2 0 0 1-2.828 0l-6-6a2 2 0 0 1 0-2.828" fill="#45322B"></path><path fill-rule="evenodd" clip-rule="evenodd" d="m7.293 1.293-6 6a1 1 0 0 0 0 1.414l6 6a1 1 0 0 0 1.414 0l6-6a1 1 0 0 0 0-1.414l-6-6a1 1 0 0 0-1.414 0M6.586.586l-6 6a2 2 0 0 0 0 2.828l6 6a2 2 0 0 0 2.828 0l6-6a2 2 0 0 0 0-2.828l-6-6a2 2 0 0 0-2.828 0" fill="#C77D55"></path><path d="M8.133 11.5c1.489 0 2.765-.9 3.08-2.175h-1.016c-.314.73-1.092 1.252-2.064 1.252-1.34 0-2.306-1.074-2.306-2.577s.967-2.577 2.306-2.577c.972 0 1.75.522 2.064 1.252h1.015C10.898 5.4 9.622 4.5 8.132 4.5 6.215 4.5 4.789 5.994 4.789 8s1.426 3.5 3.345 3.5" fill="#C77D55"></path>
</svg>
