<svg viewBox="0 0 16 16" fill="none" xmlns="http://www.w3.org/2000/svg">
  <path fill-rule="evenodd" clip-rule="evenodd" d="M9 9.502a1.5 1.5 0 0 1 2.294-1.272l4.002 2.497a1.5 1.5 0 0 1 0 2.546l-4.002 2.497A1.5 1.5 0 0 1 9 14.498zm1.765-.424a.5.5 0 0 0-.765.424v4.996a.5.5 0 0 0 .765.424l4.002-2.498a.5.5 0 0 0 0-.848z" fill="#208A3C"></path><path d="M10 9.502a.5.5 0 0 1 .765-.424l4.002 2.498a.5.5 0 0 1 0 .848l-4.002 2.498a.5.5 0 0 1-.765-.424z" fill="#F2FCF3"></path><path d="M5.5 1a.5.5 0 0 0 0 1h5a.5.5 0 0 0 0-1zM8 5.5a.5.5 0 0 0-.5.5v2.717L5.243 10.07a.5.5 0 1 0 .514.858l2.5-1.5A.5.5 0 0 0 8.5 9V6a.5.5 0 0 0-.5-.5" fill="#6C707E"></path><path d="M8 14a5 5 0 1 1 4.912-5.939l1.082.676A6 6 0 1 0 8 15z" fill="#6C707E"></path>
</svg>
