<svg viewBox="0 0 16 16" fill="none" xmlns="http://www.w3.org/2000/svg">
  <rect x="2.5" y="2.5" width="11" height="11" rx="1.5" fill="#253627" stroke="#57965C"></rect><path d="M6.185 11.155q.784.465 1.765.465.935 0 1.68-.415.75-.42 1.17-1.155a3.27 3.27 0 0 0 .425-1.66v-.56H8.35v.995h1.664q-.038.463-.284.835-.27.41-.735.64-.46.225-1.03.225-.636 0-1.14-.32a2.2 2.2 0 0 1-.79-.895A2.96 2.96 0 0 1 5.755 8q0-.735.28-1.305A2.2 2.2 0 0 1 6.82 5.8a2.05 2.05 0 0 1 1.135-.325q.5 0 .93.195.435.195.72.525.29.33.375.735h1.205a2.57 2.57 0 0 0-.535-1.29 3.1 3.1 0 0 0-1.16-.92 3.5 3.5 0 0 0-1.54-.34 3.37 3.37 0 0 0-1.765.47q-.786.465-1.23 1.295Q4.51 6.97 4.51 8t.445 1.86q.444.825 1.23 1.295" fill="#57965C"></path>
</svg>
