<svg width="16" height="16" viewBox="0 0 16 16" fill="none"><path fill-rule="evenodd" clip-rule="evenodd" d="M11 10.5a.5.5 0 0 1 .5-.5h4a.5.5 0 0 1 .5.5v4a.5.5 0 0 1-1 0v-2.793l-4.146 4.147a.5.5 0 0 1-.708-.708L14.293 11H11.5a.5.5 0 0 1-.5-.5" fill="#3574F0"/><path d="M13.973 2.108c.653.22 1.136.734 1.368 1.213q.1.193.144.403.025.09.049.196c.078.35.136.846.066 1.434-.125 1.057-.658 2.36-2.117 3.646h-1.561a3 3 0 0 1 .342-.298c1.2-.898 1.811-1.784 2.108-2.542-.386.252-.86.41-1.409.41-.65 0-1.27-.267-1.847-.557q-.272-.137-.54-.279c-.42-.22-.841-.443-1.317-.636-1.291-.525-2.879-.79-5.114.312a.45.45 0 0 0-.21.546l.12.368.577 1.902c.039.106.136.197.322.238.197.043.42.01.571-.076l.007-.004a8.8 8.8 0 0 0 1.725-1.21.5.5 0 0 1 .67.743A9.8 9.8 0 0 1 6.01 9.262c-.377.21-.851.272-1.273.178-.431-.095-.876-.372-1.055-.899l-.002-.007-.382-1.254a4.84 4.84 0 0 0-1.482 1.959c-.358.868-.499 1.9-.414 3.108h.617a1.987 1.987 0 0 1 3.7-.001h.66a1.99 1.99 0 0 1 1.85-1.262c.832 0 1.56.51 1.852 1.26h.553q.02-.284.063-.576c.232.147.507.232.802.232h.175q-.016.114-.027.23l-1.113 1.114h-.662a.72.72 0 0 1-.69-.538.98.98 0 0 0-.953-.722.99.99 0 0 0-.952.726.72.72 0 0 1-.69.536H5.512a.72.72 0 0 1-.69-.536.987.987 0 0 0-1.904 0 .72.72 0 0 1-.69.537H1.036a.6.6 0 0 1-.597-.539c-.153-1.48-.019-2.805.454-3.95q.642-1.561 2.091-2.593v-.002c-.214-.663.057-1.424.719-1.75 2.528-1.246 4.417-.957 5.933-.341.523.213 1.016.471 1.451.7q.252.133.478.247c.569.286 1.004.45 1.398.45a1.54 1.54 0 0 0 1.32-.705c.218-.332.273-.673.226-.915a2 2 0 0 0-.067-.192 1.44 1.44 0 0 0-.788-.7c-.325-.11-.775-.097-1.324.383a.5.5 0 1 1-.658-.753c.788-.689 1.604-.813 2.3-.579" fill="#6C707E"/><path d="M9.144 7.04c-.037.108.02.22.115.28l.889.571c.095.061.22.067.302-.011a.798.798 0 1 0-1.306-.84" fill="#6C707E"/></svg>