<svg width="12" height="12" viewBox="0 0 12 12" fill="none"><path fill-rule="evenodd" clip-rule="evenodd" d="M1.787 11.633a1.09 1.09 0 0 0 .997.352 7 7 0 0 1 .603-.068l.04-.003h.007c.418-.018.89-.004 1.428.013l.245.008c.625.018 1.317.032 2-.018 1.35-.1 2.863-.466 3.852-1.76.96-1.255 1.126-2.831 1.006-4.262-.122-1.442-.546-2.866-.913-3.938L10.379 0l-.912 1.861c-.503 1.027-1.833 1.911-3.02 2.188-.48.113-.931.136-1.458.163h-.001l-.226.011c-.603.033-1.298.087-2.025.361C1.075 5.212.217 6.53.036 7.822c-.168 1.198.247 2.591 1.408 3.18l.033.079.033.081c.035.086.12.296.277.471M3.09 5.52c-1.304.492-1.931 1.493-2.064 2.44-.134.952.228 1.824.87 2.15l.309.157c.606-.125 2.191-.468 3.156-.817 1.768-.641 3.711-2.222 4.35-4.06C9.372 7.3 7.7 9.139 6.024 9.983c-.567.287-1.054.431-1.71.627a40 40 0 0 0-1.007.31h.012l.046-.004h.016l.008-.001c.456-.02.96-.004 1.478.012l.269.008c.624.018 1.27.031 1.897-.015 1.26-.094 2.407-.422 3.131-1.37.742-.97.915-2.252.803-3.57-.1-1.194-.43-2.399-.76-3.393-.354.585-.872 1.081-1.417 1.466-.638.451-1.385.8-2.116.97-.568.133-1.097.16-1.6.185l-.035.002-.223.012c-.59.032-1.153.082-1.726.298" fill="#CED0D6"/></svg>