<svg viewBox="0 0 16 16" fill="none" xmlns="http://www.w3.org/2000/svg">
  <path fill-rule="evenodd" clip-rule="evenodd" d="M8.5 4.5a2.5 2.5 0 1 1-5 0 2.5 2.5 0 0 1 5 0m-1 0a1.5 1.5 0 1 1-3 0 1.5 1.5 0 0 1 3 0M1.901 13h8.198c.562 0 1.005-.464.88-1.012C10.645 10.527 9.553 8 5.997 8c-3.558 0-4.645 2.528-4.976 3.99-.124.547.318 1.01.88 1.01m8.05-1H2.049c.16-.599.454-1.304.983-1.872C3.594 9.523 4.487 9 5.997 9s2.403.523 2.967 1.128c.53.568.826 1.273.987 1.872" fill="#CED0D6"></path><path d="M10 7c-.456 0-.882-.122-1.25-.335.206-.26.375-.552.5-.865a1.5 1.5 0 1 0 0-2.6 3.5 3.5 0 0 0-.5-.865A2.5 2.5 0 1 1 10 7M13.95 12h-1.957c.04.373-.036.712-.19 1h2.296c.562 0 1.005-.464.88-1.012C14.645 10.527 13.553 8 9.997 8q-.226 0-.438.013a5.3 5.3 0 0 1 1.107 1.024c1.114.13 1.823.581 2.298 1.09.53.569.826 1.274.987 1.873" fill="#CED0D6"></path>
</svg>
