<svg width="20" height="20" viewBox="0 0 20 20" fill="none"><path d="M10.314 4.75A5.25 5.25 0 0 0 5.07 9.757L6.098 8.73a.75.75 0 0 1 1.06 1.06l-2.844 2.845L1.47 9.79a.75.75 0 0 1 1.06-1.06l1.038 1.037a6.75 6.75 0 0 1 10.429-5.425.75.75 0 1 1-.82 1.257 5.2 5.2 0 0 0-2.863-.849M19.159 11.27a.75.75 0 0 0 0-1.06l-2.845-2.844-2.844 2.844a.75.75 0 0 0 1.06 1.06l1.028-1.027a5.25 5.25 0 0 1-8.108 4.158.75.75 0 0 0-.819 1.257 6.75 6.75 0 0 0 10.428-5.425l1.039 1.038a.75.75 0 0 0 1.06 0" fill="#CED0D6"/></svg>