<svg viewBox="0 0 16 16" fill="none" xmlns="http://www.w3.org/2000/svg">
  <path fill-rule="evenodd" clip-rule="evenodd" d="M5 4a3 3 0 0 0 6 0h-1a2 2 0 1 1-4 0z" fill="#CED0D6"></path><path fill-rule="evenodd" clip-rule="evenodd" d="M5 2v1H3.5a.5.5 0 0 0 0 1h9a.5.5 0 0 0 0-1H11V2a2 2 0 0 0-2-2H7a2 2 0 0 0-2 2m1 1V2a1 1 0 0 1 1-1h2a1 1 0 0 1 1 1v1z" fill="#548AF7"></path><path d="M5 4a3 3 0 0 0 6 0h-1a2 2 0 1 1-4 0z" fill="#CED0D6"></path><path fill-rule="evenodd" clip-rule="evenodd" d="M2.103 13.008C2.399 11.303 3.548 8 8 8s5.6 3.303 5.897 5.008c.094.544-.345.992-.897.992H3c-.553 0-.992-.448-.897-.992M12.878 13c-.15-.745-.47-1.705-1.134-2.489C11.059 9.704 9.94 9 8 9s-3.06.704-3.744 1.511c-.665.784-.985 1.744-1.134 2.489z" fill="#CED0D6"></path>
</svg>
