<svg viewBox="0 0 16 16" fill="none" xmlns="http://www.w3.org/2000/svg">
  <path d="M1 3v4a1 1 0 0 0 1 1h6a1 1 0 0 0 1-1V4a1 1 0 0 0-1-1H5.5l-1-1H2a1 1 0 0 0-1 1" fill="#EBECF0"></path><path fill-rule="evenodd" clip-rule="evenodd" d="M1 7a1 1 0 0 0 1 1h6a1 1 0 0 0 1-1V4a1 1 0 0 0-1-1H5.5l-1-1H2a1 1 0 0 0-1 1zm3.086-4H2v4h6V4H5.086z" fill="#6C707E"></path><path d="M4.5 7.5v3m4 3h-3a1 1 0 0 1-1-1v-2m0 0h4" stroke="#6C707E" stroke-linecap="round"></path><path d="m12.5 2.5-2 2m2-2 2 2m-2-2v11" stroke="#6C707E" stroke-linecap="round" stroke-linejoin="round"></path>
</svg>
