<svg viewBox="0 0 16 16" fill="none" xmlns="http://www.w3.org/2000/svg">
  <path d="M3.294 10.709 1.293 8.708a1 1 0 0 1 0-1.414l2-2.001a1 1 0 0 1 1.415 0l2 2a1 1 0 0 1 0 1.415l-2 2a1 1 0 0 1-1.414 0" fill="#EDF3FF"></path><path d="m5.293 4.708 2 2a1 1 0 0 0 1.415 0l2-2a1 1 0 0 0 0-1.414l-2-2.001a1 1 0 0 0-1.414 0l-2.001 2a1 1 0 0 0 0 1.415" fill="#EBECF0"></path><path fill-rule="evenodd" clip-rule="evenodd" d="M3.294 10.709 1.293 8.708a1 1 0 0 1 0-1.414l2-2.001a1 1 0 0 1 1.415 0l2 2a1 1 0 0 1 0 1.415l-2 2a1 1 0 0 1-1.414 0M2 8l2 2 2.002-2L4 6z" fill="#3574F0"></path><path fill-rule="evenodd" clip-rule="evenodd" d="M7.294 6.709 5.293 4.708a1 1 0 0 1 0-1.414l2-2.001a1 1 0 0 1 1.415 0l2 2a1 1 0 0 1 0 1.415l-2 2a1 1 0 0 1-1.414 0M6 4l2 2 2.002-2L8 2z" fill="#6C707E"></path><path d="M10.713 14.71c-.241-.597-.404-1.362-.45-2.21H9.041c.164.98.803 1.798 1.672 2.21M11.678 14.428c-.207-.473-.365-1.143-.413-1.928h1.47c-.049.785-.207 1.455-.414 1.928-.119.271-.236.437-.322.525-.085-.088-.202-.254-.32-.525M11.678 9.572c-.207.473-.365 1.143-.413 1.928h1.47c-.049-.785-.207-1.455-.414-1.928-.119-.271-.236-.437-.322-.525-.085.088-.202.254-.32.525M13.286 14.71c.241-.597.404-1.362.45-2.21h1.222a3 3 0 0 1-1.672 2.21M13.736 11.5h1.222a3 3 0 0 0-1.672-2.21c.241.597.404 1.362.45 2.21M9.041 11.5h1.222c.046-.848.209-1.613.45-2.21A3 3 0 0 0 9.04 11.5" fill="#EBECF0"></path><path fill-rule="evenodd" clip-rule="evenodd" d="M16 12a4 4 0 1 0-8 0 4 4 0 0 0 8 0m-5.736.5c.046.848.208 1.613.45 2.21A3 3 0 0 1 9.04 12.5zm1.001 0c.048.785.207 1.455.414 1.928.118.271.236.437.321.525.085-.088.203-.254.321-.525.207-.473.366-1.143.414-1.928zm1.47-1h-1.47c.048-.785.207-1.455.414-1.928.118-.271.236-.437.321-.525.085.088.203.254.321.525.207.473.366 1.143.414 1.928m1.002 1c-.047.848-.21 1.613-.45 2.21a3 3 0 0 0 1.672-2.21zm1.222-1h-1.223c-.046-.848-.208-1.613-.45-2.21a3 3 0 0 1 1.673 2.21m-4.695 0H9.04a3 3 0 0 1 1.672-2.21c-.24.597-.403 1.362-.45 2.21" fill="#6C707E"></path><path d="M8 9a1 1 0 0 0-.706.293l-2.001 2a1 1 0 0 0 0 1.415l2 2a1 1 0 0 0 .708.294A4.98 4.98 0 0 1 7 12c0-1.126.372-2.164 1-3" fill="#EBECF0"></path><path d="M8 9a1 1 0 0 0-.706.293l-2.001 2a1 1 0 0 0 0 1.415l2 2a1 1 0 0 0 .708.294 5 5 0 0 1-.873-1.873L6 12l1.127-1.128c.16-.69.461-1.325.873-1.873" fill="#6C707E"></path><path d="M15.002 8A4.98 4.98 0 0 0 12 7a4.98 4.98 0 0 0-3 1c0-.256.098-.511.293-.706l2-2.001a1 1 0 0 1 1.415 0l2 2a1 1 0 0 1 .294.708" fill="#EDF3FF"></path><path d="M15.002 8a1 1 0 0 0-.293-.706l-2.001-2.001a1 1 0 0 0-1.414 0l-2.001 2A1 1 0 0 0 9 8a5 5 0 0 1 1.873-.873L12.001 6l1.128 1.128c.69.16 1.325.461 1.873.873" fill="#3574F0"></path>
</svg>
