<svg width="20" height="20" viewBox="0 0 20 20" fill="none"><path fill-rule="evenodd" clip-rule="evenodd" d="M1.75 2a.75.75 0 0 1 .75.75v7.506l1.752-1.66a2.5 2.5 0 1 1 4.579-.192l1.275 1.02A2.5 2.5 0 0 1 11.5 9c.417 0 .81.102 1.156.283l1.627-1.627a2.5 2.5 0 1 1 1.06 1.06l-1.626 1.628a2.5 2.5 0 1 1-4.548.252l-1.275-1.02A2.5 2.5 0 0 1 6.5 10c-.441 0-.856-.114-1.216-.315L2.5 12.323V16.5h15.75a.75.75 0 0 1 0 1.5h-16C1.56 18 1 17.44 1 16.75v-14A.75.75 0 0 1 1.75 2M7.5 7.5a1 1 0 1 1-2 0 1 1 0 0 1 2 0m5 4a1 1 0 1 1-2 0 1 1 0 0 1 2 0m5-5a1 1 0 1 1-2 0 1 1 0 0 1 2 0" fill="#CED0D6"/></svg>