<svg width="20" height="20" viewBox="0 0 20 20" fill="none"><g clip-path="url(#a)" fill="#CED0D6"><path fill-rule="evenodd" clip-rule="evenodd" d="M15.476 10.105a1 1 0 0 1 .903.273l3.328 3.329a1 1 0 0 1 .293.707V17a1 1 0 0 1-1 1h-.94a1 1 0 0 1-.06.059v.94a1 1 0 0 1-1 1h-2.585a1 1 0 0 1-.707-.292l-3.33-3.329a1 1 0 0 1-.273-.903l.634-3.168a2 2 0 0 1 1.569-1.569zM17.56 16.5h.94V14.62l-2.994-2.993-2.348.47zm-5.463-3.341 4.402 4.402v.939h-1.878l-2.993-2.993zM2 4v3a2 2 0 0 0 2 2h12a2 2 0 0 0 2-2V4a2 2 0 0 0-2-2H4a2 2 0 0 0-2 2m1.5 3V4a.5.5 0 0 1 .5-.5h12a.5.5 0 0 1 .5.5v3a.5.5 0 0 1-.5.5H4a.5.5 0 0 1-.5-.5"/><path d="M4 11h5.64c-.173.311-.3.652-.372 1.013l-.097.487H4a.5.5 0 0 0-.5.5v3a.5.5 0 0 0 .5.5h4.727c.123.348.322.67.591.939L9.88 18H4a2 2 0 0 1-2-2v-3a2 2 0 0 1 2-2"/></g><defs><clipPath id="a"><path fill="#fff" d="M0 0H20V20H0z"/></clipPath></defs></svg>