<svg width="16" height="16" viewBox="0 0 16 16" fill="none"><path fill-rule="evenodd" clip-rule="evenodd" d="M2 12.498V3.502a.5.5 0 0 1 .833-.373l5.001 4.498a.5.5 0 0 1 0 .746L2.833 12.87A.5.5 0 0 1 2 12.498M9 12.498V3.502a.5.5 0 0 1 .833-.373l5.001 4.498a.5.5 0 0 1 0 .746L9.833 12.87A.5.5 0 0 1 9 12.498" fill="#25324D"/><path fill-rule="evenodd" clip-rule="evenodd" d="M2.999 11.377 6.752 8 3 4.623zM2 12.498V3.502a.5.5 0 0 1 .833-.373l5.001 4.498a.5.5 0 0 1 0 .746L2.833 12.87A.5.5 0 0 1 2 12.498M9.999 11.377 13.753 8 10 4.623zM9 12.498V3.502a.5.5 0 0 1 .833-.373l5.001 4.498a.5.5 0 0 1 0 .746L9.833 12.87A.5.5 0 0 1 9 12.498" fill="#548AF7"/></svg>