<svg viewBox="0 0 16 16" fill="none" xmlns="http://www.w3.org/2000/svg">
  <path fill-rule="evenodd" clip-rule="evenodd" d="M7.5 16a2.5 2.5 0 0 0 2.45-3h1.1q-.05.243-.05.5a2.5 2.5 0 1 0 .5-1.5h-2a2.5 2.5 0 1 0-2 4m0-1a1.5 1.5 0 1 0 0-3 1.5 1.5 0 0 0 0 3m6 0a1.5 1.5 0 1 0 0-3 1.5 1.5 0 0 0 0 3" fill="#6C707E"></path><path d="M14.65 10.193a7 7 0 1 0-10.64 3.558A3.5 3.5 0 0 1 9.949 11h1.1a3.5 3.5 0 0 1 2.45-1c.403 0 .79.068 1.15.193" fill="#EDF3FF"></path><path d="M14.65 10.193a7 7 0 1 0-10.64 3.558 3.6 3.6 0 0 1 .112-1.172 6 6 0 1 1 9.535-2.575q.522.024.993.19" fill="#3574F0"></path><path d="M9.949 11c.628-.388 1.09-.975 1.263-1.675h-1.015c-.2.465-.59.846-1.098 1.061.314.162.6.369.85.613M6.722 10.087C6.166 9.632 5.826 8.892 5.826 8c0-1.503.967-2.577 2.306-2.577.972 0 1.75.522 2.065 1.252h1.015C10.898 5.4 9.622 4.5 8.132 4.5 6.213 4.5 4.787 5.994 4.787 8c0 .993.35 1.861.936 2.484.306-.18.642-.316 1-.397" fill="#3574F0"></path>
</svg>
