<svg viewBox="0 0 16 16" fill="none" xmlns="http://www.w3.org/2000/svg">
  <g clip-path="url(#a)" fill="#CED0D6"><path d="M4 4h2v1H4z"></path><path fill-rule="evenodd" clip-rule="evenodd" d="M2 3v3a1 1 0 0 0 1 1h10a1 1 0 0 0 1-1V3a1 1 0 0 0-1-1H3a1 1 0 0 0-1 1m1 3V3h10v3z"></path><path d="M6 11H4v1h2z"></path><path fill-rule="evenodd" clip-rule="evenodd" d="M2 10v3a1 1 0 0 0 1 1h10a1 1 0 0 0 1-1v-3a1 1 0 0 0-1-1H3a1 1 0 0 0-1 1m1 3v-3h10v3z"></path></g><defs><clipPath id="a"><path fill="#fff" d="M0 0H16V16H0z"></path></clipPath></defs>
</svg>
