<svg viewBox="0 0 16 16" fill="none" xmlns="http://www.w3.org/2000/svg">
  <path d="M12 10h1v5h-1zM10 11h1v4h-1zM15 12h-1v3h1z" fill="#25324D"></path><path fill-rule="evenodd" clip-rule="evenodd" d="M11 10a1 1 0 0 1 1-1h1a1 1 0 0 1 1 1v1h1a1 1 0 0 1 1 1v3a1 1 0 0 1-1 1h-5a1 1 0 0 1-1-1v-4a1 1 0 0 1 1-1zm1 0h1v5h-1zm-1 1h-1v4h1zm3 4h1v-3h-1z" fill="#548AF7"></path><path d="M14.878 9.31Q14.999 8.672 15 8a7 7 0 1 0-7 7v-4a2 2 0 0 1 2-2h.268A2 2 0 0 1 12 8h1a2 2 0 0 1 1.878 1.31" fill="#253627"></path><path d="M9.73 6.359v-.974h.925v2.937q0 .096.011.188-.237.212-.398.49H10q-.338.002-.64.105c.184-.298.29-.662.29-1.065 0-1.054-.725-1.85-1.69-1.85-.966 0-1.69.796-1.69 1.85s.724 1.85 1.69 1.85q.214 0 .41-.05a2 2 0 0 0-.357.933l-.142.003c-1.488 0-2.607-1.175-2.607-2.736 0-1.56 1.119-2.735 2.607-2.735.845 0 1.484.385 1.83 1.054z" fill="#57965C"></path><path d="M14.792 9.11A3.3 3.3 0 0 0 15 7.92C15 4.114 11.854 1 8 1S1 4.186 1 8.08C1 11.886 4.146 15 8 15v-1.006c-3.299 0-5.994-2.663-5.994-5.914C2.006 4.741 4.7 2.006 8 2.006s5.994 2.663 5.994 5.914q0 .171-.02.332c.351.197.637.496.817.858" fill="#57965C"></path>
</svg>
