<svg viewBox="0 0 16 16" fill="none" xmlns="http://www.w3.org/2000/svg">
  <path fill-rule="evenodd" clip-rule="evenodd" d="M4 3a1 1 0 0 1 1-1h2a1 1 0 0 1 1 1v11H4zm3 0H5v10h2z" fill="#3574F0"></path><path d="M5 3h2v10H5z" fill="#EDF3FF"></path><path d="M8 6v7h2V6zM11 13V9h2v4zM4 13V8H2v5z" fill="#EBECF0"></path><path fill-rule="evenodd" clip-rule="evenodd" d="M13 14H2a1 1 0 0 1-1-1V8a1 1 0 0 1 1-1h2v1H2v5h8V6H8V5h2a1 1 0 0 1 1 1v2h2a1 1 0 0 1 1 1v4a1 1 0 0 1-1 1m-2-1V9h2v4z" fill="#6C707E"></path>
</svg>
