<svg viewBox="0 0 16 16" fill="none" xmlns="http://www.w3.org/2000/svg">
  <path d="M2 4a1 1 0 0 1 1-1h2v10H3a1 1 0 0 1-1-1z" fill="#EBECF0"></path><path fill-rule="evenodd" clip-rule="evenodd" d="M12.5 9a.5.5 0 0 1 .5.5V12h2.5a.5.5 0 0 1 0 1H13v2.5a.5.5 0 0 1-1 0V13H9.5a.5.5 0 0 1 0-1H12V9.5a.5.5 0 0 1 .5-.5" fill="#3574F0"></path><path fill-rule="evenodd" clip-rule="evenodd" d="M3 2a2 2 0 0 0-2 2v8a2 2 0 0 0 2 2h5v-1H6V3h7a1 1 0 0 1 1 1v4h1V4a2 2 0 0 0-2-2zm2 1H3a1 1 0 0 0-1 1v8a1 1 0 0 0 1 1h2z" fill="#6C707E"></path>
</svg>
