<svg width="16" height="16" viewBox="0 0 16 16" fill="none"><path fill-rule="evenodd" clip-rule="evenodd" d="M12.5 9a.5.5 0 0 1 .5.5V12h2.5a.5.5 0 0 1 0 1H13v2.5a.5.5 0 0 1-1 0V13H9.5a.5.5 0 0 1 0-1H12V9.5a.5.5 0 0 1 .5-.5" fill="#548AF7"/><path d="M3 13V5.828a2 2 0 0 1 .586-1.414l2.828-2.828A2 2 0 0 1 7.828 1H11a2 2 0 0 1 2 2v5h-.5A1.5 1.5 0 0 0 11 9.5V11H9.5A1.5 1.5 0 0 0 8 12.5V15H5a2 2 0 0 1-2-2" fill="#43454A"/><path fill-rule="evenodd" clip-rule="evenodd" d="M3 13V5.828a2 2 0 0 1 .586-1.414l2.828-2.828A2 2 0 0 1 7.828 1H11a2 2 0 0 1 2 2v5h-.5q-.264.001-.5.085V3a1 1 0 0 0-1-1H8v2a2 2 0 0 1-2 2H4v7a1 1 0 0 0 1 1h3v1H5a2 2 0 0 1-2-2m1.414-8L7 2.414V4a1 1 0 0 1-1 1z" fill="#CED0D6"/></svg>