<svg viewBox="0 0 16 16" fill="none" xmlns="http://www.w3.org/2000/svg">
  <path d="M1 7.998a6.998 6.998 0 1 1 13.815 1.585l-.64-1.068a3.08 3.08 0 0 0-1.754-1.377 2.67 2.67 0 0 0-.679-1.384c.072-.177.312-.889-.07-1.852 0 0-.586-.188-1.922.718a6.7 6.7 0 0 0-1.752-.236 6.7 6.7 0 0 0-1.752.236c-1.337-.906-1.924-.718-1.924-.718-.381.963-.14 1.675-.069 1.852a2.7 2.7 0 0 0-.72 1.878c0 2.681 1.634 3.282 3.187 3.459-.2.174-.38.483-.444.935-.398.179-1.412.488-2.037-.582 0 0-.369-.671-1.071-.72 0 0-.684-.01-.048.425 0 0 .458.215.777 1.023 0 0 .394 1.308 2.243.961a2.9 2.9 0 0 0-.084 1.49.5.5 0 0 1-.27.015A7 7 0 0 1 1 7.998" fill="#161514"></path><g clip-path="url(#a)" fill="#E66D17"><path fill-rule="evenodd" clip-rule="evenodd" d="m14.863 13.546-2.401-4.002a1.12 1.12 0 0 0-1.921 0L8.14 13.546A.96.96 0 0 0 8.963 15h5.077a.96.96 0 0 0 .823-1.454m.857-.514-2.4-4.002c-.824-1.373-2.813-1.373-3.637 0l-2.4 4.002C6.498 14.337 7.44 16 8.962 16h5.077c1.523 0 2.464-1.662 1.68-2.969"></path><path d="M12 10h-1v2h1zM12 14v-1h-1v1z"></path></g><defs><clipPath id="a"><path fill="#fff" transform="translate(7 8)" d="M0 0H9V8H0z"></path></clipPath></defs>
</svg>
