<svg width="20" height="20" viewBox="0 0 20 20" fill="none"><path fill-rule="evenodd" clip-rule="evenodd" d="M5.243 7.25c1.06-.408 2.075-.488 2.954-.536l.33-.018c.77-.04 1.427-.074 2.127-.24h.001c1.732-.412 3.67-1.724 4.403-3.248l1.33-2.763.98 2.905c.537 1.59 1.155 3.705 1.332 5.845.176 2.123-.067 4.463-1.466 6.326-1.443 1.92-3.648 2.463-5.617 2.612-.997.075-2.006.053-2.918.026l-.357-.011c-.785-.025-1.473-.047-2.083-.02h-.01l-.058.005a11 11 0 0 0-.88.1c-.26.044-.55.029-.836-.084-.279-.109-.48-.281-.617-.437a2.4 2.4 0 0 1-.404-.7l-.049-.12-.047-.117c-1.693-.874-2.299-2.942-2.054-4.72.265-1.919 1.515-3.874 3.94-4.806m3.141 9.648c2.813.09 6.106.194 7.85-2.128 2.267-3.019 1.004-7.9-.05-11.02-.938 1.95-3.246 3.448-5.24 3.921-.819.196-1.596.235-2.357.274-.976.05-1.924.098-2.895.471-3.944 1.516-3.884 6.217-1.711 7.273l.129.07s3.194-.638 4.96-1.288c2.58-.951 5.413-3.298 6.345-6.026-.494 2.835-2.931 5.564-5.377 6.818-.827.424-1.537.64-2.493.93-.551.166-1.184.358-1.967.629a8 8 0 0 0-.47.178c.545-.09 1.086-.12 1.086-.12.664-.03 1.408-.006 2.19.018" fill="#6C707E"/></svg>