<svg width="14" height="14" viewBox="0 0 14 14" fill="none"><path fill-rule="evenodd" clip-rule="evenodd" d="M4 14v-3l6.703-6.703a1 1 0 0 1 1.414 0l1.586 1.586a1 1 0 0 1 0 1.414L7 14zm1-1v-1.586l4.354-4.353 1.585 1.585L6.586 13zm6.646-5.06 1.35-1.35-1.586-1.586-1.35 1.35zM1 9H0V0h3.035q1.053 0 1.728.36.675.354 1 .978.324.622.324 1.416 0 .795-.324 1.408-.325.614-.996.965-.167.086-.357.15l1.383 2.516-.813.813-1.698-3.137a6 6 0 0 1-.23.004H1zm2.017-4.51H1V1h2c.485 0 .875.04 1.17.189q.444.219.645.622.202.405.202.943 0 .54-.202.93a1.33 1.33 0 0 1-.64.596q-.438.21-1.158.21" fill="#C9CCD6"/></svg>