<svg width="16" height="16" viewBox="0 0 16 16" fill="none"><rect x="11" y="5" width="3" height="3" rx="1" fill="#4682FA"/><path d="M11 14a1 1 0 0 1 1-1h1a1 1 0 0 1 1 1v1a1 1 0 0 1-1 1h-1a1 1 0 0 1-1-1z" fill="#4682FA"/><path d="M5 14v-4a1 1 0 0 1 1-1h2.5l1 1H12a1 1 0 0 1 1 1v1h-1a2 2 0 0 0-2 2v1H6a1 1 0 0 1-1-1M5 6V2a1 1 0 0 1 1-1h2.5l1 1H12a1 1 0 0 1 1 1v1h-1a2 2 0 0 0-2 2v1H6a1 1 0 0 1-1-1" fill="#EBECF0"/><path d="M3 1.5a.5.5 0 0 0-1 0v13a.5.5 0 0 0 1 0V12h2v2a1 1 0 0 0 1 1h4v-1H6v-4h2.086l1 1H12v1h1v-1a1 1 0 0 0-1-1H9.5l-1-1H6a1 1 0 0 0-1 1v1H3V4h2v2a1 1 0 0 0 1 1h4V6H6V2h2.086l1 1H12v1h1V3a1 1 0 0 0-1-1H9.5l-1-1H6a1 1 0 0 0-1 1v1H3z" fill="#6C707E"/></svg>