<svg viewBox="0 0 16 16" fill="none" xmlns="http://www.w3.org/2000/svg">
  <path d="M14.533 8.474c0 2.797-2.925 5.064-6.533 5.064s-6.533-2.267-6.533-5.064c0-1.735 1.12-3.267 2.84-4.175C6.03 3.39 7.1 2.459 8 2.459s1.669.76 3.692 1.84c1.721.908 2.841 2.44 2.841 4.175" fill="#FBF0DF"></path><path d="M14.533 8.473c-.001-.36-.051-.717-.15-1.063-.509 6.124-8.091 6.419-11.072 4.587A7.54 7.54 0 0 0 8 13.538c3.602 0 6.533-2.271 6.533-5.065" fill="#F6DECE"></path><path d="M5.485 3.962C6.32 3.47 7.43 2.544 8.52 2.542a1.8 1.8 0 0 0-.52-.082c-.45 0-.932.23-1.54.575q-.314.184-.66.396c-.435.265-.933.564-1.493.864-1.777.947-2.84 2.509-2.84 4.179v.218c1.132-3.937 3.187-4.237 4.02-4.73" fill="#FFFEFC"></path><path fill-rule="evenodd" clip-rule="evenodd" d="M7.462 2.925a3 3 0 0 1-.271 1.26 3 3 0 0 1-.78 1.033c-.052.046-.011.134.056.108.63-.24 1.479-.961 1.12-2.416-.015-.083-.125-.06-.125.015m.424 0a2.96 2.96 0 0 1 .3 2.477c-.022.064.058.12.103.066.409-.515.765-1.537-.302-2.64-.054-.049-.139.025-.101.09zm.515-.032c.358.25.657.572.877.945.221.373.358.789.402 1.218a.06.06 0 0 0 .012.044.06.06 0 0 0 .083.014.06.06 0 0 0 .026-.038c.172-.642.075-1.736-1.338-2.304-.075-.03-.124.07-.062.114zM4.955 4.806c.426-.125.82-.337 1.156-.623a3.1 3.1 0 0 0 .799-1.032c.033-.066.14-.04.123.033-.323 1.471-1.404 1.778-2.076 1.738-.07.002-.069-.096-.002-.116" fill="#CCBEA7"></path><path d="M8 14c-3.86 0-7-2.48-7-5.526 0-1.84 1.154-3.555 3.086-4.583.56-.295 1.04-.59 1.467-.85q.351-.216.672-.403C6.88 2.256 7.44 2 8 2s1.05.22 1.661.577c.187.105.374.22.573.344.465.284.99.604 1.68.97C13.846 4.919 15 6.633 15 8.474 15 11.52 11.86 14 8 14M8 2.46c-.452 0-.933.23-1.54.575q-.315.185-.66.396a31 31 0 0 1-1.494.864c-1.777.947-2.84 2.509-2.84 4.179 0 2.793 2.931 5.066 6.534 5.066s6.533-2.273 6.533-5.066c0-1.67-1.062-3.232-2.84-4.175-.706-.368-1.257-.714-1.703-.986q-.306-.186-.56-.338C8.864 2.644 8.452 2.46 8 2.46" fill="#000"></path><path d="M9.316 9.816a1.64 1.64 0 0 1-.545.866 1.28 1.28 0 0 1-.746.346 1.3 1.3 0 0 1-.771-.346 1.64 1.64 0 0 1-.538-.866.13.13 0 0 1 .038-.11.14.14 0 0 1 .111-.039H9.17a.14.14 0 0 1 .11.04.13.13 0 0 1 .037.109" fill="#B71422"></path><path d="M7.254 10.697c.21.198.48.322.769.35.288-.029.559-.152.767-.35q.101-.092.187-.197a1.27 1.27 0 0 0-.915-.425 1.16 1.16 0 0 0-.933.512c.043.038.08.075.125.11" fill="#FF6164"></path><path d="M7.285 10.552a1 1 0 0 1 .782-.383c.28.008.546.12.746.311q.064-.07.124-.142a1.32 1.32 0 0 0-.88-.355 1.2 1.2 0 0 0-.912.434q.065.071.14.135" fill="#000"></path><path d="M8.017 11.138a1.4 1.4 0 0 1-.83-.368 1.75 1.75 0 0 1-.581-.929.22.22 0 0 1 .048-.184.26.26 0 0 1 .211-.093H9.17a.27.27 0 0 1 .21.093.22.22 0 0 1 .047.184 1.75 1.75 0 0 1-.58.929c-.227.211-.519.34-.83.368M6.865 9.777c-.03 0-.037.013-.04.016.08.315.258.596.51.804.185.18.425.292.682.322a1.18 1.18 0 0 0 .681-.318c.252-.208.43-.49.508-.804a.04.04 0 0 0-.037-.016z" fill="#000"></path><path d="M10.84 9.93c.603 0 1.092-.284 1.092-.633s-.489-.633-1.092-.633-1.092.283-1.092.633.489.632 1.092.632M5.19 9.93c.603 0 1.092-.284 1.092-.633s-.49-.633-1.092-.633-1.092.283-1.092.633.489.632 1.092.632" fill="#FEBBD0"></path><path fill-rule="evenodd" clip-rule="evenodd" d="M5.702 9.043c.204 0 .403-.058.572-.17a1 1 0 0 0 .158-1.56 1.03 1.03 0 0 0-1.12-.22 1.02 1.02 0 0 0-.463.374 1 1 0 0 0 .127 1.279c.193.19.454.297.726.297m4.624 0a1.04 1.04 0 0 0 .574-.167c.17-.11.303-.268.382-.453a1 1 0 0 0-.218-1.107 1.03 1.03 0 0 0-1.122-.223c-.189.077-.35.206-.463.373a1 1 0 0 0 .124 1.278c.192.19.452.298.723.3" fill="#000"></path><path fill-rule="evenodd" clip-rule="evenodd" d="M5.386 8.094a.39.39 0 0 0 .359-.233.375.375 0 0 0-.083-.416.388.388 0 0 0-.66.269c0 .1.04.197.112.268a.4.4 0 0 0 .272.112m4.624 0a.39.39 0 0 0 .358-.233.375.375 0 0 0-.082-.416.388.388 0 0 0-.66.269c0 .1.04.196.11.267a.4.4 0 0 0 .27.113z" fill="#fff"></path>
</svg>
