<svg width="16" height="16" viewBox="0 0 16 16" fill="none"><path d="M8.5 7.82 14 5.281V11.2l-5.5 2.522z" fill="#fff"/><path d="M2.693 4.5 8 2.05l5.307 2.45L8 6.95zM7.5 7.82v5.9L2 11.2V5.281z" fill="#E7C200"/><path d="M2.5 8.56v.401l2 .923v-.403c0-.671-.39-1.28-1-1.561a.705.705 0 0 0-1 .64M7 11.039v-.398c0-.671-.39-1.28-1-1.561a.705.705 0 0 0-1 .64v.395z" fill="#0D1A2B"/><path fill-rule="evenodd" clip-rule="evenodd" d="M8.21 1.046a.5.5 0 0 0-.42 0l-6.5 3A.5.5 0 0 0 1 4.5v7.02a.5.5 0 0 0 .292.454l6.5 2.98a.5.5 0 0 0 .416 0l6.5-2.98A.5.5 0 0 0 15 11.52V4.5a.5.5 0 0 0-.29-.454zM2.693 4.5 8 2.05l5.307 2.45L8 6.95zM8.5 7.82 14 5.28V11.2l-5.5 2.522zm-1 0v5.9L2 11.2V5.28z" fill="#0D1A2B"/></svg>