<svg width="16" height="16" viewBox="0 0 16 16" fill="none"><path fill-rule="evenodd" clip-rule="evenodd" d="M11 10.5a.5.5 0 0 1 .5-.5h4a.5.5 0 0 1 .5.5v4a.5.5 0 0 1-1 0v-2.793l-4.146 4.147a.5.5 0 0 1-.708-.708L14.293 11H11.5a.5.5 0 0 1-.5-.5" fill="#3574F0"/><path fill-rule="evenodd" clip-rule="evenodd" d="M10.5 3H4.732c.17.294.268.636.268 1v8a1 1 0 0 0 1 1h4.879l-1 1H6a2 2 0 0 1-2-2V5H1.5a.5.5 0 0 1-.5-.5V4a2 2 0 0 1 2-2h7.5A2.5 2.5 0 0 1 13 4.5V9h-1V4.5A1.5 1.5 0 0 0 10.5 3M2 4a1 1 0 0 1 2 0z" fill="#6C707E"/></svg>