<svg width="16" height="16" viewBox="0 0 16 16" fill="none"><g clip-path="url(#a)"><g clip-path="url(#b)"><path fill-rule="evenodd" clip-rule="evenodd" d="M11.5 4.477V8h-2V7H6L5 8h-.5V4.477a.5.5 0 0 1 .192-.394l3-2.343a.5.5 0 0 1 .616 0l3 2.343a.5.5 0 0 1 .192.394" fill="#43454A"/><path fill-rule="evenodd" clip-rule="evenodd" d="M8.616 1.346a1 1 0 0 0-1.231 0l-3 2.343A1 1 0 0 0 4 4.477V8h1V4.477l3-2.343 3 2.343V8h1V4.477a1 1 0 0 0-.384-.788z" fill="#CED0D6"/><path d="M1.266 9.69H3.64q1.044.01 1.514.603t.31 1.62q-.062.47-.275.921a2.7 2.7 0 0 1-.566.815q-.442.46-.948.584a4.4 4.4 0 0 1-1.044.124H1.567l-.336 1.682H0zm1.036 1.01-.531 2.657q.052.008.106.008h.124q.85.009 1.417-.168.566-.186.761-1.293.16-.93-.319-1.07-.47-.143-1.177-.134-.107.01-.204.01h-.186zM6.865 8h1.222L7.74 9.691H8.84q.902.018 1.346.372.452.354.266 1.346l-.594 2.948h-1.24l.568-2.815q.088-.444-.054-.629-.142-.186-.61-.186l-.983-.009-.726 3.64H5.59zM11.762 9.69h2.373q1.045.01 1.514.603t.31 1.62q-.062.47-.274.921a2.7 2.7 0 0 1-.567.815q-.443.46-.947.584a4.4 4.4 0 0 1-1.045.124h-1.063l-.336 1.682h-1.23zm1.036 1.01-.531 2.657q.052.008.106.008h.124q.85.009 1.417-.168.566-.186.761-1.293.16-.93-.319-1.07-.469-.143-1.177-.134-.106.01-.204.01h-.186z" fill="#999DF6"/></g></g><defs><clipPath id="a"><path fill="#fff" d="M0 0H16V16H0z"/></clipPath><clipPath id="b"><path fill="#fff" d="M0 0H16V16H0z"/></clipPath></defs></svg>