<svg width="16" height="16" viewBox="0 0 16 16" fill="none"><path fill-rule="evenodd" clip-rule="evenodd" d="M11.418 9.16c-.2 0-.361-.046-.56-.128-.557-.247-.963-.739-1.082-1.274a1.77 1.77 0 0 1 1.032-.309c.219.004.438.049.647.142.16.082.313.16.473.283.557.412.206 1.328-.51 1.287M8.98 10.886c-.12-.123-.194-.286-.274-.45a1.72 1.72 0 0 1 .162-1.648c.557.124 1.067.492 1.306 1.069.08.164.124.376.124.54.04.618-.88.983-1.318.49M8.63 3.678c.08-.164.155-.324.274-.489a.7.7 0 0 1 .622-.257c.372.04.721.347.697.785 0 .165-.045.376-.125.54A1.77 1.77 0 0 1 8.83 5.326c-.358-.453-.438-1.071-.199-1.648M7.55 10.396c-.08.165-.154.325-.273.49-.399.535-1.322.159-1.282-.541 0-.165.045-.363.125-.528A1.76 1.76 0 0 1 7.387 8.75c.319.494.401 1.112.162 1.647M5.36 9.071a1.25 1.25 0 0 1-.56.128c-.716.041-1.064-.821-.546-1.274.119-.123.273-.213.472-.296q.317-.136.647-.141a1.74 1.74 0 0 1 1.02.309c-.08.535-.475 1.026-1.032 1.274m-.683-4.119c.042-.002.08-.005.124 0 .199 0 .36.047.56.13.557.246.963.738 1.082 1.273a1.74 1.74 0 0 1-1.68.168 3 3 0 0 1-.472-.296c-.523-.425-.242-1.241.386-1.275M6.629 2.97a.69.69 0 0 1 .61.258c.119.123.193.286.273.45a1.72 1.72 0 0 1-.162 1.648c-.557-.124-1.067-.492-1.306-1.069a1.3 1.3 0 0 1-.124-.54c0-.412.345-.71.709-.747m4.454-1.145a4.89 4.89 0 0 0-.694-.353l-.116-.048c-.106-.04-.213-.085-.324-.117A5.9 5.9 0 0 0 8.063 1C4.712 1 2 3.762 2 7.175c0 3.005 2.115 5.502 4.906 6.057V15c3.629-.557 6.842-3.49 7.082-7.342.144-2.318-.99-4.684-2.905-5.833" fill="#00A817"/></svg>