<svg width="20" height="20" viewBox="0 0 20 20" fill="none"><path fill-rule="evenodd" clip-rule="evenodd" d="M10 4a8 8 0 0 0-8 8c0 1.19.258 2.454.7 3.5h14.6c.442-1.046.7-2.31.7-3.5a8 8 0 0 0-8-8M.5 12a9.5 9.5 0 1 1 19 0c0 1.628-.41 3.382-1.131 4.748a.48.48 0 0 1-.428.252H2.059a.48.48 0 0 1-.428-.252C.91 15.382.5 13.628.5 12" fill="#6C707E"/><path fill-rule="evenodd" clip-rule="evenodd" d="M14.871 8.623a.85.85 0 1 0-1.086-1.308L11 9.628a2.3 2.3 0 1 0 1.15 1.254zM10.8 11.7a.8.8 0 1 1-1.6 0 .8.8 0 0 1 1.6 0" fill="#6C707E"/></svg>