<svg width="20" height="20" viewBox="0 0 20 20" fill="none"><path d="M13 10.5V12h3v-1.5z" fill="#CED0D6"/><path fill-rule="evenodd" clip-rule="evenodd" d="M13 5.5h1.5V7H16v1.5h1.5V10H19v3h-1.5v1.5H16V16h-1.5v-1.5H13V16h1.5v1.5H16V19H4v-1.5H2.5V16H1v-6h1.5V8.5H4V7h1.5V5.5H7V4H5.5V2.5H7V1h4.5v1.5H13zm-3 6V10h1.5V8.5H13V7h1.5v1.5H16V10h1.5v3H16v1.5h-1.5V13H13v1.5h-1.5V13h-3v-1.5zm-1.5 0H7V13h1.5v1.5h3V16H13v1.5H4V16H2.5v-6H4V8.5h1.5V7H7V5.5h1.5V4H7V2.5h4.5v3H13V7h-1.5v1.5H10V10H8.5z" fill="#CED0D6"/><path d="M16 17.5V16h1.5v1.5z" fill="#CED0D6"/></svg>