<svg viewBox="0 0 16 16" fill="none" xmlns="http://www.w3.org/2000/svg">
  <path d="M10.713 14.71c-.241-.597-.404-1.362-.45-2.21H9.041c.164.98.803 1.798 1.672 2.21M11.678 14.428c-.207-.473-.365-1.143-.413-1.928h1.47c-.049.785-.207 1.455-.414 1.928-.119.271-.236.437-.322.525-.085-.088-.202-.254-.32-.525M11.678 9.572c-.207.473-.365 1.143-.413 1.928h1.47c-.049-.785-.207-1.455-.414-1.928-.119-.271-.236-.437-.322-.525-.085.088-.202.254-.32.525M13.286 14.71c.241-.597.404-1.362.45-2.21h1.222a3 3 0 0 1-1.672 2.21M13.736 11.5h1.222a3 3 0 0 0-1.672-2.21c.241.597.404 1.362.45 2.21M9.041 11.5h1.222c.046-.848.209-1.613.45-2.21A3 3 0 0 0 9.04 11.5" fill="#EBECF0"></path><path fill-rule="evenodd" clip-rule="evenodd" d="M16 12a4 4 0 1 0-8 0 4 4 0 0 0 8 0m-5.736.5c.046.848.208 1.613.45 2.21A3 3 0 0 1 9.04 12.5zm1.001 0c.048.785.207 1.455.414 1.928.118.271.236.437.321.525.085-.088.203-.254.321-.525.207-.473.366-1.143.414-1.928zm1.47-1h-1.47c.048-.785.207-1.455.414-1.928.118-.271.236-.437.321-.525.085.088.203.254.321.525.207.473.366 1.143.414 1.928m1.002 1c-.047.848-.21 1.613-.45 2.21a3 3 0 0 0 1.672-2.21zm1.222-1h-1.223c-.046-.848-.208-1.613-.45-2.21a3 3 0 0 1 1.673 2.21m-4.695 0H9.04a3 3 0 0 1 1.672-2.21c-.24.597-.403 1.362-.45 2.21" fill="#6C707E"></path><path d="M13.897 7.373a5 5 0 0 0-6.896 4.74c-1.355.45-3.439.868-3.69.918l-.025.005-.104-.054c-1.738-.83-1.786-4.525 1.37-5.716.777-.294 1.535-.332 2.315-.37.609-.031 1.231-.062 1.886-.216 1.595-.372 3.442-1.55 4.192-3.082.369 1.073.77 2.41.952 3.775M7.396 13.953a5 5 0 0 1-.288-.914c-.332.118-.677.22-1.074.339-.441.131-.947.282-1.574.495a7 7 0 0 0-.375.14c.435-.07.868-.095.868-.095.531-.023 1.127-.005 1.753.015z" fill="#F2FCF3"></path><path d="M6.556 5.927c-.703.038-1.515.101-2.363.421-1.94.733-2.94 2.27-3.151 3.777-.196 1.399.288 3.024 1.643 3.711l.038.091.039.095c.04.101.14.345.323.55.11.123.27.258.494.344.228.088.46.1.669.066a8 8 0 0 1 .703-.079l.047-.003h.008c.488-.022 1.038-.005 1.666.015l.286.009q.482.016 1 .02a5 5 0 0 1-.562-.992l-.69-.02a24 24 0 0 0-1.753-.014s-.432.025-.868.095c0 0 .165-.069.375-.14a41 41 0 0 1 1.574-.495c.398-.119.742-.221 1.074-.34q-.095-.45-.107-.926c-1.444.48-3.715.925-3.715.925l-.103-.055c-1.738-.83-1.786-4.525 1.369-5.716.777-.294 1.535-.332 2.316-.37.608-.031 1.23-.062 1.886-.216 1.595-.372 3.441-1.55 4.192-3.082.369 1.073.77 2.41.952 3.775q.575.237 1.068.602l-.007-.097c-.142-1.682-.636-3.345-1.066-4.594L13.11 1l-1.064 2.172C11.458 4.369 9.908 5.4 8.523 5.724h-.001c-.56.132-1.087.158-1.701.19h-.002z" fill="#208A3C"></path>
</svg>
