<svg viewBox="0 0 16 16" fill="none" xmlns="http://www.w3.org/2000/svg">
  <path d="M8.854 11.146a.5.5 0 0 0-.708 0l-1.5 1.5a.5.5 0 0 0 .708.708L8 12.707v.793a2.5 2.5 0 0 0 2.5 2.5h3a2.5 2.5 0 0 0 2.5-2.5v-1a.5.5 0 0 0-1 0v1a1.5 1.5 0 0 1-1.5 1.5h-3A1.5 1.5 0 0 1 9 13.5v-.793l.646.647a.5.5 0 0 0 .708-.708z" fill="#3574F0"></path><path d="M6 10.5A1.5 1.5 0 0 1 7.5 9h3a1.5 1.5 0 0 1 1.5 1.5v.793l-.646-.647a.5.5 0 0 0-.708.708l1.5 1.5a.5.5 0 0 0 .708 0l1.5-1.5a.5.5 0 0 0-.708-.708l-.646.647V10.5A2.5 2.5 0 0 0 10.5 8h-3A2.5 2.5 0 0 0 5 10.5v1a.5.5 0 0 0 1 0z" fill="#6C707E"></path><path d="M6.556 5.927c-.703.038-1.515.101-2.363.421-1.94.733-2.94 2.27-3.151 3.777-.196 1.399.288 3.024 1.643 3.711l.038.091.039.095c.04.101.14.345.323.55.11.123.27.258.494.344.228.088.46.1.669.066a8 8 0 0 1 .703-.079l.047-.003h.008c.488-.022 1.038-.005 1.666.015l.286.009.348.01a3.5 3.5 0 0 1-.163-.44 1.5 1.5 0 0 1-1.336-.584 15 15 0 0 0-.854.008s-.432.025-.868.095c0 0 .165-.069.375-.14.427-.145.797-.261 1.13-.362A1.5 1.5 0 0 1 5.5 13c-.312 0-.602-.095-.842-.258-.776.178-1.372.294-1.372.294l-.103-.054c-1.738-.83-1.786-4.525 1.369-5.716.777-.294 1.535-.332 2.316-.37.608-.031 1.23-.062 1.886-.216 1.595-.372 3.441-1.55 4.192-3.082.561 1.634 1.197 3.882 1.023 5.902.344-.007.69.104.972.331a10 10 0 0 0 .018-1.953c-.142-1.682-.636-3.345-1.066-4.594L13.11 1l-1.064 2.172C11.458 4.369 9.908 5.4 8.523 5.724h-.001c-.56.132-1.087.158-1.701.19h-.002z" fill="#208A3C"></path><path d="M12.29 7.492q.022-.102.04-.204l-.069.187z" fill="#208A3C"></path><path d="M13.969 9.5c.174-2.02-.462-4.268-1.024-5.902-.75 1.532-2.597 2.71-4.192 3.082-.655.154-1.277.185-1.886.215-.78.04-1.538.077-2.316.37-3.155 1.192-3.107 4.887-1.369 5.717l.104.055.025-.006c.12-.024.664-.133 1.346-.29A1.5 1.5 0 0 1 4 11.5v-1A3.5 3.5 0 0 1 7.5 7h3a3.5 3.5 0 0 1 1.779.485 3.56 3.56 0 0 1 1.578 2.022q.056-.006.112-.007M5.807 13.91a1.5 1.5 0 0 1-.218-.399c-.332.1-.702.217-1.129.362a7 7 0 0 0-.375.14c.435-.07.868-.095.868-.095q.406-.017.854-.008" fill="#F2FCF3"></path>
</svg>
