<svg viewBox="0 0 16 16" fill="none" xmlns="http://www.w3.org/2000/svg">
  <path fill-rule="evenodd" clip-rule="evenodd" d="M3 2a2 2 0 0 0-2 2v8a2 2 0 0 0 2 2h4.416a5 5 0 0 1-.316-1H3a1 1 0 0 1-1-1V6h12v1.416q.537.235 1 .584V4a2 2 0 0 0-2-2zm10 1H3a1 1 0 0 0-1 1v1h12V4a1 1 0 0 0-1-1" fill="#CED0D6"></path><path d="m9.852 9.47 2.743-.735a.5.5 0 0 1 .484.13l2.027 2.046a.5.5 0 0 1 .129.48l-.733 2.784a.5.5 0 0 1-.354.355l-2.743.735a.5.5 0 0 1-.484-.13l-2.027-2.046a.5.5 0 0 1-.129-.48l.733-2.784a.5.5 0 0 1 .354-.355Z" stroke="#CED0D6"></path>
</svg>
