<svg width="20" height="20" viewBox="0 0 20 20" fill="none"><path fill-rule="evenodd" clip-rule="evenodd" d="M11 5.5a3.5 3.5 0 1 1-7 0 3.5 3.5 0 0 1 7 0m-1.5 0a2 2 0 1 1-4 0 2 2 0 0 1 4 0M1.924 17h11.152c.558 0 1-.454.913-1.004-.305-1.938-1.536-6.005-6.493-5.996-4.955.01-6.182 4.064-6.485 5.997-.087.55.355 1.003.913 1.003m9.372-3.82c.553.721.877 1.577 1.062 2.32H2.642c.185-.74.507-1.591 1.059-2.31.691-.902 1.804-1.686 3.798-1.69 1.992-.004 3.105.779 3.797 1.68" fill="#CED0D6"/><path d="M11.273 8.78a3.5 3.5 0 1 0 0-6.559c.34.39.62.835.827 1.319a2 2 0 1 1 0 3.92 5 5 0 0 1-.827 1.32M13.89 11.647a7.215 7.215 0 0 0-1.566-1.645l.171-.002c4.957-.01 6.188 4.058 6.493 5.996.087.55-.355 1.004-.913 1.004H15.34c.146-.366.201-.784.13-1.237l-.045-.263h1.932c-.185-.743-.51-1.599-1.062-2.32-.511-.665-1.251-1.266-2.405-1.533" fill="#CED0D6"/></svg>