<svg viewBox="0 0 16 16" fill="none" xmlns="http://www.w3.org/2000/svg">
  <path fill-rule="evenodd" clip-rule="evenodd" d="M10 2H6v4h4z" fill="#43454A"></path><path fill-rule="evenodd" clip-rule="evenodd" d="M6 1a1 1 0 0 0-1 1v4a1 1 0 0 0 1 1h.54l-2.8 4H3a1 1 0 0 0-1 1v2a1 1 0 0 0 1 1h2a1 1 0 0 0 1-1v-2a1 1 0 0 0-1-1h-.04l2.8-4h.48l2.8 4H11a1 1 0 0 0-1 1v2a1 1 0 0 0 1 1h2a1 1 0 0 0 1-1v-2a1 1 0 0 0-1-1h-.74l-2.8-4H10a1 1 0 0 0 1-1V2a1 1 0 0 0-1-1zm4 5V2H6v4zm1.994 6H13v2h-2v-2zm-8.001 0H5v2H3v-2z" fill="#CED0D6"></path>
</svg>
