<svg viewBox="0 0 16 16" fill="none" xmlns="http://www.w3.org/2000/svg">
  <path d="M12.87 9c-.843 0-1.507.371-1.887.998v-.875H10V16h1.003v-2.48c.384.607 1.039.965 1.868.965 1.458 0 2.476-1.115 2.476-2.742S14.33 9 12.871 9m-.21 4.585c-.976 0-1.657-.752-1.657-1.842S11.683 9.9 12.66 9.9c.972 0 1.642.752 1.642 1.842s-.67 1.842-1.642 1.842" fill="#6C707E"></path><path d="M14.99 8.71c-.1-1.81-1.04-3.637-2.569-5.167C9.556.678 5.603-.034 2.77 2.8s-2.02 6.936.72 9.675C5.051 14.037 7.041 15 9 15V8h4v.002c.75.026 1.436.273 1.99.709" fill="#FFF4EB"></path><path d="M14.99 8.71c-.1-1.81-1.04-3.637-2.569-5.167C9.556.678 5.603-.034 2.77 2.8s-2.02 6.936.72 9.675C5.051 14.037 7.041 15 9 15v-1.002q-.303 0-.606-.037c-1.455-.172-2.955-.953-4.196-2.194-1.236-1.235-2-2.743-2.163-4.205-.144-1.29.174-2.574 1.104-3.684L9 9.739V8.322L3.846 3.17c1.115-.943 2.372-1.273 3.63-1.138 1.429.153 2.93.915 4.237 2.22 1.212 1.213 1.969 2.58 2.205 3.902.392.12.754.308 1.073.558" fill="#E66D17"></path>
</svg>
