<svg viewBox="0 0 16 16" fill="none" xmlns="http://www.w3.org/2000/svg">
  <path d="m9.5 3.14 4.5 3.6v3.72l-3.875-3.1a1 1 0 0 0-1.25 0L4.5 10.86l-2.5-2V5.14l1.875 1.5a1 1 0 0 0 1.25 0z" fill="#EDF3FF"></path><path d="M2 2.5a.5.5 0 0 0-1 0V13a1 1 0 0 0 1 1h12.5a.5.5 0 0 0 0-1H2z" fill="#6C707E"></path><path d="m2 3.86 2.5 2 4.375-3.5a1 1 0 0 1 1.25 0l4.687 3.75A.5.5 0 0 1 15 6.5v5a.5.5 0 0 1-.812.39L9.5 8.14l-4.375 3.5a1 1 0 0 1-1.25 0L2 10.14V8.86l2.5 2 4.375-3.5a1 1 0 0 1 1.25 0L14 10.46V6.74l-4.5-3.6-4.375 3.5a1 1 0 0 1-1.25 0L2 5.14z" fill="#3574F0"></path>
</svg>
