<svg viewBox="0 0 16 16" fill="none" xmlns="http://www.w3.org/2000/svg">
  <path fill-rule="evenodd" clip-rule="evenodd" d="M14 4a2 2 0 0 0-2-2H4a2 2 0 0 0-2 2v6a2 2 0 0 0 2 2h8a2 2 0 0 0 2-2zm-1 6V4a1 1 0 0 0-1-1H4a1 1 0 0 0-1 1v6a1 1 0 0 0 1 1h8a1 1 0 0 0 1-1" fill="#DB5C5C"></path><path d="M4 13.5a.5.5 0 0 1 .5-.5h7a.5.5 0 0 1 0 1h-7a.5.5 0 0 1-.5-.5" fill="#DB5C5C"></path><path fill-rule="evenodd" clip-rule="evenodd" d="M13 10V4a1 1 0 0 0-1-1H4a1 1 0 0 0-1 1v6a1 1 0 0 0 1 1h8a1 1 0 0 0 1-1" fill="#402929"></path><path d="M1.44.44a1.5 1.5 0 0 1 2.12 0l11 11a1.5 1.5 0 0 1 0 2.12z" fill="#1E2022"></path><path d="m13.5 12.5-11-11" stroke="#DB5C5C" stroke-linecap="round"></path>
</svg>
