<svg width="20" height="20" viewBox="0 0 20 20" fill="none"><path fill-rule="evenodd" clip-rule="evenodd" d="M3 2a2 2 0 0 0-2 2v12a2 2 0 0 0 2 2h6.406l-.174-.174a2.5 2.5 0 0 1-.693-1.326H3a.5.5 0 0 1-.5-.5V7.5h15v1.457q.176.124.332.28L19 10.404V4a2 2 0 0 0-2-2zm14 1.5H3a.5.5 0 0 0-.5.5v2h15V4a.5.5 0 0 0-.5-.5m.53 14.031-3.438.914-2.534-2.536.913-3.44 3.437-.914 2.534 2.536zm-7.237-.766 2.936 2.938c.256.256.63.356.98.263l3.98-1.058c.35-.093.624-.365.716-.713l1.062-4a1 1 0 0 0-.26-.96l-2.936-2.938a1.02 1.02 0 0 0-.98-.263l-3.98 1.058c-.35.093-.624.365-.716.713l-1.062 4a1 1 0 0 0 .26.96" fill="#6C707E"/></svg>