<svg width="16" height="16" viewBox="0 0 16 16" fill="none"><path fill-rule="evenodd" clip-rule="evenodd" d="M10 10H6v4h4z" fill="#EBECF0"/><path fill-rule="evenodd" clip-rule="evenodd" d="M3.74 5H3a1 1 0 0 1-1-1V2a1 1 0 0 1 1-1h2a1 1 0 0 1 1 1v2a1 1 0 0 1-1 1h-.04l2.8 4h.48l2.8-4H11a1 1 0 0 1-1-1V2a1 1 0 0 1 1-1h2a1 1 0 0 1 1 1v2a1 1 0 0 1-1 1h-.74l-2.8 4H10a1 1 0 0 1 1 1v4a1 1 0 0 1-1 1H6a1 1 0 0 1-1-1v-4a1 1 0 0 1 1-1h.54zM3 2h2v2H3zm4.496 8H6v4h4v-4H7.496m4.51-6H13V2h-2v2h1.006" fill="#6C707E"/></svg>