<svg width="20" height="20" viewBox="0 0 20 20" fill="none"><path d="M0 10c1.043 3.129 4.26 5.822 7.84 6.629a2.26 2.26 0 0 1 .093-1.52 10.1 10.1 0 0 1-3.248-1.497c-1.42-.988-2.508-2.271-3.081-3.612.573-1.34 1.66-2.624 3.08-3.612C6.268 5.287 8.162 4.625 10 4.625c1.84 0 3.733.662 5.315 1.763 1.42.988 2.508 2.271 3.082 3.612-.206.48-.477.954-.806 1.409l1.071 1.071A8.6 8.6 0 0 0 20 10c-1.25-3.75-5.625-6.875-10-6.875S1.25 6.25 0 10" fill="#6C707E"/><path d="M6 10a4 4 0 0 0 2.956 3.862l1.385-1.385a2.5 2.5 0 1 1 2.013-1.633c.504-.15 1.05-.12 1.537.09q.108-.451.109-.934a4 4 0 0 0-8 0M13.53 19.53a.75.75 0 0 1-1.06 0l-3-3a.75.75 0 0 1 0-1.06l3-3a.75.75 0 1 1 1.06 1.06L11.06 16l2.47 2.47a.75.75 0 0 1 0 1.06M15.47 12.47a.75.75 0 0 1 1.06 0l3 3a.75.75 0 0 1 0 1.06l-3 3a.75.75 0 1 1-1.06-1.06L17.94 16l-2.47-2.47a.75.75 0 0 1 0-1.06" fill="#6C707E"/></svg>