<svg viewBox="0 0 16 16" fill="none" xmlns="http://www.w3.org/2000/svg">
  <path fill-rule="evenodd" clip-rule="evenodd" d="M11 10.5a.5.5 0 0 1 .5-.5h4a.5.5 0 0 1 .5.5v4a.5.5 0 0 1-1 0v-2.793l-4.146 4.147a.5.5 0 0 1-.708-.708L14.293 11H11.5a.5.5 0 0 1-.5-.5" fill="#3574F0"></path><path d="M14 7h-3a1 1 0 0 1-1-1V3a1 1 0 0 1 1-1h3a1 1 0 0 1 1 1v3a1 1 0 0 1-1 1M1 8v5a1 1 0 0 0 1 1h5a1 1 0 0 0 1-1V8a1 1 0 0 0-1-1H2a1 1 0 0 0-1 1" fill="#EBECF0"></path><path fill-rule="evenodd" clip-rule="evenodd" d="M11 7h3a1 1 0 0 0 1-1V3a1 1 0 0 0-1-1h-3a1 1 0 0 0-1 1v1H5a1 1 0 0 0-1 1v2H2a1 1 0 0 0-1 1v5a1 1 0 0 0 1 1h5a1 1 0 0 0 1-1v-1h2v-1H8V8a1 1 0 0 0-1-1H5V5h5v1a1 1 0 0 0 1 1m3-1h-3V3h3zM2 8v5h5V8z" fill="#6C707E"></path>
</svg>
