<svg viewBox="0 0 16 16" fill="none" xmlns="http://www.w3.org/2000/svg">
  <path fill-rule="evenodd" clip-rule="evenodd" d="M13.646 1.646a.5.5 0 0 1 .708.708l-12 12a.5.5 0 0 1-.708-.708l1.713-1.712C2.494 11.073 2 9.99 2 8.774c0-2.42 2.048-4.161 4.871-4.161 1.241 0 2.302.284 3.037.772l1.245-1.245C10.05 3.422 8.521 3 6.758 3c-.887 0-2.08.21-2.855.548-.548.226-.903 0-.903-.354 0-.275.194-.468.58-.63C4.356 2.227 5.678 2 6.759 2c2.053 0 3.83.53 5.111 1.423zM9.211 6.082c-.545-.328-1.342-.534-2.292-.534C4.677 5.548 3 6.935 3 8.774c0 .938.385 1.778 1.063 2.456l1.31-1.31A2.03 2.03 0 0 1 5 8.743c0-1.378 1.384-2.103 3.118-1.567zM7.418 7.875C6.564 7.765 6 8.087 6 8.742q0 .236.1.452z" fill="#6C707E"></path><path d="M9.242 14c-1.63 0-3.086-.334-4.257-.918l.748-.749c.982.426 2.179.667 3.509.667.887 0 2.08-.21 2.855-.548.548-.226.903 0 .903.354 0 .275-.194.468-.58.63-.775.338-2.097.564-3.178.564M7.008 11.059l.756-.756c.39.095.834.149 1.317.149 2.16 0 3.919-1.355 3.919-3.226 0-.613-.164-1.183-.466-1.693l.723-.724c.48.712.743 1.53.743 2.417 0 2.42-2.048 4.161-4.871 4.161-.794 0-1.513-.116-2.121-.328" fill="#6C707E"></path><path d="M10.994 7.072q.006.076.006.154c0 1.07-.798 1.764-1.942 1.782z" fill="#6C707E"></path>
</svg>
