<svg viewBox="0 0 16 16" fill="none" xmlns="http://www.w3.org/2000/svg">
  <path d="M11 2a1 1 0 0 0-1 1v3a1 1 0 0 0 1 1h3a1 1 0 0 0 1-1V3a1 1 0 0 0-1-1zM1 8a1 1 0 0 1 1-1h5a1 1 0 0 1 1 1v5a1 1 0 0 1-1 1H2a1 1 0 0 1-1-1zM10 10a1 1 0 0 1 1-1h3a1 1 0 0 1 1 1v3a1 1 0 0 1-1 1h-3a1 1 0 0 1-1-1z" fill="#25324D"></path><path fill-rule="evenodd" clip-rule="evenodd" d="M11 2a1 1 0 0 0-1 1v1H5a1 1 0 0 0-1 1v2H2a1 1 0 0 0-1 1v5a1 1 0 0 0 1 1h5a1 1 0 0 0 1-1v-1h2v1a1 1 0 0 0 1 1h3a1 1 0 0 0 1-1v-3a1 1 0 0 0-1-1h-3a1 1 0 0 0-1 1v1H8V8a1 1 0 0 0-1-1H5V5h5v1a1 1 0 0 0 1 1h3a1 1 0 0 0 1-1V3a1 1 0 0 0-1-1zm3 1h-3v3h3zM2 8h5v5H2zm12 2h-3v3h3z" fill="#548AF7"></path>
</svg>
