<svg width="14" height="14" viewBox="0 0 14 14" fill="none"><path d="M10 7a4.5 4.5 0 1 0-9 0 4.5 4.5 0 0 0 9 0" fill="#253627"/><path fill-rule="evenodd" clip-rule="evenodd" d="M5 5H4V4h3v1H6v4h1v1H4V9h1z" fill="#57965C"/><path fill-rule="evenodd" clip-rule="evenodd" d="M11.5 8a.5.5 0 0 1-.5-.5V1.707L9.854 2.854a.5.5 0 1 1-.708-.708l2-2a.5.5 0 0 1 .708 0l2 2a.5.5 0 0 1-.708.708L12 1.707V7.5a.5.5 0 0 1-.5.5" fill="#DB5C5C"/><path d="M10 7a4.5 4.5 0 1 1-1.578-3.422l.017-.017a1.5 1.5 0 0 1-.391-1.437 5.5 5.5 0 1 0 2.66 6.65A1.5 1.5 0 0 1 10 7.5z" fill="#57965C"/></svg>