<svg width="16" height="16" viewBox="0 0 16 16" fill="none"><path d="M11.562 10.148a.5.5 0 1 1-.707-.708l.677-.677a2.615 2.615 0 0 1 3.699.006 2.615 2.615 0 0 1 .006 3.699l-.677.677a.5.5 0 1 1-.708-.707l.678-.677a1.615 1.615 0 0 0-.006-2.285 1.615 1.615 0 0 0-2.285-.006zM10.148 10.855a.5.5 0 0 1 0 .707l-.678.677a1.615 1.615 0 0 0 .006 2.285 1.615 1.615 0 0 0 2.285.006l.677-.678a.5.5 0 0 1 .707.707l-.677.678a2.615 2.615 0 0 1-3.699-.006 2.615 2.615 0 0 1-.006-3.699l.677-.677a.5.5 0 0 1 .708 0" fill="#548AF7"/><path d="M13.854 10.854a.5.5 0 0 0-.708-.708l-3 3a.5.5 0 0 0 .708.708z" fill="#548AF7"/><path fill-rule="evenodd" clip-rule="evenodd" d="M11 4a3 3 0 1 1-6 0 3 3 0 0 1 6 0M6 4a2 2 0 1 0 4 0 2 2 0 0 0-4 0" fill="#CED0D6"/><path d="M8 8c-4.452 0-5.6 3.303-5.897 5.008-.095.544.344.992.897.992h4v-1H3.122c.15-.745.47-1.705 1.134-2.489C4.94 9.704 6.058 9 8 9a6.2 6.2 0 0 1 1.81.25c.073-.188.186-.365.338-.517l.314-.314C9.781 8.156 8.97 8 8 8" fill="#CED0D6"/></svg>