<svg viewBox="0 0 16 16" fill="none" xmlns="http://www.w3.org/2000/svg">
  <path d="m1.586 9.414 5 5a2 2 0 0 0 2.828 0l5-5a2 2 0 0 0 0-2.828l-5-5a2 2 0 0 0-2.828 0l-5 5a2 2 0 0 0 0 2.828" fill="#43454A"></path><path fill-rule="evenodd" clip-rule="evenodd" d="m2.293 8.707 5 5a1 1 0 0 0 1.414 0l5-5a1 1 0 0 0 0-1.414l-5-5 .552-.552-.552.552a1 1 0 0 0-1.414 0l-.707-.707a2 2 0 0 1 2.828 0l5 5a2 2 0 0 1 0 2.828l-5 5a2 2 0 0 1-2.828 0l-5-5a2 2 0 0 1 0-2.828l5-5 .707.707-5 5a1 1 0 0 0 0 1.414" fill="#CED0D6"></path>
</svg>
