<svg width="32" height="32" viewBox="0 0 32 32" fill="none"><path opacity=".78" fill-rule="evenodd" clip-rule="evenodd" d="M2 16a2 2 0 0 1 2-2h4a2 2 0 1 1 0 4H4a2 2 0 0 1-2-2" fill="#6F737A"/><path opacity=".62" fill-rule="evenodd" clip-rule="evenodd" d="M14 24a2 2 0 1 1 4 0v4a2 2 0 1 1-4 0z" fill="#6F737A"/><path opacity=".38" fill-rule="evenodd" clip-rule="evenodd" d="M22 16a2 2 0 0 1 2-2h4a2 2 0 1 1 0 4h-4a2 2 0 0 1-2-2" fill="#6F737A"/><path fill-rule="evenodd" clip-rule="evenodd" d="M14 4a2 2 0 1 1 4 0v4a2 2 0 1 1-4 0z" fill="#6F737A"/><path opacity=".93" fill-rule="evenodd" clip-rule="evenodd" d="M6.1 6.1a2 2 0 0 1 2.829 0l2.828 2.829a2 2 0 0 1-2.828 2.828L6.1 8.93a2 2 0 0 1 0-2.829" fill="#6F737A"/><rect opacity=".69" x="10.343" y="18.828" width="4" height="8" rx="2" transform="rotate(45 10.343 18.828)" fill="#6F737A"/><path opacity=".48" fill-rule="evenodd" clip-rule="evenodd" d="M20.243 20.243a2 2 0 0 1 2.828 0L25.9 23.07a2 2 0 0 1-2.829 2.828l-2.828-2.828a2 2 0 0 1 0-2.828" fill="#6F737A"/><path opacity=".3" fill-rule="evenodd" clip-rule="evenodd" d="M23.071 6.1A2 2 0 0 1 25.9 8.93l-2.829 2.828a2 2 0 1 1-2.828-2.828z" fill="#6F737A"/></svg>