<svg viewBox="0 0 16 16" fill="none" xmlns="http://www.w3.org/2000/svg">
  <path fill-rule="evenodd" clip-rule="evenodd" d="M6.957 11.622c.045-.247.18-.495.09-.693-.04.154-.27.396-.361.495-.09.1-.09.1-.271.198-.6.134-1.117.117-1.717 0-.282-.05-.955-.51-.994-.693-.012.204 0 .396.181.693.18.297.18.594.18.792s-.12.364-.27.692c.012.208.05.298 0 .495-.084.327-.41.166-.633.1-.274-.083-.684-.096-.542-.496.126-.352.12-.892.18-1.385-.501-.792-.903-1.71-.993-2.672a3.9 3.9 0 0 1 .18-1.682c.235-.724.47-1.178.995-1.682.708-.68 1.041-.817 2.078-.99-.25.306-.255.34-.524.687-.272.35-.433.705-.606 1.088-.239.53-.234.732.083 1.197.272.4.42.581.538.973-.098.222-.134.41-.167.713.334.4.582.673.906.758.318.082.584.066.868-.093.632-.353 1.351-.851 2.064-.87.33-.888.161-1.588.003-2.447-.108-.587-.24-1.21-.274-1.808-.259.476-.46 1.465-.362 2.078.12.74.09.99 0 1.385-.451.1-.503.265-1.084.594-.233.133-.813.297-1.084.198s-.137-.396 0-.693c.22-.476.817-2.648 1.084-3.117-.327.433-1.368 2.089-1.626 2.524-.099-.308-.18-.495-.361-.693s.351-1.19.643-1.534c.504-.596.613-.947 1.164-1.534.299-.318.451-.396.813-.593.361-.198.899-.105 1.265-.198-.181-.198-.362-.297-.633-.297.271-.495.444-.53.994-.792.687-.327.837-.36 1.265-.346.416.013.65.11 1.174.593.276.254.534.375.814.594-.102.01.094.105-.022.155.14-.03.147.014.293.043.04.03.078.028.18.1.193.133.319.191.452.395.141.215.202.548.159.544a.35.35 0 0 0-.235.06l-.008.004c-.11.058-.279.125-.392.145a.43.43 0 0 0 .27-.005.44.44 0 0 0-.01.4q.017.042.04.07-.077.03-.158.07c.252-.042.359-.037.605-.002.016.085.154.164.17.255l-.092.008h-.008c-.116-.101-.246-.084-.424-.04-.54.135-.413.467-.66.967.257-.346.238-.707.658-.816.098-.025.164-.057.23-.046a.56.56 0 0 0-.263.301c-.115.357-.043.657-.17.99.157-.297.166-.588.307-.901.05-.113.237-.293.352-.296l.094-.002c.028.198-.002.506-.013.669-.02.298-.139.622-.18.792.18.049.45-.149.632-.644.18-.494.147-.853.09-1.187-.078-.458.111-.13.361-.347.184-.158.374-.414.542-.593.168-.178.307.222.373.396.285.755.245 1.366.17 2.127-.085.854-.386 1.608-1.074 2.029-.877.536-1.839.222-2.71-.1-.186-.068-.47-.183-.633-.296.045.22.006.665 0 .89-.01.396.04.572.15.682s.172.11.291.11c.18 0 .452-.099.542-.297s.09-.247.09-.346c.067.022.201.08.272.099 0 0-.062.122-.102.263-.103.367-.44.677-.802.677-.361 0-.588-.251-.814-.47q-.232-.227-.453-.44c-.407-.141-.524-.417-.901-.723-.09.594 0 .792.361 1.089-.054.608-.191.89-.361 1.286-.11.254-.65 1.184-.813 1.287-.117.073-.677.703-.814.791-.102.149-.208.406-.361.495-.467.27-.605.06-.813-.396-.09-.198-.18-.396 0-.495s.372-.395.452-.494c.08-.1.045-.545.09-.792m2.8 0c-.043.184-.18.396-.27.594s-.3.56-.452.693c.03.026.124.112.22.122.07.007.34.008.408.01.15.003.207-.01.222-.213.007-.099 0-.117-.041-.204l-.011-.464a4 4 0 0 0-.075-.538m-7.79.354-.001.007a.6.6 0 0 1-.07.194c-.176.26-.621-.12-.75-.266a1 1 0 0 1-.258-.524c-.017-.13 0-.132.08-.223l.33-.368.072-.213c.13.496.35.983.596 1.393m5.772 2.115c-.146.24-.164.387-.398.526-.697.413-1.067-.066-1.479-.762-.196-.332-.626-1.09-.17-1.346.192-.108.338-.19.483-.282a4.8 4.8 0 0 1-1.436-.014l.022.182c.032.292.028.415-.063.612-.09.198-.18.297-.27.396.022.254.064.576 0 .841-.146.59-1.247.23-1.657.108-.493-.146-1.198-.282-.909-.977.068-.162.121-.329.161-.488-.431.21-1.03-.234-1.316-.548a1.87 1.87 0 0 1-.47-.98c-.044-.286-.004-.284.182-.487l.512-.554.206-.615a5 5 0 0 1-.058-.457c-.05-.631-.033-1.08.049-1.493-.3.128-.645.068-.798-.281a2.5 2.5 0 0 1-.137-.464c-.67-.706.585-1.632.951-1.702-.041.13-.087.25-.128.367.249.141.218.542.165.8-.089-.123-.138-.285-.27-.291-.019.291-.015.614-.224.785.062.18.059.181.234.107.249-.105.436-.338.624-.566.203-.433.464-.818.821-1.166.88-.854 1.711-1.133 3.05-1.367q.265-.305.56-.59c.267-.26.44-.313.694-.328.42-.614.749-1.041 1.432-1.356 1.432-.66 2.419-.692 3.568.346.38.343.704.704 1.121.99.211.145.362.25.523.458.201.263.366.526.48.864.148-.066.317-.13.453-.257.176-.164.288-.44.45-.62.217-.24.71.05.819.278.371.779.522 1.762.476 2.617-.09 1.683-.526 2.502-1.375 2.998-.577.337-1.215.504-1.878.367-.09.594-.632 1.385-1.264 1.385-.633 0-.633-.099-.904-.297-.176-.128-.373-.334-.384-.309-.023.053-.057.095-.068.161.114.247.055.051.152.306.108.28.16.465.168.765l.02.8c.108.211.117.263.102.504-.034.51-.29.558-.717.556-.142-.002-.68.002-.816-.009-.272-.021-.451-.044-.545-.167-.247.219-.663.606-.744.655m2.35-8.35a.7.7 0 0 1-.059-.283 1.9 1.9 0 0 1-.471.319c.228-.223.538-.748.763-.913.255-.188.601-.152.898-.302a1.8 1.8 0 0 1-.364.26.64.64 0 0 1 .344.34q.045.105.056.215c.2-.072.396-.106.562-.103-.593.181-1.223.606-1.658 1.168q.075-.22.2-.397a.64.64 0 0 1-.27-.305" fill="#CED0D6"></path>
</svg>
