<svg viewBox="0 0 16 16" fill="none" xmlns="http://www.w3.org/2000/svg">
  <path d="M11.998 13a1 1 0 1 0 0-2 1 1 0 0 0 0 2" fill="#548AF7"></path><path fill-rule="evenodd" clip-rule="evenodd" d="M13.12 15.676a.5.5 0 0 1-.469.324h-1.307a.5.5 0 0 1-.468-.324l-.25-.666a.5.5 0 0 0-.55-.317l-.7.116a.5.5 0 0 1-.516-.243l-.653-1.132a.5.5 0 0 1 .047-.568l.451-.548a.5.5 0 0 0 0-.636l-.451-.548a.5.5 0 0 1-.047-.568l.653-1.132a.5.5 0 0 1 .515-.243l.701.116a.5.5 0 0 0 .55-.317l.25-.666A.5.5 0 0 1 11.344 8h1.307a.5.5 0 0 1 .468.324l.25.666a.5.5 0 0 0 .55.317l.701-.116a.5.5 0 0 1 .515.243l.654 1.132a.5.5 0 0 1-.047.568l-.452.548a.5.5 0 0 0 0 .636l.452.548a.5.5 0 0 1 .047.568l-.654 1.132a.5.5 0 0 1-.515.243l-.7-.116a.5.5 0 0 0-.551.317zM11.69 15h.615l.128-.34a1.5 1.5 0 0 1 1.65-.954l.36.06.306-.532-.231-.281a1.5 1.5 0 0 1 0-1.906l.231-.281-.307-.532-.359.06a1.5 1.5 0 0 1-1.65-.953L12.305 9h-.614l-.128.34a1.5 1.5 0 0 1-1.65.954l-.36-.06-.307.532.231.281a1.5 1.5 0 0 1 0 1.906l-.23.281.306.532.36-.06a1.5 1.5 0 0 1 1.65.953z" fill="#548AF7"></path><path fill-rule="evenodd" clip-rule="evenodd" d="M12.309 15h-.614l-.128-.34a1.5 1.5 0 0 0-1.65-.954l-.36.06-.307-.532.231-.281a1.5 1.5 0 0 0 0-1.906l-.231-.281.307-.532.36.06a1.5 1.5 0 0 0 1.65-.953L11.695 9h.614l.127.34a1.5 1.5 0 0 0 1.651.954l.36-.06.306.532-.231.281a1.5 1.5 0 0 0 0 1.906l.231.281-.307.532-.359-.06a1.5 1.5 0 0 0-1.65.953zm.693-3a1 1 0 1 1-2 0 1 1 0 0 1 2 0" fill="#25324D"></path><path fill-rule="evenodd" clip-rule="evenodd" d="M2 3.392h.017c.062-.388.29-.717.58-.979.34-.307.804-.561 1.335-.764C4.998 1.24 6.436 1 8 1s3.002.241 4.068.649c.53.203.995.457 1.335.764.29.262.518.591.58.98H14v4.023a5 5 0 0 0-1-.316V5.097a5 5 0 0 1-.932.46c-1.066.407-2.504.648-4.068.648s-3.002-.241-4.068-.648A5 5 0 0 1 3 5.097v1.45c0 .1.051.252.268.447.216.196.557.395 1.021.572.926.354 2.237.583 3.711.583q.431 0 .841-.025c-.362.295-.682.64-.95 1.025-1.521-.01-2.918-.25-3.959-.648A5 5 0 0 1 3 8.04v1.45c0 .1.051.251.268.447.216.196.557.395 1.021.572.73.28 1.699.48 2.799.553A5 5 0 0 0 7 12.06c-1.172-.08-2.234-.297-3.068-.616A5 5 0 0 1 3 10.985v1.45c0 .1.051.251.268.447.216.196.557.395 1.021.572.804.307 1.899.52 3.138.571.16.362.363.701.6 1.012H8c-1.564 0-3.002-.241-4.068-.649-.53-.203-.995-.457-1.335-.764-.32-.29-.566-.662-.594-1.106H2zm1 .21c0-.1.051-.251.268-.447.216-.195.557-.395 1.021-.572C5.215 2.229 6.526 2 8 2s2.786.23 3.71.583c.465.177.806.377 1.022.572.217.196.268.348.268.448s-.051.252-.268.447c-.216.196-.557.395-1.021.573-.925.353-2.237.582-3.711.582s-2.785-.229-3.71-.582c-.465-.178-.806-.377-1.022-.573C3.05 3.855 3 3.703 3 3.603" fill="#CED0D6"></path>
</svg>
