<svg width="16" height="16" viewBox="0 0 16 16" fill="none"><path fill-rule="evenodd" clip-rule="evenodd" d="M11 1H7.914a1.5 1.5 0 0 0-1.06.44L3.439 4.853A1.5 1.5 0 0 0 3 5.914V13a2 2 0 0 0 2 2h6a2 2 0 0 0 2-2V3a2 2 0 0 0-2-2M4 13a1 1 0 0 0 1 1h6a1 1 0 0 0 1-1V3a1 1 0 0 0-1-1H8v2.5A1.5 1.5 0 0 1 6.5 6H4zm.707-8L7 2.707V4.5a.5.5 0 0 1-.5.5z" fill="#CED0D6"/><path d="M5 14a1 1 0 0 1-1-1V6h2.5A1.5 1.5 0 0 0 8 4.5V2h3a1 1 0 0 1 1 1v10a1 1 0 0 1-1 1z" fill="#43454A"/><path d="M7 2.707 4.707 5H6.5a.5.5 0 0 0 .5-.5z" fill="#43454A"/></svg>