<svg viewBox="0 0 16 16" fill="none" xmlns="http://www.w3.org/2000/svg">
  <path d="M12.925 16a3.24 3.24 0 0 1-2.899-1.71 3.74 3.74 0 0 1-.429-1.79q0-.986.43-1.783.435-.803 1.195-1.26A3.24 3.24 0 0 1 12.925 9a3.6 3.6 0 0 1 1.437.274q.637.269 1.06.81.422.536.578 1.319h-1.04a2 2 0 0 0-.449-.81 1.9 1.9 0 0 0-.715-.483 2.3 2.3 0 0 0-.87-.163q-.644 0-1.158.326-.507.326-.793.908-.285.58-.286 1.319 0 .732.286 1.313.286.58.793.914.514.326 1.157.326.462 0 .871-.157.41-.163.715-.49.306-.326.449-.809H16a2.95 2.95 0 0 1-.585 1.3 2.8 2.8 0 0 1-1.08.822q-.642.28-1.41.281" fill="#3574F0"></path><path d="M9.22 14.894Q8.625 15 8 15a7 7 0 1 1 6.985-6.539A4.212 4.212 0 0 0 14 8.112L14 8a6 6 0 1 0-5.193 5.946q.128.42.337.814l.005.009z" fill="#6C707E"></path><path fill-rule="evenodd" clip-rule="evenodd" d="M7.992 11C6.23 11 5 9.65 5 8.017V8c0-1.633 1.246-3 3.008-3S11 6.35 11 7.983V8c0 1.633-1.246 3-3.008 3m.016-.945c1.14 0 1.935-.911 1.935-2.038V8c0-1.127-.812-2.055-1.951-2.055s-1.935.911-1.935 2.038V8c0 1.127.812 2.055 1.951 2.055" fill="#6C707E"></path>
</svg>
