<svg viewBox="0 0 16 16" fill="none" xmlns="http://www.w3.org/2000/svg">
  <path d="M1 3.867C1 2.836 1.731 2 2.633 2h3.489a1 1 0 0 1 .721.308L8.467 4H13a2 2 0 0 1 2 2v3.324a1.16 1.16 0 0 0-.762-.198 1.16 1.16 0 0 0-1.65-1.018l-5.915 2.759h-.002a1.16 1.16 0 0 0-.67 1.018v.007c-.01.427.216.838.61 1.05l.784.424.296.634H2.633C1.731 14 1 13.164 1 12.133z" fill="#EBECF0"></path><path d="M2.633 3h3.489L8.04 5H13a1 1 0 0 1 1 1v2.456c.149.195.23.43.238.67a1.16 1.16 0 0 1 .762.198V6a2 2 0 0 0-2-2H8.467L6.843 2.308A1 1 0 0 0 6.122 2H2.633C1.731 2 1 2.836 1 3.867v8.266C1 13.164 1.731 14 2.633 14h5.058l-.296-.634L6.718 13H2.633C2.405 13 2 12.742 2 12.133V3.867C2 3.258 2.405 3 2.633 3" fill="#6C707E"></path><path fill-rule="evenodd" clip-rule="evenodd" d="m15.893 13.11-.645-.227-.079-.472a.161.161 0 0 0-.268-.092l-.798.737-.44-.943a8 8 0 0 0 .834-1.785.161.161 0 0 0-.222-.193l-1.26.589-.228-.49.438-1.01a.16.16 0 0 0-.216-.21l-5.916 2.76a.16.16 0 0 0-.008.288l1.076.581.833 1.785q.029.06.09.083l2.442.891a.16.16 0 0 0 .123-.005l4.259-1.989a.16.16 0 0 0-.015-.297" fill="#633333"></path><path fill-rule="evenodd" clip-rule="evenodd" d="m13.213 12.197.002-.003c.417-.588.698-1.221.847-1.604l-3.177 1.482a.162.162 0 0 1-.229-.136c0-.007-.05-.697-.438-.94-.18-.114-.421-.11-.713.008l-1.44.67 1.192 2.558 2.316.846 2.32-1.082c-.152-.221-.489-.665-.939-.985-.353.355-.77.648-1.256.8a.16.16 0 1 1-.096-.307s.87-.22 1.606-1.3zm-4.464-.347a.386.386 0 1 1 .724.263.386.386 0 0 1-.724-.263" fill="#E55765"></path><path d="m14.946 13.03-.045-.273-.655.606.18.385.99-.465-.365-.128a.16.16 0 0 1-.106-.126" fill="#E55765"></path><path fill-rule="evenodd" clip-rule="evenodd" d="m8.408 12.41-.892-.481.549-.255z" fill="#FCC75B"></path>
</svg>
