<svg width="20" height="20" viewBox="0 0 20 20" fill="none"><circle cx="15.5" cy="15.5" r="3.75" stroke="#6C707E" stroke-width="1.5"/><circle cx="15.5" cy="15.5" r="1.5" fill="#6C707E"/><path fill-rule="evenodd" clip-rule="evenodd" d="M6.537 5.514a3.5 3.5 0 1 1 6.925 0 4 4 0 0 1 1.43 1.364l2.253-1.211a.75.75 0 1 1 .71 1.32l-2.418 1.301q.062.348.063.712v.5a6 6 0 0 0-1.5.189V9a2.5 2.5 0 0 0-2.5-2.5h-3A2.5 2.5 0 0 0 6 9v3.5a4 4 0 0 0 3.58 3.978c.087.534.245 1.045.464 1.522H10a5.5 5.5 0 0 1-4.849-2.902l-2.298 1.236a.75.75 0 0 1-.71-1.322l2.483-1.335A5.5 5.5 0 0 1 4.5 12.5v-.75h-3a.75.75 0 0 1 0-1.5h3V9q0-.365.063-.71l-2.42-1.302a.75.75 0 1 1 .71-1.321l2.255 1.212a4 4 0 0 1 1.43-1.365M8 5.03V5a2 2 0 1 1 4 0v.03a4 4 0 0 0-.5-.03h-3q-.255 0-.5.03" fill="#6C707E"/></svg>