<svg width="14" height="14" viewBox="0 0 14 14" fill="none"><path d="M10 7a4.5 4.5 0 1 1-9 0 4.5 4.5 0 0 1 9 0" fill="#2F2936"/><path fill-rule="evenodd" clip-rule="evenodd" d="M11.5 6a.5.5 0 0 1 .5.5v5.793l1.146-1.147a.5.5 0 0 1 .708.708l-2 2a.5.5 0 0 1-.708 0l-2-2a.5.5 0 0 1 .708-.708L11 12.293V6.5a.5.5 0 0 1 .5-.5" fill="#CED0D6"/><path d="M10.708 5.226a5.5 5.5 0 1 0-2.66 6.65 1.5 1.5 0 0 1 .391-1.437l-.017-.017A4.5 4.5 0 1 1 10 7v-.5c0-.538.283-1.01.708-1.274" fill="#A571E6"/><path d="M3 7v2H2V5h1v.268a1.995 1.995 0 0 1 2.5.41A2 2 0 0 1 9 7v1.999H8V7a1 1 0 0 0-2 0v2H5V7a1 1 0 0 0-2 0" fill="#A571E6"/></svg>