<svg viewBox="0 0 16 16" fill="none" xmlns="http://www.w3.org/2000/svg">
  <path fill-rule="evenodd" clip-rule="evenodd" d="M9 9.502a1.5 1.5 0 0 1 2.294-1.272l4.002 2.497a1.5 1.5 0 0 1 0 2.546l-4.002 2.497A1.5 1.5 0 0 1 9 14.498zm1.765-.424a.5.5 0 0 0-.765.424v4.996a.5.5 0 0 0 .765.424l4.002-2.498a.5.5 0 0 0 0-.848z" fill="#DB5C5C"></path><path d="M10 9.502a.5.5 0 0 1 .765-.424l4.002 2.498a.5.5 0 0 1 0 .848l-4.002 2.498a.5.5 0 0 1-.765-.424z" fill="#402929"></path><path d="M2 8a6 6 0 1 1 11.958.713l.923.577Q15 8.66 15 8a7 7 0 1 0-7 7v-1a6 6 0 0 1-6-6" fill="#CED0D6"></path><path d="M8 4.5a.5.5 0 0 1 .5.5v3a.5.5 0 0 1-.243.429l-2.5 1.5a.5.5 0 0 1-.514-.858L7.5 7.717V5a.5.5 0 0 1 .5-.5" fill="#CED0D6"></path>
</svg>
