<svg width="20" height="20" viewBox="0 0 20 20" fill="none"><path d="M14.72 18.867h1.58V20h-1.58zm0-10.367h1.58v1.743h-1.58zm.583 10.652q-.984 0-1.746-.349a2.9 2.9 0 0 1-1.187-.99 2.64 2.64 0 0 1-.438-1.46h1.898q.007.349.19.621.191.267.528.42.343.152.774.152.42 0 .73-.133.319-.134.49-.375a.94.94 0 0 0 .171-.559q0-.393-.241-.68a1.05 1.05 0 0 0-.642-.355l-1.574-.26a2.6 2.6 0 0 1-1.118-.457 2.37 2.37 0 0 1-.736-.883 2.7 2.7 0 0 1-.26-1.175q0-.78.4-1.397.4-.622 1.117-.965.723-.35 1.638-.35.927 0 1.651.337.725.33 1.13.927.406.597.42 1.365h-1.905a.9.9 0 0 0-.16-.527 1 1 0 0 0-.45-.361 1.6 1.6 0 0 0-.667-.134q-.367 0-.654.127-.286.12-.444.343a.87.87 0 0 0-.16.52.87.87 0 0 0 .223.591 1 1 0 0 0 .584.312l1.493.234a2.7 2.7 0 0 1 1.193.49q.528.375.813.946.292.57.292 1.231a2.55 2.55 0 0 1-.425 1.442q-.42.634-1.188.997-.762.355-1.74.355" fill="#CED0D6"/><path d="M2.249 3.75a5.303 5.303 0 0 1 7.5 0l.25.25.25-.25a5.303 5.303 0 0 1 8.303 6.471 3.8 3.8 0 0 0-1.236-.858 3.805 3.805 0 0 0-6.007-4.552L10 6.12l-1.311-1.31a3.803 3.803 0 0 0-5.379 5.378L10 16.88l.926-.927.006.416q.01.748.289 1.411L9.999 19l-7.75-7.75a5.303 5.303 0 0 1 0-7.5" fill="#CED0D6"/></svg>