<svg viewBox="0 0 16 16" fill="none" xmlns="http://www.w3.org/2000/svg">
  <path d="M8 9.504c0-1.963 2.159-3.16 3.824-2.12L14.88 9.29Q15 8.663 15 8a7 7 0 1 0-6.952 7A2.6 2.6 0 0 1 8 14.5z" fill="#25324D"></path><path fill-rule="evenodd" clip-rule="evenodd" d="M6 5v6h1V9h2V8H7V6h3V5z" fill="#548AF7"></path><path d="M2 8a6 6 0 0 0 6 6v.5q0 .26.048.5H8a7 7 0 1 1 6.881-5.709l-.923-.576Q14 8.363 14 8A6 6 0 0 0 2 8" fill="#548AF7"></path><path fill-rule="evenodd" clip-rule="evenodd" d="M9 9.502a1.5 1.5 0 0 1 2.294-1.272l4.002 2.497a1.5 1.5 0 0 1 0 2.546l-4.002 2.497A1.5 1.5 0 0 1 9 14.498zm1.765-.424a.5.5 0 0 0-.765.424v4.996a.5.5 0 0 0 .765.424l4.002-2.498a.5.5 0 0 0 0-.848z" fill="#57965C"></path><path d="M10 9.502a.5.5 0 0 1 .765-.424l4.002 2.498a.5.5 0 0 1 0 .848l-4.002 2.498a.5.5 0 0 1-.765-.424z" fill="#253627"></path>
</svg>
